<?xml version="1.0" encoding="utf-8"?>
<!-- Generator: Adobe Illustrator 24.0.2, SVG Export Plug-In . SVG Version: 6.00 Build 0)  -->
<svg version="1.1" id="Layer_1" xmlns="http://www.w3.org/2000/svg" xmlns:xlink="http://www.w3.org/1999/xlink" x="0px" y="0px"
	 viewBox="0 0 424.9 130" style="enable-background:new 0 0 424.9 130;" xml:space="preserve">
<style type="text/css">
	.st0{fill:#FCC700;}
	.st1{fill:#FCDF00;}
</style>
<path class="st0" d="M409.5,29.3V17.2c-3.8-0.6-6.6-3.9-6.6-7.8c0-1.5,0.4-2.8,1.1-4H220.5c0.4,1,0.6,2.1,0.6,3.2
	c0,4.8-3.9,8.7-8.7,8.7v-0.1c-4.8,0-8.7-3.9-8.7-8.7c0-1.1,0.2-2.2,0.6-3.2H20.9c0.7,1.2,1.1,2.5,1.1,4c0,3.9-2.9,7.2-6.6,7.8v12.1
	c3.8,0.6,6.6,3.9,6.6,7.8s-2.9,7.2-6.6,7.8v12.1c3.8,0.6,6.6,3.9,6.6,7.8c0,3.9-2.9,7.2-6.6,7.8V85c3.8,0.6,6.6,3.9,6.6,7.8
	c0,3.9-2.9,7.2-6.6,7.8v12.1c3.8,0.6,6.6,3.9,6.6,7.8c0,1.5-0.4,2.8-1.1,4h182.9c0-4.6,3.9-8.5,8.6-8.5c4.8,0,8.7,3.9,8.7,8.7H404
	c-0.7-1.2-1.1-2.5-1.1-4c0-3.9,2.9-7.2,6.6-7.8v-12.1c-3.8-0.6-6.6-3.9-6.6-7.8c0-3.9,2.9-7.2,6.6-7.8V72.8
	c-3.8-0.6-6.6-3.9-6.6-7.8s2.9-7.2,6.6-7.8V45c-3.8-0.6-6.6-3.9-6.6-7.8C402.9,33.3,405.7,30,409.5,29.3z"/>
<path class="st1" d="M403,94.2h-6.3c0-0.1,0-0.1,0-0.2c0-2.4-1.9-4.3-4.3-4.3c-2.4,0-4.3,1.9-4.3,4.3c0,0.1,0,0.1,0,0.2h-6.5
	c0-0.1,0-0.1,0-0.2c0-2.4-1.9-4.3-4.3-4.3c-2.4,0-4.3,1.9-4.3,4.3c0,0.1,0,0.1,0,0.2h-6.5c0-0.1,0-0.1,0-0.2c0-2.4-1.9-4.3-4.3-4.3
	c-2.4,0-4.3,1.9-4.3,4.3c0,0.1,0,0.1,0,0.2h-6.5c0-0.1,0-0.1,0-0.2c0-2.4-1.9-4.3-4.3-4.3c-2.4,0-4.3,1.9-4.3,4.3c0,0.1,0,0.1,0,0.2
	h-6.5c0-0.1,0-0.1,0-0.2c0-2.4-1.9-4.3-4.3-4.3c-2.4,0-4.3,1.9-4.3,4.3c0,0.1,0,0.1,0,0.2h-6.5c0-0.1,0-0.1,0-0.2
	c0-2.4-1.9-4.3-4.3-4.3c-2.4,0-4.3,1.9-4.3,4.3c0,0.1,0,0.1,0,0.2h-6.5c0-0.1,0-0.1,0-0.2c0-2.4-1.9-4.3-4.3-4.3
	c-2.4,0-4.3,1.9-4.3,4.3c0,0.1,0,0.1,0,0.2h-6.5c0-0.1,0-0.1,0-0.2c0-2.4-1.9-4.3-4.3-4.3c-2.4,0-4.3,1.9-4.3,4.3c0,0.1,0,0.1,0,0.2
	h-6.5c0-0.1,0-0.1,0-0.2c0-2.4-1.9-4.3-4.3-4.3c-2.4,0-4.3,1.9-4.3,4.3c0,0.1,0,0.1,0,0.2h-6.5c0-0.1,0-0.1,0-0.2
	c0-2.4-1.9-4.3-4.3-4.3c-2.4,0-4.3,1.9-4.3,4.3c0,0.1,0,0.1,0,0.2h-6.5c0-0.1,0-0.1,0-0.2c0-2.4-1.9-4.3-4.3-4.3
	c-2.4,0-4.3,1.9-4.3,4.3c0,0.1,0,0.1,0,0.2h-6.5c0-0.1,0-0.1,0-0.2c0-2.4-1.9-4.3-4.3-4.3c-2.4,0-4.3,1.9-4.3,4.3c0,0.1,0,0.1,0,0.2
	h-6.5c0-0.1,0-0.1,0-0.2c0-2.4-1.9-4.3-4.3-4.3c-2.4,0-4.3,1.9-4.3,4.3c0,0.1,0,0.1,0,0.2h-6.5c0-0.1,0-0.1,0-0.2
	c0-2.4-1.9-4.3-4.3-4.3c-2.4,0-4.3,1.9-4.3,4.3c0,0.1,0,0.1,0,0.2h-6.5c0-0.1,0-0.1,0-0.2c0-2.4-1.9-4.3-4.3-4.3
	c-2.4,0-4.3,1.9-4.3,4.3c0,0.1,0,0.1,0,0.2h-6.5c0-0.1,0-0.1,0-0.2c0-2.4-1.9-4.3-4.3-4.3c-2.4,0-4.3,1.9-4.3,4.3c0,0.1,0,0.1,0,0.2
	h-6.5c0-0.1,0-0.1,0-0.2c0-2.4-1.9-4.3-4.3-4.3c-2.4,0-4.3,1.9-4.3,4.3c0,0.1,0,0.1,0,0.2h-6.5c0-0.1,0-0.1,0-0.2
	c0-2.4-1.9-4.3-4.3-4.3c-2.4,0-4.3,1.9-4.3,4.3c0,0.1,0,0.1,0,0.2h-6.5c0-0.1,0-0.1,0-0.2c0-2.4-1.9-4.3-4.3-4.3
	c-2.4,0-4.3,1.9-4.3,4.3c0,0.1,0,0.1,0,0.2h-6.5c0-0.1,0-0.1,0-0.2c0-2.4-1.9-4.3-4.3-4.3c-2.4,0-4.3,1.9-4.3,4.3c0,0.1,0,0.1,0,0.2
	h-6.5c0-0.1,0-0.1,0-0.2c0-2.4-1.9-4.3-4.3-4.3c-2.4,0-4.3,1.9-4.3,4.3c0,0.1,0,0.1,0,0.2h-6.5c0-0.1,0-0.1,0-0.2
	c0-2.4-1.9-4.3-4.3-4.3c-2.4,0-4.3,1.9-4.3,4.3c0,0.1,0,0.1,0,0.2h-6.5c0-0.1,0-0.1,0-0.2c0-2.4-1.9-4.3-4.3-4.3
	c-2.4,0-4.3,1.9-4.3,4.3c0,0.1,0,0.1,0,0.2h-6.5c0-0.1,0-0.1,0-0.2c0-2.4-1.9-4.3-4.3-4.3c-2.4,0-4.3,1.9-4.3,4.3c0,0.1,0,0.1,0,0.2
	h-6.5c0-0.1,0-0.1,0-0.2c0-2.4-1.9-4.3-4.3-4.3c-2.4,0-4.3,1.9-4.3,4.3c0,0.1,0,0.1,0,0.2h-6.3c-0.6,3.3-3.2,5.9-6.5,6.4v12.1
	c3.8,0.6,6.6,3.9,6.6,7.8c0,1.5-0.4,2.8-1.1,4h182.9c0-4.6,3.9-8.5,8.6-8.5c4.8,0,8.7,3.9,8.7,8.7H404c-0.7-1.2-1.1-2.5-1.1-4
	c0-3.9,2.9-7.2,6.6-7.8v-12.1C406.1,100.3,403.5,97.6,403,94.2z"/>
</svg>
