<?xml version="1.0" encoding="utf-8"?>
<!-- Generator: Adobe Illustrator 24.0.2, SVG Export Plug-In . SVG Version: 6.00 Build 0)  -->
<svg version="1.1" id="Layer_1" xmlns="http://www.w3.org/2000/svg" xmlns:xlink="http://www.w3.org/1999/xlink" x="0px" y="0px"
	 viewBox="0 0 424.9 130" style="enable-background:new 0 0 424.9 130;" xml:space="preserve">
<style type="text/css">
	.st0{fill:#FCC700;}
	.st1{fill:#FFFFFF;}
	.st2{fill:none;stroke:#FFE200;stroke-width:2;stroke-miterlimit:10;}
	.st3{fill:#FA4238;}
</style>
<path class="st0" d="M212.4,116V17.2c-4.8,0-8.7-3.9-8.7-8.7c0-1.1,0.2-2.2,0.6-3.2H20.9c0.7,1.2,1.1,2.5,1.1,4
	c0,3.9-2.9,7.2-6.6,7.8v12.1c3.8,0.6,6.6,3.9,6.6,7.8s-2.9,7.2-6.6,7.8v12.1c3.8,0.6,6.6,3.9,6.6,7.8s-2.9,7.2-6.6,7.8V85
	c3.8,0.6,6.6,3.9,6.6,7.8s-2.9,7.2-6.6,7.8v12.1c3.8,0.6,6.6,3.9,6.6,7.8c0,1.5-0.4,2.8-1.1,4h182.9
	C203.8,119.9,207.7,116,212.4,116z"/>
<g>
	<polygon class="st1" points="33.8,14 35.8,18 40.3,18.6 37,21.8 37.8,26.2 33.8,24.1 29.9,26.2 30.6,21.8 27.4,18.6 31.8,18 	"/>
	<polygon class="st1" points="52.4,14 54.4,18 58.8,18.6 55.6,21.8 56.4,26.2 52.4,24.1 48.4,26.2 49.2,21.8 46,18.6 50.4,18 	"/>
	<polygon class="st1" points="70.9,14 72.9,18 77.4,18.6 74.2,21.8 74.9,26.2 70.9,24.1 67,26.2 67.7,21.8 64.5,18.6 69,18 	"/>
	<polygon class="st1" points="89.5,14 91.5,18 95.9,18.6 92.7,21.8 93.5,26.2 89.5,24.1 85.5,26.2 86.3,21.8 83.1,18.6 87.5,18 	"/>
	<polygon class="st1" points="108.1,14 110,18 114.5,18.6 111.3,21.8 112,26.2 108.1,24.1 104.1,26.2 104.8,21.8 101.6,18.6 
		106.1,18 	"/>
	<polygon class="st1" points="126.6,14 128.6,18 133,18.6 129.8,21.8 130.6,26.2 126.6,24.1 122.6,26.2 123.4,21.8 120.2,18.6 
		124.6,18 	"/>
	<polygon class="st1" points="145.2,14 147.1,18 151.6,18.6 148.4,21.8 149.1,26.2 145.2,24.1 141.2,26.2 141.9,21.8 138.7,18.6 
		143.2,18 	"/>
	<polygon class="st1" points="163.7,14 165.7,18 170.1,18.6 166.9,21.8 167.7,26.2 163.7,24.1 159.7,26.2 160.5,21.8 157.3,18.6 
		161.7,18 	"/>
	<polygon class="st1" points="182.3,14 184.3,18 188.7,18.6 185.5,21.8 186.2,26.2 182.3,24.1 178.3,26.2 179.1,21.8 175.8,18.6 
		180.3,18 	"/>
	<polygon class="st1" points="200.8,14 202.8,18 207.2,18.6 204,21.8 204.8,26.2 200.8,24.1 196.9,26.2 197.6,21.8 194.4,18.6 
		198.8,18 	"/>
</g>
<g>
	<polygon class="st1" points="33.8,103.8 35.8,107.8 40.3,108.5 37,111.6 37.8,116 33.8,113.9 29.9,116 30.6,111.6 27.4,108.5 
		31.8,107.8 	"/>
	<polygon class="st1" points="52.4,103.8 54.4,107.8 58.8,108.5 55.6,111.6 56.4,116 52.4,113.9 48.4,116 49.2,111.6 46,108.5 
		50.4,107.8 	"/>
	<polygon class="st1" points="70.9,103.8 72.9,107.8 77.4,108.5 74.2,111.6 74.9,116 70.9,113.9 67,116 67.7,111.6 64.5,108.5 
		69,107.8 	"/>
	<polygon class="st1" points="89.5,103.8 91.5,107.8 95.9,108.5 92.7,111.6 93.5,116 89.5,113.9 85.5,116 86.3,111.6 83.1,108.5 
		87.5,107.8 	"/>
	<polygon class="st1" points="108.1,103.8 110,107.8 114.5,108.5 111.3,111.6 112,116 108.1,113.9 104.1,116 104.8,111.6 
		101.6,108.5 106.1,107.8 	"/>
	<polygon class="st1" points="126.6,103.8 128.6,107.8 133,108.5 129.8,111.6 130.6,116 126.6,113.9 122.6,116 123.4,111.6 
		120.2,108.5 124.6,107.8 	"/>
	<polygon class="st1" points="145.2,103.8 147.1,107.8 151.6,108.5 148.4,111.6 149.1,116 145.2,113.9 141.2,116 141.9,111.6 
		138.7,108.5 143.2,107.8 	"/>
	<polygon class="st1" points="163.7,103.8 165.7,107.8 170.1,108.5 166.9,111.6 167.7,116 163.7,113.9 159.7,116 160.5,111.6 
		157.3,108.5 161.7,107.8 	"/>
	<polygon class="st1" points="182.3,103.8 184.3,107.8 188.7,108.5 185.5,111.6 186.2,116 182.3,113.9 178.3,116 179.1,111.6 
		175.8,108.5 180.3,107.8 	"/>
	<polygon class="st1" points="200.8,103.8 202.8,107.8 207.2,108.5 204,111.6 204.8,116 200.8,113.9 196.9,116 197.6,111.6 
		194.4,108.5 198.8,107.8 	"/>
</g>
<rect x="33.8" y="35.7" class="st2" width="167" height="58.5"/>
<path class="st3" d="M409.5,29.3V17.2c-3.8-0.6-6.6-3.9-6.6-7.8c0-1.5,0.4-2.8,1.1-4H220.5c0.4,1,0.6,2.1,0.6,3.2
	c0,4.8-3.9,8.7-8.7,8.7V116c4.8,0,8.7,3.9,8.7,8.7h182.9c-0.7-1.2-1.1-2.5-1.1-4c0-3.9,2.9-7.2,6.6-7.8v-12.1
	c-3.8-0.6-6.6-3.9-6.6-7.8s2.9-7.2,6.6-7.8V72.8c-3.8-0.6-6.6-3.9-6.6-7.8s2.9-7.2,6.6-7.8V45c-3.8-0.6-6.6-3.9-6.6-7.8
	S405.7,30,409.5,29.3z"/>
</svg>
