<?xml version="1.0" encoding="utf-8"?>
<!-- Generator: Adobe Illustrator 24.0.2, SVG Export Plug-In . SVG Version: 6.00 Build 0)  -->
<svg version="1.1" id="Layer_1" xmlns="http://www.w3.org/2000/svg" xmlns:xlink="http://www.w3.org/1999/xlink" x="0px" y="0px"
	 viewBox="0 0 192 192" style="enable-background:new 0 0 192 192;" xml:space="preserve">
<style type="text/css">
	.st0{fill:#FF5900;}
	.st1{fill:#FFAB4D;}
	.st2{fill:#626262;stroke:#626262;stroke-width:2;stroke-miterlimit:10;}
	.st3{opacity:0.15;fill:none;stroke:#808080;stroke-miterlimit:10;enable-background:new    ;}
</style>
<g>
	<g>
		<g id="XMLID_255_">
			<g id="XMLID_263_">
				<path class="st0" d="M75.9,80.1c-0.4,0.8-0.8,1.6-1.2,2.3c-0.4,0.3-0.8,0.6-1.2,1C74.3,82.3,75.1,81.2,75.9,80.1z"/>
			</g>
			<g id="XMLID_262_">
				<path class="st0" d="M107.9,111c1.4-0.1,2.7-0.1,4.1-0.2c3.1-0.2,6.1-0.6,9.1-1.1s6-1,9-1.7c5.9-1.4,11.8-3.2,17.4-5.5
					c2.8-1.1,5.6-2.4,8.3-3.8c1.7-0.8,3.4-1.7,5-2.7c-1-1.8-2.1-3.5-3.1-5.3c-0.5-0.9-1.1-1.9-1.6-2.9c2.1-1.5,3.9-2.8,5.4-4.1
					c0.7,1.1,1.4,2.3,2.1,3.4c1.5,2.4,2.9,4.8,4.3,7.2c0.4,0.7,0.8,1.4,1.2,2c-1,0.6-2,1.2-3,1.8c-2.8,1.6-5.6,3-8.5,4.4
					c-2.9,1.3-5.8,2.5-8.8,3.6c-5.9,2.1-12,3.8-18.2,4.8c-3.1,0.5-6.2,0.9-9.3,1.2c-3.1,0.3-6.2,0.4-9.4,0.4c-3.1,0-6.2-0.2-9.3-0.4
					C104.5,111.8,106.2,111.5,107.9,111z"/>
			</g>
			<g id="XMLID_261_">
				<path class="st0" d="M156.4,95.5c-10.2,5.1-21,8.5-32.2,10.2c11.6-4.7,21.7-10.8,29.3-16C154.5,91.6,155.4,93.6,156.4,95.5z"/>
			</g>
			<g id="XMLID_260_">
				<path class="st0" d="M154.8,85.6c-2.4,2-5,4-7.6,5.8c-5.2,3.6-10.7,6.7-16.4,9.4c-2.8,1.3-5.7,2.5-8.7,3.6c-2.9,1.1-5.9,2-9,2.8
					c-3,0.8-6.1,1.5-9.1,2c1.6-0.8,3.2-1.6,4.7-2.4c1.3-0.4,2.6-0.8,3.9-1.3c2.9-1,5.8-2.1,8.5-3.4c2.8-1.2,5.5-2.6,8.2-4
					c5.4-2.9,10.5-6.2,15.4-9.9c2.4-1.8,4.8-3.8,7.1-5.8c1.4-1.3,2.8-2.6,4.2-3.9c-1.5-1.4-2.9-2.9-4.4-4.4
					c-0.8-0.8-1.5-1.6-2.3-2.3c1.6-2,3-3.8,4.2-5.3c1,0.9,2,1.8,2.9,2.8c2,1.9,4,3.9,6,5.9c0.6,0.6,1.1,1.1,1.7,1.7
					c-0.8,0.8-1.6,1.7-2.4,2.5C159.6,81.4,157.2,83.6,154.8,85.6z"/>
			</g>
			<g id="XMLID_259_">
				<path class="st0" d="M147.5,70c-1.8,2.6-3.8,5.1-5.8,7.5c-4.1,4.8-8.6,9.3-13.4,13.3c-2.4,2-4.9,3.9-7.5,5.7
					c-2.6,1.8-5.2,3.4-7.9,5c-2.7,1.6-5.5,3-8.3,4.3c1.3-1.2,2.6-2.3,3.9-3.6c1.2-0.7,2.3-1.5,3.4-2.3c2.5-1.7,5-3.6,7.4-5.5
					s4.7-3.9,6.9-6c4.4-4.2,8.6-8.7,12.3-13.5c1.9-2.4,3.6-4.9,5.3-7.4c1-1.6,2.1-3.2,3-4.8c-1.8-1-3.6-2-5.3-3.1
					c-0.9-0.5-1.9-1.1-2.8-1.7c1-2.3,1.9-4.4,2.7-6.2c1.2,0.6,2.4,1.3,3.5,1.9c2.5,1.3,4.9,2.7,7.3,4.1c0.7,0.4,1.4,0.8,2,1.2
					c-0.6,1-1.1,2-1.7,3C151,64.7,149.3,67.4,147.5,70z"/>
			</g>
			<g id="XMLID_258_">
				<path class="st0" d="M120,89.5c7.7-9.9,13.4-20.2,17.4-28.5c1.8,1.2,3.6,2.4,5.4,3.5C136.5,74.1,128.8,82.5,120,89.5z"/>
			</g>
			<g id="XMLID_257_">
				<path class="st0" d="M136.4,56.8c-1.1,3-2.3,5.9-3.7,8.8c-2.7,5.7-5.9,11.2-9.5,16.3c-1.8,2.6-3.7,5-5.7,7.4s-4.1,4.7-6.4,6.9
					c-2.2,2.2-4.5,4.3-6.9,6.3c1-1.5,2-2.9,2.9-4.4c0.9-1,1.8-2,2.7-3.1c2-2.3,3.9-4.7,5.7-7.2c1.8-2.5,3.5-5,5.1-7.6
					c3.2-5.2,6-10.6,8.4-16.2c1.2-2.8,2.3-5.7,3.2-8.6c0.6-1.8,1.2-3.6,1.7-5.5c-2-0.5-4-1-6-1.6c-1.1-0.3-2.1-0.6-3.2-0.9
					c0.4-2.5,0.7-4.8,1-6.7c1.3,0.3,2.6,0.6,3.9,0.9c2.7,0.7,5.4,1.3,8.2,2.1c0.8,0.2,1.5,0.4,2.3,0.6c-0.3,1.1-0.6,2.3-0.9,3.4
					C138.5,50.8,137.5,53.8,136.4,56.8z"/>
			</g>
			<g id="XMLID_256_">
				<path class="st0" d="M95.1,34.7c2.8-0.2,5.6-0.3,8.4-0.4c2.8-0.1,5.6-0.2,8.4-0.3s5.6-0.1,8.4-0.1c0.8,0,1.6,0,2.4,0
					c0,1.2,0,2.3,0,3.5c0,3.2-0.2,6.4-0.5,9.6c-0.3,3.2-0.7,6.3-1.3,9.4c-1.1,6.2-2.8,12.3-4.9,18.2c-1.1,2.9-2.3,5.8-3.6,8.7
					c-1.3,2.8-2.8,5.6-4.4,8.3c-1.6,2.7-3.3,5.3-5.1,7.9c-1.8,2.6-3.7,5-5.8,7.4c1.8-2.6,3.4-5.2,4.9-7.9c1.6-2.7,3-5.4,4.3-8.2
					c1.3-2.8,2.5-5.6,3.6-8.4s2.1-5.7,3-8.7c1.8-5.8,3.1-11.8,3.9-17.8c0.4-3,0.7-6.1,0.9-9.1c0.1-1.9,0.2-3.8,0.2-5.7
					c-2.1,0-4.1,0-6.2,0c-2.8,0-5.6-0.1-8.4-0.1c-2.8-0.1-5.6-0.2-8.4-0.3c-1.4-0.1-2.8-0.1-4.2-0.2c-0.6,0-1.3-0.1-1.9-0.1
					c-0.1,1.6-0.2,3.2-0.3,4.8c-0.3,2.4-0.6,4.9-1.1,7.3c-1,4.8-2.4,9.5-4.2,13.9c-0.9,2.2-2,4.4-3.1,6.6c-1.1,2.1-2.4,4.2-3.7,6.2
					c-0.2,0.3-0.5,0.7-0.7,1c-0.8,1.1-2.4,3.3-2.4,3.3L73,83.9c0,0-0.5,0.6-0.8,0.9c-1.5,1.9-3.2,3.7-4.9,5.4
					c1.4-1.9,2.8-3.9,4.1-5.9c1.3-2,2.4-4.1,3.5-6.2s2.1-4.2,3-6.4c0.9-2.2,1.7-4.3,2.4-6.6c1.4-4.4,2.5-9,3.2-13.6
					c0.3-2.3,0.6-4.6,0.7-6.9c0.1-2.3,0.2-4.7,0.1-7c0-0.8-0.1-1.6-0.1-2.3c0.8,0,1.6-0.1,2.3-0.1c0.6,0,1.2-0.1,1.8-0.1
					c0.8-0.1,1.6-0.1,2.4-0.2C92.3,34.9,93.7,34.8,95.1,34.7z"/>
			</g>
		</g>
		<g>
			<g>
				<path class="st0" d="M85.1,90.9c-0.2,0.4-0.4,0.8-0.4,1.1c-0.1,0.4-0.1,0.7,0,1s0.2,0.6,0.4,0.9c0.2,0.3,0.4,0.5,0.7,0.6
					c0.3,0.2,0.6,0.3,0.9,0.4s0.5,0.1,0.8,0c0.2,0,0.4-0.1,0.6-0.2s0.4-0.2,0.5-0.3c0.1-0.1,0.3-0.1,0.4-0.2s0.3-0.1,0.4-0.1
					s0.3,0,0.4,0s0.3,0.1,0.4,0.1c0.1,0.1,0.2,0.2,0.3,0.3c0.1,0.1,0.2,0.2,0.2,0.4c0,0.1,0.1,0.3,0,0.4c0,0.2-0.1,0.3-0.2,0.5
					s-0.3,0.4-0.6,0.6c-0.3,0.2-0.5,0.3-0.9,0.3C88.7,97,88.4,97,88,97s-0.7,0-1.1-0.1s-0.7-0.2-1.1-0.3c-0.4-0.1-0.7-0.3-1-0.5
					c-0.6-0.4-1.2-0.8-1.6-1.3s-0.7-1.1-0.9-1.6c-0.2-0.6-0.2-1.2-0.1-1.8c0.1-0.6,0.3-1.3,0.7-1.9c0.4-0.7,1-1.3,1.6-1.6
					c0.6-0.4,1.3-0.6,2-0.6c-0.1-0.3-0.3-0.6-0.3-1c-0.1-0.3-0.1-0.6-0.1-1c0-0.3,0.1-0.7,0.2-1.1s0.3-0.8,0.6-1.2
					c0.4-0.6,0.8-1.1,1.3-1.5s1-0.6,1.6-0.7s1.1-0.1,1.7,0s1.2,0.4,1.7,0.7c0.5,0.3,1,0.7,1.3,1.1s0.6,0.8,0.8,1.2
					c0.2,0.4,0.3,0.9,0.4,1.3s0.1,0.9,0.1,1.3s-0.1,0.8-0.2,1.1c-0.1,0.3-0.2,0.6-0.3,0.8c-0.1,0.2-0.2,0.3-0.3,0.4
					c-0.1,0.1-0.3,0.1-0.4,0.2s-0.3,0-0.4,0s-0.3-0.1-0.4-0.2c-0.2-0.1-0.3-0.2-0.4-0.4S93,88.1,92.9,88c0-0.2,0-0.3,0-0.5
					S93,87.2,93,87c0.1-0.3,0.1-0.6,0.2-0.9c0-0.3,0-0.7,0-1c-0.1-0.3-0.2-0.7-0.3-1c-0.2-0.3-0.4-0.6-0.8-0.8
					c-0.2-0.1-0.5-0.2-0.7-0.2c-0.3,0-0.5,0-0.8,0.1s-0.6,0.3-0.8,0.5c-0.3,0.2-0.5,0.5-0.7,0.8c-0.3,0.5-0.5,0.9-0.5,1.3
					c-0.1,0.4-0.1,0.7,0,1s0.2,0.6,0.4,0.8c0.2,0.2,0.4,0.4,0.7,0.6c0.3,0.2,0.6,0.4,0.9,0.7c0.3,0.3,0.5,0.5,0.8,0.9
					s0.4,0.6,0.6,0.9s0.3,0.6,0.4,1c0.1,0.3,0.1,0.6,0.1,0.9s-0.1,0.6-0.2,0.8c-0.1,0.2-0.2,0.3-0.3,0.4c-0.1,0.1-0.3,0.2-0.4,0.2
					s-0.3,0-0.4,0s-0.3-0.1-0.4-0.2s-0.2-0.2-0.3-0.3c-0.1-0.1-0.1-0.2-0.2-0.3c0-0.1-0.1-0.3-0.1-0.4s0-0.3,0-0.4
					c0-0.2,0-0.4,0-0.6s-0.1-0.4-0.1-0.6c-0.1-0.2-0.2-0.4-0.4-0.7c-0.2-0.2-0.4-0.4-0.8-0.6c-0.3-0.2-0.6-0.3-0.9-0.3
					s-0.6,0-0.9,0.1s-0.6,0.3-0.9,0.5C85.6,90.2,85.4,90.5,85.1,90.9z"/>
			</g>
		</g>
		<g>
			<path class="st0" d="M96.8,86.3c-0.1-0.1-0.2-0.2-0.3-0.3c-0.1-0.1-0.1-0.2-0.1-0.3c0-0.1,0-0.2,0-0.3c0-0.1,0.1-0.2,0.1-0.3
				c0.1-0.1,0.1-0.2,0.2-0.3c0.1-0.1,0.2-0.1,0.3-0.2c0.1,0,0.2-0.1,0.4,0c0.1,0,0.2,0.1,0.4,0.1l0.8,0.5c0.1,0,0.2,0.1,0.3,0.1
				c0.1,0,0.2,0,0.4,0l1.1-0.4c0.1,0,0.1-0.1,0.2-0.1s0.1-0.1,0.2-0.1c0,0,0-0.1,0-0.2s-0.1-0.1-0.2-0.2l-5-3
				c-0.8-0.5-1.5-0.9-2-1.2c-0.6-0.3-1.1-0.6-1.5-0.8c-0.2-0.1-0.5-0.2-0.7-0.3c-0.2-0.1-0.4-0.2-0.5-0.3c-0.2-0.1-0.4-0.2-0.5-0.4
				c-0.2-0.1-0.3-0.3-0.4-0.4c-0.1-0.2-0.1-0.3-0.1-0.5s0-0.3,0.1-0.5s0.3-0.4,0.4-0.4c0.2-0.1,0.3-0.1,0.5-0.1s0.4,0.1,0.6,0.2
				s0.4,0.2,0.7,0.4c0.8,0.5,1.5,0.9,2.2,1.4s1.4,0.9,2.1,1.3l7,4.2c0.4,0.2,0.6,0.5,0.7,0.8s0.1,0.6-0.1,0.9
				c-0.1,0.1-0.2,0.2-0.3,0.3c-0.1,0.1-0.3,0.2-0.5,0.2l-2.9,1c-0.3,0.1-0.6,0.2-0.8,0.2s-0.5,0-0.7,0s-0.4-0.1-0.7-0.2
				c-0.2-0.1-0.5-0.2-0.7-0.4L96.8,86.3z"/>
		</g>
		<g>
			<path class="st0" d="M100.3,73.5c0.2-0.4,0.4-0.8,0.4-1.1c0.1-0.4,0.1-0.7,0-1s-0.2-0.6-0.4-0.9c-0.2-0.3-0.4-0.5-0.7-0.6
				c-0.3-0.2-0.6-0.3-0.9-0.4s-0.5-0.1-0.8,0c-0.2,0-0.4,0.1-0.6,0.2s-0.4,0.2-0.5,0.3c-0.1,0.1-0.3,0.1-0.4,0.2s-0.3,0.1-0.4,0.1
				s-0.3,0-0.4,0s-0.3-0.1-0.4-0.1c-0.1-0.1-0.2-0.2-0.3-0.3c-0.1-0.1-0.2-0.2-0.2-0.4c0-0.1-0.1-0.3,0-0.4c0-0.2,0.1-0.3,0.2-0.5
				s0.3-0.4,0.6-0.6c0.3-0.2,0.5-0.3,0.9-0.3c0.3-0.1,0.7-0.1,1-0.1c0.4,0,0.7,0,1.1,0.1s0.7,0.2,1.1,0.3c0.4,0.1,0.7,0.3,1,0.5
				c0.6,0.4,1.2,0.8,1.6,1.3s0.7,1.1,0.9,1.6c0.2,0.6,0.2,1.2,0.1,1.8c-0.1,0.6-0.3,1.3-0.7,1.9c-0.4,0.6-0.8,1.1-1.3,1.5
				s-1.1,0.6-1.7,0.7s-1.2,0.1-1.9,0c-0.7-0.1-1.3-0.4-1.9-0.8c-0.3-0.2-0.6-0.4-0.9-0.7c-0.3-0.3-0.5-0.5-0.8-0.9s-0.4-0.6-0.6-0.9
				s-0.3-0.6-0.4-1c-0.1-0.3-0.1-0.6-0.1-0.9s0.1-0.6,0.2-0.8c0.1-0.2,0.2-0.3,0.3-0.4c0.1-0.1,0.3-0.2,0.4-0.2s0.3,0,0.4,0
				s0.3,0.1,0.4,0.2s0.2,0.2,0.3,0.3c0.1,0.1,0.1,0.2,0.2,0.3c0,0.1,0.1,0.3,0.1,0.4s0,0.3,0,0.4c0,0.2,0,0.4,0,0.6s0.1,0.4,0.1,0.6
				c0.1,0.2,0.2,0.4,0.4,0.7c0.2,0.2,0.4,0.4,0.8,0.6c0.3,0.2,0.6,0.3,0.9,0.3s0.6,0,0.9-0.1s0.6-0.3,0.9-0.5
				C99.8,74.2,100.1,73.9,100.3,73.5z"/>
		</g>
		<g>
			<path class="st0" d="M93,63.6c0.1,0.1,0.2,0.1,0.3,0.2c0.1,0.1,0.1,0.2,0.1,0.3s0,0.2,0,0.3c0,0.1-0.1,0.2-0.1,0.3
				c-0.1,0.1-0.1,0.2-0.2,0.2C93,65,92.9,65,92.8,65.1c-0.1,0-0.2,0-0.3,0c-0.1,0-0.2,0-0.3-0.1c-0.2-0.1-0.3-0.2-0.5-0.2
				s-0.4,0-0.6,0c-0.2,0.1-0.4,0.2-0.6,0.3c-0.2,0.2-0.4,0.4-0.5,0.6c-0.2,0.3-0.3,0.5-0.3,0.8c0,0.2,0,0.5,0,0.7s0.1,0.4,0.2,0.6
				s0.3,0.3,0.4,0.4c0.2,0.1,0.3,0.2,0.6,0.2c0.2,0,0.4,0,0.6,0c0.2-0.1,0.4-0.1,0.6-0.3c0.2-0.1,0.4-0.4,0.5-0.6
				c0.1-0.1,0.2-0.2,0.3-0.3s0.2-0.1,0.3-0.2c0.1,0,0.2,0,0.4,0c0.1,0,0.2,0.1,0.3,0.1c0.1,0.1,0.2,0.1,0.3,0.2
				c0.1,0.1,0.1,0.2,0.2,0.3c0,0.1,0,0.2,0,0.4c0,0.1-0.1,0.3-0.1,0.4c-0.2,0.4-0.6,0.7-0.9,1c-0.4,0.3-0.8,0.5-1.2,0.6
				c-0.4,0.1-0.9,0.1-1.3,0c-0.5-0.1-0.9-0.2-1.4-0.5c-0.4-0.3-0.8-0.6-1.1-1c-0.3-0.4-0.5-0.8-0.6-1.2c-0.1-0.4-0.1-0.9-0.1-1.3
				c0.1-0.4,0.2-0.9,0.5-1.3c0.2-0.4,0.6-0.7,0.9-1c0.4-0.3,0.8-0.5,1.2-0.6c0.4-0.1,0.9-0.1,1.3,0C92.1,63.2,92.5,63.4,93,63.6z"/>
		</g>
	</g>
	<g>
		<path class="st1" d="M99.2,125.7c-9.6-2.8-19.2-5.6-28.8-8.4c-1.9-0.5-3.8-1-5.7-1.7c-2.9-1-5.7-0.6-8.1,1.1
			c-5.1,3.5-10.2,7.2-15.4,10.9c4.5,6.3,8.9,12.5,13.3,18.7c0.6-0.4,1.2-0.7,1.7-1.1c2.5-2,5.3-2.4,8.4-1.6c9.8,2.6,19.6,5,29.4,7.5
			c1.7,0.4,3.2,0.1,4.5-0.8c11.2-7.9,22.3-15.8,33.5-23.7c2.7-1.9,3.3-5,1.6-7.4s-4.8-2.8-7.5-1c-3.8,2.7-7.7,5.4-11.5,8
			c-0.1,0.1-0.3,0.2-0.4,0.3c-0.9,0.6-1.9,1-2.7-0.1c-0.7-1.1-0.1-1.9,0.8-2.5c4.1-2.9,8.2-5.8,12.3-8.6c1-0.7,2.3-1.1,3.5-1.3
			c3.9-0.5,7.4,1.5,8.8,4.9c1.5,3.7,0.4,7.7-2.9,10.1c-4.4,3.2-8.9,6.3-13.3,9.4c-6.6,4.7-13.3,9.4-19.9,14.1
			c-2.5,1.8-5.2,2.3-8.1,1.5c-9.3-2.4-18.6-4.6-27.8-7.2c-3.3-0.9-5.9-0.4-8.4,2.1c0.5,0.7,1,1.4,1.5,2.1c0.7,1,0.5,1.9-0.5,2.6
			c-1.7,1.2-3.5,2.5-5.2,3.7c-0.9,0.6-1.8,0.8-2.5-0.2c-0.6-1-0.2-1.8,0.8-2.4c1.3-0.9,2.6-1.8,4.1-2.9
			c-6.2-8.7-12.3-17.4-18.6-26.2c-1.4,1-2.8,2-4.2,3c-0.9,0.7-2,1.2-2.8,0c-0.7-1.1-0.1-1.9,0.9-2.6c1.6-1,3-2.1,4.6-3.2
			c1.9-1.4,2.4-1.3,3.7,0.6c0.3,0.4,0.6,0.9,1.1,1.5c2.3-1.6,4.6-3.2,6.9-4.8c2.7-1.9,5.4-3.9,8.2-5.8c3.3-2.2,6.9-2.9,10.7-1.8
			c11.7,3.3,23.4,6.8,35.1,10.2c4.7,1.4,7.3,5.7,6,10.2c-1.2,4.4-5.5,6.8-10.3,5.6c-5.9-1.4-11.8-2.9-17.7-4.3
			c-1.1-0.3-2.1-0.7-1.8-2.1c0.4-1.3,1.3-1.2,2.5-1c6,1.5,12.1,3,18.2,4.4c3.5,0.8,6.7-1.9,6.3-5.4
			C103.2,128.2,101.6,126.4,99.2,125.7"/>
		<path class="st1" d="M51,160.6c-0.3,0-0.5,0-0.8-0.1c-0.7-0.1-1.8-0.6-2.5-1.8c-1.3-2-0.7-4.3,1.5-5.8c0.7-0.5,1.3-0.9,2-1.4
			l-15.7-22.1c-0.7,0.5-1.4,1-2.1,1.5c-0.5,0.4-2,1.4-3.7,1.1c-0.7-0.1-1.7-0.5-2.6-1.7c-0.8-1.2-0.8-2.3-0.7-3.1
			c0.2-1.2,1-2.2,2.3-3.1c0.9-0.6,1.8-1.3,2.8-1.9c0.6-0.4,1.2-0.8,1.7-1.2c2.9-2,4.8-1.8,6.8,0.7l0.1-0.1c1.6-1.1,3.2-2.2,4.7-3.3
			c0.9-0.6,1.8-1.3,2.7-2c1.8-1.3,3.6-2.6,5.5-3.9c3.9-2.7,8.4-3.4,12.8-2.2c10.8,3.1,21.8,6.3,32.5,9.4l2.6,0.8
			c6,1.8,9.3,7.5,7.8,13.3c-1.6,5.8-7.2,8.9-13.3,7.4c-3.1-0.7-6.1-1.5-9.2-2.2c-2.8-0.7-5.7-1.4-8.5-2.1c-0.7-0.2-2.4-0.6-3.3-2.1
			c-0.4-0.6-0.7-1.7-0.3-3.1c0.2-0.9,1.4-3.7,5.5-2.7c5.9,1.5,12,3,18.1,4.4c0.9,0.2,1.8,0,2.4-0.6c0.6-0.5,0.9-1.3,0.8-2.2
			c-0.1-1.1-1-2-2.4-2.4l0,0c-6.7-1.9-13.4-3.9-20-5.8l-8.8-2.5c-0.6-0.2-1.1-0.3-1.7-0.5c-1.3-0.4-2.7-0.8-4.1-1.2
			c-2.1-0.7-4.1-0.5-5.9,0.8c-3.6,2.4-7.1,4.9-10.8,7.6c-0.8,0.6-1.7,1.2-2.5,1.8L55.1,143c2.9-2.1,6.3-2.7,10.1-1.6
			c5.4,1.4,11,2.8,16.3,4.2c4.4,1.1,8.7,2.2,13.1,3.3c0.9,0.2,1.6,0.1,2.5-0.5c11.2-7.9,22.3-15.8,33.5-23.7c1.5-1.1,1.9-2.6,1-3.9
			s-2.5-1.4-4-0.4c-2.8,2-5.7,4-8.5,5.9l-3,2.1c-0.2,0.1-0.3,0.2-0.4,0.3c-3.7,2.5-5.8-0.2-6.1-0.7c-1.1-1.6-1.3-4.1,1.5-6
			c1.4-1,2.8-2,4.2-2.9c2.7-1.9,5.4-3.8,8.2-5.7c1.3-0.9,2.9-1.5,4.6-1.7c4.9-0.7,9.7,2,11.5,6.5c1.9,4.8,0.4,10-3.8,13
			c-3,2.2-6.1,4.3-9.2,6.5l-4.1,2.9c-1.9,1.3-3.7,2.6-5.6,3.9c-4.7,3.3-9.6,6.8-14.3,10.2c-3.1,2.3-6.5,2.9-10.2,1.9
			c-3.2-0.8-6.5-1.6-9.7-2.5c-6-1.5-12.1-3-18.2-4.7c-1.8-0.5-3.1-0.5-4.3,0.2l0.2,0.2c1.5,2.2,1,4.5-1.1,6.1l-1.3,0.9
			c-1.3,0.9-2.6,1.9-3.9,2.8C52.7,160.4,51.7,160.6,51,160.6z M51.8,157.1L51.8,157.1L51.8,157.1z"/>
	</g>
	<g>
		<path class="st2" d="M62,72.3"/>
	</g>
	<g>
		<path class="st0" d="M75.6,48.5c1.5,0,3,0.1,4.4,0.3V37.6c-0.1,0-0.3,0-0.4,0c-0.4,0-0.8-0.1-1.2-0.1c-0.3,0-0.6,0-0.8-0.1
			c-0.6,0-1.2,0-1.9,0h-0.1l0,0l0,0h-0.1c-0.6,0-1.2,0-1.9,0c-0.3,0-0.6,0-0.8,0.1c-0.4,0-0.8,0.1-1.2,0.1c-0.3,0-0.6,0.1-1,0.1
			c-0.3,0-0.7,0.1-1,0.1s-0.7,0.1-1,0.2c-0.3,0-0.6,0.1-0.9,0.2c-0.4,0.1-0.7,0.1-1.1,0.2c-0.2,0.1-0.5,0.1-0.7,0.2
			c-0.4,0.1-0.8,0.2-1.2,0.3c-0.2,0-0.3,0.1-0.5,0.1c-2.1,0.6-4.2,1.4-6.2,2.3c0,0-0.1,0-0.1,0.1c-0.5,0.2-1,0.5-1.4,0.7
			c-0.1,0-0.1,0.1-0.2,0.1c-0.5,0.3-1,0.5-1.4,0.8c0,0-0.1,0-0.1,0.1c-12.6,7.3-21.1,20.8-21.1,36.4c0,1.1,0,2.1,0.1,3.2h-9.3
			c-0.7,0-1.3,0.4-1.6,1.1c-0.3,0.6-0.1,1.4,0.4,1.9L39.7,102c0.3,0.3,0.8,0.5,1.2,0.5c0.5,0,0.9-0.2,1.2-0.5l16.5-16.5
			c0.5-0.5,0.6-1.2,0.4-1.9c-0.3-0.6-0.9-1.1-1.6-1.1H44.9c-0.1-1-0.2-2.1-0.2-3.2C44.7,62.4,58.5,48.5,75.6,48.5z"/>
	</g>
</g>
<path class="st3" d="M162,192H30c-16.6,0-30-13.4-30-30V30C0,13.4,13.4,0,30,0h132c16.6,0,30,13.4,30,30v132
	C192,178.6,178.6,192,162,192z"/>
</svg>
