<?xml version="1.0" encoding="utf-8"?>
<!-- Generator: Adobe Illustrator 24.0.2, SVG Export Plug-In . SVG Version: 6.00 Build 0)  -->
<svg version="1.1" id="Layer_1" xmlns="http://www.w3.org/2000/svg" xmlns:xlink="http://www.w3.org/1999/xlink" x="0px" y="0px"
	 viewBox="0 0 192 192" style="enable-background:new 0 0 192 192;" xml:space="preserve">
<style type="text/css">
	.st0{fill:#FF5900;}
	.st1{fill:#FFAB4D;}
	.st2{opacity:0.15;fill:none;stroke:#808080;stroke-miterlimit:10;enable-background:new    ;}
</style>
<g>
	<path class="st0" d="M40.5,154.2h83.7l0,0l0,0c0.1,0,0.2,0,0.3,0h0.1c0.1,0,0.1,0,0.2,0h0.1h0.1h0.1h0.1c0,0,0.1,0,0.1-0.1
		c0,0,0.1,0,0.1-0.1c0,0,0.1,0,0.1-0.1c0,0,0.1,0,0.1-0.1l0.1-0.1c0,0,0.1,0,0.1-0.1l0.1-0.1c0,0,0,0,0.1-0.1l27.3-26.8l0,0l0.1-0.1
		c0,0,0,0,0.1-0.1s0.1-0.1,0.1-0.2c0,0,0.1-0.1,0.1-0.2c0,0,0-0.1,0.1-0.1c0,0,0-0.1,0.1-0.1c0,0,0-0.1,0.1-0.1v-0.1v-0.1v-0.1v-0.1
		c0-0.1,0-0.2,0-0.3c0,0,0,0,0-0.1s0-0.1,0-0.2l0,0v-84c0-1.5-1.2-2.7-2.7-2.7H67.8h-0.1c-0.1,0-0.1,0-0.2,0h-0.1h-0.1h-0.1h-0.1H67
		h-0.1c0,0-0.1,0-0.1,0.1c0,0-0.1,0-0.1,0.1c0,0-0.1,0-0.1,0.1c0,0-0.1,0-0.1,0.1l-0.1,0.1l-0.1,0.1l-0.1,0.1c0,0,0,0-0.1,0.1
		L38.5,65.4l0,0l-0.1,0.1c0,0,0,0-0.1,0.1s-0.1,0.1-0.1,0.2c0,0-0.1,0.1-0.1,0.2c0,0,0,0.1-0.1,0.1c0,0,0,0.1-0.1,0.1
		c0,0,0,0.1-0.1,0.1v0.1v0.1v0.1v0.1c0,0.1,0,0.2,0,0.3c0,0,0,0,0,0.1s0,0.1,0,0.2l0,0v84C37.7,152.9,39,154.2,40.5,154.2z
		 M121.5,148.7H43.2V70.1h26v42.3l7.2-5l5.5,5l5.4-5.2l8.5,5.2V70.1h25.6v78.6H121.5z M127,68.5l21.8-22.1v77L127,144.9V68.5z
		 M123.1,64.7h-24L120,43.3h24.1L123.1,64.7z M68.9,43.3h24.3L71.5,64.7H47.2L68.9,43.3z"/>
	<path class="st1" d="M75.6,127.1h-29c-0.5,0-1,0.4-1,1v16.6c0,0.5,0.4,1,1,1h29c0.5,0,1-0.4,1-1V128
		C76.5,127.5,76.1,127.1,75.6,127.1z M74.6,143.7h-27V129h27V143.7z"/>
	<rect x="49.2" y="130.8" class="st1" width="1.5" height="11.3"/>
	<rect x="71.5" y="130.8" class="st1" width="1.3" height="11.3"/>
	<rect x="51.9" y="130.8" class="st1" width="1.5" height="11.3"/>
	<rect x="57.8" y="130.8" class="st1" width="1.5" height="11.3"/>
	<rect x="63.2" y="130.8" class="st1" width="1.3" height="11.3"/>
	<rect x="65.5" y="130.8" class="st1" width="1.3" height="11.3"/>
	<rect x="60.3" y="130.8" class="st1" width="2.2" height="11.3"/>
	<rect x="54.2" y="130.8" class="st1" width="2.5" height="11.3"/>
	<rect x="67.9" y="130.8" class="st1" width="2.5" height="11.3"/>
</g>
<path class="st2" d="M162,192H30c-16.6,0-30-13.4-30-30V30C0,13.4,13.4,0,30,0h132c16.6,0,30,13.4,30,30v132
	C192,178.6,178.6,192,162,192z"/>
</svg>
