<?xml version="1.0" encoding="utf-8"?>
<!-- Generator: Adobe Illustrator 24.0.2, SVG Export Plug-In . SVG Version: 6.00 Build 0)  -->
<svg version="1.1" id="Layer_1" xmlns="http://www.w3.org/2000/svg" xmlns:xlink="http://www.w3.org/1999/xlink" x="0px" y="0px"
	 width="256px" height="256px" viewBox="0 0 50 50" style="enable-background:new 0 0 50 50;" xml:space="preserve">
<g>
	<path d="M22.6,43.7c0.3,0,0.6,0.1,0.9,0.1c0.7-0.9,2.1-3.3,2.6-8.4l-1.5-0.1c-0.6,6-2.5,7.9-2.5,7.9L22.6,43.7L22.6,43.7z"/>
	<path d="M26.4,39.9c0,1.2,0,2.6-0.1,4c0.5,0,1.1,0,1.6-0.1c0-0.7,0.2-4.3-0.1-8.6l-1.5,0.1C26.4,37.2,26.5,38.7,26.4,39.9z"/>
	<g>
		<path d="M25,44.9C14.1,44.9,5.1,36,5.1,25S14,5.1,25,5.1S44.9,14,44.9,25S36,44.9,25,44.9z M25,6.6C14.9,6.6,6.6,14.9,6.6,25
			S14.8,43.4,25,43.4S43.4,35.1,43.4,25S35.2,6.6,25,6.6z"/>
	</g>
	<path d="M25,25"/>
	<path d="M17.5,11.3"/>
	<path d="M11.2,32.6c0-0.5,0.2-1,0.6-1.4c0,0-0.1,0-0.1-0.1l0,0C10,30,9.8,29,10,27.4c0.1-0.7-0.1-1.5-0.2-2.3
		c-0.4-1.9-0.5-3.2,0.8-3.9c0.2-0.1,0.4-0.2,0.7-0.3c-0.3-0.5-0.5-1-0.6-1.4c-0.3,0.1-0.5,0.2-0.8,0.3c-2.5,1.2-2,3.7-1.7,5.6l0,0
		c0.1,0.7,0.3,1.3,0.2,1.8c-0.3,2.1,0,3.6,2.3,5.2C10.9,32.4,11.1,32.5,11.2,32.6L11.2,32.6z"/>
	<path d="M18.3,11.3c0.2,0,0.4,0.2,0.8,0.5c0.3-0.6,0.8-1.1,1.4-1.5c0.2-0.1,1.3-0.5,2.3-0.3c1.2,0.3,2,0,2.7-0.2l0,0
		c0.3-0.1,0.6-0.2,1-0.2c0.3,0,1,0,1.7,0.7c0.3,0.3,0.6,0.6,0.8,1.1c0.5-0.3,1-0.5,1.4-0.6c-0.3-0.7-0.7-1.2-1.1-1.6l0,0l0,0
		c-1.1-1-2.3-1.2-3.1-1.1c-0.5,0.1-0.9,0.2-1.2,0.3c-0.7,0.2-1.1,0.3-1.9,0.2C21.4,8.2,19.8,9,19.7,9c0,0,0,0-0.1,0
		c-1.1,0.6-1.8,1.5-2.3,2.7C17.7,11.4,18,11.3,18.3,11.3z"/>
	<path d="M41.6,25c-1.3-2.9,0.3-3.1-0.5-5.3c-0.2-0.4-0.5-0.8-0.9-1.2l0,0c-0.4-0.4-0.9-0.7-1.6-1c-0.2,0.4-0.4,0.9-0.7,1.4
		c0.5,0.1,0.9,0.4,1.2,0.7c1,0.9,1,2.2,0.8,2.9c-0.3,1.1,0,1.9,0.3,2.7c0.4,1,0.7,1.8-0.6,3.2c-0.2,0.2-0.5,0.5-1,0.8
		c0.4,0.8,0.7,1.4,0.7,1.4c0.6-0.3,1-0.7,1.5-1.2c0.4-0.5,0.9-1.1,1.1-1.9C42.1,26.8,42.1,25.9,41.6,25z"/>
	<g>
		<path d="M28.1,19.4c-1.4-0.3-3.4,0.1-4.3,1.2c-0.1,0.2-0.3,0.4-0.4,0.6c-0.4-0.5-0.9-1-1.5-1.3s-1.2-0.3-1.7-0.1
			c-0.6,0.2-1.1,0.7-1.3,1.3c-0.5,1.3,0.2,3,0.9,4.2c0.5,0.9,1.1,1.4,1.8,1.7c-0.7,0.4-1.1,0.8-1.3,1.3c-0.2,0.5-0.2,1,0.1,1.5
			c0.3,0.5,0.9,0.8,1.7,0.9c1.4,0.2,3.4-0.2,4.6-1.3c0.2-0.2,0.4-0.4,0.5-0.6c0.5,0.7,1.3,1.2,2.1,0.9c0.9-0.3,1.4-1.4,1.4-2.8
			c0-0.1,0-0.2,0-0.3c-0.1-1.4-0.8-3.1-2.4-3.8c1.1-0.7,1.4-1.4,1.4-2c0-0.2,0-0.3-0.1-0.4C29.5,20,29,19.6,28.1,19.4z M25.7,28.6
			c-0.8,0.8-2.4,1.1-3.4,1c-0.5-0.1-0.7-0.2-0.7-0.3c-0.1-0.1-0.1-0.3,0-0.4c0.2-0.4,0.9-0.9,2.4-1.4h0.1c0.3,0.1,0.6,0.2,0.9,0.2
			c0.4,0,0.9-0.1,1.2-0.3C26.3,27.7,26.2,28.2,25.7,28.6z M29.4,26.8c0.1,1-0.3,1.7-0.5,1.7c-0.4,0.1-1.2-1-1.6-2.2
			c0.2-0.4,0.3-0.8,0.3-1.3c0-0.4-0.1-0.8-0.2-1.1C28.2,24.2,29.3,24.9,29.4,26.8z M26.3,25c0,0.7-0.6,1.3-1.3,1.3
			c-0.7,0-1.3-0.6-1.3-1.3c0-0.7,0.6-1.3,1.3-1.3S26.3,24.3,26.3,25z M23,23.2c-0.4,0.5-0.7,1.1-0.7,1.8c0,0.4,0.1,0.7,0.2,1
			c-0.5-0.2-1.1-0.5-1.5-1.3c-0.7-1.3-1.1-2.5-0.8-3.1c0.1-0.2,0.2-0.4,0.5-0.5c0.1-0.1,0.3-0.1,0.7,0.1C22,21.5,22.7,22.5,23,23.2z
			 M28.5,20.9c0.1,0.5-1.2,1.3-2.2,1.7c0,0-0.1,0-0.1,0.1c-0.4-0.2-0.8-0.3-1.2-0.3c-0.1,0-0.3,0-0.4,0c-0.1-0.6,0.1-1.1,0.8-1.4
			C26.6,20.3,28.3,20.6,28.5,20.9z"/>
		<path d="M27.9,10.9c-1.4,1.1-2.3,2.6-2.8,3.4c-0.4-0.2-0.9-0.3-1.4-0.3c-0.4,0-0.8,0.1-1.1,0.3c-0.7-1.1-2.3-2.9-4.5-3.7
			c-2.6-0.9-4,1.2-5.1,2.8l0,0c-0.4,0.6-0.8,1.1-1.1,1.4c-1.7,1.3-2.6,2.6-2,5.3c0.2,0.9,1,2.7,4.5,4.6c-0.1,0.4-0.2,0.8-0.2,1.2V26
			c0,0.4,0.1,0.8,0.3,1.3c-1.9,1.1-4,3-3.8,5.5c0.1,2,1.7,3.5,2.5,3.9c0.7,0.3,1.2,0.9,1.3,1.1c0.6,1,1.5,1.8,2.6,2.2
			c1.2,0.5,2.6,0.5,3.9-0.1c2-0.9,3.4-3.3,4-4.4c0.2,0.1,0.5,0.2,0.7,0.2c0.5,0.1,0.9,0.1,1.4,0c0.3,0.4,0.7,1,1.2,1.6
			c1.4,1.4,3.1,2.1,4.9,2c0.7,0,1.4-0.2,2.1-0.5c0.6-0.4,1.2-1.1,1.6-2c1.1-3,2.4-1.9,3.4-4.1c0.1-0.4,0.2-0.9,0.2-1.5l0,0
			c-0.1-1.6-1-3.8-5.1-5.9c0.3-0.4,0.4-0.9,0.4-1.5c0-0.1,0-0.3,0-0.4s0-0.3-0.1-0.4c3-2.5,3.7-4.7,3.7-6.1c0,0,0,0,0-0.1
			c0,0,0,0,0-0.1c0-1.5-0.8-2.5-1.4-2.9c-0.4-0.3-0.8-0.5-1.1-0.6c-0.6-0.3-1.1-0.6-1.5-1.2c-0.9-1.5-2.6-2.1-2.6-2.1h-0.1
			C31,9.5,29.4,9.8,27.9,10.9z M13,22.1c-1-0.8-1.6-1.5-1.7-2.2l0,0c-0.4-2,0.1-2.8,1.5-3.8c0.5-0.4,1-1.1,1.5-1.8
			c1.1-1.6,1.9-2.6,3.3-2.2c1.9,0.7,3.2,2.4,3.8,3.1c-0.7,0.7-1.2,1.5-1.6,2.2c-0.1-0.1-0.3-0.2-0.4-0.2c-0.6-0.3-1.4-0.2-2.2,0.2
			c0,0-0.1,0-0.1,0.1c-1,0.8-1.6,2-1.6,3.5c0,0.9,0.2,1.8,0.4,2.5c-0.1,0-0.3,0.1-0.4,0.1C15,23.4,14,22.8,13,22.1z M20.2,38.5
			L20.2,38.5c-1.9,0.8-3.6-0.2-4.5-1.6c0,0,0,0,0-0.1c0,0-0.8-1.1-2-1.6c-0.3-0.1-1.5-1.1-1.6-2.6c-0.1-1.4,1-2.8,3.1-4.1
			c0.3,0.4,0.7,0.7,1.2,1.1c0.3,0.3,0.7,0.5,1.1,0.8c-0.2,0.4-0.3,0.8-0.3,1.2c0,1.2,0.9,2.2,2.3,2.6c1.4,0.3,3,0,4.1-0.4
			c0,0.2,0.1,0.3,0.1,0.5c0,0,0,0,0,0.1C23.6,34.4,22.3,37.6,20.2,38.5z M38.8,31.3c0,1.3-0.8,2.3-1.5,2.6c-1,0.5-1.4,1.3-1.7,2.1
			c-0.4,1-0.8,1.7-2.7,1.8c-0.8,0.1-2.9-0.1-4.7-2.7c0.9-0.7,1.5-1.8,2-2.5c0.5,0.3,1.1,0.4,1.8,0.3c0.1,0,0.1,0,0.1,0
			c0.9-0.4,2-1.3,2-3.6l0,0c0-1-0.2-2.1-0.4-2.8l0,0C37,27.8,38.8,29.5,38.8,31.3z M34.1,23.6c0,0.1,0,0.2,0,0.2
			c0,0.4-0.2,0.7-0.6,0.9c-0.1,0-0.1,0-0.2,0.1C33.1,25,32.8,25,32.7,25c-0.3,0-0.5,0.1-0.6,0.3C32,25.5,31.9,25.8,32,26
			c0,0.1,0.6,1.6,0.6,3.1c0,1.1-0.3,1.8-1,2.1c-0.6,0.1-0.8-0.2-0.8-0.4c-0.1-0.3-0.4-0.6-0.7-0.6c-0.3,0-0.7,0.2-0.8,0.5
			c0,0-1,2.6-2.4,3.4c-0.4,0.2-0.7,0.2-1.1,0.2v0.1v-0.1l0,0c-0.4-0.1-0.8-0.2-0.8-1c0-0.2,0-0.4,0-0.4c0.1-0.3,0-0.6-0.3-0.8
			c-0.2-0.2-0.5-0.2-0.8-0.1c-0.3,0.1-2.6,1.1-4.2,0.7c-0.7-0.2-1-0.5-1-1c0-0.3,0.2-0.6,0.4-0.8c0.2-0.2,0.4-0.4,0.4-0.7
			s-0.2-0.5-0.5-0.7c-0.5-0.2-1.4-0.7-2.1-1.3c-0.6-0.5-1.3-1.3-1.3-2.1V26c0-0.5,0.1-0.8,0.3-1c0.2-0.1,0.6-0.1,0.8,0
			c0.3,0.1,0.6,0,0.9-0.2c0.2-0.2,0.3-0.6,0.1-0.9c-0.1-0.2-0.7-1.6-0.7-3c0-1,0.3-1.8,0.9-2.3c0.3-0.2,0.6-0.2,0.8-0.1
			c0.3,0.1,0.4,0.5,0.4,0.5c0.1,0.3,0.4,0.5,0.7,0.5s0.6-0.2,0.8-0.5c0.2-0.4,0.6-1.3,1.2-2.1c0.5-0.6,1.2-1.4,2-1.5
			c0.4,0,0.7,0,0.8,0.2c0.3,0.2,0.3,0.7,0.3,1c0,0.2,0,0.3,0,0.3c0,0.3,0.1,0.6,0.3,0.7c0.2,0.2,0.5,0.2,0.8,0.1
			c0.8-0.4,3.2-1.2,4.4-0.4c0.4,0.3,0.5,0.5,0.5,0.7c0,0.5-0.4,1-0.5,1.2l0,0c-0.2,0.1-0.3,0.4-0.3,0.6c0,0.3,0.1,0.5,0.4,0.7
			c0.1,0,0.1,0.1,0.2,0.1C31.3,21,34,22.2,34.1,23.6z M32.2,11.4c0.2,0.1,1.3,0.5,1.8,1.5c0.6,1,1.4,1.4,2.1,1.8l0,0
			c0.3,0.2,0.6,0.3,0.8,0.5s0.7,0.8,0.7,1.7c0,1-0.5,2.7-2.9,4.7c-0.4-0.5-0.9-0.9-1.6-1.3c-0.4-0.2-0.8-0.4-1.2-0.6
			c0.3-0.5,0.4-1.1,0.4-1.5c0-0.6-0.2-1.4-1.2-2c-1.5-0.9-3.6-0.5-4.9-0.1c0-0.2-0.1-0.4-0.1-0.5c0.2-0.5,0.9-1.8,1.9-2.8
			C29.4,11.5,30.8,11,32.2,11.4z"/>
	</g>
</g>
</svg>
