<?xml version="1.0" encoding="utf-8"?>
<!-- Generator: Adobe Illustrator 24.0.2, SVG Export Plug-In . SVG Version: 6.00 Build 0)  -->
<svg version="1.1" id="Layer_1" xmlns="http://www.w3.org/2000/svg" xmlns:xlink="http://www.w3.org/1999/xlink" x="0px" y="0px"
	 viewBox="0 0 198.4 198.4" style="enable-background:new 0 0 198.4 198.4;" xml:space="preserve">
<style type="text/css">
	.st0{fill:#FFAF97;}
	.st1{fill:none;stroke:#646565;stroke-width:7;stroke-linecap:round;stroke-linejoin:round;stroke-miterlimit:10;}
</style>
<g>
	<g>
		<g>
			<g>
				<g>
					<path class="st0" d="M78.1,155c1.1,0.5,0.8-0.1,1-0.1C77.1,154.1,78.2,155.1,78.1,155z"/>
					<path class="st0" d="M65.5,166.3l-0.4-0.4c0.2,1.1,0.6,1.9,1.1,2.7c-0.2-0.4-0.3-0.7-0.4-1.1l-0.2-0.6
						C65.6,166.7,65.5,166.5,65.5,166.3z"/>
					<path class="st0" d="M69.5,181.2c0.9-1.5,0.2-2.4-0.7-3.5c-0.9-1.1-2.1-2.4-2.1-4l0.4-0.7c-0.8-0.1-1.5-0.3-2.2-0.5
						c0.5,1.8,1.5,3.5,2.6,4.9C68.5,178.8,69.4,180,69.5,181.2z"/>
					<path class="st0" d="M67.8,192.8c0.3-0.8,0.9-0.5,0.9-0.5c0,0-0.1,0-0.4-0.3c-0.3-0.3-0.8-0.7-1.4-1.5c0,0.3,0,0.4-0.1,0.6
						C67.1,191.5,67.3,191.9,67.8,192.8z"/>
					<path class="st0" d="M66.9,191.1C65.9,189.6,66.6,193,66.9,191.1L66.9,191.1z"/>
					<path class="st0" d="M74.8,199c-0.7-0.2-1.3-0.4-2-0.7c-0.6-0.2-1.2-0.5-1.8-0.8c0,0.6,0.6,1.6,1.2,2.4
						c0.6,0.8,0.9,1.3,0.2,1.2c2,1.1,3.1,1.2,3.3,0.8C76,201.3,75.5,200.3,74.8,199z"/>
					<path class="st0" d="M79.4,198.3c-0.7-0.1-1.4-0.3-2.1-0.4C77.5,198.4,78,198.9,79.4,198.3z"/>
					<path class="st0" d="M73.4,196.4c1.2,0.5,2.6,1.1,4,1.4c-0.3-0.9,0.4-2-1.9-0.7C76.4,196.4,75.1,196.9,73.4,196.4z"/>
					<path class="st0" d="M72.2,194.5c-0.4-1-0.7-1.9-0.7-2.5c0.1-0.6,0.4-0.7,1.8-0.2c-1.9-1.8-2.9-2.1-3.3-1.5
						C69.7,190.9,70,192.5,72.2,194.5z"/>
					<path class="st0" d="M72.4,179.8l0-1.7c-0.5-0.1-1-0.2-1.4-0.4C71.7,178,71.7,180.5,72.4,179.8z"/>
					<path class="st0" d="M81.5,194.4c-2.2,0.2-4.4,0-6.4-0.5c2.3,0.7,5,1.1,7.6,0.9L81.5,194.4z"/>
					<path class="st0" d="M90.7,198.1c0.9-0.8,2-1.6,2.3-2.5c0.4-0.9,0.2-1.9-1.5-2.8c-0.3,0.9-0.1,1.7,0.1,2.5
						C91.8,196,91.9,196.9,90.7,198.1z"/>
					<path class="st0" d="M99.3,197.1l-2.2-0.4c0.2,0.7,0.9,1.7,0.5,2.5C98.2,198.5,98.8,197.8,99.3,197.1z"/>
					<polygon class="st0" points="100.1,196.1 99.3,197.1 100.1,197.2 					"/>
					<path class="st0" d="M111.3,200.9c0.5-1.4,1.4-1.6,2.4-2c-1.3-0.5-2.6-0.7-3.7-0.6C110.1,199.3,110.1,201.1,111.3,200.9z"/>
					<path class="st0" d="M111.1,178.8C111.1,178.8,111.2,178.8,111.1,178.8L111.1,178.8C111.2,178.8,111.1,178.8,111.1,178.8z"/>
					<path class="st0" d="M109.6,197.7c-1-0.5-1.3,0.3-1.6,1.3c0.6-0.4,1.2-0.6,1.9-0.7C109.9,197.9,109.9,197.6,109.6,197.7z"/>
					<path class="st0" d="M113.9,186.7c-0.3-0.8-0.4-1.7-0.5-2.4c-0.1-0.8-0.1-1.5,0-2c0-0.5,0.2-0.8,0.6-1c0.2-0.1,0.4-0.1,0.8-0.2
						c0.3,0,0.8-0.1,1.2-0.1c-0.4-0.7-1.4-1.2-2.8-1.6c-0.4-0.1-0.7-0.2-1.1-0.3c-0.3-0.1-1-0.2-0.8-0.2c0,0,0,0,0.1,0
						c0.1,0,0,0,0,0l0,0l-0.1,0c-0.1,0-0.1-0.1-0.2-0.1c0,0,0,0-0.2-0.1c-0.1-0.1-0.2-0.1-0.3-0.2c-0.2-0.2-0.4-0.4-0.6-0.7
						c0.1,0.1,0.2,0.3,0.5,0.6c0.1,0.1,0.2,0.2,0.3,0.3c0.1,0,0.1,0.1,0.2,0.1c0.1,0,0.1,0,0.1,0.1c0.1,0.1,0.3,0.1,0.2,0.1
						c0,0,0,0,0,0c0,0,0.1,0,0,0c-0.1-0.1-0.1-0.1-0.3-0.2c-0.1-0.1-0.2-0.2-0.3-0.3c-0.1-0.1-0.3-0.3-0.4-0.4
						c-0.1-0.2-0.3-0.4-0.5-0.9c0.1,0.2,0.1,0.1,0,0c0,0,0-0.1,0-0.1c0,0.1,0.1,0.2,0.1,0.3c0.1,0.2,0.2,0.4,0.2,0.6
						c0.1,0.4,0.3,0.8,0.3,1.3c0.1,0.9,0.1,1.9,0.1,3c0,1.2-0.1,2.5,0.3,4c0.4-0.5,0.8-0.9,1.1-1.4c0.2-0.2,0.3-0.5,0.4-0.7
						c0.1-0.3,0.2-0.5,0.3-0.7c0.2,0.4,0.3,1.1,0.4,1.7C113.2,185.9,113.3,186.5,113.9,186.7z"/>
					<path class="st0" d="M120.1,197.3l-0.7,0.5c0.7,0.3,1.5,1,2.4,2.1L111,178.9c0.1,0,0.3,0,0.4,0.1c0,0,0,0,0,0
						c0,0-0.1-0.1-0.1-0.1c-0.1,0-0.1-0.1-0.1-0.1c0.4,0.3,0.3,0.1-0.2,0.1l10.3,18.8l-1.3,0L120.1,197.3z"/>
					<path class="st0" d="M115.7,198.2c-0.2-3.3,1.3-5.1-0.9-8.5c-2.3,0.7-0.9,3-1.9,4.7c3.6-1.3-0.6,1.9,2.7,3.4
						c-0.6,0.6-1.2,0.9-1.9,1.1c0.8,0.3,1.6,0.7,2.4,1.3c-0.1-0.1-0.1-0.1-0.1-0.2l0,0c0,0,0,0,0-0.1c-0.3-0.4-0.4-0.6-0.1-0.4
						c0,0,0-0.1,0.1-0.1C115.8,199,115.7,198.6,115.7,198.2c1.3,0.6,0.4,0.9,0.2,1.3c0,0.2,0,0.3,0.1,0.5c0,0,0,0,0,0
						c1.1-0.7,2.3-1.5,3.4-2.2C118.4,197.4,117.4,197.6,115.7,198.2z"/>
					<path class="st0" d="M92.5,186.6c0.2,0.2,0.2,0.4,0.3,0.6C93,186.8,93,186.6,92.5,186.6z"/>
					<path class="st0" d="M94.5,187.9c-0.2,0.4-0.1,1.6-1.1,1.5c-1-0.6-0.3-1.3-0.6-2.2c-0.3,0.8-1.6,2.3,0.6,3.3l0.2-0.4
						c0.9,0.3,2.1,1.2,3,2.1c0.9,0.9,1.6,1.8,1.5,2C97.1,191.7,96.2,190,94.5,187.9z"/>
					<path class="st0" d="M104.9,191.7c0.9-0.7,1.8-1.4,2.8-2.1l-2.3-2.3l0.5,1.6C103.8,188.6,104.8,190.4,104.9,191.7z"/>
					<path class="st0" d="M110.9,178.6c0.1,0.1,0.1,0.1,0.2,0.2c-0.2-0.1-0.3-0.2-0.4-0.4c-0.2-0.2-0.3-0.4-0.5-0.6
						c0.1,0.2,0.2,0.3,0.3,0.5L110.9,178.6z"/>
					<path class="st0" d="M109.4,175.9L109.4,175.9c0-0.1-0.1-0.2-0.1-0.3C109.3,175.7,109.3,175.8,109.4,175.9z"/>
					<path class="st0" d="M113.7,117.1c-0.1,0-0.3,0.1-0.4,0.1C113.4,117.2,113.5,117.2,113.7,117.1z"/>
					<path class="st0" d="M114.1,119.7l0.6-0.4C114.3,119.5,114.1,119.6,114.1,119.7z"/>
					<path class="st0" d="M148.7,177.5c0.5,2.2,1.1,5.1,1.9,6.7c0.7,1.6,1.3,1.9,1.4-1.3c-0.1-2-0.1-4-0.2-6
						C150.2,178.7,149.3,178.4,148.7,177.5z"/>
					<path class="st0" d="M145,105.4c0.2,0.2,0.4,0.3,0.6,0.5c-0.1-0.6-0.2-1.1-0.3-1.6c-0.1-0.6-0.2-1.2-0.3-1.8
						C145.1,103.5,145.1,104.5,145,105.4z"/>
					<path class="st0" d="M149.8,116.2c-0.5-0.3-1-0.6-1.6-0.8C148.7,115.7,149.2,116,149.8,116.2z"/>
					<path class="st0" d="M104.7,119.7l0.6,2.2C106.3,120.4,105.3,120.4,104.7,119.7z"/>
					<path class="st0" d="M136,169c2-0.1,3.1-0.4,3.6-0.8C136.7,168,132.7,167.2,136,169z"/>
					<path class="st0" d="M126.4,104.3c-0.4-0.6-0.7-0.7-0.9-0.4C125.8,104.5,126.2,104.7,126.4,104.3z"/>
					<path class="st0" d="M140.8,166c-0.5-0.1-0.8-0.1-1.2-0.1c0.4,0.9,0.6,1.7,0,2.2C141.8,168.3,143.3,168.2,140.8,166z"/>
					<path class="st0" d="M39.9,98.8c0.2,0,0.3,0,0.5,0.1C40.2,98.6,40,98.7,39.9,98.8z"/>
					<path class="st0" d="M58.2,87.5c0.2-0.4,0.6-0.8,1-1.3C58.9,86.4,58.6,86.7,58.2,87.5z"/>
					<path class="st0" d="M116.3,174.9C115.4,174.8,116.2,174.8,116.3,174.9L116.3,174.9z"/>
					<path class="st0" d="M110.7,175.8c-0.9,0.2-1.4,0.4-1.9,0.5C109.4,176.1,110,176,110.7,175.8z"/>
					<path class="st0" d="M120.8,146.6C120.8,146.6,120.7,146.7,120.8,146.6C121.6,146.3,121.4,146.4,120.8,146.6z"/>
					<path class="st0" d="M114.9,174.9c0.3,0,0.8,0,1.2,0C115.9,174.8,115.5,174.9,114.9,174.9z"/>
					<path class="st0" d="M115.1,174.9c-0.3,0-0.6,0-0.8,0.1C114.1,175,114.3,174.9,115.1,174.9z"/>
					<path class="st0" d="M117.5,174.9c-0.5-0.1-0.9-0.1-1.4-0.1c0.2,0,0.3,0,0.2,0C116.6,174.9,117,174.9,117.5,174.9z"/>
					<path class="st0" d="M57.4,128.1c0.1,0,0.2,0,0.4,0C56.6,126.7,56.7,127.1,57.4,128.1z"/>
					<path class="st0" d="M158.4,124.1C158.4,124.1,158.5,124.1,158.4,124.1C158.5,124.1,158.5,124.1,158.4,124.1L158.4,124.1z"/>
					<path class="st0" d="M158.2,123.4c0.4-0.4,0.5-0.4,0.6-0.2c0,0.2-0.1,0.5-0.2,0.8c0.7-0.9,1.3-1.9,2-3
						C159.8,121.6,159,122.4,158.2,123.4z"/>
					<path class="st0" d="M110.3,113.9c0.1,0.7,0.2,1.5,0.3,2.4c-0.7,2.3-0.8,3.1-0.9,3.7c-0.1,0.7-0.1,1.1-0.2,3
						c0.2-2.3,0.3-3.5,0.6-4.2c0.2-0.7,0.5-0.9,0.7-0.9c0.4,0,0.6,0.2,2.2-3.7c-0.2,0.7-0.3,1.4-0.5,2.1c0-0.2-0.2,0.2-0.2,0
						c-0.7,2.2-0.1,0.9,0.8-0.4c0.8-1.3,1.9-2.7,1.8-1.3c-0.1,1.1-0.6,2.2-1.2,2.5c0.4-0.1,0.8-0.1,1.2,0c0,0.5-0.7,1.1-0.7,0.7
						c0.2,0.5,0.4,1,0.7,1.5l-0.1,0.1c0.7-0.2,1.9-0.1,2.4,0.1c-0.5,0.9-0.5-0.1-1,0.3c0.4,0.2,0.8,0.6,1.3,0.9
						c-0.5,0.5-1.2,0.4-1.6,0.3c-0.4-0.2-0.7-0.4-0.7-0.8c-1.1,0.8-1.5,1.1-1.7,1.3c-0.1,0.2,0.1,0.2,0.4,0.2c0.3,0,0.6,0.2,0.7,0.4
						c0,0.1,0,0.1,0,0.2c0,0,0,0.1,0,0.1c0,0.1,0,0.2-0.1,0.3c-0.1,0.4-0.3,1-0.7,1.6l-0.3-1c-0.1-0.3-0.2-0.8-0.3-0.8
						c-0.6,0.1-1.1,0.6-1.4,1c-0.3,0.4-0.5,0.8-0.7,1.3c-0.4,0.9-0.6,1.9-1.7,3.1c0.5-0.3,1.8-1.5,2.9-2.5c1.2-0.9,2.3-1.5,2.9-0.3
						c-0.4,0.7-0.6,1.6,0.3,2.9c-1.8,0.1-1.4,1.4-1.5,3l-2.5,0c0.5,1.7,1.7,1.5,2.8,2.5c0,0.1-0.1,0.3-0.1,0.4l-13.3,28.2l30.7-24.1
						c1.4-1.1,3.3-0.5,5,0c1.2-1,0.1-1-1-1.2c-1.1-0.1-2.3-0.3-1.4-1.9c2.6-1.5,2.8-3.3,3.3-6.6c2.1-0.7,1.4,1.3,2.6,1.3l-1-2.5
						c0.3-0.2,0.9,0.3,1.2,0.6c0.1-1.5-2.6-1.9-1.9-4c-1.3-1.3,0.5-1.4,2.6-1.5c2-0.2,4.3-0.3,3.4-2.6c1.3,0.3,1.5,1.7,2.8,2.5
						c0-0.5,0.1-1,0.1-1.3c0-0.2,0-0.4,0.1-0.5c0-0.2-0.1-0.3-0.1-0.4c-0.2-0.6-0.2-0.8-0.3-1.2c-0.2-0.8-0.6-1.6-1.3-4.1
						c1,0.2,1.9,0.5,2.7,0.9c-1.2-0.9-2.1-2.2-2.7-3.9c-0.5-1.7-0.6-3.9-0.5-6c-0.5-0.4-1.2-1-1.7-1.3c-0.5-0.4-1-0.7-1.3-0.8
						c0.5-1.7,1.1-3.6,1.7-5.6c0.7,0.4,1,2.4,1.4,4.8c0-0.6,0-1.1,0-1.6c0.4,0.2,0.8,0.6,1.1,1.1c0.1,0.2,0.3,0.5,0.4,0.8
						c0.1,0.3,0.2,0.5,0.3,0.8c0.3,1.1,0.5,2.5,0.6,3.9c-0.6-0.5-1.2-1.1-1.9-1.6c0.5,2.9,1.4,5.7,2.6,7.7c-0.1-0.5-0.1-1.1,0-1.5
						c0.2,0.7,0.4,1.3,0.6,1.7c0.2,0.3,0-0.6-0.2-1.9c0.8,1.3,1.5,2.6,2.2,4l-0.6-1.8c1,0.3,1.9,0.8,2.6,1.4c0-3,0.2-6.8,1-10.7
						c0.8-3.9,2.3-7.8,4.5-10.6c-0.7,2.7-0.8,4.5-0.9,6.5c-0.1,1.9-0.1,3.9-0.3,6.6c-0.1-2.6-0.8-1.6-1.4,0
						c-0.6,1.6-1.1,3.6-1.7,3.6c0.7,0,0.7,2.5,0.6,3.4c0.4-2,1.1-4.2,1.9-6.4c-0.1,2.2-0.1,2.9,0.1,3.3c0.1,0.2,0.2,0.3,0.2,0.4
						c0,0.1,0.1,0.2,0.1,0.3c0,0.1,0.1,0.2,0.1,0.5c0.2-3.2,0.5-4.8,0.8-5.4c0.2-0.5,0.6-0.2,0.8,0.1c0.2,0.3,0.5,0.6,0.8,0.3
						c-0.2,1.3-0.5,2.5-0.7,3.2c-0.2,0.7-0.5,0.8-0.6-0.1c-0.1,1.9-0.1,2.3,0.1,2c0.2-0.3,0.4-1.2,0.7-2.1c0.3-0.9,0.6-1.8,0.8-2
						c0.2-0.2,0.3,0.2,0.1,1.7c-0.1-0.3,0-0.9-0.3,0.1c0.3-0.6,0.5,0.1,0.5,1.1c0,1-0.2,2.2-0.5,2.8l-0.1-0.3
						c0.1,1.5,0.1,3.1,0.3,4.1c0.2,1,0.4,1.6,1.1,0.7c-0.2,0.3-1.6,2.5-2,3.1c0.8-0.9,1.4-1.4,2-1.4c0.2,0,0.3,0,0.4,0
						c0.1,0,0.1,0,0.2,0.1c0.4-0.3,0.8-0.8,1.3-1.1c0.9-0.8,1.8-1.5,2.8-2.1c0.5-0.3,1-0.7,1.5-0.9c0.5-0.2,1-0.5,1.5-0.7
						c-1.6,1.1-3.6,3.2-5.9,5.4c-0.5,0.5-1.1,1-1.6,1.6l-0.3,0.3c-0.2,0.2-0.4,0.5-0.6,0.7c-0.8,0.8-1.5,1.2-1.6,0.8
						c-0.2,0.7-0.5,1.2-0.4,1.9c0.1-0.2,0.5-0.6,0.9-1c0.4-0.4,0.7-0.6,0.7-0.3c-0.7,1.2-0.9,1.4-1.1,1.8c-0.1,0.1-0.2,0.3-0.3,0.5
						c-0.1,0.2-0.5,0.5-0.7,0.8c0.1-0.2,0.5-0.1,0.7,0.2c0.2,0.3,0.4,0.9,0.2,1.5c-0.1-0.3-0.9-0.7-1-1.1c0.1,0.8,0.1,2,0,3.5
						c0.1-0.5,0-0.8-0.2-1.1c-0.2-0.3-0.4-0.5-0.5-0.5c0.1,0.1-0.1,0.5-0.2,0.9c-0.2,0.4-0.4,0.8-0.5,1.2c0.1,0,0.2,0,0.4-0.1
						c-0.4,0.8-0.7,2.4-1.1,4.5c-0.2,1-0.5,2.1-0.8,3.2c-0.3,1.1-0.7,2.1-1.2,2.9c0.2-0.7,0.6-2.4,0.8-3.9c0.2-1.4,0.4-2.6,0.1-2.5
						c-0.4,1.5-1.4,5.2-3.1,9.8c-0.1,0.3-0.2,0.6-0.3,0.9c-0.2,0.6-0.4,1.2-0.6,1.8c-0.4,1.2-0.8,2.5-1.2,3.6
						c-0.8,2.4-1.7,4.6-2.6,6.6c-1.7,4.1-3.5,7.2-4.8,9c0.2-1.2,0.5-2.5,0.8-3.7c-0.7,1-1.4,1.9-2.2,2.9c-0.8,0.9-1.5,1.9-2.3,2.7
						c1.5-2.6,3.5-6.1,5.5-10.1c1-2,2.1-4.1,3.1-6.4c0.3-0.6,0.5-1.1,0.8-1.7l0.4-0.9c0.1-0.2,0.1-0.2,0.2-0.3l0.1-0.2
						c0.3-0.6,0.6-1.3,0.9-1.9c2.5-5.1,4.1-9.5,4.9-11.8c-0.1-0.7,0.4-1.8-0.3-0.9c0.1-0.7,0.4-1.5,0.7-2c0.2-0.6,0.4-1,0.5-1.1
						c-0.2,0.1-0.4,0.1-0.6-0.1c-0.7,2-1.3,3.3-2.1,4.6c-0.7,1.3-1.6,2.5-2.4,4.4c1.6-2.2,2.8-4.3,3.8-6.2c-0.6,1.9-1.7,5-3.2,8
						c-0.8,1.5-1.6,3-2.5,4.2c-0.9,1.2-1.7,2-2.3,2.2c0.1-0.7,1.3-3,2.4-5.1c1.2-2.2,2.3-4.3,2.6-5.1c-0.5,0.9-1.2,1.9-1.9,2.6
						c-0.7,0.7-1.2,0.9-0.9,0.4c0.8-1,1.5-2,2.2-3c0.1-0.7-1.1,1.1-2.4,2.5c-0.6,0.7-1.2,1.4-1.6,1.5c-0.4,0.1-0.5-0.2,0.1-1.4
						c-0.1-0.1,0.7-1.8,1.4-3.1c0.7-1.2,1.2-2.1,0-0.6c-2.1,3-6.3,9-10.5,14.8c-1.1,1.5-2.2,3-3.3,4.5c-1.2,1.6-2.4,3.2-3.5,4.6
						c-2.2,2.9-4.2,5.1-5.5,6.4c0-0.3-0.2-2.4,0-4.8c0.2-2.4,0.8-5.2,1.8-6.8c0.4-0.7,0.9-1.3,1.5-2c0.6-0.6,1.2-1.2,1.9-1.8
						c1.4-1.2,2.9-2.4,4.3-3.6c3-2.4,5.6-4.8,7.1-6.8c-1.3,1.3-3.4,2.9-4.2,3.3c0.6-1.4,4.4-4,2.7-4c-2.7,2.4-3.2,1.9-3.3,1.5
						c-0.1-0.4-0.1-0.6-1.7,2.2c-1.4,0.3-1.4-0.2-1.2-0.9c0.2-0.6,0.4-1.5,0.1-1.8c-0.9,0.7-2.3,1.6-3.8,2.5
						c-0.8,0.4-1.6,0.9-2.5,1.3c-0.8,0.4-1.7,0.8-2.5,1.2c-1.7,0.7-3.6,1-5.1,0.9c-1.5-0.1-2.9-0.5-3.5-1.2c1.8-0.2,4.1-1.3,5.2-1.6
						c0-0.2,0-0.4,0-0.5l0.3-2.2l-1.8,1.9c-2.7,2.8-6.4,3.4-8.2,6.8c-1.7-0.5-4.5,0.5-6.9-1.6c0.9,1.1,2.9,2.6,2.5,3.9
						c-6.6-0.2,0.3-3.1-7.3-4.4c3.7,1.9,3.9,5.6,5.6,8.2c3,0.9,3.7,0.1,3.4-1.3c-0.3-1.4-1.5-3.5-2.3-4.9c4,1.9,7.8,4.5,10.9,7.2
						c3.1,2.7,5.5,5.4,6.7,7.8c0.9,3.3-5.7-0.8-4.8,0.1c-2,2.7,2.5,5.3,5.2,7.2l-21.7,9.8c-1.9,1.8-3.5,2.6-4.3-0.8
						c0.5-5.8,4.4-9.7,5.6-13.4c2.6-0.6,2.4,2.8,3.1,4.5l0.2,0.5l6.8-3.6c0.4-0.2,0.7-0.5,0.8-0.8l-1.5,0.6l-6,2.7l-0.5-1.7
						c0.5-0.4,1.1-0.8,1.7-1l2-0.7l-0.1-0.2c-0.5-1-0.5-2,0.7-2.3c-1.3,0-2.2,0.6-2.9,1.6l1.2-0.5c-1.4-1.3-3.8-2.3-5.9-3.6
						l-1.2-0.8l-1,1.5c-1.2,1.9-2.3,3.8-3.9,5.5c0.8,0.6,1.6,1.4,2.5,1.8c0.9,0.5,1.9,0.6,2.9,0.3c-0.2-0.4-0.4-0.9-0.6-1.4
						c2.2-0.3,3.5,0.5,4.6,1c1.1,0.5,1.9,0.7,3,0.4c0.7,0.3,1.5,0.5,2.3,0.6c0.4,0,0.8,0.1,1.1,0.1c0.2,0,0.3,0,0.5,0l0.1,0l-0.1,0
						l-0.2,0c-1.1,0.2-2.2,0.5-2.8,0.8l-1.5,1c0.1-0.1,0.5-0.3,1-0.7c0.3-0.2,0.7-0.4,0.7-0.4c0.1,0,0.2-0.1,0.2-0.1
						c0.1,0,0.2-0.1,0.2-0.1c-0.1,0-0.2,0.1-0.6,0.2c0.6-0.1,0.4-0.1,0,0.1c-0.2,0.1-0.5,0.3-0.8,0.5c-0.3,0.2-0.6,0.4-0.9,0.7
						c-0.2,0.2-0.5,0.5-0.6,0.6c-0.1,0.2-0.1,0.3,0,0.3c0,0,0,0,0,0l0,0l0,0l0,0l0,0c-0.1,0.1,0.2-0.2-0.2,0.2l0,0l0,0l0,0l0.1-0.1
						c0.1-0.1,0-0.1,0.1-0.1c-0.1,0.1-0.1,0.2-0.2,0.3l0,0l0,0l0,0l0,0l2.2-2.1l0,0l0,0l0,0c0,0,0,0,0,0c0,0,0,0,0,0l0,0
						c0.5-0.5-4.2,4-2.2,2.1l0,0l0,0l0,0l0,0l0,0l0,0l0.1-0.1c0,0,0.1-0.1,0.1-0.1c0,0,0.2-0.2,0.2-0.3c0.1-0.1,0.2-0.3,0.2-0.4
						c0.3-0.7,0.4-1.6,0.4-1.7c0,0.1,0,0.2,0,0.2c0,0.1,0,0.2-0.1,0.7c0-0.2,0-0.1,0,0.2c-0.1,0.1-0.1,0.3-0.2,0.5
						c0,0.1-0.1,0.2-0.2,0.3c0,0.1-0.1,0.2-0.1,0.2c0,0.1-0.1,0.2-0.2,0.2c0,0-0.1,0.1-0.1,0.1l-0.1,0.1l0,0l0,0l0,0l0,0l0,0
						c-2,1.9,2.7-2.6,2.2-2.1l0,0l0,0l0,0c0,0,0,0,0,0c0,0,0,0,0.1-0.1l0.1-0.1c0.1-0.1,0.2-0.1,0.2-0.1c0.4-0.2,1-0.4,2.1-0.7
						c0,0-0.2,0-0.2,0c0,0,0.1,0,0.3-0.1c0.2,0,0.6-0.1,1.1-0.2c0.1,0,0.3,0,0.5,0c0.1,0,0.1,0,0.1,0c0,0-0.1,0-0.1,0
						c0.1,0,0.1,0,0,0c-0.5,0.1-0.9,0.1-1.1,0.1c0.5-0.1,1.7-0.2,2.8-0.1c0.3,0,0.5,0,0.8,0.1c0.2,0,0,0,0,0c-0.1,0-0.2,0-0.2,0
						c-0.4-0.1-0.7-0.2-1.3-0.4c0.5,0,1.1,0.2,1.7,0.3c0.3,0.1,0.7,0.2,1.1,0.3c0.1,0,0.1,0,0.3,0.1l0.2,0l-0.7-0.2
						c-0.5-0.2-1.1-0.4-1.6-0.6c0.4,0.1,0.9,0.3,1.5,0.5c0.4,0.1,0.8,0.3,1.3,0.4c0,0-0.1,0-0.1,0c0,0-0.1,0-0.1,0
						c0,0,0.1,0,0.1,0.1l-0.1,0c-0.1,0-0.3-0.1-0.4-0.2l-26.9,15.6l0.4,0.3c0.3,3,1.7,5.1,3.6,4c0.2,0.5,0.9,0.3,1.6-0.1l37.5-16.9
						c-0.9-0.9-2.3-1.7-0.4-0.6c-0.5-1.2-1-2.4-1.4-3.7l1.1,0.4c0.9-1.3-0.2-3.3-0.3-5.2c-0.1-1.8,0.7-3.5,5.4-3
						c-0.6-1.4-1.3-3,0.8-3.8l3.8,1.8c-0.3-0.9,1.1-1.1,2.2-1.5l-57.3-13.3c-0.1,2.4,0.1,4.7,0.6,6.5c0.6,1.8,1.5,3,2.8,3.4
						c-2,2.8-2.1,6.5-0.6,10.4c0.1,0.3,0.1,0.4,0.2,0.5l0.2,0.4c0.1,0.3,0.2,0.6,0.4,0.9c0.3,0.6,0.6,1.2,1,1.7
						c0.2,0.3,0.3,0.5,0.5,0.7c0.2,0.2,0.3,0.4,0.5,0.6c0.3,0.4,0.7,0.8,1.1,1.1c0.8,0.7,1.7,1.3,2.6,1.9c0.9,0.5,1.8,1.1,2.7,1.6
						c0.9,0.5,1.7,0.9,2.3,1.5c0.7,0.5,1.3,1,1.6,1.5l4-4c2.7,2.1,6.6,2.3,11.6,1.5l2.7-4.3c2.7-1.4,4-0.4,5.3,1
						c0.3,0.3,0.7,0.7,1,1c0.3,0.3,0.7,0.6,1.1,0.9c0.4,0.3,0.8,0.5,1.3,0.6c0.5,0.1,1,0.1,1.5,0c-1.1,2-2,1.5-2.2,0.4
						c0,2.7,0.9,3.6,2.3,3.4c1.4-0.3,3.1-1.7,4.7-3.3c0.8-0.8,1.6-1.6,2.4-2.5c0.8-0.8,1.5-1.6,2.1-2.1c0.6-0.5,1.1-0.7,1.5-0.6
						c0.4,0.1,0.8,0.5,1,1.6c1.5-2.7,2-2.2,2.5-1c-0.1,0.1-0.2,0.2-0.3,0.4c0.1,0,0.3,0,0.4-0.1c0.2,0.5,0.3,0.9,0.5,1.4
						c0.2,0.5,0.4,0.9,0.6,1.3c-0.3-1.3-0.5-2.4-0.8-2.8c0.4-0.2,1-0.7,1.7-1.5c0.7-0.8,1.4-1.7,2.2-2.9c0,2.2,0,4.4,0,6.6
						c0.1-0.1,0.2-0.2,0.4-0.4c0.7,1,1.2-0.1,1.2-1.9c0.1-1.8-0.1-4.4-0.3-6.8c0.8-1.6,1.5-3.5,2-5.5c0.1,1.3,0.3,2.2,0.5,2.7
						c0.2,0.5,0.5,0.7,0.7,0.7c0.5,0,1.1-0.9,1.7-1.8c0.3-0.4,0.6-0.9,1-1.3c0.4-0.4,0.7-0.6,1.1-0.7c0.4-0.1,0.8,0.1,1.2,0.6
						c0.1,0.1,0.2,0.3,0.3,0.4c0.1,0.2,0.2,0.3,0.4,0.5c0.3,0.3,0.6,0.7,1,1.2c0.2-1.9,1.2-4,2.3-6.2c0.6-1.1,1.2-2.2,1.8-3.4
						c0.6-0.9,1.3-3.1,1.9-4.9c1.2-3.7,2.2-7.2,2.4-10.1c0.1-0.7-0.1-1.5-0.2-2.2c-0.2-0.7-0.4-1.4-0.6-2c-0.5-1.2-1.2-2.1-2-2.8
						c1,0.3,1.8-0.8,1.3,1.6c1-2.2,2-4.7,2.6-7.3c0.1-0.3,0.2-0.6,0.2-0.9c0-0.3,0-0.5,0-0.8c0-0.5-0.1-1-0.1-1.5
						c-0.2-0.9-0.5-1.8-1-2.5c2-1.2,3.9-2.6,5.9-4.2c-0.6-0.7-1.2-1.3-1.8-1.8c-0.1-0.2-0.4-0.1-0.5-0.2l-0.5-0.1
						c-0.4-0.1-0.7-0.1-1.1-0.2c-1.4-0.2-2.7-0.2-4-0.1c0.4-0.7,0.7-1.5,1-2.2c0.2-0.4,0.3-0.7,0.5-1c0.2-0.3,0.3-0.6,0.4-0.8
						c0.6-1.1,1.1-2.1,1.7-2.9c0.6-0.8,1.3-1.5,2.1-2.1c0.4-0.3,0.8-0.5,1.3-0.7c0.2-0.1,0.5-0.2,0.8-0.2c0.3-0.1,0.6-0.2,0.9-0.1
						c-0.1-0.1-0.3-0.2-0.4-0.2c-0.1,0-0.2-0.1-0.4-0.1c-0.2,0-0.5-0.1-0.7-0.1c-0.4-0.1-0.8-0.2-1.1-0.2c-0.7-0.2-1.2-0.3-1.5-0.5
						c-0.4-0.1-0.7-0.3-0.9-0.4c-0.2-0.1-0.4-0.2-0.6-0.3c-0.4-0.2-0.7-0.3-1.3-0.2c-0.6,0.1-1.5,0.4-2.7,1.3l2.4-3.9
						c-0.2-0.7-1.2-0.2-1.9,0c-0.7,0.2-1,0-0.3-2.2c1.4-5.3,0.6-9.2-0.7-13.4c-0.3-1.1-0.7-2.2-1.2-3.3c-0.5-1.2-0.9-2.5-1.4-3.7
						c-0.4-1.3-1-2.8-1.5-4.4c-0.5-1.6-1.1-3.4-1.7-5.3c-0.2-0.2-0.4-0.4-0.5-0.7l-0.1-0.2c-0.1,0-0.1,0-0.2,0l-0.4,0
						c0.1,3.3-0.1,4.8-0.4,5.3c-0.3,0.5-0.8,0.1-1.4-0.2c-1.2-0.8-2.9-1.3-3.1,4c-0.2-1.3-0.7-2.1-0.9-3.1c-0.2-1-0.2-2.1,0.6-4.2
						c-2.5,4-4.3,4.5-6,5.7c-1.6,1.1-3.2,2.8-3.9,7.7c-1.1-1.9,0.2-4.6-0.6-5.6c-0.3,0.9-1,3.6-1.8,2.7c-0.8-0.9,0.2-2.7,0.7-4.6
						c-1.2,1.4-2.1,2.9-2.6,4.5c-0.5,1.6-0.6,3.3-0.5,4.9c0.2,3.3,1.2,6.6,2.2,9.9c-0.7-0.3-1.3-0.4-1.8-0.3c-0.5,0.1-0.8,0.4-1,0.9
						c-0.5,0.9-0.5,2.6-0.1,4.9c-0.7-0.5-1.6-0.9-2.1-1.5c-0.5-0.6-0.6-1.5,0.3-3.2c-0.3,0.3-1.1,0.9-1.8,1.7
						c-0.8,0.8-1.7,1.9-2.5,3c-1.7,2-3,4.1-1.5,5.6c-0.7-0.3-0.6,0.6-1,1c-0.3,0.6-0.3,1.1-0.2,1.4c-0.9,1.2-1.5,1.8-2,2.4
						c-0.5,0.6-0.9,1.3-1.5,2.7l0.9-0.3c2.8,3.6-0.6,2.6-1.3,4.9l-0.3-0.3c-2.5,1.5-2.5,2.2-2.5,2.9c0,0.3,0,0.6-0.4,1.1
						c-0.3,0.4-1,0.9-2.2,1.7l2,0.9c1.9,1.5,0.8,2.1-0.8,2.8c-1.6,0.8-3.5,1.8-3.4,3.6l1.5-0.4c0.3,1.1-1.4,1.4-3.3,1.7l11,2.6
						c1.6-1.2,3.3-2.5,3.4-3.3c0.3-0.4,0.6,0.6,1,1.1c1.6-4.6-2.5-0.5-3.6-3.8c1.2-0.7,3.4,0.6,3.2-1.6c0.4-0.6-0.9-2.2-2.1-3.9
						c-0.3-0.4-0.6-0.9-0.8-1.3c-0.3-0.6-0.5-1.3-0.7-1.9c-0.3-1.3-0.6-2.5-0.3-3.8c-0.6,1.3-1.2,2.3-2.3,0.6
						c-0.4-1.4-0.2-3.7-0.2-6.1c0-1.2-0.2-2.3-0.4-3.1c-0.3-0.9-0.7-1.5-1.4-1.6c0.1-0.6,0.2-0.9,0.4-1.1c-0.6-0.8-1.3-2.3-2.1-3.3
						c-0.4-0.6-0.8-0.9-1.2-1.2c-0.4-0.3-0.7-0.4-1-0.2c0.5-1.8,0.4-3.1-0.2-4.1c-0.5-1-1.4-1.6-2.5-2.1c-1.1-0.5-2.5-0.7-3.5-0.8
						c-1-0.1-1.5-0.3-1.3-1.5c-0.5,0.1-0.9,0.2-1.4,0.4c-0.4,0.1-0.9,0.3-1.3,0.6c-0.4,0.2-0.8,0.4-1.2,0.7
						c-0.4,0.3-0.8,0.4-1.2,0.5l0.1-0.6c-1.6,0.5-2.7,1.6-3.5,2.7c-0.8,1.1-1.2,2.3-1.6,3.5c-0.8,0.2-0.4-0.8-0.4-1.1
						c-2.6,1.5-4.2,2.5-5.3,3.8c-1.1,1.3-2,3-2.9,5.8c-0.6-0.4-1.1-0.7-1.7-1.1c-0.1,0.5-0.5,0.8-1.3,1.1c-0.8,0.3-1.8,0.7-2.9,1.1
						c-2.3,0.9-4.9,2-5.9,4.3c-0.2-0.2-0.4-0.6-0.3-1.1c-1.2,2.6-5.1,3.2-8.3,3.9c-3.2,0.8-5.5,1.7-2.4,6.3
						c-0.3,1.3-0.6,2.7-0.9,4.1c2.1-1.1,2.8-0.1,3.4,1.2c0.6,1.3,1,3,2.4,3c-0.4,0.9-1.9,1-3.1,0.7c-1.2-0.3-2.2-1.1-1.6-2l0.7,0.2
						c-1.8-2.5-3.3-2-4.8-1.3c-1.4,0.7-2.7,1.7-4.3,0c-3.7,2.9-8.1,5-12.5,7l24.1,17.8c3.4-3.3,6.8-6.8,9-10.7l-6.4-1.6l1.7-2.7
						c1.7-0.2,5.2,0.9,3.9,2.9c1.9,0.2,1.7-1,0.7-2.3c-1-1.3-2.6-2.7-3.2-3c2.1-1.5,3.7-0.5,4.9,0.9c1.1,1.3,1.8,3,2.2,2.4l0.3-1.9
						l-0.9,0.1c-1.9-2.4-4.5-3.5-3.2-5.9c1.9-1.2,4.1,0.6,4.6,0c0.4,0.2,0.7,0,0.6-0.9c0.6-1.2,1.3-2.5,1.9-3.7l-5.4-0.1
						c-1.9-2.5,1.4-3.5-4.7-3.6c4.2,0.2,6.2-2.5,7.2-5.6l14.5-43.2l-37.6,28.7c-1,0.8-1.9,1.8-2.7,2.5c-0.8,0.7-1.6,1.1-2.2,0.6
						c0.6,4.1-1.1,5-3.2,5.5c0.9,0.7,3.5,5.7,1.2,5.9c-1.8-5.5-3-6.2-4.3-6.6c-0.6-0.2-1.3-0.3-2-0.7c-0.7-0.5-1.4-1.4-2.2-3.2
						c1.2,2.4,0.2,3.1-0.8,4c-0.5,0.5-0.9,1-1.1,1.8c-0.2,0.8-0.1,1.9,0.8,3.7c-0.9-0.3-1-1.3-1.2-2.5c-0.1-0.6-0.1-1.3-0.3-1.9
						c0-0.2-0.1-0.3-0.1-0.5l0-0.1l0,0l0,0l0,0l0,0c-0.6-4.9,0.9,6.7,0.7,5.5l0,0l0,0c0,0,0-0.1,0-0.1c0-0.2,0-0.4-0.1-0.7
						c-0.1-0.7,0-0.5-0.1,0.3c-0.1,0.8-0.4,2.2-0.9,3.4c-0.5,1.3-1.2,2.2-1.6,2.5c0,0-0.1,0.1-0.1,0.1c0,0,0,0,0,0
						c-0.1,0,0.1,0,0.1,0c0,0,0.1,0,0.2,0c0.1,0,0.2,0,0.2,0l0,0l0,0l0,0c0.3,0-0.4,0-0.4,0l0,0l0,0l0,0c0.1,0,0.1,0,0.2,0
						c0.3,0.1,0.8,0.2,1.6,0.7c0.5,0.3,0.9,0.6,1.6,1c0.6,0.4,1.5,1.1,2.7,2.1l1.1,0.9l1.3,1.1l1,0.8l0.5,0.4l0,0c0,0,0,0,0,0
						c0.1,0,0.1,0,0.3-0.2c0.3-0.2,0.6-0.4,0.9-0.7c1.1-1,2.1-2.1,2.7-3.5c-0.9-0.9-2.9-1.4-3.5-3.7c2.2,0.6,4.3,1.1,6.4,1.6
						c0.2-1.4-4.5-5.6-0.2-4.6c-0.9-0.4-2.3-1.1-2.1-2c4.6-2.3,7-6.6,9.5-10.9c0.6-1.1,1.2-2.2,1.8-3.3l1-1.6
						c0.2-0.3,0.6-0.8,0.8-1.2c0.3-0.4,0.5-0.8,0.7-1.2c0.9-1.7,1.8-3.5,2.3-6.1c0.2-1.4,0.3-3.1-0.2-5.1c-0.3-1-0.8-2-1.4-2.9
						c-0.6-0.9-1.4-1.6-2.2-2.2l-4.1-3.1l-4.2,3.3c-1.6,1.3-3.5,2.4-5.3,3.4c1.6-0.4,1,0.6,0.3,1.5c0.7-0.4,0.7,1.1,1.2,1.6
						c-1.5,0.6-3,1.2-4.4,2c0.1,1-0.8,1.9-1.7,2.9c-0.9,0.9-1.8,1.8-1.8,2.4c0.4-0.4,0.7-0.8,1.1-1.2c-0.5,1.2,0.4,1.3,1.6,1.5
						c1.2,0.2,2.8,0.5,3.2,1.5c0.7-1.2,2.4-1.3,4.5-1.4c1,0,2.1-0.1,3.1-0.5c0.9-0.4,1.7-1,2-2.3c1.2,0.2-0.1,1.2,0.8,1.6
						c0.1-1.5,0.9-2.4,3.2-2.9l-5.6-2c0,0,0.1-0.1,0.1-0.2c0,0.1-0.1,0.1-0.1,0.2l5.9,2.4l0,0c0,0,0,0,0,0l-5.9-2.4
						c0.6-0.8,0.7-0.4,0-0.3c-0.7,0.1-1.9,0-3.3-0.4c-0.2-0.1-0.3-0.1-0.5-0.2l-0.4-0.1c0,0-0.1,0-0.1,0c-0.1,0-0.2,0-0.3,0
						c-0.3,0-0.6,0.1-0.9,0.1c-0.2,0-0.3,0-0.5,0c-0.1,0-0.2,0-0.2,0c0,0-0.1,0-0.1,0l-0.2,0.1c-0.6,0.2-1.3,0.5-1.9,0.8
						c-1.3,0.5-2.9,1.1-4.5,1.9l2.3,1.5c-1.4,0.7-2.3,0.3-3.4,0.3c1.7,3.9,3.5-2.4,5.5,1.5c-2.7-1.2-4.8,0.4-6.9,2
						c-2.1,1.5-4.1,3-7.3,0.9c-1.8,1.4,3.2,2,1.4,3.4l-1.9-1l1.4,2.1c-1.5,0.7-3.9-0.6-5.2-1.7c0.4-0.1,0.5-1,0.7-1.3
						c-3.3-0.5-3.8,3.9-4.9,3.8l2.7-0.5c-0.9,1.3-2,2.5-3.2,3.6c-0.7,0.6-1.3,1.2-2,1.8c-0.5,0.5-1.3,1.2-2.2,2.5
						c-0.9,1.2-2.1,3-3,5.7c-0.4,1.3-0.8,2.8-0.9,4.4c-0.1,1.6,0,3.1,0.2,4.7c0.5,3.4,2.2,6.7,4.2,9c0.9,1,2.1,2.1,3,2.8
						c0.5,0.4,1,0.7,1.5,1c0.4,0.3,0.9,0.5,1.3,0.8c0.5,0.3,0.9,0.4,1.3,0.6c0.4,0.2,0.8,0.3,1.2,0.5c0.7,0.2,1.5,0.5,2.1,0.6
						c2.7,0.6,4.9,0.6,6.9,0.3c1-0.2,2.1-0.4,3.1-0.8c0.5-0.3,0.9-0.6,1.4-0.9l-0.9-1.7c2.6-1.9,3.8-1.7,5.2-1.2
						c1.4,0.5,3,1.2,5.9-0.4l-0.1,0.5c0.7-2.1,1.9-3.6,3.5-4c-0.3,1.3,0.8,2.1,1.9,2.8c1.1,0.8,2.2,1.6,1.7,3.1
						c2.4-3,2.7-4.1,2.7-5.3c-0.1-1.3-0.5-2.8-0.7-6.9c0.8,0.8,1.6,1.6,2.5,2.3c-0.4-3.2-1.1-4.5,0.8-6.9c-0.1,1.8,0.9,2.6,2.1,3.4
						c1.1,0.8,2.4,1.8,2.2,4.1c2.2,0.4,3.7,0,4.7-0.8c1-0.8,1.5-2,1.8-3.1l-26.7-16.8c1,2.1,2.5,3.9-3.6,3.3
						c8.1,4.9,6.2-2.5,7.7-0.7c3.2-0.2,6,3.8,4.6,5.1c-0.7,1.5-12.1-1.1-13.2,2.5c0.2-0.3-0.5-0.6-0.3-0.9c-2.7,0.5,2.1,3.8-2.1,4.1
						c4.8,3-1,2,5.4,5l-0.3-4c0.5,1.3,2.6,3.2,3.8,4.9c1.2,1.8,1.7,3.5-0.8,4.3c-1.2-0.8-2.5-2.5-3.2-3.5c-2.2,0.1,0.6,2.3-1.7,2.5
						c-3.1-1.5-3.1-2.7-2.8-4c0.3-1.3,0.8-2.7-1.3-4.7c-3.1-0.2,3.4,5.7-3.3,1.8c4.2,2.6,3.6,3.4,2.7,4.1c-0.9,0.8-2,1.6,0.8,4.3
						l-3.7-1.9c0.4,0.6,1.9,2.3,1.6,3c-1.4-1.2-2.9-2.4-4.3-3.5c1.7,1.9,0.5,2.5-0.9,2.9c-1.4,0.4-2.9,0.7-2.1,2.2
						c1.1-4,4.5,1.2,7.7,0.8c1,2.4,0.1,3.1-1.3,3l-36.2-0.4l60.2,18.2c2.9,0.9,7.6,5.2,9.1,0.6c-0.1,1.1-3.4,1.2-3.9-1.2
						c1.3-0.4,3.2-0.8,4.9-0.1c0.9-2.1,0.2-2.6-0.8-3c-1-0.4-2.4-0.7-2.6-2.2c3.9,1.9,0-3,0.2-5.4l2.4,2.5c4.3-2.5-4.2-6.1,0.3-7.8
						l2.1,4.7l0.5-2.7l2.3,3c-0.5-4.1,0.5-4.2,2.5-5.6c-1.8-1-3.6-4.1-2.3-5.9c2.1,0,1.4,2.6,2.9-0.2c0.8,1.8,1.9,4-0.6,3.3
						c0.6,0.8,0.9,1.9,1.5,2.7c2.2,0,2.4-3.2,3-4.2c-0.3,0.3-0.7,0.6-1.1,0.6c-0.1-2.2-0.1-4.3,0-6.3c1.1,0.1,1.3,1.1,1.5,2.1
						c0.3-1-0.1-2.3,0.5-3.6c1.2,1.7,2.6,3.1,2.3,5.4c0.2-1.8,0.4-3.6,0.7-5.3c0.7,0.4,2.7-0.3,2.9,0.7c1-0.7,1.1-2.6,1.4-4.4
						c0.3-1.9,0.8-3.7,2.1-4.6c-0.1-0.2-0.1-0.4-0.1-0.6c0-0.1,0-0.3,0.1-0.4c0-0.1,0-0.1,0.1-0.2l0-0.1l0,0c0.6,0,1.5,0.5,2.1,0.8
						c0.6,0.3,1,0.4,1.2-1.1c0.1,0.3,0.3,0.6,0.4,0.9l0.2,0.5l0.2,0.4c0.2,0.6,0.4,1.2,0.5,1.8c0-0.7-0.2-1.8-0.6-3
						c-0.3-1.2-0.7-2.4-0.2-4c0.8-2.6,0.6,3.2,0.9,4c0-0.4,0-0.8,0.1-1.2c0-0.5,0.1-1.1,0.1-1.6c0-0.1,0-0.3,0-0.4l0.1-0.3
						c0-0.2,0.1-0.4,0.1-0.6c0.1-0.4,0.2-0.8,0.3-1.1c0.4-1.3,1.1-2,1.3,0C110.8,114,110.6,113.3,110.3,113.9z M115.2,125.1
						c-0.3-0.6-1.4-1.7-0.4-2.2C116.6,123.4,115.8,124,115.2,125.1z M150.3,108.3c0,1.3-0.5,1.1-1.3,0.4
						C149.2,108.1,149.6,107.9,150.3,108.3z M95.5,189.5c0.1-0.1,0.1-0.1,0.2-0.2C96.1,191.7,96,190.8,95.5,189.5z M119.2,175.2
						C119.3,175.3,119.3,175.3,119.2,175.2c0,0-0.1,0-0.2-0.1l-25.2,12.1c0.3,0,0.6,0.3,0.8,0.6c0.3-1,0.3-1.8-0.3-1.8l24.7-10.8
						C119.1,175.2,119.1,175.2,119.2,175.2z M87.9,129.7l-1.3,0.2C86,128.2,86.9,128.9,87.9,129.7z"/>
					<path class="st0" d="M149.2,115c-0.3-0.4-0.6-0.9-0.9-1.4C148.4,114.2,148.7,114.7,149.2,115z"/>
					<path class="st0" d="M104.6,119.3C104.6,119.3,104.6,119.3,104.6,119.3c0,0.2,0,0.3,0.1,0.4L104.6,119.3z"/>
					<path class="st0" d="M141.8,141.1c-0.2,0.6-0.7,1.3-1.2,2.1C141.5,142.2,142,141.5,141.8,141.1z"/>
					<path class="st0" d="M108.4,178.1L108.4,178.1L108.4,178.1l2.1-2l0,0c0,0,0,0,0,0l0.1-0.1c0,0-0.1,0.1-0.1,0.1c0,0,0,0,0,0l0,0
						C109.8,176.8,109,177.5,108.4,178.1L108.4,178.1C108.3,178.2,108.2,178.3,108.4,178.1z"/>
					<path class="st0" d="M114.6,179.3c-0.1,0.5-0.6,0.2-0.7,0.7l0.5,1.7C115.6,181.3,116,179.7,114.6,179.3z"/>
					<path class="st0" d="M108.8,177.4c0,0,0.1-0.2,0.2-0.5c0.1-0.3,0.2-0.7,0.2-1l0,0.1c0-0.1,0,0-0.1,0.3
						C109.2,176.6,109,177,108.8,177.4z"/>
					<path class="st0" d="M109.3,175.8c0-0.1,0-0.3,0-0.2C109.3,175.6,109.3,175.5,109.3,175.8z"/>
					<path class="st0" d="M118.8,175.2c-0.4-0.1-0.3-0.1-0.5-0.1c-0.1,0,0,0,0.2,0c0.2,0,0.5,0.1,0.6,0.1c0.1,0,0.2,0.1,0.2,0.1
						C119.3,175.3,119.3,175.3,118.8,175.2z"/>
					<path class="st0" d="M106.7,184c0.3-1.5,0.7-2.9,1.2-4.3c-0.5,1.1-1.2,2.1-1.9,3.1C106.2,183.2,106.4,183.7,106.7,184z"/>
					<path class="st0" d="M104.7,175.5c-0.2,0.3-0.4,0.6-0.6,0.9c-0.2,0.3-0.3,0.6-0.5,1c0.8-0.2,1.2-0.1,1.6,0
						C105.2,176.4,106.1,175.4,104.7,175.5z"/>
					<path class="st0" d="M105.3,177.3c0,0.5,0.3,0.8,1,0.7C106.2,177.9,105.9,177.5,105.3,177.3z"/>
					<path class="st0" d="M103.3,183.6c0-0.4,0.1-0.8,0.2-1.2c-0.3-0.5-0.5-0.9-0.7-1.4C102.8,181.8,102.9,182.7,103.3,183.6z"/>
					<path class="st0" d="M116.1,164.8c-0.2-0.9-0.4-1.7-0.5-2.6c-1.6-0.9-2.8-0.7-2.5,0.3C114.1,163.5,114.4,164.5,116.1,164.8z"/>
					<path class="st0" d="M100.6,167.1c1.2-0.4,2.3-0.1,4,0.1l-6-2L100.6,167.1z"/>
					<path class="st0" d="M101.4,159.5c-1.6-0.8-3.5-5.5-4.2-2.1C98.7,158.2,99.2,161.2,101.4,159.5z"/>
					<polygon class="st0" points="132.6,154.5 132,154.4 124.8,162.8 128.8,158.6 					"/>
					<path class="st0" d="M155.4,131.2c-0.3-0.2-0.4,2.5-0.7,2.2c-0.3,1.3,0.3,0.2,0,1.3C155.2,132.9,155.3,133.2,155.4,131.2z"/>
					<path class="st0" d="M154.7,134.6c-0.1,0.3-0.2,0.6-0.3,1C154.6,135.1,154.7,134.9,154.7,134.6z"/>
					<path class="st0" d="M53.3,91.5c-0.4,0.4-0.9,0.8-1.3,1.2c0.3-0.2,0.7-0.3,1-0.5L53.3,91.5z"/>
					<path class="st0" d="M51.5,95.2c-0.2-0.1-0.5-0.3-0.7-0.4c-0.1,0.5-0.3,1-0.4,1.4C50.7,95.9,51.2,95.2,51.5,95.2z"/>
					<path class="st0" d="M110,130l0.6,0.1c0.7-0.3,0.8-0.7,1-1.4C111,129.1,110.5,129.6,110,130z"/>
					<path class="st0" d="M111.8,119.1l0,0.1c0.5-0.9,1-1.9,1.5-2.9C112.8,117.3,112.3,118.2,111.8,119.1z"/>
					<path class="st0" d="M109.5,123.6c0,0,0-0.2-0.1-0.4l0-0.3c0-0.2,0-0.3,0-0.5c0,0.2,0,0.3,0,0.5c0-0.1,0-0.1,0-0.2
						c0-0.3-0.1-0.5-0.1-0.7C109.3,121.4,109.3,121.4,109.5,123.6z"/>
				</g>
			</g>
		</g>
	</g>
	<g>
		<circle class="st1" cx="99.2" cy="118.1" r="80.3"/>
		<g>
			<path class="st1" d="M151,140.2c-0.1,0-0.1-0.1-0.2-0.2l-25.8-17c0.3-1.5,0.5-3.2,0.5-4.8c0-1.6-0.2-3.3-0.5-4.8l25.8-17
				c0.1,0,0.1-0.1,0.2-0.2c2.9,6.8,4.5,14.2,4.5,22.1S153.9,133.4,151,140.2z"/>
			<path class="st1" d="M143.8,83.9C143.8,83.9,143.7,83.9,143.8,83.9L116.1,98c-2.4-2-5.1-3.6-7.9-4.6l-1.6-30.9v-0.1
				C121.7,64.3,135,72.2,143.8,83.9z"/>
			<path class="st1" d="M99.2,130.7c-6.9,0-12.6-5.7-12.6-12.6c0-6.9,5.6-12.6,12.6-12.6c6.9,0,12.6,5.7,12.6,12.6
				C111.7,125,106.1,130.7,99.2,130.7z"/>
			<path class="st1" d="M92.4,62.2c0,0.1,0,0.1-0.1,0.2l-1.9,30.9c-3.1,1.1-6,2.8-8.3,4.8L54.4,84.3h-0.1
				C63.2,72.3,76.8,64.1,92.4,62.2z"/>
			<path class="st1" d="M47.1,96.6C47.1,96.6,47.3,96.7,47.1,96.6l26.1,16.9c-0.2,1.5-0.4,3-0.4,4.6c0,1.5,0.2,3.1,0.5,4.6l-26,16.8
				l-0.1,0.1c-2.8-6.7-4.3-13.9-4.3-21.5C42.8,110.5,44.4,103.2,47.1,96.6z"/>
			<path class="st1" d="M54.3,151.9h0.1l27.7-13.8c2.5,2.2,5.3,3.7,8.3,4.8l1.9,30.9c0,0.1,0,0.1,0,0.2
				C76.8,172.1,63.2,163.9,54.3,151.9z"/>
			<path class="st1" d="M106.5,174v-0.1l1.5-31c2.9-1,5.6-2.7,7.9-4.6l27.6,14.1h0.1C135,164,121.7,171.9,106.5,174z"/>
		</g>
	</g>
</g>
</svg>
