<?xml version="1.0" encoding="utf-8"?>
<!-- Generator: Adobe Illustrator 24.0.2, SVG Export Plug-In . SVG Version: 6.00 Build 0)  -->
<svg version="1.1" id="Layer_1" xmlns="http://www.w3.org/2000/svg" xmlns:xlink="http://www.w3.org/1999/xlink" x="0px" y="0px"
	 viewBox="0 0 198.4 198.4" style="enable-background:new 0 0 198.4 198.4;" xml:space="preserve">
<style type="text/css">
	.st0{fill:#F4D6AB;}
	.st1{fill:#646565;}
</style>
<g>
	<g>
		<g>
			<g>
				<g>
					<path class="st0" d="M56.7,162c-0.1,0.4,0.2-0.1,0.2-0.1C57.2,161.4,56.6,162.1,56.7,162z"/>
					<path class="st0" d="M59.2,160l0.2,0.4c0-0.3-0.1-0.6-0.1-1l-0.1,0.3L59.2,160z"/>
					<path class="st0" d="M70.5,168.1c-1-1.5-1.7-2.3-2.3-2.6c-0.3-0.2-0.6-0.3-0.8-0.3c-0.3,0-0.5,0.2-0.7,0.3
						c-0.1,0.1-0.2,0.2-0.4,0.2l-0.5,0c-0.2,0-0.3,0-0.5,0c-0.2,0-0.3,0-0.5,0c-0.7,0-1.5-0.2-2.2-0.8c-0.2-0.4-0.5-0.9-0.7-1.3
						c-0.1,0.6-0.2,1.1-0.3,1.6c-0.1,0.3-0.1,0.5-0.2,0.8l-0.1,0.4c0.1,0.5-0.3-1-0.5-1.9l-0.4-1.5l-0.2-0.8l-0.1-0.4l0-0.2l0-0.1
						l0,0l-0.1-1.3l0,0l0,0c-0.1-1.2,0.1,1.6,0.1,1.4l0,0.1l0,0.2l0.1,0.4l0.2,0.8l0.4,1.6l0.4,1.6l0.1,0.4c0,0.1,0,0.1,0,0.1l0,0
						l0,0l0.2,0.1l0.4,0.1c0.2,0.1,0.5,0.2,0.7,0.3c0.1,0,0.2,0.1,0.4,0.1l0.3,0l0.7,0c0.9,0,1.7-0.2,2.6,0.1l0.3,0.1
						c0.1,0,0.1,0,0.2,0l0.1-0.1c0.2-0.1,0.3-0.1,0.5-0.2c0.2-0.1,0.3-0.1,0.5-0.1c0.2,0,0.3,0,0.5,0.1
						C69.2,167.3,69.8,167.5,70.5,168.1z"/>
					<path class="st0" d="M83.2,180.1c-0.8-1-0.9-1.4-0.9-1.5c0,0,0.1,0.3-0.7,1.2c0.3,0.2,0.4,0.3,0.5,0.5
						C82.4,180.1,82.7,180.1,83.2,180.1z"/>
					<path class="st0" d="M82.2,180.2C81.4,180.6,84,181.8,82.2,180.2L82.2,180.2z"/>
					<path class="st0" d="M85.7,178.6l0.2,2c1,1,2.1,0.9,2.4,1.8c0.2-0.7,0-1.3-0.4-1.8C87.4,180,86.7,179.4,85.7,178.6z"/>
					<path class="st0" d="M84.3,175.3l-0.2,0.5C84.5,176.2,84.9,176.4,84.3,175.3z"/>
					<path class="st0" d="M84.1,177.5l0-1.7c-0.7-0.7-1.9-2.2-0.1,0.6C83,175,83.8,176.4,84.1,177.5z"/>
					<path class="st0" d="M82.9,176.9c-0.4-0.3-0.6-0.4-1-0.7c-0.4-0.3-0.7-0.6-1-0.9c-0.6-0.6-0.8-1.1-0.8-1.8
						c-1.2-0.2-0.8,1.2-0.1,2c0.3,0.4,0.8,0.8,1.3,1c0.2,0.1,0.6,0.3,0.9,0.4c0.2,0.1,0.3,0.1,0.5,0.1
						C82.7,177,82.8,176.9,82.9,176.9z"/>
					<path class="st0" d="M68.1,162.4c-0.6-0.6-1.2-1.3-1.8-1.9c0,0.5,0,1-0.1,1.6c0-0.4,0.7,0.2,1.3,0.6
						C68.2,163.1,68.6,163.3,68.1,162.4z"/>
					<path class="st0" d="M95.4,177.9c-0.4-0.4-1-0.9-1.7-1.3c-0.7-0.5-1.4-0.9-2-1.4l0.1,1.4C92.7,177,94,176.8,95.4,177.9z"/>
					<path class="st0" d="M91.7,175.2c-0.1-0.8,0.1-1.3,0.1-2c-0.7,0.3-1.1,0.5-1,0.8C90.8,174.4,91.2,174.8,91.7,175.2z"/>
					<path class="st0" d="M80.5,170.3l0.1,0.7l0,0.4l0.1,0.4l0.5,1.8l-0.3-1.9c0-0.5,0.1-0.8-0.1-1.5
						C80.7,170.3,80.6,170.3,80.5,170.3z"/>
					<path class="st0" d="M101.4,173.2l0.7,1.3c0.2,0.4,0.4,0.8,0.6,1.2c-0.2-0.6-0.5-1.3-0.8-2l-0.5-1l-0.3-0.9l0.1,0.7
						C101.2,172.7,101.3,173,101.4,173.2z"/>
					<path class="st0" d="M104.5,168.6c0.6,0.9,1.6,1.1,2.5,1.2c0.8,0.1,1.5,0.1,1.9,0.9c0.1-0.2,0-0.5,0.1-0.7
						c0.1-0.2,0.1-0.4,0.1-0.6c-0.1-0.5-0.3-1-0.4-1.4c-0.1-0.4-0.2-0.9-0.4-1.3c-0.1-0.2-0.3-0.5-0.5-0.7l-0.2-0.4l-0.2-0.3
						c0,0.3,0.2,0.8,0.1,1.1c-0.1,0.3-0.4,0.6-0.7,0.8c-0.4,0.2-0.4,0.6-0.9,0.8c-0.2,0.1-0.6,0.2-0.8,0.3
						C105,168.4,104.8,168.5,104.5,168.6z"/>
					<path class="st0" d="M106.2,163.3c0.1,0.1,0.2,0.1,0.3,0.2l0.2,0.1l0.1,0.1c0,0,0.1,0.1,0.1,0.2c0.2,0.5,0.5,1,0.7,1.5
						c0-0.4-0.1-0.8-0.3-1.3l-0.1-0.2c0,0-0.1,0-0.1-0.1l-0.2-0.1C106.6,163.5,106.4,163.4,106.2,163.3z"/>
					<path class="st0" d="M94.6,171.9c0.3,0.1,0.7,0.4,1.2,0.6c0.7,0.3,1.6,0.6,2.5,0.4c-1-0.4-2-0.9-3-1.4l-0.4,0.2L94.6,171.9z"/>
					<path class="st0" d="M95.2,171.4L95.2,171.4c0.8-0.4,1.3-0.8,1.5-1C96.5,170.6,96.1,170.9,95.2,171.4z"/>
					<path class="st0" d="M94.5,172c0.1,0,0.1-0.1,0.2-0.1C94.4,171.7,94.2,171.7,94.5,172z"/>
					<path class="st0" d="M85.7,172.2c-0.1-0.3-0.1-0.7-0.1-1c0-0.3-0.2-0.8-0.4-1.2c-0.4-0.8-1.3-1.6-3-2.5
						C83,169.1,85.2,170.2,85.7,172.2z"/>
					<path class="st0" d="M90.8,170.1c-0.7,0.2-1.4,0.3-2,0.4c0.6,0.5,1.8,1.2,2,2L90.8,170.1z"/>
					<polygon class="st0" points="90.8,169 90.8,170.1 91.6,169.9 					"/>
					<path class="st0" d="M101.7,164.6c-0.2-0.3-0.3-0.7-0.3-1c0-0.1,0-0.3,0-0.4c0-0.2-0.1-0.3-0.1-0.5c-0.1-0.3,0-0.5,0.1-0.8
						c0-0.1,0.1-0.3,0.1-0.4l0.1-0.2c0-0.1,0,0,0-0.1c-0.1,0-0.1-0.1-0.2,0l-0.2,0.2l-0.4,0.3l-0.4,0.3c-0.1,0.1-0.2,0.3-0.2,0.4
						c-0.2,0.3-0.4,0.5-0.6,0.7c-0.1,0.1-0.2,0.2-0.3,0.3c-0.1,0.1-0.1,0.3-0.1,0.4c0.4,0.3,0.9,0.8,1.4,1c0.2,0.1,0.5,0.2,0.7,0.2
						C101.4,165.1,101.5,164.9,101.7,164.6z"/>
					<path class="st0" d="M98.6,168.1c0-0.1,0-0.2,0-0.2C98.3,167.8,98.1,167.9,98.6,168.1z"/>
					<path class="st0" d="M103.4,161.6c-0.1-0.1-0.2-0.2-0.3-0.2C103.2,161.4,103.3,161.4,103.4,161.6L103.4,161.6
						C103.3,161.5,103.3,161.5,103.4,161.6z"/>
					<path class="st0" d="M98.5,163.9c-0.3,0.1-0.5,0.2-0.5,0.4c-0.1,0.2-0.1,0.4,0,0.6c0,0.4,0.2,0.7,0.5,1.2
						c-0.1-0.4,0.2-0.6,0.2-1.1c0-0.2,0-0.4,0.1-0.5c0.1-0.2,0.2-0.3,0.3-0.5C98.7,163.7,98.5,163.6,98.5,163.9z"/>
					<path class="st0" d="M102.1,160.6L102.1,160.6L102.1,160.6l3.6,1.9l0,0l0,0l0,0l0,0l0,0l0,0l-0.1,0l-0.3-0.1
						c-0.2-0.1-0.4-0.1-0.6-0.2c-0.4-0.1-0.7-0.2-1.1-0.3c0.5,0.2,1.2,0.5,1.8,0.7c0.3,0.1,0.4,0.2,0.5,0.2c0,0,0.1,0,0,0
						L102.1,160.6L102.1,160.6L102.1,160.6L102.1,160.6L102.1,160.6L102.1,160.6L102.1,160.6z"/>
					<path class="st0" d="M99.4,168c0,0.1,0.1,0.1,0.1,0.2C100.2,168.3,99.9,168.2,99.4,168z"/>
					<path class="st0" d="M99.4,168c-0.1-0.3-0.2-0.7-0.3-1c-0.1-0.3-0.4-0.7-0.6-1c0,0.2,0,0.3,0,0.5c0,0.1-0.1,0.3-0.1,0.4
						c0,0.3,0.1,0.6,0.2,0.9C98.8,167.9,99.2,168,99.4,168z"/>
					<path class="st0" d="M88.3,144.4c1.1,1.3,1.9,2.8,2,3.7c0.1,0.9-0.4,1.2-2.1,0.6c0.5,1.3,3.1,3.4,6.1,5.6c3,2.3,6.5,4.9,8.8,7
						c-1.1-1-2.1-1.8-3.1-3.3c-0.7-0.6-1.7-1.3-2.8-2c-1.1-0.7-2.3-1.4-3.2-2.6c-0.4-1.9,1.6,0.2,3.2,1.3c-1.6-1.4-2.4-2.7-3.2-4.4
						c-0.8-1.6-1.6-3.6-3.6-6c0,0.9,0.1,1.8,0.2,2.7C89.8,146.3,89.3,144.7,88.3,144.4z"/>
					<path class="st0" d="M102.4,160.8l0.1,0.1L102.4,160.8c0.1,0.1,0.2,0.1,0.3,0.2c0.1,0.1,0.2,0.1,0.3,0.3
						c0.3,0.2,0.3,0.3,0.3,0.3c-0.1-0.1-0.2-0.2-0.4-0.3c-0.1-0.1-0.4-0.2-0.4-0.3l0,0L102.4,160.8z"/>
					<path class="st0" d="M101.9,160.9c-1.4-0.8-2.2-1.5-3.2-2.1c-1-0.6-2.1-1.3-3.9-2.1c-0.5,0.9,2,1.8,2.8,2.8
						c0.3-0.6,0.6-0.4,1.2,0.1c0.6,0.4,1.4,1,2.8,1.2c0.2,0.3,0.2,0.5,0,0.6c0.6,0.1,1.3,0.2,2.1,0.5c-0.1,0-0.1-0.1-0.2-0.1l0,0
						c0,0,0,0,0,0c-0.4-0.2-0.7-0.3-0.4-0.2c0,0,0,0,0,0C102.6,161.3,102.2,161.1,101.9,160.9c1,0.2,0.9,0.4,1.1,0.6
						c0.1,0.1,0.3,0.2,0.4,0.2l0,0l-0.1-0.3l0-0.1l0,0l0,0l0,0l0,0c0.3,0.1-2.4-1.3-1.3-0.7l0,0l0,0l0,0l0,0l0,0
						c0.1,0.1,0.2,0.1,0.3,0.2c0,0-0.1,0-0.1-0.1c-0.1,0-0.1-0.1-0.2-0.1l0,0l-0.1,0l0,0l0,0l0,0l0,0c-0.1,0,0.1,0,0.1,0l0,0l0,0
						l0,0l0,0C102,160.7,102,160.8,101.9,160.9z"/>
					<path class="st0" d="M78.6,162.5c0.3,0.2,0.4,0.3,0.6,0.5C79.1,162.7,78.9,162.5,78.6,162.5z"/>
					<path class="st0" d="M81.1,163.6c0.1,0.3,0.9,1.2,0,1.1c-1.2-0.6-1.1-1.1-1.9-1.8c0.2,0.6,0.4,1.8,2.6,2.7l-0.1-0.3
						c0.5,0.1,1.1,0.4,1.8,0.7c0.7,0.3,1.4,0.6,2.1,0.9c1.3,0.5,2.5,1.1,2.5,1.3C85.6,166.4,83.8,165.3,81.1,163.6z"/>
					<path class="st0" d="M91.3,163c0-0.3,0-0.5,0.1-0.8c0-0.3-0.1-0.6,0-0.8c0-0.2,0-0.5,0-0.8c0-0.3,0-0.5,0-0.8c-0.5,0-1,0-1.5,0
						c-0.5,0-1,0-1.5-0.1l1.5,0.7c-0.6,0.5-0.5,0.9-0.1,1.3C90.1,162.2,90.8,162.6,91.3,163z"/>
					<path class="st0" d="M103.5,161.6l-0.1-0.1c0.2,0.1,0.3,0.3,0.4,0.4C103.7,161.8,103.6,161.7,103.5,161.6z"/>
					<polygon class="st0" points="104.3,162.5 104.3,162.5 104.5,162.7 					"/>
					<path class="st0" d="M84.3,100.9l-0.8,1C83.9,101.6,84.1,101.2,84.3,100.9z"/>
					<path class="st0" d="M85.9,100.7l1.2-1.5C86.4,100.1,85.9,100.7,85.9,100.7z"/>
					<path class="st0" d="M163,133.7c1.9-0.2,4.6-0.3,6-0.5c1.4-0.2,1.7-0.5-0.8-0.9l-4.7-0.6C164.5,132.8,163.9,133.4,163,133.7z"
						/>
					<path class="st0" d="M102.3,114c-0.2,0.1-0.5,0.1-0.7,0.2c0.6,0.1,1.1,0.2,1.7,0.2c1.3,0.1,2.5,0.2,3.6,0.3
						c-0.9-0.1-1.8-0.2-2.8-0.3c-0.5,0-1.1-0.1-1.2-0.2C102.7,114.1,102.5,114.1,102.3,114z"/>
					<path class="st0" d="M90,113.8c0.5-0.2,1-0.4,1.6-0.7C91,113.3,90.5,113.5,90,113.8z"/>
					<path class="st0" d="M75.8,108.3l-0.8,1c-0.4,0.3-0.8,0.6-1.2,0.9c0.4,0,0.8,0,1.1-0.1c0.2-0.1,0.4-0.1,0.5-0.2
						c0.2-0.1,0.3-0.3,0.4-0.4C75.8,109.2,75.7,108.7,75.8,108.3z"/>
					<path class="st0" d="M144.1,166.4c2.1,1.7,3,2.4,3.3,2.8C144.6,166.8,140.1,163.3,144.1,166.4z"/>
					<path class="st0" d="M102.5,75.1c-0.6,0.3-0.9,0.6-1.1,0.9l0,0C102,75.8,102.4,75.5,102.5,75.1z"/>
					<path class="st0" d="M147.9,169.6c-0.4-0.3-0.8-0.6-1.2-0.9c0.6,0.5,1.1,0.8,0.7,0.4C149.5,170.9,150.8,171.9,147.9,169.6z"/>
					<path class="st0" d="M38.9,51.9c0.4,0.2,0.8,0.4,1.2,0.5C39.8,52.3,39.6,52.2,38.9,51.9z"/>
					<path class="st0" d="M35,60.1c0.1-0.3,0.4-0.7,0.6-1C35.4,59.1,35.2,59.4,35,60.1z"/>
					<path class="st0" d="M131.1,175.4C130.3,176.2,131.5,176.1,131.1,175.4L131.1,175.4z"/>
					<path class="st0" d="M108.3,155.2c-0.3-0.7-0.8-1.5-1.7-2.8C107.5,153.7,108,154.6,108.3,155.2z"/>
					<path class="st0" d="M125.2,150.3C125.3,150.3,125.3,150.3,125.2,150.3C124.1,149.5,124.3,149.6,125.2,150.3z"/>
					<path class="st0" d="M127.2,173.5c1,0.5,2.1,1,2.9,1.2C129.6,174.3,128.6,173.9,127.2,173.5z"/>
					<path class="st0" d="M129.6,176c-0.6-0.1-1.1-0.2-1.5-0.2C128.7,176.7,129.3,177.3,129.6,176z"/>
					<path class="st0" d="M132.4,174.6c-0.5,0.3-1.4,0.3-2.3,0.1c0.5,0.3,0.9,0.6,1,0.8C131.4,175.2,131.7,175,132.4,174.6z"/>
					<path class="st0" d="M73.2,82.2c0-0.1,0-0.2,0.1-0.4C72.3,83.9,72.5,83.5,73.2,82.2z"/>
					<path class="st0" d="M102.3,113.7c0.1,0,0.2,0,0.3,0c0.1,0,0.1,0,0.2,0L102.3,113.7z"/>
					<path class="st0" d="M97.3,113.2c7.5-0.1,6.9,0.3,5.5,0.5c5.7-0.2,11.3-0.4,16.8-0.7C112.1,112.9,104.7,113,97.3,113.2z"/>
					<path class="st0" d="M80.9,104.4c-0.2,0.6-0.5,1.3-0.8,2c-2.2,4.2-1.5,2.8-3,5.9c1.9-3.9,2.2-4.3,2.5-4.7
						c0.3-0.4,0.6-0.8,3.3-5.5l-0.9,1.8c0,0-0.3,0.5-0.4,0.5c-1.1,2.1-0.1,0.3,1.4-1.9c1.4-2.3,3.2-5.1,3.3-4.7
						c-0.1,0.6-0.9,2-1.9,3.3l0.8-0.9l0.9-1l0.9-0.9c0.1,0.2-1.3,2-1.3,1.8c0.5-0.3,1.2-0.7,1.8-1l-0.3,0.3c1.5-1.7,4-4.2,5.2-5.2
						c-0.9,1.7-1.1,1-2.1,2.4c1-0.7,2-1.5,3-2.2c-1,1.4-2.4,2.7-3.4,3.6c-1,0.9-1.7,1.3-1.8,1.1c-4.1,5.4-3.6,4.7-2.3,3.6
						c0.6-0.5,1.4-1.2,1.7-1.3c0.3-0.1,0.2,0.4-1.1,2c-0.5,0.3-1.1,0.6-1.6,0.9c-1.4,1.6-2.6,2.9-4.1,4.6c-0.6,0.7-0.9,1.1-2.8,2.8
						c1-0.8,3.3-2.9,5.6-5.3c2.3-2.3,4.6-4.8,6.1-5.7c-0.6,0.9-0.9,1.4,1.4,0c-3.8,3.2-2.7,2.7-2.4,3l-5.1,3.8
						c1.5-0.8,4.1-2.7,6.5-4.1c-0.5,1-4.5,3.6-7.8,5.8c-0.4,0.4,1.2-0.6,3-1.8c1.8-1.2,3.9-2.6,4.3-2.4c-2.1,1.9,0,1,2.5,0.7
						c-1,0.7-1.7,0.9-2.4,1.2c-0.7,0.2-1.3,0.5-2,0.8c1.2-0.5,2.4-0.9,3.6-1.2c-0.2,0.2-1.3,0.6-1.9,0.8c0.6-0.1,1.8-0.6,2.9-1
						c1.1-0.4,2.2-0.8,2.6-0.6c2.5-0.8,0.4,0.4-1.6,1.5c-2,1.1-3.7,1.9-1.2,1.8c-1.3,0.5-2.6,0.5-4.3,0.9c1.6,0.1,2.1,0.3,2.9,0.5
						c0.7,0.2,1.6,0.2,3.8,0.8c-0.2,0.1-0.5,0.2-0.7,0.4l-0.7,0.6l-0.7,0.7c-0.2,0.1-0.4,0.2-0.6,0.3c0.7-0.3,1.5-0.4,2.4-0.5
						c0.8-0.1,1.7,0,2.6,0.1c0.9,0.1,1.8,0.3,2.7,0.5c0.9,0.3,2,0.6,2.9,0.8c0.2,0,0.3-0.1,0.5-0.1c0,0,0.3,0,0.5-0.1
						c0.2,0,0.4-0.1,0.7-0.1c0.9-0.1,1.7-0.2,2.5-0.3c1.5-0.2,2.8-0.5,3.6-0.7l1.8,0.7l2,0.6c1.3,0.5,2.6,0.8,3.9,1.2
						c-1.7,0.2-5.8-0.1-10.9-0.5c1.1,0.1,2.2,0.3,3.1,0.4c-0.9,0.1-1.9,0.1-3.2,0.1c-0.8,0-1.4,0-2,0c-0.4,0-0.7,0-1.1-0.1
						c-1.2-0.1-2.8-0.2-4.2-0.4c0.7-0.1,1.4-0.3,2.1-0.5c-1.5-0.2-3-0.4-4.4-0.5c-1.4-0.1-2.8-0.1-4-0.1c0.5,0.1,1.1,0.2,1.4,0.4
						c-0.8-0.1-1.4-0.1-1.8-0.1c-0.4,0,0.6,0.2,1.9,0.3c-1.5,0.1-3.1,0.1-4.7,0.1l2,0.1c-0.5,0.3-1.1,0.4-1.8,0.3
						c3.3,0.1,7.5,0,11.5-0.5c4.1-0.5,8.1-1.4,10.7-2.6c-2.8,0.4-4.8,0.6-6.8,0.7c-2.1,0.1-4.2,0.2-7.1,0.4c2.8,0,1.8,0.4,0.2,0.7
						c-1.6,0.4-3.7,0.7-3.6,1c-0.1-0.3-2.8-0.2-3.8-0.2c2.1-0.3,4.3-0.7,6.6-1.2c-4.7,0.3-3.2-0.1-4.9-0.2c9.2-0.5,7.4-1.5,11.4-2.2
						c-3.4,0.4-7.1,0.9-7,1.3c-3.4,0.1-0.3-0.3,3.3-0.9c3.5-0.6,7.3-1.2,4.5-0.9c-0.3,0.1,0.1,0-1.9,0.3c1.9-0.3,2.6-0.5,2.4-0.4
						c-0.2,0-1.5,0.3-3.3,0.5c-0.1,0-0.2,0-0.3,0c0.1,0.1,1.1,0.3,3.6,0.6c2.4,0.3,6.3,0.7,12,0.5c-1.4,0.1-13.1,0.7-16,0.8
						c6.5-0.2,13.3-0.2,20.2,0.1c1.7,0.1,3.5,0.2,5.2,0.3l2.6,0.2l2.1,0.2c2.8,0.3,5.5,0.6,8.3,1c-2-0.1-4.6-0.1-7.5,0
						c-1.7,0-3.4,0-5.2,0.1c-2,0-4.1,0-6,0c-8,0-15.6-0.2-18.7-0.5c-1.2,0.3-2.8,0.5,1.2,1.1c0.7-0.1,4.3-0.1,7.9-0.1
						c3.6,0,7.2,0,7.8,0.2c-5.4,0.4-6.9,0.5-8.2,0.6c-1.3,0.1-2.2,0.3-7.1,0.4c1.1-0.1,5.8,0.2,10.2,0.7c4.4,0.4,8.6,1.1,8.4,1.4
						c-2.5-0.3-16.4-1.4-18.2-1.7c5.6,0.8,11.3,1.9,17,3.2c-3.1-0.8-14-1.7-18.7-2.1c3.2,0.3,0,0.9,1.7,1.5c1.3,0.1,2.5,0.1,3.7,0.1
						c-1.1,0.5,5,1.9,11.3,3.7c6.3,1.7,12.9,3.8,12.8,5c-1.8-0.6-7.3-2.1-12.6-3.3c-5.3-1.3-10.4-2.3-11.4-2.3
						c4.5,1.3,15.2,4.5,25.9,8.4c0.7,0.2,1.3,0.5,2,0.7c0.6,0.2,1,0.4,1.4,0.6c0.9,0.4,1.8,0.8,2.7,1.2c1.7,0.8,3.4,1.6,4.9,2.3
						c3,1.5,5.3,3,6.5,4.1l-3.4-0.6c1.3,1.2,2.6,2.4,3.8,3.6c-2-1.1-4.9-2.6-8.1-4.4c-1.6-0.8-3.2-1.7-4.9-2.6
						c-0.4-0.2-0.9-0.4-1.3-0.7l-0.6-0.3c-0.1,0-0.3-0.1-0.4-0.2l-0.5-0.2c-1.3-0.6-2.6-1.1-3.9-1.7c-10.3-4.5-20.3-8.2-25.9-10.1
						c-3.9-0.6-6-1.6-5.4-0.8c-4.8-1.3-7.3-2.5-7.6-2.7c-1,0-1.9,0-2.9,0c5.2,1.8,7.9,2.9,10.3,4.1c2.4,1.2,4.6,2.4,9,4
						c-3.6-2.1-7.3-4-11-5.7c5.2,1.6,12.7,4.3,18.7,6.9c6,2.6,10.4,5.4,9.4,6.1c-2.1-0.6-6.8-2.6-11.4-4.6c-4.6-2-9.1-3.9-10.9-4.6
						c1.8,0.8,3.5,1.8,4.5,2.5c0.9,0.7,1,1.1-0.2,0.6c-1.8-1-3.7-2-5.5-3c-2-0.5,1.4,1.2,4.1,2.8c2.6,1.5,4.4,2.9-0.7,0.9
						c-0.4,0-3.8-1.5-6.3-2.6c-2.5-1.1-4.2-1.9-1.2-0.3c8.6,4.3,19.1,9.6,29.6,14.9c2.7,1.4,5.3,2.7,7.9,4c1.7,0.9,3.4,1.8,4.8,2.6
						c3,1.6,5.4,3,6.6,3.9c-0.3,0-2.5-0.1-5.2-0.4c-1.3-0.2-2.8-0.4-4.1-0.8c-1.4-0.3-2.6-0.7-3.6-1.1c-0.8-0.3-1.6-0.7-2.4-1.2
						c-1.2-0.7-2.4-1.4-3.6-2.2c-2.4-1.6-4.9-3.2-7.3-4.9c-4.9-3.3-9.7-6.3-13.7-8.4c2.7,1.6,5.8,3.8,6.7,4.6
						c-2.6-1.1-8.2-5.1-7.6-3.9c9.7,6.3-2.3,0.4,7.9,5.5c1,1.1,0.3,1-0.8,0.6c-1-0.4-2.3-1-2.6-0.7c3.1,2,8,5.6,12.1,9
						c1,0.8,2,1.7,2.9,2.5l0.6,0.6c0.2,0.2,0.3,0.3,0.4,0.4l0.7,0.7c0.9,1,1.5,1.7,1.6,2c-0.8-0.6-1.8-1.3-2.7-1.9
						c-0.4-0.3-0.9-0.6-1.3-0.9c-0.5-0.3-0.9-0.6-1.3-0.9c-1.8-0.4-3.9-1.8-5.7-3c-1.9-1.3-3.5-2.5-4.4-3.3
						c-1.6-1.3-4.5-3.5-7.9-6.2c1.1,0.9,3.4,2.6,3.1,2.4c-7.2-5.6,0,0.1-8.3-6.4c4.2,3.3,4.8,3.6,6.5,5.1c3.2,2.5,4,3.1,3.7,2.9
						c-0.9-0.7-2-1.5-2.8-2.1c1.9,1.5,3.9,3,6.6,5.2c1.6,1.2,3.5,2.7,5.8,4.5c3.6,2.7,6.5,4.9,7.9,6.3c0.3,0.3,0,0.1-0.6-0.3
						c-0.6-0.4-1.5-1.1-2.4-1.8c-1.8-1.4-3.5-2.8-2.9-2.3c-1.3-0.6-0.9-0.2,0.1,1c1,1.1,2.7,2.8,4.3,4.4c3.2,3.1,5.6,6.1,0.1,3.2
						c-4.1-2.7-7.4-5.7-10.3-8.5c-2.9-2.8-5.5-5.3-8-7.4c-0.2-0.6,0.2-0.5,0.8-0.3c0.6,0.3,1.5,0.8,2.5,1.4c1.9,1.2,4,2.6,4.4,2.6
						c-1.5-0.9-3-2-4.5-2.9c-1.7-1.8-2.2-2.7,0.3-1c-0.9-0.6-1.7-1.2-2.3-1.6c-0.6-0.3-1.1-0.6-1.6-0.9c-1-0.5-2-0.7-3-0.9
						c-2-0.3-4.3-0.5-7.2-1.8c0.3,0.7,0.6,1.4,1,2.1c0.1,0.2,0.2,0.4,0.3,0.5c0.1,0.2,0.2,0.3,0.5,0.7c0.5,0.6,1.1,1.3,1.8,1.9
						l0.2-1.1c2.9,2.6,4.2,4.5,5,6.1c0.9,1.6,1.4,2.9,3.3,3.9c0.9,2.1,1.9,4.8,2,6.7c0.2,1.9-0.9,3-3.6,1.7c-2-2.6-4-5.1-6-7.7
						c0.8,1.1,2.1,2.2,3,2.7c1,0.5,1.6,0.3,1.1-1c0.7,1.9-2.4-0.5-4.6-2.1c-2.3-1.6-3.6-2.2-1.2,2.9c1.7,1.7,3.6,3.3,5.5,5
						c0.1,1.1,0.2,2.4,0.3,3.7c0,0.7,0.1,1.4,0.1,2c0,0.3,0,0.6,0,1l0,0.2c0,0.1,0,0.2,0,0.1l-0.2-0.1c-0.4-0.4-1.1-1.4-2.1-2.8
						c-0.5-0.8-1.1-1.6-1.6-2.4l-1-1.4l-0.1-0.2l-0.1-0.1l0,0l0,0l-0.1-0.1c0.4,0.5,0.7,0.9,0.9,1.3c0.4,0.5,0.6,1,0.9,1.3
						c0.4,0.5,0.6,0.9,0.8,1.3c0.3,0.5,0.6,1,1.2,1.9c0.7,1.1,1.9,2.9,4,6.4c-1.1-1.8-1.5-2.4-2-3.2c-0.2-0.4-0.1-0.2,0.2,0.3
						c0.4,0.7,1,1.5,1.6,2.4c0.2,0.3,0.3,0.5,0.5,0.8l0.1,0.2l0.1,0.1c0,0,0,0,0.1,0l0.2,0c0.3,0,0.6,0,0.9,0c1.1,0,2.3-0.1,2.3-0.8
						c0.1-0.8-0.9-2.3-3.6-5.1c2.3,2.6,4,4.1,5.3,5.1c1.3,0.9,2.3,1.4,3.2,1.7c1,0.4,1.9,0.7,3.3,1.4c0.7,0.4,1.5,0.8,2.5,1.5
						c1,0.6,2,1.4,3.4,2.4c-2.2-2.5-5.1-4.6-1.1-4.1c-0.5-0.8-1-1.8-1.2-2.4c0.1,0,0.2,0.1,0.4,0.1c-0.1-0.1-0.3-0.2-0.4-0.3
						c-0.2-0.4-0.3-0.5-0.1-0.1c-1.6-0.9-3.2-2.1-4.6-3.5c-1.7-3.1-1.6-4.8-1.4-6.3c0.2-1.4,0.7-2.4-0.2-4c1.1,0.4,1.7,1.1,2.4,2.1
						c0.7,0.9,1.4,2.1,3,3.3c-0.9-1.6-1.8-3.2-2.7-4.8c2.7,2.6,5.7,4.5,8.1,6.3c2.4,1.7,4.2,3.3,4.2,5.4l2.7-0.9
						c2.2,1.1,4.1,1.7,5.2,1.7c1,0.1,1.3-0.5,0.6-1.7c0.5,0.2,0.5-0.2,0.3-0.6c-0.3-0.4-0.8-1.1-1.2-1.6c-0.9-1-1.5-1.7,0.4,0.2
						l-0.7-1.8c-0.2-0.6-0.6-1-0.9-1.5l1.4,1.1c0.3,0,0.4,0,0.4-0.2c0-0.1-0.2-0.3-0.3-0.5c-0.4-0.4-0.8-1-1.1-1.1
						c-0.6-0.4,0,0.3,4.6,3.9c-0.9-0.7-2-1.5,0-0.5l3.9,2.9c-0.4-0.5,1,0,2.2,0.2c0.3,0,0.5,0.1,0.8,0c0.2,0,0.4-0.1,0.4-0.2
						c0.1-0.2-0.1-0.7-0.9-1.4c2.7,1.6,4.4,2.2,5.7,2.1c1.2,0,1.9-0.7,2.4-1.7c0.2-0.5,0.4-1,0.6-1.5c0.1-0.6,0.3-1.1,0.4-1.6
						c0.3-1,0.7-1.9,1.6-2.3l-4.7-2.8c1.2-1.6,1.1-3.9,0-7.2l-4.4-2c-1.3-1.7-0.2-2.6,1.4-3.4c1.6-0.8,3.4-1.7,3.5-3.3
						c1.7,0.9,1.1,1.5-0.1,1.6c2.7,0.1,3.8-0.5,3.8-1.6c0-1.1-0.9-2.4-2-3.7c-2.1-2.7-5-5.2-1.1-5.8c-1.9-1.3-1.3-1.7-0.1-2
						c0,0.1,0.1,0.2,0.3,0.3c0.1-0.1,0.1-0.2,0-0.3c0.8-0.2,1.7-0.3,2.4-0.6c-1.1,0.1-2.1,0.2-2.5,0.4c-0.1-0.3-0.3-0.8-0.7-1.3
						c-0.4-0.5-0.8-1.1-1.5-1.7l5.2,0.7c-0.1-0.1-0.1-0.2-0.2-0.3c1.8-0.6-2.7-1.3-6.6-1.6c-1-0.7-2.1-1.3-3.5-1.9
						c4.1,0.4,3.4-0.4,2.6-1.1c-0.4-0.4-0.8-0.8-0.6-1c0.3-0.3,1.2-0.4,3.5-0.4c-2.3-0.6-3.5-2-5.4-3.3c-0.5-0.3-1-0.7-1.5-1
						c-0.5-0.3-1.1-0.6-1.8-0.9c-1.4-0.5-3.2-1-5.6-1.3c1.2,0.1,1.7-0.1,1.9,0.3c0.7-0.9,1.3-1.8-1.7-2.7l6.4-0.2
						c-3.3-0.8-6.5-1.5-9.9-2.1c3.3-1.1,5.4-1.7,11-0.5c-4.6-1.5-5.7-1.9-6.7-2.4c-1-0.4-2.1-0.9-6.6-1.5l4.3-0.2
						c-0.3-0.3-2.2-0.6-3.6-0.9c-1.4-0.3-2.3-0.5-0.6-0.8c0.9-0.3,1.4-0.5,1.7-0.8c0,0,0.1-0.1,0.1-0.1l0-0.1l0,0l0,0
						c0,0-0.1,0-0.1,0l-0.6,0.1c-1.8,0.1-3.6,0.3-5.5,0.5c-2,0.2-4.1,0.3-6.2,0.5c-1.1,0.1-2.2,0.2-3.3,0.3l-0.1-0.1
						c-0.5-0.4-1.2-0.7-1.9-0.7c-0.7,0-1.4,0.3-1.9,1l0,0c0,0-0.2,0,0.4,0l2.3-0.2c1.6-0.1,3.1-0.3,4.7-0.4c3.2-0.3,6.4-0.5,9.5-0.8
						l0.6-0.1l0.3,0c0,0,0,0,0,0l0,0l0.1,0.1l0.2,0.2c0.1,0.1,0.3,0.2,0.4,0.4c0.7,0.5,1.6,1,2.9,1.6c-4.2,0.1-5.8,0.2-6.1,0.4
						c-0.3,0.2,0.7,0.4,1.9,0.7c2.3,0.6,5.3,1.4-1.6,1.7c4.1,0.1,6.6,0.9,10.3-0.1c-1.1,0.8-1,1.4-0.6,2c0.2,0.6,0.8,1.1,1.3,1.5
						c0.4,0.5,0.6,0.8-0.2,1.2c-0.4,0.2-1,0.2-1.9,0.3c-0.5,0-1,0.1-1.6,0.1c-0.6,0-1.4,0-2.3,0c2.3,0.2,4.2,0.2,5.7,0.2
						c1.6,0.1,2.8,0,4.2,0.2c-0.5,0-1.7,0-2.3,0.1c-0.3,0-0.5,0-0.4,0.1c0.1,0,0.4,0,1.1,0.1c1.4,0.1,2.5,0.1,3.4,0.2
						c1,0,1.9,0,3-0.1c-0.2,0.1-0.6,0.2-1.2,0.1c-0.6-0.1-1.3-0.1-2.3-0.2c-1.9-0.3-4.3-0.6-7.3-0.8c-6.1-0.7-13.6-1-20.8-1.3
						c0.7-0.1,1.3-0.2,1.8-0.3c0.5-0.1,0.9-0.3,1.2-0.4c0.5-0.3,0.7-0.5,0.2-0.8c-1-0.6-3.9-1.2-8.8-1.7c2.2-0.4,4.3-1,6.2-1.2
						c1.9-0.2,3.7,0.1,5.1,1.5c0-0.2,0.1-0.5,0.1-0.9c0-0.2,0.1-0.4,0.1-0.6c0-0.2,0-0.5,0-0.8c0-0.3,0-0.6-0.1-0.9l0-0.2l0-0.1
						c0,0-0.1,0-0.2,0l-0.3,0l-0.5,0c-1.4,0.1-2.8,0.2-4.2,0.2c-2.9,0.2-5.9,0.3-8.8,0.5l-4.5,0.3l-0.6,0c-0.2,0-0.5,0-0.4,0l0-0.1
						l0-0.2c0.2-0.8,0.2-1.6-0.1-2.1c-0.3-0.5-0.6-0.8-1.5-0.7c0.5-0.2,0.8-0.6,0.8-1c0-0.4-0.3-0.6-0.4-0.7
						c0.3-1.1,0.4-1.7,0.6-2.3c0.2-0.3,0.3-0.6,0.4-1c0.2-0.4,0.2-0.7,0.1-1.2l-0.6,0.7c-2,0.3-2.2,0-1.8-0.5c0.3-0.5,1-1.3,1.2-1.9
						l0.4-0.1c0.2-0.3,0.5-0.5,0.7-0.7c0.1-0.2,0.3-0.4,0.3-0.5c0.2-0.3,0.2-0.5,0.3-0.7c0.2-0.4,0.1-0.5,0-0.6
						c-0.1-0.1-0.1-0.3,0.1-0.6c0.1-0.2,0.2-0.4,0.4-0.8c0.1-0.2,0.2-0.4,0.3-0.6c0.2-0.2,0.3-0.5,0.5-0.8l-2,1.2
						c-2.1,0.9-1.1-0.2-0.3-1.6c0.5-0.7,1-1.5,1.3-2.3c0.1-0.2,0.2-0.4,0.2-0.5c0-0.2,0-0.3,0-0.4c0-0.3-0.1-0.5-0.4-0.6
						c-0.3,0.4-0.6,0.9-0.9,1.3c-0.3-0.1-0.2-0.5,0.1-1.1c0.4-0.6,1-1.5,1.6-2.3l0.5-0.7c0.1-0.2,0.3-0.4,0.4-0.6
						c0.3-0.4,0.5-0.8,0.7-1.2c0.4-0.7,0.6-1.3,0.5-1.7c0.1-0.4,0.7,0,1.1,0.2c0-2-0.5-1.7-1.2-1.2c-0.7,0.6-1.7,1.5-2.4,0.5
						c0.4-0.6,1.1-1,1.6-1.4c0.5-0.4,1-1,0.4-1.6c0.1-0.3-0.4-0.5-0.9-0.8c-0.3-0.1-0.6-0.3-0.9-0.4l-0.2-0.1l-0.3-0.1
						c-0.2,0-0.4-0.1-0.6-0.1c-1.7-0.3-3-1.1-3.4-2.3c-0.1,0.9-0.3,1.7-1.8,1.8c-0.5-0.1-0.8-0.4-1.1-0.8c-0.3-0.5-0.6-0.7-1-1
						c-0.3-0.3-0.7-0.6-1.1-0.6c-0.2,0-0.5,0-0.8,0.2c-0.3,0.2-0.6,0.4-1,0.8c0-0.2,0-0.4,0.2-0.6c-0.7,0.3-1.7,0.8-2.7,1.4
						c-0.5,0.3-0.9,0.7-1.4,1.1c-0.4,0.4-0.9,0.9-1.3,1.4c1.5-2.9-0.1-1.8-1.7-0.1c-0.4,0.5-0.8,0.9-1.2,1.4
						c-0.3,0.4-0.6,0.6-0.8,0.8c-0.3,0.2-0.2-0.3,0.7-2.2c-0.4,0.2-0.9,0.8-1.3,1.1l-0.6,0.5l-0.7,0.5l0.5-0.9
						c-0.3,0-0.9,0.4-1.3,0.8c-0.4,0.4-1,0.9-1.4,1.4c-0.9,1.1-1.8,2.4-2.5,3.7c-0.4-0.2,0.3-1.3,0.5-1.8c-0.9,0.2-1.6,0.4-2.4,0.8
						c-0.7,0.4-1.4,0.9-2.1,1.6c-0.7,0.6-1.3,1.4-2,2.4c-0.3,0.5-0.7,0.9-1.1,1.5c-0.2,0.3-0.4,0.5-0.6,0.8
						c-0.2,0.2-0.4,0.4-0.6,0.7c-0.1-0.6-0.2-1.1-0.3-1.7c-0.1,0.1-0.1,0.2-0.2,0.2c0,0-0.1,0.1-0.2,0.1c-0.1,0-0.1,0-0.1-0.1
						c-0.1-0.2-0.2-0.4-0.3-0.7c0-0.1-0.1-0.2-0.1-0.3c0-0.1,0-0.1,0-0.2c0,0.1,0,0.2,0,0.3c-0.1,0.3-0.1,0.3-0.1,0.4l0,0.1l0,0l0,0
						c-0.6,1.6,0.9-2.2,0.7-1.8l0-0.1l0.1-0.1l0.5-0.8l1-1.6c0.7-1.1,1.3-2.2,2-3.3c2.7-4.6,5.5-9.3,8.4-14c0.7-1.2,1.5-2.4,2.2-3.6
						l0.3-0.5c0.1-0.1,0.2-0.4,0.2-0.3l-0.1-0.1L91,64.5c-0.3-0.1-0.6-0.3-0.9-0.4c-0.6-0.2-1.2-0.4-1.9-0.5
						c-2.4-0.6-5.2-0.2-7.4,1.6c0.4-0.9,1-2.3,2-3.3c-0.7,0.5-1.3,0.8-1.8,0.9c-0.3,0.1-0.5,0.1-0.7,0.1c-0.2,0-0.4,0-0.6,0
						s-0.4-0.1-0.5-0.2c-0.1-0.1-0.2-0.2-0.4-0.3c-0.2-0.3-0.5-0.6-0.6-1c-0.6-1.6-0.4-4-0.2-5.7c0.5-3.5,1.4-4.2-1.3,7.3
						c-0.1,0.8-0.1,1.5-0.2,2.2l-0.1,2.1c-1.1,1.8-1.7,4.3-2.3,6.8c-0.5,2.5-1.1,5-1.9,7.5c0.1,0.1,1-2.2,1.8-4.5
						c0.9-2.3,1.6-4.6,1.3-4.7l-0.5,1.3c0.7-2.8,1.3-4.7,1.8-5.9c0.5-1.2,1-1.9,1.4-2.4c0.9-1.1,1.8-1.7,3-5.4
						c2.3-1,5.1-3.6,6.8-6.2c0.9-1.3,1.4-2.6,1.5-3.7l0-0.4l0-0.2c0-0.1,0-0.1-0.1-0.2c-0.5-0.1-0.9-0.2-1.4-0.3
						c-0.9-0.1-1.8-0.2-2.7-0.2c-0.4,2.1-0.9,4.2-1.4,6.2c-0.7,0-1.5-0.1-2.2-0.1c-0.1-1.4,0.7-4.9,2.4-4.8c0.1-1.8-0.9-0.9-1.9,0.5
						c-1,1.5-2.1,3.6-2.3,4.4c-1.1-1-0.4-3,0.6-4.7c1-1.7,2.3-3.1,1.8-3.1l-1.5,0.7l0.1,0.7c-1.8,2.9-2.6,5.8-4.3,6
						c-0.8-1.1,0.3-4.1-0.1-4.3c0.1-0.5,0-0.7-0.7-0.1c-0.9-0.2-1.8,0-2.8,0.2c0.1,1.8,0.2,3.5,0.3,5.3c-1.6,3.3-2.5,0.8-2.2,6.8
						c0-1.2-0.2-2-0.5-2.6c-0.3-0.6-0.7-1.1-1.2-1.3c-0.5-0.2-1.1-0.1-1.7-0.1c-0.6,0-1.3,0.2-2,0.5c-0.7,0.2-1.4,0.7-2.1,1.1
						c-0.7,0.3-1.4,0.6-2,0.9c-1.2,0.5-2.2,0.7-2.6,0.1l-0.3,0.9l-0.2,0.4l-0.1,0.2l0,0.1l-0.1,0.3l-0.2,1l-0.1,0.5l-0.1,0.2l0,0.1
						l0,0.4c0,0.5-0.1,0.9-0.2,1.1c-0.1,0.2-0.2,0.3-0.3,0.3c-0.1,0-0.2,0-0.2-0.1c-0.1,1-0.3,6.6-1.2,5.8c0.6-2.8,0.8-4.5,1.1-5.6
						c0-0.1,0.1-0.2,0.1-0.4c0,0,0,0.1,0,0.1c0,0.1-0.1,0.2-0.1,0.4c-0.1,0.3-0.2,0.6-0.2,0.9c-0.1,0.3-0.2,0.6-0.4,0.9
						c-0.1,0.3-0.2,0.5-0.4,0.8c-0.1,0.1-0.2,0.2-0.2,0.4c0,0.1-0.1,0.2-0.1,0.3c-0.1,0.2-0.2,0.3-0.3,0.4c0.2-0.2,0.1-0.1-0.1,0.1
						c0,0.1-0.1,0.2-0.2,0.3c0,0-0.1,0.1-0.2,0.1c0,0,0,0,0,0l0,0c0,0-0.1,0.1,0,0c0.1,0,0.1-0.1,0.2-0.1c0.1,0,0.1,0-0.1,0
						c0.5-0.2,0.2-0.1,0.5-0.2c0.2,0,0.3-0.1,0.5-0.1l0.1,0l0,0l0,0l0,0c0.1,0-0.6,0.1-0.3,0.1l0,0l0,0l0.1,0l0.1,0
						c0.1,0,0.2,0,0.2,0c0,0,0.2,0,0.3,0c0.1,0,0.3,0,0.4,0c0.3,0,0.5,0.1,0.7,0.1c0.4,0.1,0.9,0.2,1.4,0.3c0.2,0.1,0.5,0.1,0.7,0.2
						l0.3,0.1l0.2,0.1l0.3,0.1c0.8,0.2,1.5,0.5,2.3,0.8c0.5,0.2,0.4,0.2,0.4,0.2c0,0,0.1,0,0.1,0l0.3,0l0.1,0c0.1,0,0.1-0.1,0.2-0.1
						c0.1-0.1,0.2-0.1,0.3-0.2c0.1-0.1,0.2-0.2,0.3-0.4c0.1-0.2,0.2-0.3,0.3-0.5c0.2-0.4,0.3-0.9,0.4-1.5c-1-0.7-3-1.1-4.2-2.9
						c1.1,0.2,2.1,0.3,3.2,0.4c1.1,0.1,2.2,0.1,3.2,0.1c-0.1-0.7-1.5-1.9-2.4-2.8c-0.4-0.5-0.7-0.9-0.6-1.2c0.1-0.3,0.6-0.6,1.7-1
						c-1,0.1-2.6,0-2.7-1.1c0.3-0.3,0.5-0.7,0.7-1c0.2-0.4,0.4-0.9,0.6-1.3c0.2-0.5,0.4-0.9,0.5-1.5c0.1-0.6,0.2-1.1,0.3-1.7
						c0-0.3,0.1-0.6,0.1-0.9c0-0.3,0-0.6,0-0.9c0-0.6-0.1-1.2-0.2-1.9c-0.2-1.2-0.7-2.4-1.2-3.5l-6.2-13.8l-9.2,9.5
						c-2.2,2.2-3.8,5.3-5.9,7.7c-1,1.2-2.2,2.3-3.4,3.2c-1.2,0.9-2.6,1.6-4,2.3c1.2-0.1,0.9,0.6,0.4,1.4c0.5-0.3,0.8,1.1,1.2,1.6
						c-1.1,0.3-2.2,0.8-3.1,1.4c0.3,0.9-0.3,1.7-0.8,2.5c-0.5,0.8-1,1.5-0.8,2c0.2-0.3,0.4-0.7,0.6-1c-0.1,1.1,0.6,1.2,1.5,1.4
						c1,0.2,2.2,0.7,2.7,1.6c0.2-1,1.6-1,3.1-0.7c0.8,0.1,1.6,0.2,2.3,0c0.7-0.2,1.1-0.6,1.1-1.7c1,0.4,0.2,1,0.9,1.6
						c-0.2-1.3,0.4-2,2.2-1.9l0.1,0.4c1.9-0.9,3.5-1.2,5.3-1.2c1.8-0.1,3.9,0.1,6.6-0.1l-1.9-2c1.1-0.1,1.8,0.5,2.7,0.9
						c-1.3-3.8-2.8,0.9-4.4-3.1c2.1,1.9,3.8,1.3,5.5,0.7l-11.9-6c0.1-0.1,0.3-0.2,0.5-0.2c-0.2,0-0.3,0-0.4,0c-0.4,0-0.8,0-1.1-0.1
						c-0.1,0-0.1,0-0.2,0c-0.1,0-0.1,0-0.2,0c-0.2,0-0.3-0.1-0.5-0.1c-1.6-0.4-1.3-0.4-1.1-0.3c0.1,0,0.2,0.1,0.1,0
						c-0.1,0-0.2-0.1-0.4-0.1c-0.2-0.1-0.3-0.1-1.1-0.4c-0.5-0.1-0.9-0.3-1.4-0.5l-0.3-0.1l-0.2-0.1c0,0-0.2-0.1,0,0l1.2,0.5
						c-0.1-0.1-0.4-0.1-0.8-0.2c-0.4-0.1-0.8-0.3-1.2-0.4c-0.9-0.4-1.9-0.9-2.6-1.3c0.1,0.1,0,0-0.1-0.1c-0.1,0-0.1-0.1-0.2-0.1
						l-0.1,0l0,0c0.1,0,0.2,0.1,0.2,0.1c-0.3-0.1-0.6-0.3-1-0.4c-0.2-0.1-0.2-0.2-0.4-0.1c-0.2,0.1-0.2,0.2-0.3,0.4
						c-0.1,0.3-0.1,0.6-0.1,0.9c0,0.2-0.2,0.5-0.4,0.4c0.8-0.2,1.4-0.1,2-0.2c0,0.2-0.1,0.4-0.2,0.6c-0.1,0.2-0.2,0.5-0.4,0.7
						c-0.1,0.2-0.3,0.5-0.5,0.7c-0.2,0.3-0.4,0.6-0.6,0.9l-0.3,0.4l-0.4,0.5l-0.8,1.1c-0.3,0.4-0.6,0.9-0.8,1.4
						c-0.3,0.5-0.5,0.9-0.8,1.5c-0.3,0.6-0.5,1.2-0.8,1.8c-0.2,0.6-0.5,1.4-0.7,2.2c-0.1,0.4-0.2,0.7-0.3,1.1
						c-0.1,0.4-0.1,0.8-0.2,1.3c-0.1,0.9-0.1,1.7-0.1,2.6c0.2,3.7,1.4,7.2,3.9,9.9c0.4-0.6,0.8-1.1,1.3-1.7c1.6,1.9,2.8,3,3.5,4.1
						c0.7,1,1.2,1.8,1.6,2.8c0.8,1.7,2.2,4.2,6.4,5l-0.4,0.3c1.1-0.6,2.2-0.9,3.1-1.2c0.5-0.1,0.9-0.1,1.4-0.1c0.4,0,0.9,0,1.3,0.2
						c-1,1-0.4,2.2,0.3,3.4c0.3,0.6,0.7,1.2,0.8,1.8c0.1,0.6,0,1.2-0.8,1.7c2-0.7,3.1-1.3,3.8-1.9c0.7-0.6,1-1.1,1.2-1.7
						c0.2-0.6,0.4-1.3,0.6-2.3c0.1-0.5,0.3-1.1,0.5-1.8c0.1-0.3,0.2-0.7,0.3-1.1c0.1-0.2,0.1-0.4,0.2-0.6l0-0.2l0-0.2
						c0-0.1,0-0.2,0-0.3c0.1,1.1,0.4,2.1,0.6,3.1c0.2-3,0.1-4.5,1.3-5.8c-0.4,1.6-0.2,2.8,0.1,4.1c0.2,1.3,0.4,2.7,0.1,4.7
						c0.6,1.6,0.9,1.9,1.2,1.6c0.3-0.3,0.6-1.3,0.9-2.2c0.5-1.8,1.2-3.2,0.9,2.3c1.9-10.5-1-4.4-0.3-6.9c-0.1-1.4,0.2-3.3,0.6-4.9
						c0.5-1.5,1.1-2.7,1.4-2.5c0.4-0.2,0.3,2.8,0.2,5.8c-0.1,3-0.3,5.9,0.3,5.5c-0.1,0-0.3,0.8-0.4,0.9c-0.1,1.2,0.3,0.2,0.7-0.7
						c0.4-0.9,0.8-1.5,0.5,0.6c1-3.4,1.2-3.5,1.4-3.7c0.2-0.2,0.4-0.7,1.8-5c-0.7,0.9-1.4,1.8-2,2.7c0.6-1.3,1.8-4.6,3.1-7.1
						c1.2-2.5,2.4-4.1,2.5-1.8c-0.8,1.8-2,4.3-2.8,5.7c-0.2,1.2,0.1,0.7,0.5,0.2c0.4-0.5,0.7-1,0.5,0.3c-1.7,4.5-2.2,5-2.8,5.4
						c-0.5,0.4-1.1,0.6-2.3,4c-0.3,1.8,0.3,0,0.8-0.9c0.5-1,0.7-1.2-0.9,3.7c2-6.1,2.3-5.9,2.4-5.2c0.1,0.7,0,1.7,2.4-3l-2.2,5.4
						c0.6-1,1.5-3.1,1.4-2.7L70.3,96c1.2-2.7,0.6-1.1-0.2,0.7c-0.7,1.8-1.6,3.8-1.1,2.5c0.2-0.3,0.8-1.9,1.6-3.9
						c0.6-1.4,0.6-1.4,2.7-6.5c0.5-1.2,0.4-0.9-0.1,0.2c-0.8,1.9-1.4,3.3-2.1,4.8c-0.6,1.5-1.3,3.1-2.3,5.4c-0.6,1.4-1,2.3-1,2
						c-0.1,0.3,0.3-0.5,0.7-1.6c0.5-1.1,1.1-2.5,1.4-3.4c-0.6,1.2-1.5,3.2-2.4,5.5c-0.1-0.2,0.3-1.2,0.9-2.6
						c0.5-1.4,1.3-3.1,1.6-4.2c-1.1,2.7-1,2.3-0.6,1.1c0.4-1.2,1-3.2,1-3.7l-1.4,4c-1.7,3.6,2.3-7.9,0.3-3.5
						c-0.3,1.5-0.7,3.1-1.1,4.7c0-0.3,0-0.5,0-0.8l-1.1,4.1c0.5-2.6,0.1-1.5-0.4,0.1c0.3-1.2,0.7-2.7,0.9-3.8
						c0.2-1.1,0.4-1.7,0.2-1.3c-0.5,1.9,0.2-0.6-0.8,3.2c-0.4,1.5-0.9,3.8-0.1,0.6c-0.2,0.7-0.5,2.1-0.7,2.8c-0.1,0.5-0.3,1-0.4,1.5
						c0,0,0.1-0.2,0-0.1c0-0.2,0.1-0.4,0.2-0.9c0.3-1,0.5-1.8,0.9-2.5c-0.2,1.2-0.5,1.7-0.7,2.3c0.1,0,0.4-1,0.6-0.8
						c-0.6,1.8-1.2,3.7-1.5,4.4c0.2-0.5,0.5-1,0.9-1.3c-0.2,0.9-0.6,2.3-0.9,2.9c-0.1,0.3,0,0.3,0.2,0.1c0.1-0.1,0.2-0.2,0.3-0.3
						l0.2-0.2c0,0,0.1,0,0.2,0l0.3,0l0.6,0.1c0.8,0.1,1.5,0.2,2.3,0.2c0.8,0,1.6,0,2.4,0.1c0.8,0,1.5,0,2.2,0l1,0.1
						c0.2,0,0.5,0,0.7,0.1c0.1-0.2,0.3-0.3,0.5-0.5c0.1-0.1,0.2-0.2,0.4-0.2c0.2-0.1,0.2-0.1,0.2-0.2c0.3,0.1,0.6,0.6,0.8,0.8
						c0.2,0.2,0.4,0,1.1-1.4c-0.2,1-0.5,2-0.8,3.1c0.2-0.5,0.6-1.5,1-2.6c0.3-1.1,0.7-2.1,1.4-3.2c1.2-1.8-1,2.8-1.3,3.7
						c0.5-1,1.3-2.6,1.9-3.7c0.6-1.1,1.1-1.7,0.4-0.2C81,104.4,81.1,103.9,80.9,104.4z M89.6,100.5c-0.9,0.5-3.4,2.6-1.4,0.4
						C92.4,97,90.7,99.1,89.6,100.5z M98.1,115.2c-1.4-0.1-1.2-0.1-0.2-0.3C98.4,115.1,98.7,115.2,98.1,115.2z M136.4,166.9
						c-0.1-0.1-0.1-0.2-0.2-0.3c1.7,0.8,2.2,1.1,2.1,1C138.1,167.6,137.4,167.2,136.4,166.9z M131.4,165.5c0.6,0.9,1.4,1.6,2.3,2.4
						c-1.3-1.5-0.9-1.8,0.2-1.6C132.2,164.9,130.8,164,131.4,165.5z M75.9,52l0.2,1.1C74.8,54.7,75.3,53.4,75.9,52z"/>
					<path class="st0" d="M91.4,113.8c0.5-0.1,1.1-0.1,1.7-0.1C92.5,113.6,91.9,113.6,91.4,113.8z"/>
					<path class="st0" d="M76,107.9c0,0-0.1,0-0.1,0c-0.1,0.1-0.1,0.2-0.1,0.4L76,107.9z"/>
					<path class="st0" d="M104.6,130.8c1.2,0.5,2.5,1.1,3.9,1.9C106.8,131.6,105.2,130.8,104.6,130.8z"/>
					<path class="st0" d="M118.8,180.6c0.8-0.6,1.6-1,2.3-1.7c-1.4,0.4-2.8-1-4.2-1.9C117.9,178.5,119.8,180.5,118.8,180.6z"/>
					<path class="st0" d="M86.8,150.4c0.3,0.4-0.2,0.4,0.1,0.8l1.6,0.9C88.8,151.5,87.9,150.2,86.8,150.4z"/>
					<path class="st0" d="M104.1,160.7c-3.2-5.4-3.5-4.8-4.9-6c0.1,0.1,0.2,0.2,0.3,0.3c0.7,1.1,1.2,1.9,1.7,2.6
						c0.5,0.7,0.9,1.3,1.3,1.8C103.2,160.3,103.7,160.7,104.1,160.7z"/>
					<path class="st0" d="M98.8,154.3l-0.3-0.3l-0.2-0.2c-0.1-0.1,0,0-0.1,0c0,0.1-0.1,0.1-0.2,0c0.6,0.8,0.7,0.9,0.6,0.7
						c0-0.1-0.1-0.3-0.2-0.5C98.5,154.1,98.7,154.2,98.8,154.3z"/>
					<path class="st0" d="M130.9,170.1c-1.9-1,5.5,6.4,3.1,4.6c1.3,1.7,1.8,1.9,1.8,1.4c0.1-0.5-0.4-1.8-1.1-3
						C133.2,170.5,131.1,167.8,130.9,170.1z"/>
					<path class="st0" d="M93.8,144.4c1.2,1.8,2.4,3.6,3.7,5.6l-2.3-4.8C94.7,144.9,94.2,144.6,93.8,144.4z"/>
					<path class="st0" d="M104.2,146.5c-1-0.4-2-0.9-3-1.4c0.9,1.1,1.2,1.7,1.3,2.3C103.7,147.3,105.9,148.3,104.2,146.5z"/>
					<path class="st0" d="M102.5,147.4c-0.6,0-1,0.3-0.6,1.5C102.2,148.7,102.7,148.3,102.5,147.4z"/>
					<path class="st0" d="M94.8,142.4l0.9,0.6c0.4,0,0.7-0.1,1.1-0.1C96.1,142.6,95.4,142.5,94.8,142.4z"/>
					<path class="st0" d="M120.7,148.3l-0.5-0.5c-1.8-1.4-3.4-2.6-3.1-2.3C118.2,146.3,118.5,146.7,120.7,148.3z"/>
					<path class="st0" d="M102.9,135.5c1.2,0.9,2.2,1.7,3.9,2.9l-5.5-4.5L102.9,135.5z"/>
					<path class="st0" d="M104.7,135.8c-1.6-1.2-3.7-3.1-4.3-3.4C102,133.7,102.4,134.2,104.7,135.8z"/>
					<path class="st0" d="M130.9,144c0,0.1-0.1,0.2-0.1,0.4l11,6.1l-4.7-2.8l-2.4-1.4L130.9,144z"/>
					<path class="st0" d="M94.5,117.7c-3.6-0.3,9.6,2.2,5.1,1.8c3.7,1.1,3.6,0.3,6.9,1.2C102.4,119.4,104.6,119.6,94.5,117.7z"/>
					<path class="st0" d="M106.5,120.8c0.8,0.3,1.6,0.5,2.4,0.8C107.9,121.2,107.1,120.9,106.5,120.8z"/>
					<path class="st0" d="M31.9,63.3c-0.3,0.3-0.5,0.6-0.8,1c0.2-0.1,0.4-0.3,0.7-0.4L31.9,63.3z"/>
					<path class="st0" d="M31.4,66.5c-0.2-0.1-0.4-0.3-0.6-0.4c0,0.5,0,0.9,0,1.3C30.9,67.2,31.2,66.6,31.4,66.5z"/>
					<path class="st0" d="M79.9,110l1.2-1c1.3-1.1,1.4-1.2,1.6-1.5C81.8,108.4,80.8,109.2,79.9,110z"/>
					<polygon class="st0" points="80.9,105.9 80.9,106 83.5,101.7 					"/>
					<path class="st0" d="M77.2,111.7c0,0.1,0.3-0.6,0.2-0.5C77.2,111.8,78.7,108.1,77.2,111.7z"/>
				</g>
			</g>
		</g>
	</g>
	<g>
		<path class="st1" d="M128.2,129.6H70.2l-14.2,14.2c-1.5,1.5-4,1.5-5.4-0.1c-1.5-1.5-1.5-3.8,0-5.3l8.7-8.7h-29
			c-2.1,0-3.8-1.7-3.8-3.8V41.6c0-2.1,1.7-3.8,3.8-3.8l0,0H168c2.1,0,3.8,1.7,3.8,3.8v84.1c0,2.1-1.7,3.8-3.8,3.8h-29l8.7,8.8
			c1.5,1.5,1.5,4-0.1,5.4c-1.5,1.5-3.8,1.5-5.3,0L128.2,129.6z M34.2,45.4v76.5h130V45.4H34.2z M26.5,186.9v7.6
			c0,2.1-1.7,3.8-3.8,3.8s-3.8-1.7-3.8-3.8l0,0v-34.3c0-6.3,5.1-11.5,11.5-11.5l0,0H168c6.3,0,11.5,5.1,11.5,11.5v34.4
			c0,2.1-1.7,3.8-3.8,3.8s-3.8-1.7-3.8-3.8v-7.7H26.5z M26.5,179.3h145.3v-19.1c0-2.1-1.7-3.8-3.8-3.8H30.4c-2.1,0-3.8,1.7-3.8,3.8
			C26.5,160.2,26.5,179.3,26.5,179.3z M91.6,171.6c-2.1,0-3.8-1.7-3.8-3.8s1.7-3.8,3.8-3.8l0,0h15.3c2.1,0,3.8,1.7,3.8,3.8
			c0,2.1-1.7,3.8-3.8,3.8C106.8,171.6,91.6,171.6,91.6,171.6z M48.4,67.3c-1.5,1.5-3.9,1.5-5.4,0.1c-1.5-1.5-1.5-3.9-0.1-5.4
			l0.1-0.1l7.6-7.6c1.5-1.5,4-1.5,5.4,0.1c1.5,1.5,1.5,3.8,0,5.3L48.4,67.3z M48.4,90.2c-1.5,1.5-3.9,1.5-5.4,0.1
			c-1.5-1.5-1.5-3.9-0.1-5.4l0.1-0.1l30.6-30.6c1.5-1.5,4-1.5,5.4,0.1c1.5,1.5,1.5,3.8,0,5.3L48.4,90.2z"/>
	</g>
</g>
</svg>
