<?xml version="1.0" encoding="utf-8"?>
<!-- Generator: Adobe Illustrator 24.0.2, SVG Export Plug-In . SVG Version: 6.00 Build 0)  -->
<svg version="1.1" id="Layer_1" xmlns="http://www.w3.org/2000/svg" xmlns:xlink="http://www.w3.org/1999/xlink" x="0px" y="0px"
	 viewBox="0 0 198.4 198.4" style="enable-background:new 0 0 198.4 198.4;" xml:space="preserve">
<style type="text/css">
	.st0{fill:#E0C0C3;}
	.st1{fill:#646565;}
</style>
<g>
	<g>
		<g>
			<g>
				<g>
					<path class="st0" d="M90.8,70.2c0,0.5,0.3,0,0.4,0.1C91.1,69.5,90.7,70.3,90.8,70.2z"/>
					<path class="st0" d="M86.8,65.3l0.3-0.4c-0.4,0.1-0.8,0.2-1.2,0.4C86.2,65.4,86.5,65.3,86.8,65.3z"/>
					<path class="st0" d="M81.4,61.6c0.1,1.7,0.6,1.7,1.3,1.7c0.3,0,0.7-0.1,1,0c0.3,0.1,0.6,0.2,0.8,0.6l0,0.7
						c0.3-0.6,0.7-1.1,1-1.6c-0.6-0.3-1.4-0.5-2.2-0.5C82.5,62.3,81.9,62.2,81.4,61.6z"/>
					<path class="st0" d="M77.2,52.8c0.4,1.5-1,0.8,1.3,0.8c-0.1-0.2-0.2-0.3-0.2-0.4C78,53.1,77.7,53,77.2,52.8z"/>
					<path class="st0" d="M78.2,53.2C79.3,53.5,77.5,51.8,78.2,53.2L78.2,53.2z"/>
					<path class="st0" d="M62.6,72.1c-0.3-0.1-0.7-0.3-1-0.5c-0.9,0.3-1.5,1-2,0.9C59.9,73.1,60.9,72.7,62.6,72.1z"/>
					<path class="st0" d="M65.1,72.2l-0.4-0.2C64.3,72.1,64.1,72.2,65.1,72.2z"/>
					<path class="st0" d="M63.8,71.4c0.3,0.2,0.6,0.4,0.9,0.5c0.7-0.2,1.9-0.5-0.3-0.3C65.5,71.5,64.5,71.6,63.8,71.4z"/>
					<path class="st0" d="M64.6,70.9c0.4-0.2,0.7-0.4,1-0.6l10.8-14.6c0.3,0.4,0.4,0.8,0.2,1.3l-9.6,13.1c0.1,0,0.3,0.1,0.4,0.1
						c0-0.1,0-0.1,0-0.2l-6.3-10l15.6-2.7c1.5-0.3,1.4-2-0.3-2.5L74,54.1l-9.3,16.4C64.6,70.6,64.6,70.7,64.6,70.9z"/>
					<path class="st0" d="M80.8,64.7c0.2,0.4,0.3,0.7,0.4,1.1c0.2-0.3,0.4-0.6,0.6-0.8C81.6,65.3,80.9,63.7,80.8,64.7z"/>
					<path class="st0" d="M58.2,76.8c0.9-0.1,2.7-0.7,3.9-1l-0.9-0.3C60.5,75.9,59.7,76.5,58.2,76.8z"/>
					<path class="st0" d="M62.1,75.8l1.4,0.4C63.9,75.5,63.2,75.6,62.1,75.8z"/>
					<path class="st0" d="M69.5,71.5c-0.9-0.2-1.8-0.4-2.7-0.6c0.8,0.3,1.7,0.6,2.7,0.9L69.5,71.5z"/>
					<polygon class="st0" points="56.7,79.7 54.5,79.7 57.8,79.8 					"/>
					<path class="st0" d="M56.3,81.6c-2,0.1-3.8,1.1-4.9,1c0.1,0.5,1.7,0.6,3.3,0.7C53.9,83,54.4,82.5,56.3,81.6z"/>
					<path class="st0" d="M56.9,83.4c-0.5-0.1-1.3-0.2-2.2-0.2C55.1,83.4,55.7,83.4,56.9,83.4z"/>
					<path class="st0" d="M62.6,77.6c-0.6,0.2-2.3,0.6-3.1,1.1l3-0.8C62.5,77.8,62.6,77.7,62.6,77.6z"/>
					<path class="st0" d="M62.6,77.9L62.6,77.9c-0.3,0.4-0.4,0.6-0.5,0.7C62.2,78.5,62.3,78.3,62.6,77.9z"/>
					<path class="st0" d="M62.7,77.5C62.6,77.5,62.6,77.6,62.7,77.5C62.9,77.5,63,77.5,62.7,77.5z"/>
					<path class="st0" d="M66.8,73.8c1.3,0.2,2.8,0.7,5.1-0.5C70.2,73.3,68.8,74,66.8,73.8z"/>
					<path class="st0" d="M66.3,76.5l0.8-0.9c-0.7,0.1-1.8,0.5-2.5,0.4L66.3,76.5z"/>
					<polygon class="st0" points="67.1,76.7 66.3,76.5 66,76.8 					"/>
					<path class="st0" d="M60.3,81.5c1.3,0.1,1.3,0.4,1.4,0.8c0.7-0.6,1.2-1.1,1.3-1.5C62.1,80.9,60.4,81.1,60.3,81.5z"/>
					<path class="st0" d="M61.7,79.7c0.1,0,0.1,0,0.2,0C62.1,79.6,62.2,79.6,61.7,79.7z"/>
					<path class="st0" d="M60.9,86.4c0.2-0.1,0.4-0.1,0.7-0.2C61.3,86.2,61.1,86.3,60.9,86.4L60.9,86.4z"/>
					<path class="st0" d="M63.7,80.6c0.7-0.4,0-0.5-0.9-0.5c0.2,0.2,0.4,0.4,0.3,0.7C63.5,80.7,63.8,80.7,63.7,80.6z"/>
					<path class="st0" d="M58.1,84.3c0.8-0.3,1.4-0.6,2-0.9C59,83.7,57.2,84.4,58.1,84.3z"/>
					<path class="st0" d="M61,80c0,0-0.1,0-0.1,0C60.2,80.2,60.5,80.1,61,80z"/>
					<path class="st0" d="M61,80c0.4,0.1,1.1,0.1,1.7,0.1c-0.2-0.2-0.5-0.3-0.9-0.4C61.6,79.8,61.3,79.9,61,80z"/>
					<path class="st0" d="M83.8,83.3c-3.4,0.6-6.5,0.3-3.2-1c-2.6-0.2-13,2.2-19.2,3.9c1.4-0.2,2.7-0.5,4.6-0.1
						c1.9-0.6,4.3-2.4,7.2-2.3c1.7,0.6-1.1,1-2.9,1.8c4.1-1.2,6.1,0.1,12.4-1.3l-2.3-0.4C81.4,83.7,83,83.7,83.8,83.3z"/>
					<path class="st0" d="M62.1,84.7l-0.3-0.2c-0.6,0.5-2,1-4.6,1.9c1.4,0.2,2.6,0.1,3.7-0.1l0.8-1.6L62.1,84.7z"/>
					<path class="st0" d="M62.1,83c3.3-0.4,4.7,0.1,8.3-1c-0.2-0.8-2.8-0.1-4.1-0.4c0.6,1.3-1.8-0.1-3.8,1.3
						c-0.5-0.2-0.6-0.4-0.7-0.6c-0.5,0.3-1,0.7-1.7,1.1c0.1,0,0.1,0,0.2-0.1l0,0c0,0,0,0,0.1,0c0.4-0.1,0.7-0.2,0.4-0.1
						c0,0,0.1,0,0.1,0C61.3,83.1,61.7,83.1,62.1,83c-0.8,0.6-0.9,0.2-1.3,0.2c-0.2,0-0.3,0-0.5,0.1l0,0c0.5,0.4,1,0.8,1.5,1.1
						C62.3,84,62.3,83.7,62.1,83z"/>
					<path class="st0" d="M77.7,73c-0.2,0.1-0.4,0.1-0.6,0.2C77.5,73.2,77.7,73.2,77.7,73z"/>
					<path class="st0" d="M76.2,73.9c-0.4,0-1.5,0.1-1.2-0.3c0.8-0.4,1.3-0.2,2.2-0.4c-0.8-0.1-2-0.3-3.3,0.5l0.4,0
						c-0.9,0.7-4.5,2.1-4.9,2.1C71.9,75.2,73.7,74.7,76.2,73.9z"/>
					<path class="st0" d="M70.5,78.2c0.5,0.3,1,0.6,1.5,0.9l2.7-1.1L73,78.4C73.7,77.6,71.7,78.1,70.5,78.2z"/>
					<polygon class="st0" points="59.1,86.8 55.3,87.4 60.5,87.1 					"/>
					<polygon class="st0" points="59.2,88.4 55.8,88.9 57.8,89 					"/>
					<path class="st0" d="M92.4,135.5l2.1-0.7C93.6,135.1,92.9,135.3,92.4,135.5z"/>
					<path class="st0" d="M88.6,134.3l-0.5,0.3C88.3,134.5,88.5,134.4,88.6,134.3z"/>
					<path class="st0" d="M77.2,88.9c-0.7-3.6-1.6-9.1-1.3-4.7l0.4,4.3C76.6,87.6,76.9,88,77.2,88.9z"/>
					<path class="st0" d="M86.3,133.3c0.2-0.2,0.5-0.4,0.7-0.6c-0.9,0.4-1.8,0.8-2.6,1.2C85,133.7,85.6,133.5,86.3,133.3z"/>
					<path class="st0" d="M96.9,127.3l-1.5,1.6C95.9,128.5,96.4,127.9,96.9,127.3z"/>
					<path class="st0" d="M93.9,154.6l2.1,0.3C95.5,154.3,94.8,154.6,93.9,154.6z"/>
					<path class="st0" d="M59.2,104.2c-1.7,0.8-2.5,1.2-2.7,1.6C59.1,104.8,62.9,103.6,59.2,104.2z"/>
					<path class="st0" d="M75.2,146c0.3-0.1,0.5-0.3,0.9-0.5C75.8,145.6,75.6,145.7,75.2,146z"/>
					<path class="st0" d="M56.6,107c0.4-0.2,0.7-0.3,1.1-0.4c-0.8-0.2-1.4-0.4-1.1-0.8C54.6,106.5,53.4,107.2,56.6,107z"/>
					<path class="st0" d="M71.8,166.8c-0.2,0-0.2,0-0.4-0.1C71.7,166.9,71.8,166.9,71.8,166.8z"/>
					<path class="st0" d="M47,173.9c-0.1-0.2-0.3-0.5-0.4-0.7C46.6,173.3,46.7,173.5,47,173.9z"/>
					<path class="st0" d="M56.4,95.1C56.2,94.8,55.9,95.1,56.4,95.1L56.4,95.1z"/>
					<path class="st0" d="M72.4,90.5c0.5,0,1-0.1,1.9-0.2C73.4,90.5,72.7,90.5,72.4,90.5z"/>
					<path class="st0" d="M85.3,105C85.3,105,85.3,105,85.3,105C86.2,104.7,86,104.8,85.3,105z"/>
					<path class="st0" d="M58.3,94.3c-0.5,0.2-0.9,0.4-1.3,0.7C57.4,94.8,57.8,94.6,58.3,94.3z"/>
					<path class="st0" d="M56.4,94.7c0.2-0.1,0.3-0.3,0.4-0.4C56.1,94.4,55.7,94.5,56.4,94.7z"/>
					<path class="st0" d="M56.5,95.5c0-0.2,0.2-0.4,0.5-0.6c-0.3,0.1-0.5,0.2-0.7,0.2C56.4,95.2,56.5,95.3,56.5,95.5z"/>
					<path class="st0" d="M69,171.7c0-0.1,0.1-0.2,0.1-0.3C68,172.6,68.2,172.4,69,171.7z"/>
					<path class="st0" d="M94.2,110.2c0,0-0.1,0-0.2,0.1c0,0-0.1,0.1-0.1,0.1L94.2,110.2z"/>
					<path class="st0" d="M97.2,109.9c-4.6,1.8-4.1,1.3-3.2,0.5L83.6,116L97.2,109.9z"/>
					<path class="st0" d="M89.9,146.2c0.4-0.5,0.9-1.1,1.3-1.6c0.9,0.6,1.1,1.4,1.4,1.7c0.1,0.2,0.3,0.2,0.5,0.2
						c0.2-0.1,0.5-0.3,0.9-0.8c-1,0.1-1.5-0.2-1.8-0.7c-0.1-0.2-0.2-0.5-0.2-0.9c0-0.2,0-0.3,0-0.5c0.1-0.2-0.2-0.2,0.5-0.7
						c2-1.6,4-3.1,5-4.1c1-1,1-1.3-1-0.5c0.1-0.1,0.3-0.2,0.5-0.3l0.2-0.2l0.4-0.5l0.9-1c-0.1,0.4,0.4,0.2,0.3,0.6
						c1.9-2.1,0.4-1.9-1.4-1.4c-0.9,0.2-1.9,0.5-2.6,0.6c-0.2,0-0.3,0-0.5,0c-0.1,0-0.1,0-0.2-0.1c0,0-0.1,0-0.1,0
						c0,0-0.1,0-0.2,0.1c-0.6,0.2-1.1,0.3-1.6,0.4c-0.6,0-1,0-1.1-0.1c-0.1-0.1,0.2-0.3,1.3-0.7l-2.9,1l-1.3,0.4l-0.3,0.1l-0.1,0
						l-0.1-0.1c0.1-0.4,0.7-0.8,0.6-0.3l-0.3-1.9l0.1-0.1c0,0-0.1,0-0.1,0l0,0c-0.4,0.6-0.8,1.5-0.9,1.9c0.7-0.1,0.2-0.4,0.7-0.7
						c-0.1,0.4-0.1,0.8-0.2,1.2c1-0.3,1.3-1.5,0.9-1.9c1.8-1,1.6-0.6,1.4-0.1c-0.2,0.6-0.4,1.2,0.8,1.4c0-0.3,0-0.7,0-1
						c0.9-0.4,1.2-0.3,1.5,0c0.3,0.2,0.5,0.6,1,0.8c-0.2,0-0.9-0.1-1.6,0c-0.7,0.1-1.4,0.5-1.5,1.1c0.3,0.1,0.6,0.3,0.4,1.1
						c0.8-0.6,0.8,0,1.1,0.6l0.9-0.6c0,0.8-0.4,1-0.6,1.6c0.5,0.6,1.1,0.4,1.6,0.4c0.3,0.6,0,0.5-0.3,0.4c-0.3-0.1-0.7,0-0.3,0.6
						c0.2,0.2,0.3,0.4,0.4,0.6l0.1,0.1l0,0.1l0,0l0,0l0,0l0,0c3-1-6.8,2.2,6.8-2.3l0,0l0,0l0-0.1c0-0.2-0.1-0.3-0.2-0.4
						c-0.3-0.6-1-1-1.8-1.5c0.4-0.7,0.9-0.9,1.2-0.9c0.4,0,0.7,0.1,1.1-0.3c-0.6-0.1-1.3-0.1-2-0.1c0.1-0.3,0.7-0.5,1.1-0.6
						c-0.4-0.3-1.1,0.1-1.7,0.3c-0.7,0.3-1.3,0.5-1.8,0.1c-1.6,0.7-0.5-0.4,0.5-1.9c0.5-0.7,0.9-1.5,1-2c0.1-0.5-0.1-0.6-1.2-0.2
						c0.9-0.8,2-1.1,3.2-2c-1.4,0.1-1.9,0.1-2.6,0.2c-0.7,0.1-1.4,0.3-3.5,1c0.7-0.8,1.4-1.6,2.1-2.4c-1.3,1.2-2.7,2-4.3,2.7
						c-1.6,0.7-3.2,1.2-4.8,1.7c-1.2,1-2.3,1.9-2.7,2.4l-2.8,0.2c0.5-0.5,1.9-1.2,3.7-2c-0.4,0.1-0.7,0.2-1.1,0.4
						c1.2-1.2,3.6-2.4,5.8-3.4c-0.7,0.6-1.4,1.2-2.1,1.8c2.5-1.1,5-2.3,7.2-3.7c-0.4,0.2-0.9,0.2-1.1,0.2c0.6-0.3,1.2-0.6,1.6-0.8
						c0.4-0.3-0.5,0.1-1.5,0.5l4.2-2.9l-1.7,1c0.8-1.1,1.6-2.2,2.5-3.4c-4.6,1.4-12.1,4.6-15.2,4.1c3.9-1.7,6.1-3.3,10.5-5.8
						c-2.3,1.6-1.6,1.6-0.6,1.5c1-0.1,2.5-0.4,2.1,0.3c0.4-0.8,2.4-1.8,3.1-2.1c-1.4,0.2-2.9,0.4-4.4,0.6c3.5-2,2.6-1.9,4-3.2
						c-7,4.3-5.1,1.4-7.6,2c2.5-1.4,5.1-2.7,4.7-1.5c2.6-2,0.5-1.1-1.9-0.1c-2.4,1-4.9,2-2.7,0.3c0.1,0.2-0.2,0.5,1.1-0.1
						c-2.4,0.8-1-1.3,1.3-2.3l0.1,0.2c0.5-1.8-1.2-4-8.2-0.6c0.9-0.5,8.4-4.1,9.9-4.8c-8,3.2-16.2,6.5-24.7,9.7
						c3.1-1.4,8.2-4.2,13.1-6.6c4.8-2.5,9.4-4.7,11.3-5c0.8-0.7,1.7-1.6-0.6-1.2c-0.8,0.6-8.8,5-9.5,5c6.6-4.2,3.5-2.4,9.2-6.3
						c-1.3,1-11.2,5.5-11.2,4.8c1.5-0.6,9.8-4.8,10.9-5.1l-10.2,3.5c1.8-0.5,7.6-3.5,10.6-5.3l-16.8,28.5c0,0.2,0.1,0.4,0.1,0.6
						c-0.3-2.2,1.2,0.4,1.5-0.7l-0.7-2.6c1.7,1.9,0.6-15.7,2.2-15.2c0,2.4,0.4,14.5,1.3,16c0-2.9,0-9.9,0.1-16.9
						c0.1-7,0.3-13.9,0.9-16.3l0.5,3.4l0.8-4.1c-0.1,4.6-0.3,11.7-0.5,18.5c-0.3,6.8-0.6,13.3-0.9,16.9c0.7,2.7,0.4,4,1.3,3.8
						c0.5,3.2-0.2,4.8-0.4,4.9l2.2,2.4c-0.5-7,1.1-6.9,0.7-12.8l-1.8,7.1c-0.3-3.5-0.2-8.4,0.1-12.3c0.3-3.9,0.8-6.9,1.6-6.3
						c0.5,2.8,0.5,12.6,0.6,14.9c0-2.4,1.1-4.6,1.3-2.9l-0.4,3.8c0.4,1.1,0.6-0.3,0.8-1.9l19.4-24.7c-2.2,0-4.7,0.1-0.8-1.2
						c0.4-0.4,9-2.7,4.8-2c-8,2-32.9,6.8-39.1,7.6c0.5-0.2,7.4-3.1,11.3-4.2c6.3-1.7,15.3-2,20.7-3.5c-1.9,0.3-4.4,0.5-5.2,0.5
						c1.6-0.6,6-1,5-1.6c-7.2,1.2,0.3-1.6-6.2,0.8c-2.2-0.3,1.3-1,0.9-1.8c-4.6,1.1-16,2.2-18.2,1.8c1.8-0.3,4.2-0.9,5.3-1.2
						c0.4-1.6,3.5-3,3.2-4.4c1.7-0.4,3.6-1.5,6.7-1.8c-1.3,0-3.7,0.3-4-0.1c5.9-1.9,1.2,0.8,8.3-1.2c-4.1,0.7-5.9,0-8.6-0.2
						c-6.2,1.3-0.9,1.6,1.8,1.7c-8.7,1.6-18.1,2.3-22.2,1.5c-2.2-0.8,5.5-1.5,4.2-1.5c1.2-2.5-14.9,0.9-8.8-2.1
						c5.2-1.7,10.4-2,14.2-2.8c2.2,0.6-3.1,2.1-2.9,2.7l2.4-1.3c1.8,0,3.3,0.3,1.8,1c2.4-0.7,2.4-1.7,2.4-2.8c0-1.1-0.1-2.3,1.8-3.5
						c-1.8,0-3.6-0.2-5.6,0.5l0.8,0.4c-4,1.3-5.8,0-7.6,1.1c-2.9-0.2-7.3-0.2-5.1-1.6l5.6-1.2c-1.6,0.3-3.3,1.3-1.6,1.3
						c-1.3,0,0.6-0.7,1.9-1.4c1.2-0.6,1.9-1.2-1.7-0.7l-3.8,1.4c-2.8-0.2-8.4-0.1-6.6-1.3c-5.3,1.4,0.6,0.1-5.7,1.9
						c7.8-2-0.8,2.5,7.7,0c-7.5,2.1-3.2,1.8-9.8,3.9c1.9-0.4,3.6-1,2.6,0c0.5-0.1,1.2-0.1,1.6-0.1c-0.1,0-0.1,0-0.1,0.1
						c0.1,0,0.1-0.1,0.2-0.1c0.3,0,0.3,0,0.1,0c0.8-0.3,1.9-0.7,2.9-0.9c4.3-0.4,4.1,0.8,6.4,0.8c-0.9,0.6-2.2,0.2-4.3,0.8l3.4,0
						c-4.3,0.9-7.2,2.6-9.7,1.9l-0.3,1c-2.5,1-3.6,2-1.8,2.2c-1,0.6,4.9,0.2,1.4,0.5l2.7,1l-1.1,0.2c-0.3,0.8,1.6,1.2,2.5,1.8
						c1,0.6,1,1.4-3.2,3.1c1.2,0.3,2.7,0.5,1.4,1.6l-4.1,0.9c1.5,0.4-3.9,2.7,0.4,2.1c-11,2.7-1.9,3.5-3.6,4.9l5.4-1
						c-0.1,0.8,1.6,1.2,4,1.8l4.7-0.9c1.7,0,1.5,0.5,0.7,1.2l18.5-23.7c-0.7-1.2-1.6-3.3-2.3-2.9c0-1.8,0.3-1.4,0.6-0.4
						c-1.1-5.2-1.8-3-2.4-0.6c-0.7,2.4-1.3,5.2-2.2,1.6c-0.2,1.7-0.5,1.2-0.8,0.1c0,0,0.1-0.1,0.1-0.3c0,0-0.1,0-0.1,0
						c-0.2-0.7-0.4-1.6-0.6-2.3c0.2,1.1,0.4,1.9,0.5,2.3c-0.3,0.2-0.6,0.8-1,2.1l-0.5-4.8c0,0.1-0.1,0.1-0.1,0.2
						c-0.5-1.7-0.2,2.4,0.2,5.9c-0.2,0.8-0.3,1.8-0.4,3c-0.8-7.6-0.9,2.8-1.8-5.3c0,0.9-0.1,1.6-0.3,2.2l-16.6,28.2
						c2.1-0.3,3.6,0.3,9.3-2.3c-1,0.5-1.3,0.8-1.5,0.6c-0.6,0.8-1.1,1.6,1.1,1l-5.1,2.7l7.5-2.6c-2.8,2.1-4.4,3.2-8.8,4.7
						c3.5-0.9,4.2-0.9,4.9-1c0.7-0.1,1.4-0.1,4.7-1.1l-3.3,1.6c0.4,0.3,5.1-1.3,2.6,0.3c-2.7,2-2.2,3.2-1.4,4.4
						c0.8,1.3,1.8,2.6,0.3,5c4-2.5,3.2-1.8,2.4-0.8c-0.9,0.9-1.8,2,1.3,0.3c-1.8,1.2-2.5,2.1-4.5,2.7c1.5-0.1,1.2,0.7,1.3,1.2
						c0.1,0.5,0.6,0.7,3.4-0.4c-1.6,1.1-2.8,1.3-3.8,2c0.5-0.2,1.9-0.6,1,0.1c-0.9,0.7-1.6,0.7-2.6,1.1c1.7,0.6,7-2.4,11.9-5.2
						c-1.8,1.9-1.1,1.9,2.2,0.4c-1.3,1.1-2.6,2.3-3.8,2.1c0.1,0.2,0.1,1.1,0.6,1.5c0.5,0.5,1.4,0.6,3.1-0.4
						c-0.7,0.6,0.3,0.6,0.7,0.5c0.3,0.4,0.4,0.7,0.6,0.9c0.1,0.1,0.1,0.2,0.1,0.3c0,0.1,0,0.1,0.1,0.2c0,0,0,0.1,0.1,0.1
						c0.1,0,0.1,0,0.2,0c0.1-0.1,0.2-0.3,0.4-0.5c2-1,2.4-1.1,2.3-0.8c0,0.3-0.6,0.8-0.2,0.9l-0.4,0.2c-1.1,1.3-0.7,1.2-0.3,1.2
						c0.4,0,0.7,0-0.7,1.2l2.6-1c1.4-0.5,2-0.6,2.1-0.5c0,0.1-0.1,0.2-0.2,0.3c-0.1,0.1-0.2,0.2-0.3,0.2c-0.1,0.1-0.4,0.1-0.6,0.1
						c-1.7,0.3-3.7,0.7-3,0.2l1.7-0.4c0.7-0.4-1.4,0.1-3.7,0.9c-2.3,0.8-4.7,1.7-5.1,1.8c-0.5,0.2-0.6,0.3-0.9,0.5
						c-3.3,1.2,2.9-1.4,3.1-2c-1.6,0.8-3.8,2-4.3,2.1c-0.6,0.3,0.4-0.4,1.1-1.1c0.7-0.7,1-1.3-0.3-0.5c1-0.7,2.1-1.3,2.6-2
						c0-0.2-0.7,0.1-1.4,0.4l0,0c-0.8,1-1.5,1.7,0.2,0.8c-0.2,0.2-0.5,0.4-0.7,0.6c0.7-0.2,1.1,0.3,2.6-0.2c-2.7,1.6-2.1,1.7-1.4,2
						c0.7,0.3,1.4,0.7-1,1.2l0.3,1l-0.5,0c-0.1,0.2-0.1,0.3,0,0.4c0,0.2,0.2,0.4,0.3,0.6c0.4,0.3,0.9,0.5,1.5,0.7
						c-0.4,0.3-0.8,0.1-1.1,0.1c-1.3,1.9-1.4,2.1,1.3,3.5l-2,0.3c0.5,0.2-0.4,0.9-1.3,1.8c-0.5,0.5-0.9,1-1.2,1.5
						c-0.2,0.5-0.2,1,0.3,1.4c-0.3,0-0.7,0-1-0.1c1.1,1-1.1,2.4-2.6,3.7c-1.5,1.3-2.4,2.4,3.1,2.1c0.8,0.4,1.6,0.7,2.5,1.1
						c0.6-1,1.8-1.1,3.1-1c1.3,0,2.9,0.1,3.8-0.3c0.4,0.3-0.5,0.8-1.5,1.2c-1,0.4-2.3,0.6-2.6,0.2l0.6-0.2c-4.9,0.4-3.5,1.8-5.1,2.7
						l15.2-9.3c0.1-0.4,0.4-0.9,0.9-1.6c-1.2-1.4-1.8-3.6-2.3-5.9c-0.6-2.3-1.1-4.7-2.3-6l-3.1,5.7l-0.7-1c0.6-1.5,2.3-4.6,2.9-3.8
						c1.6-3.4-2.7,1.7-3.5,2.9c0.1-3.3,4.5-6.1,4.2-6.5l-0.8,0l-0.3,0.8c-1.8,1.9-3.3,4.3-4,3.5c0.1-1.5,1.8-3.7,1.7-4
						c0.2-0.4,0.3-0.6-0.2-0.4c-0.3-0.4-0.7-0.8-1-1.2l-2.1,4.8c-1.9,1.9-1.1-0.9-3.4,4.5c1.9-4.2,1-5.5-0.2-6.1
						c-1.2-0.6-2.7-0.4-2.4-1.8c-2.6,2.9-3.3,2.5-4.2,1.7c-0.2,1-2.6,6.1-3.1,5.1c5.5-10.1,0.6-5.1,3.4-12.5c-1.3,4-2.7,1.8-4.2,4.6
						l-15.9,5.6c0.3,0.2,0.7,0.4,1.2,0.6l14.2-5c-0.2,0.5-0.4,1-0.6,1.7c0-0.1,0-0.2,0-0.4l-12.2,4.3c-1.2,0-3.6-1.9-5.8-2.3
						c1.6,1.9,0.7,2.7-0.4,3.5c-0.6,0.4-1.2,0.8-1.6,1.3c-0.4,0.5-0.6,1.1-0.4,1.9c1.2,0.5,3,0.8,4.7,2c-2-0.3-4-0.6-5.9-0.9
						c0.6,0.8,6.5,2.9,2.5,2.4c0.9,0.2,2.4,0.5,2.7,1c-1.5,0.7-1.8,1.9-1.8,3.2c0,1.3,0.5,2.7,0.8,4c0.3,1.3,0.6,2.6,0.5,3.8
						c-0.1,1.2-0.6,2.3-1.1,3.4c0.7-0.5,1.1,0,1.3,0.5c0.1-0.3,1.3,0.3,2,0.3c-0.5,0.5-0.8,1.1-1,1.8c0.9,0.3,1.1,0.9,1.4,1.4
						c0.3,0.5,0.5,1,1,1.2c-0.1-0.2-0.3-0.4-0.4-0.7c0.8,0.5,1.2,0.3,2.1,0.1c0.8-0.2,2-0.5,2.9-0.3c-0.6-0.5,0.3-0.9,1.5-1.3
						c0.6-0.2,1.2-0.4,1.5-0.7c0.3-0.3,0.3-0.6-0.5-1.1c0.9-0.1,0.9,0.4,1.7,0.4c-1.1-0.6-1.2-1,0-1.5l0.3,0.2
						c1.1-1.9,3.5-2.2,6.9-3.4l-2.7-0.6c0.7-0.3,1.6-0.1,2.4-0.1c-3.5-1.7-1.3,1-5.1-0.7c2.7,0.5,3.5-0.2,4.1-0.8
						c0.7-0.6,1.5-1.2,5-0.1c0.6-0.5-3.5-1-3-1.6l2,0.5l-2.3-1c0.7-0.2,3.3,0.5,4.9,1.1c-0.3,0,0.2,0.4,0.2,0.5
						c2.8,0.5,0.7-1.4,1.6-1.3l-1.8,0c-0.1-1,0.8-1.7,1.5-2.5c0.4-0.4,0.6-0.8,0.6-1.3c0-0.5-0.2-1.1-0.9-1.9L53,166.8
						c0.1-0.1,0.2-0.1,0.3-0.2l0.7-1.7c1.3-1.1,1.4-0.4,1.3,0.4c0,0.9-0.2,2,0.8,1.7l-0.2,0.4c1.1-1.5,1.9-2.1,2.2-1.6
						c-1.4,1.8-1.3,4.4-2.9,6.3c1.5-1.2,2-1.8,2.7-2.7c0.7-1,1.4-2.3,3.6-5.3l-1.3,3c1.7-2.4,2.5-3.8,3.6-4.1
						c-1.9,2.1-1.9,4.7-4.3,7.6c-1,3.6,0.4,2.4,1.5,1.5c1.1-0.9,2-1.6-0.3,3.3c5.2-7.6,1.2-5.3,2.6-6.7c1.1-2.8,3.9-5.6,4-4.5
						c0.4,0.5-5.1,10.8-3.8,11.3c-0.1-0.1-0.5,0.5-0.6,0.4c-0.8,2.3,2.5-2.3,1.1,1.3c3.2-4.6,0.6,0.6,4.4-5.4l-2,0.8
						c1.6-1.3,6.6-7.9,5.6-4c-0.8,1.1-2.1,2.5-2.9,3.3c-0.8,1.9,1.4-0.9,0.6,1.1c-1.9,2.9-2.5,3.1-3,3.1c-0.5,0-1-0.3-2.8,1.9
						c-1.2,2.7,4-3.8-0.3,2.5c2.8-4,3-3.6,3-3c0.1,0.6,0,1.5,2.4-1.4l-2.3,3.4c0.5-0.5,1.8-2,2.1-1.9l-3.4,4.3
						c1.6-1.8,1.4-0.9,1.1,0.2c-0.3,1.1-0.7,2.3,0.3,1.4c-0.9,0-0.3-1,0.6-2.3c0.9-1.3,2.1-2.9,2.6-4.2c4.8-3.8-4.6,8.8-1.1,7.3
						c-0.6,0.5,0-1.9,1.5-3.3c0,0.7-0.2,1.9-1,3.4c1-0.3,1.5-1.1,1.9-2c0.4-0.9,0.9-2,1.9-2.8c-1.9,3.6,1.8-1.4,3.2-2.3l-2,2.8
						c0.1,0.2,0.2,0.3,0.4,0.3l37-4.8l-12.8-10c-0.9-0.7-7,0.9-5.5-0.6l4.9-0.1l-1.7-0.5l3.7-0.4c-3.4-0.3-2.8-0.7-2.5-1.5
						c-1.9,0.4-5.4,0.6-5.9-0.1c1.4-0.7,2.8-0.1,1.8-1c1.8,0,4.3,0,2,0.7c1-0.1,2,0,2.9-0.1c1.5-0.7-0.7-1.2-1-1.5
						c0,0.1,0,0.3-0.3,0.4c-1.7-0.3-3.2-0.6-4.7-1c0.8-0.3,1.7-0.2,2.5-0.1c-0.5-0.2-1.8-0.3-2.3-0.7c2-0.1,4-0.3,5.5,0.2
						c-1.2-0.3-2.3-0.7-3.3-1.1c0.8-0.2,1.6-0.8,2.5-0.7c0.2-0.4-1.1-0.8-2.3-1.2c-1.2-0.4-2.2-0.9-1.9-1.4c-0.3,0-0.7-0.1-1-0.3
						c-0.1-0.5,0.2-1,0.2-1.4c0-0.5-0.3-1-1.5-1.5l2-0.7c-0.6-0.4-1.1-0.2-1.8-0.1c-0.7,0.2-1.5,0.3-2.3-0.5
						c-0.1-0.1-0.2-0.2-0.3-0.3c0-0.1,0-0.2,0.1-0.3c0.1-0.2,0.4-0.2,0.7-0.2c0.6,0,1.4,0.1,1.7-0.3c-0.6-0.5-1.5-1-2-1.7
						c-0.5-0.7-0.5-1.4,0.4-2.5C90.1,145.2,89.8,145.7,89.9,146.2z M89.9,137.4c0-0.3,0.4-1.2-0.2-0.9
						C88.8,137.5,89.4,137.2,89.9,137.4z M91.2,128.3c1-0.4,0.6,0.1-0.4,1.1C90.5,129.4,90.5,129.1,91.2,128.3z M59.8,98.1
						c0.1,0,0.1,0,0.2,0C58.1,98.9,58.9,98.6,59.8,98.1z M61.9,96.6c-0.6,0-1.3,0.1-1.9,0.3c1.2-0.1,1.2,0.1,0.9,0.4
						C62.1,97,62.9,96.7,61.9,96.6z M81,145l-0.4,1.1C79.5,146.9,80.2,146,81,145z"/>
					<path class="st0" d="M95.7,128c-0.5,0.4-1,0.7-1.5,1C94.7,128.8,95.2,128.5,95.7,128z"/>
					<path class="st0" d="M93.5,154.6C93.5,154.6,93.5,154.6,93.5,154.6c0.1,0,0.3,0,0.4,0L93.5,154.6z"/>
					<path class="st0" d="M106.3,105.5c-0.7,0.4-1.6,0.7-2.6,0.9C104.9,106.2,106,105.9,106.3,105.5z"/>
					<path class="st0" d="M55,92l1,0.5c-0.1-0.3,0.8-0.6,1.5-0.9C56.5,91.8,55,92.2,55,92z"/>
					<path class="st0" d="M80.6,81.1c-0.5,0-0.1-0.2-0.6-0.2l-1.8,0.4C78.4,81.6,79.9,81.6,80.6,81.1z"/>
					<path class="st0" d="M69.3,88.6c3.6-0.7,2.3-0.9,1.7-1.3c0,0,0,0.1,0,0.1C66.1,88.2,67.7,88.4,69.3,88.6z"/>
					<path class="st0" d="M70.9,87.2c-0.2-0.1-0.3-0.3-0.1-0.4C68.9,87.1,70.4,87.1,70.9,87.2z"/>
					<path class="st0" d="M59.4,95.6c1-0.4-4.9,0.8-3.3,0.3c-2.4,0.3-1,0.4,0.7,0.4C58.6,96.3,60.6,96,59.4,95.6z"/>
					<polygon class="st0" points="81.1,86.1 76.7,87.1 80.3,86.7 					"/>
					<path class="st0" d="M78.4,90.5l1.2-1c-0.8,0.2-1.2,0.1-1.6,0.1C77.9,90.1,77,90.8,78.4,90.5z"/>
					<path class="st0" d="M78,89.6c0.1-0.3-0.1-0.5-0.8-0.5C77.2,89.2,77.4,89.5,78,89.6z"/>
					<polygon class="st0" points="82.6,86.9 81.8,87.3 81.5,87.9 					"/>
					<path class="st0" d="M78.6,99l1.6,0.6c1.8-0.2,2.8-0.7,2.1-0.9C81,98.7,80.3,98.6,78.6,99z"/>
					<path class="st0" d="M91.9,93.9c-1,0.4-2.1,0.6-3.7,1.1l6.2-1.1L91.9,93.9z"/>
					<path class="st0" d="M94,96c1.8-0.2,5.4,0.3,4.7-0.7C96.9,95.6,95.2,95,94,96z"/>
					<polygon class="st0" points="88.5,110.1 88.4,109.9 77.6,112 					"/>
					<path class="st0" d="M79.5,141.2c1.2,2.6-0.1-6.3,1-3.1c0.1-2.4-0.9-2.6-0.8-4.7C79.2,135.9,78.8,134.4,79.5,141.2z"/>
					<path class="st0" d="M79.7,133.4c0.1-0.4,0.1-0.9,0.2-1.5C79.8,132.5,79.7,133,79.7,133.4z"/>
					<path class="st0" d="M47.4,176.5c0.1,0.2,0.2,0.5,0.3,0.7c0-0.1,0.1-0.3,0.2-0.4L47.4,176.5z"/>
					<path class="st0" d="M49.6,178.1l-0.7,0.1c0.4,0.2,0.7,0.4,1,0.5C49.7,178.6,49.4,178.2,49.6,178.1z"/>
					<path class="st0" d="M92.8,137.4l-0.2,0.2c-0.3,0.1-0.4-0.1-0.5-0.3C92.4,137.3,92.6,137.4,92.8,137.4z"/>
					<path class="st0" d="M99.8,132.4l-0.8,0.2c-0.5,0.5-1.1,0.9-1.9,1.5L99.8,132.4z"/>
					<path class="st0" d="M94.1,149.7c0,0,0-0.1-0.1-0.1c0-0.1,0-0.2-0.1-0.2c0-0.2-0.1-0.3-0.2-0.5c-0.1-0.3-0.2-0.6-0.2-0.9
						c0.2,0.6-0.2,1.1-0.4,1.4c-0.1,0.2-0.2,0.2,0,0.3C93.2,149.8,93.5,149.8,94.1,149.7z"/>
				</g>
			</g>
		</g>
	</g>
	<g>
		<g>
			<g>
				<g>
					<path class="st0" d="M129.1,125.3c-0.1-0.3-0.1,0.2-0.1,0.2C129.2,126,129.2,125.1,129.1,125.3z"/>
					<path class="st0" d="M129.7,127.1l-0.2,0.4c0.1-0.2,0.3-0.5,0.4-0.8L129.7,127.1z"/>
					<path class="st0" d="M129,129.2c1-1.3,0.9-1.3,0.8-1.2c-0.2,0.1-0.3,0.3-0.1-0.2l0.3-0.6c-0.3,0.5-0.6,1.1-0.9,1.6
						c0,0.1,0.1,0,0.1,0C129.3,128.7,129.3,128.7,129,129.2z"/>
					<path class="st0" d="M127.9,130.5c0,0-0.1,0.1,0.1-0.1C128,130.4,128,130.4,127.9,130.5C127.9,130.4,127.9,130.5,127.9,130.5z"
						/>
					<path class="st0" d="M128,130.4C128,130.3,127.9,130.5,128,130.4L128,130.4z"/>
					<path class="st0" d="M127.5,130.8l0.1-0.1C127.6,130.7,127.5,130.8,127.5,130.8C127.4,130.9,127.4,130.9,127.5,130.8z"/>
					<path class="st0" d="M127.4,130.9L127.4,130.9C127.4,130.9,127.5,130.9,127.4,130.9z"/>
					<path class="st0" d="M127.6,130.7l-0.1,0.1C127.5,130.8,127.5,130.8,127.6,130.7C127.5,130.8,127.5,130.8,127.6,130.7z"/>
					<path class="st0" d="M127.7,130.7C127.7,130.6,127.8,130.5,127.7,130.7C128,130.4,127.9,130.4,127.7,130.7z"/>
					<path class="st0" d="M131,126.7c0.2-0.3,0.4-0.6,0.5-0.9l-0.6,0.7C131.2,126.2,130.4,127.5,131,126.7z"/>
					<path class="st0" d="M126.9,131.2C126.9,131.2,126.9,131.2,126.9,131.2L126.9,131.2C126.9,131.2,126.9,131.2,126.9,131.2z"/>
					<path class="st0" d="M126.9,131.2L126.9,131.2C126.9,131.2,126.9,131.2,126.9,131.2z"/>
					<path class="st0" d="M127.4,130.9C127.4,130.9,127.4,130.9,127.4,130.9L127.4,130.9L127.4,130.9L127.4,130.9l0.2-0.1
						L127.4,130.9L127.4,130.9L127.4,130.9L127.4,130.9L127.4,130.9L127.4,130.9L127.4,130.9z"/>
					<path class="st0" d="M126.7,131.3L126.7,131.3C126.7,131.3,126.7,131.3,126.7,131.3C126.7,131.3,126.7,131.3,126.7,131.3z"/>
					<path class="st0" d="M126.8,131.3C126.8,131.3,126.8,131.3,126.8,131.3c0,0,0.1,0,0.1,0C126.9,131.3,126.9,131.3,126.8,131.3z"
						/>
					<path class="st0" d="M127,131.2C127,131.2,127,131.2,127,131.2C127,131.2,127,131.2,127,131.2z"/>
					<path class="st0" d="M126.8,131.3C126.8,131.3,126.7,131.3,126.8,131.3L126.8,131.3C126.7,131.3,126.8,131.3,126.8,131.3z"/>
					<path class="st0" d="M126.7,131.3L126.7,131.3C126.7,131.3,126.7,131.3,126.7,131.3C126.7,131.3,126.7,131.3,126.7,131.3z"/>
					<path class="st0" d="M126.8,131.3L126.8,131.3L126.8,131.3z"/>
					<path class="st0" d="M127.1,131.1C127,131.1,127,131.2,127.1,131.1l-0.1,0.1l0.2-0.1c0.2-0.1,0.4-0.2,0.6-0.4
						c0.4-0.3,0.9-0.5,1.4-0.9C128.4,130.3,127.8,130.7,127.1,131.1C127,131.2,127,131.2,127.1,131.1L127.1,131.1L127.1,131.1
						C127,131.1,127.1,131.1,127.1,131.1z"/>
					<path class="st0" d="M126.8,131.3L126.8,131.3C126.8,131.3,126.8,131.3,126.8,131.3L126.8,131.3z"/>
					<polygon class="st0" points="126.8,131.3 126.8,131.3 126.8,131.3 					"/>
					<path class="st0" d="M126.8,131.3c0.1,0,0.1,0,0.1,0C126.9,131.2,126.9,131.3,126.8,131.3C126.8,131.3,126.8,131.3,126.8,131.3
						z"/>
					<path class="st0" d="M126.7,131.3L126.7,131.3L126.7,131.3z"/>
					<polygon class="st0" points="127.8,131.1 127.8,131.1 127.8,131.1 					"/>
					<path class="st0" d="M126.8,131.3C126.8,131.3,126.8,131.3,126.8,131.3L126.8,131.3C126.8,131.3,126.8,131.3,126.8,131.3z"/>
					<path class="st0" d="M127.2,131.2L127.2,131.2C127.2,131.2,127.2,131.2,127.2,131.2z"/>
					<path class="st0" d="M126.8,131.3L126.8,131.3C126.8,131.3,126.8,131.3,126.8,131.3z"/>
					<polygon class="st0" points="126.8,131.3 126.8,131.3 126.8,131.3 					"/>
					<path class="st0" d="M139.5,131.4c-1.7-0.1-3.3-0.2-4.1-0.3c-0.7-0.1-0.6-0.2,1.2-0.5c-1.3-0.1-4.5,0.2-8.3,0.4l-0.6,0l0,0l0,0
						l0,0c0,0,0.1,0,0.1,0c0,0,0,0,0.2,0c0,0-0.1,0-0.2,0c0,0-0.1,0-0.1,0l0,0c0.1,0,0.2,0,0.3,0c0.3,0,0.7,0,1.1,0
						c0.8,0,0.5,0.1-0.3,0.1c-0.2,0-0.4,0-0.6,0H128l0,0l0,0l0.1,0l0,0c0.2,0,0.4,0,0.7,0c0.9,0,1.7,0,2.6,0.1
						c1.8,0.1,3.8,0.4,7,0.6c-0.7-0.2-1.5-0.4-2.2-0.5C137,131.3,138.6,131.6,139.5,131.4z"/>
					<path class="st0" d="M127.5,131.2L127.5,131.2c0,0,0.1,0,0.2,0c0.1,0,0.1,0,0.2,0C127.7,131.1,127.5,131.1,127.5,131.2
						L127.5,131.2z"/>
					<path class="st0" d="M127.1,131.2C127.2,131.2,127.3,131.2,127.1,131.2c-0.1,0,0,0-0.1,0C127.1,131.2,127.1,131.2,127.1,131.2
						c-0.1,0-0.1,0-0.1,0L127.1,131.2L127.1,131.2L127.1,131.2L127.1,131.2C127.1,131.2,127.1,131.2,127.1,131.2L127.1,131.2
						L127.1,131.2C127.2,131.2,127.1,131.2,127.1,131.2L127.1,131.2L127.1,131.2c0.1,0,0.2,0,0.3,0
						C127.3,131.2,127.3,131.2,127.1,131.2z"/>
					<path class="st0" d="M134.3,127.1c-0.2,0.1-0.4,0.2-0.6,0.3C134.1,127.3,134.3,127.2,134.3,127.1z"/>
					<path class="st0" d="M132.9,128.1c-0.4,0.1-1.3,0.6-1.1,0.4c0.7-0.5,1.2-0.6,2-1.1c-0.7,0.3-1.7,0.8-2.9,1.6l0.3-0.2
						c-0.4,0.3-1.4,0.9-2.4,1.4c-0.5,0.3-1,0.5-1.4,0.7c-0.2,0.1-0.4,0.2-0.5,0.2c-0.2,0.1-0.1,0-0.1,0c0.5-0.3,1-0.5,1.5-0.7
						c0.5-0.3,1-0.5,1.5-0.8C130.8,129.3,131.8,128.7,132.9,128.1z"/>
					<path class="st0" d="M127.3,131.1c0.4-0.1,0.8-0.2,1.2-0.3c0.9-0.3,1.8-0.6,2.7-0.9l-1.6,0.5
						C130.3,130.1,128.4,130.7,127.3,131.1z"/>
					<path class="st0" d="M127.9,131.1L127.9,131.1c0,0,0.1,0,0.1,0C128,131.1,127.9,131.1,127.9,131.1z"/>
					<polygon class="st0" points="128.3,131.1 128.3,131.1 128.4,131.1 					"/>
					<path class="st0" d="M135.9,168.6l0.1,0.5C136,168.9,136,168.7,135.9,168.6z"/>
					<path class="st0" d="M135.6,168.4l-0.2-0.9C135.6,168,135.6,168.4,135.6,168.4z"/>
					<path class="st0" d="M115.3,154.2c-3.4,1.3-8.7,3-4.5,1.7l4.1-1.4C114.1,154.7,114.4,154.5,115.3,154.2z"/>
					<path class="st0" d="M140.8,157.2c0,0.3,0.1,0.6,0.1,0.9c0-1,0-2,0.1-2.9C140.9,155.9,140.9,156.5,140.8,157.2z"/>
					<path class="st0" d="M141.1,169.4l-0.4-2.1C140.8,168,140.9,168.7,141.1,169.4z"/>
					<path class="st0" d="M137,171.9l-0.1,1.4C136.9,173.3,136.9,172.6,137,171.9z"/>
					<path class="st0" d="M113.7,149.7c-1.6,1-2.2,1.4-2.5,1.6C113.6,149.9,117,147.9,113.7,149.7z"/>
					<path class="st0" d="M133.4,150.8c0.1,0.4,0.2,0.7,0.3,1C133.5,151.5,133.4,151.1,133.4,150.8z"/>
					<path class="st0" d="M111.2,151.6c0.4-0.2,0.6-0.4,1-0.6c-0.7,0.3-1.2,0.5-0.9,0.3C109.5,152.3,108.4,153,111.2,151.6z"/>
					<path class="st0" d="M133.1,175.9c0,0-0.1,0-0.1,0C133.2,175.9,133.2,175.9,133.1,175.9z"/>
					<path class="st0" d="M127.9,184.6c-0.2,0.1-0.5,0.2-0.8,0.3C127.2,185,127.4,184.9,127.9,184.6z"/>
					<path class="st0" d="M129.8,131.5C129.7,131.4,129.8,131.5,129.8,131.5L129.8,131.5z"/>
					<path class="st0" d="M129.5,131.3C129.5,131.3,129.5,131.3,129.5,131.3C129.5,131.3,129.5,131.3,129.5,131.3z"/>
					<path class="st0" d="M137.1,139.4L137.1,139.4C137.9,139,137.8,139.1,137.1,139.4z"/>
					<path class="st0" d="M129.7,131.4L129.7,131.4C129.7,131.4,129.7,131.4,129.7,131.4z"/>
					<path class="st0" d="M129.7,131.4C129.7,131.4,129.6,131.4,129.7,131.4C129.6,131.4,129.6,131.4,129.7,131.4z"/>
					<path class="st0" d="M129.8,131.5C129.8,131.5,129.8,131.5,129.8,131.5C129.8,131.5,129.8,131.5,129.8,131.5
						C129.8,131.5,129.8,131.5,129.8,131.5z"/>
					<path class="st0" d="M136.2,173.3C136.2,173.3,136.2,173.3,136.2,173.3C136.2,173.5,136.2,173.5,136.2,173.3z"/>
					<path class="st0" d="M158.5,145.2c-0.1,0-0.1,0-0.2,0c0,0-0.1,0-0.1,0.1L158.5,145.2z"/>
					<path class="st0" d="M161.3,145.2c-4.8,0.9-4.2,0.6-3.2,0.1l-11.3,3C151.7,147.2,156.5,146.2,161.3,145.2z"/>
					<path class="st0" d="M136.6,169.8l0,1.5c0.1,2.6,0.1,1.7,0.1,3.9c-0.1-2.7-0.1-2.9-0.1-3.1c0-0.2-0.1-0.4-0.3-3.3l0,1.2
						c0,0,0,0.3,0,0.3c0.2,2.7-0.4-4.3-0.6-3.7c0,0.4,0,1.2,0.2,2c-0.1-0.5-0.2-1.1-0.3-1.6c0,0.1,0.1,1.2,0.2,1.1l-0.3-0.7l0,0.2
						c-0.2-1-0.6-2.6-0.7-3.3c0.1,0.9,0.2,0.7,0.3,1.5l-0.5-1.7c0.3,1.6,0.7,3.3,0.8,3.1c0.5,3.1,0.4,2.7,0.3,2
						c-0.1-0.4-0.2-0.8-0.3-1c0,0,0.1,0.3,0.4,1.5l0,0.5c0.4,1.9,0.5,2.6,0.7,3.4c0.1,0.6,0.2,1.1,0.5,2.7c-0.1-0.7-0.4-2.6-0.7-4.3
						c-0.3-1.7-0.7-3.4-0.7-4.1c0.2,0.6,0.3,1,0.2-0.2c0.2,1.3,0.3,1.8,0.3,2c0,0,0,0.1,0,0.1c0,0,0-0.1,0-0.1c0-0.1,0-0.2,0-0.4
						l0.4,3.3c-0.1-1.4-0.3-3-0.4-4.6c0.1,0,0.3,2.3,0.5,4.2c0-0.1,0-0.9-0.1-1.9c-0.1-1-0.2-2.1-0.1-2.7c0,0.2,0.1,0.2,0.1,0.1
						c0,0,0-0.1,0-0.1c0,0,0,0,0.1,0c0,0,0.1,0,0.1-0.1c0.2-0.2,0.4-0.7,0.6-1.4c0.4,1.4,0,1.9,0.2,2.9l0.2-2.3
						c0.1,0.1,0.1,0.9,0.1,1.3c0.2-0.8-0.1-3.2,0.3-3.9c0-1.8,0.2-0.4,0.5,1.1c0.3,1.5,0.6,3.2,0.8,1c0.1,1.2,0,2.3,0.1,3.7
						c0.3-1.2,0.4-1.7,0.5-2.3c0.1-0.6,0.2-1.4,0.4-3.5l0.5,3c-0.4-3.4-0.1-6.8,0.1-10.1c-0.2-1.6-0.3-2.9-0.4-3.6l0.5-2.5
						c0.1,0.7,0.1,2.3,0.1,4.1c0-0.4,0-0.8,0.1-1.1c0.3,1.6,0.2,4.3,0.2,6.7c-0.1-0.9-0.2-1.8-0.3-2.8c-0.1,2.7-0.1,5.5,0,8.1
						c0-0.5,0.1-0.9,0.1-1.1c0,0.7,0,1.3,0,1.8c0,0.5,0.1-0.4,0.1-1.5l0.3,5.1l0-2l0.4,1.6l13-15l2.3-0.8c-4.8-0.1-12.8,0.4-15.3,0
						c4.2-0.4,6.8-1,11.8-1.8c-2.7,0.6-2.1,0.7-1.1,0.8c1,0.1,2.4,0.2,1.8,0.5c0.7-0.4,2.9-0.6,3.6-0.6c-1.3-0.2-2.7-0.3-4.2-0.4
						c4-0.6,3.1-0.7,4.9-1.2c-8.1,1.5-5.2,0.1-7.7,0.1c2.8-0.5,5.7-0.9,4.8-0.3c3.2-0.8,0.8-0.6-1.7-0.3c-2.5,0.3-5.3,0.6-2.5-0.1
						c0.1,0.1-0.4,0.2,1.1,0c-2.5,0.2-0.4-0.9,2.1-1.2l0,0.1c1.2-1,0.3-2.6-7.4-0.9c1-0.2,9.2-2.1,10.7-2.4
						c-8.5,1.5-17.1,3.2-26,5.1c3.3-0.8,8.9-2.3,14.2-3.7c5.3-1.4,10.2-2.6,12-2.7c0.9-0.4,2.1-1-0.3-0.8c-1,0.4-9.7,2.9-10.3,2.9
						c3.7-1.2,4.7-1.6,5.6-1.9c0.9-0.3,1.7-0.7,4.8-1.9c-1.5,0.6-12,3.3-11.8,3c1.6-0.4,10.5-3,11.6-3.2c-3.5,0.7-7,1.5-10.5,2.3
						c1.9-0.4,8.9-2.6,11.9-3.7c-2.1,0.7,0.2-0.8-0.9-0.7l-2.5,1.1c1.6-1.5-15.1,3.9-14.8,3.1c2.3-0.7,13.8-4.4,15.1-5.3
						c-2.8,0.8-9.5,2.9-16.1,5c-6.6,2.1-13.2,4.2-15.5,4.8l3.2-1.3l-3.9,1.1c4.3-1.5,11-3.8,17.5-5.9c6.5-2,12.7-3.8,16.1-4.7
						c2.5-1.2,3.8-1.4,3.4-1.9c3-1.3,4.6-1.3,4.7-1.2c0.6-0.7,1.3-1.4,1.9-2.2c-6.6,2.5-6.7,1.4-12.2,3.6c2.4-0.4,4.7-0.8,7-1.2
						c-3.3,1.2-7.9,2.7-11.7,3.8c-3.8,1.1-6.6,1.8-6.1,1.3c2.6-1.2,11.8-4.4,14-5.3c-2.3,0.8-4.5,0.9-2.9,0.2l3.6-1
						c1.2-0.7-1-0.1-2.8,0.4c-1.8,0.5-3.1,0.8,0-0.8c0.4-0.4,8.4-4.2,4.4-2.6c-7.4,3.6-30.8,13.5-36.6,15.8
						c0.5-0.3,7.6-3.9,10.6-5.5c2.9-1.4,6.5-2.9,9.9-4.4c3.5-1.4,6.8-2.8,9.3-4c-1.8,0.8-4.1,1.6-4.8,1.9c1.5-0.9,5.6-2.4,4.6-2.5
						c-6.7,3,0.2-1.1-5.7,2.4c-2.1,0.5,1.2-1,0.7-1.3c-4.2,2.1-14.7,6.6-16.7,7.3c1.7-0.8,3.8-1.9,4.8-2.5c0.3-0.9,3-2.7,2.7-3.3
						c1.5-0.9,3.2-2.2,6-3.5c-1.2,0.5-3.4,1.6-3.6,1.5c5.2-3.4,1.1,0,7.5-3.9c-3.7,2-5.4,2.3-7.8,3.3c-5.5,3.2-0.7,1.2,1.8,0.2
						c-7.8,4.2-16.2,8.3-19.8,9.8c-2,0.7,4.8-3,3.7-2.4c0.6-0.9-3.6,1.5-6.4,3l8.8-12.5c0,0,0,0,0,0c1.3,1,2.3,1.8,3.1,2.4
						c0.6,0.6,0.2,0.4-0.4,0c-0.6-0.5-1.5-1.2-1.9-1.6l-0.7,6.3c-0.2,0.2-0.3,0.3-0.3,0.3l0.9-0.7l0.6-5.4c0.3,0.3,0.7,0.6,1.1,0.9
						c0.5,0.5,0.9,0.9,1.1,1.3l-0.2,1.6c0.7-0.3,0.9-0.2,0.1,0.4c1-0.7,1.5-1.1,1.8-1.5l-0.1,1c0.6,0.2,0.9-0.2,1.3-0.4
						c0.4-0.2,1-0.4,2.7-0.1c-1.4-1-3-1.9-4.9-2.7c0.2,0.2,0.4,0.3,0.6,0.5c-1.9-0.9-3.1-1.6-4.2-2.1c-0.3-0.1-0.5-0.2-0.7-0.3
						c0,0,0,0,0,0c-0.1-0.1-0.3-0.1-0.5-0.2l-0.1,0c0,0,0.1,0,0.2,0c-0.1,0-0.1,0-0.2-0.1l0,0l0,0l0.1,0l0.1,0
						c0.1,0,0.2,0.1,0.4,0.1c0.2,0,0.3,0.1,0.2,0c-0.1,0-0.3-0.1-0.7-0.2c-0.1,0-0.2,0-0.3-0.1l0.2,0c-0.2-0.1-0.4-0.1-0.7-0.1
						c0.1,0,0.1,0,0.2,0c-0.2,0,0.6,0.1,0.4,0.1c0.3,0.1,0.2,0.1,0.4,0.1c0,0-0.1,0,0.1,0c0,0,0,0,0,0l0,0l0,0c0,0,0,0,0,0l-0.1,0
						c0,0,0.1,0,0.2,0.1c0,0,0.1,0,0.1,0c0,0,0,0,0,0l0.1,0c0,0,0.1,0.1,0,0c0,0,0.1,0.1,0.1,0c0,0-0.1,0-0.1,0l0,0L111.3,150
						c1-0.5,2.2-1.2,0.4-0.2l2.3-1l-1,0.6c-0.3,0.4,1.3-0.4,2.1-0.6c0.8-0.3,0.8,0-3,2.2c1-0.4,2.4-1,1.2-0.2l-3.7,1.9
						c1.3-0.5-3.7,2.2,0.2,0.3c-5,2.5-5.6,2.9-5.1,2.7c0.5-0.1,2.1-0.7,1.3-0.3l5-2.2c-0.2,0.2,1.3-0.3,3.5-1l4.4-1.9
						c3.8-1.3-2.8,1.7-2.1,1.7c-1.7,0.6-1.3,0.4-0.4,0c-4.8,2.1-2.8,1.4-0.5,0.8c2.3-0.7,4.9-1.3,1.5,0c1.7-0.5,1.2-0.2,0.2,0.2
						c0,0-0.1,0-0.2,0.1c0,0,0,0,0,0c-0.7,0.3-1.5,0.6-2.2,0.8c1-0.4,1.8-0.7,2.2-0.8c0.2,0,0.8-0.1,2-0.4l-4.6,1.5
						c0.1,0,0.1,0,0.2,0c-1.6,0.6,2.3-0.6,5.7-1.8c0.8-0.2,1.8-0.4,2.9-0.8c-3.7,1.2-3,1-2.3,0.9c0.6-0.1,1.2-0.2-2.7,1
						c3.9-1.1,3.4-0.5,11.3-2.6c-1,0.3-1.5,0.5-1.6,0.4c-0.8,0.4-1.6,0.7,0.7,0.3l-5.6,1.6c2.6-0.6,5.2-1.2,7.7-1.7
						c-3.3,1.1-5.2,1.6-9.6,2.6c3.5-0.7,4.1-0.7,4.8-0.8c0.7-0.1,1.3-0.2,4.6-0.7l-3.5,0.8c0.2,0.1,5.1-0.8,2.2,0
						c-3.2,0.9-3.2,1.2-3,1.6c0.2,0.4,0.5,0.9-1.9,1.6c4.6-0.8,3.6-0.6,2.5-0.3c-1.2,0.3-2.6,0.6,1,0.1c-2.1,0.4-3.2,0.6-5.2,0.8
						c1.4,0,0.7,0.2,0.6,0.4c-0.2,0.1,0.1,0.2,3.1,0c-2,0.3-3.1,0.3-4.2,0.5c0.5,0,2-0.1,0.9,0c-1.1,0.2-1.8,0.2-2.8,0.2
						c0.5,0.1,1.9,0,3.7-0.1l16.7-19.2c0,2.5,0,5.9,0.1,9.2c-0.4-2.5-0.5-1.9-0.6,1.7c-0.2-1.7-0.4-3.4-0.1-4.3
						c-0.1-0.1-0.4-0.4-0.7-0.3c-0.3,0.2-0.5,0.9-0.5,2.9c-0.1-1-0.3-0.1-0.3,0.4c-0.4,0.1-0.5-0.2-0.9,0.5l0.1,0.5
						c0,4.4-0.3,1.1-0.7,1.9l0-0.4c-0.4-1.2-0.5-0.8-0.6-0.4c-0.1,0.3-0.2,0.6-0.6-0.7l0.1,2.2c0,2.4-0.2,1.7-0.4,0.8
						c-0.3-1-0.7-2.1-0.9-1.2l0.3,1.1c-0.1,0.8-0.4-0.6-0.8-2.2c-0.4-1.6-0.8-3.3-1-3.4c-0.1-0.3,0.1-0.6,0.2-1
						c-0.6-0.8-0.6-0.2-0.5,0.8c0.1,0.9,0.3,2.3,0,2.7c-0.3-1.2-0.3-3.3-0.8-3.2c-0.2-0.4-0.4,0.8-0.6,1.8c-0.1,0.3-0.1,0.5-0.2,0.7
						c0,0.1-0.1,0.2-0.1,0.3l-0.1,0.1c0,0,0,0,0.1,0.1c0.2,0.1,0.3,0,0.3-0.6c0.1,0.9,0.1,1.8,0.5,2.5c0.1,0.1,0.2-0.1,0.2-0.3
						c0.1-0.3,0.1-0.4,0.2-0.5c0.2-0.2,0.5,0.1,0.8,1.6c0-0.1,0-0.3,0-0.5c0.3,0.9,1,1.8,1.2,3.2c-0.1-2.4,0.3-1.5,0.7-0.5
						c0.3,0.9,0.6,1.9,0.5-0.4l0.6,0.7l0-0.5c0.4-0.1,0.5,1.2,0.6,2.5c0.1-0.3,0-0.8,0-1.1c0.5-0.7,0.6-0.7,0.7,2.6l0.2-1.9
						c0,0.6,0.2-0.1,0.5-0.7c0.3-0.6,0.6-1.3,0.6,0.1c0-0.3,0.1-0.7,0.1-1.1c0,0.7,0.1,0.6,0.3,0.2c0.2-0.4,0.4-1.2,0.6-1.8
						c0.4-1.2,0.6-1.7-0.3,3.8l-0.4,2.9c-0.1,0.3-0.3,1.5-0.6,2.9c-0.2,1.4-0.5,3-0.7,3.8c-0.1,0.5,0.1-0.2,0.2-1.2
						c0.2-1.1,0.3-1.6,0.5-2.6l-0.1,0.6c0.4-2.2,0.5-2.7,0.7-3.8c0.1-0.2,0-0.2,0.4-2.5c-0.1,0.1-0.1,0-0.1,0c0,0,0-0.1-0.1-0.1
						c0-0.1-0.1-0.1-0.2-0.2c-0.1-0.2-0.2-0.3-0.3-0.6c0-0.1-0.1-0.2-0.2-0.3l-0.3-0.4c-0.2-0.3-0.4-0.5-0.7-0.8
						c-0.4-0.2-0.9-0.5-1.4-0.7c-0.2-0.1-0.5-0.2-0.7-0.3l-0.2-0.1c0,0,0,0-0.1-0.1l-0.2-0.2l-0.8-0.9c-1.1-1.2-2.1-2.3-3.2-3.4
						c0.9,2.9,1.6,5.7,2.3,8.4l-1.1-1.1l-0.5-0.6l-0.1-0.1c0,0.1-0.1,0.1-0.1,0.2l-0.2,0.4c-0.4-0.4-0.9-1.5-1.3-2.9
						c-0.2-0.7-0.2-1.5-0.2-2.3c0-0.4,0.1-0.9,0.1-1.3c0-0.1,0-0.2,0.1-0.3c0,0,0.1,0,0.1,0.1c0.1,0.1,0.2,0.2,0.3,0.3
						c-0.3-0.7-0.5-1.2-0.7-1.6c-0.1-0.1-0.1-0.1-0.1,0c0,0.1-0.1,0.1-0.1,0.2c-0.1,0.1-0.1,0.3-0.1,0.6c-0.2,0.9-0.2,2.3-0.1,3.8
						c0.1,3,0.6,5.9,0.9,6.6c-0.7,0.8-1.2,0.7-1.6,0.1c-0.4-0.6-0.6-1.8-0.7-3.2c-0.3-2.8-0.1-6.6-0.5-5.3l-0.8,4
						c0.2,0,0.4-0.1,0.5-0.1c0.2,2.6,0.6,4.3,0.8,5.9c0.7,1.6,1.1,3,1.5,4.8c0.1,0.9-0.2,0.8-0.4,0.6c-0.2-0.2-0.5-0.6-0.4,0
						c-0.2-0.2-0.1,0.2,0.4,1.8l0.2,0.9l0.1,0.4c0,0.1,0.1,0.2,0,0.2l-0.1,0l-0.4,0.3l-0.9,0.6c0.7,0.1,1.4,0.3,2.1,0.4
						c0.1,0.9-1.2,0.9,1.1,1.4c-0.6-0.2-1.1-0.2-1.6-0.1c-0.1,0-0.3,0.1-0.4,0.1c-0.1,0-0.2,0.1-0.3,0.1c-0.2,0.1-0.3,0.2-0.5,0.4
						c-0.3,0.3-0.5,0.6-0.7,0.9c-0.2,0.3-0.3,0.5-0.4,0.7c-0.1,0.2-0.2,0.4-0.4,0.5c-0.1,0.1-0.3,0.2-0.5,0.2
						c0.5,0.2,0.7,0.3,0.7,0.4c0,0.1-0.2,0.2-0.4,0.4c0.4-0.1,2.5-0.3,1.9-0.1c-2,0.2-2.6,0.3-3,0.4c-0.4,0.1-0.8,0.2-2.2,0.5
						c2-0.3-0.1,0.1,2.5-0.3c-0.5,0.1-1.3,0.2-2.3,0.4c0.5-0.1,0,0-0.5,0c-0.5,0-1-0.1-1-0.2c0.3,0,0.9-0.1,1.3-0.2
						c-0.4,0.3-0.9,0.6-1.4,0.9c0.2,0.3,2.1-0.3,1,0.5c0.3-0.2,0.7-0.4,0.9-0.3c-0.2,0.6-0.1,1.3,0.1,1.9c0.2,0.6,0.6,1.1,0.9,1.5
						c0.3,0.5,0.7,0.9,0.8,1.6c0.1,0.7-0.1,1.5-0.7,3c0.1,0.1,0.2,0.2,0.3,0.3c0.2-0.6,0.8-0.9,1.4-1.1c-0.1-0.1,1.2-1.1,1.7-1.7
						c0,0.4,0.1,0.7,0.4,0.9c0.8-0.7,1.3-0.9,1.8-1c0.5-0.2,1-0.3,1.4-0.7l-0.6,0.3c0.8-0.6,0.9-1,1.4-1.7c0-0.1,0.1-0.2,0.1-0.2
						l0.1-0.2c0-0.1,0.1-0.2,0.1-0.3c0.1-0.2,0.2-0.4,0.4-0.6c-0.4,0.2-0.4-0.1-0.4-0.4c0-0.3,0-0.6-0.6-0.4c0,0-0.1,0-0.1,0.1
						c0.1-0.2,0.3-0.2,0.4-0.3c-0.3,0.2-0.5,0.2-0.5-0.1l0.1,0c-0.5-0.4-0.2-0.8,0.1-1.4l-0.8,0.3c0-0.1,0.3-0.2,0.5-0.3
						c-1.4,0.2,0.1,0.3-1.3,0.6c0.7-0.3,0.6-0.5,0.5-0.7c-0.1-0.2-0.1-0.4,1.1-0.6c0-0.2-1.2,0.3-1.3,0.1l0.7-0.2l-0.9,0.1
						c0.1-0.1,0.9-0.3,1.6-0.4c-0.1,0,0.2,0,0.2,0.1c0.4-0.1,0.3-0.2,0.2-0.3c-0.1,0-0.2-0.1-0.2-0.1c0,0,0,0,0,0
						c-0.1,0-0.2,0-0.3,0l-0.2,0.1c-0.1,0-0.1,0-0.1-0.1c0,0,0,0,0,0c0,0,0,0,0.1,0c0.1,0,0.2,0,0.3,0c0.2,0,0.3,0,0,0l-0.5,0.1
						c-0.3,0,0.8-0.1,0.9-0.2l0.1,0c-0.3,0-0.3,0-0.1-0.1c0.3,0,0.9-0.1,1.2-0.1c-0.1,0-0.2-0.1-0.3-0.1c-0.1,0-0.4,0-0.7-0.1l0.5,0
						c-0.3,0-0.5,0-0.3-0.2c0.1,0.1,0.7-0.1,0.9,0.1c0.1,0,0.2,0,0.3-0.1c0.3-0.1,0.2-0.2,0.2-0.3c0-0.1,0.1-0.2,0.5-0.1
						c-0.5-0.4-0.8,0.1-0.8,0c-0.4,0-0.4-0.3-0.1-0.4c0.2-0.2,1.1,0.2,1.3,0c0,0,0,0.1,0,0.1c0.2,0.1,0-0.3,0.3-0.2
						c-0.1-0.4,0.1-0.1,0-0.7l-0.2,0.4c0-0.1,0-0.4,0.1-0.6c0-0.2,0.2-0.5,0.3-0.5c0,0.2,0,0.4-0.1,0.6c0.1,0.1,0.1-0.3,0.2-0.2
						c0,0.3,0,0.5-0.1,0.6c-0.1,0.1-0.2,0.2-0.1,0.5c0.1,0.2,0.1-0.6,0.2,0c-0.1-0.4,0-0.5,0.1-0.5c0.1,0,0.1,0,0.2-0.5l0,0.5
						c0-0.1,0-0.4,0.1-0.4c0,0.2,0,0.5,0,0.7c0-0.3,0.1-0.3,0.1-0.2c0,0.1,0,0.3,0.1,0.1c-0.1,0.2,0-0.6,0-0.9
						c0.3-1.2,0,1.2,0.1,0.7c0,0.1,0-0.3,0.1-0.6c0,0.1,0,0.2-0.1,0.6c0.1-0.3,0.1-0.7,0.2-1.3c-0.1,0.8,0.1-0.5,0.2-1l-0.1,0.8
						c0,0.2,0.4-1.9,0.3-1.6l-0.3,1.4l0.1-0.5l-0.2,1.1c0.2-0.9,0.1-0.8,0.1-0.6c0.1-0.7,0.3-1.9,0.4-2.2c-0.1,0.5-0.2,1.1-0.2,0.7
						c-0.1,0.8-0.3,1.7-0.1,0.8c-0.1,0.4-0.1,0.7-0.2,1.1c-0.1,0.7,0,0,0-0.1c0,0,0-0.1,0-0.2c0.1-0.6,0.2-1.3,0.2-1.9
						c-0.1,0.4-0.1,0.8-0.2,1.2c0-0.2,0.1-0.8,0.1-1c-0.1,1-0.2,1.8-0.4,2.7c0-0.4,0.1-0.9,0.1-1.3c-0.1,0.4-0.2,1.2-0.2,1.6
						c0,0.3,0-0.3,0.1-0.9c0-0.6,0.1-1.2,0-0.8c0-0.2,0-0.5,0-0.7c-0.1,0.1-0.2,1.7-0.2-0.3l-0.1,2.5c0-0.3,0-1.1,0-2
						c0-0.8,0.1-1.7,0-2.3c-0.1-1-0.1,2.2-0.1,2.9c0-0.7,0-1.8-0.1-2.4c-0.1-0.7-0.1-0.9-0.1,0.2C136.6,170,136.6,169.6,136.6,169.8
						z M135.4,167.7c0,0.4,0.2,1.8-0.1,0.3C134.9,165.4,135.2,166.8,135.4,167.7z M148.8,155.5c0.7,0,0.7,0,0.3,0.2l-7.4,8.6
						c-0.1-0.2-0.1-0.7-0.2-1.2c0-0.1,0.1-0.1,0.1,0l6.3-7.2C148,155.7,148.3,155.6,148.8,155.5z M130,131.6L130,131.6
						C130,131.5,130,131.6,130,131.6z M130,131.6C130,131.6,130,131.6,130,131.6C130,131.6,130,131.6,130,131.6
						C130,131.6,130,131.6,130,131.6z M129.8,167.5c0-0.2,0.1-0.4,0.1-0.6c0.5,1.3,0.6,1.7,0.5,1.6
						C130.3,168.5,130,168.1,129.8,167.5z"/>
					<path class="st0" d="M141.1,168c0-0.6-0.1-1.2-0.1-1.8C140.9,166.7,141,167.3,141.1,168z"/>
					<path class="st0" d="M137,171.7C137,171.7,137,171.7,137,171.7c0,0.1,0,0.2,0,0.3L137,171.7z"/>
					<path class="st0" d="M156.6,132.8c-0.6,0.4-1.5,0.9-2.3,1.3C155.4,133.6,156.4,133.1,156.6,132.8z"/>
					<path class="st0" d="M129,131.2l0.2,0.1C129.2,131.3,129.1,131.2,129,131.2C129.1,131.2,129.1,131.2,129,131.2z"/>
					<path class="st0" d="M136.6,130.1c-0.5,0-0.1-0.1-0.5-0.1l-1.8,0.2C134.4,130.4,135.9,130.4,136.6,130.1z"/>
					<path class="st0" d="M128.9,131.2c-0.2,0-0.2,0-0.3,0l0,0C128.6,131.2,128.7,131.2,128.9,131.2z"/>
					<path class="st0" d="M128.6,131.2l-0.1,0C128.5,131.2,128.5,131.2,128.6,131.2z"/>
					<path class="st0" d="M129.9,131.5L129.9,131.5C129.8,131.5,130,131.6,129.9,131.5z"/>
					<path class="st0" d="M136.2,132.3c-1.5-0.2-3-0.4-4.4-0.7c1.2,0.2,2.4,0.4,3.5,0.7C135.6,132.3,135.9,132.3,136.2,132.3z"/>
					<path class="st0" d="M132.5,132.6c0.4,0.1,0.9,0.2,1.3,0.3c-0.7-0.3-1.2-0.4-1.5-0.6C132.2,132.4,131.2,132.1,132.5,132.6z"/>
					<path class="st0" d="M132.4,132.3c0.1,0,0.1-0.1-0.7-0.3C131.7,132,131.9,132.1,132.4,132.3z"/>
					<path class="st0" d="M137.5,133.1l-0.9-0.1l-0.4,0.2C136.6,133.1,137,133.1,137.5,133.1z"/>
					<path class="st0" d="M130.9,139.4l1.4-0.4c1.6-0.8,2.5-1.5,1.8-1.2C133,138.3,132.3,138.5,130.9,139.4z"/>
					<path class="st0" d="M142.3,131.3c-0.8,0.6-1.8,1.2-3.2,2.1l5.4-3.2L142.3,131.3z"/>
					<path class="st0" d="M144.4,131.6c1.6-0.9,4.9-2,4.1-2.3C147,130.1,145.4,130.5,144.4,131.6z"/>
					<polygon class="st0" points="140.1,140.8 140,140.8 130,145.2 					"/>
					<path class="st0" d="M165.1,138.2c2.4-1.5-6,1.8-3.1,0.2c-2.3,0.6-2.4,1.3-4.4,1.8C160.1,139.8,158.7,140.5,165.1,138.2z"/>
					<path class="st0" d="M157.6,140.2c-0.4,0.1-0.9,0.2-1.5,0.3C156.7,140.4,157.2,140.3,157.6,140.2z"/>
					<path class="st0" d="M130,184.4c0.2,0,0.4-0.1,0.7-0.1c-0.1,0-0.2-0.1-0.2-0.2L130,184.4z"/>
					<path class="st0" d="M132.4,182.9c-0.1,0.2-0.2,0.4-0.3,0.6l0.9-0.7C132.8,182.8,132.4,183,132.4,182.9z"/>
					<path class="st0" d="M136.7,175.2l-0.1-0.9c-0.1-0.4-0.1-0.6-0.1-0.7c0-0.1-0.1-0.3-0.1-0.4L136.7,175.2z"/>
					<polygon class="st0" points="136.3,171.5 136.3,171.5 136.1,169 					"/>
					<path class="st0" d="M136.7,174.8c0,0.1,0-0.4,0-0.3C136.7,174.9,136.8,172.1,136.7,174.8z"/>
				</g>
			</g>
		</g>
	</g>
	<g>
		<path class="st1" d="M116.9,194.5h-7.7V53.9c0-1.5-0.4-3.1-1.5-3.5c-1.1-0.4-2.3-0.4-3.8,0L50,73.9c-4.2,1.9-8.4,7.7-8.4,12.7v108
			h-7.7V86.2c0-7.7,5.7-16.5,13-19.6l53.8-23.5c3.8-1.5,8.1-1.5,11.2,0.4c3.1,2.3,5,5.7,5,10.4L116.9,194.5L116.9,194.5z"/>
		<path class="st1" d="M163,179.5c-2.3,0-3.8-1.5-3.8-3.8v-49.2c0-4.6-3.8-10-8.4-11.5l-28.1-9.2c-1.5-0.4-3.1-0.4-4.2,0.4
			c-1.1,0.8-1.5,2.3-1.5,3.8v65.7c0,2.3-1.5,3.8-3.8,3.8c-2.3,0-3.8-1.5-3.8-3.8V110c0-4.2,1.9-8.1,5-10.4c3.1-2.3,7.3-2.7,11.2-1.1
			l28.2,9.5c7.7,2.7,13.4,10.8,13.4,18.9v49.1C166.8,178,165.3,179.5,163,179.5L163,179.5z"/>
		<path class="st1" d="M56.2,103.5c0,3.2,2.6,5.7,5.7,5.7c3.2,0,5.7-2.6,5.7-5.7s-2.6-5.7-5.7-5.7C58.8,97.7,56.2,100.3,56.2,103.5z
			"/>
		<path class="st1" d="M82.7,103.5c0,3.2,2.6,5.7,5.7,5.7c3.2,0,5.7-2.6,5.7-5.7s-2.6-5.7-5.7-5.7C85.3,97.7,82.7,100.3,82.7,103.5z
			"/>
		<path class="st1" d="M56.2,131.6c0,3.2,2.6,5.7,5.7,5.7c3.2,0,5.7-2.6,5.7-5.7c0-3.2-2.6-5.7-5.7-5.7
			C58.8,125.8,56.2,128.3,56.2,131.6z"/>
		<path class="st1" d="M82.7,131.6c0,3.2,2.6,5.7,5.7,5.7c3.2,0,5.7-2.6,5.7-5.7c0-3.2-2.6-5.7-5.7-5.7S82.7,128.3,82.7,131.6z"/>
		<path class="st1" d="M56.2,160.4c0,3.2,2.6,5.7,5.7,5.7c3.2,0,5.7-2.6,5.7-5.7c0-3.2-2.6-5.7-5.7-5.7
			C58.8,154.6,56.2,157.1,56.2,160.4z"/>
		<path class="st1" d="M82.7,160.4c0,3.2,2.6,5.7,5.7,5.7c3.2,0,5.7-2.6,5.7-5.7c0-3.2-2.6-5.7-5.7-5.7S82.7,157.1,82.7,160.4z"/>
		<path class="st1" d="M132.3,139.2c0,3.2,2.6,5.7,5.7,5.7s5.7-2.6,5.7-5.7c0-3.2-2.6-5.7-5.7-5.7
			C134.9,133.5,132.3,136,132.3,139.2z"/>
		<path class="st1" d="M132.3,164.2c0,3.2,2.6,5.7,5.7,5.7s5.7-2.6,5.7-5.7c0-3.2-2.6-5.7-5.7-5.7
			C134.9,158.4,132.3,161,132.3,164.2z"/>
		<path class="st1" d="M175.3,198.4H22.8c-2.3,0-3.8-1.5-3.8-3.8s1.5-3.8,3.8-3.8h152.9c2.3,0,3.8,1.5,3.8,3.8
			S177.6,198.4,175.3,198.4L175.3,198.4z"/>
	</g>
</g>
</svg>
