<?xml version="1.0" encoding="utf-8"?>
<!-- Generator: Adobe Illustrator 24.0.2, SVG Export Plug-In . SVG Version: 6.00 Build 0)  -->
<svg version="1.1" id="Layer_1" xmlns="http://www.w3.org/2000/svg" xmlns:xlink="http://www.w3.org/1999/xlink" x="0px" y="0px"
	 viewBox="0 0 198.4 198.4" style="enable-background:new 0 0 198.4 198.4;" xml:space="preserve">
<style type="text/css">
	.st0{fill:#FEAEBB;}
	.st1{fill:none;stroke:#656565;stroke-width:6;stroke-linecap:round;stroke-linejoin:round;stroke-miterlimit:10;}
	.st2{fill:none;stroke:#656565;stroke-width:7;stroke-miterlimit:10;}
	.st3{fill:#656565;}
</style>
<g>
	<g>
		<g>
			<g>
				<g>
					<path class="st0" d="M98.1,196.1c-0.4,0.2,0.1,0.2,0.2,0.3C98.9,196,98,196.1,98.1,196.1z"/>
					<path class="st0" d="M99.6,191h0.5c-0.3-0.2-0.7-0.4-1.1-0.5C99.2,190.7,99.4,190.8,99.6,191z"/>
					<path class="st0" d="M99.5,185.8c-1.3,1.1-1,1.4-0.7,1.7c0.4,0.3,0.9,0.6,0.5,1.3l-0.5,0.4c0.6-0.2,1.2-0.3,1.8-0.4
						c-0.1-0.5-0.5-1.1-0.9-1.5C99.5,186.8,99.2,186.4,99.5,185.8z"/>
					<path class="st0" d="M104.8,178.2c-1,1.1-1,0-0.2,1.1c0.1-0.2,0.2-0.3,0.2-0.4C104.8,178.8,104.8,178.6,104.8,178.2z"/>
					<path class="st0" d="M104.8,179C105,179.7,105.7,177.8,104.8,179L104.8,179z"/>
					<path class="st0" d="M103.6,176.3c0.4,0,0.8,0,1.2,0c0.6-0.8,0.6-1.8,1.1-1.9C105.2,173.8,104.6,174.7,103.6,176.3z"/>
					<path class="st0" d="M101.4,177.5h0.5C102.1,177.2,102.2,177,101.4,177.5z"/>
					<path class="st0" d="M103,177.6c-0.4,0-0.7-0.1-1.1-0.1c-0.4,0.6-1.3,1.5,0.4,0.1C101.5,178.3,102.3,177.7,103,177.6z"/>
					<path class="st0" d="M102.7,178.5c-0.5,1-0.8,1.9-1.9,2c0.4,0.5,1,0.4,1.5-0.1C102.8,180,103.1,179.1,102.7,178.5z"/>
					<path class="st0" d="M96.8,187.4l-0.6,0.9c0.3-0.1,0.7-0.1,1-0.2C96.7,188.2,97.6,186.8,96.8,187.4z"/>
					<path class="st0" d="M103.5,169.3c-0.6,0.7-1.5,2.3-2.3,3.3c0.3-0.1,0.6-0.2,0.9-0.3C102.4,171.5,102.6,170.4,103.5,169.3z"/>
					<path class="st0" d="M101.2,172.6c-0.5,0.2-0.9,0.3-1.4,0.5C100,173.9,100.5,173.4,101.2,172.6z"/>
					<path class="st0" d="M98.2,180.6c0.9-0.4,1.8-0.7,2.6-0.9c-0.9,0.1-1.8,0.4-2.7,0.7L98.2,180.6z"/>
					<polygon class="st0" points="102.9,166.3 104.5,164.7 102.1,167 					"/>
					<path class="st0" d="M102.6,165.1c1.3-1.4,2.3-3.2,3.1-4c-0.1-0.1-1.3,1-2.3,2.1C104,162.7,103.8,163.3,102.6,165.1z"/>
					<path class="st0" d="M101.9,164.8c0.3-0.3,0.9-0.9,1.5-1.6C103.1,163.5,102.7,164,101.9,164.8z"/>
					<path class="st0" d="M99.7,171.6c0.4-0.5,1.3-1.9,1.7-2.8l-1.8,2.6C99.7,171.4,99.7,171.5,99.7,171.6z"/>
					<path class="st0" d="M99.6,171.4L99.6,171.4c0-0.4,0-0.6,0-0.7C99.6,170.8,99.6,171,99.6,171.4z"/>
					<path class="st0" d="M99.7,171.6L99.7,171.6C99.5,171.8,99.5,171.9,99.7,171.6z"/>
					<path class="st0" d="M98.9,177.1c-1.2,0.6-2.6,1.2-3.7,3.6C96.5,179.6,97.2,178.2,98.9,177.1z"/>
					<path class="st0" d="M97.6,174.8c0,0.4-0.1,0.7-0.1,1.1c0.5-0.6,1.1-1.6,1.6-2C98.6,174.1,98.1,174.4,97.6,174.8z"/>
					<polygon class="st0" points="96.9,175.2 97.6,174.8 97.7,174.3 					"/>
					<path class="st0" d="M99.9,167.9c-0.9,0.9-1,0.8-1.1,0.7c-0.4,0.7-0.6,1.3-0.5,1.5C98.9,169.4,100,168.2,99.9,167.9z"/>
					<path class="st0" d="M99.5,169.8c0,0-0.1,0-0.1,0.1C99.2,170.1,99.2,170.2,99.5,169.8z"/>
					<path class="st0" d="M98.2,168.1c0,0,0.1-0.1,0.2-0.1l0,0L98.2,168.1z"/>
					<path class="st0" d="M97.9,170.7c-0.3,0.7,0.2,0.2,0.8-0.4c-0.2,0.1-0.4,0.1-0.4-0.1C98,170.5,97.8,170.8,97.9,170.7z"/>
					<path class="st0" d="M101.1,165.4c-0.5,0.6-0.9,1.2-1.3,1.7C100.5,166.2,101.7,164.8,101.1,165.4z"/>
					<path class="st0" d="M99.9,169.1C99.9,169.1,100,169,99.9,169.1C100.4,168.4,100.2,168.7,99.9,169.1z"/>
					<path class="st0" d="M99.9,169.1c-0.3,0.2-0.8,0.7-1.2,1.2c0.2-0.1,0.4-0.2,0.7-0.4C99.5,169.6,99.7,169.4,99.9,169.1z"/>
					<path class="st0" d="M82.2,182.5c1.3-1.1,2.6-2.1,3.3-2.4c0.7-0.4,0.7-0.1-0.4,1.3c1.1-0.7,3.3-3.1,6-5.8
						c1.3-1.3,2.7-2.8,4-4.2c1.1-1.2,2.3-2.3,3.3-3.3c-0.3,0.3-0.6,0.6-1,1c-0.5,0.5-1.1,1-1.7,1.6c-0.7,0.7-1.5,1.5-2.4,2.5
						s-1.7,2-2.9,2.9c-1.4,0.8,0.7-1.1,2-2.5c-1.5,1.5-2.7,2.4-4.1,3.5s-3.2,2.2-5.6,4.2c0.7-0.3,1.4-0.6,2.1-1
						C84,180.9,82.7,181.7,82.2,182.5z"/>
					<path class="st0" d="M98.4,168.2l0.2-0.2c0.2-0.3,0.6-0.7,1.1-1.3c0.3-0.3,0.6-0.6,0.9-1c-0.2,0.2-0.4,0.4-0.7,0.7
						c-1.2,1.2-1.5,1.4-1.5,1.5l0.8-0.7l-0.2,0.2c-0.1,0.1-0.2,0.3-0.3,0.4L98.4,168.2z"/>
					<path class="st0" d="M98.5,168.6c-2.2,2.4-3.3,3.2-5.6,6.2c0.3,0.2,2-1.9,3-2.7c-0.4-0.1,0-0.3,0.5-0.9
						c0.5-0.5,1.3-1.3,1.9-2.3c0.4-0.3,0.5-0.3,0.6-0.3c0.2-0.5,0.6-1,1-1.6c-0.1,0.1-0.1,0.1-0.1,0.2l0,0l0,0
						c-0.3,0.4-0.4,0.6-0.3,0.3l0,0C99,168,98.7,168.3,98.5,168.6c0.5-0.8,0.6-0.7,0.8-1c0.1-0.1,0.2-0.2,0.3-0.4l0,0
						c-0.3,0.2-0.7,0.4-1.1,0.7c-0.2,0.2-0.3,0.4-0.3,0.5C98.3,168.6,98.4,168.6,98.5,168.6z"/>
					<path class="st0" d="M91.1,184.7c0.1-0.2,0.3-0.4,0.4-0.5C91.2,184.4,91,184.6,91.1,184.7z"/>
					<path class="st0" d="M91.8,183.1c0.3-0.3,1-1.1,1-0.6c-0.4,0.8-0.8,1-1.4,1.7c0.6-0.5,1.6-1.1,2.1-2.5l-0.3,0.2
						c0.2-0.5,0.7-1.6,1.2-2.6c0.6-1,1.1-1.9,1.3-2C94.2,179.4,93.1,181,91.8,183.1z"/>
					<path class="st0" d="M93.9,176.7c-0.5,0.2-0.9,0.4-1.4,0.6l-1.5,2.5l1-1.3C92,179.3,93.1,177.6,93.9,176.7z"/>
					<path class="st0" d="M97.9,168.4c0.1-0.1,0.2-0.2,0.3-0.3C98.1,168.2,98,168.3,97.9,168.4l-0.3,0.3l-0.6,0.6
						C97.3,169.1,97.6,168.7,97.9,168.4z"/>
					<polygon class="st0" points="95.2,170.9 95.3,170.8 94.7,171.3 					"/>
					<path class="st0" d="M75.1,133.4l-0.9-0.2C74.6,133.3,74.9,133.3,75.1,133.4z"/>
					<path class="st0" d="M75.4,133.7L77,134C76.1,133.8,75.5,133.7,75.4,133.7z"/>
					<path class="st0" d="M112.2,177.2c0.4,0.3,0.7,0.5,1.1,0.8s0.8,0.6,1.2,0.9c0.8,0.6,1.6,1.1,2.2,1.5c1.2,0.8,1.5,0.9-0.1-0.6
						l-3.3-2.8c0.1,0.4,0,0.5-0.2,0.5c-0.1,0-0.3-0.1-0.4-0.1C112.6,177.4,112.4,177.3,112.2,177.2z"/>
					<path class="st0" d="M103.8,146.1c-0.5-0.1-0.9-0.3-1.4-0.4c0.8,0.3,1.5,0.7,2.3,1c0.5,0.2,1,0.5,1.4,0.7
						C105.4,147,105,146.7,103.8,146.1z"/>
					<path class="st0" d="M84.6,138.9l3,0.8C86.6,139.4,85.6,139.1,84.6,138.9z"/>
					<path class="st0" d="M69.7,131h-2.6C67.1,131.1,68.4,131.1,69.7,131z"/>
					<path class="st0" d="M93.5,175.6c0.3,0.2,0.6,0.3,0.8,0.5C94,175.8,93.7,175.6,93.5,175.6z"/>
					<path class="st0" d="M114.8,141.4c-0.8-0.2-1.6-0.4-2.5-0.6C113,141,113.8,141.2,114.8,141.4z"/>
					<path class="st0" d="M95.3,176.6c-0.1,0-0.1-0.1-0.2-0.1c-0.2-0.2-0.4-0.3-0.7-0.5C94.7,176.2,95,176.4,95.3,176.6z"/>
					<path class="st0" d="M77.3,92.8c0.1,0,0.3,0.1,0.4,0.1C77.3,92.7,77.2,92.7,77.3,92.8z"/>
					<path class="st0" d="M100,88.4c0.2,0.1,0.4,0.3,0.6,0.5C100.5,88.8,100.4,88.7,100,88.4z"/>
					<path class="st0" d="M89.9,174.3C90,174.3,89.9,174.3,89.9,174.3L89.9,174.3z"/>
					<path class="st0" d="M90.5,174.1c-0.3,0.1-0.6,0.2-1,0.4C90,174.3,90.3,174.2,90.5,174.1z"/>
					<path class="st0" d="M84.9,166.5L84.9,166.5C84.2,165.9,84.3,166,84.9,166.5z"/>
					<path class="st0" d="M90.1,174.3L90.1,174.3C90,174.3,90,174.3,90.1,174.3z"/>
					<path class="st0" d="M90.1,174.3C90.1,174.2,90.1,174.2,90.1,174.3C90.2,174.2,90.1,174.2,90.1,174.3z"/>
					<path class="st0" d="M89.9,174.3L89.9,174.3L89.9,174.3L89.9,174.3z"/>
					<path class="st0" d="M74.5,111.7c0.1,0,0.2,0,0.4,0C73.4,111,73.6,111.2,74.5,111.7z"/>
					<path class="st0" d="M80.6,143.4c0.1,0.1,0.1,0.1,0.2,0.1c0,0,0.1,0.1,0.2,0.1L80.6,143.4z"/>
					<path class="st0" d="M77.8,141.1c4.9,3.6,4.2,3.3,3.1,2.6c3.9,2.7,7.7,5.5,11.6,8.1C87.7,148.2,82.8,144.6,77.8,141.1z"/>
					<path class="st0" d="M72.9,132.3c-0.8-0.1-1.7-0.1-2.6-0.2c-4.6-0.7-3-0.5-6.7-0.9c4.6,0.6,5,0.7,5.3,0.8
						c0.3,0.1,0.7,0.2,5.6,1l-2-0.3c0.1,0-0.5-0.1-0.4-0.1c-2.3-0.3-0.5,0,1.8,0.4s5.1,1,4.6,1c-0.7-0.1-2.1-0.3-3.4-0.6l2.9,0.7
						c-0.1,0-2-0.4-1.9-0.4l1.3,0.4l-0.3-0.1c1.8,0.4,4.6,1.1,5.9,1.4c-1.5-0.3-1.3-0.3-2.6-0.6l3,0.8c-2.8-0.6-5.9-1.4-5.6-1.4
						c-5.5-1.2-4.8-1-3.4-0.7c1.3,0.3,3.4,0.8,0.2,0.2l-1.6-0.4c-2.4-0.5-3.6-0.8-5-1.1c-0.9-0.2-1.8-0.4-3.2-0.8
						c1,0.2,3.9,0.9,6.4,1.5c2.7,0.6,5.4,1.2,7,1.7c-0.8-0.2-1.2-0.2,1.4,0.4c-4.3-1-3.1-0.7-2.7-0.6l-5.8-1.5
						c3.5,0.9,4.7,1.2,7.5,2c-0.4,0-5-1.2-8.9-2.2c-0.4-0.1,1.4,0.4,3.5,0.9s4.4,1.1,5.2,1.4c-2.1-0.5,0.5,0.2,4.6,1.5
						c-2-0.5-3.9-1.1-5.7-1.6l5.2,1.5c-0.1,0-1.7-0.5-2.5-0.7c2.1,0.7,6.4,1.8,8.5,2.5c3.6,1.1,1.2,0.4-1.2-0.2
						c-2.3-0.6-4.7-1.3-0.3,0.2c-1.9-0.5-4.2-1.3-6.8-2.1c2.9,1,4,1.4,5.3,1.9s2.8,1.1,6.7,2.6c-1.5-0.3-3-0.7-4.5-1.1
						c5.2,1.5,11.3,4,16.1,6.4c0.3,0.1,0.6,0.2,0.9,0.3l0.3,0.1l0.3,0.1c0.4,0.1,0.7,0.2,1,0.2c0.6,0.2,1.2,0.3,1.5,0.3
						c0.3,0.3,0.7,0.6,1,0.9c0.1,0.1,0.7,0.4,0.8,0.6l0.5,0.5c-0.8-0.2-2.3-0.9-4.1-1.7c0.4,0.2,0.7,0.4,1,0.6
						c-0.4-0.1-0.9-0.2-1.4-0.4c-0.3-0.1-0.5-0.2-0.8-0.3c-0.4-0.2-0.8-0.3-1.2-0.5c-1.8-0.7-3.7-1.6-5.5-2.4
						c1.4,0.4,2.9,0.9,4.3,1.3c-4.1-1.8-8.7-3.6-12.7-5c0.8,0.3,1.4,0.6,1.8,0.9c-1.1-0.5-2.1-0.9-2.8-1.1c-0.7-0.2,0.8,0.4,2.5,1.1
						l-7.6-2.8l3,1.2c-1.7-0.4-3.3-0.8-4.9-1.3c7.5,3.5,18.3,9,20.7,11.7c-5.2-2.9-8.7-4.4-15.1-7.5c3.4,1.6,2.8,1,1.5,0.2
						s-3.3-2-2.6-1.8c-0.8-0.1-3.9-1.6-4.9-2.1c2,1.1,4,2.3,5.9,3.5c-5.2-2.5-4-1.8-6.2-2.7c10.3,5,6.6,3.9,9.5,5.9
						c-3.4-1.8-6.8-3.7-5.8-3.6c-3.9-1.8-1-0.2,2.1,1.6c3,1.8,6.2,3.7,2.9,2.1c0-0.1,0.5,0.1-1.2-0.9c2.9,1.9,0.2,1-2.6-0.8V144
						c-0.7-0.1-1,0.2-0.1,1.3c0.9,1,2.9,2.8,6.9,5.6c-1-0.7-9.5-6.6-11.2-7.7c4.4,3.2,8.7,6.4,13,9.7l3.2,2.5l1.6,1.3l1.3,1
						c1.7,1.4,3.3,2.8,4.9,4.2c-1.3-1-3.1-2.3-5.2-3.8c-2.4-1.7-5-3.6-7.5-5.5c-5.3-3.9-10.1-7.5-11.9-9c-1-0.6-2.2-1.3-0.1,0.6
						c1,0.7,9.7,7,10.2,7.6c-3.6-2.5-4.6-3.2-5.7-3.9c-0.9-0.6-1.7-1.1-4.9-3.4c1.5,1,11.5,9.1,10.9,9.1c-1.5-1.2-9.9-8-10.9-8.9
						c3.2,2.8,6.2,5.5,9.2,8.4c-1.6-1.6-8.2-6.9-10.9-9.1c1.9,1.6-0.5,0.1,0.4,1l2.3,1.8c-0.9-0.5,2.2,2.6,5.4,5.7
						c3.2,3.2,6.4,6.5,5.7,6.6c-1.7-1.9-11.2-11-12.5-12c2.2,2.2,7.5,7.7,12.4,13.1c4.6,5.1,8.7,10.2,9.6,12.1l-2.4-2.3
						c0.6,1.1,1.2,2.2,1.8,3.4c-1.3-1.7-3-3.9-4.9-6.3c-0.9-1.2-1.9-2.4-2.9-3.7c-0.5-0.6-1-1.3-1.5-1.9c-0.6-0.7-1.1-1.4-1.7-2
						c-4.5-5.4-9.1-10.5-11.7-13.4c-2.2-1.9-3-3-3-2.6c-2.4-2.4-3.5-3.7-3.6-3.9c-0.6-0.4-1.2-0.9-1.8-1.4c5,5.3,4.6,5.6,8.7,10.2
						c-1.4-2-2.9-4-4.5-6c2.5,2.6,6,6.5,8.6,9.6s4.3,5.6,3.5,5.4c-2-2.1-8.4-9.9-10-11.7c1.6,1.9,2.7,3.9,1.5,2.6l-2.3-3.1
						c-1-1,0.5,0.9,1.6,2.4s1.8,2.7-0.5,0.1c-0.4-0.3-5.9-7.2-3.3-3.8c2.8,3.5,7.8,10,12.8,16.4c2.5,3.2,4.9,6.3,6.9,9
						c2,2.6,3.6,4.8,4.4,6c-0.2-0.2-1.8-1.5-3.4-3.1c-0.8-0.8-1.7-1.7-2.6-2.6c-0.9-1.1-1.7-2-2.3-2.6c-2.1-2.5-4.3-5.6-6.4-8.7
						c-2.1-3.1-4-6.2-5.9-8.3c1.1,1.6,2.3,3.8,2.7,4.4c-1.3-1.1-3.6-5-3.7-3.7c4.4,5.9-1.8,0.6,3.5,5.1c0.7,2.1-1.6-0.6-2.3,0.4
						c1.7,1.6,4.2,4.8,6.6,7.7c2.3,2.9,4.5,5.5,5.1,6.3c-1.3-1.3-3.1-2.9-4-3.6c-0.6,0.2-1.6-0.2-2.6-0.4s-2-0.3-2.4,0.3
						c-1.5-0.9-3.7-1.3-6.1-3.2c0.9,0.9,2.9,2.4,2.9,2.9c-2.9-1.1-3-1.4-3.2-1.9s-0.5-1.2-3.9-2.6c3.5,2.2,4.3,4.3,6.4,6
						c2.9,1.2,3.3,1.1,2.8,0.3c-0.5-0.7-2-2.1-2.9-3.1c3.8,2.3,7.5,4.9,10.9,7c1.7,1,3.2,2,4.6,2.7c0.3,0.2,0.7,0.3,1,0.5l0.5,0.2
						l0.2,0.1l0,0l-0.4-0.2c-0.4-0.2-0.5-0.2-0.5-0.2l0,0l0,0c0,0,0,0-0.1,0c-0.3-0.1-0.6-0.2-0.9-0.3c-0.5-0.2-0.7-0.3-0.4-0.2
						c-0.2,0-0.1,0,0.1,0.1c0.1,0,0.3,0.1,0.5,0.2c0.1,0,0,0,0,0l0,0h-0.1c-0.2-0.1-0.3-0.1-0.4-0.1s-0.2,0-0.3-0.1
						c-0.2,0-0.3,0-0.4,0c-2.7-0.1-4.1-0.1-5.6-0.2c-1-0.3-0.1-0.5,1-0.4c1.1,0,2.4,0.2,2.4,0.1c-0.9-0.1-1.7-0.2-2.6-0.2
						c-1.8-0.4-3-1.1-1.4-1c-2.4-0.5-2.8,0.3-3.1,1.1c-0.2,0.9-0.3,1.8-2.1,3.1c1.8,0,3.6-0.2,5.5-0.9c-0.3,0-0.5-0.1-0.8-0.1
						c2-0.6,3.4-0.7,4.6-1c0.6-0.1,1-0.2,1.5-0.4c0.2-0.1,0.4-0.1,0.6-0.2l0,0c0,0,0.2-0.1,0.3-0.1c0.1,0,0.2-0.1,0.3-0.1
						c0.1-0.1,0.3-0.1,0.4-0.2h0.1l0,0l0,0c0,0,0.1,0-0.1,0l-1.3,0.7c0.3-0.2,0.7-0.3,1.1-0.6l0.1-0.1h0.1h-0.1l-0.1,0.1
						c-0.1,0.1-0.2,0.1-0.3,0.1c0.1,0,0.1-0.1,0.2-0.1h0.1c-0.1,0.1-0.3,0.1-0.4,0.2c-0.3,0.2-0.6,0.3-0.9,0.5
						c-1.2,0.7-1.7,1.2,1.4-0.7l0.8-0.5l0.1-0.1l0,0l0,0l-0.1,0.1l-0.3,0.2c0.2-0.1,0.7-0.4,1.1-0.7c0.3-0.2,0.5-0.4,0.8-0.5
						c0.3-0.2,0.6-0.4,0.8-0.6c-0.5,0.4-0.2,0.2-1.1,0.8c0.2-0.1,0.1-0.1-0.1,0.1c-0.2,0.2-0.4,0.3-0.7,0.5
						c-0.6,0.4-0.9,0.5-0.6,0.3c-0.2,0.1-0.5,0.3-0.7,0.4c-0.2,0.1-0.3,0.2-0.6,0.3c0,0,0.1,0,0,0c0,0-0.1,0-0.2,0.1c0,0,0,0-0.1,0
						l0,0l0,0l0,0h0.1c-0.1,0-0.2,0.1-0.3,0.1c0,0,0,0-0.1,0l0,0l-0.3,0.1l0,0l0,0l0,0l0,0l0,0l0,0c0.1,0,0.2,0,0.3-0.1l0,0
						l-0.3,0.1l0,0l0,0l0,0l0,0l0,0h0.2c0.1,0,0.2,0,0.3,0c0.1,0,0.2,0,0.4,0c0.1,0,0.2,0,0.3,0.1c0.1,0,0.2,0,0,0
						c0.3,0.1,0.6,0.1,0.9,0.2l0,0c1,0.3,2.3,1,3.5,1.8c0.3,0.2,0.7,0.5,1.2,0.9l0.1,0.1c0.2,0.1,0.4,0.3,0.6,0.5
						c0.2,0.1,0.3,0.3,0.3,0.3c0.1,0.1,0.3,0.3,0.3,0.3c1.3,1.5,2.6,3.1,3.9,4.7c0.4,0.4,0.7,0.9,1,1.3c0.9,1.1,1.7,2.2,2.2,3l0,0
						l3.5,4.8l0,0l-0.1-0.1l-0.2-0.3l-0.4-0.6l-0.8-1.1l-1.6-2.2c0.1-0.2,0.2-0.4,0.2-0.8c0-0.2,0-0.4,0-0.6v-0.3v-0.3
						c0-0.8-0.1-1.7-0.5-3l-2.9-3.6c-0.5-0.9-0.5-1.3-0.3-1.4c0.3-0.1,0.8,0.1,1.4,0.4c1.2,0.6,2.8,1.3,3.1,0.6
						c1.1,1.4,0.5,1.3-0.3,0.7c2,1.6,2.8,1.9,3,1.5c0.1-0.2,0.1-0.6-0.1-1c-0.1-0.2-0.1-0.5-0.2-0.7s-0.2-0.5-0.2-0.7
						c-0.2-0.5-0.4-1-0.5-1.5l-0.1-0.3l-0.1-0.3c-0.1-0.2-0.1-0.4-0.1-0.6c0-0.3,0.1-0.5,0.3-0.5c0.3,0.1,0.9,0.3,1.7,0.9
						c-0.4-0.7-0.5-0.9-0.3-0.9s0.5,0.1,1,0.4c0,0,0,0.1,0.1,0.2c0.1,0,0.1,0,0.1-0.1c0.6,0.4,1.3,0.8,1.9,1.2
						c-0.8-0.6-1.6-1.1-1.9-1.2c0-0.2,0-0.4-0.1-0.8c-0.1-0.4-0.2-0.7-0.4-1.2l3.6,3.1c0-0.1,0-0.1,0-0.1c1.7,0.9-1.4-1.7-4.2-4
						c-0.4-0.6-1-1.4-1.8-2.3c2.9,2.4,2.5,1.7,2.3,1.1c-0.3-0.6-0.5-1.2,2.5,1.2c-1.4-1.4-1.5-2.2-2.1-3.2c-0.5-1-1.7-2.6-4.8-5.2
						c0.8,0.6,1.3,0.9,1.2,1.1c0.9,0.3,1.9,0.5,0.3-1.2l4.6,3.3c-1.8-1.8-3.7-3.6-5.5-5.2c3.1,1.7,4.9,2.7,8,5.6
						c-1.1-1.2-1.7-2-2.1-2.5s-0.6-0.8-0.8-1.1c-0.4-0.6-0.8-1.1-3.2-3.4l2.9,2.1c0.1-0.5-3.6-3.6-1.1-2.2c1.5,0.7,2.4,0.8,3,0.6
						c0.4-0.1,0.7-0.2,1-0.3c0.1-0.1,0.3-0.2,0.4-0.3s0.1-0.3,0.2-0.4c0.3-0.6,0.5-1.2,1-1.7s1-0.9,2.9-0.7
						c-4.4-1.9-3.3-1.7-1.9-1.3c0.4,0.1,0.7,0.2,1,0.2s0.4,0,0.5,0c0.1-0.1-0.4-0.5-2-1.3c2,0.8,3.2,1,4.9,2.2c-1-1.2-0.2-1.3,0-1.7
						c0.3-0.3,0.1-0.8-2.6-2.4c1.9,0.6,2.8,1.5,3.9,1.8c-0.4-0.3-1.7-1.1-0.6-0.8s1.6,0.9,2.5,1.5c-0.1-0.2-0.3-0.4-0.5-0.7
						c-0.1-0.1-0.2-0.2-0.4-0.4c-0.1-0.1-0.2-0.2-0.3-0.3c-0.5-0.4-1.4-0.9-2.4-1.4c-2.1-1-4.9-2.2-7.6-3.3c0.7,0.1,1.3,0.2,1.6,0.2
						c0.2,0,0.3,0,0.4,0s-0.1-0.1-0.2-0.1l-0.3-0.2c-0.3-0.2-0.3-0.2-0.4-0.3s-0.3-0.2-0.5-0.3c-0.4-0.3-1.1-0.6-1.9-1
						c1.8,0.5,3.8,0.8,4.1,1.7c0.1-0.1,0.4-0.2,0.7-0.3c0.2-0.1,0.3-0.2,0.5-0.3c0.2,0-0.1-0.2-0.2-0.3s0-0.1,0-0.1s0-0.1,0.1-0.1
						c0-0.1-0.1-0.2-0.1-0.2c0-0.1,0-0.1-0.1-0.2l-0.1-0.1c0,0,0-0.1-0.1-0.1c-0.1-0.1-0.1-0.1-0.2-0.2c-0.3-0.3-1.2-0.6-2.2-1
						c1,0.2,0.3-0.3-0.4-0.5c-0.1-0.3,0.2-0.3,0-0.4c-0.1-0.1-0.1-0.1-0.1-0.2c-0.1-0.1-0.2-0.2-0.4-0.3l-0.6-0.1
						c-2.7-0.9-3.2-1-3-1s1,0.2,0.5-0.1l0.6,0.2c1.6,0.2,1.1,0,0.6-0.2s-1-0.4,1.1,0l-3.6-1c-4-1.1-3-0.9-1.5-0.6
						c1.5,0.3,3.8,0.7,2,0.1l-2-0.4c-1.5-0.5,1,0.1,4.2,0.8s6.9,1.5,7.4,1.5c0.7,0.1,1.2,0.4,1.8,0.6c4.7,0.6-5.2-1.3-6.8-2.1
						c2.8,0.6,7.3,1.8,7.6,1.7c1.1,0.2-1.3-0.6-3.4-1.3s-4-1.3-1.2-0.9c-2.3-0.4-4.5-0.8-6.4-1.4c-0.3-0.1,0.1-0.1,0.7-0.1
						s1.3,0.1,2,0.1c1.1,0,1.7-0.1-2.2-1c0.6,0.1,1.3,0.2,1.9,0.3c-1.1-0.3-2.2-0.8-3.5-1.2s-2.8-0.9-5.1-1.4c8,1.3,5.6,0.4,3-0.5
						c-0.6-0.2-1.2-0.4-1.8-0.6c-0.5-0.2-0.8-0.3-0.8-0.4c0-0.2,1.2-0.1,5.1,0.4c-0.2-0.2-0.5-0.5-0.8-0.7l-0.4-0.4
						c-0.2-0.1-0.4-0.3-0.6-0.4l0,0l1.2,0.2h0.4l0,0c0.2-0.2,0-0.4-0.3-0.6c-0.4-0.2-1-0.4-1.7-0.6c-1.4-0.4-3.4-0.7-5.3-0.9
						c0.9-0.1,2.4,0.1,3.2,0.2c0.6-0.3,1-0.6,1.2-0.8c0.1-0.3-0.1-0.5-0.6-0.7s-1.3-0.4-2.6-0.7c-1.3-0.2-3-0.5-5.1-0.8l4.6-0.2
						c-0.8-0.1-0.8-0.3-0.5-0.6c0.1-0.1,0.3-0.3,0.5-0.5s0.4-0.4,0.5-0.6c0.1-0.2,0.2-0.5,0.2-0.7v-0.1l0,0c0,0-0.1,0-0.2,0
						l-0.8-0.1c-0.6-0.1-1.1-0.1-1.7-0.2c-2.4-0.2-5.3-0.4-8-0.5c0.3,0,0.8-0.1,1.9,0c-0.4,0-0.8,0-1.2-0.1H93h-0.3
						c-0.1,0,0,0-0.1,0c-0.1-0.1-0.2-0.2-0.2-0.3c-0.1-0.2-0.1-0.5,0-0.7c0-0.1,0.1-0.3,0.1-0.4l0.1-0.2v-0.1v-0.1l0.3-0.1
						c0.8-0.3,1.7-0.7,2.5-1c0.4-0.2,0.9-0.3,1.3-0.5l0.6-0.3l0.3-0.1h0.1c1.6-0.4,2.6-0.4-2.8,0.2c-0.7,0-1.6,0-2.4-0.2
						c-0.7,0.4-1.8,0.5-3.2,0.5c-1.3,0-2.8,0-3.8,0.3c-0.3-0.2,0.5-0.5,1.6-0.7s2.3-0.3,2.6-0.1l-0.6,0.1c3-0.1,3.7-0.4,4.2-0.5
						c0.5-0.2,0.8-0.4,3-0.3c0.1-0.1,0.3-0.2,0.5-0.3c0.2-0.1,0.5-0.2,0.8-0.3c0.6-0.1,1.5-0.3,2.3-0.3c0.8-0.1,1.7-0.1,2.4-0.1
						c0.7,0,1.3-0.1,1.6-0.3l-6.2-1.8l0.6-0.3c1.5,0.4,4.9,1.5,4.5,1.6c1.8,0.5,1.2,0.2-0.1-0.3c-1.3-0.5-3.2-1.3-3.8-1.5
						c1.4,0.1,3.2,0.9,4.6,1.5s2.6,1.1,2.7,1.1c-0.1-0.1-0.2-0.2-0.3-0.3l-0.8-0.2c-2.4-1-5.1-2-4.6-2.3c1.3,0.2,3.8,1.3,4.1,1.4
						c0.4,0.2,0.6,0.2,0.2-0.1c0.3-0.1,0.5-0.2,0.7-0.3l-4.9-1.8c-2.3-1.2,0.5-0.5-5.1-2.5c4.3,1.5,5.2,1.3,5.5,0.6
						c0.2-0.6-0.2-1.6,1-1.1c-1.6-1.1-2.3-1.7-2.6-2.1c-0.2-0.5,0-0.7,0.3-1c-1-0.3-6-2.7-5.1-3c10.1,5.4,4.8,1.2,12.1,4.2
						c-4.8-1.9-0.8-2.6-7.6-5.1c0.9-0.2,3.7,1.8,6.1,2.4c-1.8-1.7-1-2.1,0-2.6c0.5-0.3,1.1-0.5,1.4-0.9s0.5-0.8,0.2-1.5
						c-1.2-0.5-3-0.9-4.7-2c2,0.4,3.9,0.8,5.8,1.2c-0.6-0.7-6.5-2.8-2.6-2.2c-0.9-0.2-2.3-0.6-2.7-1c1.4-0.5,1.7-1.5,1.5-2.6
						c-0.1-0.5-0.2-1.1-0.5-1.7c-0.2-0.6-0.5-1.1-0.7-1.7s-0.4-1.1-0.6-1.7c-0.2-0.5-0.3-1.1-0.3-1.6s0-1,0.1-1.6
						c0.1-0.5,0.2-1.1,0.4-1.6c-0.6,0.6-1,0.2-1.4-0.2c0,0.3-1.3,0.1-2,0.2c0.4-0.5,0.5-1.1,0.5-1.6c-0.9,0-1.2-0.4-1.7-0.7
						c-0.4-0.3-0.8-0.6-1.3-0.6l0.6,0.3c-0.9-0.1-1.2,0.2-2,0.6c-0.7,0.4-1.8,0.8-2.7,1c0.7,0.1,0,0.6-1.1,1
						c-0.5,0.2-1.1,0.4-1.4,0.6c-0.7-0.8-0.7-0.7,0.2-0.5c-0.8,0.2-0.9-0.1-1.8,0c1.2,0.1,1.4,0.4,0.2,0.7l-0.3-0.1
						c-0.8,1-3,1.2-6.1,1.4l2.7,0.6c-0.6,0.1-1.5-0.1-2.3-0.2c3.7,1.2,1-0.4,5,0.8c-2.7-0.4-3.3-0.2-3.9,0.1
						c-0.6,0.2-1.2,0.5-4.8-0.6c-0.5,0.2,3.5,1.1,3.1,1.3l-2-0.6l2.3,0.9c-0.7,0.1-3.2-0.8-4.8-1.4c0.3,0-0.2-0.3-0.3-0.3
						c-2.7-0.7-0.4,0.7-1.3,0.5l1.7,0.3c0.3,0.7-0.5,1-1.1,1.4c-0.5,0.5-0.8,1.1,0.9,2.7l1.7,0.7c2.3,2.3-2.4-0.3-1.8,1.4l-0.4-0.2
						c1.5,1,2.2,1.7,1.8,1.9c-1.8-1.3-4.3-1.5-6.2-3c1.3,1.3,1.9,1.8,2.9,2.4s2.4,1.4,5.4,3.4l-3-1.3c2.5,1.6,3.8,2.3,4.3,3.3
						c-2.2-1.7-4.7-1.8-7.7-4c-3.7-0.9-2.4,0.5-1.3,1.5c1,1,1.8,1.8-3.3,0c8.1,4.3,5.3,0.8,7,2c2.9,0.9,6,3.3,5,3.4
						c-0.4,0.3-11.3-3.9-11.6-2.4c0.1-0.1-0.6-0.4-0.5-0.5c-2.4-0.3,2.6,2.2-1.1,1.5c5.1,2.2-0.5,0.8,6.1,3.2
						c-0.4-0.6-0.8-1.2-1.2-1.8c0.8,0.7,3.1,1.9,4.7,2.8c1.6,1,2.5,1.7,0.5,1.6c-1.3-0.5-3-1.4-4-2c-2-0.3,1.2,1.1-0.9,0.8
						c-3.3-1-3.6-1.6-3.7-2.2s0.1-1.2-2.4-2.5c-2.9-0.5,4.5,3.3-2.6,0.5c4.5,1.9,4.2,2.1,3.6,2.4s-1.4,0.7,2,2.1l-3.9-1.1
						c0.6,0.4,2.5,1.2,2.4,1.5l-5.1-2c2.2,1.1,1.2,1.3,0.1,1.6c-1.1,0.2-2.5,0.5-1.3,1.3c-0.2-1.2,1-1,2.5-0.6
						c1.5,0.4,3.4,1,4.8,0.9c1.3,0.9,1.3,1.2,0.7,1.4c-0.6,0.2-2,0.1-3.4,0c-2.8-0.1-6-0.1-4.6,1.7c-0.7-0.6,1.8-1.4,3.7-0.4
						c-0.7,0.4-1.8,1.1-3.6,1.3c0.8,1.2,1.6,1.1,2.6,1s2.2-0.4,3.4,0.1c-2.1,0.1-1.5,0.4-0.3,0.8s3.1,0.7,3.9,1.2l-3.5-0.1
						c-1.2,2.2,7.2,0.6,5.3,2.5c-1.6-0.2-3.2-0.4-4.8-0.7c0.6,0.4,1.1,0.7,1.6,1l-3.9,0.1c1.7,0.6,2.3,0.9,2.6,1.3
						c0.2,0.4,0,0.8-0.1,1.4c1.9-0.5,5.4-0.5,5.9,0.2c-1.3,0.9-2.9,0.2-1.7,1.3c-0.9,0-2,0.1-2.6,0s-0.7-0.4,0.5-0.9
						c-1,0.1-2,0-2.9,0.1c-0.7,0.5-0.5,1,0,1.5c0.2,0.2,0.5,0.4,0.8,0.6c0.2,0.1,0.5,0.4,0.5,0.3h0.1c0-0.1,0-0.1,0-0.2
						c0-0.1,0.1-0.2,0.2-0.3l0.6,0.1c0.2,0,0.4,0.1,0.6,0l0.9-0.2c0.6-0.1,1.2-0.1,1.9-0.2c-1,0.3-1.8,0.3-2.6,0.4
						c0.3,0,1.6-0.1,1.8,0c-2.2,0.3-4.4,0.7-5.5,0.8c0.8-0.1,1.7-0.1,2.5-0.1c-0.9,0.2-2.6,0.5-3.4,0.5c-0.6,0.1,0.5,0,1.6,0.1
						c1.1,0,2.2,0.1,1.3,0.2c0.5,0,0.9,0,1.3,0.1c-0.2,0.1-1,0.2-1.3,0.3s-0.2,0.1,1.6,0.3c-1.4,0-2.9-0.1-4.4-0.2
						c0.6,0.1,2,0.2,3.5,0.3s3,0.2,4.1,0.4c1.8,0.4-3.8-0.3-5-0.3c0.4,0,0.8,0.1,1.2,0.2c0.6,0.1,1.2,0.2,1.8,0.3
						c0.6,0.1,1.2,0.2,1.6,0.3c0.8,0.2,0.8,0.2-0.8,0.1C72.7,132.4,73.4,132.4,72.9,132.3z M78.1,134.6c-0.9-0.3-3.7-0.9-1.3-0.4
						C81.6,135.4,79.4,134.9,78.1,134.6z M93.6,143.3c-1.7-0.8-0.8-0.5,1.2,0.1C95.2,143.7,95,143.7,93.6,143.3z M89.9,174.4
						L89.9,174.4C90.1,174.4,90,174.4,89.9,174.4z M89.6,174.4L89.6,174.4L89.6,174.4C89.7,174.4,89.7,174.4,89.6,174.4z
						 M102.6,119.4l-1.1-0.3C100.4,118.4,101.4,118.9,102.6,119.4z"/>
					<path class="st0" d="M86.9,139.7c1,0.3,1.9,0.7,2.8,1C88.8,140.3,87.8,140,86.9,139.7z"/>
					<path class="st0" d="M70.2,131L70.2,131c-0.2,0-0.3,0-0.5,0H70.2z"/>
					<path class="st0" d="M74.9,148.1c0.7,0.4,1.4,1.1,2,1.8C76.2,148.9,75.4,148.1,74.9,148.1z"/>
					<path class="st0" d="M91.8,173.4c-0.2,0.1-0.4,0.2-0.6,0.3C91.5,173.6,91.6,173.5,91.8,173.4C91.7,173.5,91.6,173.5,91.8,173.4
						z"/>
					<path class="st0" d="M85.7,182c0.4-0.3,0.1,0.1,0.5-0.2l1.2-1.4C87.1,180.3,86,181.2,85.7,182z"/>
					<path class="st0" d="M92.5,173L92.5,173c-0.2,0.1-0.4,0.2-0.5,0.4c-0.3,0.2-0.5,0.3-0.5,0.4c-0.1,0.1,0.3-0.2,0.6-0.3l0,0
						c0.5-0.4,0.9-0.7,1.3-0.9c0.1-0.1,0.2-0.1,0.2-0.2l0,0l0,0c-0.1,0.1-0.2,0.1-0.2,0.2c-0.1,0.1-0.3,0.2-0.4,0.3
						C92.7,172.8,92.6,172.9,92.5,173z"/>
					<path class="st0" d="M92.1,173.4C92.2,173.3,92.2,173.3,92.1,173.4C93.6,172.2,92.4,173.1,92.1,173.4z"/>
					<path class="st0" d="M89.8,174.3L89.8,174.3C89.9,174.3,89.9,174.3,89.8,174.3L89.8,174.3c-0.1,0-0.2,0-0.4,0.1l0,0
						C89.6,174.4,89.6,174.4,89.8,174.3z"/>
					<path class="st0" d="M83.6,179.1c1.2-0.9,2.4-1.8,3.7-2.6c-1,0.6-2,1.3-3.1,1.9C84,178.6,83.8,178.9,83.6,179.1z"/>
					<path class="st0" d="M85.7,175.7c-0.4,0.2-0.8,0.5-1.1,0.8c0.7-0.3,1.2-0.4,1.5-0.5C86.2,175.7,87.1,175.2,85.7,175.7z"/>
					<path class="st0" d="M86.1,175.9c-0.1,0.1,0.1,0.2,0.8-0.1C86.8,175.8,86.6,175.8,86.1,175.9z"/>
					<path class="st0" d="M82,179.2l0.7-0.6l0.1-0.5C82.6,178.4,82.3,178.8,82,179.2z"/>
					<path class="st0" d="M87.2,172.9c-0.4-0.3-0.8-0.6-1.2-0.9c-1.6-0.8-2.6-1.1-2.1-0.7C85,171.9,85.5,172.3,87.2,172.9z"/>
					<path class="st0" d="M73.2,171c1.1-0.1,2.2,0.1,3.9,0.4l-6.1-1.5C71.6,170.2,72.4,170.6,73.2,171z"/>
					<path class="st0" d="M72.6,167.1c-0.8-0.4-1.8-1.3-2.7-2c-0.8-0.6-1.5-1-1.6,0c0.8,0.4,1.4,1.1,2.1,1.5
						C71,167.1,71.7,167.3,72.6,167.1z"/>
					<polygon class="st0" points="86.7,162.2 86.6,162.3 93.1,171 					"/>
					<path class="st0" d="M73,139.9c-2.1-1.7,5,4.8,2.4,2.6c1.9,1.9,2.2,1.8,3.8,3.4C77.3,143.8,78.6,144.9,73,139.9z"/>
					<path class="st0" d="M79.2,145.9c0.3,0.4,0.7,0.8,1.1,1.2C79.9,146.6,79.5,146.2,79.2,145.9z"/>
					<path class="st0" d="M98.9,86.4c-0.1-0.2-0.3-0.3-0.5-0.5c0,0.1,0,0.3,0,0.4L98.9,86.4z"/>
					<path class="st0" d="M96.4,85.9l0.6-0.3h-1.1C96.1,85.6,96.4,85.8,96.4,85.9z"/>
					<path class="st0" d="M66.9,132l1.4,0.4c1.5,0.4,1.6,0.4,1.8,0.4L66.9,132z"/>
					<polygon class="st0" points="70.1,132.4 70,132.4 74.4,133.2 					"/>
					<path class="st0" d="M64.3,131.3c0.2,0,0.5,0.1,0.8,0.1H65l0,0C64.7,131.3,68.8,131.6,64.3,131.3z"/>
				</g>
			</g>
		</g>
	</g>
	<path class="st1" d="M133.2,41.6c-4.4,9.1-12.5,11.9-12.5,11.9c11.3,8.2,13.2,17.4,13.2,17.4c3.1-13.7,12-17.2,12-17.2
		C137.1,49.3,133.2,41.6,133.2,41.6z"/>
	<path class="st2" d="M106.7,92v-6.1c0-0.3,0-0.6,0-1c0-6.1-4-11.3-9.6-13v-9.2h5.1c2.9,0,5.2-2.4,5.2-5.2c0-2.9-2.4-5.2-5.2-5.2H87
		c0,0-14.3,0.1-23.6,10.5c0,0-3.7,4.2,0,7.8c2.9,2.8,6.8,0.2,6.8,0.2s5.4-8,17.6-8h1.5v9.1c-5.6,1.6-9.7,6.8-9.8,13l0,0V92
		c-15.1,1.7-26.9,17.1-26.9,35.9v25.8V164v19.9c0,8,6.5,14.5,14.5,14.5h51.5c8,0,14.5-6.5,14.5-14.5V164v-10.3v-25.8
		C133.2,109.2,121.6,93.9,106.7,92z"/>
	<path class="st2" d="M93.2,80.6c2.4,0,4.4,2,4.4,4.4s-2,4.4-4.4,4.4s-4.4-2-4.4-4.4S90.7,80.6,93.2,80.6z"/>
	<path class="st3" d="M64.6,122.8h15.5c2.2,0,3.9,1.7,3.9,3.9s-1.7,3.9-3.9,3.9H64.6c-2.2,0-3.9-1.7-3.9-3.9
		C60.7,124.6,62.5,122.8,64.6,122.8z"/>
	<path class="st3" d="M116.7,159.3H64.6c-2.2,0-3.9-1.7-3.9-3.9s1.7-3.9,3.9-3.9h52.1c2.2,0,3.9,1.7,3.9,3.9
		C120.6,157.5,118.9,159.3,116.7,159.3z"/>
	<path class="st3" d="M116.7,144.7H64.6c-2.2,0-3.9-1.7-3.9-3.9s1.7-3.9,3.9-3.9h52.1c2.2,0,3.9,1.7,3.9,3.9
		S118.9,144.7,116.7,144.7z"/>
</g>
</svg>
