<?xml version="1.0" encoding="utf-8"?>
<!-- Generator: Adobe Illustrator 24.0.2, SVG Export Plug-In . SVG Version: 6.00 Build 0)  -->
<svg version="1.1" id="Layer_1" xmlns="http://www.w3.org/2000/svg" xmlns:xlink="http://www.w3.org/1999/xlink" x="0px" y="0px"
	 viewBox="0 0 198.4 198.4" style="enable-background:new 0 0 198.4 198.4;" xml:space="preserve">
<style type="text/css">
	.st0{fill:#FFEB3A;}
	.st1{fill:#646565;}
</style>
<g>
	<g>
		<g>
			<g>
				<g>
					<path class="st0" d="M154.8,159.8c0.5,0,0-0.3,0-0.3C154.1,159.5,154.9,159.9,154.8,159.8z"/>
					<path class="st0" d="M150.3,162.1l-0.3-0.4c0,0.4,0.1,0.7,0.2,1.1C150.2,162.6,150.2,162.4,150.3,162.1z"/>
					<path class="st0" d="M145.6,163.9c1.3,1,1.6,0.7,1.8,0.2c0.2-0.5,0.3-1,1.1-0.9l0.6,0.3l-1.1-1.5c-0.4,0.3-0.7,0.8-1,1.2
						C146.6,163.7,146.2,164.1,145.6,163.9z"/>
					<path class="st0" d="M137.5,159.6c1.2,0.9,0.2,0.9,1,0.2c-0.2-0.1-0.3-0.1-0.4-0.2C138.1,159.7,137.9,159.7,137.5,159.6z"/>
					<path class="st0" d="M138.2,159.6C138.7,159.5,137,158.9,138.2,159.6L138.2,159.6z"/>
					<path class="st0" d="M136,160.6c-0.1-0.4-0.1-0.7-0.2-1.1c-0.8-0.6-1.7-0.6-1.9-1.1C133.6,159,134.5,159.7,136,160.6z"/>
					<path class="st0" d="M137.4,162.8l-0.1-0.5C137,162,136.8,162,137.4,162.8z"/>
					<path class="st0" d="M137.3,161.2c0,0.3,0,0.7,0.1,1c0.6,0.4,1.5,1.3,0-0.4C138.2,162.7,137.5,161.9,137.3,161.2z"/>
					<path class="st0" d="M138.2,161.5c1,0.5,1.9,0.7,2.1,1.8C141.2,162.5,139.3,160.9,138.2,161.5z"/>
					<path class="st0" d="M147.7,166.3l1.1,0.3l-0.4-0.9C148.5,166.2,147,165.6,147.7,166.3z"/>
					<path class="st0" d="M166.4,178.1c-0.9-0.4-2.7-0.6-3.9-1c0.2,0.3,0.3,0.7,0.4,1C163.8,178.1,165,177.7,166.4,178.1z"/>
					<path class="st0" d="M162.5,177.1c-0.3-0.5-0.5-1-0.8-1.6C160.8,176.4,161.4,176.8,162.5,177.1z"/>
					<path class="st0" d="M140.5,165.9c-0.4-0.9-0.7-1.7-1-2.6c0.2,0.9,0.5,1.7,0.8,2.7L140.5,165.9z"/>
					<path class="st0" d="M169.8,173.8c0.6,0.4,1.3,0.9,1.9,1.3c-0.9-0.7-1.8-1.4-2.8-2.1L169.8,173.8z"/>
					<path class="st0" d="M171.2,170.6c1.8,0.9,4-0.2,5,0.7c0.2-1-1.3-2.1-2.7-3C174.1,169.1,173.5,169.9,171.2,170.6z"/>
					<path class="st0" d="M171.5,166.8c0.4,0.4,1.2,0.9,2,1.4C173.1,167.8,172.6,167.3,171.5,166.8z"/>
					<path class="st0" d="M163.3,174c0.7,0.1,2.3,0.4,3.4,0l-3.1-0.3C163.5,173.8,163.4,173.9,163.3,174z"/>
					<path class="st0" d="M163.5,173.6L163.5,173.6c0.4-0.4,0.7-0.7,0.8-0.8C164.3,172.9,164,173.2,163.5,173.6z"/>
					<path class="st0" d="M163.3,174.1C163.3,174.1,163.3,174.1,163.3,174.1C163,174,162.9,174,163.3,174.1z"/>
					<path class="st0" d="M157.2,177c-0.5-0.5-0.9-1.2-1.5-1.7c-0.7-0.5-1.6-0.9-3-0.8C154.1,175.4,155.7,175.3,157.2,177z"/>
					<path class="st0" d="M159.5,173.6l-1.3,0.8c0.7,0.2,1.9,0.4,2.4,0.9C160.3,174.7,159.9,174.1,159.5,173.6z"/>
					<path class="st0" d="M158.9,172.8c0.2,0.2,0.4,0.5,0.6,0.7l0.5-0.3L158.9,172.8z"/>
					<path class="st0" d="M167.5,168.7c-1.2-0.7-1.1-1.3-1-2c-0.9,0.6-1.5,1.3-1.8,2C165.6,168.9,167.3,169.5,167.5,168.7z"/>
					<path class="st0" d="M165.4,171.1c-0.1,0-0.1-0.1-0.1-0.1C165,171,164.9,171,165.4,171.1z"/>
					<path class="st0" d="M168.3,160c-0.2,0-0.4,0.1-0.7,0.1c0.2,0,0.4,0,0.6,0L168.3,160z"/>
					<path class="st0" d="M164,168.7c-0.8,0.4-0.2,0.8,0.6,1.3c-0.1-0.4-0.1-0.9,0-1.3C164.3,168.6,164,168.5,164,168.7z"/>
					<path class="st0" d="M170.6,164.7c-0.8,0.3-1.5,0.6-2.2,0.9C169.6,165.4,171.5,164.8,170.6,164.7z"/>
					<path class="st0" d="M166.2,171c0,0,0.1,0.1,0.1,0.1C167,171.1,166.7,171,166.2,171z"/>
					<path class="st0" d="M166.2,171c-0.3-0.4-1-0.7-1.5-1c0.1,0.3,0.3,0.7,0.6,1C165.5,171,165.9,171,166.2,171z"/>
					<path class="st0" d="M145.1,160.2c1.7-0.1,3.4-0.1,4.1,0.2c0.8,0.3,0.7,0.7-1.1,1.1c1.3,0.3,4.5,0.3,8.3,0.1
						c3.8-0.2,8.1-0.8,11.2-1.5c-1.5,0-2.7,0.1-4.6-0.9c-0.9,0.3-2.1,1-3.3,1.5c-1.3,0.5-2.6,0.8-4.1,0.4c-1.6-1.1,1.2-1.1,3.1-1.9
						c-2.1,0.5-3.6,0.2-5.4,0c-1.8-0.2-3.9-0.3-7,0.2c0.8,0.2,1.5,0.4,2.3,0.6C147.5,160,145.9,159.9,145.1,160.2z"/>
					<path class="st0" d="M166.8,162.5c0.1,0.2,0.2,0.3,0.3,0.5c0.7-0.6,2.1-1,4.8-1.9c-1.4-0.9-2.6-1-3.7-1c-0.3,0.9-0.6,1.8-1,2.6
						L166.8,162.5z"/>
					<path class="st0" d="M166.4,165.4c-3.2-0.7-4.5-1.7-8.3-1.3c0,1.2,2.7,1,3.9,1.9c-0.1-1.1,0.3-0.9,1.1-0.6
						c0.7,0.3,1.8,0.7,3-0.1c0.4,0.5,0.4,0.9,0.4,1.4c0.6-0.4,1.2-0.8,2-1.1c-0.1,0-0.2,0-0.2,0l0,0c0,0,0,0-0.1,0
						c-0.5,0.1-0.7,0.1-0.4,0c0,0,0,0-0.1-0.1C167.2,165.5,166.8,165.4,166.4,165.4c0.9-0.7,0.9-0.1,1.3,0.2c0.2,0,0.3,0.1,0.5,0.1
						l0,0c-0.4-0.9-0.7-1.7-1.2-2.6C166.4,163.6,166.4,164.2,166.4,165.4z"/>
					<path class="st0" d="M147.7,171.4c0.2,0,0.4,0.1,0.6,0.2C148,171.4,147.8,171.3,147.7,171.4z"/>
					<path class="st0" d="M149.5,171.4c0.3,0.2,1.3,0.7,0.9,1c-0.9,0-1.2-0.5-2.1-0.8c0.6,0.4,1.4,1.4,3.1,1.2l-0.3-0.2
						c0.6-0.1,1.8-0.1,3-0.1c1.2,0.1,2.2,0.1,2.4,0.3C153.9,172.2,152,171.9,149.5,171.4z"/>
					<path class="st0" d="M156.7,169.1c-0.3-0.6-0.6-1.2-1-1.8c-1,0.1-2,0.2-3,0.3l1.6,0.2C153.5,168.6,155.5,168.8,156.7,169.1z"/>
					<path class="st0" d="M170.1,159.6l3.8,0.1c-1.7-0.4-3.5-0.7-5.2-1C169.2,159,169.6,159.3,170.1,159.6z"/>
					<path class="st0" d="M170,156.8l3.4-0.3c-0.6-0.2-1.3-0.4-2-0.6L170,156.8z"/>
					<path class="st0" d="M97.6,134.7l-0.9,0.4C97.1,134.9,97.4,134.8,97.6,134.7z"/>
					<path class="st0" d="M98.3,134.6l1.4-0.6C98.9,134.4,98.4,134.6,98.3,134.6z"/>
					<path class="st0" d="M114.6,133.7c-1.4-3.4-3.1-8.7-1.9-4.4l1.3,4.1C114,132.5,114.2,132.9,114.6,133.7z"/>
					<path class="st0" d="M123.4,141.3c-0.3-0.1-0.6-0.1-0.9-0.2c0.9,0.5,1.7,0.9,2.5,1.4C124.5,142.1,124,141.7,123.4,141.3z"/>
					<path class="st0" d="M112,137c0.7,0.2,1.4,0.4,2.1,0.5C113.4,137.3,112.7,137.2,112,137z"/>
					<path class="st0" d="M88.5,132.8c-0.4,0-0.9,0.1-1.3,0.1l-1,0c0,0.1,0.1,0.2,0.1,0.2c0.1,0.1,0.2,0.1,0.3,0.1
						c0.2,0,0.4,0,0.6-0.1C87.6,133.1,88,132.9,88.5,132.8z"/>
					<path class="st0" d="M126.1,128c-1.3-1.3-2-1.8-2.3-1.9C125.7,128.1,128.4,131.1,126.1,128z"/>
					<path class="st0" d="M126.4,122.7c-0.9,0.4-1.2,0.5-1.6,0.7C125.7,123,126,122.8,126.4,122.7z"/>
					<path class="st0" d="M123.2,126.4c0.3,0.4,0.5,0.5,0.8,0.8c-0.3-0.7-0.5-1.3-0.1-1.1C122.4,124.6,121.5,123.7,123.2,126.4z"/>
					<path class="st0" d="M68.2,97.1c0.1,0,0.2,0,0.4,0.1C68.3,97,68.2,97,68.2,97.1z"/>
					<path class="st0" d="M85.5,83.9c0.3,0,0.7,0.2,1.1,0.3C86.5,84.1,86.2,84,85.5,83.9z"/>
					<path class="st0" d="M171,144.2C171.4,144.8,171.5,144.2,171,144.2L171,144.2z"/>
					<path class="st0" d="M156.2,152.1c-0.5,0-1,0.1-1.9,0.4C155.2,152.2,155.9,152.1,156.2,152.1z"/>
					<path class="st0" d="M137.3,151.4C137.3,151.4,137.3,151.4,137.3,151.4C137.8,152.1,137.7,152,137.3,151.4z"/>
					<path class="st0" d="M169.5,145.8c0.4-0.4,0.8-0.8,1-1.2C170.2,144.9,169.9,145.2,169.5,145.8z"/>
					<path class="st0" d="M171.3,145.1c-0.1,0.3-0.2,0.5-0.3,0.7C171.7,145.6,172.1,145.4,171.3,145.1z"/>
					<path class="st0" d="M170.6,143.4c0.1,0.4,0,0.8-0.2,1.2c0.2-0.2,0.4-0.4,0.6-0.4C170.9,144.1,170.8,143.8,170.6,143.4z"/>
					<path class="st0" d="M94.5,116.8c0.1-0.1,0.2-0.1,0.3-0.2c-0.2,0.1-0.3,0.3-0.4,0.3c-0.1,0.1,0,0,0,0l0,0c0,0,0,0,0,0
						C94.3,116.9,94.2,117,94.5,116.8z"/>
					<path class="st0" d="M97.8,153c0,0,0.1,0.1,0.2,0.1c0.1,0,0.1-0.1,0.2-0.1L97.8,153z"/>
					<path class="st0" d="M95.8,149.7c4.4,2.5,3.6,2.8,2.3,3.4c3.9,0.6,7.7,1.2,11.6,2C105,153.5,100.4,151.7,95.8,149.7z"/>
					<path class="st0" d="M94.9,136.1c-0.6,0.3-1.2,0.6-1.8,0.9c-3.7,1.5-2.5,0.7-5.3,2.1c3.5-1.5,3.9-1.5,4.2-1.6
						c0.3-0.1,0.6-0.4,4.7-2.1l-1.6,0.6c0,0-0.4,0.2-0.4,0.2c-1.9,0.7-0.4,0.1,1.6-0.8c2-0.8,4.4-1.9,4.1-1.8
						c-0.5,0.2-1.7,0.7-2.9,1.2c0.9-0.4,1.8-0.7,2.7-1.1c0,0-1.7,0.7-1.7,0.7c0.5-0.2,0.9-0.3,1.5-0.4l-0.3,0.1
						c1.7-0.6,4.4-1.6,5.6-2c-1.2,0.7-1.2,0.4-2.4,1l3.6-1.1c-1,0.6-2.4,1.2-3.7,1.6c-0.6,0.2-1.3,0.4-1.8,0.5
						c-0.3,0.1-0.5,0.1-0.5,0c-2.4,1.2-3.5,1.7-3.7,1.9c0,0.1,0.7-0.1,1.6-0.4c0.4-0.1,0.9-0.3,1.4-0.4c0.4-0.1,0.6-0.1,0.8,0
						c0.2,0.1,0.2,0.1,0.1,0.4c-0.1,0.3-0.4,0.7-1,1.3c-0.6-0.1-1.3-0.2-1.8-0.2c-1.4,0.8-2.2,1.4-2.8,1.9c-0.3,0.3-0.5,0.5-0.7,0.7
						c-0.1,0.1-0.2,0.2-0.2,0.3c-0.1,0.1-0.1,0.2-0.1,0.3c0,0.3,0.2,0.6,0.2,1c0,0.2,0,0.4,0,0.7c0,0.1-0.1,0.3-0.1,0.4
						c0,0.1,0.1,0.3,0.1,0.4c0.1-0.1,0.2-0.3,0.3-0.6c0.2-0.3,0.5-0.6,0.8-0.9c0.6-0.7,1.3-1.5,2.1-2.2c1.7-1.5,3.9-2.8,5.9-3.1
						c-0.2,0.3-0.2,0.6,0.2,0.7c0.2,0,0.5,0.1,0.9,0c0.5-0.1,1.2-0.2,2-0.4c-3.3,1.9-1,1.6,0.9,1.8l-3.9,2.5c1.7-0.2,2.9-0.6,4-1.1
						c1.1-0.5,2.2-1.1,3.5-1.6c0.4,0.1,0.6,0.3,0.7,0.6c0,0.1,0,0.3,0,0.4c0,0-0.1,0.1-0.2,0.1c-0.4,0.2-1.1,0.7-1.6,1
						c1.9-2.2,1.9-1.8,2.2-1.8c0.2,0,0.4-0.1,0.9-0.5c0.2-0.2,0.5-0.4,0.9-0.7c0.2-0.1,0.4-0.3,0.6-0.5c0.1-0.1,0.2-0.2,0.3-0.3
						c0.1-0.1,0.1-0.1,0.2-0.2l0,0l0,0l0,0l0,0c-1.6,1,2.2-1.4,1.8-1.1l0,0l0,0c-0.3,0.2-0.5,0.3-0.7,0.4l-0.4,0.2
						c-0.1,0.1-0.3,0.1-0.4,0.2c-0.1,0.1-0.3,0.1-0.4,0.2l-0.2,0.1c0,0-0.1,0-0.1,0l0.1,0c0.2-0.1,0.5-0.1,0.9-0.1
						c-0.6,0.2-1.1,0.3-1.5,0.4c-0.3,0.1-0.5,0.1-0.8,0.2l-0.1,0l0.2-0.1c0.2,0,0.4-0.1,0.5-0.1c0.4-0.1,0.7-0.1,1.1-0.2
						c-0.1,0.1-0.9,0.2-1.3,0.2c0.4,0,1.2-0.2,2-0.3c0.8-0.1,1.6-0.2,1.9,0c1.8-0.1,0.4,0.3-1.1,0.6c-1.5,0.3-3.2,0.3-1.1,0.7
						c-1.2,0-2.3-0.2-3.7-0.3c1.2,0.2,1.6,0.4,2.2,0.5c0.6,0.2,1.4,0.4,3.3,1.1c-1-0.1-2-0.2-3-0.4c1.7,0.4,3.3,0.8,4.9,1.4
						c1.6,0.6,3.1,1.5,4.4,2.4c1.6,0.3,2.9,0.5,3.6,0.5c0.6,0.8,1.2,1.6,1.8,2.5c-0.7-0.1-2.1-0.9-3.7-1.9c0.3,0.2,0.6,0.5,0.9,0.7
						c-1.7-0.2-4-1.6-6.1-2.8c0.9,0.3,1.8,0.5,2.7,0.7c-2.4-1.2-5-2.3-7.5-3.1c0.4,0.2,0.8,0.4,0.9,0.5c-0.6-0.3-1.2-0.5-1.7-0.6
						c-0.5-0.2,0.4,0.2,1.4,0.6l-2.4-0.9l-1.2-0.5l-0.5-0.2l0,0l1.1,0.5l-0.4-0.2l-0.2-0.1l0,0l0,0l0,0l0,0l0,0
						c0.2,0.1-0.2-0.1-0.2-0.1l0,0l0,0l-0.1,0l-1-0.2c-0.7-0.1-1.3-0.3-2-0.5c3.9,2.8,10.3,7.8,11.3,10.7c-3.3-2.6-5.8-3.7-10.1-6.4
						c2.4,1.2,2.2,0.6,1.6-0.2c-0.6-0.8-1.6-1.9-0.9-1.9c-0.8,0-2.7-1.2-3.3-1.7c0.5,0.5,0.9,1.1,1.4,1.6c0.5,0.6,0.9,1.1,1.4,1.8
						c-3.4-2.2-2.9-1.4-4.7-2c7.2,4,3.7,3.8,5.3,5.9c-2.5-1.4-4.8-3.1-3.5-3.5c-3.1-1.3-1.3,0.3,0.7,1.9c2,1.6,4.2,3.3,1.4,2.4
						c0.1-0.2,0.6-0.1-0.6-1c1.8,1.7-0.8,2-2.9,0.5l0.1-0.3c-1,0.5-2,1.9-1.8,3.7c0.1,0.9,0.6,1.9,1.4,2.7c0.9,0.9,2.2,1.7,4,2.4
						c-1-0.3-8.8-3.3-10.2-4c7.5,4.5,15.7,8.1,24.6,10c-3.4-0.7-9.1-1.6-14.5-2.5c-5.4-0.9-10.4-1.8-11.9-3.6
						c-1.1,0.6-2.6,1.4-0.5,3.5c0.5-0.2,3.1-0.3,5.5-0.1c2.5,0.2,4.8,0.5,5.1,0.8c-2.4,0.1-3.7,0.3-4.6,0.5c-0.9,0.2-1.4,0.4-2,0.7
						l17,14.9c0.3,0.7,0.7,1.7,1.8,4.3c-0.8-1.4-2.4-12.3-1.8-12c0.2,1.6,2.4,10.7,2.3,11.8c-0.1-3.6-0.4-7.2-0.7-10.9
						c0.1,2,2.1,9.1,3.2,12.1c-0.7-2.1,1.7,0,1.9-1.1l-1.4-2.4c1.2,0.7,0.7-3.2,0-7.2c-0.7-4-1.5-8.2-0.7-8.2
						c0.6,2.3,3.8,14,5.3,15.1c-0.7-2.8-2.4-9.7-4.1-16.4c-1.7-6.7-3.6-13.4-4-15.8l1.4,3.1c-0.2-1.3-0.4-2.7-0.7-4
						c1.5,4.3,3.6,11.1,5.3,17.7c1.7,6.6,3,13,3.5,16.6c1.6,2.4,1.5,3.7,2.6,3.2c1.5,2.9,0.9,4.7,0.6,4.9l1.9,0.7l1.9,0.6
						c-2.6-6.5-0.4-7.1-2.7-12.6c0,2.6-0.1,5.1-0.3,7.6c-1.3-3.2-2.5-8-3.4-11.9c-0.8-3.9-1.2-6.8-0.2-6.6
						c1.5,2.4,4.6,11.7,5.5,13.9c-0.7-2.3-0.1-4.9,0.8-3.4c0.3,1.3,0.5,2.5,0.8,3.8c1.1,1,0.6-1.3,0.2-3.1c-0.3-1.9-0.5-3.2,1.6-0.4
						c0.6,0.2,5.4,7.8,3.6,3.9c-4.4-7-15.6-29.8-18.1-35.5c0.2,0.2,1.4,1.9,2.8,3.8c1.4,1.9,3.2,4.2,4.3,5.9c1.8,2.7,3.5,6.2,5,9.6
						c1.6,3.4,3,6.7,4.6,9c-0.9-1.8-1.7-4.1-2-4.8c1.2,1.3,2.8,5.5,3.2,4.2c-3.4-6.5,2-0.4-2.6-5.6c-0.3-2.3,1.6,0.8,2.4,0
						c-1.4-1.9-3.2-5.5-4.9-8.9c-1.6-3.3-3.1-6.4-3.3-7.5c1,1.6,2.4,3.5,3.1,4.4c1.6-0.3,4.2,1.9,5.5,1c1.1,1.3,3,2.5,4.6,5.2
						c-0.6-1.2-1.9-3.2-1.6-3.7c4.6,4.2-0.3,1.5,4.8,6.9c-2.5-3.4-2.5-5.5-3.6-7.9c-4.2-4.8-1.9,0.1-1,2.6
						c-2.7-3.5-5.2-7.4-7.3-10.7c-2.1-3.4-3.7-6.3-4.5-8.1c0-0.2-0.1-0.3-0.1-0.3l0.4-6.9l18.3,8.7c1.4,0.7-4.3,4-3.3,3.5
						c0.1,0.9,1,0.8,2.3,0.5c1.2-0.3,2.8-1,4.3-1.5c2.9-1.1,5.5-1.7,3.5,1.3c-2.1,1.9-4.4,3.1-6.7,4.2c-2.2,1.1-4.3,2-5.9,3
						c-1.1,0-0.6-0.7,0.2-1.6c0.7-0.9,1.7-1.9,1.4-2.2c-0.5,0.8-1.1,1.5-1.7,2.2c-1.7,0.6-3.2,0.9-2.1-0.3c-1.9,1.7-1.5,2.5-1.2,3.5
						c0.4,0.9,0.7,2.1-0.9,3.6c1.7-0.4,3.6-0.5,5.4-1.5l-0.9-0.3c1.8-1,3.3-1.3,4.4-1.5c1.2-0.1,2.1-0.2,2.8-1
						c1.5,0,3.4-0.1,4.7,0.1c1.3,0.3,1.9,0.9,0.9,1.9l-5.4,1.7c1.6-0.4,3.1-1.8,1.3-1.7c1.3-0.1-0.5,1-1.6,1.9
						c-1.2,0.8-1.8,1.4,1.8,1c1.2-0.6,2.4-1.2,3.7-1.9c1.4,0.2,3.6,0.4,5.2,0.8c1.6,0.4,2.6,1.1,1.7,2c2.7-0.8,2.5-0.9,2.5-1
						c0-0.2,0-0.3,3.2-1.5c-3.9,1.2-3.8,0.1-3.8-0.9c0-1-0.1-1.9-4.1-0.1c3.6-1.4,4.4-2.2,4.9-3c0.6-0.8,1-1.6,4-3.5
						c-1.8,0.6-3.4,1.7-2.7-0.1c-0.5,0.1-1.2,0.2-1.7,0.2c0-0.1,0.1-0.1,0.1-0.1c-0.1,0.1-0.1,0.1-0.2,0.2c-0.3,0-0.3,0-0.1,0.1
						c-0.7,0.6-1.6,1.2-2.6,1.7c-4.3,0.7-4.6-1.3-6.9-1c0.6-1.1,2.2-0.6,4-1.8c-1.2,0.1-2.3,0.2-3.5,0.4c2-0.9,3.5-2.2,4.8-3.2
						c1.3-1,2.6-1.6,4.1-1.1c-0.1-0.7-0.3-1.3-0.4-2c1.8-2.2,2.1-4.4,0-4.4c0.4-1.5-5.3,0.5-1.9-0.7c-1.3-0.5-2.6-0.8-3.9-1.2
						l0.9-0.7c-0.2-0.6-0.8-1-1.5-1.3L123.9,114l2.9,13.4c0.2,0.7,0.7,1.9,0.5,2.4c-0.2,0.4-1,0-3.4-2.5c0.4,1.1,1,2.4-0.2,1.5
						l-2.4-3.4c0.3,0.7-0.6-0.1-1.1-0.6c-0.6-0.5-0.9-0.7,0.2,1.2c-3.1-4.7-3.7-5.1-3.7-4.5c0,0.6,0.5,2.3-0.2,1.6l2.5,4.8
						c-0.5,0-0.1,1.5,0.4,3.8l2.1,4.3c0.6,1.9-0.1,1.3-0.9,0.4c-0.9-0.9-1.9-2.3-2.1-1.8c-0.6-1.7-0.3-1.4,0.2-0.5
						c-2.5-4.6-2-2.5-1.6-0.1c0.4,2.4,0.7,5.2-0.8,1.8c0.3,1.7,0,1.3-0.5,0.3c0,0,0-0.1,0-0.3c0,0-0.1,0-0.1,0
						c-0.3-0.7-0.6-1.4-1-2.1c0.4,1,0.7,1.8,0.9,2.2c-0.1,0.2-0.2,0.9-0.1,2.1l-1.4-4.6c0,0.1,0,0.1,0,0.2c-0.7-1.6,0.5,2.3,1.6,5.7
						c0.1,0.8,0.2,1.8,0.4,3c-1.1-3.7-1.1-3-1.1-2.3c0,0.7-0.1,1.3-1.2-2.6c0.8,4-0.5,3.6,1,11.7c-0.2-1-0.4-1.5-0.3-1.6
						c-0.4-0.6-0.8-1.1-0.9-0.5l15,13.1c-0.4,0-0.8-0.1-1.2-0.1l1.9,0.2l0.1,0l0.1,0l0,0c0,0,0.1,0,0,0l-0.2,0
						c-1.3-0.2-2.6-0.4-3.9-0.7c1.7,0.2,3,0.4,4.5,0.8c0.2,0,0.4,0.1,0.6,0.1c0.3,0.1,0.2,0,0.2,0c0,0,0,0,0,0c-0.1,0-0.2,0-0.3-0.1
						c0.5,0.1,0.8,0.2,1,0.2l0.1,0c0,0,0,0,0,0l-0.1,0c-0.1,0-0.2-0.1-0.3-0.1c-0.2-0.1-0.4-0.1-0.5-0.2c-0.6-0.2-1.3-0.4-4.4-1.7
						l3.4,1.2c-0.1-0.1-1.3-0.6-2-1.1c-0.8-0.4-1.2-0.8,0.2-0.2c1.6,0.6,2.5,0.7,2.9,0.7c0.5-0.1,0.6-0.4,0.8-0.8
						c0.4-0.9,0.9-2.2,3.7-2c-4.1-2.2-3.1-2-1.9-1.7c1.2,0.3,2.7,0.6-0.3-1.3c1.9,1,3.1,1.2,4.6,2.6c-0.4-0.7-0.3-1-0.1-1.3
						c0.2-0.3,0.5-0.4,0.7-0.7c0.4-0.4,0.5-1.1-1.9-3.1c1.8,0.7,2.6,1.8,3.7,2.2c-0.4-0.4-1.5-1.4-0.3-1.1c1.1,0.3,1.4,1.1,2.2,1.8
						c0-1.2-1.3-2.6-3.3-3.9c-1-0.7-2.1-1.3-3.4-2c-1.2-0.7-2.5-1.3-3.8-1.9c2.7,0,2.5-0.9-0.7-2.8c1.7,0.3,3.5,0.1,4,1.7
						c0.2-0.4,1-1.4,1-2.6c0.1-1.1-0.5-2.2-2.4-2.6c1-0.1,0.2-1-0.2-1.2c0.1-1.5,0.3-1.7-0.3-3.2l-0.5,0.4c-2.2-0.2-2.5-0.5-2.3-0.8
						c0.2-0.4,0.7-0.8,0.3-1.4l0.4,0c1-1.5,0.5-1.8,0.1-2c-0.2-0.1-0.4-0.2-0.4-0.5c0-0.3,0.2-0.7,0.4-1.7l-2,0.9
						c-2.4,0.7-1.8,0.1-1.3-1c0.3-0.5,0.5-1.2,0.5-1.8c0-0.5-0.3-1-0.9-1c-0.2,0.4-0.3,0.8-0.5,1.1c-0.4,0.1-0.5-0.2-0.3-0.7
						c0.1-0.3,0.3-0.5,0.5-0.8c0.2-0.3,0.5-0.6,0.8-0.9c1.2-1.2,2.7-2.5,2.8-2.7c0.3-0.2,0.6-0.3,0.8-0.4c0.9-0.9,0.3-0.5-0.6,0.1
						c-0.9,0.6-2.1,1.4-2.7,1.4c1.2-0.8,3.3-1.9,3.3-2.1c0.5-0.3-0.7,0.2-1.9,0.7c-1.2,0.4-2.4,0.8-1.1,0.2
						c-1.1,0.5-2.2,1.1-3.4,1.5c-0.5,0.1,0.4-0.3,0.9-0.6c0.5-0.3,0.7-0.3-1.7,0.7c0.5-0.2,0.8-0.3,1-0.4c-1.5,0.7-4.6,2-5.9,2.5
						c4.8-2,3.3-1.3,1.3-0.5c-1.9,0.8-4.1,1.7,1.2-0.5c-0.5,0.2-1,0.3-1.6,0.5l1.2-0.5c0.2-0.3-2.8,0.8-6.1,1.9
						c0.6-0.3,1.9-0.8,2.6-1c0.7-0.5,1-0.8,0.2-0.7c-0.8,0.1-2.8,0.7-6.6,1.4l4.3-1.4c-1.4,0.3,0-0.5,1.3-1.2
						c1.3-0.8,2.3-1.4-0.2-1.4c0.5-0.1,1.4-0.2,2-0.3c-0.9,0-1-0.1-0.8-0.3c0.1-0.1,0.3-0.2,0.6-0.3l0.2-0.1l0.3-0.1l0.7-0.2
						c0,0-0.1,0,0,0l0.3-0.1l0.6-0.2c0.4-0.1,0.7-0.2,1.1-0.3c0.6-0.2,1.1-0.3,1.2-0.4c0.1-0.1-1.3-0.1-6.2,0.2
						c-1.1-0.1-2.1-0.2-3.1-0.3c-1,0.5-2.6,0.6-4.2,0.6c-1.7,0-3.4-0.1-4.8,0.2c-0.2-0.2,1.2-0.6,2.6-0.8c1.4-0.2,2.9-0.3,3.1-0.1
						l-0.8,0.1c3.7-0.1,4.6-0.4,5.2-0.7c0.6-0.3,0.8-0.7,3.3-0.6c0-0.2,0.2-0.4,0.3-0.7c0.1-0.1,0.1-0.2,0.2-0.4
						c0.1-0.3,0.3-0.6,0.4-0.9l0.2-0.4c0.1-0.2,0.2-0.5,0.3-0.8c0.2-0.6,0.3-1.1,0.5-1.7c0.3-1.1,0.5-2.3,0.7-3.4
						c0.6-4.5,0.2-9-1.9-12.5c-1.5,1.6-3.1,3.1-4.7,4.6c-0.3-0.7-0.6-1.4-1-2.1c0.8-1.5,3.2-4.2,4.2-2.4c1.1-1.6,0-1.8-1.5-1.3
						c-1.5,0.4-3.3,1.6-3.8,2c-0.2-2.1,1.1-3.4,2.7-4.1c1.6-0.7,3.3-0.7,2.9-1.3c-0.5-0.3-1-0.6-1.6-0.9l-0.2,0.8
						c-2.8,1-4.6,3.2-6.1,1.6c-0.5-1.9,1.6-3.8,1.2-4.4c0.2-0.4,0.2-0.7-0.8-0.7c-0.5-0.4-1.1-0.8-1.7-1.2l-0.9-0.6l-0.8-0.5
						c-0.3,1.7-0.4,3.6-0.8,5.3c-1.3,0.8-1.8,0.6-2.2,0.8c-0.4,0.2-0.7,0.9-1.2,3.9c1-4.5-1.3-6.1-3.6-6.5c-2.3-0.4-4.3,0.4-4.7-1
						c-1.5,3.7-2.6,3.7-4.1,3.5c0.4,1,1,6.5-0.1,6c-0.3-5.7-1-6.9-1.8-7.5c-0.8-0.7-1.8-0.9-2.9-4.7c0.8,2.5,0.1,3.1-0.6,3.9
						c-0.6,0.9-1.1,1.9,0.2,5.3c-1-0.6-0.8-4-2-6.3c-0.6,2.5-1.8,2.2-3.1,1.8l16.7,18.9c1-0.7,2.2-1.6,1.7-3.3
						c-1.2-0.4-3.1-0.6-4.8-1.7c2,0.2,4,0.3,6,0.3c-0.3-0.4-2-1-3.1-1.5c-1.1-0.5-1.6-0.9,0.4-0.9c-1-0.1-2.4-0.2-2.8-0.7
						c1.5-1.1,1.8-2.8,1.5-4.5c-0.2-1.8-1.1-3.6-1.9-5.3c-0.9-1.9-1.9-3.4-2.8-5c-0.4-0.8-0.8-1.6-1.3-2.4c-0.2-0.4-0.4-0.8-0.6-1.2
						c-0.2-0.4-0.5-0.8-0.7-1.3c0.1,0.6,0,0.8-0.3,0.9c-0.3,0-0.6-0.1-1-0.2c0.3,0.4-1,0.9-1.4,1.4c-0.3-0.9-0.9-1.7-1.7-2.3
						c-0.7,0.6-1.5,0.5-2.3,0.5c-0.7,0-1.5,0.2-1.7,0.6l0.9-0.2c-0.8,0.6-0.5,1.1-0.5,2c0,0.4,0,0.9-0.1,1.4c-0.1,0.5-0.3,1-0.6,1.4
						c0.6-0.5,0.6,0.5,0.1,1.6c-0.2,0.5-0.5,1-0.6,1.3c-0.1,0.3,0,0.3,0.9,0c-0.6,0.6-0.8,0.4-1.5,1c1-0.6,1.4-0.4,0.6,0.4l-0.3,0.1
						c-0.1,0.6-0.6,1.2-1.6,1.6c-0.5,0.2-1,0.4-1.7,0.5c-0.3,0-0.6,0.1-1,0.2c-0.3,0.1-0.7,0.2-1.1,0.2c0.9,0,1.8,0,2.7-0.1
						c-0.6,0.2-1.5,0.2-2.3,0.3c3.9,0.4,0.9-0.5,5.1-0.3c-2.8,0.2-3.3,0.5-3.8,0.9c-0.5,0.4-1.2,0.8-4.8,0c-0.2,0.1,0.7,0.3,1.6,0.5
						c0.9,0.2,1.8,0.3,1.6,0.5l-2-0.4l2.4,0.7c-0.7,0.2-3.3-0.4-5-0.8c0.3,0-0.2-0.3-0.3-0.4c-1.4-0.2-1.5,0-1.4,0.3
						c0.1,0.3,0.5,0.7,0,0.6l1.7,0c0.3,0.9-0.7,1.7-1.4,2.7l-14.3,21.4l33.6,0.5c1.2,0,2.1-0.2,2.5-2.5l-0.5-1.8
						c0.8-3.3,1.4,2.1,2.4,0.6l0,0.4c0-1.8,0.3-2.8,0.6-2.5c-0.1,1.1,0.2,2.2,0.3,3.3c0.2,1.1,0.3,2.3,0.3,3.5
						c0.2-1.8,0.3-2.5,0.3-3.7c0.1-1.2,0-2.7,0.4-6.3c0,1.1,0.1,2.2,0.1,3.3c0.3-2.9,0.4-4.5,1.1-5.2c-0.4,1.4-0.4,2.6-0.4,4
						c-0.1,1.4-0.2,2.9-0.5,4.7c0,0.9-0.1,1.5-0.1,1.8c0,0.2,0,0.3,0,0.3c0,0,0,0,0,0l0-0.1l0-0.2c0-0.3,0.1-0.5,0.1-0.7
						c0-0.2,0.1-0.4,0.1-0.6c0.1-0.7,0.3-1.2,0.3-1l0,0.1l0,0.1l0,0c0,0,0-0.1,0-0.1c0-0.1,0-0.1,0.1-0.2c0.1-0.3,0.1-0.4,0.2-0.5
						c0.3-0.9,0.4-1.3,0.4-1.5c0-0.4-0.2,0.1,0.1-0.9c0.3-1.5,0.7-3.1,1.2-4.3c0.5-1.1,1-1.7,1-1.2c0.1,0.2-0.7,3-1.8,5.7l-0.1,0.3
						l0,0.1l0,0c-0.2,0.6,2.1-5,1.1-2.6l0,0l0,0l0,0l0,0l0,0.1l0,0.1c0,0.1-0.1,0.2-0.1,0.2c-0.1,0.2-0.2,0.3-0.3,0.6
						c0.1-0.1,0.1-0.1,0.1-0.2c-0.2,0.3-0.4,0.6-0.6,0.9c-0.1,0.1-0.2,0.3-0.2,0.3c0.1-0.1,0.2-0.2,0.4-0.4l-0.1,0.1l0,0.1
						c0,0-0.1,0.1,0.1-0.2c0.7-0.7,1.4-1.5,2.1-2.1c1.3-1.2,2.5-1.6,1.1-0.2c-1.1,0.8-2.7,1.9-3.5,2.6c-0.1,0.1-0.1,0.1-0.2,0.2
						c0,0,0,0,0,0l0.3-0.2c0,0-0.3,0.2-0.2,0.1c0,0-0.1,0.1-0.1,0l0.1-0.1c0.1-0.1,0.1-0.1,0.2-0.2c0,0.1-0.2,0.2-0.2,0.2
						c0,0,0,0,0,0c0,0-0.1,0.1,0,0c0,0,0.2-0.1,0.4-0.2l0,0c0,0,0.2-0.1,0.4-0.2c-0.1,0-0.2,0.1-0.3,0.2c0.4-0.2,1-0.5,1.6-0.7
						c-1.3,0.4-0.3,0.1-0.8,0.3c0.8-0.3,1-0.3,1.3-0.4c0.2-0.1,0.6-0.2,1.5-0.1c-0.3,0-0.9,0-0.5,0c0.2,0,0.4,0,0.5,0l0,0l0,0l0,0
						l0,0l0,0c-5.4-0.2,12.1,0.4-12.2-0.4l0,0l0,0l0.1,0l0.2,0c0.1,0,0.2,0.1,0.3,0.1c0.1,0.1,0.2,0.1,0.2,0.1
						c0.6,0.1,1.1,0.1,1.5,0.2c0.2,0,0.4,0,0.6,0.1c0.1,0,0.2,0,0.3,0c0.1,0,0,0,0.1,0.1c0,0.2,0.1,0.3,0.2,0.3
						c0.3,0.1,0.7,0,1.2-0.1c0.2,0,0.5-0.1,0.8-0.2c0,0,0.1,0,0.2,0c0.1,0,0.3,0,0.6,0c0.2,0,0.3,0,0.5,0.1c0.1,0,0.2,0,0.3,0
						c0.1,0,0.3,0,0.3,0.1c-1.9,0.3-1.8,0.6-1,0.9c0.4,0.2,0.9,0.3,1.4,0.5c0.5,0.2,1,0.4,1.3,0.6l-2.9-0.1
						c-0.3,0.3-0.3,0.5-0.4,0.7c-0.1,0.2,0,0.3,0.2,0.4c0.3,0.2,1,0.2,1.7,0.3c0.7,0,1.4,0.1,1.7,0.2c0.2,0.1,0.4,0.4-0.1,0.8
						l-2-0.3l-1.1-0.2L92,120l-0.4-0.1c0,0,0,0.1,0.1,0.1l0.2,0.1l0.4,0.2l0.3,0.2c0.1,0.1,0.1,0.1,0.1,0.2l-3.1-0.1
						c0.9,0.5,1.1,0.7,1,1c-0.1,0.3-0.8,0.6-1.1,1c0.9-0.2,2.2-0.2,3.1-0.2c1,0,1.6,0.2,1.5,0.5c-1.7,0.6-2.3,0-2.3,0.9
						c-1.5,0-3.4-0.1-0.9-0.7c-0.8,0-1.6-0.1-2.4,0c-1.9,0.7-0.6,1.4-0.7,1.7c0.1-0.2,0.3-0.3,0.6-0.5l1.2,0.4l0.6,0.2
						c0.2,0.1,0.4,0.1,0.4,0.2l0.9,0.2c-0.3,0.2-0.8,0.2-1.1,0.3c-0.4,0-0.8,0-1.3,0c0.1,0.1,0.3,0.1,0.5,0.1
						c0.1,0.1,0.3,0.1,0.4,0.2c0.3,0.1,0.5,0.2,0.5,0.5c-1.8,0.2-3.6,0.5-4.3-0.1c0.6,0.5,1.1,0.9,1.7,1.5c-0.8,0.3-2.2,1.5-2.8,1.3
						c-0.1,0.2-0.2,0.3-0.2,0.5c0,0,0,0.1,0,0.1l0,0l0,0l0,0l0,0c0.9-0.2,0.3-0.1,0.5-0.1l0,0l0,0l0.1,0.1c0.1,0.1,0.2,0.1,0.3,0.2
						c0.2,0.1,0.5,0.3,0.7,0.4c0.2,0.1,0.4,0.3,0.7,0.4c0.4,0.3,0.9,0.6,1.2,0.9c0.1,0.2,0.3,0.3,0.3,0.5c0,0.1,0,0.2,0,0.3
						c0.1,0.1,0.1,0.1,0.1,0.2c0.4-0.1,0.9-0.1,1.5,0.1c0.1,0.6-0.3,1.2-0.3,1.7c0,0.3,0.1,0.5,0.3,0.6c0.1,0,0.1,0.1,0.2,0.1l0.2,0
						l0.3,0c0.4,0,0.9-0.1,1.4-0.2c-0.2,0.1-0.3,0.2-0.5,0.3l-0.7,0.4l-1.4,0.8c0.6,0.1,1.5-0.4,2.5-0.9c1-0.5,2-0.9,3.1-0.9
						c1.7-0.1-2.6,1.3-3.3,1.8c1-0.3,2.5-0.7,3.5-1c1-0.3,1.5-0.4,0.1,0.2C94.9,136.2,95.3,135.9,94.9,136.1z M103.4,135.5
						c-0.3,0.1-0.7,0.1-1.1,0.2c-0.5,0.1-0.8,0.2-1.1,0.2c-0.5,0-0.7-0.1,0.3-0.7c2.1-0.9,2.8-1,2.8-0.9c0,0.1-0.2,0.3-0.4,0.5
						C103.7,135,103.5,135.3,103.4,135.5z M116.7,139.8c-0.9-0.6-0.3-0.5,1.1-0.1C117.9,140,117.6,140.1,116.7,139.8z M165.5,138.9
						c-0.1,0-0.1,0-0.2,0.1C166.6,137.1,166,137.8,165.5,138.9z M164.4,141.8c0.7-0.1,1.2-0.4,1.8-0.8c-1.1,0.4-1.3,0-1.2-0.7
						C164,141.1,163.3,141.7,164.4,141.8z M109.5,91.9l-0.1,1.3C107.7,93.6,108.5,92.8,109.5,91.9z"/>
					<path class="st0" d="M113.3,137.4c0.6,0.2,1.2,0.4,1.7,0.6C114.6,137.8,114,137.6,113.3,137.4z"/>
					<path class="st0" d="M89,132.8C89,132.8,88.9,132.8,89,132.8c-0.2,0-0.3,0-0.5,0L89,132.8z"/>
					<path class="st0" d="M143.2,171.7c-0.6-0.5-1.2-1.3-1.8-2.1C142,170.7,142.7,171.6,143.2,171.7z"/>
					<path class="st0" d="M173.8,150.6c-0.4-0.4-0.8-0.8-1.2-1.2c0.2,0.6-0.7,1.1-1.4,1.6C172.2,150.8,173.7,150.2,173.8,150.6z"/>
					<path class="st0" d="M148,162.7c0.5,0.1,0,0.2,0.5,0.3l1.8,0C150.3,162.5,148.8,162.2,148,162.7z"/>
					<path class="st0" d="M159.6,154.8c-3.6,0.8-2.3,1.1-1.6,1.7c0,0,0-0.1,0-0.1C163,155.8,161.4,155.3,159.6,154.8z"/>
					<path class="st0" d="M158.1,156.7c0.2,0.2,0.3,0.4,0.1,0.6C160.2,157.1,158.7,157,158.1,156.7z"/>
					<path class="st0" d="M167.6,143.3c-0.8,0.8,4.7-1.6,3.3-0.8c2.4-0.7,0.8-0.9-1-0.7C168.1,142,166.1,142.6,167.6,143.3z"/>
					<path class="st0" d="M147.9,157.6l4.4-1c-1.2,0.1-2.4,0.3-3.6,0.4C148.4,157.2,148.2,157.4,147.9,157.6z"/>
					<path class="st0" d="M150.2,152.7c-0.3,0.4-0.7,0.9-1,1.3c0.7-0.2,1.2-0.3,1.6-0.2C150.8,153.1,151.5,152.2,150.2,152.7z"/>
					<path class="st0" d="M150.8,153.7c0,0.3,0.1,0.5,0.9,0.5C151.6,154,151.4,153.7,150.8,153.7z"/>
					<path class="st0" d="M146.4,156.8l0.9-0.4l0.2-0.6C147.1,156.1,146.7,156.5,146.4,156.8z"/>
					<path class="st0" d="M139.6,142.8l0.3,1.6c1.1,1.4,1.9,2.1,1.7,1.4C141,144.8,140.8,144.1,139.6,142.8z"/>
					<path class="st0" d="M136.6,153.5c0.8-0.7,1.7-1.3,3.1-2.3l-5.2,3.5C135.2,154.3,135.9,153.9,136.6,153.5z"/>
					<path class="st0" d="M149.8,154.8c1.1,1.4,2.1,5,2.9,3.8c-0.3-0.4-0.5-0.8-0.7-1.2l-20.2-1.9c1-0.7,2-1.2,2.6-2.1L149.8,154.8
						C149.8,154.8,149.8,154.8,149.8,154.8z"/>
					<polygon class="st0" points="133.2,156.2 133.4,156.1 128.3,146.4 					"/>
					<path class="st0" d="M128.8,184c2.2,2.2-1.5-6.1,0.7-3.4c-0.4-2.4-1.8-2.2-2.1-4.3C127.4,179,126.6,177.6,128.8,184z"/>
					<path class="st0" d="M127.5,176.3c0-0.4,0-0.9,0-1.6C127.4,175.4,127.5,175.9,127.5,176.3z"/>
					<path class="st0" d="M81.8,82.4c-0.4-0.1-0.7-0.1-1.1,0c0.2,0.1,0.4,0.2,0.6,0.3L81.8,82.4z"/>
					<path class="st0" d="M79.2,84c0-0.2,0-0.5-0.1-0.7l-0.7,0.9C78.7,84.1,79.1,83.9,79.2,84z"/>
					<path class="st0" d="M99.1,141.7l1.2-0.6c0.7-0.7,0.3-0.8-0.6-1.1C99.5,140.6,99.3,141.1,99.1,141.7z"/>
					<polygon class="st0" points="93.2,136.6 93.1,136.6 96.9,135.1 					"/>
					<path class="st0" d="M88,138c-0.1,0.2,0.7,0.1,0.6,0.3C87.9,138.2,91.4,136.6,88,138z"/>
				</g>
			</g>
		</g>
	</g>
	<path class="st1" d="M177,125.4l-5.6-15c-5.8-15.8-16.7-22.4-29.7-17.9c-3.4-4.5-8.8-6-14.6-4c-2.1,0.7-4,1.9-5.8,3.2
		c-3.7-4.8-9.6-6.5-15.7-4.5c-1.7,0.7-3.1,1.5-4.7,2.5l-8.2-22.7c-3.1-8.7-11.1-12.3-19.3-9.4c-8.3,3-11.9,10.8-8.8,19.5l0.6,1.6
		C36.8,89.4,17,116.6,17,152.1c0,2.6,2.3,4.9,4.8,4.8c2.6-0.1,4.5-2.1,4.6-4.6c0.8-31.7,17.3-55.3,42.4-64.5l17.2,46.7
		c0.2,0.3,0.1,0.7-0.2,0.8c-0.3,0.2-0.5,0-0.7-0.2l-8.9-9.4c-5.7-6-12.9-6.5-18.5-1.8c-6.4,5.3-6.5,13.3-0.2,20.8L82,174.2
		c18.6,22.4,40.6,29.3,65,20.5C176.3,184.2,188.8,157.6,177,125.4z M170.1,165.6c-4.5,9.7-13.3,17.2-25.5,21.6
		c-6.3,2.3-12.3,3.4-18,3.4c-14.2,0-27-7-38.7-21l-24.7-29.4c-1.8-2.1-2.6-4.3-2.5-6.3c0.1-1.8,1-3.4,2.5-4.7
		c2.9-2.7,7.2-2.1,10.5,1.3l17.1,17.5c2.5,2.5,4.2,2.4,5.6,1.8c0.8-0.3,1.4-0.8,1.7-1.5c0.4-0.9,0.4-2,0-3.1L71.9,74
		c-0.7-1.9-0.7-3.9,0.1-5.7c0.8-1.7,2.2-3,4.1-3.7c3.9-1.4,7.8,0.5,9.3,4.6L104,120c0.5,1.3,1.9,1.9,3.4,1.4
		c1.3-0.5,1.9-1.9,1.5-3.2l-7.1-19.6l1-0.9c0.7-0.6,2.4-2.1,4.5-2.8c4.4-1.6,8.6,0.4,10.3,5.1l6,16c0.5,1.5,2.1,1.8,3.3,1.3
		c0.6-0.2,1.2-0.7,1.5-1.3c0.2-0.5,0.3-1.1,0-1.8l-5.3-14.2l0.9-0.9c1.2-1.2,2.7-2.2,4.5-2.9c4.5-1.7,8.7,0.4,10.4,5.1L143,112
		c0.5,1.5,2.1,1.8,3.4,1.4c1.2-0.4,1.9-1.8,1.5-3.1l-3.6-9.8l2-0.7c3.5-1.2,12.4-2.2,18.6,15l4.7,12.5
		C174.9,141.7,175,154.9,170.1,165.6z"/>
</g>
</svg>
