<?xml version="1.0" encoding="utf-8"?>
<!-- Generator: Adobe Illustrator 24.0.2, SVG Export Plug-In . SVG Version: 6.00 Build 0)  -->
<svg version="1.1" id="Layer_1" xmlns="http://www.w3.org/2000/svg" xmlns:xlink="http://www.w3.org/1999/xlink" x="0px" y="0px"
	 viewBox="0 0 198.4 198.4" style="enable-background:new 0 0 198.4 198.4;" xml:space="preserve">
<style type="text/css">
	.st0{fill:#9CD9C5;}
	.st1{fill:#646565;stroke:#646565;stroke-width:3;stroke-miterlimit:10;}
</style>
<g>
	<g>
		<g>
			<g>
				<g>
					<path class="st0" d="M70.5,188.9c-0.3-0.1,0.1,0.2,0.1,0.2C71.1,189.4,70.4,188.8,70.5,188.9z"/>
					<path class="st0" d="M73.4,187.9l0.4,0.3c-0.2-0.3-0.4-0.5-0.6-0.8C73.2,187.6,73.3,187.7,73.4,187.9z"/>
					<path class="st0" d="M76.4,185.9c-1.6-0.2-1.7,0-1.6,0.4c0.1,0.3,0.3,0.7-0.4,0.8l-0.6-0.1c0.6,0.3,1.1,0.6,1.6,0.9
						c0.2-0.3,0.2-0.7,0.2-1.1C75.7,186.3,75.7,186,76.4,185.9z"/>
					<path class="st0" d="M85.3,184.7c-1.5,0.1-0.7-0.6-0.9,0.6c0.2,0,0.3-0.1,0.4-0.1C84.8,185.1,85,185,85.3,184.7z"/>
					<path class="st0" d="M84.8,185.3C84.4,185.8,86.2,185,84.8,185.3L84.8,185.3z"/>
					<path class="st0" d="M85.7,182.8c0.3,0.2,0.6,0.4,0.9,0.7c1-0.1,1.6-0.9,2.1-0.6C88.5,182.1,87.4,182.4,85.7,182.8z"/>
					<path class="st0" d="M83.2,182.4l0.4,0.3C84,182.6,84.2,182.5,83.2,182.4z"/>
					<path class="st0" d="M84.4,183.3c-0.2-0.2-0.5-0.5-0.8-0.7c-0.7,0.1-2,0.2,0.2,0.3C82.7,182.9,83.8,183,84.4,183.3z"/>
					<path class="st0" d="M83.5,183.7c-1.1,0.4-1.8,0.7-2.7,0.1c-0.1,0.5,0.5,0.8,1.2,0.8C82.6,184.6,83.4,184.3,83.5,183.7z"/>
					<path class="st0" d="M73.3,185.2c-0.3,0-0.7,0-1,0c0.3,0.1,0.6,0.3,0.9,0.4C72.7,185.4,74.2,185.3,73.3,185.2z"/>
					<path class="st0" d="M90.2,177.7c-0.9,0.2-2.6,0.8-3.9,1.2c0.3,0.1,0.6,0.2,0.9,0.3C88,178.8,88.8,178.1,90.2,177.7z"/>
					<path class="st0" d="M86.3,178.8c-0.5-0.2-0.9-0.3-1.4-0.4C84.6,179.2,85.3,179.1,86.3,178.8z"/>
					<path class="st0" d="M78.8,182.6c0.9,0.2,1.7,0.5,2.5,0.8c-0.7-0.4-1.6-0.7-2.5-1L78.8,182.6z"/>
					<path class="st0" d="M91.2,174c0.7-0.1,1.5-0.2,2.2-0.2c-1.1,0-2.2,0.1-3.3,0.2L91.2,174z"/>
					<path class="st0" d="M91.1,171.7c1.9-0.4,3.4-2.1,4.6-2.1c-0.3-0.6-2-0.5-3.5-0.2C93,169.5,92.8,170.3,91.1,171.7z"/>
					<path class="st0" d="M89.9,169.7c0.5,0,1.4-0.2,2.3-0.3C91.7,169.3,91,169.4,89.9,169.7z"/>
					<path class="st0" d="M85.7,177c0.6-0.2,2.2-0.8,3-1.5l-2.9,1.2C85.8,176.8,85.8,176.9,85.7,177z"/>
					<path class="st0" d="M85.7,176.8L85.7,176.8c0.2-0.4,0.3-0.6,0.3-0.7C86,176.1,85.9,176.3,85.7,176.8z"/>
					<path class="st0" d="M85.7,177.1C85.7,177.1,85.7,177,85.7,177.1C85.5,177.1,85.4,177.2,85.7,177.1z"/>
					<path class="st0" d="M81.7,180.8c-0.7-0.1-1.3-0.2-2.2-0.2c-0.8,0-1.8,0.3-3,0.7C78.3,181.3,79.7,180.6,81.7,180.8z"/>
					<path class="st0" d="M82.2,178.4l-0.8,0.8c0.7-0.2,1.8-0.6,2.5-0.6C83.3,178.6,82.8,178.5,82.2,178.4z"/>
					<path class="st0" d="M81.3,178.4c0.3,0,0.6,0,0.8,0.1l0.3-0.3L81.3,178.4z"/>
					<path class="st0" d="M87.2,172.6c-1.3,0.2-1.4-0.1-1.6-0.4c-0.5,0.8-0.8,1.4-0.8,1.8C85.7,173.6,87.3,173.1,87.2,172.6z"/>
					<path class="st0" d="M86.3,174.8c-0.1,0-0.1,0-0.2,0C85.9,174.9,85.8,175,86.3,174.8z"/>
					<path class="st0" d="M84.8,167.9c-0.2,0.1-0.3,0.3-0.5,0.5c0.2-0.1,0.3-0.2,0.5-0.3L84.8,167.9z"/>
					<path class="st0" d="M84.2,174.3c-0.6,0.6,0.1,0.4,1,0.3c-0.3-0.1-0.5-0.3-0.5-0.6C84.3,174.1,84.1,174.3,84.2,174.3z"/>
					<path class="st0" d="M88.4,169c-0.6,0.6-1.1,1.1-1.5,1.6C87.8,169.9,89.2,168.7,88.4,169z"/>
					<path class="st0" d="M86.9,174.3c0,0,0.1,0,0.1,0C87.7,174,87.4,174.1,86.9,174.3z"/>
					<path class="st0" d="M86.9,174.3c-0.4,0-1.1,0.1-1.7,0.2c0.2,0.1,0.5,0.2,0.9,0.2C86.4,174.6,86.7,174.5,86.9,174.3z"/>
					<path class="st0" d="M66,181.3c1.3-1.1,2.6-2.1,3.3-2.4c0.7-0.4,0.6-0.1-0.8,1c1.1-0.6,3.8-2.4,6.9-4.6
						c3.1-2.2,6.5-4.8,8.9-6.9c-1.2,0.8-2.2,1.6-4.1,2.1c-0.7,0.7-1.4,1.7-2.3,2.6c-0.9,0.9-2,1.8-3.3,2.5c-1.6,0.5,0.8-1.1,2-2.6
						c-1.6,1.4-2.9,2.2-4.4,3.2c-1.5,1-3.1,2.3-5.5,4.3c0.6-0.4,1.2-0.9,1.9-1.3C67.9,179.8,66.7,180.8,66,181.3z"/>
					<path class="st0" d="M84.4,170l0.4,0.1c0.4-0.7,1.4-1.6,3.4-3.6c-1.5,0.3-2.5,0.9-3.4,1.5c0,0.6,0.1,1.2,0,1.9L84.4,170z"/>
					<path class="st0" d="M85.1,171.6c-3,1.4-4.4,1.6-7.5,3.8c0.3,0.5,2.6-0.9,3.9-1.2c-0.4-0.4,0-0.6,0.7-0.8
						c0.7-0.3,1.8-0.6,2.6-1.6c0.5,0,0.7,0.2,0.8,0.4c0.3-0.5,0.8-1,1.3-1.6c-0.1,0.1-0.1,0.1-0.2,0.1l0,0c0,0,0,0,0,0
						c-0.4,0.3-0.6,0.4-0.4,0.2c0,0-0.1,0-0.1,0C85.8,171.2,85.4,171.4,85.1,171.6c0.6-0.8,0.8-0.5,1.1-0.6c0.1-0.1,0.3-0.1,0.4-0.2
						c0,0,0,0,0,0c-0.6-0.3-1.2-0.5-1.8-0.7C84.5,170.7,84.6,171,85.1,171.6z"/>
					<path class="st0" d="M70.9,182.1c0.2-0.1,0.4-0.1,0.6-0.2C71.1,182,70.9,182.1,70.9,182.1z"/>
					<path class="st0" d="M72.5,181.5c0.4-0.1,1.5-0.3,1.2,0c-0.8,0.3-1.3,0.3-2.2,0.5c0.7-0.1,1.9-0.1,3.2-0.7l-0.4,0
						c0.9-0.5,4.5-1.9,4.8-2C76.7,180.2,75,180.7,72.5,181.5z"/>
					<path class="st0" d="M78,177.9c-0.5-0.1-1-0.1-1.5-0.2c-0.8,0.5-1.7,1-2.5,1.5l1.5-0.7C75,179.1,76.8,178.3,78,177.9z"/>
					<path class="st0" d="M86.3,166.7l3.1-2.1c-1.5,0.8-3.1,1.6-4.6,2.4C85.3,166.9,85.8,166.8,86.3,166.7z"/>
					<path class="st0" d="M85.2,165.1l2.7-2.1c-0.6,0.3-1.2,0.5-1.8,0.8L85.2,165.1z"/>
					<path class="st0" d="M38.1,184.2l-0.7,0.5C37.7,184.5,37.9,184.4,38.1,184.2z"/>
					<path class="st0" d="M38.6,184.7l1-0.9C39,184.3,38.6,184.6,38.6,184.7z"/>
					<path class="st0" d="M73.2,155.8c2.1-3.6,5.5-9.1,2.8-4.8l-2.5,4.2C74,154.4,73.7,154.9,73.2,155.8z"/>
					<path class="st0" d="M51.5,179.4c-0.2,0.3-0.4,0.5-0.6,0.8c0.4-0.4,0.7-0.8,1-1.2c0.5-0.6,1-1.2,1.5-1.8
						C52.8,178,51.9,179,51.5,179.4z"/>
					<path class="st0" d="M43.1,189.6l1.2-1.9c-0.2,0.3-0.4,0.6-0.6,0.9C43.6,188.9,43.4,189.3,43.1,189.6z"/>
					<path class="st0" d="M37.4,180.2l-2.3,1.8C35.4,182.1,36.3,181.1,37.4,180.2z"/>
					<path class="st0" d="M74.8,155.9c0.7-1.5,1-2.2,1-2.4C74.7,155.7,73.2,159.1,74.8,155.9z"/>
					<path class="st0" d="M68.1,155.3c-0.7,0.7-1.4,1.3-2.1,2C66.6,156.7,67.3,156.1,68.1,155.3z"/>
					<path class="st0" d="M75.7,153.5c-0.2,0.4-0.3,0.6-0.4,0.9c0.4-0.7,0.6-1.2,0.6-0.9C76.6,151.8,77.1,150.8,75.7,153.5z"/>
					<path class="st0" d="M45.7,161.4C45.7,161.4,45.7,161.4,45.7,161.4C45.7,161.4,45.7,161.4,45.7,161.4z"/>
					<path class="st0" d="M41.3,151.3c0-0.2,0-0.5,0.1-0.7C41.4,150.6,41.3,150.8,41.3,151.3z"/>
					<path class="st0" d="M81.5,156.5C82.1,156.6,81.9,156.1,81.5,156.5L81.5,156.5z"/>
					<path class="st0" d="M73.3,170.9c-0.3,0.3-0.7,0.7-1.3,1.5C72.6,171.7,73,171.2,73.3,170.9z"/>
					<path class="st0" d="M62.5,178.1L62.5,178.1C62.2,178.8,62.2,178.6,62.5,178.1z"/>
					<path class="st0" d="M81,158.6c0.2-0.5,0.2-1.1,0.2-1.5C81.2,157.4,81.1,157.9,81,158.6z"/>
					<path class="st0" d="M82.1,156.9c0,0.3,0.1,0.5,0.1,0.7C82.6,157.1,82.8,156.7,82.1,156.9z"/>
					<path class="st0" d="M80.9,156.1c0.3,0.2,0.4,0.5,0.4,1c0.1-0.3,0.2-0.5,0.3-0.6C81.4,156.4,81.2,156.3,80.9,156.1z"/>
					<path class="st0" d="M47.6,164.9c0,0,0.1-0.1,0.1-0.1C47.1,165.1,47.2,165.1,47.6,164.9z"/>
					<path class="st0" d="M47.1,195.2c0,0,0.1-0.1,0.1-0.1c0,0,0-0.1,0.1-0.1L47.1,195.2z"/>
					<path class="st0" d="M45.2,197.5c2.7-3.8,2.5-3.3,2.1-2.5l5.7-8.9L45.2,197.5z"/>
					<path class="st0" d="M38.4,181.8l-1.7,1.8c-3.4,2.8-2.6,1.8-5,4.3c3.3-3,3.8-3.2,4.2-3.3l0.2,0l0.1,0c0,0,0,0.1-0.1,0.1
						c-0.1,0.1-0.1,0.2,0,0.2c0.2-0.1,0.9-0.7,2.6-2.2l-1.8,1.9c0.2-0.2-0.2,0.1,0-0.1c-2,2.1-1,1.2,0.5-0.1
						c0.8-0.7,1.6-1.4,2.2-1.9c0.6-0.6,1-0.8,0.8-0.5c-0.5,0.6-1.4,1.6-2.3,2.4l1.9-1.5c-0.1,0.2-1.3,1.3-1.2,1.1l0.9-0.3l-0.2,0.2
						c1-0.9,2.7-2.4,3.5-3.1c-0.9,1-0.7,0.6-1.5,1.5l0.4-0.3l0.2-0.2l0.2-0.1L43,181c-0.9,1-1.7,1.8-2.2,2.2
						c-0.3,0.2-0.4,0.3-0.5,0.3c-0.1,0.1-0.3,0.1-0.2,0c-0.8,0.8-1.3,1.4-1.7,1.8c-0.4,0.4-0.6,0.6-0.7,0.8
						c-0.3,0.3-0.1,0.2,0.2-0.1c0.6-0.4,1.6-1.3-0.9,1.6c-0.2,0-0.3,0.1-0.4,0.1c-2.1,2.2-2.9,3.2-3.6,4.1c-0.2,0.2-0.3,0.4-0.5,0.6
						c-0.1,0.1-0.2,0.2-0.3,0.3c-0.1,0.1-0.2,0.3-0.2,0.3c-0.2,0.3-0.5,0.7-1,1.4c0.3-0.3,0.8-0.9,1.4-1.7c0.3-0.4,0.7-0.8,1-1.2
						c0.2-0.2,0.4-0.5,0.6-0.7l0.7-0.8c1.8-2,3.6-3.9,4.2-4.4c-0.2,0.2-0.3,0.4-0.4,0.5c-0.1,0.1-0.1,0.2,0,0.1c0.1,0,0.4-0.3,1.2-1
						c-2.5,2.6-1.7,2.1-1.4,2l-3.3,3.4c1.2-0.9,2.8-2.6,4.3-4.1c-0.1,0.5-2.5,3.1-4.5,5.3c0,0.4,0.9-0.7,1.9-1.9
						c1-1.2,2.2-2.6,2.7-2.8c-0.1,0.2-0.2,0.3-0.2,0.4c-0.1,0.1,0,0.1-0.1,0.3c-0.1,0.2-0.1,0.3,0.1,0.3c0.3,0,0.9-0.5,1.8-1.2
						c-1.3,1.8-2,2.2-3,3.4l2.7-2.7c0,0.1-0.8,1-1.3,1.5c1.2-1,3.3-3.7,4.4-4.6c1.8-2,0.6-0.4-0.5,1.1c-1.1,1.5-2,3,0,0.8
						c-0.8,1.1-1.9,2.2-3.1,3.7c3-2.7,2.2-2,5.9-5.7l-1.7,2.6c1-1.4,2.2-2.9,3.5-4.3c1.3-1.4,2.5-2.7,3.7-4c1.6-2.1,2.9-3.9,3.6-4.8
						l2.8-3c-0.8,1-2.4,3.1-4.5,5.5c0.4-0.5,0.8-1,1.2-1.4c-0.4,0.6-0.9,1.2-1.5,1.9c-0.5,0.6-1,1.2-1.5,1.9c-0.8,1-1.7,2.1-2.6,3.1
						c0.6-0.8,1.2-1.7,1.8-2.5c-1.9,2.2-3.9,4.5-5.6,6.7c0.3-0.4,0.6-0.6,0.8-0.7c-0.5,0.6-0.9,1.1-1.2,1.5
						c-0.3,0.4,0.3-0.3,1.1-1.2l-3.4,4.5l1.4-1.7l-1.2,2l-0.3,0.5l-0.2,0.4l-0.4,0.8c4-4.3,9.3-10.7,11.2-12.3
						c-2.6,3.2-4,5.4-6.9,9.3c2.9-4.2-1.8,1.5-1.5,0.5c-0.2,0.5-1.6,2.4-2.2,3c1.2-1.2,2.3-2.3,3.5-3.5c-2.4,3.2-1.7,2.5-2.4,3.8
						c4.5-6.3,3.6-4,5.2-5.8c-0.8,1.1-1.5,2.1-2.1,2.8c-0.6,0.7-1,1.1-1,0.8c-0.8,1.2-0.8,1.4-0.4,1c0.2-0.2,0.5-0.5,0.8-0.9
						c0.3-0.4,0.7-0.8,1-1.2c1.4-1.8,3-3.8,1.5-1.5c-0.1,0,0.2-0.4-0.6,0.6c0.7-0.9,0.8-0.8,0.6-0.2c-0.1,0.3-0.3,0.7-0.6,1.1
						c-0.3,0.4-0.6,0.9-1,1.4c0,0,0,0-0.1,0c-0.1,0.2,0,0.3,0,0.4c0,0.1,0.1,0.1,0.2,0.1c0.2,0,0.5-0.1,1-0.5
						c0.9-0.8,2.3-2.5,4.3-5.5c-0.5,0.8-4.9,7.2-5.7,8.5c2.4-3.3,4.8-6.7,7.1-10.1l1.8-2.6l2.1-3l4.7-7.1c-2.1,3.2-5.5,8.6-8.7,13.6
						c-2.7,4.1-5.1,8-6.3,9.5c-0.4,0.8-0.8,1.6,0.6-0.2c0.4-0.8,4.7-7.6,5.1-8.1c-3.5,5.8-1.8,3.1-4.6,8.1c0.6-1.1,6-9.4,5.9-9.2
						c-0.8,1.3-5.1,8.2-5.7,9.1c1.9-2.7,3.7-5.5,5.5-8.3c-1,1.5-4.3,7-5.7,9.3c1-1.6,0.2,0.1,0.9-0.7l1-1.9c-0.1,0.3,0.3-0.3,1-1.3
						c0.3-0.5,0.7-1.1,1.2-1.8c0.4-0.7,0.9-1.4,1.4-2.2c1-1.5,1.9-3.1,2.7-4.3c0.8-1.2,1.3-2,1.3-1.9c-1.2,1.9-7.1,11.7-7.6,12.8
						c1.4-2.4,4.9-8.1,8.4-13.7c3.8-6.2,7.4-12.3,9-15l-1.8,3.1l2.2-3.7c-1.2,2.1-2.8,4.7-4.5,7.6c-1.7,2.8-3.5,5.9-5.4,8.9
						c-3.3,5.5-6.6,10.8-8.5,13.7c-1.1,2.1-1.9,3.2-1.5,2.9c-1.4,2.6-2.4,3.9-2.6,4l-0.5,1.7c3.3-5.6,3.7-5.7,6.4-10.4l-3.9,5.9
						c3.2-5.5,9.6-16,9.4-15.2c-1.2,2.2-5.9,10.2-7,12c1.2-2,2.5-3.8,1.7-2.4l-1.9,3.1c-1,2.1,4.7-7.7,1.8-2.3c-0.1,0.3-3.9,7.4-2,4
						c1.8-3.3,5.5-10.1,9.2-16.7c3.9-7,7.7-13.7,9.2-16.3c-0.3,0.5-3.6,6.9-5.3,10c-0.8,1.4-1.5,2.8-2.4,4.3
						c-0.8,1.5-1.7,3.1-2.6,4.6c-1.7,3.1-3.4,6-4.6,8.3c0.9-1.6,2.1-3.6,2.5-4.3c-0.7,1.3-2.8,5-2.2,4.2c3.3-6,0.2,0.4,2.9-5.1
						c1.2-1.8-0.5,1.2,0,0.8c1-1.9,2.8-5.3,4.6-8.4c1.7-3.1,3.4-6,3.9-6.9c-0.8,1.6-1.9,3.6-2.3,4.5c0.1,0.3-1.1,3.2-0.7,3.4
						c-0.7,1.6-1.5,3.6-3,6.3c0.6-1.1,1.8-3.4,2-3.5c-2.4,5.7-0.8,0.9-3.9,7.7c1.9-3.8,3-5.2,4.4-7.6c2.7-5.9,0.1-1.1-1.3,1.2
						c2-4,4.2-8.4,5.9-11.6c1.8-3.4,3.3-6.2,4.2-8c1.1-1.9-2.2,4.9-1.6,3.8c0,0.7,1.6-2.6,2.9-5.4c0.3-0.7,0.6-1.3,0.9-1.9
						c0.1-0.3,0.3-0.5,0.4-0.8l0.1-0.2l0-0.1l0,0c0,0,0,0,0-0.1c-0.2-0.2-0.4-0.4-0.6-0.5l-0.3-0.3l-0.2-0.1l-0.1-0.1l0,0
						c0.5-0.5,0.9-0.1,0.9,1.6c-0.6,2.7-1.7,5.1-2.8,7.3c-1,2.2-2,4.3-2.7,6.1c-0.6,0.8-0.4,0-0.2-1.1l0-0.2c0-0.1,0.1-0.1,0.2-0.1
						c0.2,0,0.2-0.2,0.2-0.3c0.1-0.2,0.2-0.5,0.2-0.7c0.1-0.4,0.2-0.7,0.2-0.7c-0.3,0.8-0.5,1.6-0.9,2.3c-0.7,1.6-1.5,2.8-0.9,1.4
						c-0.2,0.6-0.4,1-0.5,1.3c-0.1,0.4-0.2,0.6-0.2,0.8c0,0.1,0,0.2,0,0.3l0,0.1c0,0,0.1,0,0.1,0c0,0,0,0.1,0,0.1
						c0,0.1,0.1,0.2,0.1,0.2c0.1,0.2,0.4,0.5-0.7,2.3c0.9-1.5,2.1-2.9,3.2-4.6c-0.2,0.2-0.4,0.3-0.6,0.5c1-1.8,1.9-3,2.6-3.9
						c0.7-0.9,1.3-1.5,1.7-2.5c1-1,2.3-2.3,3.3-3c1-0.7,1.6-0.7,1.2,0.6c-1.2,1.5-2.4,3-3.6,4.4c1.1-1.2,1.9-3,0.6-1.8
						c0.9-0.9-0.1,0.9-0.8,2.1c-0.7,1.2-1,1.8,1.6-0.7c0.8-1.1,1.5-2.2,2.3-3.3c1.1-0.8,2.9-2,4.2-2.7c1.4-0.7,2.4-0.9,1.9,0.1
						c1.9-2,1.7-2,1.7-2c-0.1-0.1-0.1-0.2,2-2.8c-2.7,3-2.9,2.3-3.3,1.7c-0.4-0.6-0.7-1.1-3.3,2.4c2.3-3.1,2.6-4,2.8-4.9
						c0.2-0.9,0.3-1.6,1.8-4.8c-1.1,1.5-1.9,3.3-2.1,1.6c-0.4,0.4-0.9,0.9-1.2,1.2c0-0.1,0-0.1,0-0.2c0,0.1-0.1,0.2-0.1,0.2
						c-0.2,0.2-0.2,0.2,0,0.1c-0.3,0.9-0.8,1.9-1.3,2.8c-2.9,3.1-3.9,2.1-5.4,3.8c0.1-1.1,1.3-1.8,2.2-3.8c-0.8,0.8-1.5,1.7-2.3,2.6
						c1-1.9,1.6-3.8,2.1-5.3c0.5-1.6,1.1-2.8,2.5-3.4c-0.4-0.4-0.9-0.8-1.3-1.2c0.2-2.8-0.9-4.6-2.3-3.3l0-0.1l0,0L75,151l0.2,0.1
						c0.3,0.2,0.6,0.4,1,0.6l0.5,0.3l0.2,0.2c0,0,0,0,0,0l0,0c0,0.1-0.1,0.2-0.2,0.3c-0.2,0.4-0.4,0.8-0.6,1.2
						c-0.4,0.8-0.6,1.4,0.1-0.2l-1.3,2.5l0.5-1c0-0.3-0.8,1.4-1.3,2.2c-0.5,0.8-0.6,0.8,1.1-2.8c-0.6,1-1.3,2.3-0.8,1.2l1.8-3.5
						c-0.7,1.2,1.7-3.5-0.2,0.2c2.5-4.7,2.7-5.2,2.5-4.8c-0.3,0.5-1.1,2-0.7,1.1l-2.6,4.7c0.1-0.2-0.7,1.1-1.9,3.1l-2.3,4.2
						c-2.1,3.5,1.4-2.8,1.1-2.3c0.9-1.6,0.7-1.2,0.2-0.3c2.7-4.7,1.6-3,0.3-0.8c-1.3,2.1-2.8,4.6-0.8,1.1c-1,1.6-0.7,1.1-0.1,0
						c0-0.1,0.1-0.1,0.1-0.2c0,0,0-0.1,0,0c0.4-0.7,0.9-1.6,1.3-2.3c-0.6,1-1.1,1.8-1.4,2.3c-0.1,0.1-0.4,0.7-1.2,1.8l2.8-4.7
						c0,0.1-0.1,0.1-0.1,0.1c1-1.7-1.4,2.2-3.5,5.7c-0.5,0.9-1.1,1.8-1.8,2.9c4.6-7.6-1.7,2.6,3.2-5.4c-2.5,4-2.1,3.1-7.4,11.5
						c0.7-1.1,1-1.6,1.1-1.7c0.5-0.9,1-1.9-0.5,0.5l3.8-6l-5.4,8.2c2.2-3.7,3.6-5.8,6.7-10.5c-4.9,7.2-1.9,2.7-6.8,9.9l2.6-3.9
						c-0.2,0.1-3.8,5.4-1.7,2.2c2.4-3.7,2.4-4,2.3-4.3c-0.1-0.3-0.3-0.5,2.1-4c-4.2,5.7-3.3,4.4-2.1,2.8c1.1-1.6,2.5-3.6-0.8,0.8
						c2-2.7,3.1-4.2,4.9-6.5c-2.1,2.5,3.1-4.3-2.7,2.9c2.1-2.6,3-3.8,4.2-5.4c-0.4,0.6-1.8,2.3-0.6,0.7c1.2-1.6,1.7-2.2,2.6-3.3
						c-0.4,0.4-6.8,8.4-12.8,15.9c2.8-3.7,2.3-3.2-1.7,1.6c1.9-2.5,4-5.1,4.8-5.9c0.2-0.4,2.7-3.9-2.2,1.9c1.2-1.5,0.3-0.5-0.3,0.1
						c0.2-0.5,0.6-1.1,0.1-0.7l-0.8,1c-6,6.9-1.4,1.4-2.2,2.1l0.6-0.7c4.2-5.3-2.2,2.2,2.7-3.7l-3.8,4.2c-4.1,4.5-2.9,3-1.1,0.9
						c1.8-2.1,4.2-4.9,2.7-3.3l-2.2,2.4c-1.4,1.4,1.3-1.7,4.6-5.2c3.2-3.5,6.7-7.3,7.5-8.1c0.7-0.8,1.2-1.2,1.7-1.7
						c4.8-5.2-5,5.3-6.2,6.3c2.7-2.8,6.9-7.1,7.4-7.7c1.1-1.2-1.1,1.1-2.9,2.9c-1.8,1.8-3.3,3.1-0.7,0.5c-2.1,2.1-4.2,4.3-5.8,5.8
						c-0.4,0.3,1.6-1.8,2.9-3.1c1.2-1.3,1.8-1.9-1.5,1.3c0.6-0.6,1.1-1.1,1.6-1.6c-1.7,1.6-2.8,2.4-6.3,5.7c6.6-6.4,5-4.9,3.3-3.5
						c-1.7,1.5-3.5,3,2.5-2.6l-0.6,0.3l1.2-1.1c0.8-0.9-2,1.7-4.9,4.1c0.8-0.8,1.9-1.7,2.6-2.3c2.5-2.5,2-1.9-3.9,2.9l3.9-3.4
						c-1.1,0.9,0.4-0.5,1.7-1.7c1.3-1.2,2.2-2.1,0-0.3c0.4-0.3,1.1-0.9,1.7-1.4c-2.2,1.7,0.5-0.6,2-1.9c1.5-1.3,1.8-1.6-5.1,3.8
						l-3.3,2.4c-1.1,1.2-5.9,4.6-8.3,6.6c-0.8,0.4,4.2-3.7,4.9-4l-0.7,0.6c7.1-5.5,2.6-2.4,7.5-6.1c-0.1-0.1,0.8-1.1,1.8-2
						c1-0.9,2.1-1.9,2.2-2.2l-5.5,3.8l0.3-0.4c1.3-0.9,4.3-2.9,4.1-2.6c3.1-2.1-2.6,1.5-3.8,2.3c2.2-1.7,6.4-4.1,6.5-4.3l-0.4,0.2
						l-0.6,0.4c-2.2,1.4-4.6,2.9-4.3,2.6c1.1-0.8,3.4-2.2,3.6-2.4c0.4-0.2,0.6-0.4,0.2-0.1l0.4-0.5l-4.3,2.8
						c-2.1,1.2,0.2-0.4-4.7,2.8c3.8-2.4,4.4-3,4.4-3.3c0-0.2-0.8-0.1,0.4-0.8c-0.2,0.1-0.4,0.2-0.6,0.3c-0.2,0.1-0.4,0.1-0.6,0.2
						c-0.4,0.1-0.7,0.2-0.9,0.3c-0.5,0.1-0.9,0.2-1.1,0.1c-0.5,0-0.6-0.4-0.6-0.8c-0.8,0.7-5.4,3.8-5.1,3.1c4.8-3.2,5.6-4.1,5.9-5
						c0.3-0.8,0.2-1.5,2.9-4.3c-1.8,1.9-2.5,1.8-3.4,1.9c-0.9,0.1-1.8,0.5-4.2,3.3c0.1-0.5,0.8-1.2,1.7-2c0.9-0.9,1.9-1.9,2.6-2.9
						c-2.2,1.1-2.4,0.3-2.7-0.8c-0.3-1.1-0.7-2.4-2.1-2c-0.6,1.1-1.3,2.8-2.6,4.4c0.7-1.9,1.4-3.7,1.9-5.6c-0.4,0.3-1.2,1.8-1.8,2.8
						c-0.6,1-1,1.5-0.5-0.4c-0.3,0.9-0.8,2.3-1.2,2.6c-0.3-1.3-1.2-1.7-2.2-1.5c-1,0.2-2.1,0.8-3.1,1.5c-0.5,0.3-1,0.6-1.4,0.9
						c-0.2,0.1-0.4,0.3-0.7,0.4c-0.2,0.1-0.5,0.2-0.7,0.3c-0.5,0.2-0.9,0.3-1.4,0.4c-0.5,0.1-1.1,0.2-1.6,0.3
						c0.8,0.2,0.7,0.8,0.5,1.3c0.2-0.1,0.7,1.1,1.1,1.7c-0.5-0.1-1,0-1.4,0.2c0.2,0.4,0.4,0.7,0.4,0.9c0.1,0.3,0.1,0.5,0.2,0.7
						c0.1,0.4,0.2,0.8,0.6,1.2l-0.2-0.5c0.5,0.7,0.9,0.8,1.6,1.3c0.6,0.4,1.5,1.1,2.2,1.9c-0.2-0.2-0.2-0.2,0-0.1
						c0.1,0.1,0.2,0.3,0.3,0.4l0,0c-0.1-0.1,0,0,0,0c0,0,0,0,0,0c0,0,0,0,0.1,0.2l0,0c0,0.1,0,0.2,0.1,0.3c0,0.1,0,0.2,0,0.4
						c0,0.1,0,0.2,0,0.4c0,0.2,0,0.4,0,0.5l0-0.1c0,0.2,0,0.2-0.1,0.3c0,0.2,0.1-0.5,0.1-0.3c0,0.1-0.1,0.4-0.2,0.7
						c-0.1,0.3-0.2,0.6-0.2,0.6c0,0.1,0,0.1-0.1,0.2l0,0.1l0,0.1c-0.1,0.1-0.1,0.2-0.1,0.2c0,0,0-0.1,0-0.1
						c-0.1,0.2-0.2,0.4-0.2,0.4l0.1-0.1c-0.2,0.2-0.2,0.3-0.3,0.4c0,0,0.1-0.1,0.1-0.1l0,0c0.2-0.1,0.1-0.1,0.4-0.3l0,0
						c0,0,0.1-0.1,0.1-0.1c0,0,0,0,0.1,0l0,0l0,0l0,0l0,0l0,0l0,0l-4.4,3l0,0l0,0l0,0l0,0l0,0l4.5-3l0,0l0,0l0,0l0,0l0,0l0,0
						c0,0,0,0,0,0l0,0c-2.1,1.4-4.2,2.8-6.4,4.3c-0.1,0.1-0.2,0.1-0.3,0.2c-0.9,0.6-1.6,1-2.6,1.7c2-1.3,3.2-2.1,4.2-2.8
						c0.8-0.5,1.3-0.8,1.9-1.2c0.5-0.3,1-0.6,1.8-1.1c0.8-0.5,1.8-1.1,3.1-1.8l-0.5,0.3c-0.2,0.1-0.3,0.1-0.5,0.3
						c1.3-0.6,2-0.9,2.5-0.9c-1.3,0.4-1.9,1.3-3.6,1.9c-0.6,0.5-0.6,0.7-0.4,0.8c0.2,0.1,0.5,0,0.8-0.1c0.6-0.1,1-0.2-0.9,1.1
						c3.6-1.8,1.7-1.7,2.5-2c1.1-0.8,2.7-1.3,2.4-0.9c0,0.2-4.4,3.1-4.4,3.7c0-0.1-0.2,0.1-0.2,0c-0.4,0.4-0.2,0.3,0,0.3
						c0.2,0,0.3,0-0.5,0.7c2.2-1.3-0.2,0.5,2.6-1.3c-0.2,0-0.4-0.1-0.5-0.2c0.3-0.1,1.3-0.6,2-0.9c0.7-0.3,1.2-0.5,0.4,0.3
						c-0.6,0.4-1.3,0.7-1.8,0.9c-0.8,0.7,0.6-0.1-0.3,0.6c-1.4,0.9-1.6,0.9-1.7,0.8c0-0.1-0.1-0.1-0.2-0.1c-0.1,0-0.4,0-0.9,0.3
						c-0.6,0.5-0.2,0.4,0.1,0.3c0.3-0.1,0.4-0.1-1.2,0.9c2-1.2,1.9-1,1.7-0.7c-0.2,0.3-0.5,0.7,0.9-0.1l-1.7,1.1
						c0.2-0.1,1-0.5,0.9-0.4l-2.1,1.3c1.7-0.9-1.8,1.9-1.1,1.7c0.2-0.5,0.7-0.9,1.4-1.3c0.7-0.5,1.5-1,2.2-1.6
						c1-0.4-0.2,0.6-1.6,1.7c-0.7,0.6-1.5,1.2-2.1,1.7c-0.6,0.5-1,1-1,1.2c-0.1,0,0.3-0.4,0.8-0.8c0.5-0.4,1-0.9,1.4-1
						c-0.5,0.5-1.5,1.4-2.6,2.4c-0.1,0.4,0.4-0.1,1.1-0.6c0.7-0.6,1.5-1.2,1.9-1.5c-2.6,2.1,0.7-0.3,1.3-0.5l-2.1,1.6
						c-1.1,1.1,0,0.3,1.1-0.5c1.1-0.8,2.1-1.5,1.1-0.5l-2.9,2l0.2,0c0.1,0,0,0,0.1,0l0.3-0.1l-2.6,2c2.3-1.5,1.8-1,1.5-0.5
						c0.7-0.6,1.6-1.3,2.4-1.9c0.4-0.3,0.8-0.5,1-0.7c0.2-0.1,0.3-0.1,0.2,0c-1.5,1.3-1.8,1.4-2.1,1.9c-1.2,0.9-2.7,2-0.5,0.1
						c-0.6,0.4-1.2,0.9-1.7,1.3c-1.7,1.6-1.3,1.5-1.5,1.8c0.2-0.2,0.4-0.4,0.8-0.8c0.7-0.4,1.4-0.8,2.2-1.3c-1,0.9-1.6,1.3-2.2,1.7
						c0,0.1,1-0.6,0.9-0.4c-1.9,1.5-4,3.3-4.3,3.3c0.3-0.1,0.6-0.2,1-0.3c-0.5,0.5-1.3,1.1-2,1.8c-0.3,0.3-0.6,0.6-0.9,0.8
						c-0.3,0.2-0.5,0.4-0.7,0.6c-0.4,0.5,0.8-0.3,1.9-1.1c1.1-0.8,2.2-1.5,1.6-0.8c0.4-0.3,0.8-0.6,1.1-0.8c0,0.1-0.2,0.3-0.3,0.5
						l-0.2,0.3c-0.1,0.1,0,0.1-0.3,0.4c-0.7,0.8-1.2,1.4-0.3,0.8l-4.2,4c0.5-0.3,1.6-1.4,2.8-2.5c1.3-1.2,2.5-2.3,3.3-2.8
						c1.4-0.9-3,2.8-3.9,3.8c1-0.8,2.4-2,3.3-2.6c0.9-0.6,1.1-0.7-0.1,0.6C38.3,182.1,38.8,181.6,38.4,181.8z M38.9,186
						c-0.4,0.4-1.8,1.5-0.3-0.1C41.3,183.3,39.9,184.8,38.9,186z M47.2,185.7c-0.8,1-0.4,0.3,0.5-1
						C47.9,184.6,47.8,184.8,47.2,185.7z M75.1,156.1c0,0.1-0.1,0.1-0.1,0.2C74.9,154.1,74.9,155,75.1,156.1z M75.7,159
						c0.4-0.5,0.7-1.1,1-1.7c-0.6,1-1,0.9-1.2,0.3C75,158.8,74.8,159.7,75.7,159z M66.8,151.6l-0.9,0.6
						C64.8,152.8,65.7,152.3,66.8,151.6z"/>
					<path class="st0" d="M44.1,188.5c0.4-0.5,0.8-1,1.2-1.6C45,187.3,44.5,187.8,44.1,188.5z"/>
					<path class="st0" d="M37.8,179.9C37.8,179.9,37.8,179.9,37.8,179.9c-0.1,0.1-0.3,0.2-0.4,0.3L37.8,179.9z"/>
					<path class="st0" d="M52.2,195.3c0.3-0.6,0.7-1.4,1.1-2.2C52.7,194.1,52.3,195,52.2,195.3z"/>
					<path class="st0" d="M86.1,159.1c-0.5,0-0.9-0.1-1.4-0.1c0.4,0.3-0.1,1.1-0.5,1.9C85,160.2,85.9,158.9,86.1,159.1z"/>
					<path class="st0" d="M68.7,180.2c0.4-0.2,0.1,0,0.5-0.2l1.5-1C70.6,179,69.3,179.7,68.7,180.2z"/>
					<path class="st0" d="M76.5,170.2c-2.5,2.6-1.5,2-0.8,1.9c0,0-0.1,0,0-0.1C79.3,168.7,77.9,169.4,76.5,170.2z"/>
					<path class="st0" d="M75.8,172.1c0.2,0,0.3,0,0.2,0.2C77.5,171.1,76.2,171.9,75.8,172.1z"/>
					<path class="st0" d="M78.6,158c-0.3,1.1,2.8-4.1,2.1-2.6c1.5-2,0.2-1.2-1.1,0.1C78.4,156.8,77.2,158.5,78.6,158z"/>
					<path class="st0" d="M68.1,178.8l3.2-3.2c-0.9,0.8-1.8,1.6-2.6,2.5L68.1,178.8z"/>
					<path class="st0" d="M69.2,175.3c-0.2,0.4-0.3,0.9-0.5,1.3c0.5-0.6,0.8-1,1-1.2C69.7,175.1,70,174.1,69.2,175.3z"/>
					<path class="st0" d="M69.8,175.3c0,0.2,0.2,0.2,0.7-0.4C70.4,175,70.2,175,69.8,175.3z"/>
					<path class="st0" d="M66.9,179.6l0.6-0.7l0.1-0.4C67.4,178.9,67.2,179.3,66.9,179.6z"/>
					<path class="st0" d="M66.9,173l-0.8,1.3c-0.8,1.5-1.1,2.5-0.8,1.9C65.9,175.1,66.2,174.5,66.9,173z"/>
					<path class="st0" d="M61.8,186.1c0.4-1,0.8-2.1,1.5-3.7l-2.7,6L61.8,186.1z"/>
					<path class="st0" d="M60.2,187.3c-0.8,1.7-2.8,4.8-2.1,4.4C58.9,190.1,59.9,188.7,60.2,187.3z"/>
					<polygon class="st0" points="60.1,180.5 60.2,180.4 65.3,171.1 					"/>
					<path class="st0" d="M46,200.8c-0.7,1.4,0,0.3,0.7-0.9c0.7-1.2,1.3-2.2,0.6-0.7c0.6-1,0.8-1.4,1.2-2.1c0.3-0.6,0.6-1.2,1.1-1.9
						C48.4,196.8,49.1,195.4,46,200.8z"/>
					<path class="st0" d="M49.5,195.2c0.2-0.3,0.4-0.6,0.7-1.1C49.9,194.6,49.7,194.9,49.5,195.2z"/>
					<path class="st0" d="M40.6,153.1c0,0.2,0,0.4,0,0.6c0.1-0.1,0.1-0.1,0.2-0.2L40.6,153.1z"/>
					<path class="st0" d="M41.9,155.1l-0.6-0.3l0.7,0.7C42,155.4,41.8,155.1,41.9,155.1z"/>
					<path class="st0" d="M32.5,193.5l0.8-0.8c0.8-0.9,0.8-1,0.9-1.2L32.5,193.5z"/>
					<polygon class="st0" points="34.6,187.2 34.6,187.3 37.6,184.3 					"/>
					<path class="st0" d="M31.4,187.4c0,0.1,0.8-0.5,0.8-0.4C31.4,187.5,35.1,184,31.4,187.4z"/>
				</g>
			</g>
		</g>
	</g>
	<g>
		<g>
			<g>
				<g>
					<path class="st0" d="M155.9,165.7c0.4-0.5-0.2-0.3-0.2-0.4C155.2,166.1,156.1,165.7,155.9,165.7z"/>
					<path class="st0" d="M153.1,172.8l-0.4-0.3l0.5,1.3C153.2,173.5,153.1,173.1,153.1,172.8z"/>
					<path class="st0" d="M148.5,178.1c1.6,0.5,1.9,0,2-0.7c0.1-0.7,0.1-1.5,1-1.8l0.7,0.1l-1.5-1.2c-0.3,0.6-0.6,1.4-0.8,2.1
						C149.6,177.3,149.3,177.9,148.5,178.1z"/>
					<path class="st0" d="M139.5,175.9c1.3,0.7,0.3,0.9,1.1,0c-0.2-0.1-0.3-0.1-0.4-0.1C140.1,175.9,139.9,175.9,139.5,175.9z"/>
					<path class="st0" d="M140.2,175.8C140.7,175.6,138.8,175.3,140.2,175.8L140.2,175.8z"/>
					<path class="st0" d="M138.1,177l-0.3-1c-0.9-0.5-1.7-0.6-1.9-1C135.7,175.5,136.6,176.2,138.1,177z"/>
					<path class="st0" d="M139.6,179.1c0-0.2,0-0.3-0.1-0.5C139.2,178.4,139,178.3,139.6,179.1z"/>
					<path class="st0" d="M139.4,177.6l0.1,1.1c0.6,0.4,1.6,1.2,0-0.4C140.4,179,139.7,178.2,139.4,177.6z"/>
					<path class="st0" d="M140.4,177.8c1.1,0.4,2.1,0.4,2.3,1.5c0.5-0.5,0.2-1.2-0.4-1.5C141.7,177.5,140.9,177.4,140.4,177.8z"/>
					<path class="st0" d="M151.1,179.9c0.4,0,0.8-0.1,1.2-0.2l-0.5-1C152.1,179.3,150.2,179.5,151.1,179.9z"/>
					<path class="st0" d="M132.3,175.7c0.6,0.8,1.8,2,2.7,3l-0.2-0.9C134.1,177.3,133.2,176.8,132.3,175.7z"/>
					<path class="st0" d="M135,178.6c0.1,0.5,0.2,0.9,0.3,1.4C136.1,180.1,135.7,179.4,135,178.6z"/>
					<path class="st0" d="M142.8,182.2c-0.3-0.9-0.7-1.9-1-2.7c0.2,0.9,0.5,1.9,0.8,2.9L142.8,182.2z"/>
					<path class="st0" d="M130,174.8c-0.3-0.7-0.7-1.3-1-1.9c0.5,0.9,1,1.9,1.4,2.9L130,174.8z"/>
					<path class="st0" d="M129.1,174.5c-0.4-0.9-0.8-1.8-1.2-2.6c-0.4-0.8-0.7-1.5-0.9-2c0.1,0.3,0.3,0.6,0.4,0.9
						c0.2,0.6,0.5,1.2,0.7,2C127.9,172.2,128,172.6,129.1,174.5z"/>
					<path class="st0" d="M128.6,174.9c-0.1-0.4-0.3-1.2-0.6-2.1C128.2,173.5,128.4,174.2,128.6,174.9z"/>
					<path class="st0" d="M133.8,179.7c-0.4-0.5-1.4-1.9-2.1-2.6c0.6,0.9,1.2,1.7,1.8,2.5C133.6,179.7,133.7,179.7,133.8,179.7z"/>
					<path class="st0" d="M133.6,179.8L133.6,179.8c-0.4-0.2-0.6-0.2-0.7-0.3C133,179.5,133.2,179.6,133.6,179.8z"/>
					<path class="st0" d="M133.9,179.7C133.9,179.7,133.9,179.7,133.9,179.7C134,180,134.1,180,133.9,179.7z"/>
					<path class="st0" d="M139.1,181.6c0.3,0.6,0.4,1.3,0.8,2.1c0.4,0.7,1,1.5,2.3,2.1C141.3,184.3,139.9,183.5,139.1,181.6z"/>
					<path class="st0" d="M136.3,182.6c0.4,0.1,0.8,0.2,1.2,0.3c-0.5-0.6-1.3-1.4-1.5-2.1C136.1,181.4,136.2,182,136.3,182.6z"/>
					<polygon class="st0" points="136.4,183.5 136.3,182.6 135.9,182.5 					"/>
					<path class="st0" d="M130.4,178.2c0.3,1.2,0.1,1.2-0.1,1.4c0.5,0.7,1,1.2,1.3,1.2C131.2,179.8,130.6,178.2,130.4,178.2z"/>
					<path class="st0" d="M132,179.4c0,0.1,0,0.1,0,0.1C132.1,179.7,132.2,179.8,132,179.4z"/>
					<path class="st0" d="M128.1,178.4c0,0.2,0,0.4,0.1,0.7C128.2,178.8,128.2,178.7,128.1,178.4L128.1,178.4z"/>
					<path class="st0" d="M131.9,181.3c0.5,0.6,0.4-0.1,0.1-1c-0.1,0.3-0.2,0.4-0.4,0.4C131.7,181.2,131.9,181.5,131.9,181.3z"/>
					<path class="st0" d="M128.6,175.9c0.2,0.8,0.5,1.4,0.7,2C129,176.9,128.4,175.1,128.6,175.9z"/>
					<path class="st0" d="M131.5,178.7c0,0,0-0.1,0-0.1C131.1,178,131.2,178.3,131.5,178.7z"/>
					<path class="st0" d="M131.5,178.7c0.1,0.4,0.3,1,0.5,1.6c0.1-0.2,0.1-0.5,0-0.8C131.8,179.3,131.7,179,131.5,178.7z"/>
					<path class="st0" d="M127.5,201.6c0.1-1.7,0.5-3.4,1-4.1c0.5-0.7,1.1-0.7,1.9,1c0.5-1.3,0.1-4.6-0.5-8.3
						c-0.6-3.7-1.3-8-1.7-11.1c0.1,1.4,0.2,2.8-0.2,4.6c0.1,0.5,0.1,1,0.3,1.6c0.2,0.6,0.4,1.1,0.6,1.8c0.4,1.2,0.8,2.6,0.5,4.1
						c-1.1,1.7-1.1-1.2-1.5-3.1c0.2,2.1-0.1,3.6-0.6,5.4c-0.5,1.7-1.2,3.8-1.3,6.9c0.6-0.7,1.1-1.4,1.6-2.1
						C127.7,199.1,127.1,200.7,127.5,201.6z"/>
					<path class="st0" d="M129,179.9l0.1-0.3c-0.3-0.6-0.7-2-1.1-4.8c0.1,2.7,0.2,3.2,0.2,3.7c0.2,0.3,0.5,0.7,0.8,1L129,179.9z"/>
					<path class="st0" d="M129.9,179.9c0.4,1.6,0.5,2.7,0.7,3.9c0.2,1.2,0.4,2.5,1.1,4.3c0.5-0.1,0.4-0.8,0.3-1.6
						c-0.1-0.8-0.4-1.8-0.3-2.5c-0.5,0.4-0.6-0.1-0.7-0.8c-0.1-0.8-0.3-1.8-0.9-2.8c0-0.5,0.1-0.6,0.3-0.7c-0.3-0.4-0.6-1-0.9-1.6
						c0,0.1,0.1,0.1,0.1,0.2l0,0c0,0,0,0,0,0.1c0.2,0.4,0.2,0.7,0.1,0.4c0,0,0,0.1,0,0.1C129.7,179.1,129.8,179.5,129.9,179.9
						c-0.5-0.8-0.3-0.9-0.3-1.2c0-0.2-0.1-0.3-0.1-0.5l0,0c-0.1,0.4-0.2,0.9-0.4,1.4C129.3,180.1,129.6,180.1,129.9,179.9z"/>
					<path class="st0" d="M145,190.9c-0.2-0.1-0.3-0.3-0.5-0.4C144.7,190.8,144.8,191.1,145,190.9z"/>
					<path class="st0" d="M143.2,190.2c-0.1-0.4-0.7-1.3-0.1-1.4c0.9,0.4,0.8,1,1.4,1.7c-0.2-0.8-0.4-2.2-2-2.6l0.1,0.4
						c-0.6-0.1-1.8-0.8-2.7-1.5c-0.9-0.7-1.7-1.5-1.7-1.6C139.9,187.1,141.2,188.5,143.2,190.2z"/>
					<path class="st0" d="M135.9,187.3l-0.8,1.8c0.6,0.8,1.2,1.5,1.9,2.3l-0.7-1.5C137.5,190.2,136.4,188.4,135.9,187.3z"/>
					<path class="st0" d="M128,176.5c-0.1-1.3-0.1-2.5-0.2-3.8c0.1,0.8,0.1,1.7,0.1,2.6l0,0.7l0,0.1l0.1,1.2l0,0l0,0l0,0l0,0l0,0
						l0,0l0,0l0,0l0,0c0,0,0-0.1,0,0.1l0,0.6l0-0.7L128,176.5z"/>
					<polygon class="st0" points="127.9,176.6 127.9,176.7 128,176.4 					"/>
					<path class="st0" d="M62,163.6l-0.8-0.6C61.6,163.3,61.8,163.5,62,163.6z"/>
					<path class="st0" d="M64.8,167.2l0.5-0.3C65,167,64.8,167.2,64.8,167.2z"/>
					<path class="st0" d="M137.8,139.5c1.8-1.2,4-2.8,5.2-3.7c1.1-0.9,1.3-1.3-0.8-0.4l-4,2c0.3,0.1,0.4,0.2,0.4,0.4
						c0.1,0.1,0,0.3,0,0.5C138.5,138.7,138.2,139.1,137.8,139.5z"/>
					<path class="st0" d="M93,154.8c-0.4,0.1-0.7,0.2-1.1,0.3c0.6-0.4,1.3-0.8,1.8-1.2c1-0.6,1.9-1.1,2.7-1.6
						C95.3,153.2,93.7,154.2,93,154.8z"/>
					<path class="st0" d="M77.7,162.4c0.8-0.2,1.6-0.3,2.4-0.4C79.3,162.1,78.5,162.3,77.7,162.4z"/>
					<path class="st0" d="M63.9,130.5l-0.9-2.1C62.3,129.8,63.3,129.8,63.9,130.5z"/>
					<path class="st0" d="M127.1,172.2c0.3-0.2,0.7-0.4,1-0.5c-0.1,0-0.2,0.1-0.3,0.1c-0.2,0.1-0.3,0.2-0.5,0.2
						c0.1-0.1,0.2-0.1,0.4-0.2c-0.3,0.1-0.5,0.3-0.8,0.4c-0.2,0.1-0.5,0.2-0.7,0.4C125.5,173,125.5,173.1,127.1,172.2z"/>
					<path class="st0" d="M74.3,156.4c-0.3,0-0.6,0.2-0.8,0.3C73.9,156.7,74.1,156.6,74.3,156.4z"/>
					<path class="st0" d="M126,172.5c0.1,0,0.2-0.1,0.2-0.1c0.4-0.1,0.7-0.3,1.1-0.4C127,172.2,126.5,172.4,126,172.5z"/>
					<path class="st0" d="M45.1,98.4c0.2,0,0.2-0.1,0.4-0.1C45.1,98.2,45.1,98.3,45.1,98.4z"/>
					<path class="st0" d="M50.1,86c0.1-0.3,0.4-0.6,0.7-0.9C50.6,85.1,50.4,85.4,50.1,86z"/>
					<path class="st0" d="M129,172.6C129.1,172.4,129.2,172.2,129,172.6L129,172.6z"/>
					<path class="st0" d="M122.6,187.9c-0.2,0.4-0.5,0.9-0.9,1.7C122.1,188.7,122.4,188.2,122.6,187.9z"/>
					<path class="st0" d="M101.7,174.6C101.7,174.5,101.7,174.5,101.7,174.6C100.9,174.7,101,174.7,101.7,174.6z"/>
					<path class="st0" d="M128.1,174.4c0.2-0.4,0.4-0.8,0.6-1.2C128.5,173.5,128.3,173.9,128.1,174.4z"/>
					<path class="st0" d="M129,172.6c-0.1,0.2-0.1,0.3-0.2,0.4C129.1,172.5,129.3,172.1,129,172.6z"/>
					<path class="st0" d="M128.9,172.6c0,0-0.1,0.2-0.2,0.5C128.9,172.7,128.9,172.7,128.9,172.6C129,172.6,129,172.6,128.9,172.6z"
						/>
					<path class="st0" d="M78.9,110.8c0.1-0.1,0.2-0.1,0.3-0.2c-0.4,0.2-0.6,0.3-0.8,0.4c0,0-0.1,0-0.1,0.1c0,0,0,0,0,0c0,0,0,0,0,0
						c0,0-0.1,0.1,0,0C78.5,111,78.7,110.9,78.9,110.8z"/>
					<path class="st0" d="M84.6,153.6c0.1-0.1,0.2-0.1,0.3-0.2c0.1,0,0.1-0.1,0.2-0.2L84.6,153.6z"/>
					<path class="st0" d="M79.8,156.1c7-4.8,6.5-4,5.3-2.9c5.2-3.7,10.4-7.5,15.5-11.3C93.5,146.6,86.5,151.3,79.8,156.1z"/>
					<path class="st0" d="M58.7,148.1c-0.5,0.6-1,1.3-1.4,2c-0.9-1.5-1-2.7-1.2-3.4c-0.2-0.6-0.5-0.7-1.4,0.3c2,0.6,1.8,2.8,2,5.1
						c0,1.1,0.2,2.3,0.6,3.2c0.4,0.9,1.1,1.4,2.1,1.2c-0.2,0.5-0.4,1.1-0.5,1.7c-0.1-0.4-0.3-0.4-0.4-0.9c-0.6,1.7,0.4,2.1,1.4,2.4
						c1.1,0.3,2.3,0.5,2.8,2.1c0.3,1.2,0.3,2.3-0.6,1.8c0.8,0.7,1.6,1.2,2.4,1.6c0.4,0.7-0.2,1-0.7,0.3l0.7,0.8
						c0.1,0.1,0.2,0.1,0.3,0.2c0.2,0.1,0.4,0.3,0.6,0.3l-0.1,0.1c0.7-0.3,2-0.6,2.6-0.7c-0.2,0.5-0.6,0.1-1,0.5
						c0.6,0,1.1-0.1,1.8-0.1c-0.4,0.3-1.1,0.5-1.6,0.6c-0.6,0.1-1,0.1-1.1-0.1c-1.7,1.2-1.5,1.1-0.8,1c0.3-0.1,0.8-0.2,1-0.1
						c0.2,0,0.3,0.2-0.2,0.5l-1.1,0c-0.7,0.3-1.2,0.5-1.9,0.8c-0.3,0.1-0.4,0.2-1.4,0.4c0.6-0.1,1.8-0.4,3-0.8
						c1.2-0.4,2.3-0.8,3.3-0.9c-0.2,0.2-0.3,0.3,1.4,0.1c-2.2,0.5-1.4,0.4-0.8,0.5l-3.3,0.5c1.2-0.1,2.9-0.3,4.8-0.5
						c0.2,0.1-2.6,0.5-5.1,0.7c-0.1,0.1,1-0.1,2.3-0.2c1.3-0.2,2.7-0.3,3.6-0.3c-0.9,0.2,1.1,0.1,5.1-0.1c-0.5,0.1-1.3,0.1-2.1,0.2
						c-0.8,0.1-1,0.1-2.2,0.1L76,169c0,0-0.3,0-0.7,0.1c-0.4,0-0.9,0.1-1.2,0.1c0.1,0,0.1,0,0.1,0l0,0c0.9-0.2,2.1-0.3,3.4-0.5
						c1.2-0.1,2.5-0.3,3.3-0.8c2.9-0.4,1-0.7-0.9-0.9c-1.9-0.2-3.8-0.2-0.3-1.5c-1.5,0.1-3.3,0.9-5.4,1.4c2.3-1.1,3.1-1.6,4.1-2.2
						c1-0.6,2.2-1.1,5.3-2.9c-1.2,0-2.3,0.1-3.5,0.3c2-0.5,4.3-1.4,6.5-2.6c2.2-1.2,4.5-2.9,6.5-4.5c0.2-0.1,0.5-0.1,0.7-0.2
						c0.1,0,0.3-0.1,0.5-0.2c0.2-0.1,0.4-0.1,0.6-0.2c0.8-0.2,1.5-0.5,2.1-0.7c1.3-0.4,2.4-0.7,3.1-0.9c1.7-1.6,3.2-3.3,4.7-5
						c-1.5,0.4-4.5,2.3-8.3,4.5c0.8-0.6,1.5-1.1,2.1-1.5c-0.8,0.2-1.8,0.6-2.8,1c-0.5,0.2-1,0.5-1.6,0.8c-0.2,0.1-0.4,0.2-0.6,0.3
						c-0.2,0.1-0.3,0.2-0.5,0.3c-1.4,0.8-3,1.9-4.5,2.9c1.1-0.3,2.2-0.6,3.3-0.9c-3.3,2.1-7,4.1-10.2,5.5c0.6-0.4,1.2-0.8,1.5-1.2
						c-0.9,0.5-1.7,1-2.2,1.2c-0.6,0.2,0.6-0.5,2-1.4c-2,0.9-4,1.8-6.1,2.7l2.4-1.3c-1.2,0.1-2.5,0.3-3.7,0.6
						c3.1-2.3,7-5.3,10.5-8.5c3.5-3.1,6.8-6.5,8.8-9c-2.5,2.2-4.4,3.6-6.4,5.2c-2,1.5-4.1,3-6.9,5.2c2.8-2,2-1.1,0.7,0.2
						c-1.3,1.3-3.2,3-2.7,3.1c-0.5-0.1-3.1,1.8-4,2.5c1.8-1.6,3.7-3.4,5.7-5.3c-4.5,3.4-3.3,2.2-5,3.4c8.9-6.7,6.7-5.9,10.1-9
						c-3.2,2.6-6.6,5.4-6.3,5.5c-3.3,2.5-0.4,0.1,2.8-2.6c3.1-2.7,6.6-5.6,3.8-3.4c-0.3,0.3,0.2-0.1-1.6,1.4
						c1.6-1.4,2.2-1.9,1.9-1.7c-0.3,0.2-1.4,1.2-3.1,2.6c-0.1,0.1-0.2,0.1-0.2,0.2c0,0,0.2-0.1,0.7-0.4c0.2-0.2,0.6-0.3,1-0.6
						c0.4-0.2,0.9-0.5,1.5-0.8c2.3-1.3,6.1-3.4,11.4-7.3c-1.3,1-12.1,9-14.7,10.9c6.1-4.3,12.4-8.6,19-12.6l5-3l2.5-1.5l1.7-0.9
						l3.3-1.6l3.3-1.5c-1.5,0.9-3.5,2.2-5.6,3.7c-1.4,1-3,2-4.5,3.1c-1.9,1.3-3.8,2.6-5.6,3.8c-7.5,5.1-14.6,9.6-17.7,11.1
						c-1.1,1.1-2.5,2.3,1.4,0.6c0.6-0.5,4-2.8,7.4-5.1c3.4-2.3,6.7-4.5,7.3-4.6c-5,3.9-6.4,4.9-7.6,5.8c-1.2,0.9-2.1,1.8-6.6,5
						c1-0.7,5.4-3.3,9.6-5.6c4.2-2.2,8.1-4.1,7.9-3.5c-2.4,1.2-15.5,8.6-17.2,9.3c5.2-2.5,10.5-4.7,15.8-6.8
						c-2.8,1-13.2,6.7-17.5,9.1c1.5-0.8,1.5-0.5,1.2-0.1c-0.3,0.4-0.7,1,0,0.8c1.2-0.7,2.4-1.4,3.6-2.2c-1.2,1.3,4.2-0.8,9.7-2.7
						c5.5-1.9,11.2-3.6,10.3-2.2c-1.5,0.5-6.3,2.1-11,4c-4.7,1.8-9.3,3.7-10.4,4.4c3.8-1.3,13-4.3,21.5-6.6c0.5-0.1,1.1-0.3,1.6-0.4
						c0.4-0.1,0.8-0.2,1.2-0.3c0.8-0.2,1.6-0.3,2.4-0.5c1.5-0.3,3-0.6,4.4-0.8c1.3-0.2,2.6-0.4,3.6-0.4c1-0.1,1.9-0.1,2.3,0
						l-3.8,1.5c1.1,0.2,2.2,0.4,3.5,0.6c-2.1,0.3-5,0.8-8.4,1.3c-1.5,0.3-3.1,0.5-4.8,0.8c-0.4,0.1-0.8,0.1-1.2,0.2
						c-0.4,0.1-0.8,0.1-1.3,0.3c-1,0.2-2,0.4-2.9,0.6c-7.8,1.7-15.8,3.8-20.4,5.1c-3.7,1.6-5.2,1.9-5.1,2.3c-4.1,1.5-6,1.8-6.2,1.8
						c-1,0.6-2.1,1.1-3.1,1.6c4.3-1.3,6.4-1.8,8.2-2.1c1.8-0.3,3.4-0.5,6.9-1.4c-2.5,0.2-5.1,0.5-7.9,1.1c4.4-1.4,10.5-3.1,15-4.1
						c4.5-0.9,7.4-1,6.1,0c-1.8,0.6-5.4,1.4-8.9,2.2c-3.5,0.8-7,1.6-8.4,1.9c2.8-0.6,4.7-0.3,2.6,0.3c-1.3,0.2-2.7,0.3-4,0.5
						c-1.7,0.6,0.9,0.2,2.7,0c1.9-0.2,3.1-0.1-0.8,0.9c-0.3,0.2-2.9,0.8-4.8,1.2c-1.9,0.4-3.2,0.7-0.9,0.4c6.3-1,14.3-2.3,22.2-3.6
						c2.2-0.3,4.4-0.7,6.5-1c2.2-0.3,4.2-0.6,6.1-0.9c3.8-0.5,6.8-0.9,8.5-0.9c-0.2,0.1-0.9,0.4-1.9,0.9c-1.1,0.5-2.5,1.1-4.1,1.7
						c-3,1.2-6.6,2.4-9,2.9c-1,0.2-1.9,0.3-2.9,0.4c-0.9,0.1-1.8,0.1-2.7,0.2c-1.8,0.1-3.7,0-5.6,0.1c-3.7,0-7.4,0.2-10.3,0.6
						c2-0.2,4.4-0.1,5.2,0c-1.9,0.5-6.2,0.3-5.5,0.9c7.4-0.2-1,1.7,6.2,0.1c1.9,0.9-1.7,1-1.5,2c1.2,0,2.8,0,4.5,0.2
						c0.9,0.1,1.8,0.1,2.7,0.2c0.9,0.1,1.9,0.4,2.8,0.6c1.5,0.4,3.3,0.8,5,1.2c1.4,0.3,2.5,0.6,3.1,0.8c-1.9,0-4.3,0.4-5.4,0.6
						c-0.2,1.4-1,2.6-1.7,3.9c-0.6,1.3-1.1,2.7-0.6,4.1c-0.8,0.4-1.5,1.2-2.4,1.9c-0.9,0.7-2,1.5-3.6,1.7c1.4,0,3.8-0.6,4.4,0.2
						c-2.3,2.2-2.8,1.9-3.5,1.4c-0.6-0.4-1.5-0.9-4.5,1.4c3.9-1.5,6.6,0.2,9.5,0c2.6-1.8,2.5-2.6,1.4-2.9c-0.6-0.2-1.4-0.3-2.3-0.4
						c-0.9-0.1-1.8-0.2-2.6-0.2c4.1-1.8,8.5-3,12.3-4.1c3.8-1.1,7-2.1,9-2.6c1.1-0.1,0,0.8-1.2,1.7c-1.2,0.9-2.6,1.7-2.1,1.5
						c0.1,0.8,1,0.7,2.1,0.2c1.1-0.5,2.6-1.5,3.8-2.4c1.3-0.9,2.3-1.8,2.9-2.1c0.6-0.3,0.5,0-0.3,1.4c-1.6,2.2-3.3,4.3-4.9,6.1
						c-1.6,1.8-3.3,3.4-4.5,4.9c-1.3,0.3-1.1-0.8-0.7-2c0.4-1.1,1.1-2.4,0.7-2.6c-0.4,0.9-0.8,1.7-1.1,2.6c-1.6,0.9-3.4,1-2.6-0.5
						c-1.6,2-0.6,3.4,0.8,4.9c1.4,1.4,3,2.8,3.4,5.5c1.4-1.2,3.1-2.3,3.7-4.3c-0.4,0.1-0.8,0.1-1.1,0.2c0.7-2,1.8-3,2.7-3.8
						c0.9-0.8,1.5-1.5,1.6-2.5c1.1-1,2.3-2.4,3.1-3.3c0.8-0.8,1.2-1.2,1.2,0.1c-0.6,1.8-1.2,3.6-1.7,5.4c0.3-0.8,0.4-1.7,0.3-2.1
						c0-0.5-0.2-0.6-0.7,0.1c0.7-1.1,0.3,1,0.3,2.4c0,1.4,0.4,2.3,1.6-1.2c0.1-1.4,0.2-2.7,0.4-4c0.7-1.2,1.5-3.1,2-4.5
						c0.2-0.7,0.4-1.3,0.5-1.5c0.1-0.3,0.1-0.2,0.1,0.3c0.1-1.2,0.2-1.9,0.3-2.3c0-0.3,0-0.3,0-0.3s0,0,0.1-0.4
						c0-0.1,0.1-0.3,0.1-0.6c0,0.1,0,0.1,0,0.1c-0.1,0.4-0.2,0.8-0.2,1c-0.1,0.4-0.1,0.3-0.1,0.2c0-0.1,0-0.2-0.2,0.2
						c-0.2,0.5-0.5,1.5-1,3.6c1-3.7,1.3-4.6,1.5-5.3c0.1-0.4,0.2-0.7,0.5-1.4c0.1-0.3,0.3-0.7,0.4-1c0-0.1,0.1-0.2,0.1-0.3
						c-0.1,0.1-0.1,0.3-0.2,0.4c-0.2,0.5-0.3,0.6-0.1,0.1c-0.2,0.4-0.5,1-0.7,1.5c0-0.1,0-0.1,0.1-0.1c0,0.1-0.1,0.1-0.1,0.2
						c-0.1,0.2-0.2,0.3,0,0.1c-0.5,1.2-1,2.2-1.2,2.8c-1.9,3.8-2.5,3.1-4,4.8c0.3-1,1.3-1.8,2.3-3.7c-0.7,0.9-1.4,1.7-2.2,2.6
						c1.2-1.8,2.2-3.5,3.1-4.8c0.9-1.4,1.8-2.4,2.5-3.3c0-0.1,0.1-0.3,0.1-0.5c1.6-2.1,2.5-3,1.3-1.7c0.4-0.4-0.5,0.4-1.1,1
						c-0.7,0.6-1.1,1,0.2-0.2c-0.7,0.5-1.4,1-2.1,1.4l0.9-0.7c0.3-0.3-1.2,0.6-2.1,0.8c-0.4,0.1-0.6,0.1-0.2-0.2
						c0.2-0.1,0.5-0.3,1.1-0.5c0.5-0.2,0.1,0,0.1,0l-0.3,0.1c-0.5,0.2-1.1,0.4-2,0.5l-0.2,0c-0.7,0.1-1.8,0.2-2,0.2
						c-0.1,0-0.1,0-0.2,0c0,0-0.1,0-0.1,0l-0.1,0l0,0l0,0l0,0c31.3,2.2,8.7,0.6,15.7,1.1l0,0l0.1,0l0.1-0.1l0.2-0.1
						c0.6-0.3,1.1-0.6,1.7-0.9c0.4-0.2,0.3-0.2,0.4-0.3l0.2-0.2c0.3-0.3,0.5-0.6,0.7-0.9s0.3-0.6,0.5-1c0.1-0.2,0.1-0.3,0.2-0.5
						c0-0.2,0-0.3,0-0.5c0-0.7,0-1.4,0-2c0-0.7,0.1-1.3,0.2-1.9c0-0.3,0.1-0.6,0.2-0.9c0-0.3,0-0.6,0.1-0.8c0.1-0.5,0.3-1,0.7-1.5
						l-6.1,0.4c0.2-0.6,0.3-1.1,0.2-1.6c0-0.1,0-0.3-0.1-0.4c0-0.1,0-0.2,0-0.4c0-0.2-0.1-0.5-0.2-0.7c-0.1-0.5-0.6-0.9-1-1.4
						c-0.5-0.4-0.8-0.9-1.2-1.3l-5.4,1.1c-0.9-0.3-1.2-0.7-0.9-1.2c0.3-0.5,1.1-1.2,2-2c0.5-0.4,0.9-0.8,1.4-1.1
						c0.5-0.4,0.8-0.7,1.2-1.1c0.6-0.7,1.4-1.5,1.3-2.1c2-0.4,1.2,0.4-0.1,1.2c1.5-0.7,2.6-1.4,3.3-1.9c0.6-0.5,0.7-0.9,0.7-1.3
						c0.1-0.8-0.9-1.2-1.9-1.6c-0.6-0.2-1.2-0.3-1.7-0.5c-0.5-0.2-0.8-0.4-1-0.7c-0.3-0.6,0.1-1.4,2.1-2.7c-0.4,0-0.6-0.1-0.8-0.2
						c-0.2-0.1-0.2-0.2-0.2-0.3c0-0.3,0.4-0.7,1-1.1c0,0.1,0.1,0.1,0.3,0.1c0-0.1,0-0.2,0-0.3c0.8-0.6,1.6-1.3,2.3-1.9
						c-1.1,0.7-1.9,1.4-2.3,1.8c-0.1-0.5-0.6-1.2-1.7-1.6l4.5-2.3c-0.1,0-0.1-0.1-0.2-0.1c1.4-1.5-2.3,0.3-5.6,2.1
						c-0.8-0.1-1.8,0-2.9,0.1c3.5-1.9,2.9-2.2,2.2-2.5c-0.3-0.2-0.7-0.3-0.5-0.7c0.2-0.4,1-1.1,2.7-2.2c-0.9,0.3-1.6,0.2-2.3,0.1
						c-0.6-0.2-1.2-0.5-2-0.7c-1.6-0.4-3.5-0.5-7.1,1.3c0.9-0.6,1.2-1,1.5-0.6c0.4-1.3,0.8-2.7-1.6-2.2l4.7-3.4
						c-2.7,0.8-5.3,1.6-7.9,2.7c0.5-0.7,1-1.3,1.5-1.9c0.5-0.6,1-1.1,1.6-1.5c0.6-0.5,1.2-0.9,2.1-1.4c0.8-0.4,1.8-0.9,2.9-1.2
						c-1,0.2-1.8,0.4-2.5,0.5c-0.7,0.2-1.2,0.3-1.7,0.3c-0.9,0.2-1.3,0.2-1.8,0.2c-0.9,0.1-1.8,0.2-5.7,2l3.2-2.4
						c-0.4-0.1-1.9,0.5-3.1,1.1c-1.2,0.6-2,0.9-0.9-0.2c2.3-2.4,0.9-2.7,0.1-1.9c-0.4,0.4-0.8,1-0.5,1.3c0.1,0.1,0.2,0.2,0.3,0.2
						c0.2,0.1,0.3,0.1,0.6,0.1c0.6,0,1.4-0.3,2.5-0.5c-6.3,4.5-4.9,3.8-3.1,3c1.9-0.8,4.4-1.7-0.8,2.2c3.2-2,5.3-2.6,7.8-5.4
						c-0.3,0.6-0.4,1-0.4,1.4c0,0.2,0,0.3,0.1,0.4l0,0.1c24-16.7-32.7,22.8-26.8,18.7l0,0l0.1,0l0.1-0.1l0.2-0.1l0.4-0.3l0.9-0.5
						c1.2-0.7,2.3-1.4,3.4-2.1c4.6-2.9,9-5.6,13.2-8.2c2.2-1.4,4.3-2.7,6.4-4c1.1-0.7,2.1-1.3,3.2-2l0.8-0.5l0.1-0.1l0,0l0,0l0,0
						l0.1,0.1c0.5,0.3,0.8,0.7,0.4,1.6c-0.4,0.8-1.3,2.1-3.6,4.1c3.8-1.8,4.9-3.8,7.2-4.8c-0.3,0.4-0.9,1.1-1.2,1.6
						c-0.1,0.3-0.2,0.4-0.1,0.5c0.1,0.1,0.4,0.1,1-0.2c1.2-0.4,1.9-1,2.5-1.7c0.6-0.7,1-1.3,1.6-2.1c0.1,0.2,0.1,0.5,0.1,0.7
						c0,0.3-0.1,0.6-0.3,0.9c-0.3,0.6-0.7,1.3-1.3,1.9c-0.6,0.7-1.3,1.3-2.1,2c-0.8,0.7-1.7,1.4-2.8,2.1c-4.1,2.9-9.8,6-15.3,9
						c2.8-0.6,4.1-0.6,3.8,0.2c-0.2,0.4-0.7,0.9-1.7,1.7c-1,0.8-2.5,1.7-4.3,2.8c3.8-1.2,7.9-1.7,9-4.6c0.2,0.3,0.6,0.7,1.1,1.3
						c0.5,0.6,1.1,1.4,1.4,2.3c0.5,1.8-0.6,4-5.4,5.5c2.5-0.4,0.7,1.6-0.4,2.2c0.5,2.6,1.4,2.8,0,5.7l-1.5-0.5
						c-6,1.6-6.8,2.1-6.3,2.6c0.5,0.5,2.3,1.1,1.2,2.1l1.2-0.2c0.8,0.5,1.4,0.9,1.8,1.2l0,0c1-0.2-0.4-0.2-1.3-0.1
						c-0.9,0-1.3,0,2.3-0.6l-7.6,0.6c-8.3,0.6-6.6,0.3-3.4-0.1c1.6-0.2,3.5-0.6,4.6-0.9c1.1-0.3,1.3-0.5-0.7-0.5
						c-1.5,0.3-2.9,0.5-4.3,0.8c-3.4,0.2,2.1-0.7,9-2c6.9-1.4,15.3-3.3,16.4-4c1.6-0.5,2.7-0.1,4,0.1c1.3-0.6,2.1-0.9,2.6-1.3
						c0.4-0.4,0.4-0.6,0.1-0.7c-0.6-0.2-2.5,0.1-4.9,0.5c-4.7,0.8-11.1,2-12.9,1.2c3.1-0.8,7.3-1.5,10.7-2.2
						c1.7-0.3,3.3-0.7,4.4-1.1c1.2-0.4,2-1,2.3-1.8c1.3-0.6,0.6-1.2-1-1.7c-0.4-0.1-0.9-0.2-1.4-0.4c-0.6-0.2-1.2-0.4-1.8-0.5
						c-1.2-0.3-2.6-0.7-3.9-1c-0.6-0.2-1.3-0.3-1.9-0.5l-0.9-0.3l-0.9-0.4c-1.2-0.5-2.1-1.1-2.7-1.8c-0.3-0.3-0.5-0.7-0.6-1.1
						c-0.1-0.4-0.1-0.8-0.1-1.4c0.1-1.1,0.6-2.4,1.8-4c-2.2,2-4.4,3.8-6.7,5.1c-2.3,1.2-4.8,1.8-7.4,1.6c-0.5-0.3-0.6-0.9-0.6-1.7
						c0-0.2,0-0.4,0.1-0.6l0,0c0,0,0,0,0,0l-0.3,0.1l-0.5,0.2c-0.3,0.1-0.7,0.3-1,0.5c-1.4,0.6-2.8,1.2-4.3,1.9
						c-3.2,1.4-6.5,2.8-9.8,4.3c-1.9,0.8-3.7,1.7-5.6,2.5l-3,1.3c-0.7,0.3-0.5,0.2-0.6,0.2l-0.2,0c-0.9-0.1-2.1-0.2-3.3,0l-0.5,0.1
						c-0.1,0-0.1,0-0.1,0l0,0c-0.1,0-0.1,0-0.2,0c-0.2,0-0.4,0.1-0.7,0.3c0.1-0.2,0.2-0.4,0.4-0.5c-0.5,0-1-0.2-1.6-0.5
						c-0.5-0.3-1.2-0.6-1.9-0.5c2.2-1.2,1.3-1.7,0.7-2.7c-0.7-0.9-1.2-2.2,1.1-1.8c0-0.3,0.1-0.7,0.2-1.1c0.1-0.4,0.2-0.7,0.3-1.1
						l0.4,0.2c0.3-0.3,0.4-0.6,0.4-0.8c0.1-0.3,0.1-0.5,0-0.8c-0.2-0.5-0.5-1-0.9-1.6c0.5-0.2,0.8,0.3,1,0.5
						c1.2-0.7,1.9-1.1,2.1-1.7c0.2-0.6,0-1.4-0.3-3.1l1.7,1.1c-0.2-0.6,1.1-0.7,2.6-0.8c1.5-0.2,3.3-0.4,3.7-2.1
						c0.2,0.2,0.4,0.6,0.4,0.9c0.5-1.8,3.6-1.5,6.2-1.6c1.3-0.1,2.4-0.3,2.9-1c0.4-0.7,0.1-2-1.6-4.2c0.1-1.2,0.1-2.3,0.1-3.6
						c-1.7,0.8-2.5-0.1-3.2-1.3c-0.7-1.2-1.5-2.6-2.6-2.8c0.1-0.7,1.3-0.6,2.4-0.3c1.1,0.3,2.2,1,1.9,1.8l-0.6-0.2
						c2.1,2.2,3.4,1.8,4.5,1.2c1.1-0.7,2.1-1.7,4-0.4c0.7-0.8,1.4-1.6,2.1-2.5c0.4-0.4,0.7-0.9,1.1-1.3c0.4-0.4,0.7-0.8,1.1-1.5
						l1.2-1.8l1-1.8c0.7-1.2,1.3-2.5,1.8-3.8c0.5-1.3,1-2.6,1.3-4c0.4-1.4,0.6-2.8,0.7-4.2c0.2-2.9,0-5.9-1.1-8.9
						c-1.8,1.3-3.6,2.6-5.5,3.7c-0.3-1.2-0.6-2.3-1.1-3.5c0.4-0.8,1.3-1.8,2.3-2.2c1-0.4,2-0.2,2.6,1.3c1.3-1.6-0.1-2.6-1.8-2.8
						c-1.8-0.3-4,0.2-4.6,0.6c-0.3-1.6-0.2-2.6,0.4-3.2c0.6-0.6,1.5-0.9,2.6-0.9c2,0,4.2,0.9,3.6-0.1c-0.7-0.8-1.4-1.5-2.3-2.2
						l-0.1,1.1c-1.9-0.1-3.3,0.4-4.6,0.5c-0.6,0.1-1.3,0-1.9-0.2c-0.7-0.2-1.4-0.6-2.2-1.3c-0.8-1.3-0.6-2.4-0.3-3.2
						c0.3-0.8,0.7-1.5,0.2-1.9c0.2-0.4-0.1-0.9-1.7-1.1c-1.2-0.6-2.4-1.1-3.6-1.6c-1.2-0.4-2.5-0.8-3.7-1c0.8,1.9,1.4,3.8,1.8,5.6
						c-1.5,0.8-2.7,0.7-3.5,0.9l-15.5,3.1l2.8,3.5c0.2,0.2,0.6,0.6,2.9,1.7l9.4-4.9c0,0.3,0.1,0.5,0.2,0.8c0-0.2-0.1-0.4-0.2-0.6
						l-9.2,4.7c-3.9-1.6-4.6-1.6-5-1.1C68.2,94.9,68,96,67.1,95c1.6,3.4,0.8,4-0.2,4c0.6,0.8,3.1,5.9,1.7,5.7
						c-1.9-5.4-2.7-6.4-3.3-7c-0.3-0.3-0.6-0.5-0.9-1.1c-0.3-0.6-0.7-1.6-1.1-3.6c0.6,2.5,0.4,3,0.1,3.8c-0.1,0.4-0.3,0.8-0.3,1.6
						c-0.1,0.8-0.1,1.9,0.3,3.7c-0.4-0.4-0.4-1.4-0.4-2.6c0-1.2-0.1-2.7-0.2-3.9c-0.1,0.8-0.3,1.3-0.5,1.5c-0.2,0.2-0.4,0.1-0.6,0
						l10.7,18.3c0.7-1.3,1.7-2.5,2.5-3.9c0.8-1.4,1.2-2.9,0.9-4.6c-1.2-0.3-3.2,0.1-4.9-1.3c2.1-0.4,4.2-0.9,6.2-1.4
						c-0.3-0.5-2-1-3.2-1.5c-1.1-0.5-1.7-0.9,0.3-1.5c-1,0.1-2.5,0.3-2.8-0.4c1.7-2.6,1.5-5.5,0.7-8.3c-0.8-2.8-2.2-5.5-3.2-8
						l-4.5-11.4L58,79.3c-2.2,2.1-4.7,3.4-7.5,4.3c1.2,0,0.8,0.7,0.3,1.4c0.5-0.2,0.6,1.2,1.1,1.7c-1.1,0.2-2.1,0.5-3.1,1
						c0.2,0.9-0.4,1.6-1,2.3c-0.6,0.7-1.1,1.4-1,1.9c0.2-0.3,0.4-0.6,0.6-0.9c-0.2,1.1,0.4,1.2,1.4,1.6c0.9,0.4,2.1,1,2.5,1.9
						c0.3-1,1.6-0.7,3.1-0.3c0.7,0.2,1.5,0.4,2.2,0.3c0.6-0.1,1.1-0.4,1.2-1.5c0.9,0.5,0.1,1,0.7,1.6c0-1.3,0.5-1.9,2.3-1.6l0,0.4
						c1.7-0.6,3.2-0.7,4.8-0.6l-12.1-5.8c-0.8,1.5-2.1,2.9-3.5,4.8l2.7-0.4c-0.5,0.8-1.4,1-2.2,1.3c3.9,0.8,0.8-2.1,5-1.6
						c-2.7,0.7-3.1,2-3.7,3.3c-0.5,1.3-1.1,2.5-4.9,2.4c-0.5,1,3.7,0,3.2,1.1l-2.1,0.1l2.4,0.6c-0.7,0.7-3.4,0.6-5.1,0.4
						c0.3-0.1-0.3-0.5-0.3-0.7c-1.4,0.2-1.5,0.7-1.4,1.3c0.1,0.5,0.5,1,0,1.1c0.6-0.2,1.2-0.4,1.8-0.6c0.3,1.8-1.3,3.4-1.9,5
						l-7.1,19l20.1,3.1c2.9,0.5,5.9,0.2,8.2-1.7l-0.6-1.8c1.1-0.8,1.9-1.2,2.5-1.2c0.6,0,1.1,0.3,1.7,0.6c1.1,0.6,2.4,1.5,4.7,0.1
						l-0.1,0.5c0.5-2.1,1.4-3.3,2.7-3.6c-0.2,1.3,0.8,2.1,1.8,2.9c1,0.8,2,1.7,1.6,3.1c1-1.4,1.4-2.3,1.7-3.1
						c0.2-0.7,0.3-1.3,0.2-1.9c-0.2-1.2-0.7-2.7-1.4-6.5c0.8,0.8,1.6,1.6,2.4,2.4c-0.4-1.5-0.8-2.6-1-3.5c-0.2-0.9-0.1-1.7,0.5-2.7
						c0.2,1.6,1.2,2.4,2.4,3.2c1.1,0.8,2.4,1.7,2.6,3.9c1.1,0.3,2,0.3,2.8,0.1c0.7-0.2,1.2-0.6,1.6-1c0.8-0.9,0.9-2.2,0.9-3.3
						c0.1-1.1,0.1-2.1,0.7-2.5c0.6-0.4,1.9-0.3,4.6,0.5c-1.5-1.9-2.8-2.7-3.7-2.9c-1-0.2-1.7,0-2.2,0.5c-0.5,0.4-0.9,1-1.2,1.3
						c-0.3,0.3-0.5,0.4-0.7-0.2c-1.5-0.5-2.5-2-3-3.3c-0.5-1.3-0.5-2.5,0.2-2.8c0.3-0.4,1.8,0.1,3.8,0.5l-9,4.3c0-0.1,0-0.3,0.1-0.5
						c0-0.1,0,0,0-0.1l0,0c0,0-0.1,0.1-0.1,0.2c0-0.1,0-0.1,0.1-0.2c0,0.1-0.1,0.2-0.1,0.2l-0.1,0.1l0,0l-0.1,0.1
						c-0.2,0.3-0.3,0.4-0.7,0.8c-0.3,0.3-1.1,0.9-1.2,1c0.2-0.1,0.3-0.2,0.5-0.3c0.2-0.1,0.3-0.3,0.4-0.3c0.2-0.2,0.5-0.5,0.7-0.7
						c-0.2,0.2-0.4,0.4-0.6,0.6c0,0-0.1,0.1-0.1,0.1c0.2-0.2,0.4-0.3,0.6-0.5c0.4-0.3,0.8-0.6,1.2-0.8c0.8-0.5,1.5-0.7,1.8-0.6
						c0.2,0,0.2,0.1,0.2,0.3c-0.1,0.2-0.3,0.5-0.7,0.8c-1.3,0.5-3.1,1-4.1,1.6c-0.9,0.5-0.5,0.3-0.2,0.2c0.3-0.1,0.7-0.2-0.2,0.2
						c-0.6,0.2-1.2,0.5-2,0.7c0,0,0.2-0.1,0.3-0.1c0.3-0.1,0.6-0.3,1-0.5c0.8-0.4,1.6-1,2.1-1.4c-0.1,0-0.1,0.1-0.2,0.2
						c-0.1,0.1-0.2,0.2-0.3,0.3c-0.2,0.2-0.4,0.3-0.6,0.4c-0.4,0.3-0.7,0.5-0.4,0.3c-0.2,0.1-0.5,0.3-0.8,0.4
						c-0.3,0.1-0.6,0.3-0.9,0.4c-0.3,0.1-0.6,0.2-0.9,0.3c-0.2,0-0.3,0.1-0.5,0.1c-0.1,0-0.1,0-0.2,0.1c0,0-0.1,0,0,0
						c0.2,0,0.4-0.1,0.6-0.1l-0.5,0.1l-0.2,0.1l0,0l0,0l0,0c-0.1,0-0.2,0-0.3,0.1c-0.1,0-0.2,0-0.3,0l0.4-0.1c-0.1,0-0.3,0-0.4,0.1
						c-0.1,0-0.2,0-0.2,0c0.1,0,0,0,0.3,0c-0.3,0-0.3,0-0.3,0l0,0l0,0c0,0,0,0,0,0c0.1,0,0.2,0,0.3,0c0.4,0,0.8,0,1.1-0.1
						c0.7,0,1.1,0.1,1.3,0.1c0.1,0.1,0,0.1-0.3,0.1c-0.3,0-0.8,0-1.4-0.1c-0.2,0-0.3,0-0.4,0c-0.1,0,0,0,0,0l0.1,0
						c0.2,0,0.3,0,0.6,0.1c0.3,0.1,0.8,0.1,1.6,0.4c-0.2-0.1-0.6-0.2-0.8-0.3c-0.2-0.1-0.4-0.1-0.1,0c0.3,0.1,0.6,0.2,0.9,0.3
						c0.2,0.1,0.3,0.1,0.4,0.2c0.1,0,0.1,0.1,0.2,0.1l0.1,0l0,0l0,0l0,0c-2.6-1.1-5.1-2.3-7.7-3.4l0,0c-0.1,0-0.1-0.1-0.2-0.1
						c-0.1,0,0,0,0,0l0.1,0c0.1,0.1,0.2,0.1,0.3,0.1c0.3,0.2,0.5,0.3,0.6,0.3c0.4,0.2,0.8,0.4,1.3,0.6c0.9,0.4,2,0.8,3.1,1.5
						c-1.9-0.8-1.4-0.5-0.4,0.2c1,0.7,2.6,1.8,3.1,2.5l-2.9-1.8c-0.8,0.2,0.6,1.3,1.9,2.4c1.3,1.1,2.6,2.1,1.2,2.3
						c-1.1-1.2-2.2-2.4-3.3-3.5c0.3,0.5,0.5,1.1,0.7,1.6l-2.8-2.5c2,2.7,1.2,2.7,0.2,3.2c1.6,1.2,3.8,3.9,3.2,5
						c-1.6-0.5-1.6-2.3-2.2-0.5c-0.9-1.6-2.4-3.6-0.2-2.4c-0.6-0.7-1.1-1.6-1.8-2.4c-0.8-0.3-1.1,0.2-1.1,0.8
						c-0.1,0.6,0,1.4-0.2,1.7c0.2-0.2,0.4-0.3,0.7-0.2c0.5,1.7,0.9,3.4,1.2,5.1c-0.9-0.3-1.2-1.2-1.5-2c-0.1,0.7,0.5,1.9,0.2,2.8
						c-1.2-1.7-2.6-3.1-2.7-5c0.1,1.4,0.2,2.9,0.2,4.2c-0.7-0.4-2.3-0.2-2.5-1.1c-0.8,0.4-0.6,2.1-0.7,3.7c0,0.8-0.1,1.7-0.3,2.4
						c-0.2,0.7-0.5,1.3-1,1.7c0.2,0.3,0.2,0.7,0.2,1.4c-0.7,0.9-1.6,1.7-2.4,2.6c-0.4,0.5-0.6,1.1-0.8,1.7c-0.2,0.7-0.2,1.5-0.1,2.4
						c-0.9,0.1-1.8,0.3-2.7,0.5c-0.2,1.3,0.7,1,1.5,1c0.8,0,1.6,0.2,1.4,2.2c-0.1,1.4-0.6,1.5-1.2,1.3c-0.6-0.2-1.3-0.7-1.8-0.3
						c0.3,0.9,0.9,2.1,1.2,3.3c0.3,1.2,0.2,2.4-0.7,3.8C58.3,149.7,58.7,149,58.7,148.1z M67.8,168.1c-0.6,0-2.1,0.3-1.1-0.1
						C69,167.4,68.2,167.8,67.8,168.1z M85.3,156.3c-1.4,1-0.7,0.9,0.8,0.5C86.4,156.3,86.3,156,85.3,156.3z M126.8,174.4
						c-0.1,0.1-0.1,0.1-0.2,0.2C127.8,173,127.4,173.6,126.8,174.4z M125.6,176.5c0.4-0.5,0.8-1,1.2-1.5c-0.7,0.9-0.8,0.9-0.7,0.5
						C125.4,176.4,124.9,177.2,125.6,176.5z M92.6,85.4c0.2,0.5,0.3,1,0.4,1.5c-1.4,0-1.7-0.2-1.7-0.5C91.5,86.2,92,85.8,92.6,85.4z
						"/>
					<path class="st0" d="M79.5,161.5c0.7-0.3,1.5-0.6,2.2-0.9C81,161,80.3,161.4,79.5,161.5z"/>
					<path class="st0" d="M64,130.8C64.1,130.8,64.1,130.8,64,130.8c0-0.2-0.1-0.3-0.2-0.4L64,130.8z"/>
					<path class="st0" d="M81.8,168.5c0.8-0.2,1.8-0.4,2.9-0.6C83.4,168,82.3,168.2,81.8,168.5z"/>
					<path class="st0" d="M128.3,174.5l0.2-0.6C128.4,174.2,128.4,174.3,128.3,174.5C128.3,174.5,128.4,174.4,128.3,174.5z"/>
					<path class="st0" d="M132.5,198.3c0.1-0.5,0.4-0.1,0.4-0.6l-0.4-1.8C131.9,196.1,131.6,197.7,132.5,198.3z"/>
					<path class="st0" d="M125.7,186.1c-0.8,3.6,0,2.5,0.5,2c0,0-0.1,0-0.1,0C127,183.2,126.5,184.6,125.7,186.1z"/>
					<path class="st0" d="M126.3,188c0.2-0.1,0.3-0.2,0.4,0.1C127,186.1,126.6,187.6,126.3,188z"/>
					<path class="st0" d="M127.4,174.9c-0.5,0.9,2.7-4.2,1.8-2.8c0.3-0.5,0.3-0.4,0.6-1c-0.1,0.2-0.2,0.3-0.3,0.5
						c-0.2,0.3-0.4,0.7-0.7,1C127.8,174.1,126.6,175.8,127.4,174.9z"/>
					<path class="st0" d="M123.7,197.9c0.2-1.5,0.4-3,0.6-4.5c-0.4,1.1-0.8,2.3-1.2,3.5C123.3,197.3,123.5,197.6,123.7,197.9z"/>
					<path class="st0" d="M118.9,192.6c0.2,0.6,0.3,1.1,0.5,1.7c0.3-0.7,0.6-1.1,0.9-1.3C119.8,192.6,119.5,191.4,118.9,192.6z"/>
					<path class="st0" d="M120.4,193c0.3,0.2,0.7,0.3,1.1-0.3C121.3,192.7,120.9,192.6,120.4,193z"/>
					<path class="st0" d="M121.5,198.8l-0.1-1c-0.3-0.2-0.6-0.4-0.8-0.6C120.8,197.7,121.1,198.3,121.5,198.8z"/>
					<path class="st0" d="M110.5,183.4c-0.6-0.1-1.3-0.2-1.9-0.3c-1.6,0.8-2.4,1.7-1.5,1.8C108.4,184.5,109.2,184.5,110.5,183.4z"/>
					<path class="st0" d="M102.5,195.8c0.4-1.1,1.2-1.9,2.3-3.2l-4.8,4.1C100.9,196.5,101.7,196.2,102.5,195.8z"/>
					<path class="st0" d="M97.6,192.2c-0.8,0.4-2.3,0.5-3.4,0.7c-1.1,0.2-1.8,0.5-0.7,1.6c0.8-0.4,1.9-0.3,2.7-0.5
						C96.9,193.8,97.5,193.4,97.6,192.2z"/>
					<polygon class="st0" points="101.3,165.2 101.3,165.5 113.4,164.2 					"/>
					<path class="st0" d="M76.9,163.3c-3.5,1.9,8.6-3.4,4.2-1.1c3.2-1.1,3.6-1.9,6.3-2.8C84.2,160.2,86.2,159.2,76.9,163.3z"/>
					<path class="st0" d="M87.5,159.3c0.5-0.1,1.2-0.3,2-0.6C88.7,159,88.1,159.2,87.5,159.3z"/>
					<path class="st0" d="M46.9,88.8c-0.3,0.3-0.6,0.6-0.8,0.9c0.2-0.1,0.4-0.2,0.7-0.3L46.9,88.8z"/>
					<path class="st0" d="M46.1,91.9c-0.2-0.2-0.4-0.3-0.5-0.4c0,0.4,0,0.9-0.1,1.2C45.6,92.4,45.9,91.9,46.1,91.9z"/>
					<path class="st0" d="M62.8,169.6l0.8-0.1c0.8-0.1,0.8-0.2,0.8-0.2C63.9,169.4,63.4,169.5,62.8,169.6z"/>
					<path class="st0" d="M59.3,162.5l0.2,0.4c0.4-0.5,0.8-1.1,1.2-1.6C60.2,161.7,59.7,162.1,59.3,162.5z"/>
					<path class="st0" d="M56.1,141.1c-0.3,0.8-0.1,1.9-0.4,2.7c0-0.9,0.7-1.5,1.1-1.8C57.2,141.6,57.3,141.4,56.1,141.1z"/>
				</g>
			</g>
		</g>
	</g>
	<path class="st1" d="M170,187l-3.9-49.7c-0.2-2.5-1.4-4.9-3.3-6.6c0.1-0.3,0.1-0.6,0.1-0.9c0-0.1,0-0.4-0.1-0.9
		c-0.1-0.8-0.1-1.6-0.1-2.4c-0.2-2.5-0.6-5.2-1.1-8.2c-1.4-8.5-3.9-16.9-7.4-24.8c-10.3-22.8-28.1-36.8-55-36.8s-44.7,14-55,37
		c-3.6,7.9-6,16.4-7.4,24.8c-0.6,3-0.9,5.7-1.1,8.2c-0.1,0.8-0.1,1.6-0.1,2.4c0,0.4-0.1,0.7-0.1,0.9c0,0.3,0,0.6,0.1,0.9
		c-1.9,1.8-3.1,4.2-3.3,6.6l-3.9,49.7c-0.4,6.1,4.8,11.3,11.3,11.3h118.9C165.2,198.3,170.5,193.1,170,187z M106.8,148.7H91.6
		c-1.4,0-2.5,1.1-2.5,2.4v7.1H49.4c-6.3,0-11.5-4.8-11.5-10.6v-5.9c0-0.6-0.3-1.3-0.8-1.7l0.1-2.4c0.2-3.1,3-5.4,6.3-5.4h111.2
		c3.3,0,6.1,2.4,6.3,5.4l0.1,2.4c-0.4,0.4-0.8,1.1-0.8,1.7v5.9c0,6.1-4.2,10.6-10.2,10.6h-40.8v-7.1
		C109.4,149.8,108.3,148.7,106.8,148.7z M94.1,160.6L94.1,160.6v-7.1h10.2v14.1H94.1V160.6z M40.7,127c0.2-2.4,0.6-5,1.1-7.9
		c1.4-8.1,3.8-16.3,7.1-23.8c9.6-21.3,25.8-34,50.3-34s40.7,12.6,50.3,33.9c3.4,7.6,5.7,15.6,7.1,23.8c0.4,2.9,0.9,5.4,1.1,7.9
		c0,0.3,0.1,0.6,0.1,0.9c-1-0.2-2-0.4-3-0.4H43.6c-1,0-2,0.1-3,0.4C40.6,127.5,40.7,127.3,40.7,127z M158.6,193.5H39.7
		c-3.7,0-6.5-2.9-6.3-6.2l2.4-30.9c3,3.9,8,6.5,13.6,6.5H89v7.1c0,1.3,1.1,2.4,2.5,2.4h15.3c1.4,0,2.5-1.1,2.5-2.4v-7.1h40.8
		c5.3,0,9.6-2.3,12.3-5.9l2.4,30.3C165.1,190.7,162.3,193.5,158.6,193.5L158.6,193.5z"/>
</g>
</svg>
