<?xml version="1.0" encoding="utf-8"?>
<!-- Generator: Adobe Illustrator 24.0.2, SVG Export Plug-In . SVG Version: 6.00 Build 0)  -->
<svg version="1.1" id="Layer_1" xmlns="http://www.w3.org/2000/svg" xmlns:xlink="http://www.w3.org/1999/xlink" x="0px" y="0px"
	 viewBox="0 0 198.4 198.4" style="enable-background:new 0 0 198.4 198.4;" xml:space="preserve">
<style type="text/css">
	.st0{fill:#F2EE86;}
	.st1{fill:#646565;stroke:#646565;stroke-miterlimit:10;}
</style>
<g>
	<g>
		<g>
			<g>
				<path class="st0" d="M168.9,150.2c-0.3,0.5,0.2,0.3,0.3,0.4C169.6,149.7,168.8,150.2,168.9,150.2z"/>
				<path class="st0" d="M166.9,141.8l0.4-0.2c-0.5-0.2-1.1-0.3-1.7-0.3C166.1,141.4,166.5,141.6,166.9,141.8z"/>
				<path class="st0" d="M159.3,135.8c0.3,1.7,1.1,1.8,2,1.9c0.5,0,1,0.1,1.5,0.2c0.5,0.2,0.9,0.5,1.1,0.9l-0.1,0.7
					c0.5-0.5,1-0.8,1.6-1.2c-0.4-0.4-1-0.6-1.5-0.8c-0.3-0.1-0.6-0.2-0.8-0.3c-0.3-0.1-0.6-0.1-0.9-0.2
					C161,136.7,160,136.5,159.3,135.8z"/>
				<path class="st0" d="M153.9,127.8c0.2,1.3,0,1.2,0.2,0.4c0-0.2-0.1-0.2-0.1-0.3C154,127.9,154,127.9,153.9,127.8z"/>
				<path class="st0" d="M154.1,127.9C154.2,127.7,153.8,126.8,154.1,127.9L154.1,127.9z"/>
				<path class="st0" d="M153.5,128.9c0.1-0.5,0.1-0.9,0.2-1.3c-0.1-0.8-0.1-0.9-0.1-1.6C153.4,126.7,153.4,127.6,153.5,128.9z"/>
				<path class="st0" d="M153.2,131.7l0.2-0.6C153.3,130.7,153.3,130.6,153.2,131.7z"/>
				<path class="st0" d="M153.6,129.8c-0.1,0.4-0.2,0.8-0.3,1.3c0,0.6,0,1.7,0.1-0.5C153.5,131.7,153.5,130.6,153.6,129.8z"/>
				<path class="st0" d="M153.8,130.3c0.2,0.7,0.5,1.1,0.2,2.4c0.3-0.4,0.4-1.1,0.3-1.7C154.2,130.4,154,129.9,153.8,130.3z"/>
				<path class="st0" d="M158.5,139c0.3,0.4,0.5,0.7,0.7,1.1c0.3-0.3,0.5-0.5,0.8-0.8c-0.2,0.2-0.6-0.1-0.9-0.4
					C158.8,138.6,158.5,138.5,158.5,139z"/>
				<path class="st0" d="M152.9,127.6c-0.2,0.9-0.4,2.4-0.5,3.5l0.3-1.1C152.7,129.4,152.7,128.9,152.9,127.6z"/>
				<path class="st0" d="M152.4,131l-0.5,1.8C152,132.8,152.2,132,152.4,131z"/>
				<path class="st0" d="M153,135.8c0.3-1.1,0.5-2.2,0.7-3.2c-0.2,1-0.5,2.1-0.9,3.3L153,135.8z"/>
				<polygon class="st0" points="152.6,127.9 153.1,125.5 152.3,129.2 				"/>
				<path class="st0" d="M152.3,128.7c0.7-2.6,0.6-2.4,1.2-4.8c-0.4,1.4-0.7,2.8-1.1,4C152.7,126.8,152.7,127,152.3,128.7z"/>
				<path class="st0" d="M151.7,130.5c0.2-0.8,0.5-1.7,0.7-2.6C152.2,128.7,152,129.5,151.7,130.5z"/>
				<path class="st0" d="M151.6,132.8c0.1-0.6,0.4-2.1,0.5-2.6L151.6,132.8C151.6,132.9,151.6,132.9,151.6,132.8z"/>
				<path class="st0" d="M151.6,133L151.6,133C151.5,133,151.5,133,151.6,133C151.5,133,151.5,133,151.6,133z"/>
				<path class="st0" d="M151.7,132.8C151.7,132.8,151.6,132.8,151.7,132.8C151.6,133.1,151.6,133.2,151.7,132.8z"/>
				<path class="st0" d="M152.2,134.6c-0.2,0.8-0.5,1.9-0.6,2.5c-0.2,0.9-0.4,1.8-0.3,2.6C151.7,137.8,151.6,136.9,152.2,134.6z"/>
				<path class="st0" d="M151.1,136c0.1,0.1,0.1,0.1,0.2,0.2c0.1-0.7,0.3-1.6,0.5-2.4L151.1,136z"/>
				<polygon class="st0" points="150.8,137.1 151.1,136 151,136 				"/>
				<path class="st0" d="M151.1,133.1c-0.4,1.5-0.5,1.8-0.7,2.2c-0.1,0.5-0.1,0.6,0,0.4C150.7,134.6,151.2,132.8,151.1,133.1z"/>
				<path class="st0" d="M151.2,133.3c0,0.1,0,0.1-0.1,0.2C151.1,133.8,151.1,133.8,151.2,133.3z"/>
				<path class="st0" d="M149.7,137c-0.1,0.2-0.1,0.4-0.2,0.7C149.5,137.5,149.6,137.3,149.7,137L149.7,137z"/>
				<path class="st0" d="M150.3,136.2c-0.1,0.4,0.2-0.4,0.5-1.4c-0.1,0.4-0.3,0.7-0.3,0.9C150.4,136.1,150.3,136.4,150.3,136.2z"/>
				<path class="st0" d="M151.1,132.4c-0.1,0.5-0.3,1.1-0.4,1.7C151,133.1,151.4,131.5,151.1,132.4z"/>
				<path class="st0" d="M151.3,132.8c0-0.1,0-0.1,0-0.2C151.5,132,151.5,132.3,151.3,132.8z"/>
				<path class="st0" d="M151.3,132.8c-0.2,0.7-0.4,1.4-0.5,2c0.1-0.3,0.2-0.7,0.4-1.2C151.2,133.3,151.3,133,151.3,132.8z"/>
				<path class="st0" d="M141.2,165.1c0.4-1.2,0.8-2.6,1.3-4.4c0.2-0.5,0.4-1.1,0.5-1.8c0.1-0.3,0.2-0.7,0.3-1
					c0.2-0.6,0.3-0.9,0.4-1c0,0,0,0,0,0.2l-0.1,0.3l0,0.2l-0.1,0.5c0.2-0.7,0.4-1.3,0.6-1.8c0.2-0.7,0.4-1.4,0.6-2.1
					c0.5-1.6,1-3.3,1.5-5.3c0.9-3.3,2.1-7.4,3.2-11.2c-0.5,1.6-0.9,2.9-1.7,5.5c-0.1,0.5-0.5,1.8-0.7,2.8c-0.3,1.1-0.6,2.3-1.2,4.1
					c-0.9,2.7,0-0.5,0.5-2c-0.6,2.1-1.2,4-1.9,6.3c-0.4,1.3-0.8,2.6-1.2,3.7c-0.7,2.2-1.1,3.6-1.7,5.7l1.5-4.6
					c-0.2,0.7-0.6,1.9-0.9,3C141.7,163.4,141.4,164.4,141.2,165.1z"/>
				<path class="st0" d="M149.7,137.4l0.2-0.6c0.1-0.4,0.4-1.6,1.1-4.2c-0.9,3-1.1,3.8-1.3,4.4l0.2-0.2L149.7,137.4z"/>
				<path class="st0" d="M150.1,136.2c-1,3.5-1.6,5.5-2.6,9c0.4-0.9,1-3.4,1.6-5.2c-0.3,0.9-0.2,0.3,0.1-0.6
					c0.3-0.9,0.6-2.2,0.8-2.9c0.2-0.7,0.3-1,0.4-1.3c0.1-0.3,0.1-0.7,0.3-1.2c0,0.1,0,0.1-0.1,0.2l0,0c0,0,0,0,0,0.1
					c-0.1,0.4-0.2,0.6-0.1,0.4c0,0,0,0.1,0,0.1C150.4,135.3,150.3,135.7,150.1,136.2c0.1-0.5,0.2-0.9,0.4-1.3c0-0.2,0.1-0.3,0.1-0.5
					l0,0l-0.8,2.5C149.8,137.2,149.9,136.9,150.1,136.2z"/>
				<path class="st0" d="M149.9,145.7c0-0.2,0-0.4,0.1-0.5C149.9,145.5,149.8,145.8,149.9,145.7z"/>
				<path class="st0" d="M149.8,144.7c0.1-0.5,0.4-1.6,0.6-1.6c0.1,0.5-0.2,1.2-0.3,2c0.3-0.9,0.8-2.4,0.6-3.1l-0.1,0.4
					c-0.1-0.2-0.1-1-0.1-1.8c0.1-0.8,0.2-1.6,0.2-1.8C150.2,141.1,149.9,142.7,149.8,144.7z"/>
				<path class="st0" d="M149.1,142l-0.9,2.5c-0.1,0.7-0.3,1.5-0.4,2.2l0.4-1.6C148.4,145.1,148.8,143.3,149.1,142z"/>
				<polygon class="st0" points="150.2,135.2 151.4,131.1 149.6,137.1 				"/>
				<polygon class="st0" points="149.8,136.3 150.9,132.5 150.2,134.9 				"/>
				<path class="st0" d="M80.5,151.9l-0.6,1.1C80.1,152.6,80.3,152.2,80.5,151.9z"/>
				<path class="st0" d="M83.8,149.5l0.5-1.7C83.9,148.7,83.7,149.4,83.8,149.5z"/>
				<path class="st0" d="M143.8,133.7c2.5-2.9,6.6-7,3.4-3.9l-3.1,3.1C144.8,132.5,144.5,133,143.8,133.7z"/>
				<path class="st0" d="M106.2,140.6c-0.3,0.1-0.6,0.2-0.9,0.2c1,0.1,2,0.2,2.9,0.3C107.6,141,106.9,140.8,106.2,140.6z"/>
				<path class="st0" d="M94,141.3c0.7-0.1,1.4-0.3,2.1-0.5C95.4,141,94.8,141.2,94,141.3z"/>
				<path class="st0" d="M71.2,159.9l-1.4,2.1C70.4,162.1,70.6,161,71.2,159.9z"/>
				<path class="st0" d="M144.7,143.9c0.8-2.2,1.1-3.2,1.1-3.4C144.5,143.9,142.5,148.9,144.7,143.9z"/>
				<path class="st0" d="M91.1,119.7c-0.2,0.5-0.3,0.9-0.5,1.4C90.8,120.6,90.9,120.1,91.1,119.7z"/>
				<path class="st0" d="M145.3,140.6c-0.2,0.5-0.4,0.9-0.6,1.4c0.6-1,1.1-1.8,1.1-1.5C146.8,138,147.5,136.5,145.3,140.6z"/>
				<path class="st0" d="M34.5,128c0,0,0.1-0.1,0.1-0.1C34.5,127.9,34.5,127.9,34.5,128z"/>
				<path class="st0" d="M20,123.2c-0.1-0.3,0-0.7,0-1.1C19.9,122.2,19.9,122.5,20,123.2z"/>
				<path class="st0" d="M149.3,136.6C149.5,136.2,149.5,136.1,149.3,136.6L149.3,136.6z"/>
				<path class="st0" d="M143.6,154.7c-0.3,0.9-0.5,1.5-0.8,2.4C143.2,156.1,143.4,155.4,143.6,154.7z"/>
				<path class="st0" d="M126.9,173.7C126.9,173.7,126.9,173.7,126.9,173.7C126.4,174.8,126.5,174.6,126.9,173.7z"/>
				<path class="st0" d="M148.7,138.7c0.1-0.4,0.2-0.8,0.4-1.3C149,137.6,148.9,138,148.7,138.7z"/>
				<path class="st0" d="M149.4,136.4c0,0.1-0.1,0.3-0.1,0.4C149.6,136,149.7,135.5,149.4,136.4z"/>
				<path class="st0" d="M149.1,137.1c0.1-0.1,0,0-0.1,0.3c0.2-0.5,0.2-0.6,0.2-0.7C149.3,136.7,149.2,136.9,149.1,137.1z"/>
				<path class="st0" d="M61,132.8C61,132.8,61,132.8,61,132.8C61,133.3,61,133.1,61,132.8z"/>
				<polygon class="st0" points="112.5,152.7 112.5,152.8 112.5,152.7 				"/>
				<path class="st0" d="M112.9,152.2c-0.2,0.3-0.3,0.4-0.4,0.6l0.3-0.4c1.2-1.5,2.3-3.1,3.4-4.7c-0.8,1-1.5,2-2.2,3L112.9,152.2
					l-0.2,0.2l0,0l0,0L112.9,152.2z"/>
				<path class="st0" d="M77.4,154.9l-0.7,2.4c-1,2.4-1.3,3.1-1.6,3.7c-0.2,0.5-0.4,0.9-0.5,1.2c-0.1,0.3-0.3,0.8-0.6,1.7
					c1.7-4.5,2-4.9,2.3-5.3c0.3-0.4,0.7-0.7,2.6-6.1c-0.2,0.7-0.4,1.4-0.6,2.1c0-0.1-0.3,0.6-0.3,0.5c-0.7,2.4,0.1,0.5,1.1-2
					c1-2.5,2.1-5.7,2.3-5.2c0,0.7-0.2,2.4-1,3.8l0.4-0.8l0.2-0.4l0.3-0.6l1.2-2.4c0.1,0,0,0.6-0.1,1.1c-0.1,0.3-0.2,0.5-0.3,0.7
					c0,0.1-0.1,0.2-0.1,0.2c-0.1,0.1-0.1,0.2-0.1,0.2l0.2-0.2l0.1-0.1l0.3-0.1c0.2-0.1,0.3-0.2,0.5-0.3l0.8-0.9
					c0.3-0.3,0.5-0.7,0.7-0.7l-0.1,0.4c0.4-0.8,1-2.1,1.5-3.3c0.1-0.3,0.3-0.6,0.4-0.9c0.2-0.4,0.3-0.7,0.5-1.1
					c0.3-0.7,0.5-1.3,0.7-1.8c0.5,0.7-0.7,1.7-0.8,3l1.3-2.6c0.4-0.7,0.8-1.3,1.2-1.9c0.2,1.2-0.2,2.7-0.9,4
					c-0.2,0.3-0.4,0.6-0.5,0.9c-0.1,0.1-0.2,0.3-0.3,0.4c-0.1,0.2-0.2,0.4-0.3,0.5c-0.4,0.7-0.9,1.3-1.2,1.6c-0.1,2.4,0.1,3.1,0.4,3
					c0.1,0,0.2-0.1,0.3-0.2c0.1-0.1,0.2-0.2,0.3-0.3c0.2-0.3,0.4-0.7,0.7-1.1c0.3-0.4,0.5-0.9,0.8-1.4c0.3-0.4,0.6-1,1-1.6
					c0.4-0.5,0.8-1,1.3-1.3c0.5-0.6,1-1.2,1.7-1.8l-1.3,2.9l-0.3,0.7c-0.1,0.2-0.2,0.5-0.3,0.7l-0.7,1.1c0.1,0.5,0.3,0.8,0.5,1
					c0.1,0.1,0.2,0.1,0.3,0.1c0.1,0,0.2-0.1,0.3-0.2c0.5-0.4,1-1.1,1.6-2.2c0.5-1.3,1-2.7,1.6-4.2c0.1-0.2,0.1-0.2,0.3-0.9
					c0.1-0.5,0.3-1,0.4-1.6l0.1-0.4l0-0.2l0-0.1l0-0.1c-0.9-11.5-0.3-3.2-0.5-5.8l0,0l0,0l0,0l0,0c0,0.1,0,0.1,0,0.2
					c0,0,0-0.1,0-0.2l0,0l0,0l0,0l0,0c-0.4-4.6,0.5,6.2,0.4,5.1l0,0l0,0l0,0.1l-0.2,0.6c-0.1,0.4-0.2,0.8-0.3,1.1l-0.1,0.3l0,0.1
					c0,0,0,0,0,0l-0.1,0.2c-0.3,0.4-0.5,0.8-0.7,1c-0.9,0.9-1.2-0.5-0.1-4.1c0.2-0.2,0.3-0.6,0.5-1c0-0.1,0.1-0.2,0.1-0.3l0.1-0.2
					c0,0,0,0,0-0.1l0.1-0.2c0.1-0.3,0.2-0.6,0.2-0.9l0.1-0.5l0.1-0.2l0,0l0,0l0,0c0.1,1-0.1-1.4-0.1-1.2l0,0l0,0l0,0
					c0,0.1,0,0.1,0,0.2l0,0.1c0,0.1,0,0.1,0,0.2c0,0,0,0.1,0,0.3c0,0.1,0,0.2,0,0.4c0,0.2-0.1,0.3-0.1,0.5l0-0.1
					c-0.1,0.4-0.2,0.6-0.2,0.8c0,0.1,0,0.2-0.1,0.2l0,0.1c0-0.1,0-0.1,0.1-0.2c0-0.1,0.1-0.2,0.1-0.4c-0.1,0.2-0.3,0.9-0.7,1.6
					c-0.1,0.2-0.2,0.4-0.3,0.6c-0.5,0.8-0.3,0.5-0.2,0.3c0.2-0.4,0.4-0.8,0.6-1c0.2-0.4,0.4-0.6,0.4-0.5c-0.6,1.4-0.2,0.8,1.3,0.4
					c-0.4,0.6-0.8,0.9-1.1,1.1c-0.3,0.2-0.6,0.4-1,0.8c0.6-0.4,1.2-0.8,1.9-1.2c0,0.1-0.7,0.6-1,0.8c0.4-0.1,1-0.6,1.7-1.1
					c0.7-0.4,1.3-0.9,1.8-0.8c1.5-1,0.6,0.2-0.6,1.3c-1.1,1.1-2.6,2-0.5,1.4c-1,0.6-2.1,0.8-3.5,1.4c1.2-0.2,1.7-0.2,2.3-0.3
					c0.6,0,1.4-0.2,3.5-0.3c-0.9,0.4-1.9,0.8-2.9,1.1c1.7-0.4,3.3-0.8,5-0.8c1.7-0.1,3.4,0.2,5.1,0.6c1.6-0.4,2.9-0.9,3.5-1.2
					c0.9,0.6,1.8,1.2,2.6,2c-0.7,0.3-2.3,0-4.2-0.2c0.4,0.1,0.8,0.2,1.1,0.3c-1.6,0.7-4.3,0.2-6.7-0.1c0.9-0.2,1.9-0.4,2.8-0.6
					c-2.7-0.3-5.5-0.2-8.1,0.1c0.5,0,0.9,0.1,1.1,0.2c-0.7,0-1.3,0-1.8,0.1c-0.5,0.1,0.4,0,1.5,0.1c-1.7,0.1-3.4,0.2-5.1,0.2l2,0
					c-0.6,0.1-1.2,0.1-1.9,0.1c-0.3,0-0.7,0-1,0l-0.2,0l-0.1,0l0,0l0,0l0.9,0.1c0.5,0.1,1.1,0.2,1.7,0.4c1.1,0.3,2.3,0.7,3.5,1.1
					l0,0l57.2,22.9l-40.2-17.4c-1.6-0.7-3-1.6-4.2-2.6c-0.6-0.5-1-1-1.3-1.5c-0.3-0.5-0.6-1.1-0.6-1.6c1.4,1.6,2.8,2.6,4.2,3.7
					c0.4,0.3,0.7,0.6,1.1,0.9c0.2,0.2,0.4,0.3,0.6,0.5c0,0,0,0,0,0c0,0,0,0,0,0c0,0,0.1,0.1,0.2,0.1c0.1,0.1,0.2,0.1,0.3,0.2
					c0.2,0.1,0.4,0.3,0.6,0.4c0.2,0.1,0.6,0.4,1,0.5c0.4,0.2,0.8,0.4,1.2,0.5c-0.9-0.3-0.7-0.2-0.5-0.1c-0.5-0.2-1-0.4-1.5-0.7
					c-0.4-0.2-0.7-0.3-1-0.6c-0.2-0.2-0.4-0.3-0.7-0.5c0.1,0.1-0.1-0.1-0.3-0.4c-0.1,0-0.3-0.4-0.2-0.2c0,0,0,0,0,0c0,0,0-0.1,0,0
					c0,0.1,0.1,0.1,0.1,0.2c0-0.1-0.1-0.1-0.1-0.2c0,0,0,0.1,0,0.1c0,0,0,0,0,0c0,0.1,0.1,0.2,0.1,0.3c0-0.1,0-0.1-0.1-0.2
					c0,0.1,0,0.1,0.1,0.2c0,0.1,0,0.1,0,0.3c0,0.3,0,0.4,0,0.3l0-0.2c0,0.1,0,0.3,0,0.4c0,0.2,0,0.4,0,0.6c0,0.1,0,0.2,0,0.3
					c0,0.1,0,0.2,0,0.4c0,0.2-0.1,0.4-0.2,0.6c-0.1,0.5-0.3,0.8-0.4,1c0.1-0.2,0.2-0.5,0.3-0.7c0.2-0.3,0.4-0.7,0.5-0.9
					c0.5-0.9,0.9-1.6,1.3-2.3c-0.2,0.4-1.2,2.3-2.3,4.3c0,0,0.1-0.1,0.1-0.1l-0.1,0.2L113,152l0,0l0.3-0.6c1.1-1.8,2.4-3.6,3.8-5.4
					c2.8-3.5,6-6.6,9.7-9.3c-2.5,2.4-6.1,7-9.7,11c-1.7,1.9-3.3,3.6-4.8,5.2c0,0,0.1-0.1,0.2-0.2c-0.1,0.1-0.2,0.3-0.4,0.5
					c0.1-0.1,0.3-0.3,0.5-0.5c1.7-1.7,3.4-3.5,3.7-3.6c-2.7,2.9-3.5,3.5-4.2,4.1c-0.1,0-0.1,0.1-0.2,0.2c0,0-0.1,0.1-0.1,0.1
					c0.5-0.4,1-0.7,1.7-1.2c0.6-0.4,1.1-0.8,1.7-1.2l0.8-0.5c0.1-0.1,0.3-0.2,0.3-0.2l0.2,0c0.2,0,0.4,0,0.5,0.1c0,0,0.1,0.1,0,0.2
					c0,0.1-0.1,0.3-0.1,0.3c-0.9,0.6-3.6,2.6-6.3,4.6c-2.7,2-5.2,3.8-4.9,3.1c0,0.1,0,0.3,0,0.4l0,0.1c0,0,0,0.1,0,0l0.4-0.2
					l1.4-0.6c1-0.4,1.9-0.9,2.9-1.4c1.9-1,3.9-2,5.9-3.1c-2.2,1-9.4,7.4-12.5,10.8c1.1-1.1,1.1-0.3,1.1,0.8
					c-0.1,1.1-0.2,2.4,0.4,2.4l2.4-3.8c-0.3,1.3,0.6,1.3,2.1,0.5c1.5-0.8,3.6-2.3,5.7-3.9c4.3-3.3,8.7-7.1,8.7-5.7
					c-1.2,1.1-4.9,4.8-8.4,8.5c-3.5,3.7-6.9,7.6-7.5,9.3c3-2.7,10.2-9.5,17.2-16.8c0.4-0.4,0.9-0.9,1.3-1.4l0.9-0.9
					c0.6-0.6,1.2-1.1,1.7-1.7c1.1-1.1,2.1-2.1,3.2-3.2c2-2,3.5-3.5,4.3-4.2l-2.2,3.1c0.9-0.8,1.8-1.6,2.6-2.4
					c-1.5,1.8-3.4,4.1-5.5,6.4c-1.1,1.2-2.2,2.4-3.3,3.6c-0.3,0.3-0.6,0.6-0.8,0.9l-0.4,0.4l-0.6,0.7c-0.8,0.9-1.7,1.9-2.6,2.8
					c-6.8,7.3-13.5,13.4-17.2,16.2c-2.5,4.5-3.9,4.9-3.5,6.9c-1.6,2.3-2.8,3.4-3.6,3.8c-0.9,0.4-1.4,0.2-1.5-0.1l-1.7,8.6
					c3.4-4.5,5.2-5.5,6.9-6.6c1.6-1,3.1-2,6-6c-2.5,1.5-5,2.8-7.5,3.6c3.4-4.3,8.4-9.4,12.3-13.3c4-3.8,6.9-6.6,6.4-4.5
					c-1.4,2.2-4.4,6.3-7.4,10.2c-3,3.9-6,7.6-7.1,9.2c1.4-1.6,2.8-2.4,3.3-2.3c0.6-0.3,0.8-0.1,0.3,0.9l-3.9,4.3l-0.4,0.4
					c-0.1,0.1-0.1,0.3-0.2,0.4c-0.3,1.5,2.4-1.6,4.3-3.7c2-2.1,3.3-3.3,0.9,1.3c0,0.4-1.7,3.5-2.9,5.8c-1.2,2.3-1.8,3.8-0.1,1.2
					c2.9-5.3,9.6-16,16.2-26.4c2.9-4.5,5.7-8.8,8.1-12.6c2-3.1,3.6-5.5,4.8-7.3c-0.4,0.8-5.9,11.3-7.5,14.3c-0.5,0.9-1,1.9-1.6,2.8
					c-0.6,1-1.2,2.1-1.9,3.2c-1.3,2.1-2.7,4.3-4,6.4c-2.7,4.2-5.6,8.4-7.4,12c1.5-2.4,3.4-5,4-5.8c-1,2.3-4.4,7.1-3.3,6.7
					c5.1-8.5,0.4,2,4.4-6.9c0.9-0.9,0.6-0.2,0.3,0.6c-0.3,0.9-0.7,2-0.5,2.2c1.4-2.7,4-7.1,6.2-10.7c2.2-3.5,4.3-7,4.9-7.8
					c-0.6,1.1-1.3,2.4-1.9,3.6c-0.6,1.1-1.1,2.2-1.5,3c-0.3,1.3-0.8,3.1-1.3,4.7c-0.1,0.4-0.2,0.8-0.3,1.2l-0.2,0.6l-0.1,0.3
					c0,0.1-0.1,0.2,0,0.2c0.3,0.3,0.6,0.6,1.1,0.6c-0.7,1.7-0.6,3.7-2.5,6.8c0.9-1.3,2.3-3.8,3-4c-1.6,6-1.8,1.2-4.3,8.5
					c2-4.1,4.3-6,6.1-9c1.3-3.2,1-3.3,0.1-2.3c-0.9,1-2.4,3.1-3.5,4.4c1-2.2,2.1-4.5,3.3-6.7c1.1-2.2,2.5-4.7,4-7.6
					c2.8-5.3,5.2-9.8,6.9-12.8c2-3.4-2.5,6.9-1.7,5.3c0.5,0.3,2.7-4.9,4.4-9.1c1.7-4.2,3-7.5,2.1-4.3c-1,3.1-2.1,6.3-3.3,9.4
					c-1.1,3.1-2.2,6-3,8.3c-0.8,1.7-0.7,1-0.5,0c0.2-1.1,0.6-2.5,0.3-2.1l-0.6,2.6c-1.1,2.5-2.3,4.9-1.9,3.2
					c-0.2,0.7-0.4,1.2-0.4,1.5c0,0.3,0,0.4,0.1,0.5c0.2,0.1,0.6-0.3,1-0.7c0.8-0.8,1.6-2,1.2,0c0.5-1.3,1.1-2.9,1.5-4.1
					c0.3-0.9,0.5-1.5,0.7-2c0.2-0.6,0.4-1.2,0.5-1.7l-0.6,1.4c0.7-2.2,1.4-4.2,2-5.8c0.6-1.6,1-2.8,1.2-3.7c0.7-1.9,1.5-4,2.3-6.3
					c0.6-1.7,1-2.6,0.7-1.7l-2,6.3c0.6-1.8,1-3.3,0.2-1.1c0.6-1.6,0,0.3-0.3,1.4c-0.3,1.1-0.3,1.4,1-2.9l1.1-3.8
					c0.7-2,1.4-4.3,2.2-6.6c0.7-2,1.1-3.4,0.9-2.7c1.1-3.6,0.3-1,1.8-5.9c-1.3,4.2-1.4,4.4-1.5,4.6c-0.1,0.2-0.2,0.5-1.6,5
					c0.7-2.4,1.2-3.8,1.7-5.5c0.2-0.6,0.3-1.1,1.5-4.8c-0.7,2.2-1.3,4.1-1.1,3.3c-0.2,0.5-0.5,1.5-0.7,2c0-0.1,0-0.1,0-0.1
					c0,0.1,0,0.2-0.1,0.2c-0.1,0.4-0.1,0.4,0,0.1c-0.4,1.4-0.8,2.5-1,3.2c-1.8,5.3-2.2,5.9-3.3,9c0.2-0.8,1-2.8,1.7-5.2l-1.7,4.6
					c0.6-1.7,1.5-4.6,2.2-6.5c0.6-1.9,1.2-3.6,1.9-5.3c0,0-0.1,0.1-0.1,0.1c0.9-2.8,1.3-4,0.3-1.5c0.4-1.1-2.7,6.7-0.9,2.1
					c-0.6,1.3-1.2,2.7-1.9,4.1l0.6-1.5c-0.1-0.2-1.4,2.5-2.4,3.9c-0.9,1.4-1.5,1.5,0.8-4c-0.5,0.8-1.1,1.7-1.4,2
					c-0.2,0.3-0.2,0.2,0.2-0.9l2.7-5.2c-0.5,0.8,0.2-0.7,0.7-1.6c0.4-1,0.7-1.4-0.7,1c3.6-6.7,3.9-7.4,3.6-7c-0.3,0.5-1.4,2-0.8,0.9
					l-3.4,5.6c0.2-0.6-0.8,0.7-2.1,2.3l-3,4.6c-1.6,2.1-0.2-0.7,0.9-2.7c0.5-1,1-1.9,0.9-2c1.2-1.5,0.9-0.9,0.2,0.2
					c3.4-5.1,2.1-3.6,0.6-2.2c-1.5,1.5-3.4,2.9-0.9-0.4c-1.2,1.1-0.8,0.5-0.1-0.5c0,0,0.1,0,0.2-0.1c0-0.1,0-0.1,0-0.1
					c0.5-0.6,1.1-1.3,1.6-2c-0.8,0.9-1.4,1.6-1.6,2c-0.1-0.1-0.6,0.1-1.4,0.7l3.4-3.5c-0.1,0,0,0-0.1,0.1c1.2-1.4-1.7,1.4-4.3,4
					c-0.6,0.4-1.3,0.9-2.2,1.6c2.8-2.7,2.3-2.4,1.8-2.2c-0.5,0.2-1,0.3,2-2.4c-1.5,1.2-2.2,1.4-3.4,1.9c-0.6,0.2-1.3,0.5-2.3,1.1
					c-0.9,0.6-2,1.5-3.8,2.6c0.4-0.3,0.7-0.6,0.9-0.8c0.1-0.1,0.2-0.1,0.3-0.1c0.1,0,0.2,0.1,0.2,0c0.1,0,0.1-0.3,0.1-0.4
					c0-0.2,0-0.3,0-0.5c0-0.3-0.1-0.6-0.2-0.8c-0.3-0.5-0.9-0.7-2.1-0.2c1.4-1.4,2.7-2.8,4-4.2c-2.6,1.1-5.1,2.3-7.4,3.8
					c1.4-3.4,1.7-5.6,6.1-7.9c-2,0.6-3.2,1-4.1,1.2c-0.9,0.2-1.4,0.3-1.9,0.4c-0.5,0.1-1,0.2-1.7,0.5c-0.7,0.3-1.8,0.9-3.2,2.1
					l1.8-3.2c-0.6-0.2-1.8,0.6-2.8,1.2c-1,0.6-1.7,0.8-1.5-0.7c-0.1-1.8-1.1-3-2.7-3.7c-1.7-0.7-3.9-0.9-6.5-0.5
					c-1.2,0.1-2.6,0.5-3.9,0.9c-1.3,0.3-2.7,1-4,1.5c-1.3,0.5-2.5,1.2-3.8,1.8c-1.3,0.6-2.4,1.2-3.8,1.7c2.1,1.2,2.7,1.9,2.6,2.2
					c0,0.3-0.9,0.4-1.7,0.5c-1.7,0.2-3.8,0.9-0.7,2.8c-1-0.4-2-0.4-2.7-0.6c-0.8-0.2-1.5-0.6-2-1.8c0,1.2-0.2,2-0.5,2.8
					c-0.3,0.7-0.7,1.3-1.1,1.9l34,10.9l0,0c0.6-1.3,0.9-2.6-2.2-4.4c2-0.1,3,1.2,4.2,1c-0.4-0.4-1.8-1.4-0.6-1.7
					c1.2-0.3,1.7,0.7,2.6,1.5c-0.2-2.1-2.1-3.3-4.4-4c-2.3-0.7-5.3-0.8-8.1-1c2.5-1.3,1.9-2.2-1.8-2.7c1.7-0.6,3.2-1.7,4.3,0
					c0-0.5,0.2-2.1-0.3-3.4c-0.5-1.3-1.5-2.3-3.4-1.8c0.8-0.6-0.3-1.2-0.8-1.2c-0.8-1.7-0.6-2.1-2.1-3.4l-0.2,0.7
					c-2.1,0.7-2.5,0.6-2.6,0.1c-0.1-0.4,0.2-1.2-0.5-1.6l0.4-0.2c0-1-0.2-1.5-0.4-1.8c-0.2-0.3-0.5-0.3-0.7-0.3
					c-0.2,0-0.5,0-0.7-0.3c-0.2-0.3-0.3-0.8-0.5-1.8l-1.4,1.8c-1.8,1.7-1.7,0.8-1.8-0.5c0-0.6-0.1-1.4-0.4-1.9
					c-0.3-0.5-0.7-0.9-1.4-0.7c0.1,0.4,0.1,0.9,0.1,1.3c-0.8,0.4-0.7-1.1-0.9-2.9c-0.1-0.9-0.2-1.8-0.5-2.6c-0.3-0.7-0.6-1.3-1-1.5
					c-0.3-0.4,0.7-0.5,1.2-0.7c-0.9-0.7-1.5-0.9-1.9-0.8c-0.4,0.1-0.4,0.5-0.5,1c-0.2,1-0.3,2.2-1.7,2.5c-0.2-0.6,0-1.4,0.1-2.1
					c0-0.7-0.1-1.2-1.3-1.2c-0.2-0.1-0.4-0.1-0.7,0c-0.1,0-0.3,0.1-0.5,0.2c0,0-0.1,0-0.1,0.1l0.1,0c0.1,0,0.1,0,0.2,0.1
					c-0.1,0.3-0.2,0.8-0.4,1.2c-0.3,0.9-0.9,1.8-0.9,0.7c-0.1,1-0.1,1.9-0.6,2.9c-0.3,0.4-0.4-0.3-0.4-0.8c-0.1-0.4-0.1-0.5-0.9,1.6
					c0.1-0.3,0.1-0.6,0.2-0.9c-0.5,1.3-1.3,2.9-2.3,5.6c1.4-4.2,0.8-2.7,0-0.7c-0.8,1.9-1.7,4.2,0.2-0.9l-0.8,1.7l0.4-1.1
					c0,0-0.3,0.7-0.8,1.8c-0.7,1.7-1.2,3-1.8,4.3c0.2-0.6,0.7-1.9,1-2.5c0.1-0.6,0.1-0.9-0.4-0.1c-0.5,0.8-1.4,2.8-3.4,6.4l1.8-4.2
					c-0.7,1.3-0.4,0-0.2-1.3c0.2-1.2,0.2-2.2-1.8,0.2c0.3-0.5,0.8-1.4,1.3-2c-1.1,1.2-1.3,0.9-1.2,0c0.2-0.9,0.8-2.3,1.2-3.3
					c0.4-1,0.7-1.7,0.2-1.2c-0.1,0.1-0.3,0.3-0.6,0.5c-0.2,0.3-0.5,0.5-0.8,0.9c-0.7,0.8-1.7,1.9-3.1,3.5l-0.2,0.1l-0.3,0.3
					l-0.1,0.1c0,0,0,0-0.1,0.1l-0.2,0.1l-0.3,0.3l-0.7,0.5c-0.5,0.3-0.9,0.7-1.4,1c-0.3,1.2-1.5,2.7-3,4.1c-1.4,1.4-3,2.7-3.8,4.2
					c-0.4,0,0.4-1.6,1.4-3c1-1.4,2.2-2.7,2.5-2.6l-0.6,0.8c3-3.2,3.5-4.2,3.7-5c0.2-0.8,0.2-1.4,2.3-3.4c-0.3-1.1,0.3-3.1,0.7-4.7
					c0-0.2,0.1-0.4,0.1-0.6l-0.1-1c-0.3-0.8-0.6-1.5-1-2.3c-0.4-0.8-0.9-1.5-1.4-2.3c-1.1-1.6-2.6-3.1-4.4-4.4
					c-1.8-1.3-3.8-2.3-5.8-2.9c0.1,2.3,0.1,4.5-0.1,6.7c-1.3-0.6-2.8-1.1-4.1-1.4c-0.5-0.8-0.8-2.1-0.6-3.1c0.2-1,1-1.8,2.9-1.3
					c-0.4-1-1-1.4-1.7-1.3c-0.7,0-1.5,0.5-2.1,1.2c-0.6,0.7-1.1,1.5-1.4,2.3c-0.3,0.8-0.5,1.5-0.4,1.8c-1.4-0.6-2-1.3-2.2-2.1
					c-0.2-0.8,0-1.7,0.5-2.6c0.9-1.7,2.8-3,1.7-3.1c-0.9,0.2-1.9,0.4-2.8,0.7l0.7,0.7c-0.8,1.4-1.1,2.9-1.5,4
					c-0.2,0.6-0.5,1-0.8,1.4c-0.4,0.4-0.8,0.6-1.5,0.7c-2-0.7-2.2-3.5-2.9-3.6c-0.2-0.4-0.5-0.6-1.1,0.2c-1.3,0.3-2.5,0.7-3.6,1.1
					c1.3,1.3,2.5,2.6,3.6,4c-0.1,2.9-2.5,1.1,1.4,5.6c-1.5-1.8-2.9-2.5-4.3-2.5c-1.3,0-2.4,0.6-3.4,1.3c-1.9,1.5-2.8,3.6-4.1,3
					c1.1,2.8,1,4,0.2,5l19.4,7.3c0-0.5,0-1,0.1-1.6c-1,0.6-6.5,0.9-6-0.5c5.8-0.1,6.9-1,7.5-2.3c0.6-1.3,0.7-2.7,4.3-4.4
					c-2.4,1.3-3.1,0-4.2-1.1c-0.5-0.5-1.1-1-2-1c-0.8,0-1.9,0.3-3.5,1.4c0.2-0.8,1.1-1.2,2.3-1.5c1.2-0.4,2.6-0.8,3.5-1.8
					c-2.9-1.1-3.2-3-3.9-5.5c-0.2-0.6-0.3-1.2-0.6-1.8c-0.2-0.6-0.5-1.2-0.9-1.8c-0.4-0.6-0.8-1.1-1.3-1.6c-0.5-0.5-1.2-0.9-1.9-1.2
					c-0.5,0.4-0.8,1.1-1.4,1.8c-0.5,0.7-1.3,1.3-2.3,1.7c0.7-2.1,1.1-4.2,1.3-6.4c-0.8-0.1-2,1.3-3,2c-1,0.8-1.6,1.1-1.7-1.1
					c-0.1,1-0.5,2.5-1.3,2.5c-1.8-2.3-5.3-3.3-8.5-2.8c-0.8,0.1-1.6,0.3-2.3,0.6c-0.7,0.3-1.4,0.6-2.1,0.9c-0.6,0.4-1.2,0.7-1.8,1.1
					c-0.6,0.4-1.1,0.9-1.6,1.3c-1.9,1.8-3.3,3.6-4.6,5.2c-1.3,1.6-2.7,3.1-3.9,4.7c1-0.6,1.1,0.2,1,1.1c0.3-0.4,1.2,0.6,1.8,0.9
					c-0.8,0.7-1.4,1.5-1.8,2.4c0.8,0.6,0.8,1.4,0.9,2.2c0.1,0.8,0.3,1.5,0.8,1.7c-0.1-0.3-0.2-0.6-0.3-0.9c0.7,0.7,1.2,0.4,2.1,0.2
					c0.8-0.3,2.1-0.4,3,0c-0.5-0.7,0.5-1.1,1.8-1.2c1.2-0.2,2.7,0,1.5-1.5c0.9,0.2,0.7,0.7,1.4,1.1c-0.4-0.4-0.6-0.8-0.5-1
					c0.1-0.2,0.4-0.3,1.1-0.2l0.2,0.3c0.4-0.2,0.9-0.3,1.3-0.2c0.2,0,0.4,0.1,0.7,0.2c0.2,0.1,0.5,0.2,0.7,0.4
					c0.4,0.3,0.9,0.8,1.2,1.3l0.1,0.2l0.1,0.1c0,0,0.1,0.1,0,0c-0.1-0.1-0.1-0.3-0.2-0.4c-0.1-0.2-0.2-0.5-0.3-0.8l0,0.2
					c-0.1-0.2-0.1-0.3-0.1-0.5c0-0.1,0-0.2,0-0.3c0-0.3,0,0.1,0.1,0.3c0.1,0.2,0,0-0.1-0.3c-0.1-0.4-0.3-0.9-0.6-1.9
					c0.2,0.7,0.4,1.1,0.5,1.6c0.1,0.2,0.1,0.4,0.1,0.6c0-0.1,0-0.1,0-0.2c0-0.1,0-0.2,0-0.4c0-0.1,0-0.3,0-0.3c0,0,0-0.1,0-0.1
					c0,0.2,0,0.3-0.1,0.4c0,0.1,0,0.1-0.1,0.2c0,0.1,0,0.2-0.1,0.2c0,0.1-0.1,0.2-0.1,0.3c-0.2,0.4-0.1,0.3-0.1,0.2
					c0,0,0.1-0.2-0.1,0.3l-0.1,0.2l-0.1,0.2c-0.2,0.2-0.3,0.6-0.4,0.7c-0.1,0.1-0.1,0.2-0.2,0.3c0.1-0.1,0.3-0.4,0.4-0.6
					c-0.2,0.5-0.7,1-1.1,1.5c-0.4,0.5-0.8,0.9-1,1.1c0.3-0.3,0.6-0.6,0.8-0.9c-0.3,0.3-0.6,0.7-0.9,1c-0.3,0.3-0.7,0.6-1,0.9
					c-0.2,0.1-0.4,0.3-0.5,0.4c0,0-0.1,0.1-0.1,0.1c-0.1,0.1-0.1,0.1-0.2,0.2c-0.1,0.1-0.1,0.2,0.2,0.2c0.2,0,0.9-0.1,2-0.2l1.7-0.7
					c1.6-0.1,1.1,0.4,0.4,0.7c-0.7,0.4-1.7,0.7-1,1l-0.4,0c1.8-0.1,2.8,0.1,2.5,0.4c-1.1-0.1-2.2,0.1-3.4,0.2
					c-1.1,0.1-2.3,0.1-3.5,0.1c0.4,0,0.8,0,1.1,0.1l30.8,11.6c-0.7-1-1.1-1.6-1.9-2.4c-0.8-0.8-1.9-2-3.8-4.5l2.5,2.1
					c-1.8-2.3-2.8-3.5-2.7-4.7c0.6,1.3,1.6,2.1,2.6,3.1c1,0.9,2,2,3,3.6c1.5,1.1,2,1.4,2,1.1c0.1-0.2-0.3-1-0.6-1.6
					c-0.3-0.6-0.5-1.2-0.2-1.1c0.2,0.1,1,1,2.4,3.2c-2.3-4-3.1-5-3.6-5.2c-0.5-0.2-0.5,0.5-0.9-0.4c-1-1.1-1.9-2.6-2.4-3.8
					c-0.5-1.2-0.5-2,0-1.8c0.3-0.1,2.1,2.3,3.6,4.8c0.8,1.2,1.5,2.5,2,3.5c0.1,0.1,0.1,0.2,0.2,0.3l0.1,0.2l0,0.1l0-0.1
					c-0.1-0.2-0.2-0.4-0.3-0.7c-0.2-0.4-0.4-1-0.6-1.5c0.2,0.4,0.2,0.5,0.4,0.9c-0.7-1.7-1.2-3.3-1.5-4.9c-0.2-0.9-0.3-2-0.3-2.1
					c0,0.9,0.2,1.8,0.5,3.1c-0.1-0.2-0.1-0.5-0.2-0.8c0-0.2-0.1-0.4-0.1-0.7c-0.1-0.5-0.1-0.9-0.1-1.3l0-0.2l0-0.2
					c0-0.2,0-0.4,0-0.5c0-0.3,0-0.6,0-0.7c0-0.1,0-0.1,0-0.1c0,0,0,0,0,0l0,0l0,0c0-0.1,0.1-0.3,0.1-0.4c0,0.1,0,0.1-0.1,0.3
					c0,0.2,0,0.3-0.1,0.5c0.1-0.5,0.1-0.7,0.2-0.9c0,0-0.1,0.2-0.2,0.7c-0.1,0.5-0.1,1.8,0.1,2.7c0-0.2-0.1-0.5-0.1-0.9
					c0-0.2,0-0.3,0-0.5c0-0.1,0-0.3,0-0.4c0-0.5,0-0.7,0-0.4c0-0.4,0.1-0.9,0.2-1.1c0.1-0.2,0-0.1,0.1-0.2c0,0.1,0,0.1-0.2,0.2l0,0
					c0,0.1-0.1,0.1-0.2,0.2c-0.1,0.1-0.2,0.3-0.3,0.4c0.1-0.1,0.3-0.3,0.4-0.4c0,0-0.1,0.2-0.2,0.3c-0.1,0.1-0.2,0.2-0.3,0.3
					c-0.1,0.1-0.2,0.2-0.3,0.3c-0.1,0.1-0.2,0.2-0.4,0.3c-0.2,0.1-0.3,0.2-0.5,0.4l-0.1,0.1l-0.1,0l0,0l0,0l0,0
					c2.5-1.7-22.2,14.9-11.7,7.9l0,0l0,0l0,0c0.2-0.1,0.4-0.1,0.6-0.2c0.4-0.1,0.9-0.3,1.5-0.6l0.4-0.2l0.2-0.1
					c0.1,0,0.2-0.1,0.2-0.1c0.1,0,0.3,0.1,0.4,0.1c-0.1-0.1-0.2-0.2-0.2-0.2c0,0-0.1,0-0.1,0l-0.2,0.1c-0.1,0.1-0.2,0.1-0.3,0.1
					c-0.4,0.2-0.8,0.3-1.1,0.5c-0.3,0.1-0.5,0.2-0.7,0.3c-0.1,0-0.2,0-0.2,0.1l-0.1,0l0,0l0,0l0,0c-10.1,6.8,13.8-9.3,11.3-7.6l0,0
					l0,0l0,0c0.2-0.1,0.2-0.1,0.2-0.1c0,0-0.3,0.2,0.3-0.2c-0.1,0.1-0.2,0.1-0.3,0.2l-0.1,0.1l-0.1,0c-1.7,1.1-3.3,2.2-5,3.3l0.1,0
					l0.1,0c0.6-0.2,1-0.4,1.4-0.5c0.4-0.1,0.6-0.2,0.9-0.2l0.1,0c0,0,0,0,0,0c0,0,0,0.1,0,0.1c0,0.1,0,0.2,0,0.2
					c-0.2,0.7-1,1.6-1.8,2.5c-0.8,1-1.7,2-2,2.9c-0.4,1,0.1,1.6,0.3,2.8c-0.1-0.1-0.1-0.4,0-0.8c0.1-0.2,0.1-0.4,0.2-0.6
					c0.1-0.2,0.1-0.4,0.2-0.6c0.3-0.7,1-1.4,1.8-1.5c0,0.1,0,0.3,0,0.4c-0.1,0.2-0.1,0.4-0.2,0.6c-0.2,0.4-0.3,0.8-0.5,1.3
					c-0.1,0.2-0.2,0.5-0.3,0.7c-0.1,0.2-0.1,0.4-0.2,0.5c-0.1,0.3-0.3,0.7-0.5,1c0.2,0.1,0.3,0.1,0.5,0.2c0.1,0,0.1,0,0.2,0.1
					c0,0,0.1,0.1,0.1,0.1c0.1,0.1,0.3,0.1,0.4,0.1c0.3-0.1,0.6-0.5,0.9-1c0.3-0.5,0.7-1.1,1-1.4c0.2-0.2,0.3-0.4,0.6-0.5
					c0.2-0.1,0.5-0.3,0.7-0.3c-1.3,1.7-1,1.9-0.2,1.5c0.9-0.4,2.4-1.3,3.1-1.4l-2.2,2.1c-0.3,2.1,0.8,1.2,1.9,0.3
					c0.6-0.5,1.1-1,1.4-1.1c0.2-0.1,0.3,0,0.3,0.2c0.1,0.1,0.1,0.4,0.1,0.8l-1.7,1.2l-0.9,0.6L59,148c0.1,0,0.2,0.1,0.3,0.1l0.4,0
					l0.8,0l-2.5,2.3c0.3-0.1,0.6-0.2,0.8-0.3c0.2,0,0.4-0.1,0.5-0.1c0.3,0,0.5,0,0.6,0.2c0.1,0.1,0.2,0.3,0.3,0.5
					c0,0.1,0,0.3,0.1,0.4c0,0.1,0,0.2,0,0.2l0,0.1c0,0.1-0.1,0.3-0.2,0.4c0,0.1,0.1,0.2,0.2,0.3c0.5-0.8,1.3-1.8,2.2-2.5
					c0.4-0.3,0.8-0.6,1.2-0.8c0.3-0.1,0.5,0,0.7,0.2c-0.6,2-1.8,1.6-0.7,2.8c-1.2,1-2.7,2.3-1.6-0.3c-0.6,0.6-1.2,0.9-1.8,1.6
					c-0.3,1.1-0.1,1.7,0.3,2.1c0.1,0.1,0.2,0.2,0.3,0.2c0.1,0.1,0.2,0.2,0.4,0.1c0.3,0,0.6-0.1,0.8-0.1c-0.2-0.1-0.5-0.3-0.4-0.6
					l1.2-0.6l0.6-0.3c0.2-0.1,0.3-0.1,0.5-0.1c0.6-0.1,1.2-0.3,1.8-0.4c-0.2,1.1-0.9,1.5-1.5,1.8c0.3,0.1,0.6,0,1-0.1
					c0.4-0.2,1-0.5,1.4-0.5c-0.6,0.8-1.2,1.6-1.8,2.3c-0.3,0.4-0.7,0.7-1.1,1c-0.2,0.1-0.4,0.3-0.6,0.4c-0.2,0-0.3,0.1-0.5,0.1
					l0.4,0c0.1,0,0.4-0.1,0.5-0.2l1.1-0.4c0.6-0.2,1.1-0.1,1.7-0.2c-0.3,0.8,0,2.7-0.7,3.1c0.1,0.2,0.2,0.4,0.4,0.4
					c0.1,0.1,0.3-0.1,0.4-0.1c0.2-0.1,0.3-0.2,0.5-0.3c0.2-0.1,0.3-0.2,0.5-0.3l0.1-0.1l0.1,0l0.2-0.1c0.3-0.1,0.6-0.2,0.9-0.4
					c1.1-0.6,2.2-1.3,2.5-0.5c0.1-0.2,0.3-0.4,0.4-0.5c0.2-0.2,0.4-0.5,0.6-0.7c0.2-0.1,0.3-0.1,0.5-0.2c0.1,0.1,0.1,0.2,0.2,0.3
					c0.1,0.2,0.2,0.5,0.4,0.6c0.3,0.3,0.7,0.2,1.7-1.5l-1.3,4.1c0.4-0.5,0.8-1.9,1.3-3.3c0.5-1.4,1-2.8,1.8-4c1.1-2-1.3,3.7-1.6,4.8
					c0.3-0.6,0.6-1.4,1-2.2c0.4-0.9,0.8-1.8,1.2-2.8c0.4-1,0.6-1.3,0.7-1.4c0.1-0.1,0,0.2-0.3,1.1C77.5,155,77.6,154.4,77.4,154.9z
					 M93.3,137.8c-0.3,0.9-0.7,2.6-1.2,3.8c-0.5,1.2-1,2.1-1.2,1.5c0.5-2.6,0.9-3.6,1.2-4.1c0.2-0.2,0.4-0.3,0.6-0.5
					C92.9,138.3,93.1,138.1,93.3,137.8z M99.4,142.3c-1.1-0.2-0.4-0.3,0.9-0.5C100.6,142,100.4,142.2,99.4,142.3z M146.8,142.6
					c0,0.1-0.1,0.2-0.1,0.3C147.4,140.8,147.1,141.6,146.8,142.6z M146.3,144.7c0.3-0.9,0.6-1.7,0.9-2.4c-0.5,1.5-0.7,1.7-0.6,1.4
					C146,145.1,145.7,146.1,146.3,144.7z M50.8,110.8l1,0.8C51,113.3,50.9,112.1,50.8,110.8z"/>
				<path class="st0" d="M95.4,141.2c0.7-0.1,1.2-0.1,1.8-0.2C96.7,141,96.1,141.1,95.4,141.2z"/>
				<path class="st0" d="M71.4,159.5C71.4,159.5,71.4,159.5,71.4,159.5c-0.1,0.1-0.2,0.3-0.3,0.4L71.4,159.5z"/>
				<path class="st0" d="M112.6,192.4c0.4-1,0.9-2.3,1.6-3.5C113.3,190.4,112.6,191.8,112.6,192.4z"/>
				<path class="st0" d="M150.6,133.3l-0.5,1.5c0.1-0.4-0.2,0.7-0.4,1.4C149.9,135.4,149.9,135.3,150.6,133.3z"/>
				<path class="st0" d="M144.1,156.9c0.2-0.5,0.2-0.6,0.2-0.7c0-0.1,0.1-0.3,0.2-0.5l0.5-1.8c-0.1,0.3-0.3,0.9-0.5,1.5
					c-0.1,0.4-0.1,0.5-0.2,0.8c0,0.1,0,0.2-0.1,0.3C144.2,156.5,144.2,156.7,144.1,156.9z"/>
				<path class="st0" d="M145.7,149.2c-1.2,4.1-0.6,2.3-0.2,1.1c0,0,0,0.1,0,0.1C147.1,144.8,146.4,146.9,145.7,149.2z"/>
				<path class="st0" d="M145.5,150.1c0.1-0.3,0.2-0.5,0.2-0.5C146.4,147.4,145.8,149.3,145.5,150.1z"/>
				<path class="st0" d="M147.8,140.9c-0.3,1.1,2.1-6.1,1.4-4.2c1-3,0.4-1.1-0.4,1.2C148,140.1,147.1,142.7,147.8,140.9z"/>
				<polygon class="st0" points="141.7,162.2 143.2,157.4 141.8,161.8 				"/>
				<path class="st0" d="M140.8,162.7l0,0.7c0.3-0.9,0.5-1.5,0.7-2.1C141.3,161.7,141.3,161.1,140.8,162.7z"/>
				<path class="st0" d="M141.5,161.3c0.1-0.2,0.3-0.5,0.6-1.5C142,160,141.8,160.4,141.5,161.3z"/>
				<polygon class="st0" points="140.5,165.6 140.8,164.4 140.7,164.6 				"/>
				<path class="st0" d="M135,169c-0.5,0.8-1.1,1.6-1.7,2.4c-1.1,2.4-1.4,3.6-0.7,2.5C133.5,172.2,134.2,171.1,135,169z"/>
				<path class="st0" d="M131.1,183.4c0.2-1,0.7-2.3,1.3-4.1l-2.7,7.1L131.1,183.4z"/>
				<path class="st0" d="M127.8,186.5c-0.8,2-3.8,5.8-2.2,5C126.5,189.7,128.1,187.7,127.8,186.5z"/>
				<polygon class="st0" points="125.5,169 125.6,169.2 132.8,157.5 				"/>
				<path class="st0" d="M98.6,177.6c-2.2,5.6,6.4-5.7,3.6,0c2.5-1.9,2.3-4.6,4.5-6.1C103.9,172.5,105.3,170.1,98.6,177.6z"/>
				<path class="st0" d="M106.7,171.5c0.4-0.2,1-0.4,1.7-0.8C107.6,170.9,107.1,171.2,106.7,171.5z"/>
				<path class="st0" d="M19.4,127.2c0,0.4,0,0.7,0.1,1.1c0.1-0.2,0.1-0.4,0.3-0.6L19.4,127.2z"/>
				<path class="st0" d="M21.2,129.6c-0.2,0-0.5,0.1-0.7,0.1c0.3,0.3,0.6,0.5,0.9,0.7C21.3,130.2,21.1,129.7,21.2,129.6z"/>
				<path class="st0" d="M94.5,134.1L94.5,134.1c0-0.1,0-0.2,0.1-0.5L94.5,134.1z"/>
				<polygon class="st0" points="78.1,157.5 78.1,157.6 79.6,152.6 				"/>
				<path class="st0" d="M73.1,164.6c0,0.2,0.5-0.6,0.5-0.5C73.2,164.7,74.9,159.9,73.1,164.6z"/>
			</g>
		</g>
	</g>
</g>
<g>
	<path class="st1" d="M160.8,122.2c-1.6,0-2.7-1.1-2.7-2.8v-69c0-3.8-3.2-7-7-7c-1.6,0-3.7,0.6-4.9,2.2l-8,10.3
		c-1.1,1.1-2.7,1.6-3.7,0.6c-1.1-1.1-1.6-2.8-0.6-3.8l8-10.9c2.7-2.8,5.3-3.8,8.6-3.8c7,0,12.3,5.4,12.3,12.5v69.1
		C163.5,121.1,162.3,122.2,160.8,122.2L160.8,122.2z"/>
	<path class="st1" d="M134,81.4c-0.6,0-1.6-0.6-2.1-0.6L110.4,59c-0.6-0.6-0.6-1.6-0.6-2.8c0-1.1,1.1-1.6,1.6-2.2l18.7-5.4
		c1.1,0,2.1,0,2.7,0.6l8,8.2c1.1,1.1,1.1,2.2,1.1,3.2l-5.3,19c0,1.1-1.1,1.6-2.1,1.6C134.6,81.4,134,81.4,134,81.4z M117.9,58.5
		l15,15.2l3.7-13l-5.9-6L117.9,58.5L117.9,58.5z M91.2,86.8c-0.6,0-1.6,0-2.1-0.6c-1.1-1.1-1.1-2.8,0-3.8l5.3-5.4
		c1.1-1.1,2.7-1.1,3.7,0s1.1,2.8,0,3.8l-5.3,5.4C92.8,86.8,91.7,86.8,91.2,86.8z M101.9,103.1c-0.6,0-1.6,0-2.1-0.6
		c-1.1-1.1-1.1-2.8,0-3.8l5.3-5.4c1.1-1.1,2.7-1.1,3.7,0c1.1,1.1,1.1,2.8,0,3.8l-5.3,5.4C103.5,103.1,102.4,103.1,101.9,103.1z
		 M112.6,81.4c-0.6,0-1.6,0-2.1-0.6c-1.1-1.1-1.1-2.8,0-3.8l5.3-5.4c1.1-1.1,2.7-1.1,3.7,0s1.1,2.8,0,3.8l-5.3,5.4
		C114.2,81.4,113.1,81.4,112.6,81.4z M141.5,187.6H56.9c-10.2,0-19.3-7-21.9-16.9l-10.7-34.3c-0.6-1.6,0.6-2.8,1.6-3.2
		c1.6-0.6,2.7,0.6,3.2,1.6L39.8,169c2.1,7.6,9.1,13,16.6,13H141c7.5,0,14.5-5.4,16.6-13l10.7-34.3c0.6-1.6,2.1-2.2,3.2-1.6
		c1.6,0.6,2.1,2.2,1.6,3.2l-10.8,34.3C160.8,181,151.6,187.6,141.5,187.6z"/>
	<path class="st1" d="M56.9,176.6c-5.3,0-10.2-3.8-11.8-9.2l-6.3-20.2c-0.6-1.6,0.6-2.8,1.6-3.2c1.6-0.6,2.7,0.6,3.2,1.6l6.4,20.2
		c1.1,3.2,3.7,5.4,6.4,5.4c1.6,0,2.7,1.1,2.7,2.8S58.5,176.6,56.9,176.6z M53.7,198.4c-0.6,0-1.1,0-1.1-0.6c-1.6,0-2.1-1.6-1.1-3.2
		l5.3-10.9c0.6-1.1,2.1-1.6,3.7-1.1c1.1,0.6,1.6,2.2,1.1,3.8l-5.3,10.9C55.8,197.8,54.8,198.4,53.7,198.4z M144.7,198.4
		c-1.1,0-2.1-0.6-2.1-1.6l-5.3-10.9c-0.6-1.1,0-2.8,1.1-3.8c1.1-0.6,2.7,0,3.7,1.1l5.3,10.9c0.6,1.1,0,2.8-1.1,3.8
		C145.7,198.4,145.3,198.4,144.7,198.4L144.7,198.4z M171.5,138.5H26.9c-4.3,0-8-3.8-8-8.2v-5.4c0-4.4,3.7-8.2,8-8.2h144.5
		c4.3,0,8,3.8,8,8.2v5.4C179.5,135.3,175.8,138.5,171.5,138.5L171.5,138.5z M26.9,122.2c-1.6,0-2.7,1.6-2.7,2.8v5.4
		c0,1.6,1.1,2.8,2.7,2.8h144.5c1.6,0,2.7-1.1,2.7-2.8v-5.4c0-1.6-1.1-2.8-2.7-2.8H26.9z"/>
</g>
</svg>
