<?xml version="1.0" encoding="utf-8"?>
<!-- Generator: Adobe Illustrator 24.0.2, SVG Export Plug-In . SVG Version: 6.00 Build 0)  -->
<svg version="1.1" id="Layer_1" xmlns="http://www.w3.org/2000/svg" xmlns:xlink="http://www.w3.org/1999/xlink" x="0px" y="0px"
	 viewBox="0 0 198.4 198.4" style="enable-background:new 0 0 198.4 198.4;" xml:space="preserve">
<style type="text/css">
	.st0{fill:#CBEA7F;}
	.st1{fill:#646565;}
</style>
<g>
	<g>
		<g>
			<g>
				<g>
					<path class="st0" d="M146.8,155.3c0.4-0.1-0.1-0.2-0.1-0.3C146,155.2,146.9,155.4,146.8,155.3z"/>
					<path class="st0" d="M142.9,157.3l-0.2-0.4l0,1.1C142.8,157.7,142.8,157.5,142.9,157.3z"/>
					<path class="st0" d="M139.4,156.4c0.3,1.6,0.6,1.6,0.9,1.3c0.3-0.3,0.5-0.6,1-0.1l0.3,0.5c-0.2-0.6-0.3-1.2-0.5-1.8
						c-0.3,0-0.6,0.2-0.8,0.4c-0.1,0.1-0.3,0.1-0.4,0.1C139.7,156.8,139.5,156.7,139.4,156.4z"/>
					<path class="st0" d="M153.2,163.9c-0.8,0.2-0.9-0.3-0.9-0.3c0,0,0,0.1,0,0.4c0,0.1,0,0.4,0,0.6c0,0.1,0,0.3-0.1,0.5
						c0,0.1,0,0.2,0,0.3l0,0.1l0,0.1l0,0l0,0l0,0c2.9,2.8-24.9-24.3-13.1-12.8l0,0l0,0l0,0l13.1,12.8l0,0l0,0l0,0l0,0l0,0
						c0,0,0,0,0.1,0c0,0,0.1,0,0.1-0.1c0.1,0,0.1-0.1,0.2-0.1C152.6,165.1,152.8,164.7,153.2,163.9z"/>
					<path class="st0" d="M152.5,165.4c-0.1,0.1-0.1,0.3-0.1,0.3l-13.5-12.9c0,0,0,0,0,0l13.9,13
						C153.1,165.5,153.4,164.9,152.5,165.4z"/>
					<path class="st0" d="M153.6,158.1c0.4,0.7,0.7,1.4,1,2.1c1-0.5,1.5-2.6,2-1.9c-0.2-1.2-0.6-1.6-1.1-1.5
						C155,156.8,154.4,157.4,153.6,158.1z"/>
					<path class="st0" d="M150.8,156.7c0.2,0.3,0.4,0.6,0.6,0.9C151.7,157.3,151.9,157,150.8,156.7z"/>
					<path class="st0" d="M152.3,159.6c-0.3-0.7-0.6-1.4-1-2c-0.6,0.4-1.9,0.6,0.4,0.9C150.6,158.5,151.7,158.7,152.3,159.6z"/>
					<path class="st0" d="M151.6,160.9c-0.5,0.5-1,1.1-1.5,1.3c-0.5,0.2-0.8,0-1.3-0.8c-0.1,1.6,0.3,2.4,1,2.3
						c0.3,0,0.7-0.3,1.1-0.7C151.2,162.5,151.6,161.8,151.6,160.9z"/>
					<path class="st0" d="M139.6,159.6c0.2,0.3,0.3,0.6,0.5,0.9c0.1-0.3,0.2-0.7,0.2-1c0,0.2-0.3,0-0.5-0.2
						C139.7,159.2,139.5,159.1,139.6,159.6z"/>
					<path class="st0" d="M153.6,144.1c-0.9,0.4-1.9,2.1-2.9,2.9c0.5,0.3,1,0.5,1.4,0.8C152.4,146.7,152.4,145,153.6,144.1z"/>
					<path class="st0" d="M150.7,147c-0.7-0.4-1.5-0.7-2.2-0.9C149.1,147.7,149.8,147.6,150.7,147z"/>
					<path class="st0" d="M146.4,157.3c0.5,0.3,1.1,0.7,1.5,1.1c0.5,0.4,0.9,0.9,1.3,1.4c-0.4-0.6-0.9-1.2-1.3-1.7
						c-0.5-0.5-1.1-1-1.6-1.4L146.4,157.3z"/>
					<path class="st0" d="M149.3,136.1c0.8-0.3,1.6-0.5,2.5-0.7c-1.3,0.2-2.6,0.5-3.9,0.8C148.3,136.2,148.8,136.2,149.3,136.1z"/>
					<path class="st0" d="M145,132.1c0.9-0.6,1.2-1.6,1.4-2.5c0.2-0.9,0.3-1.8,1-1.9c-1.5-1-3.7-0.3-5.6,0.5c0.8,0,1.5,0.3,2,0.9
						C144.4,129.7,144.8,130.7,145,132.1z"/>
					<path class="st0" d="M139,129.2c0.8-0.1,1.7-0.6,2.8-1.1C141,128.1,140.1,128.4,139,129.2z"/>
					<path class="st0" d="M147.2,142.8c0.4-0.6,1.4-1.9,1.2-3.4c-0.5,0.9-1.1,1.9-1.6,2.8C147,142.3,147.1,142.5,147.2,142.8z"/>
					<path class="st0" d="M146.8,142.2L146.8,142.2c-0.4-0.8-0.7-1.4-0.8-1.6C146.1,140.8,146.3,141.3,146.8,142.2z"/>
					<path class="st0" d="M147.3,142.9c0-0.1-0.1-0.1-0.1-0.2C147.1,143,147,143.1,147.3,142.9z"/>
					<path class="st0" d="M147.8,152.1c-0.8-0.2-1.7-0.6-2.6-0.5c-0.9,0.1-1.7,0.6-2.4,1.9c0.9-0.2,1.6-0.6,2.3-1
						C145.8,152.2,146.6,151.8,147.8,152.1z"/>
					<path class="st0" d="M145.1,146.1c0.1,0.7,0.3,1.4,0.4,2c0.6-0.5,1.3-1.4,2.1-1.4C146.8,146.5,145.9,146.2,145.1,146.1z"/>
					<path class="st0" d="M143.9,146c0.4,0,0.8,0.1,1.2,0.1c-0.1-0.3-0.1-0.5-0.2-0.7L143.9,146z"/>
					<path class="st0" d="M141.1,134.3c-1.5,0.6-2.3,0.2-3.4-0.2c0.8,1.3,1.7,2.3,2.6,3C140.9,136.3,142.2,135.1,141.1,134.3z"/>
					<path class="st0" d="M144.1,138.2c-0.1,0-0.2,0-0.2,0C143.8,138.5,143.8,138.6,144.1,138.2z"/>
					<path class="st0" d="M125.6,130c0.1,0.2,0.1,0.5,0.2,0.7c0-0.2,0-0.4,0-0.6L125.6,130z"/>
					<path class="st0" d="M140.1,137.7c0.3,1.1,1.1,0.8,2,0.3c-0.7-0.2-1.3-0.5-1.9-0.9C140,137.4,139.8,137.6,140.1,137.7z"/>
					<path class="st0" d="M135.1,128.9c0.3,0.9,0.7,1.8,1.1,2.6C136.1,130.3,135.6,128.1,135.1,128.9z"/>
					<path class="st0" d="M144.1,137.3c0.1,0,0.1,0,0.2,0C144.5,136.5,144.3,136.8,144.1,137.3z"/>
					<path class="st0" d="M144.1,137.3c-0.6,0-1.3,0.4-2,0.7c0.5,0.2,1.1,0.2,1.7,0.2C143.9,137.9,144,137.6,144.1,137.3z"/>
					<path class="st0" d="M124.8,154.8c-0.1-1.3-0.1-2.6,0-3.7c0-1.1,0.2-1.6,0.3-2c0.3-0.8,1-0.7,1.3,1.1c0.4-1.2,0.9-4.5,1-8.3
						c0.1-3.8-0.4-8.1-1.6-11.3c0,0.7,0,1.4-0.3,2.1c-0.2,0.4-0.4,0.8-0.7,1.2c-0.1,0.1-0.2,0.2-0.3,0.3c-0.1,0.1-0.2,0.2-0.2,0.3
						c-0.1,0.2-0.1,0.5-0.2,0.7c0.1,0.2,0.1,0.5,0.2,0.7c0.1,0.2,0.1,0.5,0.4,0.8c0.5,0.5,1,1.1,1.4,1.8c0.8,1.3,1,2.7,0.4,4.1
						c-0.5,0.4-0.8,0.5-1.1,0.4c-0.3-0.1-0.5-0.3-0.6-0.7c-0.2-0.7-0.4-1.9-0.7-2.7c0.4,2.1,0.1,3.6-0.1,5.4
						c-0.1,0.9-0.2,1.9-0.3,3.1c0,0.6-0.1,1.2-0.1,1.8l0,0.7c0,0.3,0,0.5,0,0.8c0,0.5,0.1,1.1,0.1,1.7l0.5-1.9l0.2-0.9l0.1-0.4
						c0-0.1,0.1-0.2,0.1-0.3C124.6,150.9,124.4,153.9,124.8,154.8z"/>
					<path class="st0" d="M130.5,131.9l1-0.1c-1-0.9-1.5-2.4-3.1-5.3c-2.1,1.3-2.4,2.5-2.5,3.6c0.9,0.2,1.7,0.4,2.6,0.6l1.3,0.4
						c0.4,0.1,0.8,0.3,1.2,0.5L130.5,131.9z"/>
					<path class="st0" d="M135.5,133.4c-0.9,1.4-1.8,2.3-2.6,3.4c-0.7,1-1.2,2.3-1.2,4.2c1.8,0.6,2.1-2.1,3.9-2.9
						c-1.8-0.5-1.4-0.8-0.8-1.4c0.6-0.6,1.6-1.4,0.6-3c0.9-0.2,1.7,0,2.3,0.3c-0.5-0.8-1-1.6-1.5-2.6c0,0.1,0,0.2,0,0.2l0,0
						c0,0,0,0,0,0c0,0.5,0,0.8-0.1,0.4c0,0-0.1,0-0.1,0C135.9,132.7,135.7,133,135.5,133.4c-0.9-1.2,0.1-1,0.6-1.1
						c0.1-0.1,0.2-0.3,0.2-0.5c0,0,0,0,0,0c-0.8-0.1-1.6-0.1-2.3-0.1c-0.8,0-1.6,0.1-2.4,0.1C132.3,132.6,133.5,132.8,135.5,133.4z"
						/>
					<path class="st0" d="M137.2,155.3c0.2-0.2,0.3-0.3,0.5-0.4C137.4,155,137.2,155.1,137.2,155.3z"/>
					<path class="st0" d="M138.2,153.7c0.4-0.1,1.4-0.6,1.4,0c-0.5,0.9-1.1,0.7-1.9,1.2c0.4-0.1,0.9-0.1,1.4-0.3
						c0.5-0.2,1.1-0.5,1.4-1.4l-0.4,0c0.2-0.7,0.8-1.8,1.4-2.9c0.6-1.1,1.2-2,1.4-2.1C141.1,150.3,139.8,151.7,138.2,153.7z"/>
					<path class="st0" d="M138.5,145.1c-0.9-0.1-1.8-0.2-2.7-0.2c-0.2,1-0.3,2.1-0.6,3l0.9-1.4C136.7,147.8,137.6,146,138.5,145.1z"
						/>
					<path class="st0" d="M125,128.2c0.2-1.3,0.4-2.5,0.6-3.8c-0.5,0.8-1,1.7-1.4,2.6l-0.3,0.7c-0.1,0.2-0.1,0.5-0.1,0.7l-0.1,1.4
						c0.1-0.3,0.1-0.6,0.3-0.8C124.4,128.6,124.7,128.4,125,128.2z"/>
					<path class="st0" d="M122.8,128.7l-0.2-3.4c0,0.7,0,1.4,0,2.1L122.8,128.7z"/>
					<path class="st0" d="M55.9,132.6l-0.5,0.1C55.5,132.7,55.7,132.7,55.9,132.6z"/>
					<path class="st0" d="M55.4,135.9l0.8-0.7C55.7,135.5,55.4,135.8,55.4,135.9z"/>
					<path class="st0" d="M113.3,129c2.4-3.4,6.2-8.1,3.3-4.5l-2.9,3.6C114.2,127.6,113.9,128.1,113.3,129z"/>
					<path class="st0" d="M76.8,145.8c0,0.3-0.1,0.6-0.1,0.8c0.2-0.5,0.4-1,0.6-1.4c0-0.1,0.1-0.3,0.2-0.5c0.1-0.2,0.1-0.4,0.2-0.6
						c0.1-0.4,0.3-0.7,0.4-1.1C77.7,144.1,77.1,145.4,76.8,145.8z"/>
					<path class="st0" d="M72.8,156.9l-0.3-2.2C72.5,155.4,72.6,156.1,72.8,156.9z"/>
					<path class="st0" d="M60,117.8c-0.7,0.2-1.4,0.4-2.1,0.5C57.5,119.2,58.9,118.2,60,117.8z"/>
					<path class="st0" d="M117.7,135.1c0.4-1.9,0.5-2.7,0.5-2.9C117.5,135.2,116.5,139.5,117.7,135.1z"/>
					<path class="st0" d="M79.6,112.5c-0.5,0.4-1,0.8-1.6,1.4C78.4,113.5,78.9,113.1,79.6,112.5z"/>
					<path class="st0" d="M117.7,132.5c-0.1,0.4-0.2,0.8-0.3,1.2c0.4-1,0.7-1.7,0.7-1.5C118.6,130.1,119,128.7,117.7,132.5z"/>
					<path class="st0" d="M27.6,121.1c0.1-0.2,0.2-0.4,0.4-0.7C27.5,120.9,27.5,121.1,27.6,121.1z"/>
					<path class="st0" d="M33.3,86.8c0.2-0.2,0.4-0.4,0.7-0.6C33.8,86.2,33.6,86.4,33.3,86.8z"/>
					<path class="st0" d="M120.9,128.3C121,128,121,127.8,120.9,128.3L120.9,128.3z"/>
					<path class="st0" d="M119.9,143.7c-0.1,0.5-0.2,1.1-0.3,2C119.7,144.8,119.8,144.1,119.9,143.7z"/>
					<path class="st0" d="M103.9,166.7C103.8,166.7,103.8,166.7,103.9,166.7C103.6,167.6,103.7,167.4,103.9,166.7z"/>
					<path class="st0" d="M120.8,130.1c0-0.5,0-0.8,0-1.1C120.9,129.3,120.8,129.6,120.8,130.1z"/>
					<path class="st0" d="M121,128.1c0,0.2,0,0.2,0,0.3C121.2,127.8,121.2,127.3,121,128.1z"/>
					<path class="st0" d="M120.8,128.7c0.1-0.1,0.1,0,0.1,0.3c0-0.3,0-0.5,0.1-0.6C120.9,128.4,120.9,128.5,120.8,128.7z"/>
					<path class="st0" d="M48.8,122.7c0-0.1,0-0.2,0.1-0.4C48,124.3,48.2,123.9,48.8,122.7z"/>
					<path class="st0" d="M75.1,156c0.1,0,0.2-0.1,0.2-0.1c0-0.1,0.1-0.2,0.1-0.2L75.1,156z"/>
					<path class="st0" d="M88.3,144.2c-0.3,0.2-0.6,0.6-0.9,0.8c-2.5,2-5,4-7.4,5.9c-0.5,0.6-1.1,1.1-1.6,1.7
						c-0.6,0.6-1.2,1.2-1.8,1.9L76,155l-0.3,0.3c-0.1,0.1-0.2,0.2-0.2,0.2l-0.1,0.3l1.5-1.3l1.7-1.5l3.8-3.3l6.3-5.5l-0.3,0.2
						c-0.1,0.1-0.2,0.1-0.3,0.2l-0.7,0.6c-0.1,0.1-0.1,0-0.1,0l0,0l0,0l0.1-0.1l0.3-0.3C88,144.5,88.1,144.3,88.3,144.2z"/>
					<path class="st0" d="M57.1,126.3l-2.2,2.3c-1.3,0.5-1.7,0.4-2.1,0.4c-0.3,0-0.8,0.3-2.3,1.8c1.4-0.9,2.2-1.3,2.6-1.4
						c0.2,0,0.3,0,0.4,0.1c0,0,0.1,0.1,0.1,0.2c0,0,0,0.1,0,0.1c0,0,0,0,0,0.1l-0.1,0.1c0,0.4-0.2,1,0.2,1.1c0.5,0,1.3-0.4,3-1.7
						l-1.2,1.5c0.1-0.2-0.3,0.1-0.2-0.1c-0.4,0.4-0.5,0.6-0.6,0.8c-0.1,0.2-0.2,0.3-0.1,0.3c0.1,0,0.7-0.3,1.2-0.6
						c0.6-0.4,1.2-0.8,1.6-0.9c0.3-0.1,0.6-0.2,0.4,0.3c-0.4,0.8-1.2,1.8-1.9,2.1l0.4-0.1l0.2,0.1c0.1,0.1,0.3,0.2,0.4,0.2
						c-0.3,0.6-1.2,1.3-0.9,0.7c-0.4,0.9,0.2,1.1,0.4,1.5l-0.2,0.1c0.9-0.6,2.2-1.2,2.8-1.5c-0.6,1.1-0.6,0.3-1.1,1
						c0.5-0.1,0.9-0.2,1.2-0.1c-0.7,0.9-1.2,1.4-1.6,1.5c-0.1,0-0.2,0-0.2,0c-0.1,0-0.2,0-0.3,0c-0.2,0-0.2-0.2-0.2-0.3
						c-1.2,1.4-1.6,2.1-1.7,2.3c0,0.1,0,0.2,0.1,0.2c0,0,0.2,0,0.3,0c0.2,0,0.5,0,0.5,0.3c0,0.2,0,0.4-0.2,0.8
						c-0.1,0.3-0.1,0.7-0.3,1.3c-0.3-0.1-0.9,0-0.9-0.4c-1.6,2-1.6,2.6-1.7,3.2c0,0.3,0,0.6,0,1l0,0.1l-0.1,0.2
						c-0.1,0.2-0.1,0.3-0.2,0.5c-0.1,0.4-0.3,0.8-0.5,1.2c0.4-0.7,1.5-2.9,2.2-4.1c0.8-1.4,1.9-2.8,2.7-2.9
						c-0.1,0.2-0.1,0.3-0.1,0.4c0,0.1,0,0.1,0,0.2c0,0.1,0,0.2,0,0.2c0,0.3,0.2,0.5,0.7,0.4c-1.6,1.8-1.2,2.3-1,3.3l-2.1,2.5
						c0.4,0.3,0.8,0.1,1.3-0.3c0.1-0.1,0.3-0.2,0.4-0.3c0.1-0.1,0.3-0.2,0.5-0.4c0.3-0.3,0.6-0.5,1-0.7c0.3,0.5,0,1.3-0.4,2.2
						c-0.2,0.4-0.4,0.9-0.7,1.4c-0.3,0.5-0.6,1.1-0.9,1.6c0.1,1.4,0.6,0.2,1.2-1.1c0.6-1.3,1.3-2.6,1.8-1.6
						c-0.1,1.4,0.1,2.2,0.7,2.6c0.1,0.1,0.3,0.2,0.5,0.2c0.1,0,0.2,0.1,0.3,0.1c0.1,0,0.3-0.1,0.4-0.1c0.5-0.2,1.1-0.4,1.8-0.6
						c0.3,1.6-1.3,1.7-1.5,2.8l0.6-0.5l0.5-0.4l1-0.7c0.1,0.3-0.4,1-0.6,1.3c0.5-0.1,1-0.8,1.4-1.6c0.2-0.4,0.5-0.7,0.7-0.9
						c0.1-0.1,0.3-0.2,0.4-0.3c0.1,0,0.1,0,0.2-0.1c0.1,0,0.2-0.1,0.3-0.1c1.1-1.7,0.9-0.1,1,1.5c0,0.8,0,1.9,0.2,2.4
						c0.1,0.3,0.3,0.5,0.5,0.5c0.1,0,0.3-0.1,0.4-0.2c0.2-0.1,0.4-0.3,0.6-0.6c-0.1,1.1-1.1,2.1-1.6,3.5c0.9-0.5,1.5-0.9,1.9-1.2
						c0.2-0.2,0.4-0.3,0.6-0.3c0.2-0.1,0.3-0.2,0.5-0.2c0.3-0.2,0.6-0.4,1-0.8c0.2-0.2,0.4-0.4,0.7-0.7c0.1-0.1,0.3-0.3,0.4-0.5
						c0.2-0.2,0.4-0.4,0.6-0.7c0.2,0.9,0.4,1.8,0.6,2.7c-0.1-1.5,0.6-3,1.4-4.5c0.8-1.4,1.9-2.9,2.9-4.3c0-0.2,0-0.4,0.1-0.5
						c0-0.1,0-0.2,0.1-0.4c0-0.1,0.1-0.3,0.1-0.4c0.1-0.6,0.2-1.1,0.3-1.6c0.2-0.9,0.3-1.7,0.5-2.4c0.9-1.2,1.7-2.5,2.5-3.8
						c-0.2,1.1-1,3.5-2.1,6.5c0.3-0.6,0.5-1.2,0.8-1.7c-0.1,0.6-0.2,1.3-0.4,2.1c-0.1,0.4-0.2,0.8-0.3,1.2c0,0.2-0.1,0.3-0.1,0.5
						c0,0.1-0.1,0.3-0.1,0.4c-0.4,1.1-0.9,2.3-1.4,3.5c0-0.8,0.1-1.6,0.2-2.4c-1.2,2.5-2.4,4.9-3.1,7.3c0.3-0.4,0.6-0.7,0.9-0.8
						c-0.3,0.6-0.6,1.2-0.6,1.6c-0.1,0.4,0.4-0.3,1-1.4l-0.9,4.5l0.6-1.8c0.6,0.9,1.1,1.7,1.7,2.5l0.5-0.9l0.5-0.9
						c0.3-0.6,0.6-1.3,1-1.9c0.3-0.7,0.7-1.4,1-2.1c0.3-0.8,0.7-1.6,1-2.5c1.3-3.3,2.4-6.4,3.4-8.5c-1.1,4.4-1.2,6.6-2,11.4
						c0.2-2.3-0.3-1.5-0.9-0.2c-0.6,1.3-1.4,3.1-1.9,2.8c0.5,0.2-0.1,2.5-0.4,3.3c1-1.7,1.9-3.6,2.8-5.5c-0.4,1.9-0.4,2.6-0.3,2.9
						c0,0.2,0.1,0.3,0.2,0.4c0,0.1,0.1,0.1,0.1,0.2l0,0.1l0,0.2c0,0.1,0,0.3,0,0.4c0.3-2.1,0.5-3.3,0.7-4.1c0.1-0.4,0.2-0.6,0.3-0.8
						l0.1-0.1c0-0.1,0.1-0.2,0.1-0.2c0.1-0.1,0.1-0.3,0.2-0.4c0.6-1,1.2-1.4,1.8-3c-0.3,2.8-0.9,5.9-1.8,5.8
						c0.1,2.9,0.9,0.2,1.6-2.7c0.7-2.9,1.3-5.9,1.7-3.5c-0.3,0.2-0.4-0.1-0.7,1.4c0.2-0.7,0.5-1.2,0.8-1.5c0.1-0.1,0.3-0.2,0.4-0.2
						c0.1,0,0.1,0,0.2,0c0.1,0,0.1,0.2,0.2,0.2c0.2,0.4,0.4,1,0.5,1.6c0.1,0.5,0.1,1.1-0.1,1.8l-0.1,0.1c0,0-0.1,0-0.1-0.1l-0.2-0.1
						c0.1,0.1,0.1,0.2,0.2,0.3c0.1,0.1,0.2,0,0.2,0c0.2,0,0.3-0.1,0.5-0.1c0.4-0.1,0.8-0.2,1.2-0.4l0.3-0.2c0,0-0.1,0-0.2,0
						c-0.2,0-0.3,0-0.4,0c-0.1,0-0.1,0-0.2,0l-0.1,0l0,0l0,0l0,0c-1.3,8.7,1.8-11.8,1.5-9.7l0,0l0,0l0,0c0,0,0,0.1,0,0.1
						c0,0,0,0,0,0.1c0,0.1-0.1,0.2-0.1,0.3c-0.1,0.1-0.1,0.2-0.3,0.5c-0.2,0.4-0.4,0.6-0.5,0.6c0,0,0.2-0.2,0.2-0.3
						c-0.1,0.1-0.2,0.2-0.3,0.3c-0.1,0.2-0.2,0.3-0.4,0.4c-0.1,0.1-0.3,0.3-0.4,0.4c-0.3,0.2,0.4-0.4,0.7-0.7c0.4-0.3,0.8-0.7,1.3-1
						c0.4-0.3,0.9-0.7,1.3-1l0.7-0.5c0.2-0.2,0.4-0.2,0.6-0.4c0.4-0.3,0.9-0.6,1.5-0.9l1.4-0.9c1.9-1.2,3.7-2.4,5.5-3.7
						c-1.3,1.1-3.1,2.5-5,4.2c-2.4,2.1-5.1,4.5-7.7,6.8c-5.5,4.8-10.7,9.2-13.2,9.6c-0.4,0.8-0.8,1.6-0.7,2.2c0.1,0.6,0.6,1,2.1,0.6
						c0.4-0.7,2.8-3.3,5.3-5.6c2.4-2.3,4.9-4.5,5.3-4.5c-3.6,4.2-4.5,5.4-5.3,6.6c-0.8,1.2-1.3,2.2-4.2,6.4c0.6-1.1,3.7-4,6.5-6.6
						c2.9-2.6,5.6-4.8,5.5-4.2c-1.6,1.5-10.4,10.8-11.6,11.5c3.8-2.7,7.5-5.6,11.1-8.6c-2,1.5-8.6,9.2-11.1,12.8
						c0.9-1.2,1.1-0.7,1.2,0.1c0.1,0.7,0.1,1.8,0.6,1.5l1.9-3.5c-0.1,1,0.7,0.7,2-0.4c1.3-1.1,3-2.9,4.7-4.7
						c3.5-3.7,6.8-7.5,6.6-6.3c-1.8,2.1-11.3,14-12.1,16.4c2.3-2.7,7.7-9.3,12.7-15.5c2.1-2.6,4.2-5.3,6.4-7.9
						c1.8-2.3,3.3-4.1,4-4.9l-2.2,3.4c0.8-0.9,1.7-1.9,2.5-2.9c-1.4,2.1-3.3,4.6-5.3,7.4c-1,1.4-2.1,2.8-3.1,4.2
						c-1.1,1.4-2.2,2.8-3.3,4.3c-4.6,5.8-9.4,11.4-12.3,14.4c-1.7,3.3-2.8,4.1-2.1,4.8c-2,3.5-3.7,4.2-4,4.1c0,1.4,0,2.8,0.1,4.2
						c4.6-6.9,5.6-5.1,9.2-10.7c-1.9,1.5-3.9,3-6,4.5c2.3-3.4,5.9-7.9,8.6-11.1c2.8-3.2,4.7-5.2,4.5-3.7c-0.8,1.5-2.7,4.4-4.6,7.2
						c-1.9,2.8-3.8,5.5-4.5,6.6c1.6-2.1,3.6-2.8,2.7-1.1l-2.6,2.9c-0.5,1.7,1.1-0.2,2.4-1.5c1.3-1.3,2.2-2.1,0.8,1.5
						c0,0.8-3.7,9.5-1.5,5.7c1.7-4,5.8-11.8,9.9-19.3c1.1-1.9,2.1-3.8,3.1-5.7c1.2-2.1,2.3-4,3.3-5.8c2-3.6,3.7-6.5,4.6-8.1
						c-0.2,0.3-1.2,2.8-2.3,5.8c-1.1,3-2.4,6.6-3.4,9.1c-0.4,1-0.8,2-1.3,2.9c-0.4,0.8-0.8,1.6-1.2,2.4c-0.9,1.6-1.8,3.2-2.8,4.8
						c-1.9,3.2-3.8,6.2-4.8,8.9c0.9-1.8,2.4-3.7,2.9-4.3c-0.3,1.8-2.9,5.4-1.5,5.3c3.3-6.5,1.9,1.8,3.1-5.3c0.9-0.6,1-0.2,1.1,0.5
						c0,0.7,0,1.6,0.7,1.7c0.7-2.3,2.6-5.9,4.4-9.2c0.4-0.8,0.9-1.6,1.3-2.4l0.3-0.6l0.4-0.7c0.2-0.4,0.5-0.9,0.7-1.3
						c0.9-1.7,1.6-2.9,2.1-3.5c-0.4,1.1-0.9,2.3-1.3,3.5c-0.4,1.1-0.7,2.2-0.8,2.7c0.8,0.3,1.2,1.1,1.6,1.8c0.4,0.7,0.8,1.3,1.6,1
						c-0.4,1.7-0.2,3.6-1.5,7c0.6-1.4,1.5-4.1,2.1-4.5c-0.4,3.1-0.8,3.5-1.2,4c-0.4,0.6-0.9,1.2-1.6,5.1c1.3-4.4,2.9-6.6,4.3-9.9
						c0.8-3.5,0.5-3.5-0.1-2.4c-0.6,1.2-1.7,3.5-2.5,5c1.3-4.7,2.9-9.5,4.6-14.5c1.6-4.8,3-9,4-11.7c1.2-3.1-1.1,5.9-0.7,4.4
						c0.5,0,1.7-4.5,2.5-8.1c0.9-3.7,1.5-6.5,1.3-3.8c-0.4,2.6-0.8,5.4-1.3,8c-0.5,2.6-1,5.2-1.3,7.1c-0.5,1.5-0.6,1-0.6,0.1
						c0-0.9,0.1-2-0.1-1.6c0,0.7,0,1.4,0,2.1c-0.6,2.2-1.4,4.3-1.3,2.9c-0.1,0.6-0.1,1-0.1,1.3c0,0.3,0.1,0.5,0.2,0.5
						c0.2,0.1,0.6-0.3,0.9-0.7c0.8-0.8,1.6-1.8,1.9,0.5c0.3-1.3,0.6-2.8,0.9-4.2c0.1-0.4,0.1-0.8,0.2-1.1c0.1-0.4,0.1-0.7,0.2-1
						c0.1-0.5,0.1-1,0.1-1.5l-0.5,1.2c0.1-1.9,0.5-3.6,0.8-4.9c0.3-1.4,0.5-2.4,0.4-3.1c0.4-1.7,0.8-3.8,1.2-5.3
						c0.4-1.4,0.6-2.2,0.8-1.3l-0.3,5.4c0.1-1.6-0.2-2.9-0.5-1c0.2-1.4,0.3,0.3,0.6,1.3c0.2,1,0.6,1.4,0.9-2.2
						c-0.1-1.1-0.2-2.3-0.3-3.4c0.3-1.6,0.6-3.8,0.9-5.5c0.3-1.7,0.4-2.7,0.7-2c-0.2-2.6-0.2-2.4-0.2-2.3c0,0,0,0-0.1-0.4
						c0-0.4-0.1-1.1-0.1-2.7c0.1,3.8-0.2,3.8-0.4,3.9c-0.2,0.1-0.4,0.3-0.4,4.3c0-3.5,0-4.3-0.1-4.8c0-0.6-0.1-1,0.1-4.1
						c-0.2,1.9-0.3,3.5-0.4,2.8c-0.1,0.5-0.2,1.2-0.2,1.7c0-0.1,0-0.1,0-0.1c0,0.1,0,0.1,0,0.2c0,0.3,0,0.4,0,0.1
						c0,0.8-0.1,1.7-0.2,2.8c-0.6,4.5-1.1,5-1.7,7.6c-0.1-0.7,0.4-2.4,0.6-4.4l-0.8,3.9c0.3-2.2,0.5-3.9,0.7-5.5
						c0.2-1.6,0.5-3,0.8-4.5l-0.2,0.1c0.3-2.4,0.4-3.3-0.1-1.2c0.1-1-1.3,5.8-0.5,1.8c-0.3,1.2-0.7,2.4-1.1,3.6l0.3-1.3
						c-0.1-0.1-0.9,2.3-1.5,3.7c-0.6,1.3-1,1.6,0.1-3.2c-0.6,1.5-1.4,3.3-1.2,1.9l1.6-4.9c-0.4,0.9-0.1-0.3,0-1.1
						c0.2-0.8,0.2-1.2-0.8,1.4c2.5-6.6,2.7-7.3,2.3-6.8c-0.4,0.6-1.5,2.4-1,1.1l-3.1,6.1c0-0.6-1,0.9-2.5,2.8l-2.9,5.1
						c-1.3,1.8-0.9,0.6-0.1-1.1c0.7-1.7,1.8-3.7,1.6-3.8c1.1-1.7,0.9-1.1,0.2,0.1c3.3-5.6,2.1-3.9,0.6-2.3c-1.4,1.7-3.1,3.5-0.6-0.2
						c-1.1,1.3-0.7,0.6,0.1-0.5c0,0,0.1,0,0.2-0.2c0-0.1,0-0.1,0-0.1c0.5-0.7,1-1.5,1.6-2.3c-0.7,1-1.3,1.8-1.6,2.2
						c0-0.1-0.4,0.2-1.1,0.9l3.2-4c0,0,0,0-0.1,0.1c1.2-1.6-1.5,1.7-3.9,4.7c-0.5,0.5-1.2,1.2-1.9,2c2.6-3.2,2.1-2.8,1.7-2.5
						c-0.4,0.3-0.8,0.5,1.9-2.8c-2.7,2.9-2.2,1.1-8.1,6.7c0.7-0.8,1.1-1.2,1.2-1.1c0.6-1,1.1-2-0.7-0.7l4.2-4c-2,1.6-4,3-6.1,4.4
						c2.3-2.7,3.9-4,7.4-6.6c-0.7,0.5-1.3,0.8-1.7,1.1c-0.5,0.3-0.8,0.5-1.1,0.7c-0.1,0-0.1,0.1-0.2,0.1c-0.1,0-0.2,0-0.3,0
						c-0.2,0-0.4-0.1-0.5-0.1c-0.3-0.1-0.6-0.1-0.9-0.2c-1.1-0.2-2.3-0.6-5.9,0.8c0.8-0.9,1.6-1.8,2.4-2.7c-0.4-0.2-1-0.3-1.7-0.2
						c-0.7,0.1-1.4,0.3-2,0.4c-1.3,0.3-2.2,0.4-2.2-1.1c-0.2-0.9-0.7-1.8-1.6-2.4c-0.2-0.2-0.4-0.3-0.7-0.5
						c-0.1-0.1-0.2-0.1-0.4-0.2l-0.3-0.1c-0.4-0.2-0.8-0.3-1.3-0.5c-0.2-0.1-0.5-0.1-0.7-0.2l-0.4-0.1c-0.1,0-0.1,0-0.1-0.1
						c-0.1-0.1-0.2-0.1-0.3-0.1c-0.2-0.1-0.4,0-0.7,0c-0.9,0.2-1.7,1.1-1.6-1.8c-0.8,5.6-0.8,4.5-0.7,3.1c0.1-1.4,0.3-3.3-0.6,1.4
						c0.5-2.7,0.6-4.2,1.3-6.8c-0.5,1.6-0.5,0.7-0.5,0.3c-0.1-0.4-0.2-0.2-1.4,4c0.7-2.9,1.2-4.4,1.6-6.1c-0.2,0.7-0.8,2.6-0.4,0.9
						c0.4-1.7,0.7-2.5,1.1-3.8c-0.5,0.6-3.2,9.9-5.8,18.6c0.3-2,0.4-2.9,0.1-2.5c-0.3,0.3-0.9,1.9-2.1,4.8c0.7-2.8,1.5-5.8,2.4-6.9
						c0-0.1-0.1-0.4-0.2-0.7c-0.1-0.3-0.2-0.7-0.4-0.8c-0.4-0.2-1.1,0.4-2.5,3.9c0.6-1.8-0.2-0.7-0.7,0c-0.6-0.8-0.3-1.4-1.3-1.2
						l-0.4,1.2c-2.1,3.9-2.5,4.2-2.5,3.6c0-0.6,0.5-2,0-1.8l0.5-0.8c1-3.4,0.5-2.8,0.1-2.4c-0.4,0.4-0.9,0.7,0.6-2.9l-2.9,4.6
						c-3.2,4.8-2.5,3-1.3,0.4c1.2-2.6,3-5.8,1.5-4.5c-0.6,0.9-1.1,1.8-1.6,2.7c-1.3,1.3,0.9-2.2,3.5-5.9c2.6-3.8,5.7-7.9,6.1-8.5
						c0.6-0.8,1-1.1,1.4-1.6c2-2.8,0.9-1.5-0.8,0.5c-1.7,2-4,4.8-4.6,5c2.3-2.8,5.8-6.7,6.2-7.4c0.9-1.1-1,0.8-2.5,2.2
						c-1.5,1.4-2.7,2.1-0.5-0.3c-1.8,1.8-3.6,3.8-4.8,4.7c-0.2,0,1.5-2,2.6-3.2c1.1-1.3,1.6-1.9-1,0.3c0.5-0.5,0.9-0.9,1.3-1.3
						c-1.3,0.9-1.8,0.7-4.3,2.7c3.6-3.1,4.2-3.7,3.9-3.7c-0.3,0-1.3,0.6-1.4,0.4c0,0-0.1,0-0.1,0c0,0,0,0,0,0c0,0,0.1-0.1,0.1-0.1
						c0.1-0.1,0.3-0.2,0.5-0.4c0.5-0.4,1.3-1,2.5-1.9c0.1-0.2,0.2-0.5,0.3-0.7l0.8-0.5c0.9-0.9-0.7,0.1-2.2,0.9
						c0.6-0.5,1.2-0.8,1.6-1c2.3-1.9,1.8-1.4-0.5-0.8l2.1-1.1c-0.3,0.1,0.1-0.2,0.7-0.6l0,0c0.1-0.1,0.1-0.2,0.2-0.4
						c0-0.1,0.1-0.1,0.1-0.2c0-0.2,0-0.3,0-0.5c0.1-0.7,0-1.4-0.1-2.1c-0.1-0.7-0.4-1.4-0.8-2c-0.4-0.6-0.9-1.1-1.6-1.3
						c0.2-0.2,0.6-0.4,1-0.3c-0.6-0.3-1-0.7-1.4-1.2c-0.4-0.5-0.7-1.1-1-1.7c-0.3-0.7-0.6-1.4-0.9-2.1c-0.3-0.7-0.6-1.5-1-2.1
						c-1.4-2.7-3.7-4.5-5.9,0.5c-1.1,0.4-2.2,1-3.2,1.7c1.5,1,1,2.2,0.5,3.4c-0.6,1.2-1.3,2.6-1,3.7c-0.5,0.2-0.9-0.7-1.1-1.8
						c-0.2-1.1-0.3-2.4,0.4-2.6l0.1,0.6c0.3-1.5,0.3-2.4,0-3.1c-0.3-0.6-0.8-1-1.4-1.3L64.6,94c-0.1,0-0.1-0.1-0.2-0.1
						c-0.1-0.1-0.2-0.2-0.3-0.4c-0.2-0.3-0.2-0.9-0.2-2c-1.2,0.3-2.2-0.1-2.8-0.4c-0.6-0.3-0.8-0.8-1.4-0.3l-1.8,6l-0.5,0.3
						c0.3-1.3,1.5-4.8,1.8-4.9c0.5-1.7,0.2-0.8-0.4,0.7c-0.6,1.5-1.4,3.7-1.7,4.4c0.1-0.9,0.9-3,1.6-4.7c0.3-0.8,0.7-1.6,0.9-2.2
						c0.2-0.6,0.4-0.9,0.3-0.9l-0.4,0.7L59.2,91c-1.2,2.9-2.3,5.8-2.7,5.9c0.2-1.1,1.5-4.1,1.5-4.3c0.2-0.5,0.3-0.7-0.1-0.1
						c-0.1-0.1-0.3-0.2-0.4-0.3c-0.7,1.8-1.4,3.6-2.1,5.4c-1.6,2.9-0.8,0-3.1,6.2c1.7-4.7,1.3-5.4,0.4-5.5c-0.9-0.1-2.1,0.2-1.3-1.5
						c-3,3.5-3.4,2.7-3.1,1.5c-0.7,1.2-4.9,7.1-4.4,5.5c4.2-5.5,5.1-7.1,5.9-8.3c0.7-1.2,1.3-2.1,4.3-6c-2,2.7-2.1,2.6-2.3,2.8
						c-0.2,0.2-0.5,0.7-3.4,4.3c3.6-4.6,2-2.5,5-6.3c-1.1,1.4-0.1,0.3,1-1c1.1-1.3,2.2-2.8,2.1-2.8c-0.8,1-2.1,2.8-3.1,4l4.1-5.6
						c-0.1,0.1-1.2,1.4-1.9,2.2c-0.7,0.8-1,1,0.3-0.8c-0.6,0.8-1.6,2.1-1.8,2.1c0.5-0.9,0.7-1.7,0.8-2.2c0-0.3,0-0.5-0.1-0.7
						c0-0.1,0-0.1-0.1-0.2l-0.5-0.5l-0.6-0.5c-0.2-0.2-0.4-0.3-0.6-0.5c-1.1-0.7-2.2-1.2-3.3-1.5c-1.1-0.3-2.1-0.4-3-0.4
						c-1.8,0-3.2,0.4-4.2,0.8c-2.2,0.8-3.1,1.6-4.5,1.9c-0.7,0.1-1.3,0.3-2,0.3c-0.7,0-1.4-0.1-2.1-0.1c0.8,0.5,0.4,1-0.1,1.4
						c0.4,0,0.2,1.3,0.3,2c-0.8-0.3-1.6-0.4-2.3-0.4c-0.1,0.9-0.6,1.3-1.2,1.7c-0.5,0.4-1,0.8-1.1,1.3c0.2-0.2,0.4-0.4,0.6-0.6
						c-0.4,0.9,0,1.3,0.5,2c0.5,0.7,1.2,1.7,1.3,2.7c0.4-0.8,1.2,0,2.2,1c0.5,0.5,0.9,1,1.4,1.2c0.5,0.2,0.9,0.1,1.2-0.9
						c0.5,0.8-0.2,1,0.1,1.8c0.3-1.2,0.8-1.5,1.9-0.5l-0.1,0.4c1.4,0.2,2.5,0.7,3.6,1.6c0.5,0.4,0.9,1,1.1,1.6
						c0.1,0.2,0.1,0.3,0.1,0.5l0,0.1l0-0.2l0-0.5c0-0.3,0-0.7,0-1c0-1.2,0.1-2.3,0.3-3.1c0,0.2-0.1,0.3-0.1,0.5
						c0-0.4,0.1-0.7,0.2-0.9c0-0.2,0.1-0.4,0.1-0.5c0-0.2,0.1-0.4,0.2-0.5c0.1-0.2,0.1-0.2,0,0c0,0.1-0.2,0.4-0.2,0.8
						c-0.1,0.2-0.1,0.4-0.1,0.6c0,0.2-0.1,0.5-0.1,0.6c0,0.4-0.1,0.4,0,0c0.1-0.5,0.2-1.4,0.4-2c0.1-0.3,0.2-0.5,0.3-0.6l0.1-0.1
						l0,0l0,0l0,0l0,0c3.7-4.6-5.1,6.2-4.2,5.1l0,0l-0.4,0.3l-0.7,0.6l-3,2.6c-1,0.9-2,1.7-3,2.6l-1.5,1.3l-0.7,0.6
						c0,0.1,0,0.1,0,0.1c0.1,0.3,0.2,0.5,0.3,0.8c0.1,0.3,0.1,0.6,0.1,1c0,0.4-0.1,0.7-0.2,1.1c-0.2,0.8-0.5,1.6-1.1,2.7
						c-0.6,1-1.4,2.2-2.5,3.7c0.5,0.8,1.5-0.7,2.7-2.2c1.1-1.5,2.3-2.9,2.6-2.3l-2.4,3.3l3.3-3.5c-0.2,0.8-1,2.1-2,3.6
						c-1,1.5-2.3,3.2-3.3,4.4c0.2-0.5-0.8,0.3-1.1,0.3c-0.6,1.1-0.8,1.7-0.7,2c0,0.3,0.4,0.3,0.6,0.2c0.6-0.2,1.3-0.9,0.9-0.2
						c0.4-0.8,0.9-1.5,1.3-2.4c0.6-0.2,0.8-0.1,0.8,0.1c-0.1,0.2-0.3,0.5-0.6,0.6c-0.6,0.2-0.8,0,0.7-1.9l1.5-1.9
						c0.9-1.2,0.4-0.4-0.2,0.5c-0.6,1-1.5,2.1-0.9,2.2l-0.3,0.3c1.3-1.3,2-1.7,2.1-0.9c-0.8,0.7-1.4,1.9-2,3.1
						c-0.6,1.2-1.1,2.4-2.1,3.1c0.9-0.3,1.6-0.5,2.1-0.7c0.5-0.2,0.9-0.6,1.3-1c0.8-0.8,1.8-2.1,4.5-4.6l-1.5,3
						c2.1-2.1,2.9-3.4,4.5-3.5c-1.2,0.9-1.6,2.1-2.2,3.4c-0.5,1.3-1.1,2.7-2.6,3.9c-0.4,4,1.8,2.7,3.2,1.7c0.7-0.5,1.4-1,1.7-0.7
						c0.3,0.3,0.1,1.3-0.7,3.8c2.7-4.2,2.6-5.5,2.1-5.9c-0.3-0.2-0.6-0.2-0.8-0.3c-0.2-0.1-0.2-0.2,0.2-0.6c0.4-1.4,1.4-2.9,2.4-4
						c1-1.1,1.9-1.8,2.1-1.4c0.4,0-0.6,2.8-1.3,5.5c-0.7,2.7-1.2,5.6-0.2,5.4c-0.2,0-0.5,0.7-0.6,0.7c-0.1,1.1,0.6,0.3,1.2-0.4
						c0.6-0.7,1.1-1.3,0.7,0.6c2.5-5.9,0.8,0.2,3.6-7.6c-0.7,0.9-1.3,1.5-2,2.3c0.8-1.2,2.1-3.9,3.3-6.2c1.1-2.2,2-3.8,1.8-2
						c-0.6,1.7-1.7,4-2.3,5.4c-0.4,2.1,1.2-2,0.8,0.2c-1.3,4.1-1.9,4.7-2.5,5.1c-0.3,0.2-0.6,0.4-1,0.8c-0.2,0.2-0.4,0.6-0.7,1
						c-0.3,0.4-0.6,1-0.9,1.7c-0.7,3.3,3.6-6.1,0.3,2.5c2.2-5.5,2.4-5.3,2.6-4.8c0.2,0.5,0.4,1.3,2.3-3.2l-1.6,5
						c0.4-0.8,1.5-3.3,1.8-3.3c-0.8,2.3-1.7,4.5-2.5,6.8c1.3-2.9,1.4-1.9,1.6-0.4c0.1,0.7,0.1,1.5,0.3,2c0.2,0.4,0.5,0.4,1-0.4
						c-1.4,0.3-1-1.2-0.5-3.3c0.6-2.1,1.4-4.7,1.5-6.4c1.1-2,1.6-2.2,1.7-1.4c0.1,0.8-0.1,2.7-0.3,4.6c-0.2,2-0.4,4-0.1,5.5
						c0.1,0.7,0.3,1.3,0.7,1.6c0.4,0.2,1,0.1,1.7-0.3c-0.4,0.5-1-0.2-1.2-1.3c-0.2-1.1,0-2.7,0.7-4.1c0.7,0.9,1.6,2.6,2,5.3
						c2-1,2-2.4,1.8-3.9c-0.2-1.6-0.6-3.4,0.3-5.2c0.2,3.2,0.8,2.3,1.4,0.5c0.7-1.9,1.4-4.8,2.1-6.1l-0.3,5.4
						c0.5,0.3,0.9,0.3,1.2,0.1c0.1,0,0.2-0.1,0.2-0.2c0.1-0.1,0.1,0,0.2-0.6c0.1-0.9,0.2-1.8,0.3-2.5c0.3-3,0.5-4.8,0.6-6.4
						c0.1-0.8,0.1-1.5,0.2-2.3c0-0.4,0.1-0.8,0.1-1.2c0-0.1,0-0.2,0-0.3c0-0.1,0-0.1,0-0.2c0-0.1,0-0.1,0-0.2c0-0.5,0.1-0.7,0.1-0.2
						l-0.1,1.2l0,0.6l0,0l0-0.2c0,0.1,0,0.3,0,0.4l0-0.1c0,0.2,0,0.3-0.1,0.4c0,0.1,0,0.2-0.1,0.2c0.1-0.4,0.2-0.8,0.4-1.3
						c0.4-1.1,0.8-2,1-2.1c-0.4,1.4-1.2,2.6-0.6,1.8c-0.2,0.4-0.4,0.8-0.6,1.2c-0.1,0.1-0.1,0.2-0.2,0.3c0,0,0,0,0,0.1c0,0,0,0,0,0
						c0,0,0,0,0-0.1c0-0.1,0.1-0.2,0.1-0.2c0,0,0,0.1-0.1,0.1l0.1-0.1l0.1-0.2c0.4-0.6,0.8-1.2,1.3-1.8c-0.2,0.3-0.5,0.7-0.7,1
						c-0.1,0.1-0.3,0.4-0.4,0.6c0.1-0.1,0.2-0.3,0.3-0.4c0.3-0.3,0.6-0.6,0.7-0.8c-0.3,0.3-0.5,0.6-0.8,0.8c0,0-0.1,0.1-0.2,0.3
						c0.2-0.2,0.4-0.5,0.6-0.7c0,0,0.1-0.1,0.2-0.2c0.1-0.1,0.1-0.1,0.1-0.1c0.1-0.1,0.4-0.3,0.5-0.4c0.1,0,0.2-0.1,0.2-0.1l0,0l0,0
						l0,0l0,0l0,0c0.4-0.2-3.6,1.5-1.9,0.8l0,0l0,0l-0.3,0.3l-0.6,0.5c-0.8,0.7-1.7,1.4-2.5,2l0,0c-0.1,0.2-0.3,0.5-0.7,0.9
						c0.4-0.1,0.7-0.1,0.8,0c-0.6,0.9-1.8,1.9-2.5,2.8c-0.7,0.9-1.1,1.6-0.2,1.6c-1.4,1.1-2.8,2.1-4.3,3.3c0,0.4,1.4-0.6,2.8-1.6
						c0.7-0.5,1.4-1,1.9-1.2c0.3-0.1,0.5-0.2,0.6-0.2c0.1,0,0.3,0,0.5,0.1c0.9,0.3-3.1,2.3-4.1,3.3c0.5-0.2,0.9-0.3,1.3-0.4
						c0.4-0.1,0.8-0.2,1-0.2c0.1,0,0.2,0.1,0.2,0.1c0,0.1,0,0.2,0,0.3c-0.2,0.3-0.6,0.8-1.4,1.6C56.6,127.2,57.2,126.5,57.1,126.3z
						 M56.8,139.6c-0.4,0.1-1.8,0.8-0.9-0.4C58,137.4,57.1,138.6,56.8,139.6z M77.4,151.4c-0.5,1.1-0.7,0.7-0.8-0.4
						C76.9,150.7,77.2,150.7,77.4,151.4z M119.4,133.5c0,0.1,0,0.2-0.1,0.3C119.6,131.9,119.5,132.6,119.4,133.5z M119.4,135.2
						c0.1-0.7,0.3-1.4,0.4-2.1c-0.2,1.3-0.3,1.5-0.3,1.2C119.2,135.6,119.1,136.4,119.4,135.2z M57.3,94.3l-0.4,1.1
						C56.1,96.9,56.7,95.6,57.3,94.3z"/>
					<path class="st0" d="M73.2,155.6c0.1-0.6,0.2-1.1,0.4-1.7C73.4,154.4,73.2,155,73.2,155.6z"/>
					<path class="st0" d="M60.4,117.7C60.4,117.6,60.4,117.6,60.4,117.7c-0.1,0-0.2,0-0.4,0.1L60.4,117.7z"/>
					<path class="st0" d="M89.8,183.2c0-0.9,0.3-1.9,0.6-2.8C89.9,181.6,89.5,182.6,89.8,183.2z"/>
					<path class="st0" d="M121.9,125.6l-0.2,1.2c0.1-0.3,0.1,0.6,0.1,1.3C121.8,127.1,121.9,125.7,121.9,125.6z"/>
					<path class="st0" d="M127.9,150.5c0.2-0.4,0.3,0,0.5-0.5l0.3-1.8C128,148.2,127.5,149.6,127.9,150.5z"/>
					<path class="st0" d="M121.7,139.5c-0.1,3.5,0.4,2.1,0.7,1.3c0,0,0,0.1-0.1,0C122.5,135.9,122.1,137.7,121.7,139.5z"/>
					<path class="st0" d="M122.6,140.6c0.1-0.2,0.2-0.4,0.4-0.2C122.9,138.5,122.8,140,122.6,140.6z"/>
					<path class="st0" d="M120.2,131.9c-0.1,0.9,0.7-5.1,0.6-3.6c0.4-2.6,0.1-0.9-0.2,1C120.2,131.3,119.8,133.5,120.2,131.9z"/>
					<polygon class="st0" points="121.9,151 121.8,146.7 121.4,150.4 					"/>
					<path class="st0" d="M118.5,150.4c0.1,0.2,0.3,0.4,0.5,0.7c0.1-0.8,0.2-1.3,0.3-1.7C119,149.6,118.7,149,118.5,150.4z"/>
					<path class="st0" d="M119.4,149.3c0.2-0.1,0.4-0.4,0.6-1.2C119.8,148.3,119.6,148.6,119.4,149.3z"/>
					<path class="st0" d="M120.7,153.7l-0.2-1.3c-0.2,0-0.4-0.1-0.5-0.1C120.2,152.8,120.4,153.2,120.7,153.7z"/>
					<path class="st0" d="M113,156.7c-0.3,0.8-0.7,1.6-1.1,2.3c-0.6,2.1-0.7,3.1-0.2,2.1C112.2,159.6,112.7,158.5,113,156.7z"/>
					<path class="st0" d="M111.5,170.9c0.1-1.1,0.3-2.5,0.6-4.4l-1.6,7.7L111.5,170.9z"/>
					<path class="st0" d="M108.9,174.4c-0.5,2.1-2.7,6.4-1.4,5.4C108.1,177.8,109.3,175.6,108.9,174.4z"/>
					<path class="st0" d="M96.9,165.5c0.1,0.1,0.1,0.1,0.2,0.1l6-11.5L96.9,165.5z"/>
					<path class="st0" d="M74.9,176.6c-1.2,3.8,5.2-6.1,3.3-1.9c2-2.2,1.6-3.4,3.4-5.3C79.3,171.3,80.2,169.4,74.9,176.6z"/>
					<path class="st0" d="M81.6,169.5c0.4-0.3,0.8-0.7,1.4-1.2C82.4,168.7,81.9,169.1,81.6,169.5z"/>
					<path class="st0" d="M30.5,88c-0.3,0.1-0.5,0.3-0.8,0.5c0.2,0,0.3,0,0.5,0L30.5,88z"/>
					<path class="st0" d="M29.3,90.5L29,89.9c-0.1,0.4-0.2,0.8-0.3,1.1C28.8,90.8,29.1,90.4,29.3,90.5z"/>
					<path class="st0" d="M52.8,147.5l0.5-0.5c0.5-0.9,0.6-1.2,0.7-1.9C53.6,145.9,53.1,146.7,52.8,147.5z"/>
					<polygon class="st0" points="53,134.2 53,134.4 55.5,132 					"/>
					<path class="st0" d="M51.7,127.9c0,0.2,0.2,0.2,0.3,0.2c0.1,0,0.2,0,0.2,0.1c0,0.1,0,0.2-0.1,0.3c0-0.1,0-0.2,0.1-0.3
						c0-0.1,0.1-0.2,0.2-0.3c0.2-0.2,0.5-0.5,0.7-0.7C53.5,126.7,53.6,126.7,51.7,127.9z"/>
				</g>
			</g>
		</g>
	</g>
	<g>
		<path class="st1" d="M70.1,188.4h-38c-7.3,0-13.1-5.9-13.2-13.2V85.8c0-7.3,5.9-13.2,13.2-13.2h64.7c7.3,0,13.1,5.9,13.2,13.2v33
			h-6.4v-33c0-3.7-3-6.7-6.7-6.7H32.1c-3.7,0-6.7,3-6.7,6.7v89.5c0,3.7,3,6.7,6.7,6.7h38V188.4z"/>
		<path class="st1" d="M42,198.4h-7.4c-3.2,0-5.7-2.6-5.7-5.7v-7.4c0-1.8,1.5-3.2,3.2-3.2l0,0h12.5c1.8,0,3.2,1.5,3.2,3.2l0,0v7.4
			C47.8,195.9,45.2,198.4,42,198.4z M35.3,192h6v-3.6h-6V192z M82.6,69.1h-6.4V44.2H52.7v24.8h-6.4V43.5c0-3.2,2.5-5.7,5.7-5.7h24.8
			c3.2,0,5.7,2.6,5.7,5.7l0,0V69.1z"/>
		<path class="st1" d="M56.3,50.2h26.3v6.4H56.3V50.2z M76.8,113.8H52c-7.3,0-13.1-5.9-13.2-13.2v-8.1h6.4v8.2c0,3.7,3,6.7,6.7,6.7
			h24.8c3.7,0,6.7-3,6.7-6.7v-8.2h6.4v8.2C90,108,84.1,113.8,76.8,113.8z M168.8,195.9H89.3c-5.9,0-10.7-4.8-10.7-10.7v-47.3
			c0-5.9,4.8-10.7,10.7-10.7l0,0h79.6c5.9,0,10.7,4.8,10.7,10.7l0,0v47.3C179.5,191.1,174.8,195.9,168.8,195.9
			C168.9,195.9,168.8,195.9,168.8,195.9L168.8,195.9z M89.3,133.7c-2.3,0-4.2,1.9-4.3,4.2v47.3c0,2.3,1.9,4.2,4.3,4.3h79.6
			c2.3,0,4.2-1.9,4.3-4.3v-47.3c0-2.3-1.9-4.2-4.3-4.3L89.3,133.7z M144.7,123.8h-6.4v-2.4h-18.5v2.5h-6.4v-3.2
			c0-3.2,2.5-5.7,5.7-5.7h19.9c3.2,0,5.7,2.6,5.7,5.7V123.8z"/>
		<path class="st1" d="M167.1,153.6h-3.2c-5.9,0-10.7-4.8-10.7-10.7l0,0v-3.2h6.4v3.2c0,2.3,1.9,4.2,4.3,4.3h3.2V153.6z M94.3,153.6
			h-3.2v-6.4h3.2c2.3,0,4.3-1.9,4.3-4.3v-3.2h6.4v3.2C104.9,148.9,100.1,153.6,94.3,153.6L94.3,153.6L94.3,153.6z M159.6,183.5h-6.4
			v-3.2c0-5.9,4.8-10.7,10.7-10.7l0,0h3.2v6.4h-3.2c-2.3,0-4.3,1.9-4.3,4.2l0,0V183.5z M104.9,183.5h-6.4v-3.2
			c0-2.3-1.9-4.3-4.3-4.3H91v-6.4h3.2c5.9,0,10.7,4.8,10.7,10.7l0,0L104.9,183.5z M91.1,189.5h6.4v8.9h-6.4V189.5z M160.7,189.5h6.4
			v8.9h-6.4V189.5z"/>
	</g>
</g>
</svg>
