<?xml version="1.0" encoding="utf-8"?>
<!-- Generator: Adobe Illustrator 24.0.2, SVG Export Plug-In . SVG Version: 6.00 Build 0)  -->
<svg version="1.1" id="Layer_1" xmlns="http://www.w3.org/2000/svg" xmlns:xlink="http://www.w3.org/1999/xlink" x="0px" y="0px"
	 viewBox="0 0 198.4 198.4" style="enable-background:new 0 0 198.4 198.4;" xml:space="preserve">
<style type="text/css">
	.st0{fill:#C19ADE;}
	.st1{fill:#656565;}
</style>
<g>
	<g>
		<g>
			<g>
				<g>
					<path class="st0" d="M170.3,175.4c0.5,0,0-0.3,0.1-0.4C169.5,175.1,170.4,175.5,170.3,175.4z"/>
					<path class="st0" d="M164.7,178.8l-0.2-0.4c0,0.4,0,0.8,0,1.3C164.5,179.3,164.6,179,164.7,178.8z"/>
					<path class="st0" d="M159,181.5c1.4,0.9,1.7,0.6,2,0c0.3-0.6,0.5-1.2,1.3-1.2l0.6,0.3l-1-1.6c-0.5,0.4-1,1-1.4,1.5
						C160.2,181.1,159.8,181.6,159,181.5z"/>
					<path class="st0" d="M150.6,177.6c1.2,0.9,0.1,1,1.2,0.1c-0.2-0.1-0.3-0.1-0.4-0.2C151.2,177.6,151,177.6,150.6,177.6z"/>
					<path class="st0" d="M151.3,177.5C152,177.3,150,176.8,151.3,177.5L151.3,177.5z"/>
					<path class="st0" d="M148.7,178.9c0-0.4,0-0.8,0-1.2c-0.8-0.6-1.8-0.5-2-1C146.2,177.4,147.1,178.1,148.7,178.9z"/>
					<path class="st0" d="M149.9,181.2l0-0.6C149.6,180.4,149.4,180.4,149.9,181.2z"/>
					<path class="st0" d="M150,179.5c0,0.4-0.1,0.8-0.1,1.2c0.6,0.4,1.5,1.3,0.1-0.5C150.8,181,150.2,180.2,150,179.5z"/>
					<path class="st0" d="M151,179.7c1.1,0.4,2,0.5,2.1,1.7C154.3,180.4,152.3,178.8,151,179.7z"/>
					<path class="st0" d="M161.1,183.9l1.1,0.3l-0.3-1C162.1,183.6,160.4,183.2,161.1,183.9z"/>
					<path class="st0" d="M141.5,179c0.7,0.7,2.2,1.7,3.1,2.6l-0.2-1C143.6,180.2,142.5,180,141.5,179z"/>
					<path class="st0" d="M144.6,181.6l0.2,1l27.4,9.7l-0.5-0.3c-0.1,0.1-0.1,0.3-0.1,0.3l-26.3-9.4
						C145.7,182.7,145.3,182.2,144.6,181.6z"/>
					<path class="st0" d="M153,184.4c-0.3-1-0.5-1.9-0.8-2.8c0.1,0.9,0.3,1.9,0.5,3L153,184.4z"/>
					<polygon class="st0" points="178.6,188.2 180.8,188.5 177.5,187.8 					"/>
					<path class="st0" d="M179,185.1c2,0.3,3.8-1.2,5-0.8c-0.1-0.9-1.8-1.4-3.4-1.9C181.4,183,180.9,183.9,179,185.1z"/>
					<path class="st0" d="M178.2,181.5c0.5,0.3,1.4,0.5,2.3,0.8C180.1,182,179.4,181.7,178.2,181.5z"/>
					<path class="st0" d="M172.6,190.3c0.6-0.1,2.3-0.4,3.2-1.1l-3,0.7C172.7,190,172.7,190.2,172.6,190.3z"/>
					<path class="st0" d="M172.7,189.9L172.7,189.9c0.3-0.5,0.4-0.8,0.5-0.9C173.1,189.1,173,189.4,172.7,189.9z"/>
					<path class="st0" d="M172.6,190.4c0,0,0-0.1,0-0.1C172.3,190.4,172.2,190.4,172.6,190.4z"/>
					<path class="st0" d="M149.2,184c0.5,1.2,0.8,3,3.3,4C151.5,186.5,150,185.9,149.2,184z"/>
					<path class="st0" d="M168.9,191.2l-0.9,1.1c0.7-0.1,1.9-0.4,2.6-0.2L168.9,191.2z"/>
					<polygon class="st0" points="168,190.8 168.9,191.2 169.2,190.8 					"/>
					<path class="st0" d="M174.9,184.5c-1.3-0.4-1.4-1-1.6-1.7c-0.7,0.9-1.1,1.7-1.2,2.4C173.2,185.2,174.9,185.3,174.9,184.5z"/>
					<path class="st0" d="M173.6,187.3c-0.1,0-0.1-0.1-0.2-0.1C173.2,187.3,173.1,187.4,173.6,187.3z"/>
					<path class="st0" d="M173,174.7c-0.2,0.1-0.4,0.2-0.6,0.4c0.2-0.1,0.4-0.1,0.6-0.2L173,174.7z"/>
					<path class="st0" d="M171.6,185.4c-0.7,0.6,0.1,0.8,1,1c-0.3-0.4-0.4-0.7-0.4-1.2C171.7,185.3,171.4,185.3,171.6,185.4z"/>
					<path class="st0" d="M176.8,179.6c-0.7,0.5-1.3,1-1.9,1.5C176,180.6,177.7,179.5,176.8,179.6z"/>
					<path class="st0" d="M174.3,186.9c0,0,0.1,0,0.1,0.1C175.1,186.7,174.8,186.8,174.3,186.9z"/>
					<path class="st0" d="M174.3,186.9c-0.4-0.2-1.1-0.3-1.8-0.5c0.2,0.3,0.5,0.6,0.9,0.7C173.7,187.1,174,187,174.3,186.9z"/>
					<path class="st0" d="M150.6,180.9c1.6-0.6,3.2-1,4.1-0.9c0.8,0.1,0.9,0.7-0.7,1.7c1.3,0.1,4.5-0.8,8.1-2
						c3.6-1.2,7.5-3,10.3-4.7c-1.4,0.4-2.6,0.8-4.8,0c-0.8,0.6-1.6,1.8-2.7,2.7c-1,0.9-2.3,1.6-3.8,1.6c-2-1,0.8-1.6,2.2-3.2
						c-1.9,1.1-3.5,1.1-5.3,1.3c-1.8,0.2-3.9,0.6-6.7,2.1c0.8,0,1.7,0,2.5,0.1C152.9,180,151.3,180.3,150.6,180.9z"/>
					<path class="st0" d="M172.4,178.2l0.4,0.5c0.5-0.9,1.7-1.7,4.1-3.5c-1.7-0.7-2.9-0.6-3.9-0.3c0,1.2,0,2.3-0.1,3.4L172.4,178.2z
						"/>
					<path class="st0" d="M172.9,181.4c-3.3,0.2-4.8-0.7-8.4,0.8c0.3,1.4,2.8,0.4,4.3,1.1c-0.4-1.2,0-1.1,0.9-1
						c0.8,0.1,1.9,0.3,2.9-0.9c0.5,0.4,0.7,0.9,0.8,1.3c0.4-0.5,0.9-1.1,1.6-1.7c-0.1,0-0.1,0.1-0.2,0.1l0,0c0,0,0,0-0.1,0
						c-0.4,0.2-0.7,0.3-0.4,0.1c0,0-0.1,0-0.1,0C173.7,181.4,173.3,181.4,172.9,181.4c0.7-0.9,0.9-0.3,1.3-0.1c0.2,0,0.3,0,0.5-0.1
						l0,0c-0.6-0.8-1.2-1.7-1.9-2.5C172.4,179.5,172.6,180.2,172.9,181.4z"/>
					<path class="st0" d="M155.9,192.7c-0.2-0.1-0.4-0.3-0.5-0.4C155.5,192.6,155.7,192.8,155.9,192.7z"/>
					<path class="st0" d="M158.8,193.2c0.2,0.1,0.6,0.1,0.9,0.2l-6.1-2.2c-0.1-0.2-0.1-0.4,0.1-0.5c0.9,0.3,0.9,0.9,1.6,1.5
						c-0.3-0.7-0.7-2-2.3-2.4l0.2,0.3c-0.2,0-0.5-0.1-0.8-0.2l9.1,3.2c1.4-0.8,4-1.7,4.3-1.6C163.2,192.1,161.3,192.5,158.8,193.2z"
						/>
					<path class="st0" d="M164.7,188.1c-0.5-0.5-1-1-1.5-1.6c-0.9,0.4-1.8,0.8-2.7,1.2l1.6-0.3C161.5,188.6,163.5,188.1,164.7,188.1
						z"/>
					<path class="st0" d="M174.7,173.8l3.7-0.8c-1.8,0-3.6,0-5.4,0.1C173.5,173.3,174.1,173.5,174.7,173.8z"/>
					<path class="st0" d="M173.4,170.1l3.2-1.2c-0.7-0.1-1.5-0.2-2.2-0.3L173.4,170.1z"/>
					<path class="st0" d="M88.4,161.4l-0.1,0.5C88.4,161.8,88.4,161.6,88.4,161.4z"/>
					<path class="st0" d="M91.2,159.7l-0.3-0.5C91,159.5,91.1,159.7,91.2,159.7z"/>
					<path class="st0" d="M145.2,147.1c2.8-2.6,6.9-6.5,3.1-4.2l-3.6,2.4C145.9,145.6,145.8,146.3,145.2,147.1z"/>
					<path class="st0" d="M101.8,156.2c-0.2,0.2-0.5,0.4-0.8,0.5c1-0.3,2-0.5,2.8-0.8C103.2,156,102.6,156.1,101.8,156.2z"/>
					<path class="st0" d="M90.5,160.6l1.6-1.7C91.5,159.4,91,160,90.5,160.6z"/>
					<path class="st0" d="M65.1,152.5l-2.1,0.1C63.6,153.2,64.2,152.7,65.1,152.5z"/>
					<path class="st0" d="M120.3,154.5c-1.1-0.3-2-0.3-2.5-0.4c-0.6-0.1-1.1,0-1.3,0.1c0.6,0.4,1.3,0.7,2,1c0.7,0.3,1.3,0.6,1.7,0.8
						C121.1,156.3,121.4,156,120.3,154.5z"/>
					<path class="st0" d="M80.4,149.7c0,0.4,0,0.7,0.2,0.9C80.7,150.2,80.6,149.9,80.4,149.7z"/>
					<path class="st0" d="M115.4,154.9c0.3,0.3,0.5,0.5,0.8,0.7c-0.4-0.7-0.6-1.3,0.2-1.5c-0.9-0.5-1.8-0.8-2-0.9
						c-0.1,0-0.2,0.1,0,0.4C114.7,154.1,115.1,154.5,115.4,154.9z"/>
					<path class="st0" d="M22.7,140.9c0.1-0.1,0.2-0.1,0.4-0.2C22.7,140.7,22.6,140.8,22.7,140.9z"/>
					<path class="st0" d="M24.7,129.8c0.1-0.2,0.4-0.5,0.6-0.7C25.2,129.1,25,129.3,24.7,129.8z"/>
					<path class="st0" d="M163.2,151.5C164.4,152.1,163.7,151.3,163.2,151.5L163.2,151.5z"/>
					<path class="st0" d="M156.5,167.4c-0.4,0.2-0.9,0.6-1.5,1.2C155.7,167.9,156.1,167.5,156.5,167.4z"/>
					<path class="st0" d="M131.4,178C131.3,178,131.3,178,131.4,178C131.6,178.9,131.6,178.7,131.4,178z"/>
					<path class="st0" d="M163.5,154.3c0-0.7-0.2-1.4-0.5-2C163.1,152.7,163.2,153.3,163.5,154.3z"/>
					<path class="st0" d="M164.5,152.6c0.2,0.4,0.4,0.8,0.5,1.1C165.6,153.2,165.8,152.8,164.5,152.6z"/>
					<path class="st0" d="M161.7,150.6c0.6,0.4,1,1,1.4,1.6c0-0.4,0-0.6,0.2-0.7C162.9,151.4,162.5,151.1,161.7,150.6z"/>
					<path class="st0" d="M65.8,149.6c-0.1-0.1-0.2-0.1-0.3-0.3C66,151,66,150.6,65.8,149.6z"/>
					<path class="st0" d="M127.5,174.4c0,0-0.1-0.1-0.1-0.2c0,0-0.1-0.1-0.1-0.1L127.5,174.4z"/>
					<path class="st0" d="M128.1,177.5c-2.6-4.2-1.9-3.9-0.8-3.4l-7.9-8.7L128.1,177.5z"/>
					<path class="st0" d="M70.8,160.7l-0.8,1.1l-2.6,3.5l16.8,1.7l0.1,0c0,0.1,0,0.1,0,0.2l0,0.1l-14.5-5.4
						c-2.1-0.8-1.8-1.6-3.1-0.5c1.4-0.2,2,0.1,2.4,0.6L80.3,177l4.4-9.4c0.6-1.2,2.5-1.8,0.8-4l1.1,0.2c-0.2,0.1-0.1,0.3-0.2,0.4
						c2.3,0.6-1.1-2.9,0.7-3.5c0.7-0.1,1.4,0.1,1.4,0.7l0.5-1.6c0.4-0.2,0.8,0.5,0.4,0.6c0.5-0.5,1-1,1.5-1.4l0.1,0.1
						c-0.2-0.7-0.3-1.9-0.3-2.4c0.9,0.2,0.1,0.5,0.5,0.9l0.3-1.5c1.2,0.7,1.1,2,0.3,2.3c1.9,1.4,1.9,1.1,1.9,0.5c0-0.6,0-1.5,1.9-1
						l-0.6,1c1.2,0.8,1.8,1,2.4,1.1c0.6,0,1.3,0,2.4,0.4c-0.4-0.3-1.8-0.9-2.9-1.6c-1.1-0.7-2-1.4-1.9-2.2c0.5,0.1,1.1,0,1.1-1.1
						c1.1,1.4,1.5,0.7,2.2,0.3l1.5,1.9c0.4-0.9-0.5-1.8-0.7-3c1.1-0.2,2.6,1.3,4,2.6c1-0.1,0.1-0.7-0.7-1.3c-0.9-0.7-1.7-1.4-1-2
						c1.6,0.2,2.1-0.4,2.4-1.8l-15.7-3.7c0.3,0.2,0.6,0.3,1,0.5c-0.9,1.4-1.8,0.6-2.6,1.3l2.4-0.2c0,0.2-0.8,0.5-1.1,0.6
						c1,0.3,3-1.2,4-0.5c1.7-0.6,0.6,0.5-0.5,1.8c-1.1,1.2-2.3,2.7-0.1,2.4c-0.9,0.8-2.1,0.8-3.5,1.5c1.5,0.4,2.1,0.5,2.8,0.6
						c0.7,0.1,1.5,0.1,3.8-0.1l-2.3,2.4c1.4-1.1,2.9-1.7,4.6-2.1c1.7-0.4,3.4-0.5,5.1-0.7c1.3-1,2.5-1.8,3-2.2c1,0.2,2,0.4,3,0.5
						c-0.6,0.5-2.1,1-3.9,1.5c0.4,0,0.8-0.1,1.1-0.2c-1.2,1.2-3.8,2-6.2,2.6c0.8-0.6,1.5-1.1,2.3-1.7c-2.6,0.7-5.4,1.5-7.7,2.6
						c0.5-0.1,0.9,0,1.2,0.1c-0.7,0.2-1.3,0.4-1.7,0.6c-0.4,0.2,0.5,0,1.6-0.1l-4.5,2.4l1.8-0.7c-0.8,1.2-1.7,2.4-2.7,3.6
						c5-0.4,12.9-2.4,16.1-1.1c-4.1,1.1-6.4,2.7-11,4.7c2.4-1.4,1.7-1.7,0.6-1.8c-1.1-0.1-2.7-0.2-2.3-1c-0.4,0.9-2.5,1.7-3.2,1.8
						c1.5,0.2,3.1,0.4,4.7,0.5c-3.7,1.6-2.7,1.7-4.2,3c7.4-3.8,5.4-0.5,8-0.6c-2.6,1.2-5.3,2.2-4.9,0.7c-2.8,2-0.3,1.3,2.3,0.6
						l20.3,4.8c-1.3-2.2-2.6-4.4-0.3-2.6c-0.2,0.2-0.6,0,0.2,1.1c-1.1-2.3,1.6-1.7,2.9,0.5l-0.2,0.2c2.3-0.2,4.9-3,0.1-9.2
						c0.7,0.8,5.8,7.4,6.7,8.6L110.7,153c2.1,2.7,6,7.1,9.5,11.2c3.5,4.1,6.7,8.1,7.2,10c1,0.5,2.2,1.1,1.5-1.3
						c-0.9-0.6-7-7.3-7.1-8c5.9,5.3,3.3,2.7,8.7,7c-1.4-0.9-8-9.6-7.2-9.8c1,1.3,7,8.4,7.6,9.4l-5.5-9.4c0.9,1.8,5.9,7.2,8.2,9.4
						c-0.6-0.6-0.5-0.8-0.2-1l-29.1-4.3c0,0.3-0.4,1,0.2,0.8c0.7-0.6,1.4-1.2,2.1-1.8c-0.5,1,2.9-0.7,6.7-2.4
						c3.7-1.7,7.7-3.3,7.9-2.2c-2.2,0.8-13.1,6.2-14.2,7.4c2.7-1.2,9.1-3.9,15.8-6.1c6.6-2.2,13.4-3.9,16-3.6l-3,1.6
						c1.5,0.1,2.9,0.2,4.4,0.3c-4.5,0.9-11.5,2.3-18.1,4.1c-6.6,1.7-12.8,3.7-16.1,4.9c-2.3,1.5-3.6,1.8-3.3,2.2
						c-2.9,1.4-4.5,1.6-4.6,1.6c-0.6,0.6-1.3,1.2-2,1.7c6.5-2.6,6.6-1.6,12.3-3.4c-2.4,0.2-4.8,0.5-7.1,1c3.2-1.3,7.8-3,11.7-3.9
						c3.8-0.9,6.8-1.1,6.5-0.1c-1.3,0.6-4.3,1.5-7.3,2.3c-3,0.8-5.9,1.6-7,2c2.3-0.7,4.6-0.3,3,0.2c-1.2,0.2-2.5,0.4-3.7,0.6
						c-1.3,0.6,1,0.2,2.9,0c1.8-0.2,3.2-0.2-0.1,0.9c-0.2,0.2-2.5,0.8-4.1,1.3c-1.7,0.5-2.8,0.8-0.7,0.4c8.1-1.8,32.8-7.3,39-7.8
						c-0.2,0.2-2,1.3-4.3,2.4c-2.3,1-5,1.9-6.9,2.6c-3.1,1-6.9,1.7-10.6,2c-3.7,0.3-7.4,0.5-10,1.5c1.9-0.3,4.5-0.1,5.3,0
						c-0.7,0.6-2.2,0.9-3.4,1.2c-0.6,0.2-1.1,0.3-1.3,0.6c-0.1,0.1-0.2,0.3-0.2,0.5c0,0.2,0.1,0.5,0.3,0.8c1.8-0.4,2.8-0.2,3.3,0.1
						c0.6,0.4,0.7,1,0.8,1.6c0.1,0.5,0.2,0.9,0.4,0.6c0.1-0.2,0.3-0.4,0.5-0.9c0.1-0.2,0.3-0.5,0.5-0.9c0.2-0.3,0.5-0.7,0.8-1.1
						c1.4,0.9,1.5,1.8,1.5,3c0,0.3,0,0.6,0.1,1c0.1,0.4,0.2,0.8,0.3,1.2c0.3,0.8,1,1.8,2.2,2.8c0.8-2.5,4.7-4.3,7.4-7.1
						c1.3-1.4,2.3-2.9,2.8-4.3c0.1-0.2,0.1-0.3,0.1-0.5l0.1-0.2c0,0,0,0,0,0c0,0,0,0,0,0c0-0.1,0,0,0-0.1c0,0,0,0,0,0l0,0
						c0,0,0-0.1,0,0.1c0,0.2,0,0.5,0.1,0.7c0.1,1,0.3,1.8,0.4,2.4c1.3,0.1,2.6,0.4,3.9,0.5c1.3,0.1,2.5,0.1,3.3-0.6
						c1.4,1.1,3.4,2,5.4,4.4c-0.7-1.1-2.3-3-2.1-3.4c1.2,1,1.8,1.6,2.1,2c0.3,0.4,0.4,0.5,0.4,0.8c0.1,0.5,0.3,1.1,3.1,3.5
						c-1.5-1.5-2.2-2.8-3-3.8c-0.2-0.3-0.3-0.5-0.5-0.8c-0.2-0.2-0.3-0.5-0.5-0.7l-0.2-0.4l-0.1-0.1l-0.8-1l0,0c0,0-0.1-0.1-0.1-0.1
						c-0.2-0.3-0.4-0.5-0.5-0.7c-0.2-0.2-0.3-0.4-0.5-0.6c-0.3-0.4-0.5-0.6-0.6-0.7c-0.3-0.2-0.4,0-0.2,0.4c0.3,0.9,1.3,2.6,1.9,3.8
						c-3.1-3.2-6.1-6.6-8.3-9.9c-1.1-1.7-2-3.3-2.5-4.9c-0.3-0.8-0.3-1.7-0.2-2.5c0.1-0.8,0.3-1.7,0.6-2.4c0.7-1,1.4-1.2,1.9-1
						c0.5,0.2,0.9,0.8,1.2,1.5c0.6,1.4,0.9,3,1,2.3c0.8-0.1,1.4-0.4,1.9-0.8c0.5-0.4,0.9-1,1.2-1.7c0.7-1.4,1.3-3.1,2-4.7
						c0.7-1.6,1.5-3,2.6-3.5c1.1-0.6,2.4-0.2,3.8,1.7c0.7,3-0.1,5.5-0.8,7.9c-0.8,2.3-1.5,4.5-1.8,6.4c-1,0.8-1.3-0.1-1.8-1.2
						c-0.3-0.6-0.5-1.2-0.9-1.7c-0.3-0.4-0.7-0.7-1.1-0.7c0.7,0.8,1.2,1.7,1.7,2.6c-0.3,0.9-0.7,1.7-1,2.1c-0.3,0.4-0.6,0.4-1-0.4
						c0.9,2.3,1.8,2.5,3,2.9c1.1,0.3,2.5,1.1,2.1,3.4c1.1-1.4,2.7-2.4,3.6-4.3c-0.4,0-0.7,0.1-1,0.2c0.8-2,1.8-3,2.8-3.7
						c1-0.7,1.9-1.1,1.8-2.4c1.4-0.7,3.3-1.7,4.8-1.8c1.6-0.2,2.8,0.5,2.8,2.3c-1.3,1.4-2.6,2.8-4,4.1c0.6-0.6,1-1.4,1.1-2
						c0-0.6-0.4-1.1-1.2-0.7c1.2-0.5,0.5,1.5-0.1,3c-0.5,1.5-0.7,2.4,2.6,0.8c0.8-1.2,1.5-2.5,2.2-3.8c0.8-0.1,1.8-0.1,2.9-0.2
						c0.5,0,1.1,0,1.6,0c0.5,0,1,0,1.5,0.1c1.8,0.2,3.2,0.9,2.8,2.4c2.2-1.7,2-1.8,1.9-2c-0.1-0.2-0.1-0.5,2.2-2.9
						c-1.5,1.4-2.5,1.6-3.1,1.4c-0.3-0.1-0.5-0.4-0.7-0.7c-0.1-0.2-0.2-0.3-0.3-0.5l-0.1-0.3l-0.2-0.3c-0.4-0.8-0.9-1.6-1.6-1.7
						c-0.7-0.1-1.5,0.6-2.8,2.5c2.4-3.2,2.4-4.6,2.3-5.9c-0.2-1.4-0.5-2.6,0.5-6.3c-1.2,1.5-1.6,3.5-3,0.8c-0.4,0.3-1.1,0.7-1.5,0.9
						c0-0.1,0-0.1,0-0.2c0,0.1,0,0.2,0,0.3c-0.3,0.1-0.3,0.2,0,0.1c0,1.1-0.3,2.3-0.9,3.2c-0.9,0.6-1.8,0.9-2.6,1.1
						c-0.8,0.1-1.5,0.1-2.2,0.1c-1.4-0.1-2.7-0.3-3.7,0.4c-0.3-0.8,0-1.2,0.6-1.7c0.5-0.5,1.2-1.1,1.4-2.2c-1.1,0.7-2.2,1.4-3.2,2.2
						c0.9-2,0.7-4.2,0.7-5.9c0-1.7,0.4-3.1,2.9-3.3c-1.2-0.7-2.4-1.3-3.7-1.9c-0.4-0.8-1-1.6-1.6-2.2c-0.6-0.6-1.3-1.2-2.2-1.5
						c-0.8-0.4-1.6-0.6-2.4-0.6c-0.8,0-1.6,0.2-2.3,0.6c-1.2-0.6-2.8,0.5-3.8,1.5c-0.9,1-1.3,1.6-0.3-0.2c-1.4,0.5-2.7,1.1-4.1,1.7
						c-1.3,0.7-2.6,1.4-3.8,2.3l-0.4-1.1c-2.1,0.5-4.1,1.7-5.7,3.2c-0.8,0.8-1.5,1.6-2.3,2.4l-1,1.3c-0.2,0.4-0.4,0.6-0.6,1
						c-0.2,0.3-0.4,0.6-0.6,0.8c-0.2,0.2-0.3,0.4-0.5,0.6c-0.1,0.1-0.2,0.2-0.3,0.3c-0.1,0.1-0.2,0.1-0.3,0.2
						c-0.2,0.1-0.4,0.2-0.6,0.3c-0.4,0.1-0.9,0-1.6-0.2c-0.6-0.3-1.3-0.7-2.2-1.4c0.2,0.2,0.3,0.5,0.5,0.7c0,0.1,0.1,0.1,0.1,0.2
						c-0.1-0.1,0.3,0.3,0.5,0.5l0.7,0.7c0.9,1,1.8,2,2.8,3c0.5,0.5,0.9,1.1,1.4,1.6c0.2,0.3,0.5,0.6,0.7,0.8l0.4,0.5
						c0.6,0.6,1.2,1.3,1.7,2c0.3,0.4,0.6,0.7,0.9,1.1c0.1,0.2,0.3,0.4,0.5,0.6l0.3,0.4c0.4,0.5,0.8,1.1,1.3,1.7l0.3,0.5l0.2,0.2
						l0.1,0.2c0.2,0.3,0.5,0.7,0.7,1.1c0.1,0.2,0.2,0.4,0.4,0.6c0.1,0.2,0.2,0.3,0.3,0.5c0.2,0.3,0.3,0.7,0.5,1
						c0.1,0.2,0.2,0.5,0.2,0.7c0.1,0.2,0.1,0.3,0.1,0.4c0,0.1,0,0.2,0,0.2l0,0c0,0,0,0.1,0,0.1c0,0,0-0.1,0-0.1c0-0.1,0-0.1,0.1-0.2
						c0-0.1,0.1-0.2,0.1-0.3c0-0.1,0.1-0.1,0.1-0.2l0.1-0.1l0,0l0,0c-0.1,0.2,0.3-0.5-0.3,0.5l0,0l0,0l0,0l0,0c0,0,0.3-0.4,1.3-1
						c1-0.6,2.6-1.2,5.6-2c0.4-0.1,0.8-0.2,1.3-0.3c0.5-0.1,0.9-0.2,1.4-0.3c0.6-0.1,1.2-0.3,1.8-0.4c0.6-0.1,1.3-0.3,1.9-0.4
						c0.9-0.2,1.8-0.4,2.6-0.5c1-0.2,1.9-0.4,2.8-0.5c3.2-0.6,6.3-1.2,9.1-1.7l0.5-0.1l0.1,0l0.1,0c0,0,0,0,0,0l-0.1,0l-0.7,0.1
						l-2.7,0.5c0,0,0-0.1,0-0.1c0-0.1-0.1-0.2-0.2-0.3c-0.2-0.4-0.5-0.8-0.9-1.1c-0.8-0.7-1.9-1.4-3.2-2.1l-4.6,1.2
						c-2.1-0.3-1.5-1.4-0.7-2.9c0.9-1.4,2.1-3.1,1.3-4.3c1.8-0.4,1.6,0.4,0.7,1.1c4.6-3.1,1.9-4.2-0.9-4.8c-2.8-0.7-5.9-0.9-3.2-3.7
						c-1.9,0.1-1.6-0.6-0.8-1.5c0,0.1,0.2,0.1,0.3,0c0-0.1,0-0.2-0.1-0.3c0.5-0.6,1.2-1.3,1.6-2c-0.8,0.8-1.5,1.4-1.7,1.8
						c-0.4-0.4-1.3-0.9-2.8-1l4-2.6c-0.1,0-0.1-0.1-0.2-0.1c1.1-1.6-2.4,0.6-5.3,2.7c-0.9,0.1-1.9,0.3-3.1,0.6
						c3.1-2.2,2.3-2.3,1.5-2.4c-0.8-0.1-1.6-0.2,1.2-2.6l-31.7-4.7c-0.1-0.1-0.2-0.2-0.3-0.3c2.3,3.3,0.1,4.3,5.1,10.8
						c-0.7-0.8-1.1-1.1-1-1.3c-1-0.3-2-0.6-0.9,1.5l-3.9-4.3l4.1,6.9c-2.8-2.2-4.3-3.4-6.6-7.4c1.5,3.3,1.7,4.1,1.8,4.8
						c0.2,0.7,0.3,1.4,1.9,4.5l-2.3-2.8c-0.3,0.5,2.1,4.9,0,2.8c-3.7-3.1-4.7,0.2-7.1,1.6l22.5,5.3c-0.3-1.1-0.3-2.3,0.7-3.8
						c-4.2,2.2-3.4,1.4-2.5,0.5c0.9-0.9,2-2-1.3-0.6c1.9-1,2.7-1.9,4.8-2.2c-1.6-0.2-1.2-1.1-1.3-1.7c-0.1-0.6-0.5-0.9-3.5-0.2
						c1.7-1,3-0.9,4-1.5c-0.5,0.1-2,0.3-1-0.3c1-0.6,1.7-0.5,2.8-0.7c-1.7-1.1-7.4,1.2-12.6,3.3c1.9-1.8,1.2-2-2.3-1.1
						c1.5-1,2.8-2.1,4-1.5c-0.1-0.3-0.1-1.3-0.6-2c-0.5-0.7-1.5-1.1-3.3-0.4c0.8-0.6-0.3-0.8-0.8-0.8c-0.6-1.2-0.4-1.4-1.5-2.4
						l-0.3,0.5c-4.2,1.3-1.5-0.6-2.5-1.2l0.4-0.1c0.5-1.4,0.2-1.6-0.1-1.7c-0.4-0.1-0.8-0.1-0.5-0.9l0.6-2.5l-9.8,0.3
						c-0.2,0-0.6,0-1,0l1.5,1.6c1.5,1.9,0.6,1.7-0.5,1.4c-1.1-0.3-2.5-0.7-2.5,0.5l1.1,0.5c0.2,0.8-1.1,0.1-2.5-0.8
						c-1.4-0.9-2.9-1.8-3.3-1.7c-0.3-0.1-0.2-0.7-0.2-1.1c-2.7-0.1,1.4,2.1,0.8,3.7c-1-0.7-1.8-2.8-2.6-2.1
						c-0.5-0.2-0.2,1.2-0.3,2.5c0,1.3-0.3,2.4-1.4,2.1c0.7,0.4,1.5,0.9,1.4,1.9c-0.6,1-4-0.3-3.1,2.3c-0.2-0.1-0.4-0.2-0.5-0.4
						c-0.2,1.1-1.3,2.6-0.8,4c-3-2.7-2.7,2.3-4,2.4l6.9,2.5c0.1-0.3,0.6-0.5,1.4-0.7l-0.5-2.6l0.5,0c0.2-1.8-1-2.1-2.3-2.4
						c0.3-0.5,0.8-0.3,1.1-0.3c0.8-2.7,0.8-3-2.3-4.3l1.9-0.7c-0.6-0.1,0.1-1.2,0.7-2.6c0.6-1.4,1.2-3-0.1-3.9c0.3-0.1,0.7-0.1,1,0
						c-1.3-1,0.3-3.3,1.3-5.3c1.1-2,1.5-3.5-3.8-2c-0.9-0.3-1.9-0.6-2.9-0.8c-0.2,1.4-1.4,1.7-2.7,2c-1.3,0.3-2.9,0.4-3.6,1.2
						c-0.5-0.3,0.1-1.1,1-1.9c0.9-0.7,2-1.3,2.4-0.9l-0.5,0.4c2.9-1,3.3-1.9,3.4-2.8c0.1-0.9,0-1.8,2.1-2.6c-0.1-0.3-0.1-0.6-0.2-1
						l-1-9.2l-16,4.1c-2.1,0.5-4.5,0.4-7,0.2c-2.4-0.2-4.9-0.4-6.7,0.2l3.9,5.2l-1.5,0.3c-1.1-1.1-3.2-4.1-2.1-4.3
						c-2.5-2.9,0.1,3.3,0.9,4.6c-3.2-1.3-3.4-6.8-4-6.6l-0.5,0.8l0.6,0.6c0.8,2.6,2.3,5,1.1,5.3c-1.4-0.7-2.5-3.2-2.9-3.3
						c-0.2-0.4-0.5-0.5-0.5,0.1c-0.6,0.2-1.2,0.3-1.8,0.5l3.4,4c0.7,2.6-1.5,0.7,2.3,5.2c-5.9-7-7.2,1.1-9.3-0.8
						c1.1,3.8,0.2,4.4-1.1,4.8c0.8,0.7,4,5.3,2.7,5.3c-5.3-9-4.6-4.1-8.2-7.6l24.5,10.6c0.5-0.2,1.1-0.4,1.8-0.7
						c-4.9,1.8-2.4-2.9-9.3-0.3c0.6-1.1,4-0.8,6.3-2c-2.5-0.7-2.2-2.1-1.8-3.5c0.5-1.5,1-3-0.2-4.2c-1.2,0.2-3,1-5,0.8l5.4-2.6
						c-0.9-0.4-7.1,0.8-3.5-0.9c-0.9,0.3-2.3,0.8-2.8,0.5c1.2-2.3,0.1-4.1-1.2-6l-8-11.2l-4.2,3.9c-1.5,1.4-2.9,3-4.6,3.9
						c-0.8,0.5-1.7,0.9-2.6,1.1c-0.9,0.3-1.8,0.3-2.8,0.4c0.9,0.3,0.6,0.9,0.1,1.4c0.4-0.1,0.4,1.3,0.7,1.9
						c-0.9-0.1-1.7-0.1-2.5,0.1c0.1,0.9-0.4,1.4-0.9,1.9c-0.5,0.5-0.9,1-0.9,1.5c0.2-0.2,0.4-0.5,0.6-0.7c-0.2,1,0.2,1.3,0.9,1.9
						c0.7,0.6,1.5,1.5,1.8,2.4c0.3-0.8,1.3-0.3,2.4,0.5c0.6,0.4,1.2,0.8,1.7,0.9c0.5,0.1,0.9-0.1,1.1-1.1c0.6,0.7,0,1,0.4,1.7
						c0.1-1.3,0.6-1.6,1.9-0.9l0,0.4c1.5-0.1,2.7,0.2,4.1,0.9c1.4,0.6,2.8,1.5,4.9,2.4l-1.1-2.5c0.3,0.1,0.6,0.3,0.8,0.6l-13.3-7.9
						c-0.4,0.3-0.9,0.6-1.3,0.8c1.9,0,2.1-0.5,2.3-1l12.1,7.2c-0.6-0.1-1.2-0.2-1.5-2.3c0.4,0.8,0.8,1.4,1.3,1.7l-11.3-6.7
						c-1.1,1-1.1,2.1-1.4,3.1c-0.3,1.1-1,2.1-4,2.9c-0.2,1.1,3.6-1,3.4,0.1l-2,0.7l2.5-0.2c-0.5,0.8-3,1.7-4.7,2
						c0.2-0.2-0.4-0.4-0.5-0.6c-2.5,1.4,0.4,2.6-0.4,3.1l1.4-1.3c0.8,1.4,0.5,3.1,0.5,4.8c0,1.7,0.3,3.3,2.8,4.3l1.8-0.6
						c2.3,1.1,0.7,1.7-0.1,2.6l-0.6,0.7l21,8.1c0.6,0.2,1.1,0.2,1.6-0.6l0.2,0.4c-0.6-1.8-0.5-2.9,0.2-3c0.7,2.2,3.4,3.2,4,5.6
						c0.1-2.1-0.1-2.9-0.6-4c-0.5-1.1-1.2-2.5-2.5-5.9l2.1,2.6c-1.1-2.7-1.9-4.1-1.3-5.4c0.7,2.9,3.4,3.8,4.4,7.5
						c6.1,4.9-0.7-8,6.1,0.4c-4-8.4-4.6-3.2-5.1-5.2c-2.1-2.2-2.9-6.3-1.7-5.9c0.8-0.3,7.6,9.3,9.2,8c-0.2,0.1,0.2,0.7,0,0.8
						c1.9,1.6-0.5-3.5,2.3-0.9c-2.6-5,1.1-0.5-2.5-6.5l-0.6,2.5c-0.2-2.2-3.8-9.7-0.2-7.3c0.6,1.3,1.2,3.1,1.5,4.2
						c1.5,1.4,0-1.7,1.6-0.3c1.8,3,1.6,3.7,1.1,4.2c-0.4,0.6-1.1,1.1-0.1,3.7c2,2.2-1.1-5.6,2.6,1.1c-2.3-4.3-1.7-4.4-1-4.3
						c0.8,0.1,1.7,0.4,0.3-3.1l2.1,3.5c-0.2-0.7-0.9-2.6-0.5-2.8l2.3,5c-0.8-2.3,0.1-1.9,1.1-1.3c1,0.6,2.1,1.4,1.8-0.1
						c-0.7,1-1.4,0.1-2.3-1.3c-0.8-1.4-1.7-3.1-2.9-4c-0.8-6.4,6.7,7.5,7.5,3.1c0,0.9-2.2-0.5-2.7-2.5c0.8,0.2,2,0.7,3.3,1.9
						c0.4-1.3-0.1-2-0.9-2.7c-0.7-0.7-1.7-1.5-2-2.8c2.3,2.5,0.6-0.8-0.1-3l-18.9-5.6c0.5-0.1,0.9-0.1,1.2-0.1l-3.2,1.4
						c-0.3,2.3,6.9-2.4,5.8,0.1c-1.6,0.4-3.1,0.7-4.8,1.1l1.9,0.3l-3.5,1.3c3.4-0.3,3,0.2,3,1.3c1.7-0.9,5.1-1.9,5.8-1.1
						c-1.1,1.1-2.8,0.7-1.4,1.6c-1.8,0.3-4.2,0.9-2.2-0.5c-0.9,0.3-1.9,0.4-2.9,0.7c-1.2,1.2,1.1,1.3,1.6,1.7
						c-0.1-0.2-0.1-0.4,0.1-0.6c1.7,0,3.4,0.1,4.9,0.3c-0.7,0.6-1.6,0.6-2.5,0.7c0.6,0.2,1.9,0,2.5,0.5c-2,0.5-3.9,1.2-5.5,0.9
						c1.3,0.2,2.5,0.4,3.6,0.7c-0.7,0.4-1.3,1.4-2.2,1.4c-0.1,0.5,1.3,0.7,2.6,1c1.3,0.3,2.4,0.7,2.3,1.4c0.3,0,0.7,0,1.1,0.2
						c0.2,0.6,0.1,1.3,0.2,1.9c0.2,0.6,0.6,1.2,1.9,1.7l-1.9,1.3c0.6,0.5,1.1,0.1,1.8-0.3c0.7-0.3,1.5-0.6,2.3,0.2
						c1.2,1.2-1.7,0.9-2.1,1.5c1.3,0.4,3.7,1.1,2.8,2.5l-2.5,4.2l14,0c0.1,0,0.2,0,0.4,0c0,0.1,0,0.2-0.1,0.3l-3.5,7.3l-8.7-11.8
						C70.9,161.3,71,161,70.8,160.7z M95,156.6c0,0.4,0.1,1.6-0.7,0.9C93.4,155.9,94.2,156.4,95,156.6z M96.6,161
						c-1.1,0.2-0.7-0.3,0.4-1.3C97.3,159.9,97.3,160.3,96.6,161z M148.9,148.3c-0.1,0.1-0.1,0.1-0.2,0.2c-1-1.2-1.3-1.6-1.2-1.5
						C147.7,147.1,148.2,147.6,148.9,148.3z M152.6,151.7c0.6-0.5,0.8-1.1,0.9-1.8c-0.7,1-1.5,0.7-2.6,0
						C150.8,151.3,151.1,152.3,152.6,151.7z M46.3,127.6l0.9,0.8C47.3,129.8,46.8,128.8,46.3,127.6z"/>
					<path class="st0" d="M91.8,160.1c0.5-0.3,1-0.6,1.6-0.9C92.9,159.4,92.3,159.6,91.8,160.1z"/>
					<path class="st0" d="M65.5,152.5C65.5,152.5,65.5,152.5,65.5,152.5c-0.1,0-0.3,0-0.4,0L65.5,152.5z"/>
					<path class="st0" d="M107,178.2c0.3-0.4,0.7-0.8,1.1-1c0.4-0.3,0.9-0.5,1.3-0.7C108.1,176.7,107.1,177.1,107,178.2z"/>
					<path class="st0" d="M173.2,160.2c-0.8-0.6-1.6-1.2-2.4-1.7c0.9,1,0.4,2,0.2,3C171.7,160.8,172.7,159.5,173.2,160.2z"/>
					<path class="st0" d="M154.4,183.3c0.5,0,0.1,0.3,0.6,0.3l1.8-0.5C156.5,182.5,155,182.5,154.4,183.3z"/>
					<path class="st0" d="M162.2,170.2c-3,2.1-1.6,2.1-0.6,2.7c0,0-0.1-0.1-0.1-0.2c2.3-1.1,2.9-1.7,2.8-2
						C164.1,170.3,163.1,170.2,162.2,170.2z"/>
					<path class="st0" d="M161.8,173.1c0.3,0.2,0.5,0.5,0.4,0.8C164,173.1,162.4,173.3,161.8,173.1z"/>
					<path class="st0" d="M158.3,151.8c0.2,1.4,2.9-4,2.6-2.4c1.7-1.8-0.4-1.5-2.2-0.4C156.9,150.1,155.6,151.7,158.3,151.8z"/>
					<path class="st0" d="M152.3,177c1.2-0.8,2.5-1.7,3.7-2.5c-1.1,0.5-2.2,1-3.3,1.6L152.3,177z"/>
					<path class="st0" d="M151.1,170.5c0.1,0.6,0.1,1.2,0.1,1.8c0.5-0.6,0.9-0.8,1.3-0.9C152.1,170.7,151.9,169.3,151.1,170.5z"/>
					<path class="st0" d="M152.5,171.4c0.2,0.4,0.6,0.6,1.3,0.2C153.6,171.5,153.1,171.2,152.5,171.4z"/>
					<path class="st0" d="M150.4,176.7c0.2-0.3,0.4-0.5,0.6-0.8c0-0.3-0.1-0.5-0.2-0.8C150.7,175.7,150.6,176.2,150.4,176.7z"/>
					<path class="st0" d="M136.2,167.5c-0.3,0.7-0.5,1.5-0.6,2.2c1,1.5,1.9,2.1,1.9,1.3C137.1,169.8,137.3,168.9,136.2,167.5z"/>
					<path class="st0" d="M142.3,178.9c0,0,0-0.1,0-0.1c0-0.2,0-0.4,0-0.5c-0.1-0.6-0.1-1.3-0.3-2.1l0.3,2.5l0,0
						C142.3,178.7,142.3,178.8,142.3,178.9z"/>
					<path class="st0" d="M142.2,178C142.2,178,142.2,178,142.2,178c0,0.1,0.1,0.1,0.1,0.1C142.3,178.3,142.3,178.2,142.2,178
						C142.2,178.1,142.1,177.9,142.2,178z"/>
					<polygon class="st0" points="124.5,172.4 124.7,172.7 135.4,170.8 					"/>
					<path class="st0" d="M98.7,171.1c-2.1,1.7,5.6-2.9,2.9-0.9c2.2-1,2.1-1.6,4-2.5C103.3,168.6,104.6,167.7,98.7,171.1z"/>
					<path class="st0" d="M105.7,167.8c0.4-0.1,0.8-0.3,1.5-0.5C106.5,167.4,106.1,167.6,105.7,167.8z"/>
					<path class="st0" d="M22,131.6c-0.2,0.2-0.5,0.4-0.7,0.6c0.2,0,0.4-0.1,0.6-0.1L22,131.6z"/>
					<path class="st0" d="M21.2,134.3l-0.4-0.6c0,0.4-0.1,0.8-0.2,1.1C20.7,134.7,21,134.3,21.2,134.3z"/>
					<path class="st0" d="M100.4,159.3l-0.3-0.5c-0.5-0.4-0.8-0.4-1.2-0.3L100.4,159.3z"/>
					<polygon class="st0" points="88.8,163.5 89,163.5 87.6,162.3 					"/>
					<path class="st0" d="M65.8,158.9c0.1,0.3,0.7,0.6,0.8,1C65.9,159.2,68.1,158.3,65.8,158.9z"/>
				</g>
			</g>
		</g>
	</g>
	<path class="st1" d="M198.9,165.8c0.1-0.6,0.1-1.2,0.1-1.8c-0.4-17.9-12.7-19.8-27-22c-3.4-0.5-7.3-1.1-11.4-2
		c-28.2-5.8-52.7-19.7-72.7-41.3c-0.8-0.9-2-1.4-3.2-1.4H69.9c-1.8,0-3.3,1-4,2.6c-4,9.3-12.9,15.4-22.7,15.4s-18.7-6-22.7-15.4
		c-0.7-1.6-2.3-2.6-4-2.6h-10c-2.4,0-4.3,1.9-4.4,4.3C2,108,1.3,114.7,0.6,121.2c-1.7,17-3.3,33.1,4.5,43.9
		c-2.8,3.1-4.5,7.4-4.5,12.1v4.6c0,9.2,6.4,16.6,14.3,16.6h117.7c30.7,0,53.5-6.4,62.4-17.6C198.5,176.3,199.9,171.2,198.9,165.8
		L198.9,165.8z M9.4,122.1c0.5-5.2,1.1-10.6,1.3-16h3c5.9,11,17.2,18,29.5,18s23.6-7,29.5-18h10.1c1.5,1.5,2.9,3,4.5,4.5l-3.3,4.2
		c-1.5,1.9-1.2,4.7,0.7,6.2c1.9,1.5,4.7,1.2,6.2-0.7l2.9-3.6c1.7,1.5,3.4,2.9,5.1,4.3l-3,3.8c-1.5,1.9-1.2,4.7,0.7,6.2
		c1.9,1.5,4.7,1.2,6.2-0.7l3.2-4c1.8,1.3,3.7,2.5,5.6,3.7l-2.7,3.4c-1.5,1.9-1.2,4.7,0.7,6.2c1.9,1.5,4.7,1.2,6.2-0.7l3.4-4.4
		c2,1.1,4,2.1,6,3.1l-2.3,2.9c-1.5,1.9-1.2,4.7,0.7,6.2c1.9,1.5,4.7,1.2,6.2-0.7l3.7-4.7c4,1.6,8.2,3.1,12.3,4.4
		c-6,8.4-17.2,11.9-27.2,8c-0.2-0.1-0.4-0.2-0.6-0.3c-14.7-6.9-28.8-15.5-43-26.4c-0.2-0.1-1.5-0.8-1.9-0.9c-0.8-0.2-2.6-0.1-3.6,1
		c-0.3,0.4-1.2,1.5-1.2,1.7c-3.9,8.8-14.6,15-26,15c-5.3,0-18.1-1.5-24-15.1c-0.7-1.6-2.3-2.6-4-2.6H9
		C9.1,124.5,9.2,123.3,9.4,122.1z M132.6,189.6H14.9c-3,0-5.6-3.6-5.6-7.8v-4.6c0-2.3,0.8-4.5,2.1-6c5.6,3.7,13.2,5.5,23,5.5h152.4
		C178.8,184.8,158.8,189.6,132.6,189.6L132.6,189.6z M190.1,165.2c-0.2,0.7-0.5,1.3-1,1.8c-0.6,0.6-1.4,1-2.2,1H34.5
		c-9.2,0-15.7-1.8-19.9-5.4c-0.1-0.1-1-1-1.3-1.3c-5.2-5.8-5.7-15.6-5-26.8h3.1c6,11.2,17.3,17.8,30.8,17.8
		c13.1,0,25.1-6.1,31.5-15.6c13.2,9.7,26.3,17.6,39.9,24c0.3,0.2,0.5,0.3,0.8,0.5c15,6.6,32.3,0.6,40.3-13.3
		c1.4,0.3,2.8,0.6,4.2,0.9c4.3,0.9,8.3,1.5,11.8,2c15,2.3,19.3,3.4,19.5,13.5C190.2,164.5,190.1,165.1,190.1,165.2L190.1,165.2z"/>
</g>
</svg>
