<?xml version="1.0" encoding="utf-8"?>
<!-- Generator: Adobe Illustrator 24.0.2, SVG Export Plug-In . SVG Version: 6.00 Build 0)  -->
<svg version="1.1" id="Layer_1" xmlns="http://www.w3.org/2000/svg" xmlns:xlink="http://www.w3.org/1999/xlink" x="0px" y="0px"
	 viewBox="0 0 198.4 198.4" style="enable-background:new 0 0 198.4 198.4;" xml:space="preserve">
<style type="text/css">
	.st0{fill:#EBA8DF;}
	.st1{fill:#646565;}
	.st2{fill:#FFFFFF;}
</style>
<g>
	<g>
		<g>
			<g>
				<g>
					<path class="st0" d="M88.3,89.2c0.2-0.4-0.2,0-0.3-0.1C87.8,89.7,88.5,89.1,88.3,89.2z"/>
					<path class="st0" d="M88.3,93.2l-0.4,0.1c0.3,0.1,0.7,0.1,1,0.2C88.7,93.4,88.5,93.3,88.3,93.2z"/>
					<path class="st0" d="M87.3,97c1.5-0.6,1.4-0.9,1.2-1.2c-0.3-0.3-0.7-0.5-0.2-1l0.6-0.3l-1.8,0.3C87,95.6,88.3,96.2,87.3,97z"/>
					<path class="st0" d="M79.1,100.6c1.5-0.4,0.8,0.1,0.8-0.5c-0.2,0.1-0.3,0.1-0.4,0.2C79.5,100.3,79.4,100.4,79.1,100.6z"/>
					<path class="st0" d="M79.5,100.2C79.8,99.9,78.2,100.7,79.5,100.2L79.5,100.2z"/>
					<path class="st0" d="M78.9,101.6l-0.9-0.2c-0.9,0.3-1.5,0.7-2,0.7C76.2,102.4,77.3,102.2,78.9,101.6z"/>
					<path class="st0" d="M81.5,101.5l-0.4-0.1C80.6,101.5,80.5,101.6,81.5,101.5z"/>
					<path class="st0" d="M80.2,101.1l0.8,0.2c0.7-0.2,1.9-0.4-0.3-0.1C81.9,101.1,80.8,101.2,80.2,101.1z"/>
					<path class="st0" d="M81,100.8c1-0.4,1.7-0.9,2.7-0.7C83.6,99.3,81.2,100,81,100.8z"/>
					<path class="st0" d="M90.4,96.3l0.9-0.6l-1-0.1C90.8,95.7,89.4,96.6,90.4,96.3z"/>
					<path class="st0" d="M74.2,104.5c1-0.1,2.7-0.5,4-0.7l-0.8-0.2C76.6,104,75.7,104.3,74.2,104.5z"/>
					<path class="st0" d="M78.2,103.9l1.3,0.2C80,103.7,79.3,103.7,78.2,103.9z"/>
					<path class="st0" d="M85.8,100.8c-0.9-0.1-1.8-0.2-2.6-0.3l2.6,0.4L85.8,100.8z"/>
					<polygon class="st0" points="72.4,106.2 70.2,106.2 73.4,106.2 					"/>
					<path class="st0" d="M71.7,107.2c-1.9,0-3.9,0.5-5,0.4c0,0.2,1.6,0.4,3.1,0.5C69.1,107.8,69.7,107.6,71.7,107.2z"/>
					<path class="st0" d="M72,108.2c-0.4-0.1-1.3-0.2-2.2-0.2C70.2,108.1,70.8,108.2,72,108.2z"/>
					<path class="st0" d="M78.5,105c-0.6,0.1-2.3,0.3-3.2,0.6l3.1-0.5C78.4,105.1,78.4,105,78.5,105z"/>
					<path class="st0" d="M78.4,105.1L78.4,105.1c-0.3,0.2-0.5,0.4-0.5,0.4C77.9,105.5,78.1,105.4,78.4,105.1z"/>
					<path class="st0" d="M78.5,104.9C78.5,104.9,78.5,104.9,78.5,104.9C78.8,104.9,78.9,104.9,78.5,104.9z"/>
					<path class="st0" d="M83,102.5c1.3,0.1,2.7,0.5,5.1-0.5C86.4,102.1,85,102.6,83,102.5z"/>
					<path class="st0" d="M82.2,104.3l0.9-0.6c-0.7,0.1-1.9,0.3-2.6,0.3L82.2,104.3z"/>
					<polygon class="st0" points="83,104.5 82.2,104.3 81.9,104.5 					"/>
					<path class="st0" d="M75.7,107.3c1.3,0.1,1.2,0.3,1.3,0.6c0.8-0.3,1.3-0.6,1.5-0.9C77.5,107,75.8,107,75.7,107.3z"/>
					<path class="st0" d="M77.3,106.2c0.1,0,0.1,0,0.1,0C77.7,106.2,77.8,106.2,77.3,106.2z"/>
					<path class="st0" d="M75.4,110.4c0.2,0,0.5,0,0.7,0C75.9,110.4,75.7,110.4,75.4,110.4L75.4,110.4z"/>
					<path class="st0" d="M79.1,106.9c0.7-0.3,0-0.3-0.9-0.4c0.2,0.1,0.3,0.3,0.2,0.5C78.9,107,79.2,107,79.1,106.9z"/>
					<path class="st0" d="M73,108.8c0.8-0.1,1.5-0.3,2.1-0.4C74,108.6,72.2,108.8,73,108.8z"/>
					<path class="st0" d="M76.5,106.4c0,0-0.1,0-0.1,0C75.7,106.5,76,106.5,76.5,106.4z"/>
					<path class="st0" d="M76.5,106.4c0.4,0.1,1.1,0.1,1.7,0.1c-0.2-0.1-0.4-0.2-0.8-0.3C77.2,106.3,76.9,106.4,76.5,106.4z"/>
					<path class="st0" d="M98.6,111.3c-3.4-0.1-6.5-0.7-2.9-1.4c-2.5-0.6-13.2,0-19.5,0.5c1.4,0,2.8,0,4.5,0.5
						c2-0.2,4.6-1.2,7.5-0.8c1.6,0.7-1.3,0.6-3.2,1c2.1-0.1,3.6,0.1,5.4,0.4c1.8,0.3,3.8,0.6,7,0.5l-2.2-0.7
						C96.1,111.2,97.7,111.5,98.6,111.3z"/>
					<path class="st0" d="M76.9,109.5l-0.3-0.2c-0.7,0.2-2.1,0.4-4.9,0.7c1.4,0.3,2.6,0.3,3.7,0.4l1-1L76.9,109.5z"/>
					<path class="st0" d="M77.2,108.4c3.3,0,4.6,0.5,8.4,0.1c-0.1-0.6-2.7-0.3-4-0.6c0.4,0.9-1.7-0.2-4,0.6
						c-0.5-0.2-0.5-0.3-0.6-0.5c-0.5,0.2-1.1,0.4-1.9,0.5c0.1,0,0.1,0,0.2,0l0,0c0,0,0,0,0.1,0c0.4-0.1,0.7-0.1,0.4,0c0,0,0,0,0.1,0
						C76.3,108.4,76.7,108.4,77.2,108.4c-0.9,0.3-0.9,0.1-1.3,0c-0.2,0-0.3,0-0.5,0c0,0,0,0,0,0c0.4,0.3,0.9,0.6,1.3,0.9
						C77.3,109.1,77.3,108.8,77.2,108.4z"/>
					<path class="st0" d="M93.9,101.9c-0.2,0.1-0.4,0.1-0.6,0.1C93.6,102,93.8,102,93.9,101.9z"/>
					<path class="st0" d="M92.3,102.5c-0.4,0-1.5,0-1.2-0.3c0.8-0.3,1.3-0.2,2.2-0.3c-0.8-0.1-1.9-0.3-3.3,0.4l0.4,0
						c-0.9,0.6-4.6,1.5-5,1.5C87.9,103.5,89.8,103.1,92.3,102.5z"/>
					<path class="st0" d="M86.2,105.7l1.3,0.8l2.8-0.6l-1.6,0.1C89.4,105.4,87.4,105.6,86.2,105.7z"/>
					<path class="st0" d="M73.6,110.5l-3.8-0.1c1.7,0.1,3.4,0.3,5.1,0.4L73.6,110.5z"/>
					<polygon class="st0" points="73.4,111.5 70,111.5 71.9,111.7 					"/>
					<path class="st0" d="M97.3,170.2c0,0.2,0,0.3,0,0.5C97.3,170.6,97.3,170.4,97.3,170.2z"/>
					<path class="st0" d="M99.2,170.5l-0.5-0.7C98.9,170.1,99.1,170.4,99.2,170.5z"/>
					<path class="st0" d="M96.9,146.2c-0.1-0.2-0.1-0.1-0.1-0.1c0,0,0,0,0,0l0,0C96.8,146.1,96.8,146.1,96.9,146.2z"/>
					<path class="st0" d="M104.7,155.3c0.3,0.1,0.6,0.2,0.9,0.2c-0.9-0.5-1.7-0.9-2.6-1.3C103.5,154.6,104.1,154.9,104.7,155.3z"/>
					<path class="st0" d="M115.7,160.6c-0.8,0-1.6,0-2.3-0.1C114.1,160.6,114.8,160.7,115.7,160.6z"/>
					<path class="st0" d="M84.1,168.6l-0.1-0.1C84.1,168.7,84.1,168.6,84.1,168.6z"/>
					<path class="st0" d="M69.9,122.9c-1.9,0.2-2.7,0.4-3,0.7C69.7,123.4,73.7,123.3,69.9,122.9z"/>
					<path class="st0" d="M85.8,151.5c0.1,0.3,0.3,0.6,0.6,1C86.3,152.3,86.1,152,85.8,151.5z"/>
					<path class="st0" d="M66.7,124.6c0.5,0,0.7-0.1,1.1-0.1c-0.7-0.3-1.3-0.6-0.9-0.9C64.9,123.8,63.6,124,66.7,124.6z"/>
					<path class="st0" d="M100.1,164.2l0,0.3C100.1,164.2,100.1,164.2,100.1,164.2z"/>
					<path class="st0" d="M111.2,181.6c-0.1,0.2-0.3,0.4-0.4,0.6C110.9,182.2,111,182,111.2,181.6z"/>
					<path class="st0" d="M69.3,115.6C69.1,115.4,68.8,115.5,69.3,115.6L69.3,115.6z"/>
					<path class="st0" d="M85.9,115.2c0.4,0.1,1,0.1,1.9,0.2C86.9,115.3,86.2,115.2,85.9,115.2z"/>
					<path class="st0" d="M95,129.6C95,129.6,95,129.6,95,129.6C95.9,129.6,95.7,129.6,95,129.6z"/>
					<path class="st0" d="M71.3,115.3c-0.5,0.1-1,0.1-1.4,0.2C70.3,115.5,70.7,115.5,71.3,115.3z"/>
					<path class="st0" d="M69.4,115.3c0.2-0.1,0.4-0.1,0.5-0.2C69.2,115.1,68.7,115.1,69.4,115.3z"/>
					<path class="st0" d="M69.3,115.9c0-0.1,0.3-0.2,0.6-0.3c-0.3,0-0.5,0-0.7,0C69.3,115.7,69.3,115.8,69.3,115.9z"/>
					<path class="st0" d="M88.2,167.5c-0.1,0.1-0.1,0.1-0.2,0.2C89.1,167,88.9,167.1,88.2,167.5z"/>
					<path class="st0" d="M110.6,126.3c-0.1,0-0.1,0.1-0.2,0.1c0,0.1,0,0.1,0,0.2L110.6,126.3z"/>
					<path class="st0" d="M114.7,125.8c-4,3.1-4,2.3-4.2,0.8c-1.8,3.5-3.7,6.9-5.7,10.2C107.8,132.9,111.1,129.2,114.7,125.8z"/>
					<path class="st0" d="M90.8,171.3c0.6,0.6,1.3,1.2,1.9,1.8c-0.2,3.5-2,2.8,0.3,5.3c-1.1-3.6,0.1-4,1.1-4.4
						c0.5-0.2,1-0.3,1.1-0.9c0.1-0.5-0.1-1.4-0.8-3c0.4,0.4,0.9,0.9,1.3,1.3c-0.2,0,0,0.3-0.2,0.3c1.4,1.4,1,0.3,0.4-1.1
						c-0.5-1.4-1.2-3-0.4-2.5c0.7,0.5,1.5,1.3,1.6,2c0-0.5,0-0.9-0.1-1.3c0.3,0.1,0.9,1.1,0.6,1c0.3-0.1,0.6-0.2,0.9-0.3l0.1,0.2
						c-0.4-0.8-1-2-1.2-2.4c0.8,0.8,0.3,0.5,0.8,1.1c-0.1-0.4-0.2-0.7-0.3-1c1.1,1.3,1.6,2.4,1.1,2.2c2.1,2.6,1.9,2.2,1.7,1.7
						c-0.2-0.6-0.6-1.2,0.9,0.2l0,0.5c1.1,1.4,1.6,1.8,2,2c0.4,0.3,0.7,0.4,1.5,1.2c-0.3-0.4-1.3-1.3-2.2-2.4c-0.9-1-1.9-2.2-2-2.7
						c0.4,0.4,0.7,0.6,0.3-0.2c1.2,1.5,1.1,1.2,1.4,1.2l1.5,1.9c-0.1-0.5-1-1.3-1.2-2.4c1-0.2,2.4,1.2,3.7,2.3
						c1-0.1,0.1-0.6-0.7-1.2c-0.8-0.6-1.7-1.3-1-1.8c0.5,0.1,0.8,0,1.1,0c0.3-0.1,0.6-0.2,0.8-0.4c0.1-0.1,0.2-0.2,0.2-0.4
						c0-0.1,0.1-0.1,0.1-0.2c0-0.1,0-0.2,0-0.3c0-0.4,0-0.9-0.1-1.4c1.5,0.2,1.3,1.3,2.2,1.7c-0.4-0.7-0.8-1.4-1.2-2.1
						c0.2-0.1,0.7,0.5,1,0.7c-0.2-1-2.4-2-2.3-3.2c-1.3-1.2,0-0.7,1.6-0.3c0.3,0.1,0.9,0.2,1.3,0.3c0.5,0.1,0.9,0.2,1.2,0.2
						c0.6,0,1.1-0.1,0.1-1.1c1.1,0.3,1.9,1.4,3.3,2.2c-0.4-0.8-0.7-1.4-1-1.8c-0.1-0.2-0.2-0.4-0.3-0.6c-0.1-0.2-0.2-0.3-0.3-0.5
						c-0.4-0.6-0.9-1.2-2.4-2.8c1.1,0.1,2.1,0.2,3.3,0.3c-1.8-0.3-3.2-1.2-4.6-2.1c-1.4-1-2.7-2.1-4.1-3c-1.6-0.4-2.9-0.8-3.5-1
						c-0.6-0.6-1.3-1.2-2-1.7c0.7,0.2,2.2,0.8,3.8,1.6c-0.3-0.2-0.6-0.4-1-0.6c1.6,0.3,4.1,1.3,6.3,2.5c-0.9-0.2-1.9-0.4-2.8-0.6
						c2.4,1.3,4.8,2.8,7.2,3.8c-0.4-0.3-0.7-0.6-0.7-0.9c0.6,0.4,1.2,0.7,1.6,0.8c0.5,0.1-0.3-0.4-1.2-1.1c1.6,0.5,3.2,1,4.9,1.5
						l-1.8-0.8c1.5-0.4,3-0.8,4.5-1.4c-2-1.7-4.9-3.3-7.6-4.6c-2.7-1.3-5.3-2.3-6.5-3.1c2.1,0.2,3.8,0.3,5.7,0.2
						c1.8,0,3.8-0.2,6.3-0.2c-2.7,0.5-2.2,1-1.3,1.8c0.9,0.7,2.2,1.8,1.4,2.6c0.8-0.8,3-0.3,3.7,0.1c-1.1-1.4-2.4-2.6-3.8-3.7
						c2,0.1,2.8-0.1,3.3-0.4c0.3-0.2,0.5-0.3,0.7-0.6c0.1-0.1,0.3-0.2,0.4-0.3c0.1-0.1,0.2-0.1,0.3-0.2c0.1-0.1,0.2-0.2,0.3-0.3
						c-2.1,0.3-3.4,0.2-4.3,0c-0.9-0.2-1.4-0.7-1.8-1.2c-0.6-1-0.8-2.2-2.2-2.6c1.4-0.4,2.8-0.8,3.8-0.7c1,0.1,1.7,0.6,1.4,1.8
						c3-1.8,0.4-2.3-2.2-2.2c-1.3,0-2.7,0.1-3.4,0c-0.7-0.1-0.8-0.4,0.3-1.4c0.2,0.4-0.2,0.7,1.3,0.4c-1.3,0-1.7-0.7-1.5-1.6
						c0.2-0.8,1-1.8,2.3-2.1l0.2,0.4c-0.1-1.7-1.3-3.9-3.3-4.7c-1-0.4-2.1-0.5-3.3-0.1c-1.2,0.4-2.5,1.3-3.8,2.8
						c0.3-0.4,1.9-2.1,3.6-3.9c1.7-1.8,3.4-3.5,4-4c-3.6,2.5-6.9,5.5-9.9,8.7c-3,3.3-5.6,6.9-7.8,10.9c1.7-3,4.4-8.1,6.9-12.9
						c2.5-4.8,5-9.3,7.3-10c-0.2-1.3-0.7-3.1-3.5-1.8c0.1,0.6-0.6,3.1-1.5,5.3c-0.9,2.3-2,4.4-2.3,4.6c0.9-3.8,0.9-5,0.9-6
						c-0.1-1-0.1-1.9-0.8-5.6c0.3,0.9-0.6,3.9-1.6,6.6c-1,2.7-2,5.2-2.4,4.9c0.2-0.8,0.7-3.5,1.2-6.1c0.5-2.6,1-5.2,1.4-5.7
						c-1,1.6-2.1,3.3-2.8,5c-0.8,1.7-1.4,3.5-1.9,5.3c0.4-1,0.5-3.3,0.4-5.8c-0.1-2.5-0.6-5.1-1.2-6.7c0.3,1.1-0.8,1-2.3,0.9
						c-1.4-0.1-3.4,0-3.9,0.7c1,0.6,2,1.3,2.9,2.1c-1.5-0.2-2.5,0.8-2.8,2.4c-0.4,1.6-0.1,3.7,0.3,5.7c0.4,2.1,1,4.1,1.5,5.6
						c0.5,1.5,0.8,2.5,0.3,2.7c-0.7-1-2.8-3.9-4.9-6.7c-2.1-2.8-4.6-5.3-6.2-4.8c0,0.1,0.1,0.2,0.1,0.3l30.2,14.6
						c-3.1-0.4-10-1.3-16.8-2.3c-6.8-1-13.4-2-15.7-2.8l3.4,0l-3.9-1.2c4.5,0.6,11.6,1.7,18.3,2.8c6.7,1.1,13.1,2.2,16.6,2.9
						c2.8-0.3,4,0.2,3.9-0.6c3.3,0,4.7,0.8,4.8,1l2.6-1.5c-7-0.5-6.7-1.8-12.6-2.2l6.8,2.4c-3.5-0.2-8.3-0.9-12.2-1.6
						c-3.9-0.7-6.7-1.5-6-2.1c2.9-0.1,12.5,1.2,14.9,1.4c-2.4-0.3-4.4-1.5-2.7-1.5l3.7,0.8c2.8-0.5-9.2-1.8-2.3-2.1
						c0.5-0.2,9.4-0.1,5.1-0.5c-8.3-0.2-33.6-2.1-39.7-2.9c0.5-0.1,7.9-0.9,12-0.9c6.5,0,15.3,1.9,20.9,1.9c-2-0.2-4.4-0.6-5.1-0.8
						c1.7-0.2,6.1,0.6,5.3-0.1c-7.3-0.7,0.7-1.2-6.2-0.8c-2-0.8,1.6-0.5,1.3-1.3c-4.7-0.1-16-1.9-18-2.7c1.9,0.2,4.3,0.2,5.4,0.2
						c0.8-1.2,4.1-1.7,4.2-2.8c1.7,0,3.9-0.4,6.9,0.1c-1.3-0.3-3.7-0.6-3.9-1c6.2-0.2,1,0.9,8.4,0.9c-4.2-0.4-5.7-1.4-8.3-2.1
						c-6.3-0.3-1.3,1.1,1.3,1.9c-8.9-0.7-18.1-2.3-21.8-3.9c-2-1.1,5.7,0,4.5-0.3c0.9-0.9-2.8-1.5-5.8-2.1c-3.1-0.6-5.5-1-2.2-1.5
						c5.5-0.2,10.6,0.7,14.5,0.8c2,0.9-3.5,1-3.4,1.5l2.6-0.5c1.8,0.4,3.1,1,1.5,1.2c2.5-0.1,2.8-0.9,3-1.7c0.2-0.9,0.4-1.9,2.6-2.5
						c-1.7-0.4-3.5-0.9-5.6-0.8l0.7,0.5c-4.2,0.2-5.6-1.1-7.6-0.7c-2.8-0.7-7.1-1.5-4.6-2.2l5.7,0.1c-1.6,0-3.5,0.4-1.8,0.7
						c-1.2-0.2,0.8-0.4,2.1-0.7c1.4-0.3,2.1-0.6-1.5-0.9l-4,0.4c-2.7-0.6-8.2-1.4-6.2-2c-5.5,0.2,0.6,0.2-6,0.5
						c8.1-0.2-1.2,1.5,7.5,1.2c-3.9,0.1-4.8,0.3-5.5,0.5c-0.8,0.2-1.4,0.4-4.9,0.6c1.9,0.1,3.7-0.1,2.5,0.4c0.5,0,1.2,0.1,1.6,0.2
						c-0.1,0-0.1,0-0.2,0c0.1,0,0.2,0,0.2,0c0.3,0,0.3,0,0.1,0c0.9-0.1,2-0.1,3-0.1c4.2,0.5,3.8,1.4,6.1,1.8c-1,0.3-2.2-0.3-4.3-0.2
						l3.3,0.7c-4.4-0.2-7.6,0.5-9.9-0.5l-0.5,0.7c-2.7,0.2-4,0.7-2.2,1.2c-1.1,0.3,4.7,1.2,1.2,0.7l2.4,1.3l-1.2-0.1
						c-0.5,0.6,1.2,1.3,2,2c0.8,0.7,0.6,1.4-3.8,1.8c1.1,0.5,2.5,1,1,1.6l-4.2-0.2c1.3,0.6-4.4,1.3-0.1,1.8
						c-11.3-0.3-2.8,2.4-4.7,3.2l5.4,0.5c-0.3,0.6,1.2,1.4,3.4,2.4l4.8,0.3c3.9,1-3.4,1.5-2.8,2.7c-1.8-0.2-1.4-0.5-0.3-0.6
						c-5.3,0.2-3.2,1.1-0.9,2c2.3,0.9,5,1.7,1.3,2c0.8,0.2,1.1,0.3,1.1,0.4l25.3,5.8c-0.1,0-0.1-0.1-0.1-0.1l0,0c0,0,0,0,0-0.1
						c0-0.1-0.1-0.1-0.1-0.2c0,0.1,0.1,0.1,0.1,0.2c-0.1-0.1-0.2-0.4-0.2-0.3l0,0l0,0c0-0.1,0,0,0,0c0,0,0-0.1,0,0
						c0,0.1,0,0.2,0.1,0.5c0,0.1,0,0.3,0,0.7c0,0.2-0.1,0.3-0.1,0.5c0,0.2-0.1,0.3-0.1,0.3c0,0,0,0.1,0-0.1c-0.1,0.4-0.2,0.7-0.3,1
						l-0.1,0.1c-0.1,0.2-0.2,0.5-0.3,0.7c-0.2,0.4-0.3,0.5-0.1,0.2c-0.3,0.4-0.3,0.5-0.4,0.6c0,0-0.1,0.1-0.1,0.1c0,0,0,0.1-0.1,0.1
						l0,0c0,0-0.1,0.2,0.3-0.3l-0.3,0.3l0,0l0,0l0,0c0,0-0.1,0.1-0.1,0.1c0,0,0,0,0,0c0.1,0,0.1-0.1,0.2-0.2
						c0.1-0.1,0.2-0.1,0.3-0.2c0.1-0.1,0.3-0.2,0.5-0.3c0.2-0.1,0.3-0.2,0.6-0.3c0.2-0.1,0.4-0.1,0.6-0.2c0.1,0,0.2,0,0.3-0.1
						c0.1,0,0.1,0,0.2,0c0.1,0,0.1,0,0.2,0l0.1,0l0,0l0,0c-1.6,0-3.3,0.1-4.9,0.1l0,0c0,0,0,0-0.1,0c-0.1,0-0.1,0-0.2,0
						c-0.1,0-0.2,0,0,0c-0.1,0-0.3,0-0.4,0c-0.2,0-0.3,0-0.4-0.1c-0.1,0-0.3-0.1-0.4-0.1c-0.2,0-0.3-0.1-0.6-0.1
						c-0.1,0,0.3,0.1,0.1,0c-0.1,0-0.4-0.1-0.5-0.1c-0.1,0,0.2,0.1,0.4,0.1c-0.3-0.1-0.5-0.2-0.7-0.2c-0.2-0.1-0.4-0.1-0.5-0.2
						l-0.1,0c0.3,0.1,0.6,0.2,0.9,0.3c0.6,0.2,1.3,0.5,1.9,0.7c1.3,0.5,2.6,1,4,1.5c-2.4-0.6-1.9-0.4,1.3,1.3
						c-1.6-0.6-3.2-1.2-3.9-1.8c-0.1,0-0.5,0.1-0.5,0.4c0,0.1,0.2,0.4,0.5,0.7c0.2,0.2,0.6,0.6,1.5,1.1c-1-0.5-0.5,0.1-0.1,0.4
						c-0.5,0.4-0.8,0.2-0.8,0.9l0.6,0.3c3.9,3.1,0.6,1.1,0.8,1.8l-0.4-0.3c-1.7-0.7-1.4-0.3-1.3,0c0.2,0.3,0.3,0.7-1.5-0.4l2.3,2.1
						c2.4,2.3,1.4,1.9,0.2,1.1c-1.3-0.8-2.9-2-2.2-0.8l1.3,1.1c0.6,1-1.1-0.5-2.9-2.4c-1.8-1.8-3.9-4.4-4.2-4.8
						c-0.4-0.5-0.5-0.7-0.8-1c-2.7-3.3,2.5,3.1,2.7,3.5c-1.3-1.7-3.2-4.1-3.6-4.6c-0.5-0.7,0.4,0.6,1,1.5c0.6,0.9,1,1.5-0.2,0
						c0.9,1.2,1.8,2.4,2.2,3.1c0,0.1-1-1.1-1.6-1.9c-0.6-0.8-0.9-1.1,0,0.5c-0.2-0.3-0.4-0.6-0.6-0.8c0.3,0.7,0.1,1,0.8,2.5
						c-1.9-3.2-1.8-2.6-1.9-1.9c0,0.6-0.3,1.3-1.2-1.3c-0.2,0-0.5,0.1-0.7,0.1l-0.1-0.5c-0.2-0.2-0.3-0.2-0.4-0.1c0,0.1,0,0.2,0,0.2
						l0,0.1c0,0.1,0,0.1,0,0.2c0,0.1,0,0.3,0,0.5c0,0.4,0,0.8-0.1,1.2c-0.1-0.3-0.1-0.8-0.2-1.1l0-0.1c0,0-0.1-0.1-0.2-0.1
						c-0.1-0.1-0.3-0.1-0.4-0.2c-0.3-0.1-0.5-0.2-0.7-0.2c-0.4-0.1-0.7-0.1-1,0.1c-0.6,0.3-1,1-1.4,2.6l-0.9-1.8
						c-0.1,0.6-1.2,0-2.7-0.3c-0.8-0.1-1.6-0.2-2.4,0c-0.8,0.2-1.4,0.7-1.7,1.6c-0.2-0.2-0.4-0.6-0.4-1c-0.4,0.9-1.2,1.4-2.4,1.8
						c-1.2,0.5-2.7,0.9-4,1.6c-1.3,0.7-2.4,1.7-2.6,2.8c-0.1,1.1,0.8,2.2,3.4,3.1c0.5,1.1,1.2,2.1,2.1,2.9c0.8-1.6,2-1.2,3.3-0.8
						c1.3,0.4,2.8,0.8,3.8,0.5c0.3,0.3-0.6,0.7-1.6,1c-1.1,0.4-2.3,0.6-2.6,0l0.6-0.2c-1.5-0.1-2.5,0.1-3.1,0.5
						c-0.6,0.4-0.9,0.9-1,1.5c-0.3,1.2-0.2,2.4-2.3,3.1l0.1,0.4l0,0.1c0,0,0,0,0,0l0.2,0l0.6-0.1l2.4-0.4l2.4-0.4l1.2-0.2l0.2,0
						c0,0,0,0,0,0l-0.1,0l-0.3,0.2l-0.6,0.4c-1.5,1-3.1,1.9-4.6,2.9l-1.2,0.7l0.1,0.2l0.1,0.3c0.2,0.5,0.3,0.9,0.5,1.4
						c0.1,0.5-0.3,1.3-0.2,1.8c0.1,0.5,0.4,0.9,0.2,1.6c0,0.3-0.1,0.7-0.1,0.9c0.1,0.2,0.2,0.4,0.3,0.7l0.2,0.3l0,0.4
						c0,0.3,0,0.6,0.1,0.9c0.2,0.5,0.7,0.6,0.9,1.1l4.5-4c0.2,0.1,0.2,0.3,0.3,0.5l0.2,0.6c-0.5,0.6-1.3,1.4-2.1,2
						c-0.4,0.3-0.8,0.6-1.1,0.7c-0.3,0.1-0.5,0.1-0.6-0.2c-0.6,0.7-0.8,1-0.6,1c0.1,0,0.3,0,0.6-0.1c0.3-0.1,0.6-0.3,0.9-0.4
						c1.4-0.7,3.1-1.9,3.6-2.4c-0.2,1.1-1.7,2.3-3.2,3.2c-1.5,0.9-2.9,1.4-2.7,1.6c0.4,0,0.7,0,1.1,0l0.4-0.6
						c1.3-0.7,2.4-1.6,3.3-2.1c0.9-0.6,1.5-0.7,1.7-0.3c-0.2,0.4-0.3,0.6-0.6,1c-0.3,0.3-0.6,0.7-0.9,1c-0.6,0.6-1.1,1.1-1.1,1.3
						c-0.3,0.3-0.4,0.5,0.3,0.3c0,0,0.1,0.1,0.1,0.1l0.1,0.2l0.1,0.4l0.1,0.4c0.1,0.1,0.2,0.2,0.3,0.2l1.5-2l1.6-2.1
						c0.3-0.2,0.5-0.3,0.7-0.4c0.2-0.1,0.4-0.2,0.5-0.2c0.3-0.1,0.5-0.1,0.7-0.3c0.4-0.2,1-0.8,2.7-3.1c-1.4,1.7-1.8,2.8-1.8,3.5
						c0.1,0.3,0.1,0.7,0.2,0.9c0.1,0.3,0.4,0.4,0.8,0.4c0.7,0,1.1,0.4,1.8,0.3c0.6,0,0.8,0.3,0.5,1c1.6-1.5,2.7-2.5,3.4-2.9
						c0.4-0.2,0.7-0.3,0.9-0.3c0.1,0,0.3,0,0.4,0c0.1,0.1,0.2,0.1,0.3,0.2c0.3-1.1,3.6-6.8,4-6.2c-3.5,6-3.8,7.4-3.7,8.3
						c0.2,1,0.9,1.3-0.7,6c0.4-1.5,1-2.4,1.5-2.9c0.3-0.3,0.5-0.5,0.8-0.6c0.2-0.1,0.3-0.2,0.5-0.3c0.6-0.4,1.3-1.1,2.8-5.7
						c-0.1,0.7-0.5,1.9-1.1,3.3c-0.6,1.4-1.2,3.1-1.6,4.6c1.5-1.8,1.8-0.7,2.3,0.9c0.2,0.8,0.5,1.6,0.9,2.1c0.4,0.6,0.9,0.9,1.5,0.6
						c0.3-1.4,0.5-3.7,1.3-5.6c-0.1,1.2-0.2,2.5-0.2,3.7l0,1.8l0,0.9l0,0.1l0,0l0,0l0,0l-0.1,0.3l0,0l0,0.1l0,0.3l0,0.7
						c0,0,0,0.1,0.1,0.1c0.4-0.8,0.9-2.9,1.3-4.3c0.4-1.4,0.7-2,1-0.1c0-0.5,0-1.2,0-1.8c0.1-0.6,0.2-1.2,0.4-1.5
						c0.6,0.5,1.3,0.7,2,0.6c0.3,0,0.7-0.2,1.1-0.3c0.3,0,0.7,0,1-0.1l0.3,0l0.1,0l0.1-0.1l0.5-0.5c0.3-0.3,0.7-0.7,1-0.9
						c0.6-0.5,1.3-1.1,1.7-1.5c1-0.8,1.9-1.5,2.9-1.8c0.5-0.1,1-0.2,1.5-0.3c0.5,0,1,0.1,1.6,0.1c-0.7-0.5-0.4-1,0-1.4
						c-0.3,0-0.3-1.3-0.4-2c0.6,0.3,1.2,0.4,1.7,0.3c-0.1-0.9,0.3-1.3,0.6-1.8c0.3-0.4,0.6-0.8,0.6-1.3l-0.4,0.6
						c0.1-0.9-0.2-1.2-0.7-1.9c-0.5-0.6-1.1-1.7-1.3-2.6c-0.2,0.7-0.8,0.1-1.6-0.9c-0.4-0.5-0.7-1-1-1.2c-0.3-0.2-0.6-0.1-0.7,0.9
						c-0.4-0.8,0-1-0.3-1.8c0,1.2-0.4,1.5-1.1,0.5l0-0.4c-0.9-0.2-1.6-0.8-2.4-1.7c-0.4-0.5-0.8-1-1.2-1.6c-0.2-0.3-0.4-0.5-0.6-0.8
						c-0.1-0.2-0.3-0.4-0.4-0.6l0.3,2.5c-0.3-0.3-0.4-1.1-0.5-1.8c-0.1,3.9,0.7,0.2,0.7,4.4c-0.4-2.6-0.8-2.5-1.3-2.6
						c-0.4-0.1-0.9-0.3-0.6-3.2c-0.3,0-0.2,3-0.5,2.9l0.1-1.6l-0.4,2.1c-0.2-0.5,0-2.6,0.3-4c0,0.2,0.2-0.3,0.2-0.3
						c0-0.6,0-0.8,0-0.9c-0.1,0.5-0.1,0.3-0.2,0.4c0,0.1-0.1,0.2-0.1,0.2c-0.1,0.2-0.2,0.3-0.1,0.1c0,0.4-0.1,0.8-0.1,1.2
						c-0.4,0.4-0.5-0.2-0.7-0.6c-0.2-0.4-0.3-0.6-0.8,0.1l-0.3,0.9c-0.2,0.2-0.2,0.2-0.2,0c0-0.1,0-0.2,0-0.2c0,0,0-0.1,0-0.2
						c0-0.3,0-0.6-0.6-0.1l0.1-0.2c-0.6,0.9-1.1,1.4-1.3,1.4c0.8-1.1,0.8-1.8,1.7-3c-0.8,1-1.2,1.4-1.6,1.9
						c-0.4,0.6-0.9,1.3-2.4,3.1l0.9-1.4c-1.2,1.4-1.7,2.2-2.6,2.7c0.7-0.7,1-1.3,1.4-1.9c0.4-0.6,0.9-1.3,1.7-2.2
						c0.8-1.6,0-0.7-0.9,0.1c-0.8,0.7-1.5,1.2,0.6-1.3c-4.4,4.4-1.3,2.3-2.4,3.3c-0.5,0.7-1.2,1.5-1.9,2.1c-0.7,0.6-1.3,1-1.3,0.8
						c-0.2,0,0.9-1.4,2-2.8c1.1-1.4,2.2-2.7,1.9-2.7c0,0,0.4-0.3,0.4-0.3c0.5-0.6,0-0.2-0.5,0.1c-0.4,0.3-0.8,0.5,0.1-0.5
						c-3.1,2.6-0.2-0.2-4.1,3.1c0.6-0.2,1.1-0.4,1.6-0.6c-0.7,0.4-2.2,1.6-3.5,2.4c-1.3,0.8-2.3,1.2-1.5,0.1c0.9-0.6,2.2-1.4,3-1.9
						c1-1-1.2,0.5-0.2-0.6c2.2-1.6,2.6-1.7,2.9-1.7c0.3,0,0.6,0.1,2.2-1.2c0.7-0.7-0.1-0.1-0.6,0.2c-0.5,0.3-0.6,0.3,1.6-1.4
						c-2.9,2.3-2.9,2.1-2.7,1.7c0.2-0.3,0.6-0.8-1.9,0.8l2.7-1.9c-0.5,0.3-1.9,1.1-1.9,1c1.2-0.8,2.5-1.5,3.7-2.3
						c-1.6,1-1.1,0.4-0.3-0.2c0.7-0.6,1.7-1.3,0.8-0.9c0.2,0.1-0.6,0.7-1.7,1.4c-1.1,0.7-2.6,1.6-3.4,2.3c-2.3,0.9-0.6-0.4,1.6-1.7
						c2.1-1.4,4.7-2.9,3.8-2.7c0.5-0.2-1.6,1.2-3.1,1.8c0.5-0.4,1.6-1.2,3.2-2c-0.4,0-1.2,0.4-2.1,0.9c-0.9,0.5-2,1.1-3,1.5
						c1.9-1,1.4-0.8,0.4-0.5c-1,0.6-2.7,1.4-3.4,1.7l3.2-1.2c-3.5,1.3-6.2,2.2-8.4,3c0,0-0.1,0-0.1,0c0,0,0,0-0.1,0c0,0,0,0-0.1,0
						c0,0,0.1,0,0.1,0c0,0-0.1,0-0.1,0l0,0c0,0,0.1,0,0,0c0,0,0,0-0.1,0l0,0l0,0c0,0,0,0,0.1,0c0.2,0.1-0.1,0,0.2,0.1
						c-0.1,0-0.1-0.1-0.3-0.1l0,0c0,0,0.1,0,0.2,0.1c0,0,0.3,0.1,0.3,0.2c-0.1,0-0.1-0.1-0.2-0.1c0.1,0.1,0.2,0.1,0.3,0.2
						c0.1,0.1,0.3,0.2,0.4,0.3c0.1,0.1,0,0-0.1-0.1c0.1,0.1,0.3,0.2,0.5,0.4c-0.1-0.1,0-0.1-0.4-0.3c0.3,0.2,0.5,0.4,0.8,0.7
						c0.1,0.1,0.3,0.4,0.3,0.3c0.4,0.4,0.8,1.1,0.9,1.4l0,0c0,0,0,0.1,0-0.1c0-0.1-0.1-0.3-0.2-0.5c0-0.1,0.1,0.2,0.1,0.2
						c0,0,0-0.1,0-0.3c0-0.2-0.1-0.6-0.1-1.1l0.1,0.5c0,0.1,0,0.1,0.1,0l0.1,0l0.2-0.1l0.1,0c0,0,0.1-0.1,0.1,0.1l0.3,0.7l0.6,1.6
						c1.3,2.5,0.4,0.1-0.1-1.5c-0.5-1.7-0.7-2.5,0.8-0.2c0.1,0.1,0.1,0.2,0.2,0.2c0.2,0.6,0.3,1.1,0.5,1.7c1.2-1.1,1.2,3.4,2.1,4.2
						c0.3-1.3,0.5-2.7,0.9-3.7c0.4-0.9,1-1.2,2.3,0.2C91.8,171.5,91.2,171,90.8,171.3z M100.9,170.2c0.1,0.3,0.7,1.3-0.1,0.3
						C99.4,168.6,100.2,169.6,100.9,170.2z M111.7,155.9c1,0.5,0.3,0.7-1.1,0.6C110.4,156.1,110.6,155.9,111.7,155.9z M71.9,118.3
						c0.1,0,0.1,0,0.2,0C70.1,118.6,70.9,118.6,71.9,118.3z M74.3,117.7c-0.6-0.1-1.3-0.2-2-0.2c1.2,0.1,1.2,0.3,0.8,0.5
						C74.4,118,75.3,118,74.3,117.7z M72,185.6l0.6-0.9C74,184,73,184.8,72,185.6z"/>
					<path class="st0" d="M114.4,159.9c-0.6-0.1-1.1-0.4-1.7-0.6C113.2,159.7,113.7,159.9,114.4,159.9z"/>
					<polygon class="st0" points="84.1,168.6 84.1,168.6 84.1,168.6 					"/>
					<path class="st0" d="M115.1,134.9c-0.8,0.1-1.7,0.2-2.7,0.2C113.7,135.1,114.8,135.1,115.1,134.9z"/>
					<path class="st0" d="M68.6,113.3l0.8,0.5c-0.1-0.2,0.9-0.3,1.7-0.4C70.1,113.4,68.6,113.4,68.6,113.3z"/>
					<path class="st0" d="M95.7,108.9c-0.5-0.1-0.1-0.2-0.5-0.3l-1.8,0.1C93.5,109.1,94.9,109.3,95.7,108.9z"/>
					<path class="st0" d="M83.3,113.2c3.7,0,2.5-0.3,1.9-0.7c0,0,0,0,0,0.1C80.2,112.4,81.7,112.8,83.3,113.2z"/>
					<path class="st0" d="M85.1,112.4c-0.1-0.1-0.2-0.2,0-0.3C83.1,112,84.7,112.2,85.1,112.4z"/>
					<path class="st0" d="M72.1,116.5c1.1-0.1-5-0.4-3.3-0.4c-2.4-0.2-1.1,0.1,0.6,0.4C71.1,116.8,73.2,117,72.1,116.5z"/>
					<polygon class="st0" points="95.3,113.2 90.9,113.2 94.5,113.5 					"/>
					<path class="st0" d="M91.7,116.3l1.4-0.6c-0.8,0-1.2-0.1-1.6-0.2C91.3,115.8,90.3,116.2,91.7,116.3z"/>
					<path class="st0" d="M91.5,115.4c0.1-0.2,0-0.4-0.7-0.5C90.9,115,91,115.2,91.5,115.4z"/>
					<polygon class="st0" points="96.7,114.1 95.7,114.3 95.4,114.7 					"/>
					<path class="st0" d="M90,123.2l1.4,0.8c1.8,0.2,2.9,0.1,2.2-0.2C92.4,123.5,91.7,123.2,90,123.2z"/>
					<path class="st0" d="M104.1,122c-1,0.1-2.2,0.1-3.8,0.1l6.3,0.5L104.1,122z"/>
					<path class="st0" d="M105.6,124.3c1.8,0.2,5.2,1.5,4.7,0.5C108.6,124.6,107.1,123.7,105.6,124.3z"/>
					<polygon class="st0" points="96.8,134.6 96.7,134.4 85.8,133.5 					"/>
					<path class="st0" d="M82.5,117.3c-1.6,0-2.2,0.5-2.4,1.1c-0.2,0.6,0.1,1.3,0.4,2c0.6,1.4,1.3,2.6-1.4,2.6
						c0.3,1.3,1.4,1.3,2.4,1.3c1,0,1.9,0.1,2.1,1.3C84.4,122.1,86.8,122.8,82.5,117.3z"/>
					<path class="st0" d="M83.6,125.5c-0.1,0.5-0.2,1.2-0.1,1.9C83.7,126.6,83.7,126,83.6,125.5z"/>
					<path class="st0" d="M113.1,180.2c0.2-0.1,0.3-0.3,0.5-0.5c-0.1,0-0.3,0-0.4,0L113.1,180.2z"/>
					<path class="st0" d="M113.6,177.7l0.3,0.6c0-0.4,0-0.8,0.1-1.1C113.9,177.4,113.8,177.8,113.6,177.7z"/>
					<path class="st0" d="M104.9,174.4l-0.4-0.5c-0.4-0.5-0.5-0.6-0.7-0.6L104.9,174.4z"/>
					<polygon class="st0" points="98.2,173 98.4,173.1 96.6,170.5 					"/>
					<path class="st0" d="M88.9,179.4c0.6-0.1,1.1-1.3,1.7-1.4c-0.3,0.2-0.6,0.3-0.9,0.1c-0.3-0.1-0.6-0.4-0.8-0.5
						C88.5,177.3,88.3,177.3,88.9,179.4z"/>
				</g>
			</g>
		</g>
	</g>
	<g>
		<path class="st1" d="M54,198.4c-1,0-1.9-0.4-2.6-1.1l-9-9c-1.4-1.4-1.4-3.7,0-5.1s3.7-1.4,5.1,0l0,0l6.5,6.5l4.4-4.3l5.5-18.8l0,0
			L85,94.5l0,0l9.5-32.2c-1.7-0.6-3.2-1.6-4.5-2.9c-2.3-2.3-3.6-5.3-3.6-8.9c0-3.5,1.2-6.5,3.5-9c2.7-2.5,5.7-3.6,9.1-3.6
			c3.5,0,6.5,1.2,8.9,3.6c2.4,2.3,3.8,5.7,3.8,9.1c0,3.5-1.3,6.6-3.9,9c-1.1,1.2-2.6,2.2-4.2,2.8l9.5,32.2l0.1,0.2l10.6,35.9
			l0.1,0.2l10.6,35.9l0.1,0.2l5.5,18.7l4.2,4.2l6.5-6.5c1.4-1.4,3.7-1.4,5.1,0c1.4,1.4,1.4,3.7,0,5.1l-9,9c-1.4,1.4-3.7,1.4-5.1,0
			l0,0l-6.5-6.5l-6.5,6.5c-1.4,1.4-3.7,1.4-5.1,0l0,0l-6.5-6.5l-6.5,6.5c-1.4,1.4-3.7,1.4-5.1,0l0,0l-6.5-6.5l-6.5,6.5
			c-1.4,1.4-3.7,1.4-5.1,0l0,0l-6.5-6.5l-6.5,6.5c-1.4,1.4-3.7,1.4-5.1,0l0,0l-6.4-6.4l-6.6,6.4C55.8,198.1,54.9,198.4,54,198.4z
			 M117.2,182.1c0.9,0,1.9,0.3,2.6,1.1l6.5,6.5l5.8-5.8l-3.6-12.5H70.1l-3.7,12.6l5.7,5.7l6.5-6.5c1.4-1.4,3.7-1.4,5.1,0l0,0
			l6.5,6.5l6.5-6.5c1.4-1.4,3.7-1.4,5.1,0l0,0l6.5,6.5l6.5-6.5C115.3,182.5,116.2,182.1,117.2,182.1z M72.2,164.1h54.1l-8.5-28.8
			H80.7L72.2,164.1L72.2,164.1z M82.8,128.1h32.8l-8.5-28.9H91.2L82.8,128.1z M93.3,92h11.7l-5.8-19.7L93.3,92z"/>
		<path class="st2" d="M98.9,41.6c-1.6,0-2.9,0.5-4,1.5c-0.9,1-1.4,2.3-1.4,3.9c0,1.5,0.5,2.8,1.5,3.7c1.1,1.1,2.3,1.6,3.9,1.6H99
			c1.5,0,2.6-0.5,3.6-1.5c1.2-1.2,1.7-2.3,1.7-3.9s-0.6-2.8-1.6-4C101.6,42,100.4,41.6,98.9,41.6z"/>
	</g>
</g>
</svg>
