<?xml version="1.0" encoding="utf-8"?>
<!-- Generator: Adobe Illustrator 24.0.2, SVG Export Plug-In . SVG Version: 6.00 Build 0)  -->
<svg version="1.1" id="Layer_1" xmlns="http://www.w3.org/2000/svg" xmlns:xlink="http://www.w3.org/1999/xlink" x="0px" y="0px"
	 viewBox="0 0 198.4 198.4" style="enable-background:new 0 0 198.4 198.4;" xml:space="preserve">
<style type="text/css">
	.st0{fill:#FF8786;}
	.st1{fill:none;stroke:#646565;stroke-width:6;stroke-miterlimit:10;}
</style>
<g>
	<g>
		<g>
			<g>
				<g>
					<path class="st0" d="M81,154.7c-0.5,0.4,0.1,0.4,0.1,0.5C81.8,154.4,80.9,154.7,81,154.7z"/>
					<path class="st0" d="M85.1,146.6l0.4,0.3c-0.1-0.5-0.3-1-0.5-1.5C85.1,145.8,85.1,146.2,85.1,146.6z"/>
					<path class="st0" d="M78.1,148.7c0.9-1.3,0.5-2.2-0.1-3.3c-0.6-1-1.2-2.4-1.1-3.6l10,0.9c-0.1,0.1-0.2,0.2-0.4,0.3l-0.7,0.1
						l1.6,1.2c0.2-0.4,0.3-0.8,0.4-1.3l-12-1.1c0.2,1.3,0.6,2.6,1.1,3.7C77.6,146.8,78.1,147.7,78.1,148.7z"/>
					<path class="st0" d="M79.3,161.4c0.1-0.8,0.7-0.7,0.8-0.7c0,0-0.1,0-0.5-0.2c-0.4-0.2-1.1-0.5-2-1.3c0.1,0.3,0.1,0.4,0.1,0.6
						C78,160.2,78.5,160.6,79.3,161.4z"/>
					<path class="st0" d="M77.7,159.9C76,158.3,78.1,161.9,77.7,159.9L77.7,159.9z"/>
					<path class="st0" d="M87.3,164.7c-1.2,0.1-2.3,0.2-3.4,0.1c0.2,0.6,1,1.2,1.6,1.7c0.7,0.5,1.1,0.9,0.5,1c1.9,0.3,2.7,0,2.7-0.5
						C88.8,166.4,88.2,165.7,87.3,164.7z"/>
					<path class="st0" d="M90.6,162.5c-0.5,0.1-1.1,0.2-1.6,0.3C89.2,163.2,89.7,163.4,90.6,162.5z"/>
					<path class="st0" d="M85.5,162.9c1.1,0.1,2.3,0,3.4-0.2c-0.4-0.7-0.2-2-1.6,0C87.9,161.7,87.1,162.7,85.5,162.9z"/>
					<path class="st0" d="M84,161.6c-0.6-0.8-1.2-1.5-1.4-2.1c-0.1-0.6,0.2-0.8,1.6-0.8c-2.2-0.9-3.3-1-3.5-0.4
						c-0.1,0.3,0.1,0.9,0.6,1.4C81.9,160.4,82.7,161.1,84,161.6z"/>
					<path class="st0" d="M81.1,147.4c0-0.5,0.1-1,0.2-1.5c-0.4-0.1-0.9-0.3-1.3-0.4c0.3,0.1,0.3,0.8,0.5,1.3
						C80.6,147.3,80.7,147.8,81.1,147.4z"/>
					<path class="st0" d="M103.4,166.4c-0.3-0.9-0.9-2.3-1.4-3.4c0.1,0.4,0.1,0.8,0.2,1.1C102.6,164.7,102.9,165.1,103.4,166.4z"/>
					<path class="st0" d="M102,163c-0.1-0.6-0.1-1.2-0.2-1.8C101.4,161.3,101.6,162,102,163z"/>
					<path class="st0" d="M91.1,158c-1.5,0.9-3.2,1.5-4.9,1.9c2-0.3,4-0.9,5.8-1.9L91.1,158z"/>
					<path class="st0" d="M104,166c0.1,0.8,0.2,1.6,0.4,2.4c-0.2-1.2-0.4-2.4-0.5-3.7L104,166z"/>
					<path class="st0" d="M104.2,165.1c0.3,3,0.2,2.1,0.5,5c0-0.4-0.2-2.4-0.3-4.3C104.5,167,104.5,166.7,104.2,165.1z"/>
					<path class="st0" d="M104.4,163c0,0.7,0,1.8,0.1,2.9C104.4,164.9,104.4,164,104.4,163z"/>
					<path class="st0" d="M102.6,161.1c0.2,0.6,0.6,2.1,0.8,2.6c-0.2-0.9-0.4-1.8-0.7-2.7C102.7,161,102.6,161.1,102.6,161.1z"/>
					<path class="st0" d="M102.7,160.9L102.7,160.9c0.2,0,0.3,0,0.3-0.1C103,160.9,102.9,160.9,102.7,160.9z"/>
					<path class="st0" d="M102.6,161.1C102.6,161.1,102.6,161.1,102.6,161.1C102.5,160.8,102.5,160.8,102.6,161.1z"/>
					<path class="st0" d="M98.6,159.6c0.2-0.4,0.5-0.9,0.7-1.4c0-0.4-0.1-0.8-0.2-1.3c-0.2-0.9-0.5-1.8-1.4-2.6
						c0.1,0.5,0.2,0.9,0.3,1.2c0.1,0.4,0.3,0.7,0.5,1.1C99,157.5,99.3,158.3,98.6,159.6z"/>
					<path class="st0" d="M101.5,157.9l-0.7-0.1c0.2,0.7,0.6,1.6,0.7,2.4C101.5,159.5,101.5,158.7,101.5,157.9z"/>
					<polygon class="st0" points="101.5,156.8 101.5,157.9 101.7,158 					"/>
					<path class="st0" d="M103.9,160.4c0-1.6,0-2,0.1-2.5c-0.1-0.4-0.3-0.4-0.4-0.1C103.7,158.8,103.8,160.7,103.9,160.4z"/>
					<path class="st0" d="M103.4,160.4c0-0.1,0-0.2,0-0.2C103.4,159.9,103.3,159.8,103.4,160.4z"/>
					<path class="st0" d="M105.1,155.4c0-0.2,0-0.5,0-0.7C105.1,154.9,105.1,155.1,105.1,155.4L105.1,155.4z"/>
					<path class="st0" d="M103.6,157.1c-0.2-0.4-0.2,0.6-0.1,1.6c0-0.5,0.1-0.9,0.2-1.1C103.6,157.2,103.6,156.9,103.6,157.1z"/>
					<path class="st0" d="M104.4,160.8c-0.1-0.7-0.1-1.3-0.2-1.8C104.4,160.1,104.5,161.8,104.4,160.8z"/>
					<path class="st0" d="M103.5,160.9c0,0.1,0,0.1,0,0.2C103.7,161.7,103.6,161.4,103.5,160.9z"/>
					<path class="st0" d="M103.5,160.9c0-0.8-0.1-1.5-0.1-2.2c0,0.4-0.1,0.8-0.1,1.4C103.5,160.4,103.5,160.7,103.5,160.9z"/>
					<path class="st0" d="M107.5,126.8c-0.2,1.9-0.6,3.8-1,5.2c-0.4,1.3-0.8,1.6-1.2,0.1c-0.4,2-0.4,5.9-0.4,10.2
						c0,3.3,0.1,7.9,0.2,12.4c0.1-1.7,0-3.3,0.7-6.2c0-1-0.3-2-0.5-3.1c-0.2-1.1-0.3-2.5,0-4.6c0.4-1.6,0.6-1.5,0.7-0.7
						c0.1,0.7,0.1,2.1,0.3,3c0-2.4,0.3-4.5,0.9-7c0.3-1.2,0.6-2.5,0.9-4c0.2-0.7,0.3-1.5,0.4-2.3c0.1-0.8,0.2-1.5,0.2-2.3
						c-0.6,1-1.1,2-1.5,3.2C107.3,129.4,107.8,127.5,107.5,126.8z"/>
					<path class="st0" d="M104.6,155.1l-0.1,0.7c0.1,0.4,0.2,1.7,0.3,4.5c0.1-2.1,0.2-3.6,0.3-5c-0.2,0.1-0.4,0.2-0.5,0.4
						L104.6,155.1z"/>
					<path class="st0" d="M104.2,156.8c0-1.9,0-3.5,0-5c0-1.5,0-3.1-0.1-4.9c-0.4,1.3-0.1,3.8-0.2,5.9c0.2-1.1,0.2-0.5,0.2,0.5
						c0,1,0,2.4,0.2,3.1c0,0.8-0.1,1.2-0.1,1.5c0.1,0.3,0.2,0.6,0.2,1.2c0-0.1,0-0.1,0-0.2l0,0c0,0,0,0,0-0.1c0-0.4,0-0.7,0-0.5
						c0,0,0-0.1,0-0.1C104.2,157.8,104.2,157.3,104.2,156.8c0.1,0.5,0.1,1,0,1.5c0,0.2,0,0.4,0,0.6l0,0c0.1-1,0.2-2,0.3-3
						C104.4,155.5,104.3,155.9,104.2,156.8z"/>
					<path class="st0" d="M96.7,148.5c0.1,0.2,0.2,0.4,0.3,0.5C97,148.6,96.9,148.4,96.7,148.5z"/>
					<path class="st0" d="M98,149.4c0,0.5,0.2,1.6-0.3,1.6c-0.7-0.5-0.5-1.2-0.8-2c-0.1,0.9-0.3,2.4,1,3.1l0-0.4
						c0.5,0.2,1.2,0.9,1.8,1.7c0.5,0.8,0.9,1.6,0.9,1.8C99.8,152.9,99.2,151.3,98,149.4z"/>
					<path class="st0" d="M102.3,151.3c0.2-0.9,0.3-1.9,0.5-3c-0.2-0.7-0.4-1.4-0.6-2l0.2,1.6C101.9,148.2,102.2,150,102.3,151.3z"
						/>
					<path class="st0" d="M105.1,157.4l-0.2,4.6c0.1-2.2,0.3-4.5,0.5-6.8C105.3,156,105.2,156.7,105.1,157.4z"/>
					<path class="st0" d="M105.9,156.3l-0.4,4.2c0.1-0.9,0.3-1.7,0.4-2.6L105.9,156.3z"/>
					<path class="st0" d="M81.4,93.8l-0.2,0.7C81.3,94.2,81.4,94,81.4,93.8z"/>
					<path class="st0" d="M84.8,90.6l-0.4-0.5C84.5,90.5,84.6,90.7,84.8,90.6z"/>
					<path class="st0" d="M141.9,87.7c3.7-2.4,9.2-5.4,4.9-3.2l-4.2,2.3C143.4,86.6,142.9,87,141.9,87.7z"/>
					<path class="st0" d="M99.1,87c0.1,0.4,0.1,0.9,0.2,1.4c-0.2-1.1-0.4-2.1-0.6-3C98.8,86,98.9,86.5,99.1,87z"/>
					<path class="st0" d="M102,102l-0.2-3.2C101.9,99.9,102,100.9,102,102z"/>
					<path class="st0" d="M72.1,93.2l0.7,2C73.4,94.2,72.6,94,72.1,93.2z"/>
					<path class="st0" d="M149.3,148.3c2.2,0.5,3.7,0.1,4.7-0.6C150.6,147.4,147.1,145.2,149.3,148.3z"/>
					<path class="st0" d="M72,83.1c-0.1,0.5,0,0.8,0.3,1C72.3,83.6,72.3,83.2,72,83.1z"/>
					<path class="st0" d="M158,143.2c-0.6,0.1-1.1,0.3-1.6,0.3c-0.2,0.8-0.5,1.7-0.8,2.4c-0.2,0.3-0.4,0.7-0.7,1
						c-0.2,0.3-0.5,0.6-0.9,0.8C156.6,148,159.1,147,158,143.2z"/>
					<path class="st0" d="M79.7,140.1c-0.1,0.2-0.1,0.3-0.2,0.5C79.8,140.3,79.8,140.2,79.7,140.1z"/>
					<path class="st0" d="M74.4,177c-0.3,0.4-0.9,0.9-1.5,1.4C73.2,178.2,73.8,177.9,74.4,177z"/>
					<path class="st0" d="M108.3,159.7C108.1,159.8,108.2,160.1,108.3,159.7L108.3,159.7z"/>
					<path class="st0" d="M112.4,142.1c0.2-0.4,0.4-1,0.7-1.9C112.8,141.2,112.6,141.8,112.4,142.1z"/>
					<path class="st0" d="M136.6,121.3C136.6,121.3,136.6,121.3,136.6,121.3C135.7,121.5,135.9,121.4,136.6,121.3z"/>
					<path class="st0" d="M108.7,157.6c-0.1,0.6-0.2,1-0.2,1.4C108.6,158.7,108.7,158.2,108.7,157.6z"/>
					<path class="st0" d="M108.1,159.6c0-0.2,0-0.4,0-0.5C107.9,159.7,107.8,160.2,108.1,159.6z"/>
					<path class="st0" d="M108.6,159.6c-0.1,0-0.1-0.2-0.1-0.6c-0.1,0.3-0.1,0.5-0.2,0.7C108.4,159.6,108.5,159.6,108.6,159.6z"/>
					<path class="st0" d="M71,122.5c-0.1,0-0.2,0-0.4,0c0.7,0.6,0.9,0.9,0.9,0.8C71.6,123.3,71.4,122.9,71,122.5z"/>
					<path class="st0" d="M101.2,90.6c0.1,0,0.1,0,0.2,0c0,0,0.1,0,0.1,0L101.2,90.6z"/>
					<path class="st0" d="M106.2,88.8c-0.5,0.2-1,0.3-1.4,0.5c-0.5,0.2-1,0.3-1.4,0.5c-0.7,0.2-1.4,0.5-2.1,0.7l0.2-0.1
						c0.1,0,0.2-0.1,0.3-0.1c0.2,0,0.3-0.1,0.4-0.1c0.3-0.1-0.1,0.1-0.7,0.3c3.8-0.9,7.6-2,11.3-3.2c-2.4,0.5-4.9,1.1-7.2,1.8
						l-0.9,0.3l-0.8,0.3l0.9-0.3C105.2,89.2,105.8,89,106.2,88.8z"/>
					<path class="st0" d="M64.5,86.2l-0.8,1.7c-2.3-1.5-2.1-2.9-3.4-1.2c2.1-0.2,2.6,1.2,3,2.6c0.4,1.4,0.8,2.9,2.8,2.6l-0.7,1.1
						c0-0.3-0.2-0.3-0.3-0.6c-0.3,0.4-0.4,0.7-0.3,0.9l4.7,18.1l10.2-13.8c0.6-0.8-1.8-3,0-4.2c0.8-0.4,1.7-0.5,1.7,0.3l0.6-2.1
						c0.5-0.4,0.9,0.2,0.5,0.6c0.6-0.8,1.3-1.5,1.9-2.3l0.1,0.1c-0.2-0.7-0.3-2.1-0.3-2.8c1-0.1,0.1,0.6,0.6,0.8l0.4-1.9
						c1.4,0.3,1.2,2,0.3,2.7c2.2,0.9,2.3,0.5,2.3-0.2c0.1-0.7,0-1.8,2.4-1.9l-0.8,1.4c1.4,0.5,2.2,0.5,2.9,0.3
						c0.8-0.2,1.5-0.5,2.9-0.4c-0.5-0.2-2.1-0.4-3.4-0.8c-1.3-0.4-2.4-0.9-2.2-1.9c0.7-0.1,1.3-0.4,1.3-1.7c1.3,1.2,1.8,0.3,2.6-0.5
						l1.8,1.7c0.5-1.2-0.5-2-0.8-3.2c1.3-0.7,3.1,0.5,4.8,1.5c0.6-0.2,0.5-0.3,0.3-0.5c-0.2-0.2-0.7-0.5-1.2-0.7
						c-0.5-0.2-1-0.5-1.3-0.8c-0.3-0.3-0.3-0.7,0-1c0.2,0,0.4,0.1,0.5,0.2l0,0l-0.3-0.3l-0.7-0.7c-0.4-0.4-0.7-0.8-1-1.1
						c-1.1-1.3-1.6-2.1-1.9-2.7c-0.1-0.2-0.1-0.3-0.2-0.4l-0.1-0.1l0-0.1l0,0l0,0l0,0l0,0l0,0c0,0.1-0.1-0.2,0.1,0.2l0,0
						c0-0.1-0.1-0.3-0.1-0.4c0,0,0,0,0,0l0,0l0,0l0,0v0c0-1.5-0.2,12.7-0.1,6.8l0.1,0.7l0.3,2.8c0.2,1.9,0.3,3.8,0.5,5.7
						c0.2,1.9,0.3,3.8,0.5,5.6l0.1,0.7c0,0.1,0,0,0,0l0,0l0.1,0l0.2-0.2c0.6-0.5,1.2-1.1,1.7-1.5c0.8,0.9,1.1,1.4,1.3,2.1
						c0.2,0.6,0.1,1.2,0,1.8c-0.2,1.2-0.8,2.1-0.1,3.4c0.3-1,0.6-2.2,0.9-3.2c0.3-1.1,0.4-2.1,0.6-3.2c0.2,0.1,0.4,0.6,0.5,1.2
						c0.1,0.6,0.2,1.3,0.2,1.8c0.6-0.9,0.3-2.8,0.1-4.6c-0.1-0.9-0.2-1.8-0.2-2.6c0-0.8,0.2-1.5,0.4-1.8c-0.2-1-0.2-1.6-0.2-1.8
						c0-0.2,0.2-0.1,0.4,0.4c0.2,0.4,0.5,1.1,0.8,1.9c0.3,0.7,0.6,1.5,0.9,2.3c1.2,3.3,2,6.2,0.9,2.5c0.4,2.2,1,4,1.6,6.7
						c-0.8-2.1-1.2-2.7-1.6-3.6c-0.2-0.5-0.4-1.2-0.7-1.9c-0.3-0.7-0.6-1.6-1.1-2.9c0.2,1.8,0.3,3.5,0.4,5.1c-0.3-2.6-0.8-5-1.3-7
						c-0.5-2-1-3.6-1.4-4.8c-0.3-2.3-0.6-4.3-0.8-5.6c-0.2-0.2-0.4-0.5-0.5-0.9c0.2,1.2,0.5,3,0.9,5c-0.1-0.4-0.2-0.7-0.2-1
						c0.2,1,0.3,1.7,0.3,2.2c0.1,0.8,0.2,1.3,0.4,2.1c0.2,1.3,0.5,2.5,0.7,3.7c-0.2-1.4-0.4-2.7-0.6-4.1c0.6,2.7,1.4,6.1,2,9.5
						c-0.2-0.5-0.3-0.9-0.4-1c0.2,0.8,0.3,1.5,0.4,2.1c0.1,0.6-0.2-0.4-0.4-1.5l1,6.3l-0.4-2.3c0.2,1.8,0.4,3.5,0.9,5.1
						c0-0.1-0.1-0.3,0-0.4l0.2-0.6l0.4-1.2c0.2-0.8,0.4-1.6,0.6-2.4c0.1-0.4,0.2-0.8,0.3-1.2c0.1-0.4,0.2-0.9,0.2-1.3
						c0.1-0.9,0.3-1.8,0.4-2.7c0.2-1.6,0.4-3.3,0.7-5.1c0.1-0.8,0.2-1.6,0.4-2.3c0.1-0.7,0.3-1.4,0.5-2.1c0.9,4.6,2.3,6.6,4,11.3
						c-0.7-1-1.1-1.3-1.5-1.1c-0.3,0.2-0.6,0.7-0.8,1.5c-0.1,0.4-0.2,0.8-0.4,1.2c-0.1,0.4-0.3,0.9-0.5,1.1
						c-0.4,0.5-0.9,1.2-1.5,1.1c1.3,0,1.6,2.2,1.5,3.2l0.4-0.8c0.1-0.3,0.3-0.4,0.4-0.7c0.3-0.4,0.5-1,0.6-1.6
						c0.2-0.6,0.4-1.1,0.5-1.7c0.2-0.5,0.4-0.9,0.5-1.6c0.6,1.9,1.1,2.5,1.5,2.7c0.2,0.1,0.5,0.1,0.7,0.1c0.1,0,0.3,0,0.4,0.1
						c0.2,0.1,0.4,0.2,0.6,0.3c-1.9-3.6-1.6-5.1-1.2-6.6c0.1-0.3,0.3-0.7,0.5-1c0.2-0.3,0.4-0.5,0.6-0.8c0.2-0.3,0.3-0.7,0.4-1
						c0.1-0.3,0.2-0.7,0.2-1.1c0.7,1.2,1.3,2.5,1.4,3.6c0.1,0.6,0,1-0.1,1.5c-0.1,0.2-0.2,0.4-0.3,0.6c-0.2,0.2-0.4,0.2-0.6,0.3
						c0.6,0.5,1,0.9,1.3,0.8c0.3,0,0.4-0.3,0.4-0.7c0.1-0.8-0.1-2-0.4-3.5c-0.7-3-1.4-5.6,0.9-4c-0.4,0.4-0.8,0.2-0.3,1.5
						c-0.1-0.7,0.1-1.2,0.4-1.7c0.1-0.1,0.1-0.2,0.2-0.3c0,0,0.1-0.1,0.1-0.1c0,0,0.1-0.1,0.1,0c0.2,0.1,0.5,0.2,0.7,0.3l0.2,0.1
						l0,0l0,0l0,0l-0.9-1.5l0,0l0,0L116,89c-0.1-0.1-0.1-0.2-0.2-0.4c-0.1-0.2-0.2-0.4-0.3-0.6c-0.1-0.3-0.2-0.3-0.1-0.1
						c0.1,0.3,0.3,0.5,0.4,0.7c-0.7-1.2-1.3-2.8-1.5-3.8c-0.2-1,0.2-1.2-0.2-0.6l-0.1,0.1l0,0l0,0c0,0.1,0.3-0.5,0.2-0.3l0,0l0,0
						l0,0l0,0l-0.1,0.2l-0.2,0.2c-0.1,0.1-0.2,0.2-0.3,0.3c-0.4,0.4-0.9,0.8-1.4,1.1c-0.6,0.4-1.1,0.7-1.6,0.9
						c-0.1,0.1-0.2,0.1-0.3,0.2c0.2-0.1,0.4-0.2,0.5-0.3c0.5-0.2,0.9-0.4,1.3-0.6c-0.2,0.1-0.8,0.4-1.7,0.8
						c-0.1,0.1-0.2,0.1-0.3,0.2l-0.2,0.1c0,0,0,0,0,0l0.1,0c0.1,0,0.1-0.1,0.2-0.1c0.3-0.1,0.6-0.3,0.8-0.4
						c-0.2,0.1-0.5,0.3-0.7,0.4c-0.3,0.1-0.5,0.3-0.8,0.4c-0.3,0.1-0.6,0.3-0.9,0.4l-0.5,0.2l-0.3,0.1c-0.1,0,0,0,0.1,0l0.2-0.1
						c2-0.8,4.2-1.3,6.3-1.7c2.2-0.4,4.4-0.6,6.7-0.7c1.1-0.1,2.3-0.1,3.4-0.1l1.7,0l1.7-0.1c-1.7,0.3-4,0.7-6.4,1.3
						c-2.7,0.6-5.6,1.3-8.4,2c-2.9,0.7-5.8,1.2-7.7,1.4c-0.5,0-0.9,0.1-1.2,0c-0.2,0-0.3,0-0.4-0.1c-0.1,0-0.1,0-0.2,0
						c-0.1,0-0.2,0-0.3,0.1c-0.5,0.1-1.1,0.2-1.9,0.3c-0.2,0.1-0.5,0.1-0.7,0.2l-0.2,0l-0.1,0l-0.3,0.2c-0.4,0.2-0.8,0.5-1.3,0.7
						c-0.4,0.2-0.9,0.5-1.3,0.8c-0.1,0-0.1,0.1-0.1,0.1l0,0.1l0,0.2c0,0.1,0.1,0.2,0.1,0.3c0.2,0.4,0.6,0.8,1.2,1.2
						c0.6-0.5,3.4-1.6,6.2-2.5c2.8-0.9,5.5-1.5,5.8-1.2c-4.4,2.1-5.5,2.9-6.5,3.7c-1,0.8-1.9,1.5-5.7,4.3c0.8-0.8,4.4-1.9,7.6-2.6
						c3.3-0.7,6.3-1.2,6-0.6c-1.8,0.4-12.2,4.5-13.5,4.4c0.8,0,1.6,0,2.4-0.1c3.3-0.2,6.5-0.6,9.6-1.1c-2.1,0.2-10.1,4-13.4,6.3
						c0.6-0.3,0.9-0.3,0.9-0.1c0,0.1,0,0.3,0,0.5c0,0.2,0,0.4-0.1,0.7c-0.1,1-0.4,2.1,0.2,2.2c0.8-0.9,1.7-1.7,2.6-2.6
						c-0.4,1.1,0.4,1.3,1.8,1.1c0.7-0.1,1.5-0.3,2.4-0.6c0.9-0.2,1.9-0.6,2.9-0.9c2-0.7,3.9-1.4,5.3-1.8c1.4-0.4,2.2-0.4,2,0.4
						c-1,0.5-4.3,2.2-7.5,4.1c-3.2,1.9-6.2,3.9-6.7,5.3c2.7-1.2,9.2-4.2,15.3-7.2c0.4-0.2,0.8-0.4,1.1-0.6c0.4-0.2,0.8-0.4,1.3-0.6
						c0.8-0.4,1.7-0.9,2.5-1.3c1.5-0.8,3.1-1.6,4.6-2.4c2.9-1.5,5.2-2.7,6.5-3.3c-0.9,0.9-1.9,1.8-2.8,2.7c1.5-0.6,3-1.3,4.4-2
						c-2.1,1.6-4.8,3.5-7.8,5.5c-1.5,1-3.2,2-4.9,3c-0.4,0.2-0.8,0.5-1.3,0.7c-0.4,0.2-0.9,0.5-1.2,0.7c-0.8,0.4-1.6,0.8-2.3,1.2
						c-3.1,1.5-6.2,2.9-9,3.9c-2.7,1-5.2,1.8-7,2.2c-0.9,1.4-1.6,2.1-2,2.6c-0.4,0.5-0.5,0.9,0.2,2c-1.1,1.3-2.3,1.8-3.2,1.7
						c-0.9,0-1.7-0.4-1.9-0.7c0.1,0.5,0.2,1,0.3,1.6l0.1,0.8c0.1,0.3,0.2,0.5,0.2,0.8c0.3,1,0.7,2.1,1.1,3.1
						c1.3-1.1,2.5-1.8,3.6-2.1c0.5-0.2,1.1-0.3,1.6-0.4c0.5-0.1,1-0.2,1.5-0.2c2-0.3,3.9-0.6,6-2.7c-1.6,0.2-3.3,0.4-4.9,0.4
						c-1.5,0-3.2,0-4.8-0.2c2.7-2.2,7.2-4.4,11.1-6c3.8-1.5,7.3-2.6,8-1.4c-0.7,1.2-3.1,3.3-5.6,5.3c-2.5,2-5,3.8-5.9,4.6
						c1-0.6,2.7-1,3.8-0.9c1.1,0.1,1.9,0.4,1.5,1.1c-1.3,0.6-2.7,1.3-4,1.8c-0.1,0.8,0.5,0.9,1.4,0.7c0.9-0.2,2-0.8,3-1.2
						c2.1-0.9,3.7-1.5,2.5,1.8c0.2,0.4-0.6,2.5-1.2,4.1c-0.6,1.7-0.8,2.9,0.6,1.2c1.8-3.7,6.8-10.6,11.9-17c2.5-3.2,5.1-6.4,7.4-9.1
						c2.2-2.7,4.1-4.9,5.1-6c-0.1,0.2-0.9,2-1.7,4.3c-0.8,2.2-1.7,5-2.5,6.8c-1.3,3-3.7,6-6.2,8.9c-2.5,2.9-5.1,5.7-6.1,8.2
						c1.2-1.6,3.2-3.3,3.9-3.8c-0.1,0.9-1,2.2-1.6,3.2c-0.3,0.5-0.6,1-0.6,1.3c0,0.2,0,0.3,0.1,0.4l0,0l0,0l0,0l0,0l0,0
						c1-1.6-2.3,3.7,2.3-3.7l0,0l0-0.1c0.1-0.1,0.1-0.2,0.2-0.3c0.1-0.2,0.3-0.4,0.4-0.6c0.1-0.1,0.5-0.7,0.9-1.3
						c0.3-0.5,0.7-1,1.1-1.4c0.3-0.3,0.4-0.5,0.3-0.4c0,0-0.1,0.2-0.3,0.3c-0.2,0.3-0.5,0.6-0.9,1.2c1.1-1.4,1.4-1.8,2-2.3
						c0.2-0.2,0.3-0.4,0.6-0.6c0.2-0.1,0.2-0.2,0.3-0.2c0.1-0.1,0.2-0.2,0.3-0.2c0,0,0,0,0,0l0,0c0.1,0,0.2-0.1,0.3-0.2
						c0.8-0.4,1.7-0.8,2.6-1.2c1.7-0.7,3.5-1,5-0.9c1.5,0.1,2.7,0.5,3.3,1c-1.9,0.1-4.2,0.8-5.3,1c-0.3,1.3-1.5,2-2.6,2.3
						c-1.1,0.3-2.1,0.3-2.7,1.1c-1.5-0.9-3.5-1.8-5.6-4.1c0.8,1,2.5,2.8,2.1,3.4c-2.5-1.8-2.4-2.2-2.5-2.8c-0.1-0.5-0.3-1.1-3.1-3.5
						c1.5,1.5,2.3,2.7,2.8,3.9c0.3,0.6,0.4,1.2,0.6,1.9c0.2,0.6,0.4,1.2,0.6,1.9c2.2,2.3,2.8,2.2,2.8,1.1c0-1.1-0.9-3-1.7-4.1
						c3.2,3,6.3,6.5,8.3,10c1,1.7,1.8,3.5,2.3,5.1c0.5,1.6,0.7,3.2,0.6,4.5c-1.2,3.5-4.4-3.7-4.1-2.4c-0.6,0.2-1.1,0.6-1.3,1.1
						c-0.3,0.5-0.4,1.2-0.4,1.9c-0.1,1.5,0.2,3.3,0.3,5c0,0.8,0,1.7-0.1,2.4c-0.1,0.7-0.3,1.4-0.7,1.9c-0.4,0.5-0.9,0.8-1.7,0.9
						c-0.8,0.1-1.8,0-3.1-0.5c-2.4-2.2-2.7-4.9-3-7.4c-0.2-2.5-0.4-4.8-1-6.6c0.4-0.6,0.8-0.8,1.3-0.7c0.5,0.1,1,0.4,1.6,0.8
						c0.6,0.4,1.2,0.8,1.7,1c0.5,0.2,1,0.4,1.3,0.1c-1-0.5-1.9-1-2.8-1.5c0-0.9,0-1.9,0.3-2.4c0.2-0.6,0.7-0.7,1.4-0.2
						c-1.8-1.8-3.3-1.2-5-0.8c-0.8,0.1-1.8,0.2-2.4-0.2c-0.2-0.1-0.3-0.2-0.4-0.4c-0.1-0.1-0.2-0.3-0.3-0.5c0-0.1-0.1-0.2-0.1-0.3
						c-0.1-0.1-0.1-0.3-0.2-0.4c-0.1-0.3-0.2-0.6-0.3-1c-0.6,0.6-1.2,1.3-1.7,2c-0.5,0.7-0.9,1.6-1.1,2.7l1-0.1
						c-0.4,2.2-1.3,3.3-1.9,4.2c-0.7,0.9-1.2,1.6-1.1,2.8c-0.8,1-1.7,2.3-2.3,3.1c-0.8,1-1.3,1.4-1.3-0.4l1.3-6.4
						c-0.4,1.9-0.4,4.4,0.4,2.9c-0.5,1.1-0.3-1.4-0.3-3.3c0-1.9-0.4-3.1-1.5,1c0,1.7-0.1,3.3-0.2,5c-0.7,1.3-1.5,3.5-2.2,5.3
						c-0.7,1.8-1.2,3-1.4,2.1c-0.2,3.2-0.2,3-0.1,2.9c0,0,0.1,0,0,0.5c0,0.5-0.1,1.4-0.3,3.4c0.5-4.7,0.9-4.6,1.2-4.4
						c0.3,0.2,0.6,0.5,1.4-4.6c-0.7,4.5-0.8,5.5-0.8,6.4c-0.1,0.9-0.1,1.7-0.9,5.2c0.5-1.8,0.9-3.6,1-2.8c0,0.1,0,0.2,0,0.3
						c0.2-0.5,0.4-1.2,0.6-1.6c0,0.1,0,0.1,0,0.2c0-0.1,0-0.2,0.1-0.2c0.1-0.3,0.1-0.3,0-0.1c0.1-0.7,0.3-1.4,0.5-2.2
						c0.1-0.3,0.1-0.6,0.2-0.9c0.1-0.3,0.2-0.5,0.3-0.7c1.3-3.3,2.2-2.6,3.4-4.5c0,0.1,0,0.1,0.1,0.2c0.1,0.1,0.2,0.2,0.2,0.3
						c0.1,0.2,0.1,0.3,0.1,0.5c-0.1,0.3-0.3,0.5-0.7,0.8c-0.1,0.1-0.2,0.1-0.3,0.2c-0.1,0.1-0.2,0.1-0.2,0.2
						c-0.1,0.2-0.2,0.4-0.3,0.6c-0.2,0.4-0.3,0.8-0.5,1.3c0.9-0.3,1.8-0.6,2.6-0.9c0.8-0.3,1.6-0.6,2.4-1.1
						c-0.1,1.1,0.2,2.2,0.8,3.2c0.6,1,1.4,2,1.9,2.9c0.5,0.8,0.9,1.6,0.5,2.3c-0.2,0.3-0.5,0.7-1.2,0.9c-0.6,0.3-1.6,0.5-2.9,0.5
						c0.7,0.2,1.5,0.3,2.2,0.4c0.7,0.1,1.4,0.2,2.1,0.2c1.4,0.1,2.8,0.2,4,0.1c0.6,0.3,1.2,0.5,1.8,0.7c0.3,0.1,0.6,0.2,1,0.3
						c0.3,0.1,0.6,0.1,0.9,0.2c1.2,0.2,2.5,0.3,3.6,0.2c1-0.1,2-0.3,2.9-0.7c0.8-0.4,1.4-0.9,1.8-1.6c1.4,0,2.1-1.6,2.4-2.8
						c0.2-0.6,0.2-1,0.3-1.1c0-0.1,0.1,0.2,0.1,1.2c1.6-1.8,2.8-3.5,3.7-5.2l0.7,0.9c2.4-1.1,3.2-4.1,4.3-6.2c0.5-1,1.2-1.9,2.6-2.6
						c1.4-0.7,3.3-1.1,6.3-1.5c0.2-0.7,0.3-1.4,0.5-2.1c0.2-0.7,0.4-1.6,0.7-2.4c0.6-1.8,1.7-3.5,3.4-6.3c1.4,0.1,2.9,0.1,4.4,0.1
						c0-0.7,0.2-1.5,0.4-2.4c0.2-0.9,0.5-1.8,0.8-2.8c0.6-2,1.3-4.2,1.6-6.4c0.3-2.2,0.4-4.2,0-5.8c-0.2-0.8-0.5-1.6-0.9-2.1
						c-0.4-0.6-0.9-1-1.5-1.2c1.1-1.2,1.9-2.7,2.1-4.4c0.2-1.7,0.1-3.7-0.5-5.7c-0.3-1-0.7-2-1.2-3c-0.5-0.9-1-1.9-1.7-2.8
						c-0.7-1-1.3-1.7-2-2.5c-0.4-0.4-0.7-0.8-1.1-1.2l-0.6-0.6l-0.6-0.5c-0.7-0.6-1.5-1.2-2.3-1.8c-0.8-0.6-1.5-0.9-2.2-1.4
						l-1.1-0.6c-0.4-0.2-0.7-0.3-1-0.5c-0.6-0.3-1.3-0.6-1.9-0.9c-0.7,0-0.8,0.2-0.6-0.3l-3.1,4.5c-0.2-0.4-1.5,0.7-3.6,2.2
						l-3.2,3.8c-1.7,1.4-1.7,0.5-1.2-0.7c0.4-1.2,1.3-2.7,0.7-2.8c1.6-1.3,1.4-0.8,0.7,0.1c1.9-2.1,2.4-2.9,2.1-3
						c-0.3-0.1-1.4,0.5-2.6,1.1c-1.2,0.6-2.5,1.1-3.1,1.1c-0.6,0-0.3-0.6,1.4-2c-1.6,0.7-1.1,0.1,0.1-0.7c0,0,0.1,0,0.2-0.1
						c0.1-0.1,0.1-0.1,0.1-0.1c0.8-0.5,1.5-1.1,2.4-1.7c-1.1,0.7-2,1.3-2.4,1.6c-0.1-0.2-0.5-0.1-1.5,0.1l4.7-2.6c-0.1,0,0,0-0.1,0
						c1.8-1.1-2.1,0.9-5.6,2.9c-0.7,0.2-1.5,0.5-2.6,0.9c3.7-2,3.2-1.9,2.7-1.9c-0.5,0-0.9-0.1,3-2c-2.5,1-2.8,0.4-5.1,0.7
						c-1.2,0.1-2.7,0.4-5.1,1.1c1-0.4,1.5-0.7,1.5-0.4c0.9-0.9,1.8-1.6-0.4-1.5c1.9-0.6,3.7-1.2,5.6-1.7c-2.5,0.3-5.1,0.6-7.7,0.6
						c1.7-0.7,2.8-1.8,4.2-2.2c1.4-0.5,3-0.6,5.5-0.1c-4-1.7-4.9-2.3-5.8-3c-0.5-0.3-0.9-0.7-1.8-1c-0.9-0.3-2.1-0.7-4.2-1
						c1.1-0.5,2.2-1,3.3-1.5c-0.6-0.9-2.4-1.5-4-2c-1.6-0.6-2.9-1.1-2.7-2.8c-0.2-1.2-0.9-2.4-2.1-3.5c-0.7-0.5-1.5-1-2.4-1.5
						c-0.9-0.4-2-0.7-3.1-0.9c-2.3-0.4-4.6-0.2-6.7,0.3c-2,0.5-3.7,1.4-5.1,2.2c-0.3,0.2-0.7,0.4-1,0.6l-0.5,0.3
						c-0.3,0.2-0.7,0.3-1,0.4c-0.7,0.2-1.4,0-2.4-1.1c2.1,4.9,1.5,4,0.7,2.8c-0.8-1.2-1.6-2.7-0.3,1.5c-0.9-2.4-1.6-3.7-2-6.1
						c0,1.6-0.6,0.8-1,0.5c-0.4-0.3-0.6-0.1-0.3,3.6c-0.6-2.7-0.5-4-0.9-5.6c0,0.7,0.3,2.2,0,0.5c-0.2-1-0.3-1.8-0.5-3.2
						c0,0,0,0.4,0.2,1.3c0.2,1.4,0.4,2.5,0.6,3.4c0.7,3.9,1.2,6.8,1.8,10c-0.7-4.3-0.6-4,0.3-0.3c-0.4-2.5-0.8-5.1-1-5
						c0-0.4-0.1-1.9-0.1-2.7c0-0.7,0.1-0.8,0.7,1.4c-0.3-1.3-0.1-1.1,0-0.7c-0.1-0.8-0.2-1.2-0.3-1.6c-0.1-0.4-0.2-0.7-0.4-1.1
						l0.3,0.9c0.4,2,0.4,2,0.1,1.4c-0.3-0.6-0.6-1.6-0.9-1.8l-0.1-0.4c-1.1-2.3-1.3-1.9-1.5-1.8c-0.1,0.1-0.2,0.2-0.5,0
						c-0.1,0-0.1-0.1-0.2-0.1c0,0-0.2-0.1,0-0.1l0.1,0c0,0,0.1,0,0,0c-0.1,0-0.2,0-0.3,0c-0.8-0.2-1.7-0.2-3-0.2
						c0.4,0.6,0.8,1.3,1.1,2c0.3,2.4-0.9,2.1-2.7,2.3c-0.9,0.1-1.8,0.2-2.5,0.5c-0.7,0.3-1.1,0.7-1,1.3l1.3,0.2
						c0.2,0.9-1.3,0.5-3,0.1c-1.7-0.5-3.4-1-3.9-0.7c-0.4,0-0.2-0.7-0.3-1.2c-3.2,1,1.7,2,0.9,4.1c-1.2-0.5-2.2-2.6-3.1-1.5
						c-0.6,0-0.3,1.6-0.4,3.1c0,1.5-0.4,3-1.8,3.1c0.9,0.2,1.8,0.5,1.7,1.7c-0.7,1.4-4.8,1.2-3.7,4c-0.3,0-0.5-0.1-0.6-0.2
						c-0.2,1.3-1.6,3.6-1,5c-0.7-0.4-1.2-0.5-1.7-0.4l8.7,2.5c1.1-2.2-4.2-5.7-0.3-6.3c-0.2-1.2-0.4-2.3-0.6-3.5l0.5,0
						c0.1-1.8-0.5-2.5-1.4-3.1l-8.7-5.1l0,1.9c0,0.3,0,0.7,0.1,1c-0.7,0-0.7-0.6-0.8-0.8c-3.4,1.1-3.7,1.2-4.2,5L61.4,79
						c0,0.6-1.5,0.7-3.3,0.9c-1.8,0.2-3.9,0.6-4.5,2.4c-0.1-0.2-0.4-0.6-0.4-1c-0.8,1.9-3.9,1.6-6.4,1.5c-0.6,0-1.2,0-1.9,0.3
						c-0.7,0.3-1.4,0.8-1.9,1.5c-1,1.4-1.3,3.7,0.6,5.8c-0.1,0.6-0.2,1.1-0.3,1.7c0,0.6,0,1.1,0,1.6c0,0.5,0.1,1.1,0.1,1.6
						c0.1,0.5,0.2,1.1,0.4,1.6c0.1-0.5,0.3-0.8,0.5-1.2c0.2-0.3,0.4-0.5,0.5-0.7c0.4-0.4,0.7-0.5,1-0.5c0.6,0,1.1,0.4,1.6,0.9
						c0.5,0.5,1.1,1,1.7,1.3c0.6,0.3,1.2,0.4,1.8,0.2c0,0.4-0.1,0.7-0.5,1.1c-0.4,0.4-0.9,0.7-1.4,1.1c-1,0.7-2.3,1.2-2.6-0.2
						c0.2-0.2,0.4-0.3,0.6-0.4c-1.5-0.3-2.5,0-3,0.8c-0.3,0.4-0.5,0.9-0.6,1.5c-0.1,0.6-0.1,1.1,0,1.7c-0.1,0.8,0.2,1.4-1.9,1.8
						c1.1,1.5,1.5,2.9,1.3,4.1c-0.1,1.2-0.9,2.3-1.3,3.5c2.2,0.5,4.3,1,6.5,1.5c-0.2,0.4-0.4,0.8-0.6,1.1c-1.6-0.2-5.1-1.4-4.6-1.9
						c-1.9-0.4-1.2,0.1,0.1,0.8c1.3,0.7,3.1,1.7,3.8,2c-1.6,0.3-3.3-0.7-4.7-1.6c-1.4-0.9-2.5-1.6-2.7-1.5c0.1,0.2,0.2,0.4,0.3,0.6
						l0.8,0.2c2.3,1.4,5,2.7,4.1,3.4c-1.5-0.1-3.8-1.7-4.1-1.6c-0.4-0.2-0.6-0.3-0.3,0.1c-0.4,0.2-0.8,0.4-1.2,0.6
						c1.5,0.9,3.1,1.7,4.7,2.4c1.8,1.9-1.1,1,4.2,3.7c-2.1-1-3.5-1.4-4.5-1.4c-0.2-0.1-0.7,0.3-1,0.5c-0.4,0.3-0.7,0.6-1,1
						c-0.6,0.7-1.2,1.5-1.6,2.3c-1.9,3.3-2.2,7.3-3.8,8c1.5,2,2.1,3.5,2.4,5.2c0.3,1.6,0.3,3.6,0.6,6c0.3-0.7,1.9-1.4,3.4-1.5
						c1.4-0.1,2.7,0.2,2.9,1.7c-2.8,0.7-4.4,1.4-5.1,2.6c-0.7,1.1-0.6,2.6,0,4.1c0.6,1.6,1.6,3,2.4,4.7c0.5,0.8,0.9,1.7,1.2,2.6
						c0.3,1,0.5,1.9,0.6,3.1c-0.3-1.7,0.6-2,1.8-2c0.3,0,0.7,0.1,1,0.1c0.3,0,0.7,0.1,1,0.1c0.7,0.1,1.7,0.3,1.8,0.1
						c0.2-0.1,0.5-0.2,0.7-0.4c0.2-0.2,0.4-0.4,0.6-0.8c0.4-0.7,0.9-1.8,1.2-3.6c0.3,0.5,0,1.5-0.5,2.6c-0.5,1.2-1,2.5-1.2,3.8
						c1.6-1.9,2.5-1.2,2.9,0.1c0.4,1.2,0.2,3.1,0.9,3.4c1-1.1,2.4-3.2,3.9-4.4c-0.8,1.2-1.6,2.3-2.4,3.4c-0.8,1.1-1.6,2.1-2.5,3.1
						c0.2-0.1,1.6-1.5,2.5-2.3c0.9-0.8,1.2-1-0.5,1c0.8-0.9,2.1-2.3,2.3-2.2c-0.8,1.2-1.6,2.4-2.5,3.6c-0.9,1.8-1.3,3.1-0.1,5.3
						c0,0,0.1,0.1,0.1,0.2l0.2,0.3l0.3,0.5c0.2,0.3,0.5,0.6,0.7,1c0.5,0.6,1,1.2,1.6,1.8c1.1,1.1,2.3,2.1,3.8,3
						c1.5,0.8,3.2,1.5,5.1,1.8c1.9,0.3,3.9,0.2,5.6-0.3c-1.2,0.1-1.5-0.2-1.2-0.5c0.1-0.1,0.4-0.3,0.7-0.5c0.3-0.2,0.6-0.4,1-0.7
						c-1,0.3-0.5-1.2-0.9-1.8c1.8-0.3,3.5-1.3,4.6-2.6c-0.3-0.9,0.2-2.2,0.4-3.4c0.3-1.2,0.2-2.4-0.3-2.7c0.1,0.5,0.1,0.9,0.1,1.4
						c-0.5-1.1-1.1-0.6-2.1-0.3c-1,0.3-2.3,0.3-3.1-0.4c0.1,0.4-0.1,0.7-0.5,0.8c-0.2,0-0.5,0-0.7,0c-0.3-0.1-0.6-0.2-0.8-0.3
						c-0.5-0.3-1-0.7-1.1-0.9c-0.2-0.2-0.1-0.1-0.2,0.7c0-0.4,0-0.7,0-0.9c0,0,0-0.1,0,0l0,0.1c0,0,0,0.1,0,0c0,0,0-0.1,0,0
						c0,0,0,0.1,0,0.1c0,0-0.1-0.2,0.1-0.7l0.2-0.3c0.1-0.2,0.1-0.4,0.4-0.7c0.1-0.1,0.2-0.3,0.4-0.4c0.1-0.1,0.2-0.1,0.3-0.2
						l0.2-0.1l0.1,0l0,0l0,0l0,0l0,0l0,0c0.2-0.1-0.4,0.2,0.4-0.2l0.1,0l0.2-0.1l0.3-0.2l1.3-0.8c0.9-0.5,1.8-1,2.6-1.6
						c0.5-0.3,0.9-0.5,1.4-0.8l0.7-0.4l0.1-0.1c0,0,0,0,0,0l0,0l0-0.1c0.2-0.5,0.4-1,0.6-1.6c0.2-0.5,0.2-1,0.3-1.5
						c0.2-1,0.2-2,0.7-3.3c0.3-0.7,0.3-1.1,0.3-1.7c0.1-0.5,0.1-1.1,0.2-1.6l-3.7,3.1c0.2-0.9,0.6-1.6,1.1-2.3
						c0.4-0.7,0.9-1.2,1.4-1.9c-1.4,0.7-2.1,1.3-2.5,1.8c-0.4,0.5-0.4,0.9-0.5,1.5c-0.2,1.1-0.2,2.3-3.5,3.7c1.2-1.1,2-2.1,2.6-3
						c0.6-1,0.8-1.7,1-2.4c0.2-0.7,0.2-1.3,0.3-1.9c0-0.3,0-0.6,0.1-0.9c0.1-0.3,0.2-0.6,0.3-1c0.3-1.2,1.1-2.8,3.6-5.5
						c-0.1-0.6-0.9,0.3-1.8,1.2c-0.8,0.9-1.7,1.8-1.7,1.2l1.7-2.1l-2.3,1.9c0.1-0.6,0.7-1.6,1.4-2.6c0.7-1,1.5-2,2.2-2.8
						c-0.1,0.4,0.6,0.2,0.8,0.3c0.4-0.8,0.5-1.3,0.3-1.7c0-0.1-0.1-0.2-0.1-0.3c0-0.1-0.1-0.2-0.1-0.4c-0.1-0.2-0.2-0.4-0.3-0.6
						c-0.8-0.4-1.9-0.6-1.8-1.2l0.1,1.3c0,0.4,0,0.8,0,1.3c-0.5-0.3-1-0.7-1.5-1.2c-0.3-0.2-0.6-0.5-0.9-0.7c-0.3-0.3-0.5-0.6-0.8-1
						l-0.2-0.3c-0.1-0.1-0.2-0.1-0.3-0.2l-0.5-0.4c-0.3-0.3-0.7-0.5-1.1-0.7c-0.7-0.5-1.5-0.8-2.2-1.3c-0.3-0.3-0.7-0.4-1.2-0.5
						c-0.4-0.1-0.8-0.2-1.2-0.3c-0.9-0.1-1.5-0.6-2.5-0.5c-0.4,0-0.9,0.1-1.3,0.1c-0.4,0-0.9,0-1.3,0c-0.9,0.2-1.9,0.6-2.8,0.9
						l-0.2,1.8c-0.3,0.1-0.6,0.2-0.9,0.3c-0.1,0-0.3,0.1-0.4,0.1c-0.1,0-0.2,0-0.3,0c-0.2,0-0.3-0.1-0.5-0.1c-0.1,0-0.1-0.1-0.2-0.1
						l-0.1-0.1l0,0l0,0l0,0l0,0c-0.3,1,0.7-2.3-0.7,2.3l0,0l0,0c-0.1,0.4-0.3,0.8-0.4,1.2c-0.1,0.3-0.4,0.7-0.4,0.9
						c-0.1,0.2-0.2,0.4-0.3,0.6c-0.1,0.1-0.1,0.2-0.2,0.3c0,0,0,0.1-0.1,0.1c0,0-0.1,0.1-0.1,0.1l0,0l0,0l0,0l0,0l0,0l0,0
						c0.1-0.2-0.3,0.3,0.3-0.3l0,0l0,0.1c0,0-0.1,0.1-0.1,0.1l-0.1,0.1l0,0l0,0c0.1,0,0,0,0.3-0.1c0.1,0,0.1,0,0.2-0.1
						c0,0,0.1,0,0.2-0.1c0.2-0.1,0.4-0.1,0.6-0.2c-0.2,0-0.2,0-0.1,0c0.1,0,0.2,0,0.5-0.1c0.5-0.1,0.9-0.1,0.2,0
						c0.3,0,0.5-0.1,0.7-0.1c0.2,0,0.5-0.1,0.7-0.1c0.4,0,0.7,0,1,0c0.6,0,0.9,0,1.1,0.1c0.2,0,0.4,0.1,0.8,0.1c0,0,0.1,0,0.2,0
						c-0.1,0-0.2,0-0.4-0.1c-0.3,0-0.6-0.1-0.9-0.2c-0.7-0.1-1.4-0.3-2.3-0.6c1.1,0.2,2.2,0.3,3.2,0.6c-1.4-0.4-2.4-0.8-3.2-1.2
						c-0.8-0.4-1.3-0.8-1.4-1.5c1.1,0.9,2.4,1.2,3.7,1.6c1.3,0.4,2.7,1,4.3,1.8c0.9,0.3,1.4,0.4,1.8,0.5c0.3,0.1,0.4,0.1,0.4,0
						c-0.1-0.2-0.7-0.7-1.2-1.1c-0.5-0.5-0.9-0.9-0.6-0.9c0.1,0,0.2,0.1,0.3,0.2c0.1,0,0.1,0.1,0.3,0.1c0.1,0,0.3,0,0.5,0.1
						c0.7,0.2,1.6,0.5,2.9,1c-1.4-1.9-2.7-2.7-3.6-3.1c-0.9-0.3-1.6-0.2-2.2,0.2c-0.5,0-0.3,0.6-1-0.1c-2.7-1.4-5.4-4.3-3.5-5.1
						c0.5-0.5,3.3,0.8,6.3,1.7c3,0.9,6.3,1.3,7.3-0.7c-0.3,0.3,0.3,0.7,0.1,1.1c1.4-0.1,1.2-1.2,1-2.2c-0.2-1-0.1-1.9,2.1-2
						c-2.3-1.6-2-2.2-1.9-2.7c0.1-0.5-0.1-1.1-3.3-2.4c0.1,1.3,0.2,2.6,0.1,3.9c-0.1-0.3-0.3-0.7-0.5-1.1c-0.3-0.4-0.6-0.8-0.9-1.2
						c-0.7-0.8-1.5-1.7-2.2-2.5c-0.6-0.8-1.1-1.6-1.1-2.2c-0.1-0.7,0.3-1.2,1.4-1.6c1.3,0.6,2.9,2.1,3.7,3.1
						c1.1-0.1,0.9-0.7,0.6-1.3c-0.2-0.6-0.4-1.1,0.6-1.3c1.7,0.5,2.6,1.1,3,1.7c0.4,0.6,0.4,1.3,0.3,2c0,0.7-0.3,1.5-0.3,2.3
						c0.1,0.8,0.5,1.8,1.5,2.9c1.6,0,0.8-1.6,0.4-2.7c-0.3-1-0.2-1.6,3.1,0.3c-1-0.6-1.8-1.1-2.4-1.6c-0.6-0.4-0.9-0.8-1-1.2
						c-0.3-0.7,0-1.1,0.5-1.6c0.4-0.5,0.7-1.1,0.7-1.8c-0.1-0.7-0.6-1.6-2.5-2.6l4.1,1.1c-0.3-0.3-1-0.8-1.6-1.3c-0.6-0.5-1-1-1-1.4
						c1.8,0.8,3.6,1.6,5.4,2.5c-2.3-1.7-1.2-2.5-0.2-3.5l0.8-0.7c0.3-0.2,0.5-0.5,0.7-0.7c0.3-0.5,0.4-1.1-0.5-1.7
						c0.3,0.6,0.2,1,0.1,1.3c-0.1,0.3-0.3,0.6-0.5,0.7c-0.5,0.3-1.2,0.2-2.1,0.1c-1.7-0.3-3.9-0.9-5.2-0.2c-0.9-0.7-1.3-1.2-1.5-1.7
						c-0.1-0.2-0.1-0.4-0.1-0.6c0-0.2,0.1-0.3,0.2-0.4c0.5-0.5,1.9-0.8,3.4-1.1c1.6-0.3,3.2-0.7,4.3-1.4c0.6-0.4,0.9-0.8,1.1-1.4
						c0.1-0.3,0.1-0.6,0-0.9c-0.2-0.3-0.4-0.7-0.8-1.1c0.5,0.4,0.4,1.3-0.6,1.8c-0.9,0.5-2.1,0.7-3.4,0.1c0.4-0.6,0.6-1.2,1.1-1.9
						c0.5-0.7,1.2-1.3,2.2-1.8c-0.4-0.6-0.7-0.9-1-1.2c-0.4-0.3-0.7-0.4-1-0.5c-0.6-0.1-1.1,0.1-1.7,0.4c-1.1,0.6-2.4,1.5-4.1,0.7
						c2.3-0.9,1.5-1.5-0.3-1.8c-1.8-0.4-4.6-0.6-5.9-1.3l4.3-0.8c0.1-0.7,0-1.2-0.3-1.6c-0.3-0.4-0.8-0.6-1.2-0.7
						c-1-0.3-2.1-0.1-3.3,0C66.6,96.9,66,97,65.5,97c-0.5,0-1.1,0.1-1.8,0.1c-0.4,0-0.7,0-1.1,0.1c-0.2,0-0.4,0-0.6,0
						c-0.1,0-0.2,0-0.3,0l-0.2,0l-0.1,0c-0.9,0.3-1.8,0.6-2.8,0.9c-0.2,0.1-0.4,0.1-0.7,0.2c-0.2,0-0.4,0.1-0.6,0.1
						c-0.1,0-0.2,0-0.3,0.1c0.1,0,0.1,0,0.2,0c0.1,0,0.1,0,0.3-0.1c0.3,0,0.6-0.1,0.9-0.2c-0.3,0.1-0.8,0.2-1.1,0.3
						c-0.1,0-0.3,0.1-0.5,0.1c0.1,0,0.1,0,0.2,0c-0.1,0-0.3,0-0.4,0c0,0,0.1,0,0.1,0c0,0,0,0,0.1,0l0,0l0.2,0
						c0.3,0.1,0.5,0.2,0.8,0.3l0.1,0.1l0,0l0,0l0,0c-0.6-0.3,1.2,0.6-1.2-0.6l0,0l0,0l0,0l0,0c0.1,0,0.1,0.1,0.2,0.1
						c0.1,0.1,0.3,0.2,0.6,0.4c-0.3-0.2-0.2-0.1,0.2,0.1c0.2,0.2,0.5,0.4,1.1,0.9c0.2,0.1,0.3,0.3,0.5,0.4c0.2,0.1,0.3,0.3,0.5,0.4
						c-0.1-0.1-0.2-0.2-0.1-0.2c0.6,0.4,1.1,1,1.3,1.3c0.1,0.2,0.2,0.2,0.3,0.2c0.1,0,0.1-0.2,0.2-0.6c0.4,0.8,1,1.7,1.3,2.2
						c0.1,0.2,0.2,0.4,0.2,0.3c-0.7-0.8-1.9-1.9-2.6-2.6c-0.2-0.2-0.5-0.5-0.9-0.8c-0.3-0.3-0.6-0.5-0.7-0.6
						c0.6,0.5,1.4,1.3,2.9,2.7c0.4,0.4,0.8,0.9,1.2,1.3c0.5,0.6,1.1,1.2,1.6,1.8c0.1,0.1,0,0,0,0l0,0l0,0l0,0c0,0,0,0,0,0l0-0.1
						c-0.1-0.4,0.1-1.4,0.3-1.7c-0.2,0.2-0.5,0.4-0.8,0.3c-0.3-1.9-0.5-3.7-0.6-5.4c0.9,0.3,1.1,1.2,1.4,2.1c0.2-0.8-0.3-2,0.1-2.9
						c1.1,1.7,2.5,3.2,2.4,5.1c0-1.5,0-2.9,0.1-4.3c0.6,0.5,2.2,0.4,2.5,1.2c0.8-0.3,0.7-2,0.7-3.5c0.1-1.6,0.3-3,1.3-3.5
						c-0.1-0.3-0.2-0.7-0.1-1.3c0.7-0.7,1.6-1.1,2.4-1.7c0.7-0.6,1.4-1.5,1.5-3.1l2.4,0.8c0,0,0-0.1,0-0.1L60.4,81
						c0.6,0.8,1.2,0.1,2-0.3L76.9,86c-0.3-0.2-0.6-0.4-0.7-0.8l-12.9-4.7c0.3,0.1,0.7,0.4,1.1,1c1.3,2-1.7,1.1-2.1,1.9
						c1.5,0.8,4.1,2.3,2.8,4.5C64.6,87.4,64.8,86.8,64.5,86.2z M89.4,85.5c-0.1,0.5,0.1,1.8-0.9,1.4C87.5,85.2,88.4,85.6,89.4,85.5z
						 M100.6,97.4c0.2,1,0,0.1-0.3-1.8C100.3,95.6,100.4,96.1,100.6,97.4z M128.7,158.3c0-0.1,0.1-0.2,0.1-0.3
						c0.9,0.3,1.5,0.5,1.8,0.6c0.3,0.1,0.4,0.1,0.3,0.1C130.7,158.7,130,158.5,128.7,158.3z M121.1,156.9c-0.8,0.6-0.8,1.3-0.4,2
						c0.3-0.6,0.9-0.9,1.7-1c0.7-0.1,1.6-0.1,2.6,0c-0.3-0.6-0.8-1.1-1.4-1.3c-0.3-0.1-0.6-0.1-1-0.1
						C122.3,156.5,121.7,156.7,121.1,156.9z M41.7,115.9l1.1,0.4C43.6,117.3,42.7,116.6,41.7,115.9z"/>
					<path class="st0" d="M101.7,100.3c-0.1-0.8-0.2-1.6-0.4-2.4C101.4,98.5,101.6,99.3,101.7,100.3z"/>
					<path class="st0" d="M71.9,92.9C71.9,92.9,71.9,92.9,71.9,92.9c0,0.2,0.1,0.3,0.1,0.4L71.9,92.9z"/>
					<path class="st0" d="M121.2,132.8c-0.1-0.9,0.1-1.9,0.4-2.8C120.8,131.1,120.5,132.1,121.2,132.8z"/>
					<path class="st0" d="M106.7,160.6c0.2-0.4,0.3-0.7,0.5-1.1c-0.2,0.1,0-1,0.1-1.9C107.1,158.8,106.8,160.5,106.7,160.6z"/>
					<path class="st0" d="M104.3,133.9c-0.1,0.8-0.2,0.5-0.2,1.2l0.1,2C104.4,136.3,104.7,134.1,104.3,133.9z"/>
					<path class="st0" d="M109.4,143.4c0.7-4.3-0.2-3.1-0.9-2.2c0,0,0.1-0.1,0.1,0C107.7,147.3,108.5,145.1,109.4,143.4z"/>
					<path class="st0" d="M108.3,141.4c-0.2,0.2-0.4,0.4-0.6,0.3C107.4,144,107.9,142,108.3,141.4z"/>
					<path class="st0" d="M110,157c0.2-1-1.9,4.6-1.4,3.1c-0.5,1.2-0.5,1.4-0.4,1.1c0.1-0.1,0.2-0.4,0.4-0.7c0,0,0-0.1,0.1-0.1
						l0.3,0l0.6-0.1c0.4-0.1,0.8-0.2,1.1-0.3c1.4-0.4,2.5-1.1,2.6-1.7c0-0.3-0.2-0.6-0.8-0.8c-0.3-0.1-0.7-0.2-1.1-0.3
						c-0.2-0.1-0.5-0.1-0.8-0.1C110.4,157,110.3,156.9,110,157C110.1,156.9,110.1,157,110,157z"/>
					<path class="st0" d="M111.2,129l-0.6,5.4c0.4-1.4,0.8-2.8,1.2-4.1C111.6,129.8,111.4,129.4,111.2,129z"/>
					<path class="st0" d="M115.2,137.3l-0.2-1l-0.2-1.4c-0.2,0.8-0.5,1.2-0.7,1.4c0.2,0.4,0.4,1,0.5,1.3
						C114.8,137.9,115,138,115.2,137.3z"/>
					<path class="st0" d="M114.1,136.3c-0.2-0.4-0.5-0.7-0.8,0C113.4,136.4,113.8,136.6,114.1,136.3z"/>
					<path class="st0" d="M113.3,128.5c0.1,0.4,0.1,0.8,0.1,1.2c0.2,0.3,0.5,0.7,0.6,1.1C113.8,129.9,113.6,129.2,113.3,128.5z"/>
					<path class="st0" d="M133.3,135.7c0.2-0.8,0.3-1.5,0.4-2.3c-1.1-1.5-2.1-2-2.1-1.1C132.1,133.6,132,134.5,133.3,135.7z"/>
					<path class="st0" d="M122,126.5c0.7,0.8,1.3,1.8,2.2,3.1l-3.1-5.5C121.4,124.9,121.7,125.7,122,126.5z"/>
					<path class="st0" d="M123.4,123.5c-0.5-0.7-1-2-1.6-2.9c-0.5-0.9-1-1.5-1.3-0.9c0.5,0.7,0.8,1.5,1.2,2.2
						C122.2,122.6,122.6,123.3,123.4,123.5z"/>
					<path class="st0" d="M128.8,116.2l0.4,0.1l6.4-9C133.4,110.3,131.1,113.3,128.8,116.2z"/>
					<path class="st0" d="M92,114.2c-0.9,1.8,0.7,1.1,2.1,0.4c1.4-0.7,2.8-1.4,1.6,0.5c1.2-0.4,1.6-1.1,2.1-1.9
						c0.4-0.7,0.9-1.4,1.9-1.7C97.1,111.6,98.4,110.1,92,114.2z"/>
					<path class="st0" d="M99.8,111.5c0.4,0,0.9,0,1.6-0.2C100.7,111.3,100.2,111.4,99.8,111.5z"/>
					<path class="st0" d="M78.5,171.1c0.2-0.6,0.3-1.2,0.3-1.9c-0.1,0.4-0.3,0.7-0.5,1.1C78.4,170.6,78.5,170.8,78.5,171.1z"/>
					<path class="st0" d="M77.2,167.3c0.2-0.1,0.5-0.2,0.7-0.3l-1-1C77.1,166.3,77.4,167,77.2,167.3z"/>
					<path class="st0" d="M95.8,86.6l-0.4-0.4c-0.6-0.3-0.9-0.2-1.5,0.1L95.8,86.6z"/>
					<polygon class="st0" points="81.8,96.2 82,96 80.3,95.2 					"/>
					<path class="st0" d="M59.4,82.8c0.1,0.6,0.8,1.1,0.9,1.7C59.5,83.4,61.7,82.3,59.4,82.8z"/>
				</g>
			</g>
		</g>
	</g>
	<g>
		<path class="st1" d="M30.7,109.9c10-38.2,48.6-61.1,85.9-50.7c35.7,9.7,60.9,44.9,51.5,81c-6,22.8-28.9,36.4-51.2,30.3l0,0
			l-12.1-3.3c-2.2-0.6-4.4,0.7-5.1,2.9c-0.2,0.9-0.1,2,0.3,2.9v0.1l0.1,0.1v0.1c0.9,1.9,2.6,6.6,1.1,12.3
			c-2.4,9.4-11.8,14.9-20.9,12.4h-0.1C43,187.6,20.7,148.1,30.7,109.9z"/>
		<path class="st1" d="M113.3,72c-30.4-8.4-61.9,10.2-70,41.3s10,63.4,40.4,71.7c2.2,0.6,4.4-0.7,5-2.9c0,0,0,0,0-0.1
			c0.2-1.1,0.1-2.1-0.3-3.1c-1.9-3.9-2.4-8.2-1.2-12.3c2.4-9.4,11.9-14.9,21-12.4l12.1,3.3c15.4,4.2,31.2-5.1,35.3-20.9l0,0
			C162.7,109.3,143.7,80.3,113.3,72L113.3,72z"/>
		<path class="st1" d="M129.3,130.1c0.9-3.5,4.5-5.6,7.9-4.7l0,0l3.4,0.9c3.4,0.9,5.5,4.6,4.6,8.1c-0.9,3.5-4.5,5.6-7.9,4.7
			l-3.4-0.9C130.4,137.3,128.4,133.7,129.3,130.1L129.3,130.1z M116.2,96.8c0.9-3.5,4.5-5.6,7.9-4.7l0,0l3.4,0.9
			c3.4,0.9,5.5,4.6,4.6,8.1c-0.9,3.5-4.5,5.6-7.9,4.7l0,0l-3.4-0.9C117.4,104.1,115.3,100.4,116.2,96.8L116.2,96.8z M83.6,86
			c0.9-3.5,4.5-5.6,7.9-4.7l0,0l3.4,0.9c3.4,0.9,5.5,4.6,4.6,8.1C98.6,93.8,95,96,91.6,95l-3.4-0.9C84.8,93.2,82.6,89.5,83.6,86
			L83.6,86z M57.6,112.5c0.9-3.5,4.5-5.6,7.9-4.7l0,0l3.4,0.9c3.4,0.9,5.5,4.6,4.6,8.1c-0.9,3.5-4.5,5.6-7.9,4.7l-3.4-0.9
			C58.7,119.8,56.7,116.1,57.6,112.5L57.6,112.5z"/>
	</g>
</g>
</svg>
