<?xml version="1.0" encoding="utf-8"?>
<!-- Generator: Adobe Illustrator 24.0.2, SVG Export Plug-In . SVG Version: 6.00 Build 0)  -->
<svg version="1.1" id="Layer_1" xmlns="http://www.w3.org/2000/svg" xmlns:xlink="http://www.w3.org/1999/xlink" x="0px" y="0px"
	 viewBox="0 0 198.4 198.4" style="enable-background:new 0 0 198.4 198.4;" xml:space="preserve">
<style type="text/css">
	.st0{fill:#80B5E7;}
	.st1{fill:#646565;stroke:#646565;stroke-width:2;stroke-miterlimit:10;}
</style>
<g>
	<g>
		<g>
			<g>
				<g>
					<path class="st0" d="M60,140.3c0.6-0.2,0.1-0.4,0.1-0.4C59.2,140.2,60.2,140.4,60,140.3z"/>
					<path class="st0" d="M63.4,140.2l0.5,0.1c-0.3-0.3-0.6-0.7-0.9-1C63.1,139.6,63.2,139.9,63.4,140.2z"/>
					<path class="st0" d="M66,134c-1.7-0.1-1.8,0.5-1.7,1.2c0,0.3,0.1,0.7,0.1,1c0,0.3-0.1,0.6-0.5,0.9l-0.7,0.2l1.8,0.6
						c0.1-0.7,0.1-1.5,0.1-2.2C65.2,135,65.4,134.3,66,134z"/>
					<path class="st0" d="M75.1,134.3c-1.4-0.5-0.6-0.6-1,0c0.2,0,0.3,0.1,0.4,0.1C74.6,134.3,74.8,134.3,75.1,134.3z"/>
					<path class="st0" d="M74.5,134.4C74.2,134.5,75.9,134.6,74.5,134.4L74.5,134.4z"/>
					<path class="st0" d="M45.4,131.6c-0.3-0.6-0.6-1.3-0.9-1.9c-1,0.4-1.6,2.3-2.1,1.6C42.7,133.4,43.8,132.8,45.4,131.6z"/>
					<path class="st0" d="M48.1,133.1l-0.5-0.9C47.2,132.4,47,132.7,48.1,133.1z"/>
					<path class="st0" d="M46.7,130.3c0.3,0.7,0.5,1.3,0.9,1.9c0.7-0.3,1.9-0.4-0.3-0.9C48.4,131.4,47.4,131.1,46.7,130.3z"/>
					<path class="st0" d="M47.6,129.1c1.1-1,1.9-2.2,2.7-0.5c0-0.4,0-0.8,0-1.1l20.8,4.8c0.1,0.6,1.3,0.9,2.1,0.9L48,127.5
						C47.8,127.9,47.6,128.4,47.6,129.1z"/>
					<path class="st0" d="M63,133c-0.4,0.2-0.8,0.3-1.1,0.5l0.8,0.8C62.3,133.9,64,133.2,63,133z"/>
					<path class="st0" d="M43.4,145c0.9-0.3,2.3-1.7,3.4-2.3c-0.4-0.4-0.9-0.7-1.3-1.1C45,142.6,44.7,144.3,43.4,145z"/>
					<path class="st0" d="M46.8,142.7c0.6,0.5,1.3,1,2,1.5C48.6,142.3,47.8,142.2,46.8,142.7z"/>
					<path class="st0" d="M52.5,132.8c-1-0.8-1.9-1.7-2.7-2.7c0.8,1.2,1.7,2.3,2.7,3.3L52.5,132.8z"/>
					<path class="st0" d="M46.6,154.7c-0.9,0-1.8,0-2.7-0.1c1.5,0.2,2.9,0.4,4.4,0.5C47.6,154.9,47.1,154.8,46.6,154.7z"/>
					<path class="st0" d="M51.6,161.1c-2.4,0.5-0.9,4.3-2.9,4.1c2,1.7,4.8,1.6,7.2,1.3C53.9,166.2,52.2,164.4,51.6,161.1z"/>
					<path class="st0" d="M59.7,166.1c-1,0-2.3,0.3-3.7,0.5C57.1,166.8,58.3,166.7,59.7,166.1z"/>
					<path class="st0" d="M49.6,148c-0.5,0.5-1.8,1.6-1.8,3.4c0.7-0.9,1.4-1.7,2.1-2.5C49.8,148.6,49.7,148.3,49.6,148z"/>
					<path class="st0" d="M50,148.8L50,148.8c0.3,1,0.5,1.7,0.7,2C50.5,150.6,50.3,150,50,148.8z"/>
					<path class="st0" d="M49.5,147.8c0,0.1,0,0.1,0.1,0.2C49.8,147.8,49.9,147.7,49.5,147.8z"/>
					<path class="st0" d="M50.5,138c0.8,0.4,1.6,0.9,2.5,1.1c0.9,0.1,1.8-0.2,2.7-1.5c-0.9-0.1-1.6,0.3-2.4,0.5
						C52.5,138.4,51.6,138.6,50.5,138z"/>
					<path class="st0" d="M52.3,145c-0.1-0.8-0.1-1.5-0.1-2.3c-0.7,0.3-1.5,1.2-2.4,0.9C50.6,144.2,51.4,144.6,52.3,145z"/>
					<path class="st0" d="M53.5,145.6c-0.4-0.2-0.8-0.3-1.2-0.5l0.1,0.9L53.5,145.6z"/>
					<path class="st0" d="M56.5,160c1.8-0.2,3,0.6,4.5,1.3c-1.2-1.5-2.4-2.9-3.6-4C56.7,157.8,55,158.7,56.5,160z"/>
					<path class="st0" d="M52.7,154.3c0.1,0,0.2,0.1,0.3,0.1C53,154.1,53,154,52.7,154.3z"/>
					<path class="st0" d="M74.9,166.5c-0.1-0.2-0.1-0.5-0.2-0.7c0,0.2-0.1,0.4-0.1,0.6L74.9,166.5z"/>
					<path class="st0" d="M57.6,156.5c-0.2-0.7-0.6-1-1-1.1c-0.5-0.1-1-0.1-1.6,0c0.9,0.5,1.7,1.1,2.5,1.8
						C57.8,156.9,58,156.7,57.6,156.5z"/>
					<path class="st0" d="M64.7,167c-0.5-1-1-1.9-1.6-2.8C63.4,165.6,64.2,167.8,64.7,167z"/>
					<path class="st0" d="M52.6,155.4c-0.1,0-0.2,0-0.2-0.1C52.2,156.1,52.4,155.9,52.6,155.4z"/>
					<path class="st0" d="M52.6,155.4c0.7,0.2,1.6,0.1,2.4,0c-0.7-0.4-1.4-0.8-2.1-1C52.9,154.7,52.7,155.1,52.6,155.4z"/>
					<path class="st0" d="M77.8,143.4c0,1.7-0.3,3.4-0.9,4.1c-0.5,0.7-1.3,0.6-1.8-1.3c-0.7,1.2-1.3,4.4-1.4,8.2
						c-0.2,3.8,0.2,8.1,1,11.4c0.1-1.5,0.3-2.7,2.3-4.5c-0.3-1-1.4-2.2-2.1-3.5c-0.7-1.3-1-2.7-0.2-4.1c2.2-1.5,1.7,1.4,2.8,3.2
						c-0.5-2.1,0.2-3.6,0.8-5.4c0.6-1.8,1.1-3.9,0.7-7.1c-0.4,0.8-0.9,1.6-1.3,2.3C77.7,145.8,78.2,144.2,77.8,143.4z"/>
					<path class="st0" d="M70.1,164.4c-0.4,0-0.7,0-1.1,0.1c1.1,1,1.7,2.5,3.2,5.4c2-1.2,2.3-2.4,2.5-3.5c-1.6-0.4-3.2-0.9-5-1.6
						L70.1,164.4z"/>
					<path class="st0" d="M64.1,162.4c1-1.4,2.3-2.1,3.1-3.1c0.9-1,1.4-2.2,1.3-4.2c-1.2-0.4-1.9,0.1-2.5,0.7
						c-0.6,0.6-1.2,1.4-2.4,1.6c1.2,0.5,1.6,0.7,1.7,0.9c0.1,0.2-0.2,0.4-0.6,0.7c-0.8,0.5-2,1.1-0.5,3c-1.2,0-2.2-0.4-3.1-0.8
						c0.7,0.9,1.4,2,2.1,3c0-0.1,0-0.2,0-0.3l0,0c0,0,0,0,0,0c-0.1-0.5-0.1-0.8,0.1-0.4c0,0,0.1,0,0.1,0
						C63.6,163.1,63.8,162.7,64.1,162.4c1.3,1.4-0.1,1-0.7,1.1c-0.1,0.1-0.2,0.3-0.3,0.4c0,0,0,0,0,0c2.1,0.4,4,0.5,5.9,0.5
						C68,163.6,66.6,163.3,64.1,162.4z"/>
					<path class="st0" d="M61.6,137.1c-0.2,0.2-0.4,0.2-0.6,0.3C61.5,137.4,61.7,137.4,61.6,137.1z"/>
					<path class="st0" d="M60.5,138.8c-0.4,0-1.5,0.3-1.5-0.5c0.6-0.9,1.2-0.5,2.1-0.9c-0.8,0-2.3-0.7-3.1,1.1l0.4,0.1
						c-0.2,0.7-1.1,1.9-1.8,2.9c-0.7,1-1.5,1.9-1.7,1.8C57,141.7,58.5,140.5,60.5,138.8z"/>
					<path class="st0" d="M59.5,148.7c0.5,0.3,1.1,0.5,1.7,0.8c0.6,0.2,1.1,0.4,1.7,0.5c0.2-1.1,0.4-2.2,0.6-3.2l-1,1.3
						C61.7,146.3,60.6,148,59.5,148.7z"/>
					<path class="st0" d="M75.3,168.3c-0.2,1.2-0.5,2.5-0.7,3.7c0.9-1.6,1.7-3.3,2.4-5.1C76.4,167.5,75.8,167.9,75.3,168.3z"/>
					<path class="st0" d="M79.8,168.4l0,3.4c0.4-0.7,0.7-1.3,1-2L79.8,168.4z"/>
					<path class="st0" d="M73,136.2c-0.3,0-0.6,0-0.9,0.1C72.5,136.3,72.8,136.3,73,136.2z"/>
					<path class="st0" d="M78.4,137l0.4-0.6C78.4,136.8,78.1,137,78.4,137z"/>
					<path class="st0" d="M120,82.9c-0.4-0.7-0.8-1.5-1.2-2.2c-0.2-0.4-0.4-0.7-0.7-1.1c-0.3-0.4-0.6-0.8-1-1.2
						c-1.4-1.5-2.9-2.9-4.3-3.8c-0.2-0.1-0.3-0.2-0.5-0.3c-0.2-0.1-0.4-0.2-0.6-0.3c-0.4-0.2-0.8-0.4-1.1-0.5
						c-0.7-0.3-1.4-0.4-1.9-0.4c-1,0-1.5,0.5-1.3,1.6c0.9,1.5,1.7,3,2.3,4.5c0.4,0,0.7,0,1.1,0c0.4,0,0.7,0,1,0.1
						c0.6,0,1.1,0.1,1.6,0.2c1.1,0.2,2,0.5,2.9,0.9c0.4,0.2,0.9,0.4,1.2,0.6c0.3,0.2,0.6,0.4,0.9,0.6
						C119.1,81.9,119.6,82.4,120,82.9z"/>
					<path class="st0" d="M115.1,119.5c0,0.2,0,0.5,0.1,0.7c0.2-0.5,0.4-1,0.6-1.4c0.3-1,0.6-1.9,0.9-2.8
						C116.1,117.3,115.4,119.1,115.1,119.5z"/>
					<path class="st0" d="M112.6,130.7c-0.1-0.5-0.2-1-0.3-1.4C112.3,129.8,112.5,130.2,112.6,130.7z"/>
					<path class="st0" d="M62.7,118.4l-2.1,0.1C61.4,119.4,61.9,118.7,62.7,118.4z"/>
					<path class="st0" d="M119.3,155.7c2,0.7,3.3,0.7,4.1,0.4C120.5,155,117.1,152.6,119.3,155.7z"/>
					<path class="st0" d="M84.3,119.7c-0.3,0.4-0.7,0.8-0.9,1.2C83.7,120.6,84,120.2,84.3,119.7z"/>
					<path class="st0" d="M125.9,153.9c-0.5-0.2-0.8-0.2-1.2-0.4c-0.1,1.1-0.4,2.1-1.4,2.5C125.4,156.9,127.2,157,125.9,153.9z"/>
					<path class="st0" d="M86,79.9c0-0.2,0-0.3,0.1-0.5C85.8,79.7,85.8,79.8,86,79.9z"/>
					<path class="st0" d="M72.2,53.4c0.1-0.2,0.3-0.4,0.5-0.6c0.2-0.2,0.5-0.4,0.8-0.6C73.2,52.4,72.8,52.6,72.2,53.4z"/>
					<path class="st0" d="M97.3,169.2C96.5,169.6,97.3,169.6,97.3,169.2L97.3,169.2z"/>
					<path class="st0" d="M88.9,154.4c0-0.5,0-1.1-0.2-2C88.9,153.4,88.9,154,88.9,154.4z"/>
					<path class="st0" d="M109.8,129.3C109.8,129.3,109.8,129.3,109.8,129.3C109,128.8,109.2,128.9,109.8,129.3z"/>
					<path class="st0" d="M95.4,167.7c0.5,0.4,1,0.7,1.5,0.9C96.6,168.3,96.2,168,95.4,167.7z"/>
					<path class="st0" d="M96.2,169.5c-0.4-0.1-0.6-0.2-0.9-0.2C95.3,169.9,95.6,170.3,96.2,169.5z"/>
					<path class="st0" d="M98.5,168.7c-0.5,0.2-1,0.1-1.6-0.1c0.3,0.2,0.4,0.4,0.4,0.6C97.6,169.1,97.9,168.9,98.5,168.7z"/>
					<path class="st0" d="M86.6,73c0.1,0.1,0.1,0.1,0.2,0.3c0-1,0.1-1.3,0-1.3C86.8,71.9,86.7,72.3,86.6,73z"/>
					<path class="st0" d="M106.4,129.5c0-0.1,0-0.1-0.1-0.2c0,0,0,0,0-0.1L106.4,129.5z"/>
					<path class="st0" d="M107.3,132.5c-1.2-3.9-1.2-3.9-1-3.3l-2.6-8.4C104.9,124.9,106.1,128.8,107.3,132.5z"/>
					<path class="st0" d="M67.3,131.9c-0.6,0.4-1.1,0.7-1.7,1c-1.1,1.7-0.3,1.5-2.2,2.7c2-1.9,1.6-2.1,1.2-2.3
						c-0.1,0-0.2-0.1-0.3-0.1c-0.1-0.1,0.2,0.1,0.3,0.2c0.2,0.1,0.4,0.2,0.6,0.3c0.8,0.3,1.5,0.2,2.3-0.4c0.1,0.5,0.2,0.9,0.4,1.4
						c-0.3-0.2-0.5-0.1-0.7-0.3c0.3,1.5,1.2,1.2,2.3,0.7c1.1-0.5,2.2-1.1,3.4-0.4c0.7,0.6,1.1,1.3,0.2,1.5c0.9-0.1,1.9-0.3,2.7-0.5
						c0.6,0.2,0.1,0.8-0.5,0.7c1.2,0.1,2.4,0,3.6-0.1l-0.1,0.1c0.8-0.6,2.2-1.7,2.9-2.3c0.7,0.6-0.6,0.5-0.5,1
						c0.8-0.4,1.5-0.9,2.2-1.3c0.3,0.5-0.1,1.2-0.6,1.6c-0.6,0.5-1.4,0.8-2.1,0.7c0.3,2.2,0.9,1.9,1.8,1.3c0.9-0.6,2-1.4,4.1-0.4
						c-0.7,0.3-1.5,0.6-2.2,0.8c0.5,1.2,1.3,1.6,2.3,1.8c0.1,0,0.2,0,0.4,0.1c0.1,0,0.3,0.1,0.4,0.1c0.3,0.1,0.6,0.2,0.9,0.3
						c0.6,0.2,1.3,0.6,2.1,1.1c-0.4-0.5-1.9-1.7-2.8-2.8c-0.5-0.6-0.7-1.1-0.8-1.6c0-0.5,0.2-1,0.8-1.2c0.7,0.3,1.7,0.6,2.9-0.4
						c0.1,1.9,1.5,1.1,3.2,0.6l0.4,2.4c0.2-0.1,0.4-0.3,0.6-0.4c0.1-0.1,0.2-0.1,0.2-0.2c0.1,0,0.1-0.3,0.3,0.1
						c0,0.1,0.1,0.2,0.1,0.2l0,0l0.1-0.1c0-0.1,0.1-0.1,0.1-0.2c0-0.1,0.1-0.3,0.1-0.4c0.1-0.5,0.1-1.1,0.3-1.7
						c1.5,0.1,2.4,2.1,3.2,3.8c1.3,0.2,0.6-0.6,0-1.5c-0.6-0.9-1.2-1.9,0.1-2.3c2.2,0.9,3.3-0.2,5-2.2c1.7,0.9,0.4,1.9,1.1,2.7
						c0.1-0.8,0.3-1.7,0.4-2.5c0.3,0,0.5,0.8,0.6,1.2c0.3-0.5,0.1-1.3-0.1-2.1c-0.2-0.8-0.2-1.5,0.3-2.1c-0.5-1.8,0.5-0.7,1.3,0.4
						c0.9,1.1,1.4,2.2,1.7-0.2c0.3,0.9,0.1,2.2,0.3,3.5c0.3-1.6,0.6-2.3,0.8-3c0.2-0.8,0.4-1.6,1.2-3.9c0.3,0.7,0.6,1.3,0.8,2.1
						c-0.1-1.3,0-2.8,0.5-4.5c0.5-1.7,1.4-3.5,2.3-5.2c0-0.2,0-0.3,0-0.5c0,0,0-0.3,0-0.4c0-0.2,0-0.3,0-0.5c0-0.6,0.1-1.2,0.1-1.8
						c0-1.1,0-1.9-0.1-2.3l1.8-3.2l2.2-3.8c0,1.2-1.2,4.9-2.5,8.9c0.4-0.9,0.7-1.8,1-2.5c0,0.7-0.1,1.7-0.3,2.7
						c-0.1,0.5-0.3,1.1-0.4,1.7c-0.1,0.2-0.1,0.4-0.2,0.6c0,0.1-0.1,0.3-0.1,0.4c-0.3,1.1-0.8,2.3-1.3,3.5c0-0.7-0.1-1.4-0.1-2.2
						c-1,2.6-1.8,5.4-2.1,7.6c0.2-0.5,0.4-0.9,0.6-1.2c-0.2,0.7-0.4,1.3-0.4,1.7c0,0.4,0.3-0.5,0.7-1.6c-0.2,1.4-0.5,2.9-0.7,4.3
						l0.5-1.8c0.3,0.7,0.4,1.5,0.5,2.3l0.5-1c0.1-0.3,0.4-0.7,0.4-1c0.1-0.5,0.3-1.1,0.4-1.6c0.2-1.1,0.4-2.1,0.5-3
						c0.2-1.8-0.1-2.9-1.3-2.7c0,1.2-0.2,2.3-0.5,3.6c-0.3,1.3-0.7,2.6-1,4.3c0.6-2,0.9-1.9,1-1.4c0.2,0.5,0.1,1.3,0.6,0.6
						c-0.5,0.8-1,2.5-1.1,3.1c0.1-0.9,0-1.7-0.2-2.4c-0.7,2.8-0.8,2.4-1.3,3.7c1.4-5.6-0.4-2.8-1.2-4.1c-0.1,1.7,0,3.4,0.7,2.6
						c-0.6,2.1-0.6,0.7-0.9-0.7c-0.2-1.4-0.7-2.9-1.2-1.4c0.3,0,0.4-0.2,0.5,0.6c-0.2-0.4-0.4-0.5-0.6-0.6c-0.2-0.1-0.4-0.1-0.6,0.1
						c-0.4,0.2-0.5,0.8-0.2,1.6l0.2,0.1c-0.3,0.1-0.7,0-1.1-0.3c-0.4-0.3-0.8-0.9-1.1-1.6c-0.7-1.5-1.5-3.8-2.4-6.7
						c0.2,0.7,2,6.5,2.5,7.9c-1.1-3.3-2.2-6.9-3.4-10.8l-2-6.8c-0.9-3.1-1.8-6.2-2.6-9.2c0.7,2.3,1.5,4.9,2.4,8
						c0.7,2.2,1.4,4.7,2.1,7c1.3,4.2,2.5,8.4,3,10.4c0.2,0.4,0.4,1.1-0.2-1.5c-0.1-0.3-0.7-2.2-1.3-4.1c-0.6-1.9-1.2-3.8-1.2-4.3
						c0.9,2.6,1.2,3.3,1.4,3.9c0.2,0.6,0.4,0.9,1.2,3.4c-0.2-0.5-0.9-3.2-1.6-5.9c-0.7-2.7-1.2-5.4-1.1-5.6c0.4,1.6,2.5,9.8,2.7,11
						c-0.7-3.6-1.4-7.5-1.9-11.5c0.2,2.3,1.9,8.8,2.6,11.6c-0.3-1-0.1-1.1,0.1-1.2c0.2,0,0.6,0.1,0.6-0.5c-0.3-0.8-0.6-1.5-0.8-2.3
						c0.2,0.1,0.3-0.1,0.4-0.5c0-0.4,0.2-1,0-1.6c-0.2-0.7-0.3-1.5-0.4-2.4l0,0l-0.7-10.3l0,0l0,0l0,0l0,0l0,0l0,0.1
						c0,0,0,0.1,0,0.1c0,0,0,0.1,0,0.1c0,0.1,0,0.2-0.1,0.3c0,0.2-0.1,0.4-0.2,0.6l0,0.1l0,0l0-0.1l0.1-0.2c0.1-0.2,0.2-0.3,0.2-0.4
						c0.2-0.3,0.3-0.5,0.5-0.6c0.3-0.3,0.6-0.3,0.8-0.1c-0.4,0.4-1.2,1.3-2.1,2.5c-0.2,0.3-0.5,0.6-0.7,0.9l-0.1,0.1c0,0,0,0,0,0
						l0,0l0,0l0-0.1c0,0-0.1,0.1-0.3,0.4c-0.1,0.1-0.2,0.3-0.4,0.5c-0.2,0.2-0.4,0.5-0.8,0.9c-0.3,0.3-0.8,0.8-1.4,1.4l0,0
						c0,0,0,0,0,0l0.2-0.2l0.4-0.4c0.3-0.3,0.6-0.5,0.9-0.8c0.6-0.5,1.3-1,1.9-1.5c1.3-1,2.8-2,4.3-2.9c3-1.8,6.2-3.2,9.1-4.1
						c2.9-0.9,5.3-1.2,6.9-0.9c-0.9,0.8-1.8,1.5-2.7,2.2c1.6,0.2,3.2,0.5,4.8,0.8c-4.6,0.9-11.7,2.5-18.1,4.9
						c-3.2,1.2-6.2,2.7-8.7,4.1c-0.6,0.4-1.2,0.8-1.8,1.2c-0.3,0.2-0.5,0.4-0.7,0.5c0.2-0.1,0.3-0.2,0.5-0.4
						c0.3-0.2,0.6-0.5,0.9-0.7c0.3-0.2,0.6-0.4,0.8-0.6c-1.2,0.9-1.4,1.1-1.7,1.3c-0.3,0.2-0.8,0.6-2.7,1.9
						c-0.6,0.4-0.1,0.1,0.6-0.4c0.8-0.5,1.9-1.3,2.5-1.8c-0.7,0.6-1.4,1.1-2.2,1.6c-0.7,0.5-1.4,1-2.1,1.4c-0.4,0.2-0.7,0.4-1.1,0.6
						c-0.3,0.2-0.6,0.4-0.9,0.6c-0.6,0.4-1.3,0.7-1.9,1c-0.2,0.1-0.3,0.2-0.6,0.3c-0.2,0.1-0.4,0.2-0.6,0.3c0.4-0.2,0.8-0.4,1.1-0.5
						c1.4-0.6,2.8-1,5.6-2.1c-1.2,0.3-2.3,0.5-3.4,1l-0.8,0.3l-0.4,0.2l-0.2,0.1l-0.1,0.1l0,0l0.1,0c0.7-0.4,1.4-0.7,2.1-1.2
						c0,0,0,0-0.1,0.1l-0.1,0.1l0,0l0,0l0.1,0c0.1-0.1,0.2-0.1,0.3-0.2c0.4-0.2,0.9-0.5,1.4-0.8c1.9-1,3.9-2,5.7-2.7
						c3.6-1.4,6.8-1.7,6.5-0.5c-1.2,0.7-4.3,1.6-7.2,2.6c-2.9,1-5.8,1.9-6.9,2.4c2.3-0.8,4.5-0.9,2.9-0.1c-0.6,0.1-1.3,0.1-1.9,0.3
						c-0.6,0.1-1.2,0.3-1.8,0.4c-0.6,0.3-0.4,0.2,0.3,0.2c0.6-0.1,1.7-0.2,2.6-0.4c0.6-0.1,1.2-0.2,1.8-0.3c0.3-0.1,0.6-0.1,0.9-0.2
						c0.4-0.1,0.8-0.1,1.2-0.2c0.7-0.1,1.5-0.2,2.1-0.3c0.9-0.1,2-0.2,2.7-0.3c0.7,0,1.2,0,1.2,0c-0.2,0-0.3,0-0.5,0
						c-0.1,0-0.3,0-0.4,0l-0.2,0l-0.1,0l0,0l0,0l0.3,0c2-0.1,4.1-0.2,6.1-0.3c8.1-0.5,16-1,19.1-0.2c-0.3,0.2-2.2,2.2-4.8,3.4
						c-1.3,0.6-2.8,1.1-4.1,1.3c-1.4,0.2-2.7,0.2-3.7,0c-1.6-0.3-3.3-1-5-1.7c-1.7-0.7-3.4-1.5-5.2-2.1c-2.6-0.9-1.4-0.5-1.5-0.5
						c0.1,0,0.1,0-0.1,0c0,0-0.1,0-0.2-0.1c-0.2-0.1-0.3-0.1-0.4-0.2c-0.2-0.1-0.2-0.1-0.3-0.1c-0.1,0-0.1,0-1.2-0.5
						c-0.1-0.1-0.2-0.1-0.3-0.2c-0.2-0.1-0.4-0.2-0.6-0.3c-0.3-0.1-0.5-0.3-0.8-0.5c-0.3-0.2-0.5-0.3-0.7-0.4
						c-0.2-0.1-0.5-0.2,2.5,1.4c0.9,0.6,0.5,0.5-0.1,0.3c-0.6-0.2-1.3-0.6-1.5-0.1c2,1.3,5.1,3.9,7.6,6.6c2.6,2.7,4.7,5.4,5,6.7
						c-1.4-1.3-3.4-2.6-4.4-3.2c-2.2,1.6-5.5,0.3-7.1,1.7c-1.4-1.1-3.5-2-5.2-4.6c0.7,1.1,2.1,3.2,1.7,3.7c-4.9-3.9,0.4-1.6-5.2-6.7
						c2.7,3.2,2.7,5.4,3.5,8c2,2.4,2.7,2.3,2.7,1.3c0-1.1-0.7-3-1.3-4.3c3,3.3,5.7,7,7.6,10.5c1.9,3.5,2.9,7,2.7,9.5
						c-0.9,3.2-4.2-4-3.8-2.7c-1.2,0.3-1.4,1.3-1.3,2.7c0.1,1.4,0.6,3.1,0.9,4.6c0.8,3.1,1.1,5.8-2.4,4c-2-2-3.1-4.4-4.1-6.7
						c-1-2.3-1.8-4.4-2.7-6.1c0.3-1.3,1.3-0.8,2.4-0.2c1.1,0.7,2.2,1.5,2.7,1.1c-0.9-0.5-1.8-1-2.6-1.5c-0.4-1.9-0.1-3.6,1.2-2.6
						c-0.9-0.9-1.7-1.2-2.5-1.2c-0.4,0-0.8,0.1-1.2,0.2c-0.4,0.1-0.8,0.3-1.2,0.4c-1.6,0.7-3.6,1.3-5.6-0.2c0.2,1.8-0.2,3.8,0.9,5.6
						c0.2-0.3,0.5-0.6,0.7-1c1.1,1.8,1.2,3.3,1.1,4.6c-0.1,1.2-0.2,2.2,0.8,2.9c-0.3,1.6-0.5,3.6-1.2,4.9c-0.6,1.3-1.6,2-3,1.1
						l-1.6-5.5c0.4,1.6,2.2,3.1,2.4,1.3c-0.1,1.3-1.5-0.4-2.5-1.5c-1.1-1.2-1.9-1.7-1.8,1.9c0.7,1.2,1.5,2.4,2.3,3.6
						c-0.6,1.5-1.2,3.7-2,5.3c-0.9,1.6-2,2.6-3.2,1.7c0.8,2.7,0.9,2.5,1.1,2.5c0.2,0,0.5,0,1.8,3.2c-1.2-3.9,0.4-3.8,1.8-3.8
						c1.5,0,2.8-0.1,0.8-4.2c1.5,3.6,2.5,4.4,3.5,4.9c1,0.6,2,0.9,4.2,4c-0.6-1.8-1.8-3.3,0.6-2.8c-0.1-0.6,0-1.3,0-1.7
						c0.1,0,0.1,0.1,0.2,0.1c-0.1-0.1-0.1-0.1-0.2-0.2c0-0.3,0-0.4-0.1-0.1c-0.7-0.7-1.4-1.6-1.8-2.6c-0.2-4.4,2.6-4.9,2.7-7.4
						c1.4,0.6,0.4,2.2,1.7,4c0.1-1.2,0.1-2.4,0.1-3.7c0.9,2,2.3,3.4,3.3,4.8c1,1.3,1.7,2.6,0.8,4.2l2.6-0.7c2.5,1.7,5.2,1.8,5.5-0.4
						c1.7,0.3,0.3-5.7,1.2-2.1c0.8-1.4,1.4-2.8,2.1-4.3l0.7,0.9c1-0.4,1.6-1.2,2.1-2.2c0.5-1,0.9-2.1,1.4-3.1c0.5-1,1.2-1.7,2.3-2
						c1.1-0.3,2.6-0.2,4.9,0.7c0.2-1.7,0-3.6,2.6-4.1l3.3,2.5c0-1.1,1.7-1.3,3-1.7c1.3-0.4,2.2-1,0.8-2.6c2.5,1.4,4.2,1.8,5.4,1.6
						c0.3-0.1,0.6-0.1,0.8-0.3c0.3-0.2,0.6-0.4,0.8-0.7c0.3-0.3,0.5-0.6,0.8-1c0.2-0.4,0.5-0.8,0.7-1.3c1-1.9,1.8-4.5,2.6-7.1
						c0.8-2.6,1.5-5.2,2.5-7.1l-5.2-1.7c0.8-2.5,0.9-5.3,0.4-8.1c-0.5-2.8-1.7-5.3-3.1-7.3l-4.7,1c-2.2-1.4-1.8-3.3-1.1-5.2
						c0.4-0.8,0.8-2,1-3.1c0.2-1.1,0.1-2.2-0.4-3.1c1.8-0.4,1.8,0.8,1,1.8c2.1-2,2.3-3.7,1.5-4.9c-0.3-0.6-1-1.1-1.7-1.6
						c-0.7-0.4-1.6-0.8-2.4-1.2c-0.9-0.3-1.7-0.6-2.6-1c-0.9-0.4-1.6-0.7-2.3-1.2c-0.7-0.5-1.2-1.1-1.5-1.8
						c-0.4-0.8-0.5-1.8-0.4-3.1c-0.6,0-1.2-0.2-1.6-0.4c-0.4-0.2-0.8-0.4-1.1-0.7c-0.3-0.3-0.5-0.6-0.7-1c-0.2-0.4-0.5-0.9-0.7-1.4
						c0.2,0.1,0.4,0.2,0.7,0.2c-0.2-0.2-0.5-0.5-0.8-0.7c-0.2-0.7-0.5-1.3-0.8-2c-0.1-0.3-0.4-0.7-0.7-1.1c-0.3-0.4-0.6-0.8-0.9-1.1
						c0.4,0.8,0.8,1.6,1.2,2.3c0.2,0.6,0.5,1.2,0.7,1.6c-0.5-0.3-0.9-0.5-1.6-0.8c-0.7-0.3-1.5-0.6-2.4-0.9
						c-0.4-0.1-0.9-0.2-1.3-0.3c-0.2,0-0.5-0.1-0.7-0.1c-0.3-0.1-0.6-0.1-0.9-0.2c-1.2-0.2-2.4-0.3-3.6-0.2
						c-0.2-0.9-0.3-1.7-0.6-2.6c-0.3-0.9-0.6-1.7-1-2.6c-0.5,0-1,0-1.5,0c-1.6-0.5-2.7-0.6-3.5-0.4c-0.2,0.1-0.3,0.1-0.5,0.2
						c0,0,0,0,0,0.1l0,0.2c0,0.1,0,0.2,0,0.3c0,0.2,0,0.4,0,0.6c0,0.7,0,1.2,0.1,1.5c0,0.3,0,0.5,0.1,0.5c0,0,0,0,0,0l0-0.1
						c0.1,0.1,0.1,0.2,0.2,0.3c0.5,0.8,1.1,1.7,1.8,2.7c-0.3,0.1-0.6,0.2-1,0.3l-0.5,0.2l-0.2,0.1c0,0-0.1,0-0.1,0.1l0,0.3
						c0,1.7,0,3.4,0,5.1c0,3,0,5.7,0,8.2c0,0.2,0,0.5,0,0.7c0,0.1,0,0.3,0,0.4l0,0.1c0,0,0,0,0,0l0,0c0,0-0.1-0.1-0.1-0.1
						c-0.1,0-0.2,0-0.3,0.1c-0.1,0.1-0.2,0.2-0.3,0.4c-0.1,0.1-0.2,0.2-0.3,0.3c-0.2,0.2-0.4,0.4-0.6,0.5c-0.2,0.2-0.4,0.2-0.6,0
						c0,0.2-0.1,0.4-0.1,0.6c-0.1,0.2-0.1,0.3-0.2,0.5c-0.1,0.2-0.2,0.4-0.3,0.6l0,0.1l0,0l-0.1-0.5c-0.2-0.6-0.4-1.3-0.6-1.9
						c-0.4-1.2-0.7-2.5-1.1-3.7c-0.7-2.2-1.3-4.4-2-6.5l0-0.1l0,0l0,0.1l0,0.1l0,0.2c0,0.2,0,0.3,0,0.5c0,0.3,0,0.7,0.1,1
						c0.1,1.5,0.4,3.3,1,5.6c-0.3-1.1-0.5-1.5-0.4-1.9c-0.5-0.4-1.1-0.9-0.5,2.2l-2-6.5c0.7,3.4,1.6,6.9,2.5,10.4
						c-1.3-3.4-2.2-5.8-3.7-11.8c0.5,2.4,0.9,3.9,1.2,5c0.3,1,0.4,1.6,0.5,2.1c0.2,0.6,0.4,1.3,0.6,2.1c0.2,0.6,0.4,1.2,0.6,2
						c0.3,0.9,0.6,1.9,1.1,3.1l-1.6-5c0.1,0.2,0.3,0.7,0.5,1.4c0.3,0.7,0.6,1.6,0.9,2.3c0.3,0.7,0.5,1.3,0.6,1.5
						c0.1,0.2,0.1-0.1-0.1-1.2c-0.2-1.1-0.4-2-0.3-2.6c0-0.3,0.1-0.6,0.2-0.8c0.1-0.1,0.1-0.2,0.2-0.3l0.1-0.1l0,0l0,0
						c0,0,0,0.1,0,0.1l0.1,0.2c0.2,0.6,0.4,1.3,0.7,2c0.9,2.8,1.9,5.7,2.9,8.8c0.1,0.4,0.3,0.8,0.4,1.2c0,0.1,0,0.1,0,0.1l0,0l0,0
						l0.1,0l0.2,0.1c0.2,0,0.3,0.1,0.5,0.1c0.3,0.3,0.7-0.2,1-0.3l0.3-0.2l0.1-0.1l0.1-0.2c0.2-0.3,0.4-0.6,0.6-0.9
						c0.3-0.8,0.9-0.9,1.4-1.2l0.4-0.2c0.1-0.1,0.3-0.2,0.4-0.3l0.8-0.7c0.5-0.5,1.1-1.2,1.7-1.8c0.6-0.7,1.2-1.4,1.8-2.1
						c2.5-3.1,5.1-7,8-12.3c-1.3,4.7-1.5,6.1-1.3,6.1c0.2,0,1-1.7,1.9-3.7c1.8-3.8,4.3-9.1,2.4-1.9c0.8-2.5,1.7-4.8,2.4-6.8
						c0.7-2,1.1-3.6,0.9-4.6c0.9-0.4,2-1.6,3-3.1c1-1.5,2.1-3.3,3-4.7c0.9-1.5,1.7-2.6,2.1-2.6c0.2,0,0.3,0.2,0.3,0.9l0,0.3l0,0
						l0,0.1l-0.1,0.2l-0.2,0.4c-0.3,0.5-0.5,1-0.8,1.6c-0.6,1.1-1.1,2.2-1.7,3.5c0.5-2.2,1.6-4.6,2.6-6.8c1-2.2,2-4.2,2.1-5.3
						c-0.5,1-1.6,2.9-2.4,4.3c-0.9,1.4-1.5,2.2-1.4,1.2c0.1-2,2.6-5.7,4.8-9.7c-4.7,6.1-8.4,13.1-10.8,19.4c-2.4,6.2-4.2,12.8-6,19
						c-0.3-1.8-1-2-1.9-0.7c-0.9,1.3-1.9,3.8-3.1,7.6c0-1.4-0.2-2.5-0.1-3.8c0.1-1.3,0.6-2.7,2-4.6c-0.3,0.3-1,0.7-1.9,1.3
						c-0.4,0.3-0.9,0.7-1.5,1.2c-0.2,0.2-0.5,0.4-0.7,0.6c-0.2,0.2-0.5,0.4-0.7,0.6c-0.9,0.9-1.9,2-2.5,3.2
						c-0.2,0.3-0.3,0.6-0.5,0.9c-0.1,0.3-0.2,0.6-0.3,0.9c-0.2,0.6-0.3,1.2-0.3,1.9c-0.4-1.1-1.6,1-1.8,1.7
						c-1.2,0.9-1.8,1.2-2.4,1.6c-0.3,0.2-0.6,0.5-1,0.8c-0.4,0.3-0.8,0.7-1.2,1.2c0.2,0.1,0.5,0.1,0.7,0.2c0.1,2.6-0.2,3-0.7,3.1
						c-0.3,0-0.6,0-1,0c-0.2,0-0.4,0.1-0.5,0.2c-0.2,0.1-0.3,0.1-0.4,0.3l-0.1-0.4c-1.9-0.6-2-0.1-2.3,0.3c-0.2,0.4-0.5,0.7-2.3,0
						l0.8,2.1c0.6,2.4-0.3,1.9-1.4,1.3c-1.1-0.7-2.5-1.5-3.1-0.3l0.9,0.9c-0.3,0.9-1.3-0.3-2.4-1.6c-0.5-0.7-1.1-1.4-1.6-1.9
						c-0.5-0.5-0.6-1.1-0.8-1.2c-0.1-0.3,0-0.6,0-0.9c-0.4-0.5-0.5-0.6-0.5-0.5c0,0.1,0,0.5,0.1,1c0.2,1,0.5,2.3,0,2.7
						c-0.3-1.3-0.3-3.4-0.6-3.6c-0.1-0.5-0.3,0.6-0.8,1.7c-0.5,1-1.3,2-1.3,0.6c-0.2,1.1-0.2,2.2-0.9,3.1c-0.5,0.3-0.7-0.7-0.8-1.3
						c-0.2-0.6-0.3-0.9-1.7,1c0.1-0.3,0.2-0.6,0.4-0.9c-0.5,0.5-1.2,0.9-2.1,1.3c-0.8,0.5-1.8,0.9-2.8,1.8c1.3-1.9,1.7-2.7,1.5-3
						c-0.1-0.1-0.3-0.2-0.7-0.2c-0.2,0-0.3,0-0.5,0l-0.3,0c-0.1,0-0.2,0-0.2,0c-0.2,0.3-0.2,0.6,2.6-2l1.2-0.7l0.4-0.4
						c0.2-0.1,0.3-0.2,0.4-0.3l0,0c-0.1-0.8-1.2-0.3-2.4,0c0.2-0.5,0.8-0.6,1-0.8c0-0.5-0.1-0.8-0.2-1.1c-0.1-0.1-0.1-0.2-0.2-0.3
						c0,0-0.1-0.1-0.1-0.1c-0.1-0.1-0.1-0.2-0.1-0.2c-0.4-0.7-1.3-1.1-3-1.8l1.7-1c-0.6-0.1-0.2-1.5,0.2-3.2
						c0.2-0.8,0.3-1.7,0.3-2.6c0-0.8-0.4-1.7-1-1.8c0.3-0.1,0.7-0.2,1-0.2c-0.3-0.2-0.4-0.3-0.3-0.4c0,0,0,0,0,0l-0.6,0.2
						c-0.4,0.1-0.7,0.2-0.9,0.2c-0.5,0.1-0.9,0.2-1.2,0.2l-0.4,0l-0.1,0l-0.1,0l0,0l0,0h0c3.4-0.1,1,0,1.7,0l0,0l-0.1,0
						c-0.5,0-1,0-1.5,0l-0.2,0l-0.1,0l-0.3,0c-0.2,0-0.3-0.1-0.5-0.1l-0.2-0.1l-0.2,0c-0.1,0-0.2-0.1-0.3-0.1
						c-0.7-0.3-0.3-0.3,0.3,0.5c0.2,0.2,0.3,0.4,0.4,0.6c0.2,0.3,0.3,0.5,0.4,0.7c0.4,0.7,0.7,1.2,0.9,1.7l0.3,0.6l0.2,0.5l-0.1-0.3
						c0-0.2,0-0.4-0.1-0.6c0-0.4,0.1-0.9,0.3-1.4c-0.3-0.1-0.5-0.2-0.7-0.4c-0.2-0.2-0.3-0.4-0.4-0.7c-0.2-0.5-0.4-1.1-0.5-1.8
						c-0.2-1.3-0.2-2.9-1-3.7c0.4-0.5,1.4,0.2,2.1,1.1c0.7,0.9,1.2,2.1,0.5,2.5l-0.4-0.5c0.3,1.5,0.7,2.4,1.2,2.9
						c0.5,0.5,1,0.7,2,0.6c2.3-0.3,4.1-1.3,5.3,0.7l0.5-0.3l0.5-0.3l0.9-0.6l0.5-0.3l0.2-0.1l0.2-0.1l0.7-0.5l1-0.6
						c0.2-0.1,0.4-0.2,0.5-0.3c0.7-0.4,1.5-0.6,2.2-0.8c1.4-0.4,2.6-0.3,3.5-1c-0.8-1.9-1.6-3.8-2.5-5.7c0.3-0.2,0.6-0.3,1-0.5
						c0.7,1.2,1.8,4.6,1.2,4.7c0.7,1.6,0.6,0.7,0.4-0.8c-0.2-1.5-0.6-3.6-0.8-4.3c1.1,0.9,1.3,2.9,1.5,4.5c0.2,1.7,0.3,3,0.5,3
						l0.3-0.7l-0.3-0.7c-0.2-1.4-0.4-2.8-0.5-3.8c-0.1-1,0-1.8,0.5-1.7c0.8,1.2,1,4,1.2,4.2c0.1,0.5,0.2,0.7,0.3,0.2
						c0.4,0.2,0.7,0.3,1.1,0.5c-0.3-1.7-0.6-3.5-0.9-5.2c0.4-2.6,1.4,0.3,0.3-5.6c0.5,2.3,1,3.6,1.6,4.4c0.3,0.4,0.6,0.7,1,0.8
						l0.1,0.1c0,0,0.1,0,0.2,0c0.2,0,0.4,0,0.6,0.1c0.4,0,0.8,0,1.2,0c1.8-0.1,3.8-0.4,5.7-0.9c1.8-0.4,3.4-0.9,4.2-0.5
						c1-2.5,2.1-4.1,3.1-5.4c0.3-0.3,0.6-0.6,0.9-0.9c0.2-0.2,0.5-0.5,0.7-0.7c0.3-0.3,0.5-0.5,0.7-0.7c0.9-1,1.6-1.9,2.3-2.9
						c-0.8,0.3-2.4-0.3-3.5-1.2c-0.6-0.5-1-1-1.2-1.5c-0.2-0.5-0.2-1,0.3-1.6c2.5,1.4,4.2,2,5.5,1.7c1.3-0.3,2.2-1.3,2.9-3
						c0.6-1.6,1-3.9,1.1-6.5c0-0.6,0.1-1.3,0.1-2c0-0.3,0-0.7,0-1c0-0.4,0-0.7,0-1.1c0-0.4,0-0.7,0-1.1c0-0.4-0.1-0.8-0.1-1.2
						c0-0.8-0.1-1.7-0.2-2.6c0.3,1.4,0,2-0.6,1.9c-0.3,0-0.6-0.2-1-0.5c-0.4-0.3-0.9-0.6-1.5-1.1c-1.2-0.9-2.8-2-4.7-2.8
						c-1.9-0.8-3.7-1.2-5.1-1.3c-1.4-0.1-2.4,0.1-3.1,0.3c-0.6,0.2-1,0.6-1.1,0.9c0,0.1-0.1,0.2-0.1,0.3c0,0.1,0,0.1,0,0.2l0,0l0,0
						l0,0c0-0.4,0.1,3.1,0.1,1.6l0,0l0,0l0,0c0,0,0,0,0,0s0,0,0,0l0,0l0,0c0,0,0,0,0,0l0,0l0,0.1c0,0.1,0,0.2,0.1,0.3
						c0.1,0.4,0.2,0.8,0.4,1.2c-0.6-0.2-0.4-0.6-0.5-1c0-0.3,0-0.5,0-0.7l0,0c0,0,0,0,0-0.2c0-0.1,0-0.2,0-0.2c0-0.2,0-0.4,0.1-0.6
						c0-0.2,0.1-0.4,0.1-0.5c0-0.1,0-0.2,0.1-0.4l0.1-0.5l0.1-0.4l0.1-0.2c0-0.1,0,0,0,0c0,0,0-0.1,0-0.1c0-0.1,0-0.2,0-0.5
						c-0.1-0.8-0.2-1.9-1.9-1.8c-0.8,1-1.5,2.8-3.1,4c0.7-1.9,1.5-3.8,2.3-5.6c-0.5,0.1-1.7,1.4-2.6,2.2c-0.9,0.8-1.5,1-0.8-0.8
						c-0.5,0.8-1.2,2.1-1.8,2.2c-0.6-2-2.1-3.2-4-4.2c-0.5-0.2-1-0.5-1.5-0.7l-1.7-0.6c-1.2-0.5-2.5-0.8-3.8-1.2
						c-2.6-0.6-5.2-1.2-7.9-1.6c-0.7-0.1-1.4-0.2-2.1-0.3c-0.7,0-1.5-0.1-2.2-0.1c-0.8,0-1.5,0-2.3,0c-0.8,0.1-1.6,0.1-2.4,0.3
						c0.9,0,1.1,0.3,1,0.5c-0.2,0.3-0.7,0.6-1.2,1c0.8-0.2,0.4,1.3,0.8,1.8c-1.5,0.1-3,0.7-4.3,1.6c0.2,0.9-0.4,1.9-0.8,2.9
						c-0.4,1-0.7,1.9-0.3,2.4c0-0.4,0.2-0.8,0.3-1.2c0.2,1.1,0.9,0.9,1.9,0.9c0.9-0.1,2.3,0.4,2.9,1.1c-0.1-0.9,1.2-0.8,2.3-0.1
						c0.3,0.2,0.5,0.3,0.7,0.5c0.2,0.2,0.4,0.3,0.6,0.4c0.2,0.1,0.3,0.1,0.4,0c0.1-0.1,0.2-0.4,0.3-0.9c0.4,0.8-0.1,0.9,0.1,1.8
						c0-0.6,0.2-0.9,0.4-1c0.2-0.1,0.6,0.2,0.8,0.8l-0.1,0.4c1.9,1,2.4,3.6,2.6,7.3c0.5-0.8,1-1.6,1.4-2.3c0.1,0.8-0.2,1.7-0.5,2.5
						c1.5-1.3,1.2-1.8,0.9-2.3c-0.2-0.5-0.4-1,1.1-2.5c-1.3,2.5-0.5,3.7,0.3,4.9c0.8,1.3,1.7,2.7-0.4,5.8c0.9,1.3,2-3.1,2.9-1.9
						L87,77l1.9-1.7c0.4,1.1-0.8,3.5-1.8,4.9C87,79.9,86.2,80,86,79.9c-0.2,0.7,0,1.3,0.3,1.7c0.3,0.4,0.7,0.7,1.2,0.9
						c1,0.5,1.9,0.6,1.9,1.2c-0.3-0.8-0.4-1.6-0.5-2.4c1.2,0.6,2.3,1.4,3.6,2.4c0.7,0.5,1.3,1,2.1,1.6l1.2,0.8
						c0.4,0.3,0.9,0.5,1.3,0.8c1.8,1,4,1.8,6.4,2.1c1.3,0.1,2.5,0.1,3.8-0.1c0.6-0.1,1.3-0.3,1.9-0.5c0.3-0.1,0.6-0.2,0.9-0.3
						c0.2-0.1,0.2-0.1,0.2-0.2l0.1-0.1l0-0.1c0-0.6-0.1-1.2-0.2-1.8c0-0.1,0.1-0.2,0.1-0.3l0-0.1l0,0c0-0.4,0-0.7,0-1.1
						c0-0.9,0-1.7,0-2.5c0-0.9,0-1.8,0-2.7c0-0.5,0-0.9,0.1-1.4c0.1-1.4,0.2-1.8,0.3-2.2c0.1-0.2,0.1-0.3,0.1-0.4
						c0-0.1,0.1-0.1,0.1-0.2c0-0.1,0-0.1,0,0c0,0-0.1,0.1-0.3,0.2c-0.1,0.1-0.2,0.1-0.4,0.2c-0.1,0-0.2,0.1-0.2,0.1
						c-0.1,0-0.1,0.1-0.2,0.1c-0.1,0-0.5,0.2-1.4,0.1l0.1,0c-0.3,0-0.8-0.1-1.2-0.3c-0.4-0.1-0.7-0.3-0.6-0.3c0,0,0,0,0,0
						c0,0,0.1,0,0.1,0.1c0.1,0.1,0.2,0.1,0.3,0.2c0.1,0,0,0-0.2-0.1c0.3,0.2,0.6,0.5,1.1,0.9c0.2,0.2,0.4,0.4,0.6,0.6l0.1,0.1l0,0
						l0,0c0.8,1-7.4-8.9-3.9-4.7l0,0l0,0l0,0l0,0l0.1,0.1c0.1,0.1,0.2,0.2,0.2,0.3c0,0.1,0.1,0.1,0.1,0.2c0,0,0,0.1,0,0.1l0,0
						c0,0,0,0,0,0l0,0v0l0,0l0,0.1c0,0.1,0.1,0.2,0.1,0.3l-0.2-0.4c0,0,0,0,0,0l0,0c0,0,0,0,0,0c-0.1-0.1-0.1-0.2-0.1-0.3l0-0.1
						l0.1,0.3c0.1,0.2,0.1,0.5,0.2,0.7c0.3,0.9,0.2,1.4,0,1.9c0-1.4-0.4-2.6-0.7-4c-0.1-0.6-0.2-1.1-0.2-1.4c0,0.1,0,0.2,0.1,0.8
						c0-0.2-0.1-0.3-0.1-0.5l0-0.2c0-0.1-0.1-0.3-0.1-0.4c-0.1-0.6-0.2-1.2-0.2-1.7c-0.1-0.6-0.1-1.1-0.1-1.6c0-0.5-0.1-1-0.1-1.5
						l0-0.2c0-0.1,0,0,0,0l0,0c0,0,0,0,0,0c0,0,0,0.1,0,0.2c0,0.1,0,0.2-0.1,0.4c-0.1,0.3-0.2,0.7-0.4,1c0,0.4-0.5,0.6-0.8,0.8
						c-0.3,0.2-0.6,0.2-0.9,0.1c-0.6-0.3-1.1-1.4-1.8-4.1c-1,4.6,0.1,5.9,1.2,6.3c1.1,0.4,2.2,0.1,1.6,1c0.4,1.5-0.1,3.2-0.7,4.4
						c-0.6,1.2-1.5,1.9-2.1,1.4c-0.6-0.1-1.3-3.1-2.4-6c-1.1-2.9-2.7-5.7-4.7-5.3c0.4,0,0.3-0.7,0.7-0.7c-0.9-1.1-1.6-0.2-2.2,0.6
						c-0.7,0.8-1.3,1.4-2.7-0.2c0.1,2.9-0.4,3.1-0.8,3.4c-0.4,0.3-0.7,0.8,0.2,4.3c0.8-1,1.7-2.1,2.7-2.9c-0.4,0.6-0.6,1.5-0.8,2.7
						c-0.2,1.2-0.3,2.4-0.5,3.5c-0.2,1.1-0.4,2.1-0.8,2.6c-0.3,0.6-0.9,0.7-1.8,0.2c-0.4-1.5-0.3-3.8-0.2-5.2
						c-0.7-0.8-0.9-0.2-1.2,0.4c-0.2,0.6-0.4,1.1-1.2,0.4c-1.2-3.5-0.5-4.4,0.5-5.3c0.5-0.5,1.1-0.8,1.7-1.4c0.5-0.6,1-1.6,1.2-3.1
						c-0.9-1.2-1.6,0.5-2.1,1.5c-0.5,1-0.9,1.3-1.6-2.6c0.8,5.1,0,5.4-1.2,5.4c-0.6,0-1.2-0.1-1.6,0.5c-0.2,0.3-0.4,0.6-0.5,1.2
						c0,0.3-0.1,0.6,0,1.1c0,0.4,0.1,0.9,0.2,1.5l-1.7-4.1c0,1,0.2,3.5-0.4,3.9c-0.5-2.1-1-4.1-1.4-6.2c0.2,3-1,2.9-2.5,2.5
						c-0.7-0.2-1.6-0.5-2.2-0.4c-0.3,0-0.6,0.1-0.8,0.3c-0.2,0.3-0.3,0.6-0.3,1.2c0.4-0.5,0.8-0.9,1.1-1c0.4-0.1,0.7-0.1,0.9,0
						c0.5,0.2,1,0.9,1.4,1.6c0.8,1.6,1.6,3.7,3,4.5c-0.1,1.1-0.3,1.8-0.6,2.2c-0.3,0.4-0.6,0.6-1,0.5c-0.8-0.1-1.9-1.1-3.1-2.1
						c-1.2-1-2.5-2-3.8-2.3c-1.2-0.3-2.4,0.3-3.1,2.4c0.1-0.7,1-1,2-0.8c0.9,0.2,1.9,1,2.1,2.4c-0.6,0.2-1.5,0.4-2.4,0.4
						c-0.9,0.1-2-0.1-2.8-0.4c-0.3,1.5-0.3,2.3-0.1,2.8c0.2,0.3,0.4,0.4,0.6,0.6c0.1,0.1,0.4,0.2,0.7,0.3c1.1,0.3,2.4,0.6,2.8,2.4
						c-0.5-0.3-0.9-0.4-1.1-0.4l-0.1,0c0,0,0,0,0,0c0,0,0,0.1,0.1,0.1c0.2,0.3,0.7,0.8,1.2,1.6c0.3,0.4,0.6,0.7,0.9,1.1
						c0.2,0.2,0.3,0.4,0.5,0.6l0.1,0.2l0,0l0.6,0.7l0,0l0,0l0.2,0.2c0.4,0.4,0.9,0.9,1.3,1.6l0,0c0.2,0.2,0.3,0.4,0.4,0.6
						c0.1,0.1,0.1,0.2,0.2,0.2c0,0.1,0.1,0.1,0.1,0.2c0.2,0.2,0.3,0.4,0.4,0.6c0.2,0.4,0.4,0.7,0.5,0.9c0.2,0.3,0.2,0.3,0.2,0.4
						c0,0.1,0.1,0.2,0.2,0.4c0,0.1,0,0.1,0.1,0.2c0,0,0,0.1,0,0.1l0,0l0,0l0,0l0,0c0.2,0.7-2-6.2-1.1-3.3l0,0l0,0l0,0
						c-0.1,0.1-0.2,0-0.6-0.1c-0.1-0.8-0.1-1.6-0.3-2.4l-0.3-1.2l-0.1-0.3l0,0l0,0l2.4,7.2l0,0l0,0l0,0l0,0l0,0l0,0l0-0.2l0.1,0.2
						l0,0l0,0l0,0l0,0c-1.1-3.5,2.6,7.8-2.6-7.8l0,0l0,0l0,0l0,0.1l0,0.1l0,0.4c0,0.3-0.2,0.6-0.3,0.9c-0.2-1.2-0.5-2.4-0.8-3.7
						c0,0.2,0,0.4,0,0.6c0,0.2-0.1,0.4-0.1,0.5c-0.1,0.3-0.2,0.6-0.3,0.9c-0.1,0.2-0.3,0.5-0.4,0.6c-0.1,0.2-0.4,0.3-0.6,0.4
						c-0.8,0.5-1.8,0.5-3.9,1.3c0.9,0.6,1.3,2,1.3,3.3c0,0.3,0,0.7-0.1,1c-0.1,0.3-0.2,0.7-0.4,1c-0.3,0.7-0.8,1.4-1.4,2.1
						c-1.5,0.5-1.8-0.2-2-0.6c-0.1-0.1-0.3-0.2-0.7,0.2c-0.3,0.4-1,1.2-1.6,2.9c-0.5-1.1-0.8-2.5-0.5-3.7c0.3-1.2,1.3-2.4,3.2-2.4
						c-0.2-0.5-0.2-1.1-0.1-1.7c0-0.6,0.1-1.2-0.1-1.7c-0.5,0.1-0.9,0.2-1.5,0.5c-0.5,0.3-1,0.6-1.5,1.1c-0.5,0.4-1,1-1.4,1.5
						c-0.4,0.5-0.8,1.1-1.2,1.8c-0.7,1.3-1.2,2.6-1.5,3.7c-0.3,1.2-0.4,2.1-0.6,2.8c0.2-0.5,0.4-1.1,0.6-1.6c0.3-0.5,0.6-1,0.9-1.2
						c0,0.5-0.1,1.1-0.1,1.6c0,0.5,0.1,1,0.1,1.5c0.1,0.5,0.1,1,0.2,1.4c0.1,0.4,0.2,0.8,0.4,1.2c0.1,0.4,0.3,0.8,0.4,1.2
						c0.2,0.3,0.3,0.6,0.5,1c0.3,0.6,0.7,1.2,1.1,1.8c-0.7,1.2-1.7,0.4-2.6-0.6c0.5,1.7,1.9,2.7,2.8,4.3c-1,0-2,0.2-3.1,0
						c-1-0.2-2.1-0.7-3-2.7c1.4,3,3.2,4.8,4.7,5.8c-0.3,0.3-0.5,1-0.8,1.4c-0.3,0.5-0.6,0.8-1,0.8c0.1,0.8,1.6,1.1,3,1.6
						c1.4,0.4,2.7,1,2.8,2c0.4,0,0.7,0,1.2,0.3c0.4,0.8,0.5,1.8,0.8,2.6c0.1,0.2,0.2,0.4,0.3,0.6c0.2,0.3,0.4,0.7,0.6,1
						c0.5,0.7,1.2,1.3,2,1.8c-0.2,0.5-0.4,1-0.5,1.5l-0.2,0.8l-0.6,1.2c0,2.1,0.8,0.4,1.5-0.8c0.7-1.2,1.4-1.8,1.7,0.7
						c0.3,1.4-0.1,2.2-0.6,2.9l0,0c-0.8,0.7-1.8,1.8-2.3,2.2c0.4-0.6,1-1.4,1.1-1.8c0.1-0.4-0.3-0.3-1.5,0.5
						C66.7,132.1,67.1,131.8,67.3,131.9z M87.4,135.7c-0.3,0.1-0.8,0.6-1.2,0.8c-0.4,0.2-0.9,0.3-1-0.1
						C86.1,134.4,86.4,135.2,87.4,135.7z M116.1,124.3c-0.5,1.1-0.6,0.7-0.7-0.3C115.7,123.7,116,123.7,116.1,124.3z M105.3,162.9
						c0-0.1,0-0.1,0-0.2C107.4,163.8,106.6,163.3,105.3,162.9z M101.7,162c0,0.7,0.3,1.3,0.7,1.9c-0.3-1.2,0.3-1.4,1.1-1.4
						C102.7,161.4,102,160.7,101.7,162z M98.4,99.3l-0.4-1.1C98.3,96.9,98.4,98,98.4,99.3z"/>
					<path class="st0" d="M112.9,129.4c0-0.5,0.1-1,0.2-1.6C112.9,128.4,112.8,128.9,112.9,129.4z"/>
					<path class="st0" d="M63.1,118.4C63.1,118.4,63.1,118.4,63.1,118.4c-0.2,0-0.3,0-0.4,0L63.1,118.4z"/>
					<path class="st0" d="M104.5,119.6c0.2,0.1,0.3,0.1,0.4,0.2c0.1,0,0.2,0,0.2,0.1C105.1,119.9,105.1,119.9,104.5,119.6z"/>
					<path class="st0" d="M88.2,172.3c0.6-0.4,1.2-0.8,1.8-1.2c-0.9,0.3-1.5-0.7-2.1-1.3C88.1,170.7,88.8,172.2,88.2,172.3z"/>
					<path class="st0" d="M73.1,145.8c-0.3,0.4-0.4,0-0.7,0.4l-0.4,1.8C73,148.1,73.7,146.7,73.1,145.8z"/>
					<path class="st0" d="M84.2,158c-0.7-3.6-1.4-2.3-2.4-1.6c0.1,0,0.1,0,0.2,0C82.1,161.4,83.2,159.8,84.2,158z"/>
					<path class="st0" d="M81.5,156.6c-0.3,0.2-0.7,0.3-1,0.1C80.5,158.6,81,157.1,81.5,156.6z"/>
					<path class="st0" d="M99.1,165.5c-1-0.8,1.4,4.8,0.4,3.4c0.5,2.4,1.1,0.7,1.1-1.1C100.8,165.9,100.3,163.8,99.1,165.5z"/>
					<path class="st0" d="M81.7,146.2l0.9,4.4c0-1.2,0-2.4,0-3.6L81.7,146.2z"/>
					<path class="st0" d="M89.3,148.1c-0.6-0.3-1.2-0.6-1.8-0.9c0.2,0.8,0.2,1.2,0,1.6C88.5,148.9,89.8,149.5,89.3,148.1z"/>
					<path class="st0" d="M87.6,148.9c-0.5,0-0.9,0.2-1,1C86.8,149.8,87.4,149.5,87.6,148.9z"/>
					<polygon class="st0" points="83.4,144.6 83.9,145.5 84.9,145.6 					"/>
					<path class="st0" d="M104.2,142.1c0.2-0.7,0.3-1.4,0.4-2.1c-1-1.5-2-2.1-2-1.2C103,139.9,103,140.8,104.2,142.1z"/>
					<path class="st0" d="M92.9,132.8c0.8,0.7,1.4,1.7,2.5,3l-3.3-5.4C92.4,131.2,92.6,132,92.9,132.8z"/>
					<path class="st0" d="M94.8,129.5c-0.9-1.5-1.9-5.1-2.6-3.9C93.2,127,93.2,129,94.8,129.5z"/>
					<path class="st0" d="M112.3,120.9l0,0.3l10.8,1.8C119.5,122.1,115.9,121.4,112.3,120.9z"/>
					<path class="st0" d="M106.2,107.8c-0.1,0.5-0.2,0.8-0.3,0.9c-0.1,0.2-0.1,0.3-0.2,0.4c0,0.1-0.1,0.1-0.2,0.3
						c-0.1,0.1-0.1,0.2-0.2,0.4c-0.1,0.1-0.1,0.2-0.2,0.3c-0.1,0.2-0.2,0.3-0.3,0.5c-0.1,0.2-0.1,0.1,0,0c0.1-0.2,0.3-0.6,0.5-0.8
						c0.3-0.5,0.5-1,0.4-0.7c0.2-0.5,0.3-0.7,0.4-0.9c0-0.1,0.1-0.2,0.1-0.3C106.2,107.9,106.2,107.8,106.2,107.8
						C106.2,107.7,106.2,107.7,106.2,107.8z"/>
					<path class="st0" d="M105.7,109.2c-0.1,0.3-0.3,0.6-0.5,0.8C105.5,109.6,105.6,109.4,105.7,109.2z"/>
					<path class="st0" d="M67.9,57.8c-0.2,0.5-0.5,0.9-0.6,1.4c0.2-0.2,0.4-0.5,0.7-0.7L67.9,57.8z"/>
					<path class="st0" d="M68.3,61.3c-0.2,0-0.5-0.1-0.7-0.1c0.2,0.4,0.4,0.8,0.5,1.2C68,62.1,68.1,61.5,68.3,61.3z"/>
					<path class="st0" d="M92.8,140.2l0.1-0.6c-0.4-0.6-0.9-0.5-1.8-0.4C91.7,139.5,92.2,139.9,92.8,140.2z"/>
					<path class="st0" d="M70.1,137.2l0.3,0.2c0.2-0.6,0.3-1.2,0.5-1.7L70.1,137.2z"/>
					<path class="st0" d="M64.7,133.9c-0.1,0.7-0.2,1.4-0.2,2v0c0-0.2,0.1-0.3-0.1-0.3c0,0.2,0.2,0.1,0.5-0.1l0,0
						C65.6,133.4,66.3,132.1,64.7,133.9z"/>
				</g>
			</g>
		</g>
	</g>
	<g>
		<path class="st1" d="M176.7,198.4c-1.7,0-2.8-1.2-2.8-3.2v-28.9H24.5v28.9c0,1.9-1.1,3.2-2.8,3.2s-2.8-1.2-2.8-3.2v-32.1
			c0-1.9,1.1-3.2,2.8-3.2h155.1c1.7,0,2.8,1.2,2.8,3.2v32.1C179.6,197.2,178.4,198.4,176.7,198.4L176.7,198.4z"/>
		<path class="st1" d="M175.7,192.1H23.4c-1.7,0-2.8-1.2-2.8-3.2c0-1.9,1.1-3.2,2.8-3.2h152.3c1.7,0,2.8,1.2,2.8,3.2
			C178.4,190.7,176.7,192.1,175.7,192.1L175.7,192.1z M176.7,166.4c-1.1,0-2.3-0.6-2.8-1.9l-27.7-70.7c-0.6-1.9,0-3.2,1.1-4.5
			c1.7-0.6,2.8,0,3.9,1.2l22.2,57.1v-16.7c0-1.9,1.1-3.2,2.8-3.2s2.8,1.2,2.8,3.2V163C179,164.4,177.9,165.6,176.7,166.4
			C177.3,166.4,176.7,166.4,176.7,166.4L176.7,166.4z M21.7,166.4h-0.6c-1.1-0.6-2.3-1.9-2.3-3.2v-32.1c0-1.9,1.1-3.2,2.8-3.2
			s2.8,1.2,2.8,3.2v17.3l22.3-57.2c0.6-1.2,1.7-1.9,2.8-1.9h11.1c1.7,0,2.8,1.2,2.8,3.2c0,1.9-1.1,3.2-2.8,3.2H51l-26.5,68.8
			C23.9,165.6,22.8,166.4,21.7,166.4z"/>
		<path class="st1" d="M149.1,95.6h-11.7c-1.7,0-2.8-1.2-2.8-3.2s1.1-3.2,2.8-3.2h8.9V57.1c0-7-5-12.8-11.1-12.8h-72
			c-6.1,0-11.1,5.7-11.1,12.8v35.4c0,1.9-1.1,3.2-2.8,3.2c-1.7,0-2.8-1.2-2.8-3.2V57.1c0-10.9,7.2-19.3,16.6-19.3h72
			c9.4,0,16.6,8.4,16.6,19.3v35.4C151.8,94.3,150.8,95.6,149.1,95.6L149.1,95.6z"/>
		<path class="st1" d="M87.1,115H67.6c-2.8,0-5.6-1.2-7.2-3.9c-1.7-2.6-2.8-5.7-2.8-9l2.8-22.6c0.6-5.7,5-9.6,9.4-9.6h16.6
			c5.6,0,10,5.1,10,11.6V104C96.5,109.7,92,115,87.1,115z M69.9,76.4c-1.7,0-3.9,1.9-3.9,4.5l-2.8,22.5c0,1.2,0,2.6,1.1,3.9
			c1.1,1.2,1.7,1.9,3.3,1.9h19.4c2.3,0,4.4-1.9,4.4-5.1V81.5c0-2.6-1.7-5.1-4.4-5.1H69.9z M131.4,115h-19.3c-5.6,0-10-5.1-10-11.6
			V81.5c0-6.5,4.4-11.6,10-11.6h16.6c5,0,8.9,4.5,9.4,9.6l2.8,22.5c0.6,3.2-0.6,6.5-2.3,9C136.3,113.6,134.2,115,131.4,115
			L131.4,115z M112,76.4c-2.3,0-4.4,1.9-4.4,5.1V104c0,2.6,1.7,5.1,4.4,5.1h19.3c1.1,0,2.3-0.6,3.3-1.9c1.1-1.2,1.1-2.6,1.1-3.9
			l-3.3-22.4c0-2.6-2.3-4.5-3.9-4.5C128.6,76.4,112,76.4,112,76.4z"/>
		<path class="st1" d="M104.8,95.6H93.7c-1.7,0-2.8-1.2-2.8-3.2s1.1-3.2,2.8-3.2h11.1c1.7,0,2.8,1.2,2.8,3.2
			C107.5,94.3,106.5,95.6,104.8,95.6z"/>
	</g>
</g>
</svg>
