<?xml version="1.0" encoding="utf-8"?>
<!-- Generator: Adobe Illustrator 24.0.2, SVG Export Plug-In . SVG Version: 6.00 Build 0)  -->
<svg version="1.1" id="Layer_1" xmlns="http://www.w3.org/2000/svg" xmlns:xlink="http://www.w3.org/1999/xlink" x="0px" y="0px"
	 viewBox="0 0 198.4 198.4" style="enable-background:new 0 0 198.4 198.4;" xml:space="preserve">
<style type="text/css">
	.st0{fill:#EBC2E8;}
	.st1{fill:none;stroke:#646565;stroke-width:8;stroke-miterlimit:10;}
</style>
<g>
	<g>
		<g>
			<g>
				<path class="st0" d="M63.2,126.8c0.7-0.5,0.1-0.5,0.1-0.7C62.2,127.1,63.4,126.8,63.2,126.8z"/>
				<path class="st0" d="M66.9,138l-0.4,0.3c0.6,0,1.2,0,1.8-0.1C67.8,138.2,67.3,138.1,66.9,138z"/>
				<path class="st0" d="M76.6,142.1c-0.7-1.6-1.6-1.5-2.6-1.4c-1,0.1-2.3,0.2-3-0.6l-0.1-0.7c-0.4,0.6-0.8,1.1-1.3,1.6
					c1.1,0.5,2.4,0.6,3.7,0.6C74.5,141.6,75.6,141.6,76.6,142.1z"/>
				<path class="st0" d="M64.2,128c0.8,0.1,0.6,0.8,0.6,0.8c0,0.1,0.1-0.5,1.6-2.3c-0.3,0-0.4,0.1-0.6,0.1
					C65.5,126.9,65,127.3,64.2,128z"/>
				<path class="st0" d="M65.8,126.6c0.8-0.7,0.3-0.6-0.1-0.5C65.2,126.4,64.8,126.7,65.8,126.6z"/>
				<path class="st0" d="M60.2,137.2c-0.1-1.4-0.1-2.7,0-4.1c-0.6,0.2-1.3,1.2-1.8,2c-0.5,0.8-0.9,1.4-1,0.6
					c-0.3,2.3,0.1,3.2,0.6,3.3C58.5,139.1,59.2,138.2,60.2,137.2z"/>
				<path class="st0" d="M62.6,140.8c-0.2-0.6-0.3-1.2-0.4-1.8C61.8,139.3,61.5,139.8,62.6,140.8z"/>
				<path class="st0" d="M62,135c-0.1,1.3-0.1,2.7,0.1,4c0.7-0.5,2-0.3-0.1-1.8C63.2,137.7,62.2,136.8,62,135z"/>
				<path class="st0" d="M63.5,133.1c0.8-0.7,1.7-1.4,2.2-1.5c0.6-0.1,0.8,0.2,0.6,1.7c0.3-0.6,0.5-1.1,0.7-1.5
					c0.2-0.4,0.3-0.8,0.3-1.1c0.1-0.6,0-0.9-0.3-1c-0.3-0.1-0.8,0-1.5,0.5c-0.3,0.3-0.7,0.6-1,1C64.2,131.8,63.8,132.4,63.5,133.1z"
					/>
				<path class="st0" d="M76.8,138.9c-0.4-0.3-0.7-0.6-1-0.9c-0.2,0.3-0.5,0.6-0.8,1c0.2-0.2,0.7,0,1.1,0.2
					C76.5,139.3,76.9,139.4,76.8,138.9z"/>
				<path class="st0" d="M61.6,158c0.8-0.5,1.7-2.3,2.6-3.2c-0.5-0.3-1.1-0.6-1.7-1c-0.1,0.6,0,1.4-0.1,2.2
					C62.3,156.7,62.2,157.5,61.6,158z"/>
				<path class="st0" d="M64.2,154.8c0.8,0.4,1.7,0.8,2.5,1C65.8,153.9,65,154,64.2,154.8z"/>
				<path class="st0" d="M67,141c-0.5-0.7-0.9-1.6-1.3-2.5c-0.3-0.9-0.6-1.9-0.7-2.9c0.2,2.3,0.9,4.6,2,6.3L67,141z"/>
				<path class="st0" d="M66.4,165.6c-0.8,0.3-1.5,0.6-2.3,0.9c1.2-0.3,2.5-0.7,3.6-1.2C67.2,165.4,66.8,165.5,66.4,165.6z"/>
				<path class="st0" d="M69.7,169c-1.7,1.1-1.4,3.8-2.7,4.3c1.1,0.8,2.9,0,4.4-0.8C70.3,172.6,69.6,171.6,69.7,169z"/>
				<path class="st0" d="M73.9,171.4c-0.6,0.1-1.5,0.6-2.4,1.1C72.1,172.4,72.9,172.2,73.9,171.4z"/>
				<path class="st0" d="M68.2,159c-0.3,0.6-1.3,2-1.1,3.5l1.5-2.8C68.5,159.5,68.4,159.2,68.2,159z"/>
				<path class="st0" d="M68.7,159.6L68.7,159.6c0.4,0.8,0.7,1.3,0.8,1.5C69.4,160.8,69.2,160.4,68.7,159.6z"/>
				<path class="st0" d="M68.1,158.8c0,0.1,0.1,0.1,0.1,0.2C68.4,158.7,68.4,158.6,68.1,158.8z"/>
				<path class="st0" d="M66.2,148.7c0.9,0.3,2,0.9,2.9,0.8c0.9-0.1,1.7-0.7,2.2-2.2c-0.9,0.1-1.6,0.6-2.3,1.1
					C68.3,148.8,67.5,149.2,66.2,148.7z"/>
				<path class="st0" d="M70.1,155.5c-0.2-0.7-0.4-1.4-0.6-2.1c-0.5,0.5-1.1,1.6-2,1.6c0.5,0.1,0.9,0.2,1.4,0.3
					C69.2,155.4,69.7,155.4,70.1,155.5z"/>
				<path class="st0" d="M71.3,155.6c-0.4,0-0.8,0-1.2-0.1l0.3,0.8L71.3,155.6z"/>
				<path class="st0" d="M73.3,166.7c1.3-0.6,1.9-0.2,2.7,0.2c-0.4-1.2-0.9-2.2-1.6-2.8C73.8,164.9,72.5,166,73.3,166.7z"/>
				<path class="st0" d="M71.2,163.2c0.1,0,0.1,0,0.2,0C71.5,162.9,71.5,162.8,71.2,163.2z"/>
				<path class="st0" d="M82.5,172.2c0.1-0.2,0.1-0.4,0.2-0.7c-0.1,0.2-0.2,0.4-0.3,0.5L82.5,172.2z"/>
				<path class="st0" d="M74.7,163.5c-0.2-1-0.9-0.7-1.8-0.2c0.6,0.1,1.1,0.4,1.5,0.8C74.8,163.8,74.9,163.5,74.7,163.5z"/>
				<path class="st0" d="M76.5,171.8c0.1-0.9,0-1.7,0-2.4C76.2,170.5,76,172.5,76.5,171.8z"/>
				<path class="st0" d="M71.1,164.1c-0.1,0-0.1,0-0.2,0C70.7,164.8,70.9,164.5,71.1,164.1z"/>
				<path class="st0" d="M71.1,164.1c0.5-0.1,1.2-0.4,1.8-0.8c-0.5-0.1-1-0.2-1.5-0.1C71.4,163.4,71.3,163.8,71.1,164.1z"/>
				<path class="st0" d="M94,152.1c-0.7,1.5-1.7,2.9-2.5,3.4c-0.8,0.5-1.3,0.1-1-1.8c-2.1,1.7-6.3,11.6-7.8,17.9
					c0.7-1.3,1.2-2.5,3.3-3.5c0.3-2-0.8-5.5,1.5-7.6c2.2-0.7,0.7,1.8,0.7,3.8c0.5-2.1,1.7-3.2,2.9-4.6c1.2-1.4,2.6-3.1,3.6-6.1
					c-0.7,0.5-1.4,1-2.1,1.5C92.9,154.3,94,153,94,152.1z"/>
				<path class="st0" d="M80.5,169.5l-0.7,0c0.3,1,0.1,2.4-0.2,5.3c1.6-0.8,2.3-1.8,2.8-2.7c-0.8-0.8-1.5-1.5-2.3-2.3L80.5,169.5z"
					/>
				<path class="st0" d="M77.6,167.6c2.1-2.6,3.9-3,5-6.8c-1.5-0.8-2.4,1.8-3.9,2.3c1.3,0.6,0.9,0.8,0.3,1.4
					c-0.6,0.5-1.6,1.2-1.2,2.8c-0.7,0.1-1.2-0.1-1.7-0.4c0.2,0.7,0.4,1.5,0.4,2.4c0-0.1,0-0.2,0.1-0.2l0,0c0,0,0,0,0,0
					c0.1-0.5,0.2-0.7,0.2-0.4c0,0,0.1,0,0.1,0C77.1,168.3,77.3,168,77.6,167.6c0.3,1.2-0.3,0.9-0.8,1c-0.1,0.1-0.2,0.3-0.3,0.4
					c0,0,0,0,0,0c1.1,0.2,2.2,0.3,3.3,0.4C79.5,168.6,78.9,168.2,77.6,167.6z"/>
				<path class="st0" d="M76.9,145.3c-0.1,0.2-0.3,0.3-0.5,0.5C76.8,145.7,77.1,145.6,76.9,145.3z"/>
				<path class="st0" d="M76.3,147.2c-0.4,0.1-1.4,0.7-1.5-0.1c0.3-1,1.1-0.8,1.7-1.4c-0.8,0.2-2.4-0.1-2.7,1.9l0.4-0.1
					c0,0.8-0.5,2.1-0.9,3.3c-0.4,1.2-0.9,2.2-1.1,2.2C73.7,151,74.8,149.4,76.3,147.2z"/>
				<path class="st0" d="M76.9,156.3c0.9,0.2,1.8,0.2,2.6,0.3c0.2-1,0.5-2,0.7-3l-0.9,1.4C78.7,153.6,77.7,155.4,76.9,156.3z"/>
				<path class="st0" d="M82,174.1l-1.9,3.3c1.2-1.3,2.3-2.7,3.5-4L82,174.1z"/>
				<polygon class="st0" points="84.9,175.5 83.4,178.6 85,177.2 				"/>
				<path class="st0" d="M122.6,119.8c-0.1,0.1-0.3,0.2-0.4,0.3C122.3,120.1,122.5,120,122.6,119.8z"/>
				<path class="st0" d="M121.1,120.7l0.8-0.6C121.5,120.4,121.2,120.7,121.1,120.7z"/>
				<path class="st0" d="M143.5,124.4c1.4-3.5,3.8-8.6,1.3-4.9l-2.2,3.7C143.5,122.9,143.7,123.5,143.5,124.4z"/>
				<path class="st0" d="M143.7,124.1c-0.1,0.3-0.2,0.6-0.3,0.9c0.7-0.8,1.3-1.5,1.9-2.2C144.9,123.2,144.3,123.6,143.7,124.1z"/>
				<path class="st0" d="M137.6,134.6c0.2-0.7,0.4-1.4,0.5-2.1C137.9,133.2,137.8,133.9,137.6,134.6z"/>
				<path class="st0" d="M99,120.3c-1.5,0.8-3.1,1.4-4.6,2.1C95.3,124.2,97,121.8,99,120.3z"/>
				<path class="st0" d="M116.6,186.8c1.1,1.9,2,2.7,2.9,3C118,187.1,117.2,183,116.6,186.8z"/>
				<path class="st0" d="M142,104.1c-0.5,0.4-0.7,0.6-0.9,0.7C141.7,104.4,141.8,104.2,142,104.1z"/>
				<path class="st0" d="M123.3,189.8c-0.3-0.5-0.5-0.7-0.8-1.1c-0.5,0.4-1.1,0.7-1.5,0.9c-0.5,0.2-1,0.2-1.5,0.1
					c0.5,1,1.1,1.8,1.8,2C122,191.9,122.7,191.4,123.3,189.8z"/>
				<path class="st0" d="M90.9,99.7c-0.1-0.1-0.2-0.2-0.3-0.3C90.7,99.7,90.8,99.7,90.9,99.7z"/>
				<path class="st0" d="M60.8,90.9c0.1-0.3,0.3-0.6,0.6-1C61.2,89.9,61,90.2,60.8,90.9z"/>
				<path class="st0" d="M94.5,183.4C93.9,183.4,94.3,183.8,94.5,183.4L94.5,183.4z"/>
				<path class="st0" d="M97.2,166.8c0.3-0.4,0.5-0.9,0.9-1.8C97.7,165.9,97.4,166.5,97.2,166.8z"/>
				<path class="st0" d="M126.6,160.5C126.7,160.5,126.7,160.5,126.6,160.5C126.3,159.6,126.4,159.8,126.6,160.5z"/>
				<path class="st0" d="M94.3,181.2c0.1,0.6,0.2,1.1,0.3,1.6C94.6,182.4,94.5,181.9,94.3,181.2z"/>
				<path class="st0" d="M93.7,183.1c-0.1-0.3-0.3-0.5-0.4-0.7C93.1,183,93,183.5,93.7,183.1z"/>
				<path class="st0" d="M95.4,183.6c-0.4-0.1-0.6-0.5-0.8-0.9c0,0.3,0,0.6-0.1,0.7C94.7,183.5,95,183.5,95.4,183.6z"/>
				<path class="st0" d="M93.5,102.9c0.1-0.1,0.1-0.1,0.2-0.2C93,102.6,93,102.7,93.5,102.9z"/>
				<path class="st0" d="M133.3,125.1c0,0.1,0,0.1,0,0.2c0,0,0,0.1,0.1,0.1L133.3,125.1z"/>
				<path class="st0" d="M132.7,122.4c0.9,2.3,1.1,3.3,1.1,3.6c0,0.3-0.2-0.1-0.5-0.6c1.3,3.7,2.6,7.4,4,11
					C136.1,131.6,134.5,126.9,132.7,122.4z"/>
				<path class="st0" d="M132.8,105.7c0.1-0.1,0.2-0.2,0.3-0.2c0,0,0.1-0.1,0.1-0.1c0,0,0.1-0.1,0.1-0.1l0.1,0l0,0l0,0l0,0l0,0l0,0
					l0,0l0,0l-3.8,1.9l0,0l3.8-1.9l0,0l0,0l0,0l0,0l0,0l0,0l-0.1,0c0,0-0.1,0.1-0.1,0.1c-0.1,0.1-0.1,0.1-0.2,0.2
					c-0.3,0.2-0.5,0.4-0.6,0.5c-0.2,0.3-0.2,0.2,0.2-0.2C132.7,105.8,132.8,105.8,132.8,105.7c0.1-0.1,0.2-0.2,0.3-0.2
					c0,0,0.1-0.1,0.1-0.1c0,0,0.1-0.1,0.2-0.1l0.1-0.1l0,0c-1.9,0.9-3.8,1.9-5.8,2.9c-0.8,0.4-1.7,0.8-2.5,1.3
					c-3.3,1.7-6.8,3.4-10.3,5.2l-0.7,0.3L114,115c0,0-0.1,0.1-0.1,0.1l0,0l0,0.2l-0.1,0.5l-0.2,0.9c1.7,1.4,3.2,2.5,4.5,2.7
					c1.3,0.2,2.6-0.3,4.8-1.8l-0.7,1c-0.2,0.3-0.5,0.6-0.7,0.9c0-0.2-0.5,0.1-0.5-0.1c-0.4,0.6-0.6,0.8-0.6,1
					c-0.1,0.2,0.1,0.2,0.2,0.1c0.4-0.2,1.2-0.7,2-1.3c0.8-0.6,1.7-1.2,2.3-1.6c0.6-0.4,0.8-0.5,0.4-0.1c-0.8,0.7-2,1.6-2.6,2.1
					c0.4-0.3,0.7-0.6,1-0.9c-0.3,0.2-1.3,1.1-1.1,0.9L122,120l-0.2,0.1c0.5-0.4,1.5-1.3,2-1.8c-1.1,0.8-0.4,0.3-1.1,0.9
					c0.2-0.2,0.4-0.4,0.6-0.5c-0.8,0.6-1.3,1-1.6,1.3c-0.3,0.3-0.4,0.4-0.1,0.2c-2.9,2.2-2.6,2-2.2,1.6c0.2-0.2,0.5-0.4,0.4-0.4
					c0,0-0.4,0.3-1.1,0.9c-0.1,0-0.2,0.1-0.3,0.2c-1.4,1.1-1.8,1.5-2.1,1.7c-0.3,0.3-0.4,0.5-1,1.1c0.3-0.3,1-1.1,2-1.9
					c1-0.8,2.1-1.8,2.4-1.9c-0.4,0.4-0.6,0.7-0.1,0.4c-1.3,1-1,1-0.9,1.6l-1.4,1.1c0.7,0.2,1.3-0.4,2-0.4c0,0.1,0,0.2,0.1,0.4
					c0,0.2,0.1,0.1,0.1,0.2c0,0.1,0,0.3-0.1,0.4c-0.2,0.3-0.5,0.8-0.8,1.2c0.5,0.4,0.7-0.1,0.9-0.6c0.1-0.2,0.3-0.5,0.5-0.6
					c0.1-0.1,0.2-0.1,0.4-0.2c0.1,0,0.2,0,0.3,0c0.1,0,0.2,0,0.4-0.1l0,0c0.3,0.5,0.8,0.7,1.6,0.7c0.8,0,1.8-0.1,3.2-0.3
					c0.6,1-1.1,1-1.1,1.7c0.7-0.3,1.4-0.6,2.2-1c0.2,0.1-0.2,0.6-0.5,0.8c1.3-0.2,1.6-1.9,3.3-2c0.8-0.9,1-0.4,1.3,0.6
					c0.1,0.5,0.2,1,0.5,1.6c0.1,0.3,0.2,0.5,0.4,0.7c0.1,0.1,0.2,0.2,0.3,0.3c0.1,0.1,0.2,0.1,0.4,0.1c0.2,0.1,0.4,0.2,0.7,0.2
					c0.3,0,0.5-0.1,0.8-0.3c0,1.2-1,1.5-1.4,2.6c1.6,0.5,2.6,0,3.2,0c0.6,0.2,1.2,0.7,2.5-1.4c0,1.1-0.1,2.1-0.3,3.2
					c0.4-1.7,1.1-3.2,2.1-4.6c1-1.4,2.3-2.7,3.6-3.7c0.4-1.6,0.7-3,0.7-3.7c1.1-0.4,2.2-0.7,3.4-1c-0.1,0.8-1.2,1.9-2.5,3.3
					c0.3-0.3,0.7-0.5,0.9-0.7c-0.2,1.8-2.1,3.8-3.7,5.6c0.3-0.9,0.6-1.8,0.9-2.7c-1.8,2.1-3.3,4.5-4.4,6.8c0.3-0.4,0.6-0.7,0.9-0.7
					c-0.4,0.6-0.8,1.1-0.9,1.5c-0.2,0.4,0.3-0.3,1-1.1c-0.8,1.5-1.6,3-2.5,4.4l1.1-1.6c-0.2,0.6-0.4,1.2-0.8,1.8
					c-0.1,0.3-0.4,0.6-0.6,0.8c-0.2,0.3,0.1-0.1,0.2-0.2c0.2-0.2,0.3-0.3,0.4-0.5c0.6-0.7,1.1-1.2,1.8-1.8c0.1-0.1,0.9-0.8,1.4-1.2
					c0.6-0.4,1.2-0.8,1.9-1.2c0.6-0.4,1.3-0.6,1.9-0.9c0.6-0.2,1.3-0.4,1.9-0.4c1.2-0.1,2.3,0.2,3,0.9c-2.1-0.2-3.8,0.1-5.7,0.3
					l-0.3,0l0,0l0,0l0,0c0,0,0,0,0,0s-0.9,0-2.9,1.4c0.2-0.2,0.4-0.3,0.5-0.3c0.1-0.1,0.1-0.1,0.2-0.1c0,0-0.1,0-0.2,0.1
					c1-0.7,1.9-1,2.2-1c0,0,0.1,0,0.1,0c0,0,0.1,0,0.1,0c0,0,0,0-0.1,0c0,0,0,0,0,0c0,0-0.1,0-0.1,0c-0.1,0-0.1,0-0.2,0
					c-0.3,0-1.3-0.3-1.9-0.6c0,0,0,0,0.3,0.1c0.2,0.1,0.7,0.3,1.2,0.4c-1.1-0.3-2.2-1-3.1-1.5c0.1,0-0.1-0.1,0.2,0.1
					c-0.1-0.1-0.3-0.2-0.4-0.3c0.1,0.1,0.2,0.2,0.3,0.2c0,0.1-0.1,0-0.3-0.1c-0.5-0.3-1.3-1.1-2.2-2c0,0,0.1,0.1,0.1,0.1l0.2,0.2
					c-0.2-0.2-0.3-0.3-0.5-0.5c0,0-0.1-0.1-0.1-0.1c-0.1-0.1-0.2-0.1-0.2-0.1c-0.1,0.1-0.1,0.3-0.1,0.8c0.1,1,0.4,3.2,1.8,6.9
					c-0.4-0.9-3.7-8.6-4.3-10c3.3,7.9,5.3,16.7,6,25.9c-0.7-3.4-2.6-8.9-4.1-14.1c-1.5-5.2-2.7-10.2-3-12c-0.5-0.9-0.9-2.1-0.7,0.2
					c0.2,0.5,0.8,2.9,1.5,5.3c0.6,2.4,1.2,4.7,1.1,5c-1.4-3.7-1.6-4.7-1.9-5.6c-0.3-0.9-0.6-1.6-1.4-5c0.2,0.8,0.6,3.9,0.9,6.7
					c0.3,2.9,0.3,5.5-0.1,5.4c-0.1-1.6-1-10.9-1-12c0.2,3.5,0,7.2-0.4,10.8c0.3-2-0.2-9.3-0.3-12.5c0,1.1-0.1,1-0.2,0.7
					c-0.1-0.3-0.2-0.7-0.3-0.2c0,0.9,0,1.8,0,2.7c-0.2-0.7-0.4,0.9-1,3.2l-9.9,25.4c3.3-3.3,8-9.2,9.2-7.9
					c-1.6,1.8-8.8,11.5-8.6,13.5c1.9-2.2,6.4-7.7,11-12.9c4.6-5.3,9.4-10.3,11.6-11.7l-1.6,3.1l3.7-2.4c-3,3.5-7.8,8.8-12.5,13.8
					c-4.7,5-9.3,9.7-12,12.2c-0.8,2.8-2,3.5-0.8,4.1c-1.4,3-3.3,3.5-3.7,3.4l1.3,3.9c3.8-5.9,5.9-4.2,9.1-9.1l-6.9,3.7
					c1.9-2.9,5.1-6.7,8-9.4c2.9-2.8,5.5-4.5,6.1-3.3c-1.1,2.7-7.5,10.2-8.7,12.1c0.5-0.6,1.1-1,1.7-1.3l6.1-15
					c0.1,0,0.2-0.1,0.4-0.1c-0.1,0-0.1,0-0.1,0c0,0,0.3,0,0,0c0.2,0,0,0,0,0c0,0,0,0-0.1,0c0,0-0.2,0-0.3-0.1
					c-0.1,0-0.2-0.1-0.3-0.1c-0.1,0-0.2-0.1-0.4-0.2c-0.2-0.1-0.4-0.2-0.6-0.3c-0.1-0.1-0.2-0.1-0.3-0.2c-0.1-0.1-0.2-0.1-0.3-0.2
					c-0.4-0.2-0.9-0.6-1.3-1c-0.5-0.4-1-0.8-1-0.9c0.3,0.3,0.6,0.5,0.8,0.7c0.1,0.1,0.2,0.1,0.2,0.2l0,0l0.9,0.7
					c0.8,0.6,1.6,1.3,2.4,1.9c3.2,2.6,6.3,5.1,8.8,7.3c2.5,2.2,4.5,4.2,5.4,5.5c-0.2,0-0.9,0-2-0.1c-0.5-0.1-1.1-0.1-1.7-0.3
					c-0.6-0.1-1.2-0.4-1.9-0.6c-2.6-0.9-5.1-2.7-6.5-4.2c-2.2-2.5-3.8-6-5.8-9.2c-1-1.6-2-3.1-3-4.5c-0.3-0.5-0.5-0.7-0.9-1.3
					c0,0-0.1-0.1-0.1-0.2c0-0.1-0.1-0.1-0.1-0.2c0,0-0.1-0.1,0-0.1l0.2,0.3c0.5,0.8,0.9,1.5,1.1,1.8c-0.5-0.7-1.3-2-1.9-3
					c-0.1-0.2-0.2-0.3-0.9-1.4c3.6,6.4-0.8-0.3,2.8,5.5c0.3,1-0.1,0.8-0.5,0.3c-0.4-0.5-0.8-1.2-1.1-0.9c0.9,2.2,2.3,6,3,9.7
					c0.8,3.6,1,7.1,0.6,8.3c-0.4-1.8-1.3-4.1-1.7-5.1c-1.2,0-2.3-0.8-3.3-1.6c-0.5-0.4-0.9-0.8-1.4-1.1c-0.4-0.3-0.9-0.5-1.3-0.5
					c-0.2-1.7-1.1-3.8-0.8-6.9c-0.2,1.3-0.5,3.7-1.1,3.9c-0.4-3.1-0.1-3.3,0.2-3.7c0.3-0.4,0.6-1,0.4-4.7c-0.1,4.2-1.4,5.8-2.4,8.3
					c-0.2,3.2,0.4,3.5,1,2.7c0.6-0.8,1.3-2.7,1.7-4.1c0,4.4-0.4,9-1.3,12.9c-0.9,3.9-2.4,7.1-4.2,8.9c-2.7,1.7-0.3-5.7-0.9-4.6
					c-2-1.1-3.4,2.4-4.9,5.2c-0.7,1.4-1.4,2.7-2.1,3.2c-0.7,0.5-1.3,0.1-1.9-1.7c-0.1-2.8,0.6-5.4,1.4-7.7c0.7-2.3,1.5-4.5,1.9-6.4
					c1-0.8,1.4,0.2,1.7,1.4c0.3,1.2,0.5,2.6,1.1,2.6c-0.3-0.9-0.6-1.9-0.8-2.8c0.9-1.6,2.2-2.8,2.5-1.1c-0.1-2.5-1.5-3-3.1-3.6
					c-1.6-0.6-3.4-1.3-4-3.7c-1,1.5-2.4,2.9-2.6,5l1.1-0.4c-0.5,4.3-3.4,4.8-2.9,7.1c-2.1,2.3-5,5.9-5.8,2.9l1.7-5.4
					c-0.5,1.5-0.1,3.7,0.9,2.2c-0.8,1-0.7-1.1-0.9-2.6c-0.2-1.5-0.5-2.4-2.2,0.8l-0.3,4.2c-1.1,1-2.5,2.7-3.7,3.8
					c-0.6,0.6-1.2,1-1.6,1.1c-0.4,0.1-0.9-0.1-1.1-0.7c-0.6,2.7-0.5,2.6-0.3,2.7c0.2,0.1,0.4,0.3-0.3,3.5c1-3.9,1.8-3.3,2.6-2.8
					c0.8,0.5,1.6,1,2.4-3.4c-0.8,3.8-0.6,4.8-0.4,5.8c0.3,0.9,0.7,1.7,0.3,5.3c0.6-1.8,0.7-3.7,1.7-2.1c0.2-0.5,0.6-1.1,0.8-1.4
					c0,0.1,0,0.1,0,0.2c0-0.1,0-0.2,0-0.3c0.2-0.2,0.2-0.3,0-0.1c0-1,0-2,0.3-3.1c1.1-1.9,2.1-2.6,3-3c1-0.4,1.8-0.6,2.5-1.6
					c0.5,1.2-1,2-1.2,4.2c0.7-0.9,1.4-1.9,2.1-2.9c-0.6,2.1-0.5,4.1-0.7,5.8c-0.1,1.7-0.5,3-1.9,3.8c0.6,0.3,1.3,0.7,1.9,1
					c0.5,2.9,2.1,4.6,3.6,3.1c0.8,1.3,3.7-4.1,2-0.9c1.4-0.6,2.7-1.2,4-1.8l-0.1,1.1c1.8,0.7,3.9-0.8,6-1.5c1-0.4,2-0.5,3.1,0
					c0.5,0.2,1.1,0.6,1.6,1.3c0.5,0.6,1.2,1.4,2,2.5c0.8-0.6,1.6-1.3,2.4-1.7c0.9-0.4,1.9-0.5,3.3,0l1.2,4c0.9-0.9,2.7-0.1,4.3,0.2
					c0.8,0.2,1.6,0.2,2.1,0c0.5-0.3,0.9-0.8,0.8-1.9c2.8,5.1,5.9,4.7,8.9,2.8c0.8-0.5,1.5-1.1,2.2-1.6c0.7-0.7,1.5-1.3,2.2-1.9
					c0.3-0.3,0.7-0.6,1-0.9c0.4-0.3,0.7-0.6,1.1-0.9c0.7-0.5,1.4-0.9,2.2-1.1l-3-4.5c0.4-0.2,0.8-0.5,1.2-0.9
					c0.4-0.3,0.7-0.7,1.1-1.1c0.3-0.4,0.7-0.8,1-1.2c0.3-0.4,0.7-1,1-1.5c0.3-0.5,0.6-1.1,0.9-1.7c0.3-0.6,0.5-1.2,0.8-1.9
					c0.3-0.7,0.6-1.5,0.8-2.3c0.1-0.4,0.2-0.8,0.3-1.2c0.1-0.4,0.2-0.9,0.3-1.3c-1.4-0.7-2.9-1.4-4.3-2.1c-0.1-1.4,0.2-2.6,0.7-3.8
					c0.1-0.3,0.3-0.6,0.4-0.9c0.2-0.4,0.3-0.7,0.5-1.1c0.4-0.7,0.8-1.5,1.1-2.3c0.2-0.4,0.4-0.8,0.6-1.3c0.2-0.5,0.4-0.9,0.5-1.4
					c0.4-1,0.7-2,0.9-3.1c0.5-2.1,0.7-4.5,0.5-6.8l-9.2-13c-0.2-0.5-0.4-0.9-0.8-1c1.1-1.4,1.3-0.8,1.1,0.3c1.9-5.1-0.4-4.1-2.8-2.8
					c-2.4,1.2-5,2.8-3.9-0.9c-1.4,1.1-1.5,0.4-1.2-0.7c0.1,0,0.1,0,0.3-0.1c0-0.1-0.1-0.1-0.2-0.2c0.2-0.8,0.5-1.6,0.6-2.4
					c-0.4,1-0.7,1.9-0.8,2.3c-0.4-0.1-1.4,0-2.6,0.7l2.5-4.1c-0.1,0-0.1,0-0.2,0c0.4-1.8-1.7,1.6-3.5,4.8c-0.3,0.2-0.7,0.5-1,0.8
					l-13,33.4c0.4-0.5,0.8-1.1,1.1-1.7c0,3.9,0.9,3.3,1.8,2.7c0.9-0.6,1.7-1.1,2.2,2.9c0.5-2,1.9-2.8,3.2-4.3
					c1.3-1.4,2.4-3.5,2.1-7.6c0.2,1.1,0.5,1.5,0,1.7c1.1,0.8,2.4,1.4,2.9-1.1c0.5,1.9,1.1,3.7,1.6,5.6c0.3-2.8,0.5-5.5,0.5-8.2
					c2.2,3,3.6,4.6,3.3,9.4c0.9-4,1.3-4.8,1.7-5.7c0.4-0.9,0.8-1.7,0.7-5.4l1.4,3.4c0.5-0.3,0.6-1.8,0.7-2.9
					c0.2-1.1,0.4-1.8,1.4-0.7c2.7,2.2,5.8,0.6,8.9-2.9c1.6-1.8,3.2-4,4.7-6.8c1.5-2.8,2.9-6.3,3.9-9.9c-2.3,0.8-3.2,0.7-3.4,0.3
					c-0.2-0.4,0.3-1.2,0.8-2.2c0.5-1,0.9-2.2,0.7-3c-0.2-0.8-0.9-1.2-2.6-0.7c0.9-0.7,1.4-1.6,2.1-2.1c0.6-0.5,1.4-0.9,2.7-0.2
					c-1.3-1.4-2.1-2.6-2.7-3.7c-0.3-0.6-0.6-1.1-0.8-1.5c-0.2-0.5-0.5-0.9-0.7-1.3c-1-1.6-2.4-2.6-5.6-1.4c0.9-1.8,2.9-1.6,3.3-2.8
					c-0.6,0.1-2.5,0.4-2.1-0.7c0.4-1.2,1.7-1,3-1.1c-2.4-1.4-4.5-0.6-6.4,0.9c-1.9,1.5-3.6,3.9-5.3,6.2c0.1-3-1.1-2.9-3.7-0.2
					c0.4-1.7,0.2-3.7,2.4-3.6c-0.5-0.3-1.8-1.4-3.3-1.8c-0.7-0.2-1.6-0.2-1.8,0.1c-0.3,0.3-0.7,0.8-1.1,1.7c0.2-1-0.5-0.5-0.8-0.1
					c-0.2-0.1-0.4-0.2-0.6-0.3c-0.2-0.1-0.3-0.1-0.4-0.1c-0.1-0.2-0.2-0.2-0.4-0.2c-0.2,0-0.4,0-0.7,0l-0.1,0.6
					c-1.5,2.1-2,2.3-2.2,2.1c-0.2-0.3-0.1-1-0.7-0.8l0.4-0.4c0.1-1.6-0.3-1.2-0.9-0.9c-0.5,0.3-1,0.6-0.4-1.1l-2.4,2.7
					c-2,2.1-2.5,2.2-2.3,1.7c0.1-0.3,0.3-0.7,0.6-1.2c0.2-0.5,0.5-0.9,0.5-1.1c0.1-0.1,0.2-0.2,0.2-0.3c0,0,0-0.1,0-0.1
					c0-0.1,0-0.1-0.1-0.1c-0.1,0-0.4,0.1-0.8,0.5c-0.4,0.5-0.8,1-1.3,1.5c-0.7,0.5-0.7,0.4-0.2-0.3c0.3-0.3,0.6-0.7,1.1-1.2
					c0.6-0.6,1.2-1.2,1.8-1.8c2.7-2.8,5.9-5.6,6.4-6.1c0.6-0.5,0.9-0.7,1.2-0.9c2.1-2,1.1-1.1-0.5,0.2c-1.6,1.3-3.8,3.1-3.9,3.1
					c2.2-1.8,5.2-4.2,5.8-4.8c0.9-0.7-0.6,0.4-1.6,1.2c-1,0.8-1.4,1.1,0.5-0.4c-1.4,1.1-2.9,2.3-3.5,2.8c0.1-0.1,1.7-1.3,2.7-2.1
					c1-0.8,1.5-1.2,0.2-0.1c0.5-0.4,0.7-0.6,0.9-0.7c-0.4,0.4,0,0-1.1,0.7c1.8-1.4,2.3-2,2.4-2.3c0.1-0.3-0.3-0.6-0.7-0.9
					c-0.1-0.1-0.1-0.1-0.1-0.2c0,0-0.1-0.2-0.2-0.3c-0.1-0.1-0.1-0.2-0.1-0.3c0-0.1,0-0.1,0-0.2c0-0.1,0-0.1-0.1-0.2
					c-0.1-0.6,0.1-1.1,0.8-1.6c-0.2-0.2-0.3-0.5-0.5-0.7c-0.2-0.2-0.4-0.4-0.5-0.6c-0.4-0.4-0.7-0.8-1.1-1.1
					c-0.7-0.6-1.5-1.1-2.3-1.5l0.4-0.4c-0.3-0.3-0.7-0.5-1-0.6c-0.3-0.2-0.6-0.3-0.8-0.3l0,0l0,0l0,0l0,0l0,0l-0.1,0.1l-0.1,0.1
					c-0.1,0.1-0.1,0.1-0.1,0.2c-0.1,0.1-0.2,0.2-0.2,0.2c0-0.1,0-0.3,0.1-0.4c0,0-0.1,0.1-0.2,0.1c-0.4,0.3-0.9,0.8-1.4,1.2
					c-0.1-0.4,0.3-0.7,0.5-0.9c-0.3-0.3-0.5-0.5-0.7-0.6c-0.2-0.1-0.4-0.1-0.8,0.1c-0.3,0.1-0.6,0.2-1.1,0.5
					c-0.5,0.3-1.2,0.7-2.2,1.2l1.4-1.4c-0.7,0.4-0.7-0.1-0.7-0.5c-0.1-0.4-0.1-0.6-2.3,0.4c0.3-0.2,0.8-0.5,1.3-0.7
					c-1.1,0.5-1.5,0.6-1.5,0.5c0-0.1,0.4-0.4,0.7-0.6c0.5-0.4,0.6-0.5-6.1,3l-4.5,2.2c0.4-0.1-1.1,0.7-2.9,1.6c-1.8,0.9-4,2-4.6,2.4
					c-0.9,0.4-0.5,0.1,0.4-0.4c0.9-0.5,2.3-1.2,3.2-1.6l-0.5,0.3c3.8-1.9,3.9-2,3.7-2c-0.2,0-0.7,0.2,2-1.2c-1.1,0.4-1.7,0.4-2,0.2
					c-0.1-0.1-0.2-0.3-0.2-0.4c0-0.1,0-0.2,0-0.3l0-0.2c0-0.1,0.2-0.2,0.3-0.3c0.8-0.5,1.6-1,2.1-1.4c0.5-0.4,1-0.8,1.2-1.1
					c-2.5,0.9-5.1,1.9-7.7,2.8c0.4-0.4,0.7-0.7,1.1-1c1.9-0.8,5.9-2.1,5.3-1.5c2.2-0.8,1.4-0.7,0-0.4c-1.5,0.3-3.6,0.8-4.4,1
					c1.8-1.1,3.8-1.5,5.4-1.8c1.6-0.3,2.9-0.5,3.1-0.7c-0.1-0.1-0.2-0.1-0.3-0.2l-0.9,0.3c-2.7,0.5-5.7,1.2-5,0.3
					c1.6-0.8,4.3-1.2,4.7-1.4c0.5-0.1,0.7-0.2,0.3-0.3c0.3-0.3,0.6-0.7,0.9-1c-1.8,0.4-3.6,0.8-5.4,1.2c-2.4-0.1,0.6-1.3-5.5,0.2
					c2.4-0.6,3.8-1.2,4.7-1.8c0.4-0.3,0.7-0.6,0.9-0.9c0.2-0.3,0.3-0.5,0.3-0.9c0-0.4,0-0.9,0-1.3c-0.1-0.7-0.1-1.4-0.2-1.9
					c-0.1-1.3-0.1-2.2,0.5-2.6c-1-0.4-1.8-0.9-2.4-1.3c-0.6-0.4-1-0.9-1.4-1.4c-0.6-1-0.8-2-1-3.3c-0.8,0.9-6,2.7-6,0.9
					c5.8-1.6,6.4-2.9,6.6-4.5l0.2-1.5l-15.7-6.1c-1.1-0.4-2.3-0.6-3.9-4c2.5,4.6-3.8,3.1,0,9.4c-1.5-0.4-1.3-3.9-3-5.9
					c-0.8,2.7-2.6,2.7-4.5,2.7c-1,0-2-0.1-3,0.1c-1,0.2-1.9,0.6-2.6,1.4c0.4,1.2,1.7,2.7,1.6,4.8c-1.4-1.6-2.7-3.1-4.1-4.6
					c-0.4,1,2.1,6.8-0.7,3.8c0.6,0.8,1.4,2,1.1,2.6c-2.2-0.3-3.9,0.5-5.4,1.7c-1.5,1.2-2.9,2.8-4.2,4.3c-1.4,1.5-2.7,2.9-4.3,4
					c-0.8,0.6-1.6,1-2.4,1.5c-0.8,0.4-1.7,0.8-2.6,1.2c1.2-0.1,0.9,0.7,0.4,1.4c0.4-0.2,0.7,1.1,1.2,1.6c-1.1,0.2-2.1,0.6-2.9,1.2
					c0.3,0.9-0.2,1.6-0.6,2.4c-0.4,0.7-0.8,1.5-0.6,2c0.2-0.3,0.3-0.7,0.4-1c0,1.1,0.6,1.1,1.5,1.4c0.9,0.3,2.1,0.8,2.6,1.6
					c0.1-1,1.3-0.8,2.8-0.5c0.7,0.2,1.5,0.3,2,0.3c0.6-0.1,1-0.4,1-1.5c0.9,0.4,0.2,1,0.8,1.6c-0.2-1.3,0.3-1.9,1.9-1.5l0.1,0.4
					c3.3-1.2,5.7,0,10.3,1l-1.5-2.3c1,0.2,1.5,0.9,2.2,1.4c-0.9-3.9-2.4,0.2-3.6-3.9c1.8,2.2,3.2,2,4.7,1.9c1.5-0.1,2.9-0.2,4.7,3
					c1.3-0.1-1.8-3.2-0.5-3.4l1.1,1.8l-0.7-2.4c1,0.2,2.4,2.5,3.1,4.1c-0.3-0.2-0.4,0.5-0.5,0.6c2,2.2,2.6-1,3.3-0.3
					c-0.5-0.4-1.1-0.8-1.7-1.1c1.3-1.1,3.3-1.1,5-1.4c1.8-0.3,3.4-0.9,4.3-3.5l-0.8-1.7c0.7-1.8,1.4-1.5,2.1-0.8
					c0.7,0.6,1.6,1.5,2.7,0.5l0,0.5c0-0.1,0-0.2,0-0.3l-16.6-8.2c1.6-0.4,2.5-0.2,2.4,0.2c-1.1,0.1-2.1,0.7-3.2,1.1
					c-1.1,0.5-2.2,0.8-3.4,1c1.8-0.2,2.5-0.1,3.7-0.3c1.2-0.1,2.7-0.5,6.4-0.4c-1.1,0.2-2.1,0.5-3.2,0.7c2.9,0,4.5-0.1,5.4,0.9
					c-1.4-0.4-2.7-0.1-4,0c-1.4,0.2-2.9,0.2-4.7,0.1c-0.9,0.2-1.5,0.3-1.8,0.4c0.1,0.4,0.5,0.8,1,1.1c0.5,0.3,1.1,0.7,1.7,1
					c0.3,0.4,0.7,0.7,1.1,1c0.7,0.6,1.3,1.2,1.2,1.7c-0.1,0.5-0.9,1-2.9,1.7c3.7,0.6,4.5-0.4,4.7-1.4c0.2-0.9-0.4-2,0.5-1.5
					c1.2-0.5,2.6-0.1,3.7,0.4c1,0.5,1.5,1.2,1.1,1.8c-0.1,0.6-2.4,1.2-4.5,2.3c-1,0.5-2,1.1-2.8,1.7c-0.7,0.6-1.1,1.3-1.1,2
					c0-0.3-0.4-0.2-0.4-0.5c-0.7,0.7-0.2,1.1,0.2,1.5c0.2,0.2,0.4,0.4,0.3,0.7c0,0.3-0.3,0.6-0.8,1c1.7-0.1,1.6,0.2,1.6,0.5
					c0,0.3,0.2,0.4,2.1-0.1c-0.1-0.6-0.4-1.3-0.6-1.9c0.5,0.5,1.9,0.7,2.7,1c0.8,0.3,1,0.9-0.5,2.1c-0.6,0.1-1.3-0.1-1.8-0.3
					c-1.2,0.9,0.4,0.8-0.9,1.6c-1.7,0.5-1.7,0-1.7-0.6c0-0.7,0.2-1.6-1.4-1.9c-0.4,0.3-0.4,0.5-0.3,0.8c0.1,0.2,0.4,0.4,0.6,0.5
					c0.3,0.3,0.4,0.6-1.6,0.9c1.3-0.2,1.9-0.1,2.1,0.1c0.2,0.2,0,0.5-0.2,0.8c-0.2,0.3-0.4,0.7-0.4,1c0,0.2,0.3,0.4,1,0.4l-1.8,0.6
					c0.3,0.1,1,0.2,0.9,0.5c-0.7,0.1-1.4,0.2-2.1,0.3c0.9,0.1,0.4,0.6,0,1.2l-0.5,0.5c-0.1,0.1-0.1,0.2-0.1,0.3
					c0,0.2,0.1,0.3,0.5,0.3c-0.6-0.5-0.2-0.7,0.4-1c0.3-0.1,0.6-0.2,1-0.3c0.3-0.1,0.7-0.3,1-0.6c0,0,0,0.1,0.1,0.1c0,0,0.2,0,0.3,0
					c0.2,0,0.3,0,0.4,0.1c0.2,0.1,0.3,0.1,0.3,0.2c0,0.2-0.5,0.5-1,0.9c-0.5,0.4-1.1,0.8-1.4,1.1c-0.3,0.4-0.4,0.7,0.2,0.8
					c-0.2,0-0.1-0.3,0.2-0.5c0.3-0.3,0.8-0.6,1.4-0.7c0,0.3-0.4,0.9-1.4,1.5c0.7,0.2,1.2-0.2,1.8-0.5c0.6-0.4,1.1-0.8,2.1-1.1
					c-1.2,0.7-0.8,0.6,0.2,0.2c0.9-0.3,2.4-1,3.2-1.2l-2.5,1.2c-0.3,0.9,5.9-2.7,5.4-1.9l-4.5,2.1c0.5-0.2,1.1-0.4,1.7-0.6l-3.4,1.7
					c3-1.2,2.7-1,2.3-0.4c2.1-1.2,6-3.1,6.9-3.3c-1.5,1-3.5,1.7-2.1,1.4c-2.5,1.2-5.3,2.6-2.5,1c-0.9,0.4-2.5,1.2-3.4,1.7
					c-1,0.6-0.9,0.8-0.6,0.7c0.4,0,1-0.2,1.2-0.2c0-0.1,0.1-0.2,0.6-0.5l6.4-2.7c-1.2,0.8-2.6,1.5-3.8,2.1c0.7-0.1,2.6-1.1,3.4-1.2
					c-1.7,0.9-3.3,1.9-4.8,2.6c-1.5,0.8-2.8,1.3-3.7,1.6c0.7-0.2,1.5-0.4,2.2-0.6c0.8-0.2,1.6-0.4,2.4-0.6c-1.3,0.9-3.4,3.1-4.8,3.7
					c-0.7,1.2,1.4,0.8,3.6,0.7c0.6,0,1.1-0.1,1.6-0.1c0.5,0,1,0.1,1.4,0.2c0.4,0.1,0.7,0.3,0.8,0.6c0.2,0.3,0.2,0.8,0.1,1.5
					c0.8-0.4,1.6-0.7,2.5-0.6c0.1,0.4,0.2,1.1,0.2,1.7c0,0.7,0,1.4,0,2.1l0,1.1c0.1,0.4,0.1,0.7,0.2,1.1c0.2,0.7,0.4,1.4,0.7,2.1
					c0.3,0.1,0.6,0.2,0.9,0.3c0.2,0,0.3,0.1,0.5,0.1l0.7-0.2c1-0.2,2-0.6,3.1-1c1.1-0.4,2.3-0.9,3.5-1.5c0.2-0.1,0.3-0.1,0.5-0.2
					l0.5-0.3c0.3-0.2,0.7-0.5,1-0.7c0.7-0.5,1.4-1,2.1-1.5c0.3,0.6,0.6,1.1,1.1,1.5c0.1,0.1,0.2,0.2,0.4,0.3l0.2,0.1
					c0.1-0.1,0.3-0.3,0.4-0.4c0.5-0.6,1.1-1.2,1.7-1.9c3.6-4.8,4.6-6.2,4.6-6.4c0-0.2-1,0.9-1.5,1.4c-0.6,0.5-0.7,0.4,0.4-1.2
					c0.5-0.8,1.4-1.9,2.6-3.5c0.6-0.7,1.3-1.6,2.1-2.7c0.4-0.5,0.8-1,1.3-1.6c0.1-0.1,0.2-0.3,0.3-0.4l0.2-0.2l0.1-0.1l0-0.1
					c0.1-0.1,0.3-0.3,0.4-0.4l0.1-0.2c0.1-0.1,0.1-0.1,0.1-0.1l0.1,0c0.1,0,0.2,0,0.3,0c0.2,0,0.3,0,0.3,0c0.1,0,0.1,0.1,0.1,0.1
					c0,0.1-0.1,0.4-0.2,0.7c-0.3,0.6-0.6,1.4-0.7,1.6c0.1-0.1,0.1-0.3,0.2-0.5c0.1-0.2,0.2-0.3,0.4-0.6c0.3-0.5,0.5-0.9,1-1.4
					l0.2-0.2c0,0,0.1-0.1,0.1-0.1c0.1-0.1,0.1-0.2,0.2-0.2c0.1-0.2,0.3-0.3,0.5-0.4c0.1-0.1,0.1-0.1,0.2-0.2c0,0,0.1-0.1,0.2-0.1
					l0,0l-2.5,1.2l-0.2,0.1l-0.4,0.2l-0.7,0.4c-1,0.5-2,1-3,1.6c1.2-0.6,2.4-1.3,3.6-1.9l0.4-0.2l2.7-1.4l0,0l0,0l0,0l-0.1,0
					c-0.1,0-0.1,0.1-0.2,0.1c0,0-0.1,0.1-0.1,0.1c0,0-0.1,0-0.1,0.1L132.8,105.7z M119.9,121.6c-0.2,0.1-1,0.7,0-0.1
					C121.5,120.1,120.5,121,119.9,121.6z M141.9,130.9c-0.8,0.8-0.6,0.2-0.1-1.1C142.2,129.7,142.3,130,141.9,130.9z M102.6,182.9
					c0-0.1,0.1-0.1,0.1-0.2C103.4,184.9,103.2,184.1,102.6,182.9z M100.9,180c-0.4,0.5-0.6,1.2-0.7,1.9c0.5-1.1,1-1,1.5-0.4
					C101.9,180.2,101.9,179.3,100.9,180z M120.3,92.2l-1.3,0.4C117.9,92.5,119,92.4,120.3,92.2z"/>
				<path class="st0" d="M138.3,133.4c0.2-0.5,0.5-1.1,0.8-1.6C138.7,132.2,138.5,132.7,138.3,133.4z"/>
				<path class="st0" d="M99.9,119.9c0-0.1,0-0.1,0-0.1c-0.3,0.2-0.6,0.4-0.9,0.6L99.9,119.9z"/>
				<path class="st0" d="M124.3,144.2c0.4,0.7,0.7,1,0.8,1.3C125.2,145.5,125,145.2,124.3,144.2z"/>
				<path class="st0" d="M88.2,181.9l1.5-0.3c-0.6-0.1-0.5-1.2-0.5-2C88.8,180.6,88.5,182.1,88.2,181.9z"/>
				<path class="st0" d="M88.8,152.7c-0.4,0.3-0.3-0.1-0.7,0.2l-0.8,1.6C88,154.8,89.1,153.7,88.8,152.7z"/>
				<path class="st0" d="M92.4,167.8c1.2-3.5,0.1-2.6-0.9-2.4c0.1,0,0.1,0,0.1,0.1C89.6,170.1,91,169,92.4,167.8z"/>
				<path class="st0" d="M91.3,165.5c-0.3,0-0.6,0-0.8-0.3C89.6,166.9,90.6,165.7,91.3,165.5z"/>
				<path class="st0" d="M97.5,181.4c-0.1-1.2-1.8,4.6-1.6,3c-1,2.2,0.2,1.2,1.3-0.3C98.2,182.6,99.1,180.7,97.5,181.4z"/>
				<polygon class="st0" points="96.1,156.4 94.8,160.6 96.5,157.4 				"/>
				<path class="st0" d="M100.9,161.8l-0.8-1.7c-0.2,0.7-0.6,1.1-0.9,1.4C99.9,162,100.5,163.2,100.9,161.8z"/>
				<path class="st0" d="M99.2,161.5c-0.4-0.2-0.8-0.3-1.2,0.3C98.2,161.9,98.7,161.9,99.2,161.5z"/>
				<polygon class="st0" points="98.2,155.7 98.2,156.7 99,157.4 				"/>
				<path class="st0" d="M114.8,166.5c0.6-0.4,1.1-0.9,1.7-1.3c0.3-1.8,0-2.9-0.6-2.2C115.4,164.2,114.8,164.8,114.8,166.5z"/>
				<path class="st0" d="M113,152.1c0.1,1.1-0.1,2.2-0.2,3.9l1.2-6.2C113.6,150.6,113.3,151.3,113,152.1z"/>
				<path class="st0" d="M116.4,150.9c0.4-1.7,1.9-5.1,0.7-4.7C116.8,148,115.6,149.4,116.4,150.9z"/>
				<path class="st0" d="M133.2,155l-0.2,0.2l7,8.4C137.8,160.7,135.6,157.8,133.2,155z"/>
				<path class="st0" d="M113,166.9c-0.2,3.2,3.9-5,3.3-1.4c1.7-1.8,0.5-2.9,2-4.4C116,162.6,116.4,161.1,113,166.9z"/>
				<path class="st0" d="M118.2,161.1c0.4-0.2,0.8-0.5,1.3-1C118.9,160.5,118.5,160.8,118.2,161.1z"/>
				<path class="st0" d="M57.9,93.9c-0.2,0.3-0.5,0.6-0.7,1c0.2-0.1,0.4-0.3,0.6-0.4L57.9,93.9z"/>
				<path class="st0" d="M57.7,97c-0.2-0.1-0.4-0.2-0.6-0.4c0.1,0.4,0.1,0.8,0.1,1.2C57.3,97.6,57.5,97.1,57.7,97z"/>
				<path class="st0" d="M116.2,125.3l0.4-0.3c0.4-0.4,0.3-0.5,0.4-0.7C116.7,124.6,116.5,125,116.2,125.3z"/>
				<path class="st0" d="M119.6,122.2c0,0,0,0.1-0.1,0.1l3.1-2.6L119.6,122.2z"/>
				<path class="st0" d="M129.3,111.6c0.8-1.5,1-2.4,1.6-3.3c-0.6,1-0.8,1.7-1.2,2.4c0,0,0-0.1,0,0c0,0,0,0,0,0c0,0,0,0,0,0l0,0
					c0,0,0,0-0.1,0C129.6,110.7,129.5,111,129.3,111.6z"/>
			</g>
		</g>
	</g>
</g>
<g>
	<path class="st1" d="M123.7,98H70.2c0,0-0.1,0-0.1,0V78c0-14.7,12.1-26.8,26.8-26.8s26.8,12.1,26.8,26.8c0,4,2.7,6.7,6.7,6.7
		c4,0,6.7-2.7,6.7-6.7c0-22.1-17.4-40.1-40.1-40.1c-22.1,0-40.1,18-40.1,40.1v23.6c-8,4.6-13.4,13.3-13.4,23.2v46.9
		c0,14.7,12.1,26.8,26.8,26.8h53.6c14.7,0,26.7-12.1,26.7-26.8v-46.9C150.4,110,138.4,98,123.7,98z"/>
	<path class="st1" d="M110.3,138.2c0-7.4-6-13.4-13.4-13.4c-7.4,0-13.4,6-13.4,13.4c0,4.9,2.7,9.2,6.6,11.5v15.2
		c0,4,2.7,6.7,6.7,6.7c4,0,6.7-2.7,6.7-6.7v-15.2C107.6,147.4,110.3,143.1,110.3,138.2z"/>
</g>
</svg>
