<?xml version="1.0" encoding="utf-8"?>
<!-- Generator: Adobe Illustrator 24.0.2, SVG Export Plug-In . SVG Version: 6.00 Build 0)  -->
<svg version="1.1" id="Layer_1" xmlns="http://www.w3.org/2000/svg" xmlns:xlink="http://www.w3.org/1999/xlink" x="0px" y="0px"
	 viewBox="0 0 198.4 198.4" style="enable-background:new 0 0 198.4 198.4;" xml:space="preserve">
<style type="text/css">
	.st0{fill:#F5BCDF;}
	.st1{fill:#646565;}
</style>
<g>
	<g>
		<g>
			<g>
				<g>
					<path class="st0" d="M178.7,96.6c0,0.4,0.3,0,0.3,0C178.9,95.9,178.6,96.7,178.7,96.6z"/>
					<path class="st0" d="M176.3,92.3l0.4-0.3c-0.3,0.1-0.7,0.1-1.1,0.2C175.8,92.2,176,92.2,176.3,92.3z"/>
					<path class="st0" d="M174.4,87.8c-0.9,1.4-0.6,1.6-0.2,1.8c0.5,0.1,1,0.2,0.9,1l-0.3,0.6l1.5-1.2c-0.3-0.4-0.8-0.7-1.2-0.9
						C174.6,88.8,174.3,88.4,174.4,87.8z"/>
					<path class="st0" d="M178.5,79.7c-0.9,1.2-0.9,0.3-0.2,1c0.1-0.2,0.1-0.3,0.2-0.4C178.5,80.2,178.4,80,178.5,79.7z"/>
					<path class="st0" d="M178.5,80.3C178.6,80.8,179.2,79,178.5,80.3L178.5,80.3z"/>
					<path class="st0" d="M177.5,78.2c0.4-0.1,0.7-0.2,1-0.3c0.5-0.8,0.6-1.7,1.1-1.9C179,75.8,178.4,76.7,177.5,78.2z"/>
					<path class="st0" d="M175.4,79.7l0.5-0.1C176.1,79.3,176.2,79.1,175.4,79.7z"/>
					<path class="st0" d="M176.9,79.5c-0.3,0-0.7,0.1-1,0.1c-0.4,0.6-1.2,1.5,0.4,0C175.5,80.5,176.3,79.8,176.9,79.5z"/>
					<path class="st0" d="M176.6,80.4c-0.5,1-0.6,1.9-1.7,2.2C175.7,83.5,177.3,81.4,176.6,80.4z"/>
					<path class="st0" d="M172.2,90l-0.3,1.1l0.9-0.4C172.3,90.8,172.8,89.3,172.2,90z"/>
					<path class="st0" d="M178,71.9c-0.7,0.7-1.7,2.2-2.5,3.2l0.9-0.3C176.8,74,177.1,73,178,71.9z"/>
					<path class="st0" d="M175.6,75.1l-1.4,0.5C174.3,76.4,174.9,75.9,175.6,75.1z"/>
					<path class="st0" d="M172.4,83c0.9-0.4,1.7-0.8,2.5-1.2c-0.8,0.3-1.7,0.6-2.6,1L172.4,83z"/>
					<polygon class="st0" points="177.5,68.7 179.2,67.3 176.9,69 140.1,83.4 140.7,83.5 140.3,83.5 176.8,69.1 					"/>
					<path class="st0" d="M139.7,83.8c-2-0.4-3.5-0.5-4.7-0.7c0.3,0.1,2.1,0.4,3.6,0.8C137.8,83.6,138,83.6,139.7,83.8z"/>
					<path class="st0" d="M140.9,84.5c-0.5-0.2-1.3-0.4-2.3-0.6C139.3,84.1,140,84.3,140.9,84.5z"/>
					<path class="st0" d="M174.1,74c0.4-0.5,1.4-1.9,1.8-2.8l-1.8,2.5C174.1,73.8,174.1,73.9,174.1,74z"/>
					<path class="st0" d="M174,73.8L174,73.8c0-0.4,0-0.7-0.1-0.8C173.9,73.1,174,73.3,174,73.8z"/>
					<path class="st0" d="M174.1,74.1C174.1,74.1,174.1,74,174.1,74.1C173.9,74.3,173.9,74.4,174.1,74.1z"/>
					<path class="st0" d="M173.1,79.5c-1.1,0.7-2.6,1.2-3.7,3.6C170.7,82,171.4,80.6,173.1,79.5z"/>
					<path class="st0" d="M171.9,77.2l-0.1,1.2c0.5-0.6,1.1-1.5,1.7-1.9L171.9,77.2z"/>
					<polygon class="st0" points="171.1,77.5 171.9,77.2 171.9,76.7 					"/>
					<path class="st0" d="M143.8,84.7c1.3,0.3,1.4,0.5,1.5,0.7c0.6-0.1,1-0.2,1-0.4C145.4,84.8,143.7,84.5,143.8,84.7z"/>
					<path class="st0" d="M144.7,84.2c0.1,0,0.1,0,0.2,0C145.1,84.3,145.2,84.3,144.7,84.2z"/>
					<path class="st0" d="M145,87c0.2,0.1,0.4,0.1,0.5,0.2C145.4,87.1,145.2,87,145,87L145,87z"/>
					<path class="st0" d="M146.9,85.1c0.6-0.1-0.1-0.3-1-0.5c0.3,0.1,0.5,0.3,0.5,0.4C146.7,85.1,147,85.1,146.9,85.1z"/>
					<path class="st0" d="M142.2,85.1c0.6,0.1,1.2,0.2,1.7,0.2C142.9,85.2,141.4,84.9,142.2,85.1z"/>
					<path class="st0" d="M144,84.2c0,0-0.1,0-0.1,0C143.3,84.1,143.6,84.1,144,84.2z"/>
					<path class="st0" d="M144,84.2c0.4,0.1,1.2,0.3,1.8,0.4c-0.2-0.1-0.5-0.2-1-0.4C144.6,84.2,144.3,84.2,144,84.2z"/>
					<path class="st0" d="M164.2,94.8c-3.1-1.4-5.5-2.9-2.4-2.6c-2-1.4-11.1-3.6-16.3-5.1c1.2,0.4,2.3,0.8,3.9,1.8
						c0.8,0.2,1.7,0.3,2.7,0.4c1,0.1,2.2,0.4,3.4,1c1.3,1.2-1,0.3-2.5,0.1c1.7,0.5,3,1.2,4.4,2c0.7,0.4,1.5,0.9,2.4,1.3
						c0.4,0.2,0.9,0.5,1.5,0.7c0.6,0.3,1.2,0.5,1.9,0.8l-1.9-1.6C162.1,93.9,163.4,94.8,164.2,94.8z"/>
					<path class="st0" d="M145.9,86.6l-0.3-0.2c-0.5,0-1.6-0.2-3.8-0.7c1.3,0.6,2.3,1,3.2,1.3l0.5-0.5L145.9,86.6z"/>
					<path class="st0" d="M145.7,85.8c3,0.8,4.2,1.6,7.5,2.1c-0.1-0.6-2.5-1-3.7-1.6c0.3,0.5-0.1,0.3-0.8,0.1
						c-0.7-0.3-1.7-0.6-2.6-0.5c-0.5-0.2-0.6-0.4-0.7-0.5c-0.4,0-0.9,0-1.4,0c0.1,0,0.1,0,0.2,0l0,0c0,0,0,0,0,0
						c0.4,0.1,0.6,0.1,0.4,0.1c0,0,0,0,0.1,0C144.9,85.6,145.3,85.7,145.7,85.8c-0.7,0-0.8-0.2-1.1-0.3c-0.1,0-0.3-0.1-0.4-0.1l0,0
						c0.5,0.3,1,0.6,1.5,1C146,86.4,146,86.2,145.7,85.8z"/>
					<path class="st0" d="M165.1,87c0.1-0.2,0.3-0.4,0.4-0.5C165.2,86.6,165,86.8,165.1,87z"/>
					<path class="st0" d="M165.8,85.3c0.3-0.2,1.1-1,1.1-0.5c-0.4,0.8-0.9,1-1.5,1.7c0.6-0.4,1.7-1,2.2-2.4l-0.3,0.2
						c0.3-1.1,2.2-4.4,2.5-4.7C168.3,81.7,167.2,83.2,165.8,85.3z"/>
					<path class="st0" d="M153.4,85.4c0.5,0.3,0.9,0.7,1.4,1c0.9,0,1.8,0,2.7,0l-1.6-0.2C156.5,85.8,154.6,85.6,153.4,85.4z"/>
					<path class="st0" d="M143.5,86.5l-3.2-1.1c1.5,0.6,3,1.2,4.4,1.8L143.5,86.5z"/>
					<polygon class="st0" points="143.7,87.2 141,86.1 142.6,86.9 					"/>
					<path class="st0" d="M116.9,144l0,0.5C117,144.3,116.9,144.1,116.9,144z"/>
					<path class="st0" d="M118.7,142l-0.5-0.4C118.5,141.8,118.6,142,118.7,142z"/>
					<path class="st0" d="M136.5,96.3c-0.7-3.2-1.7-8.4-1-4.3l0.7,3.9C136.2,95.2,136.3,95.6,136.5,96.3z"/>
					<path class="st0" d="M122.8,121.2c0.2,0.2,0.5,0.3,0.8,0.5c-0.7-0.8-1.3-1.5-1.9-2.2C122,120,122.4,120.6,122.8,121.2z"/>
					<path class="st0" d="M131.9,129.2c-0.6-0.4-1.2-0.8-1.8-1.2C130.5,128.3,131.1,128.7,131.9,129.2z"/>
					<path class="st0" d="M109.2,158.5l0.9,1.9C110.5,159.5,109.7,159.2,109.2,158.5z"/>
					<path class="st0" d="M140.9,90.5c-0.9-0.7-1.3-0.9-1.5-0.9C140.7,90.6,142.5,92.1,140.9,90.5z"/>
					<path class="st0" d="M105.7,135.2c0.1,0.3,0.3,0.5,0.6,0.7C106.2,135.6,106,135.3,105.7,135.2z"/>
					<path class="st0" d="M139.2,89.8c0.2,0.2,0.3,0.3,0.5,0.4c-0.2-0.4-0.4-0.7-0.2-0.7C138.6,88.8,138.1,88.3,139.2,89.8z"/>
					<path class="st0" d="M64.8,184.9c-0.1-0.1-0.2-0.2-0.3-0.3C64.7,184.9,64.7,185,64.8,184.9z"/>
					<path class="st0" d="M43.6,169.5c0.1-0.2,0.2-0.5,0.3-0.7C43.8,168.9,43.7,169.1,43.6,169.5z"/>
					<path class="st0" d="M141.9,88.6C141.8,88.5,141.6,88.4,141.9,88.6L141.9,88.6z"/>
					<path class="st0" d="M153.9,94.8c0.3,0.2,0.8,0.5,1.4,0.9C154.7,95.2,154.2,95,153.9,94.8z"/>
					<path class="st0" d="M148.3,105.2C148.3,105.2,148.3,105.2,148.3,105.2C148.8,105.7,148.7,105.6,148.3,105.2z"/>
					<path class="st0" d="M143.4,89.4c-0.4-0.2-0.7-0.4-1-0.6C142.6,89,142.9,89.2,143.4,89.4z"/>
					<path class="st0" d="M141.9,88.6c0.2,0.1,0.2,0.1,0.3,0.1C141.8,88.4,141.5,88.2,141.9,88.6z"/>
					<path class="st0" d="M141.9,88.6c0,0,0.2,0.1,0.4,0.2C142.1,88.7,142,88.6,141.9,88.6C141.9,88.6,141.9,88.6,141.9,88.6z"/>
					<path class="st0" d="M86.7,170.5c-0.1-0.1-0.1-0.2-0.2-0.3C86.8,171.9,86.9,171.6,86.7,170.5z"/>
					<path class="st0" d="M137.5,142c0-0.1,0-0.1,0-0.2c0-0.1,0-0.1,0-0.2L137.5,142z"/>
					<path class="st0" d="M136.9,145.7c0.1-3,0.1-4.3,0.3-4.7c0.1-0.4,0.2,0.1,0.4,0.7l-0.9-13.4
						C136.7,133.8,136.8,139.7,136.9,145.7z"/>
					<path class="st0" d="M113.2,149.5l1.4,0c0.8,2.2-0.1,2.6,1.7,2.9c-1.6-1.4-1.1-2.3-0.7-3.1c0.5-0.8,0.9-1.6-0.7-2.9l1,0
						c-0.1,0.1,0,0.3-0.1,0.4c2.3,0.2-1.8-2.4-0.5-3.2c0.6-0.2,1.3-0.1,1.5,0.4l-0.1-1.5c0.3-0.2,0.8,0.3,0.6,0.5l0.8-1.5l0.1,0.1
						c-0.4-0.6-0.9-1.5-1.2-2c0.8,0,0.3,0.4,0.8,0.6l-0.3-1.3c1.3,0.3,1.7,1.5,1.1,1.9c2.2,0.8,2.1,0.5,1.9,0
						c-0.2-0.5-0.6-1.3,1.3-1.2l-0.2,0.9c1.3,0.5,2,0.5,2.6,0.4c0.6-0.1,1.1-0.3,2.3-0.2c-0.5-0.1-1.9-0.4-3.2-0.7
						c-1.2-0.3-2.3-0.7-2.5-1.4c0.5,0,1-0.2,0.5-1.1c1.6,0.9,1.6,0.3,2-0.2l2.1,1.2c0-0.8-1.2-1.4-1.9-2.3c0.8-0.5,2.8,0.4,4.6,1.1
						c0.8-0.3-0.2-0.6-1.2-0.9c-1-0.3-2.1-0.7-1.7-1.4c1.8-0.2,1.6-1.3,0.8-2.9c1.5,0,1.6,1,2.6,1.2c-0.6-0.5-1.1-1-1.7-1.5
						c0.2-0.1,0.9,0.3,1.2,0.5c-0.5-0.8-2.9-1.5-3.1-2.5c-1.6-0.9-0.1-0.6,1.5-0.3c1.6,0.3,3.2,0.8,1.6-0.6c1.1,0.5,1.9,1.2,3.2,1.9
						c-0.8-1-1.1-1.4-1.5-1.8c-0.4-0.5-1-1-2.5-2.5c0.9,0.4,1.9,0.9,2.8,1.4c-1.5-0.9-2.8-1.9-4-3.1c-1.2-1.2-2.3-2.5-3.3-3.8
						c-1.4-0.9-2.6-1.5-3.2-1.8c-0.3-0.9-0.6-1.8-0.9-2.9c0.7,0.3,1.7,1.6,2.9,3c-0.2-0.3-0.4-0.7-0.6-0.9c1.5,0.8,3.2,2.9,4.8,4.7
						c-0.7-0.5-1.5-1.1-2.3-1.6c1.8,2,3.9,3.9,5.9,5.5c-0.3-0.3-0.6-0.7-0.7-0.8c0.5,0.5,1,0.9,1.3,1.2c0.4,0.3-0.3-0.3-1-1.1
						c1.3,1.1,2.5,2.2,3.8,3.4l-1.4-1.4c0.2,0.2,0.5,0.4,0.7,0.6l0.6,0.6l-0.4-0.5c-0.1-0.1-0.2-0.3-0.4-0.4l-0.3-0.4
						c-0.1-0.1-0.2-0.2-0.3-0.3l-0.5-0.8c-0.2-0.3-0.4-0.6-0.6-0.9c-0.4-0.6-0.8-1.3-1.1-1.9c-0.7-1.3-1.2-2.6-1.4-3.8
						c-0.3-1.1-0.4-2.2-0.1-2.8c0.4,2.1,0.9,3.7,1.4,5.5c0.1,0.2,0.1,0.5,0.2,0.8c-0.1-0.2-0.1-0.4-0.2-0.6l0,0l0,0
						c0.6,1.3,1.2,2.5,1.8,3.8l0,0.1l0.1,0.1c0.1,0.1,0.1,0.2,0.2,0.3c-0.2-0.3-0.1-0.2-0.1-0.2c-0.1-0.2-0.1-0.2-0.2-0.3l0,0l0,0
						l-1.8-3.8l0,0l0,0l0,0l0.1,0.1c0,0.1,0.1,0.2,0.1,0.3c0,0,0.1,0.2,0.2,0.5c0-0.1,0,0.1,0.1,0.4c0,0.3,0.1,0.6,0,0.8
						c0,0,0,0,0-0.5c0,0.1,0,0.2,0,0.3c-0.1,1.6-0.1,3.4-0.2,5.2c-0.1-0.5,0-1.3,0-1.4c0,0,0,0.1,0,0.6c0,0.1,0,0.3,0,0.5
						c0,0.1,0,0.2,0.1,0.4c0,0.3,0.1,0.7,0.1,1.2c-0.1,0-0.3-0.2-0.3-0.1c0-0.2,0-0.1-0.1,0.7c0-0.1,0-0.1,0-0.1l0,0
						c0,0,0.1-0.1,0.1-0.1c0.1-0.2,0.3-0.3,0.4-0.4c0.3-0.1,0.5,0.2,0.7,0.6c0.4,0.9,0.6,2.6,0.3,4.3l-0.3,0c1,1.2,2.7,1.5,3.9,0.2
						c0.3-0.3,0.6-0.7,0.8-1.2c0.2-0.5,0.4-1.1,0.6-1.8c0.3-1.4,0.4-3.2,0.4-5.6c0.1,1.2,0.2,11.6,0.2,13.6
						c0.3-5.5,0.4-10.7,0.4-15.6l0-3.7l0-1.8l0-1.6c-0.1-2.1-0.1-4.2-0.2-6.3c0.2,3.8,0.6,9.8,1,15.5c0.4,6,0.8,11.4,0.6,13.6
						c0.1,0.6,0.3,1.1,0.3,1.2c0,0.1,0.1-0.3,0-1.5c0-0.5-0.2-3.2-0.4-5.8c-0.2-2.6-0.3-5.2-0.3-5.4c0.4,5.4,0.3,5.7,0.4,7.1l0,0
						c0.1,0.7,0.4,1.7,1.1,4.1c-0.3-0.7-0.5-3.9-0.6-6.8c-0.1-2.9-0.1-5.7,0.2-5.7c0.1,1.7,1.1,11,0.9,12.3
						c0.2-3.8,0.3-7.7,0.3-11.6c-0.1,2.2,1,9.5,1.8,12.6c-0.4-2.1,1.4-0.3,1.6-1.6l-1-2.3c2,1-1.2-17.1-0.3-17.7
						c0.4,2.6,2.6,15.2,3.6,16.1c-0.5-3.1-1.7-10.7-3.1-18.2c-0.5-3-1.1-6.1-1.6-9c-0.5-2.5-0.8-4.5-1-5.6l0.8,2.5
						c-0.2-1.2-0.4-2.4-0.6-3.6c0.5,1.8,1,4.1,1.6,6.7c0.3,1.3,0.6,2.7,0.9,4.1c0.3,1.7,0.7,3.4,1,5.1c1.5,7.4,2.5,14.7,2.9,18.8
						c1.2,2.3,1.1,3.9,1.9,3c1.1,3,0.7,5.3,0.5,5.7c0.9,0.2,1.8,0.3,2.7,0.4c-2-7-0.5-8.5-2.4-14.3c0.1,1.6,0.1,3.1,0.2,4.7
						c0,1.5,0,3.1,0,4.6c-1-3.5-1.9-8.8-2.7-13.2c-0.7-4.4-1.3-8-0.7-8c0.5,1.3,1.5,4.5,2.4,7.6c0.9,3.2,1.7,6.3,2.1,7.5
						c-0.3-1.3-0.4-2.7-0.3-3.6c0.1-0.9,0.3-1.4,0.6-0.6c0.3,1.4,0.5,3,0.8,4.4c0.8,1,0.3-1.7-0.1-3.9c-0.2-1.1-0.3-2.1-0.2-2.3
						c0.1-0.3,0.5,0.1,1.4,1.6c0.1,0.1,0.5,0.6,0.9,1.4c0.4,0.7,0.9,1.6,1.4,2.3c0.9,1.4,1.6,2.3,0.7,0.2c-2-3.7-5.5-11.8-8.8-19.8
						c-1.3-3.2-2.6-6.3-3.6-9c-0.9-2.2-1.6-4-1.9-5c0.1,0.1,0.7,1.1,1.5,2.3c0.8,1.2,1.8,2.5,2.4,3.5c0.3,0.4,0.5,0.9,0.8,1.4
						c0.4,0.8,0.8,1.7,1.2,2.6c0.8,1.8,1.7,3.8,2.5,5.7c1.6,3.8,3,7.5,4.5,10c-0.4-1-0.9-2.1-1.2-3.1c-0.4-1-0.7-1.9-0.8-2.4
						c1.1,1.2,2.7,6.1,3,4.3c-0.9-1.8-1.2-2.8-1.3-3.3l0-0.2l0-0.1l0,0l0,0l0,0c0.6,1.1-5.1-10-2.7-5.3l0,0l0,0l0,0
						c0,0,0.1-0.1,0.1-0.1c0.1,0,0.2,0,0.2,0c0.2,0,0.3,0.1,0.1-0.1c-0.1-0.1-0.2-0.2-0.4-0.5c-0.1-0.1-0.2-0.3-0.4-0.4
						c-0.1-0.1-0.2-0.2-0.3-0.3c0,0-0.1-0.1-0.1-0.1l-0.1-0.1l0,0c-2-3.8,2.7,5.2,2.2,4.3l0,0l0,0l0,0l0,0l0,0l0,0l-2.2-4.3l0,0l0,0
						l0,0l0,0l0-0.1l0-0.1c0-0.1,0-0.1,0-0.2c0-0.1,0.1-0.2,0.1-0.2c0.1,0,0.3,0.1,0.5,0.2c0.4,0.3,0.9,0.7,1.4,0.4
						c-1-1.5-2.3-4.1-3.6-6.8c-1.4-2.9-2.1-4.7-2.3-5.5c0.3,0.5,0.7,1,1,1.5c0.4,0.5,0.7,0.9,1,1.2c0.6-0.3,1.5-0.1,2.5,0.2
						c1,0.3,2.1,0.6,2.8,0.2c1.3,1.3,3.6,2.4,5.5,5c-0.6-1.1-2.2-3.1-1.8-3.5c5.9,4.2-0.6,1.4,5.9,6.6c-1.5-1.6-2.2-2.9-2.7-4.1
						c-0.5-1.2-0.8-2.3-1.6-3.5c-2.8-2.3-3.4-2.3-3.1-1.5c0.2,0.9,1.2,2.7,1.8,3.9c-1.6-1.7-3.2-3.5-4.7-5.2
						c-0.4-0.4-0.7-0.9-1.1-1.3c-0.2-0.2-0.4-0.4-0.6-0.6l-0.3-0.4c-0.3-0.5-0.7-1-1.1-1.5c-1.3-1.9-2.5-3.6-3-4.6
						c-0.4-1.2,3,2.1,2.5,1.5c1.2-0.1-0.4-1.6-1.9-2.9c-1.4-1.3-2.8-2.3-0.5-1.2c1.8,1,3.4,2,4.9,3c1.4,1,2.7,1.8,3.9,2.6
						c0.2,0.4-0.7,0.1-1.6-0.2c-0.9-0.4-1.9-0.8-2.1-0.7c0.7,0.3,1.4,0.5,2.1,0.8c0.7,0.7,0.9,1.5-0.3,0.9c0.4,0.2,0.7,0.4,1.1,0.5
						c0.5,0.2,0.9,0.3,1.3,0.4c0.7,0.2,1.3,0.1,1.9,0.1c1.2-0.1,2.5,0.2,5,1.5c-0.6-0.4-1.4-0.9-1.9-1.2c-0.4-0.3-0.8-0.5-1.1-0.6
						c-0.3-0.2-0.6-0.4-1.1-0.7l0,0.1c-1.7-0.9-2.4-1.4-3.1-1.8c-0.6-0.4-1.1-0.7-2-1.2c-0.4-0.3-0.9-0.5-1.3-0.8
						c-0.2-0.1-0.5-0.4-0.8-0.6c-0.2-0.2-0.5-0.4-0.7-0.6c-0.8-0.8-1.2-1.2-0.3-1.1l4.3,2.1c-1.2-0.6-2.6-0.8-1.3,0.1
						c-0.9-0.7,0.5-0.2,1.6,0c1,0.2,1.6,0.1-1.2-1.4c-1-0.3-2-0.6-3-1c-1-0.8-2.7-1.8-3.9-2.6c-1.2-0.8-2-1.3-1.2-1.2
						c-4.2-1.6,0.5,0.3-4.5-1.6c3.1,1.3,3,1.5,2.9,1.7c-0.1,0.2-0.1,0.4,3.2,1.8c-2.9-1.2-3.5-1.5-4-1.6c-0.5-0.1-0.9-0.2-3.4-1.4
						c1.4,0.8,2.7,1.4,1.9,1.3c0.3,0.2,0.9,0.6,1.2,0.8c0,0-0.1,0-0.1,0c0.1,0,0.1,0.1,0.2,0.1c0.2,0.1,0.2,0.2,0.1,0
						c0.6,0.3,1.4,0.6,2.2,1.1c0.8,0.5,1.4,0.9,1.8,1.3c0.4,0.3,0.6,0.4,0.8,0.6c0.5,0.3,0.9,0.6,1.2,0.8c-0.9-0.4-1.4-0.9-3-1.8
						l2,1.3c-1.5-0.9-2.8-1.6-3.9-2.2c-1.1-0.6-1.9-1.2-2.6-1.7l-0.4-0.1c-1.7-1-2.4-1.3-1.5-0.6c-0.6-0.4,2.4,2,0.6,0.6
						c0.4,0.4,0.7,0.8,1,1.3l-0.6-0.5c-0.4,0,0.3,0.9,0.5,1.5c0.2,0.6-0.2,0.8-2.1-0.9c0.4,0.6,0.8,1.5,0.1,1.1l-1.5-1.9
						c0.2,0.4-0.3,0-0.5-0.2c-0.3-0.3-0.4-0.4,0.2,0.8c-1.9-2.8-2.1-3.1-2-2.7c0.1,0.4,0.5,1.5,0.2,1l1.5,3.3
						c-0.2,0,0.2,1.1,0.6,2.9l1.2,3.1c0.4,1.5,0.1,1.2-0.3,0.6c-0.4-0.6-0.9-1.6-1-1.2c-0.4-1.4-0.2-1.1,0.1-0.4
						c-1.4-3.6-1-2-0.6,0.1c0.4,2,0.6,4.6-0.2,1.7c0.2,1.5,0.1,1.2-0.2,0.3c0,0,0-0.1,0-0.2c0,0,0,0,0,0c-0.2-0.6-0.3-1.3-0.5-2
						c0.2,0.9,0.4,1.7,0.5,2c0,0.2,0,0.8,0,2l-0.8-4.3c0,0.1,0,0.1,0,0.2c-0.3-1.5,0.3,2.2,0.9,5.5c0.1,0.8,0.2,1.8,0.3,2.9
						c-0.6-3.5-0.6-2.9-0.6-2.2c0,0.7-0.1,1.3-0.6-2.6c0.4,4-0.3,3.5,0.2,12.1c-0.1-1.1-0.2-1.6-0.1-1.7c-0.2-0.5-0.4-1.1-0.5-0.6
						l0,0c0,0.4,0.1,0.7,0.1,1.1l-0.4-6.2c0.2,2.6,0.3,5,0.4,7.5c-0.3-4-0.5-6.1-0.7-10.4c0.1,3.2,0,3.6,0,4.1c0,0.5-0.1,1-0.3,4
						l-0.1-3.6c-0.1,0-0.5,4.4-0.6,1.4c-0.3-3.5-0.8-4.1-1.6-4.4l-0.3-0.1l-0.1-0.1c-0.1,0,0-0.1-0.3-0.1c-0.4,0-0.8-0.1-1.2-0.2
						l-0.6-0.1l-0.7-0.1c-1-0.1-1.9-0.3-2.9-0.5c-0.5-0.1-1-0.2-1.5-0.4c-0.5-0.1-1.1-0.3-1.6-0.4c0.9,2.2,1.1,3.1,0.9,3.3
						c-0.2,0.2-0.8-0.2-1.4-0.6c-1.4-0.8-3.4-1.5-2,1.8c-0.3-0.4-0.7-0.8-1-1.1c-0.3-0.3-0.6-0.7-0.8-1c-0.5-0.7-0.8-1.4-0.8-2.5
						c-1,2-2.2,1.9-3.3,2.4c-1,0.4-1.6,1.3-0.5,4.2c-1.5-1.3-1.5-2.8-2.4-3.5c0.1,0.6,0.5,2.1-0.4,1.5c-1-0.6-0.8-1.6-1.1-2.8
						c-0.5,0.7-0.5,1.6-0.3,2.5c0.2,0.9,0.7,1.9,1.4,2.9c1.3,2,3.4,4.1,5.3,6.1c-2.5-1-2.5-0.1-0.1,2.7c-1.5-0.9-3.2-1.4-3.1-3
						c-0.3,0.2-1.3,0.8-1.7,1.7c-0.4,0.9-0.2,1.9,1.4,3c-0.9-0.4-0.5,0.6-0.2,1c-0.6,1.1-0.9,1-0.8,2.3l0.6,0c1.8,1.2,2,1.6,1.7,1.7
						c-0.3,0.2-1,0.2-0.9,0.7l-0.4-0.2c-1.5,0.3-1.2,0.7-1,1c0.2,0.3,0.3,0.6-1.2,0.8l2,0.9c2.1,1.2,1.3,1.2,0.3,1.2
						c-1.1,0-2.4,0-1.8,0.8l1.1,0.2c0.6,0.6-0.9,0.3-2.4-0.1c-1.6-0.4-3.2-0.9-3.5-0.8c-0.3,0-0.5-0.5-0.7-0.8
						c-2.2,0.3,2.1,1.4,2.4,2.7c-1.1-0.4-2.8-1.8-3.1-1.2c-0.5-0.1,0.4,1,0.9,1.9c0.6,1,0.8,1.9-0.2,1.8c0.8,0.3,1.6,0.5,2,1.3
						c0,0.4-0.9,0.5-1.5,0.6c-0.6,0.2-1,0.5-0.1,1.5c-0.2,0-0.4-0.1-0.6-0.2c0.3,0.9,0,2.1,0.9,3.2c-2.2-1.3-2.1-0.2-2.1,0.8
						c0,1,0,2-1.7,0.5c-0.3,0.4-0.7,0.9-1,1.2l-0.3-0.4c-1.1,0.4-0.5,1.4,0,2.5c-0.5-0.1-0.6-0.6-0.8-0.8c-2.1,0-2.1,0-1.4,2.8
						l-1.4-1.4c0.2,0.5-0.8,0.1-1.9-0.3c-1.1-0.4-2.3-0.9-2.3,0.3c-0.1-0.2-0.4-0.6-0.4-0.9c-0.1,1.2-2.1-0.2-3.5-1.3
						c-1.5-1.1-2.4-1.6-0.2,3.3l0.1,2.6c1,0.3,1.5,1.4,1.9,2.7c0.5,1.3,0.9,2.7,1.6,3.5c-0.1,0.4-0.9-0.2-1.6-1
						c-0.7-0.9-1.3-2-1.1-2.4l0.4,0.5c-1.2-2.8-2-3.2-2.6-3.5c-0.6-0.2-1.2-0.2-2.1-2.3c-1.5,0.1-3.3-0.6-5.3-1.5
						c-1.9-0.9-3.9-1.9-5.5-1.8l2.7,5.9l-1.2-0.1c-0.8-1.3-2.3-4.6-1.4-4.5c-1.8-3.3-0.1,3.1,0.4,4.5c-2.4-2.1-2.3-7.2-2.8-7.2
						l-0.4,0.6l0.4,0.7c0.5,2.6,1.5,5.3,0.6,5.2c-1-1-1.8-3.7-2.1-3.8c-0.2-0.4-0.3-0.6-0.4-0.1c-0.5,0-1,0-1.4,0l2.4,4.6
						c0.4,2.6-1.2,0.2,1.5,5.5c-4.2-8.1-5.7-1-7.2-3.3c0.6,3.8-0.1,4.1-1.2,4.2c0.6,0.8,2.8,6,1.8,5.7c-4-10.8-3.3-3.9-6.8-11
						c2.5,4.6-1.6,2.6,2,8.9c-1-0.5-1.6-3.8-3-5.8c0.1,2.4-1,2.3-2.2,2.1c-1.2-0.3-2.5-0.7-3.1,0.6c0.4,1.2,1.5,2.8,1.8,4.8l-3.2-5
						c-0.1,0.9,2.3,6.7,0.1,3.4c0.5,0.8,1.1,2.1,1.1,2.7c-1.4-0.7-2.3-0.3-3.2,0.5c-0.8,0.8-1.5,2-2.2,3c-0.7,1-1.5,1.9-2.4,2.5
						c-0.5,0.3-1,0.5-1.5,0.6c-0.5,0.1-1.1,0.2-1.6,0.2c0.8,0.3,0.6,0.9,0.3,1.4c0.3-0.1,0.5,1.2,0.8,1.8c-0.7-0.2-1.3-0.1-1.9,0
						c0.2,0.9-0.1,1.4-0.4,1.9c-0.3,0.5-0.6,1-0.5,1.5c0.1-0.2,0.2-0.4,0.3-0.7c0,0.9,0.4,1.2,1,1.8c0.6,0.6,1.4,1.5,1.7,2.4
						c0.1-0.8,0.9-0.2,1.9,0.6c0.5,0.4,1,0.8,1.4,0.9c0.4,0.1,0.7-0.1,0.7-1c0.6,0.7,0.1,1,0.6,1.7c-0.1-1.2,0.2-1.6,1.3-0.8
						l0.1,0.4c2.3-0.2,4,1.6,7.3,3.4l-1.2-2.5c0.7,0.3,1.1,1.1,1.7,1.8c-0.9-3.8-1.7-0.3-2.8-4.4c1.4,2.4,2.4,2.5,3.4,2.7
						c1,0.1,2,0.3,3.6,3.6c0.9,0.1-1.6-3.3-0.7-3.3l1,1.8l-0.7-2.4c0.7,0.4,2,2.7,2.6,4.3c-0.2-0.2-0.2,0.4-0.3,0.5
						c1.7,2.3,1.8-0.6,2.4,0.1l-1.3-1.2c0.8-0.9,2.2-0.8,3.4-0.9c1.2-0.2,2.3-0.7,2.5-3.1l-0.8-1.7c0.2-1.7,0.7-1.3,1.3-0.7
						c0.6,0.6,1.3,1.5,1.9,0.5l0.1,0.4c-0.3-1.8-0.2-2.8,0.3-2.8c0.4,2.2,2.5,3.9,2.8,6.3c0.2-2,0.1-2.7-0.2-3.9
						c-0.3-1.1-0.8-2.6-1.6-6.2l1.5,2.9c-0.7-2.8-1.3-4.3-0.7-5.4c0.4,2.8,2.4,4.5,3,8.2c4.5,6.2-0.1-7.6,4.7,2
						c-2.6-8.8-3.4-4.2-3.7-6.2c-1.5-2.6-1.9-6.6-1-6c0.6,0,5.4,10.6,6.7,9.9c-0.2,0,0.1,0.7-0.1,0.7c1.4,2-0.2-3.4,1.9-0.2
						c-1.7-5.3,0.9-0.1-1.6-6.7l-0.6,2.1c0-2.1-2.4-10,0.3-6.9c0.4,1.3,0.8,3.2,0.9,4.3c1.1,1.7,0.1-1.6,1.3,0.1
						c1.2,3.2,1,3.8,0.6,4.3c-0.4,0.4-0.9,0.7-0.3,3.4c1.5,2.6-0.5-5.5,2,1.7c-1.5-4.7-1.1-4.5-0.5-4.2c0.6,0.3,1.3,0.8,0.4-2.8
						l1.5,3.8c-0.1-0.7-0.5-2.7-0.2-2.8l1.5,5.2c-0.5-2.4,0.2-1.7,1-0.9c0.8,0.8,1.7,1.8,1.6,0.4c-0.7,0.8-1.2-0.3-1.8-1.8
						c-0.6-1.5-1.2-3.4-2-4.5c-0.2-6.2,4.9,8.7,6.1,4.7c0,0.8-1.9-0.9-2.1-3c0.7,0.3,1.7,1.1,2.7,2.5c0.5-1.2,0.1-1.9-0.5-2.7
						c-0.6-0.8-1.3-1.8-1.5-3.1c2.2,3.5-0.1-2.3-0.1-4.1l1.4,3.1c2.4,0.2-2.6-6.8-0.2-5.8l1.4,4.7l0.2-1.9l1.5,3.5
						c-0.5-3.4,0.1-3,1.2-3.2c-1.1-1.6-2.4-4.9-1.8-5.6c1.2,1,1.1,2.7,1.7,1.2c0.6,1.7,1.5,4-0.1,2.2c0.4,0.9,0.7,1.9,1.1,2.7
						c1.4,1,1.3-1.4,1.6-1.9c-0.2,0.1-0.4,0.2-0.6,0l-0.6-4.9c0.7,0.5,0.9,1.4,1.2,2.3c0.1-0.6-0.3-1.8-0.1-2.5
						c1,1.8,2.1,3.5,2.1,5.2l-0.1-3.8c0.5,0.6,1.8,0.9,2,1.7c0.6-0.1,0.4-1.6,0.3-2.9c-0.1-1.4-0.1-2.6,0.6-2.8
						c-0.2-0.3-0.3-0.7-0.2-1.1c0.5-0.5,1.1-0.6,1.6-1.1c0.5-0.4,0.8-1.1,0.5-2.4c0.7,0.3,1.4,0.6,2.1,0.9c0.1-0.7-0.6-1-1.2-1.4
						c-0.7-0.4-1.3-0.9-1.1-2c0.2-1.6,1.7,0.9,2.4,0.9c-0.5-1.4-1.5-3.8,0.5-3.6C113.7,149,113.3,149,113.2,149.5z M120.9,138.6
						c0.1,0.4,0.7,1.3-0.3,0.9C119.2,138.4,120.1,138.7,120.9,138.6z M128.5,125c0.7,0.9,0.2,0.5-0.9-0.4
						C127.5,124.3,127.7,124.3,128.5,125z M143.2,89.9c0,0,0.1,0.1,0.1,0.1C142.1,89.3,142.6,89.6,143.2,89.9z M145,90.7
						c-0.4-0.3-0.8-0.5-1.2-0.8c0.7,0.5,0.7,0.5,0.4,0.3C144.9,90.8,145.5,91.1,145,90.7z M72.8,144.8l0.6,1
						C73.4,147.1,73.1,146,72.8,144.8z"/>
					<path class="st0" d="M130.8,128.3c-0.5-0.4-1-0.8-1.4-1.1C129.8,127.6,130.3,127.9,130.8,128.3z"/>
					<path class="st0" d="M109.1,158.1C109,158.1,109,158.1,109.1,158.1c0,0.1,0.1,0.2,0.2,0.3L109.1,158.1z"/>
					<path class="st0" d="M155.7,128.8c-0.5-0.4-1.1-1.3-1.6-2.1c0.3,0.6,0.6,1.2,0.9,1.6c0.1,0.2,0.3,0.4,0.4,0.5
						C155.4,128.8,155.6,128.8,155.7,128.8z"/>
					<path class="st0" d="M140.7,86.9l0.8,0.6c-0.1-0.2,0.6,0.1,1.1,0.3C141.9,87.5,140.7,87,140.7,86.9z"/>
					<path class="st0" d="M162,91.1c-0.4-0.2,0-0.2-0.5-0.4l-1.6-0.4C160.1,90.7,161.3,91.3,162,91.1z"/>
					<path class="st0" d="M151.9,91.9c2.8,1.3,1.9,0.5,1.4-0.1c0,0,0,0.1,0,0.1C149.4,90.1,150.6,91,151.9,91.9z"/>
					<path class="st0" d="M153.2,91.7c-0.1-0.2-0.2-0.3,0-0.3C151.6,90.7,152.8,91.4,153.2,91.7z"/>
					<path class="st0" d="M143.8,89.8c0.8,0.4-3.4-2-2.2-1.4c-1.7-1-0.7-0.4,0.4,0.3C143.1,89.4,144.4,90.2,143.8,89.8z"/>
					<polygon class="st0" points="161.2,95.9 157.7,94.4 160.5,96 					"/>
					<path class="st0" d="M158.3,98.1c0.3,0,0.7-0.1,1-0.2c-0.6-0.3-0.9-0.6-1.2-0.8C158,97.5,157.2,97.5,158.3,98.1z"/>
					<path class="st0" d="M158.1,97.1c0.1-0.2,0-0.4-0.5-0.9C157.6,96.4,157.7,96.7,158.1,97.1z"/>
					<path class="st0" d="M162.3,97.5l-0.9-0.2l-0.3,0.4C161.5,97.6,161.9,97.6,162.3,97.5z"/>
					<path class="st0" d="M150.8,98.1l0,1c0.7,0.8,1.4,1.1,1.4,0.7C151.8,99.2,151.7,98.8,150.8,98.1z"/>
					<path class="st0" d="M163.8,105.1c-1.2-0.5-2.3-1.3-3.9-2.3l5.8,4.3L163.8,105.1z"/>
					<path class="st0" d="M162.6,108c1.5,1.3,2.8,4.9,3.9,3.6C165.1,110.2,164.8,108.4,162.6,108z"/>
					<polygon class="st0" points="146.5,112.3 146.6,112 143.2,104.3 					"/>
					<path class="st0" d="M145.3,147.1c1.7,2-0.9-6.6,0.7-4c-0.3-2.7-1.3-2.1-1.4-4.4C144.4,141.7,143.7,140.4,145.3,147.1z"/>
					<path class="st0" d="M144.5,138.7c0-0.5,0-1.1,0-1.8C144.5,137.7,144.5,138.2,144.5,138.7z"/>
					<path class="st0" d="M41.8,171.2c-0.2,0.2-0.3,0.4-0.4,0.6c0.1,0,0.3-0.1,0.4-0.1L41.8,171.2z"/>
					<path class="st0" d="M41.5,173.8l-0.4-0.5c0,0.4,0,0.8,0,1.1C41.2,174.2,41.4,173.8,41.5,173.8z"/>
					<path class="st0" d="M126.6,139.7l-0.5-0.3c-0.7-0.2-0.8-0.2-1.2,0L126.6,139.7z"/>
					<polygon class="st0" points="117.9,145.8 118,145.7 116.4,144.9 					"/>
					<path class="st0" d="M114.8,154.5c0.2-0.3,0.1-1,0.4-1.3C115,154.2,113,152.9,114.8,154.5z"/>
				</g>
			</g>
		</g>
	</g>
	<path class="st1" d="M159.3,193.4c0-0.4-0.1-1.2-0.2-2.3c-0.2-1.8-0.3-3.9-0.4-6.1c-0.4-6.9-0.7-13.7-0.6-20.2
		c0.1-11.3,1-19.7,2.9-23.6c0.1-0.3,0.3-0.5,0.3-0.8c1.8-3.5,3.2-5.3,10.2-13.7c9.9-11.9,14-19,14-28.3c0-19.7-10.9-41.8-24.5-41.8
		c-3.8,0-4.8,1.1-15.6,15.9c-11,15-16.3,21.8-24.1,30.9c-1.8,2.1-3.7,4.2-5.5,6.2c-15.6,16.9-40.5,35.9-48.6,38.4
		c-3.8,1.2-7,2.1-9.8,2.9c-1.6,0.4-5.6,1.5-6,1.6c-0.5,0.2-1,0.3-1.6,0.4c-3.1,0.9-6,2-10.7,4c-7,3-14.9,8.1-19.9,13.1
		c-7.1,7.2-8.9,15-2,20.8l0.4,0.3l0.5,0.3c9.7,4.5,59,4.4,75.7,0.3c9-2.3,12.1-6.9,14.5-17.3c2.4-10.5,3.8-14.2,8.6-19.6
		c5.7-6.5,10.7-10.3,15-12.2c1.4-0.6,2.5-0.9,3.4-1c0.3,0,0.4-0.1,0.6,0l0,0c0,0,0,0-0.1,0c0,0,0,0-0.1,0l0,0l0,0l0,0
		c2.3,0.3,4.4-1.3,4.7-3.6c0.3-2.3-1.3-4.4-3.6-4.8l0,0l0,0l0,0c0,0,0,0-0.1,0c-0.1,0-0.1,0-0.2,0c-0.3,0-0.3,0-0.6,0
		c-0.5,0-1.1,0-1.7,0.1c-1.7,0.2-3.6,0.7-5.7,1.7c-5.5,2.3-11.6,7-18,14.3c-6,6.9-7.7,11.6-10.5,23.3c-1.8,7.7-3.1,9.7-8.3,11
		c-15.1,3.7-62.6,3.8-70.3,0.3l1,0.6c-2.2-1.8-1.6-4.3,2.6-8.4s11.1-8.7,17.2-11.3c4.4-1.9,7-2.9,9.7-3.7c0.4-0.1,0.9-0.3,1.4-0.3
		c0.3-0.1,4.4-1.1,6-1.6c3-0.8,6.3-1.7,10.2-3c9.7-3,35.8-22.9,52.3-40.7c1.9-2.1,3.8-4.2,5.7-6.3c8-9.3,13.4-16.3,24.5-31.4
		c4.1-5.6,5.9-8,7.7-10.1c1-1.1,1.7-2,2.3-2.4c0,0-0.1,0.1-1,0.1c7.4,0,16.1,17.6,16.1,33.4c0,6.7-3.4,12.5-12.1,23
		c-7.5,9-9,11-11.2,15.1c-0.2,0.3-0.3,0.7-0.5,1c-2.5,5.4-3.7,14.7-3.7,27.2c-0.1,6.6,0.2,13.7,0.6,20.8c0.2,2.3,0.3,4.3,0.4,6.3
		c0.1,1.1,0.2,1.9,0.2,2.3c0.2,2.3,2.3,4,4.6,3.8C157.8,197.8,159.6,195.8,159.3,193.4L159.3,193.4z"/>
</g>
</svg>
