<?xml version="1.0" encoding="utf-8"?>
<!-- Generator: Adobe Illustrator 24.0.2, SVG Export Plug-In . SVG Version: 6.00 Build 0)  -->
<svg version="1.1" id="Layer_1" xmlns="http://www.w3.org/2000/svg" xmlns:xlink="http://www.w3.org/1999/xlink" x="0px" y="0px"
	 viewBox="0 0 198.4 198.4" style="enable-background:new 0 0 198.4 198.4;" xml:space="preserve">
<style type="text/css">
	.st0{fill:#FDA0AE;}
	.st1{fill:none;stroke:#646565;stroke-width:7;stroke-miterlimit:10;}
</style>
<g>
	<g>
		<g>
			<g>
				<g>
					<path class="st0" d="M172.3,138c-0.9,0-0.1,0.5-0.1,0.6C173.6,138.6,172.1,137.8,172.3,138z"/>
					<path class="st0" d="M179.5,129.2l0.8,0.3c-0.5-0.6-0.9-1.2-1.6-1.7C179.1,128.2,179.3,128.7,179.5,129.2z"/>
					<path class="st0" d="M181.2,117.9c-2.5,1.7-2.1,2.5-1.5,3.3c0.6,0.9,1.5,1.9,0.5,3.1l-1.1,0.5c1.2,0.1,2.3,0.2,3.4,0.4
						c0-0.6-0.1-1.3-0.3-2c-0.2-0.7-0.5-1.3-0.7-1.9C181.1,120.2,180.6,119.2,181.2,117.9z"/>
					<path class="st0" d="M190.4,102.9c-0.9,1.1-1.5,0.9-1.6,0.9c-0.1,0,0.5,0.1,1.7,1.9c0.2-0.4,0.3-0.5,0.4-0.8
						C190.7,104.6,190.6,104,190.4,102.9z"/>
					<path class="st0" d="M190.9,104.9c0.3,0.9,0.7,0.3,0.8-0.2C191.7,104.2,191.5,103.7,190.9,104.9z"/>
					<path class="st0" d="M185.6,96.8c0.6,0.1,1.1,0.2,1.6,0.4c0.5,0.1,1,0.3,1.6,0.5c0.4-0.8,0.3-2,0.3-2.9
						c-0.1-0.9-0.1-1.6,0.6-1.6c-1.4-1-2.3-1-2.9-0.3C186.2,93.7,186,95,185.6,96.8z"/>
					<path class="st0" d="M180.7,98.7c0.5,0.1,1,0.2,1.5,0.3C182.5,98.2,182.4,97.7,180.7,98.7z"/>
					<path class="st0" d="M185.4,99.9c-1-0.4-2.1-0.7-3.1-0.9c-0.5,1.2-2,3,1.3,0.5C182.1,100.9,183.7,99.8,185.4,99.9z"/>
					<path class="st0" d="M185.5,102.1c-0.2,1.2-0.3,2.3-0.7,3c-0.4,0.7-1.1,1.1-2.4,0.8c0.7,0.8,1.3,1.2,1.9,1.3
						c0.6,0.1,1.1-0.1,1.6-0.5c0.4-0.4,0.7-1.1,0.7-1.9C186.5,104.1,186.2,103.1,185.5,102.1z"/>
					<path class="st0" d="M175.8,119.9c-0.4,0.5-0.8,1-1.3,1.5c0.6,0,1.2,0,1.8,0.1c-0.4,0-0.2-0.6,0-1.1
						C176.6,119.9,176.6,119.5,175.8,119.9z"/>
					<path class="st0" d="M173.7,80.1c-0.7,1.6-0.6,5-1.2,7.2c0.7-0.3,1.5-0.5,2.3-0.7c-0.2-0.9-0.6-1.8-0.9-2.9
						C173.6,82.6,173.4,81.4,173.7,80.1z"/>
					<path class="st0" d="M172.6,87.3c-1.1,0.4-2.2,0.9-3.2,1.5C171.3,90.3,172.1,89.2,172.6,87.3z"/>
					<path class="st0" d="M175.7,104.9c1.9-0.6,3.9-0.9,5.9-0.9c-1-0.1-2.2-0.1-3.2,0c-1.1,0.1-2.1,0.2-3.2,0.5L175.7,104.9z"/>
					<path class="st0" d="M162.9,74.3c0.7-1.3,1.4-2.5,2.2-3.7c-1.3,1.7-2.5,3.6-3.6,5.5C161.9,75.5,162.4,74.9,162.9,74.3z"/>
					<path class="st0" d="M155.6,72.8c1.2-3.5-1.9-7-0.7-9c-2.1,0.1-3.8,3.1-4.8,5.9c0.7-0.7,1.5-0.9,2.4-0.4
						C153.5,69.8,154.5,70.9,155.6,72.8z"/>
					<path class="st0" d="M148.3,73.8c0.6-0.9,1.1-2.5,1.8-4.1C149.4,70.4,148.8,71.6,148.3,73.8z"/>
					<path class="st0" d="M165.5,85.9c0-1.2,0.1-4.3-1.2-6.1c0.1,1.9,0.2,3.8,0.3,5.7C164.9,85.5,165.2,85.7,165.5,85.9z"/>
					<path class="st0" d="M164.6,85.6l0-0.2c-1-0.5-1.7-0.9-2-1.1C162.8,84.4,163.5,84.8,164.6,85.6z"/>
					<path class="st0" d="M165.8,86c-0.1-0.1-0.2-0.1-0.2-0.1C165.5,86.4,165.6,86.6,165.8,86z"/>
					<path class="st0" d="M173.1,97.1c-1.1,0.8-2.4,1.5-3.4,2.7c-1,1.2-1.5,2.9-1.4,5.4c0.9-1.3,1.4-2.7,1.9-4
						C170.8,99.8,171.5,98.3,173.1,97.1z"/>
					<path class="st0" d="M165.7,92.9c0.7,0.7,1.3,1.4,1.9,2.2c0.3-1.3,0.4-3.4,1.4-4.4C167.8,91.3,166.7,92.1,165.7,92.9z"/>
					<path class="st0" d="M164.3,94c0.4-0.4,0.9-0.8,1.4-1.1l-0.7-0.8L164.3,94z"/>
					<path class="st0" d="M153.4,80c-0.9,2.3-2,2.4-3.2,2.6c0.8,0.7,1.5,1.2,2.2,1.6c0.7,0.4,1.4,0.7,2.1,0.8
						C154.5,83.2,155,80.1,153.4,80z"/>
					<path class="st0" d="M158.9,82.9c-0.1,0.1-0.2,0.1-0.2,0.2C158.8,83.7,158.9,83.8,158.9,82.9z"/>
					<path class="st0" d="M138.4,82.2c0.2,0.4,0.4,0.7,0.5,1.1c-0.1-0.4-0.2-0.7-0.3-1.1L138.4,82.2z"/>
					<path class="st0" d="M154.7,86.1c1,1.3,1.6,0,2.1-1.6c-0.4,0.2-0.8,0.3-1.2,0.4c-0.4,0.1-0.8,0.1-1.2,0
						C154.4,85.8,154.4,86.3,154.7,86.1z"/>
					<path class="st0" d="M145,76.2c0.8,1.3,1.7,2.4,2.5,3.4C146.6,77.7,144.9,74.6,145,76.2z"/>
					<path class="st0" d="M158.3,81.5c0.1-0.1,0.1-0.2,0.2-0.2C158.1,80,158.2,80.6,158.3,81.5z"/>
					<path class="st0" d="M158.3,81.5c-0.6,0.6-1,1.9-1.4,3c0.6-0.3,1.2-0.7,1.8-1.4C158.5,82.7,158.4,82.1,158.3,81.5z"/>
					<path class="st0" d="M149.9,122.3c-1-2.9-1.8-5.8-1.8-7.2c0-1.4,0.7-1.3,2,1.6c-0.2-2.3-1.7-8-3.7-14.5
						c-2.1-6.5-4.8-13.7-7.4-18.9c0.8,2.5,1.4,4.8,0.8,8.4c0.9,1.5,2.4,3.2,3.7,5.2c1.3,2,2.3,4.3,2.5,6.9c-0.8,3.3-2.1-1.8-4.2-4.6
						c1.7,3.5,2,6.2,2.6,9.4c0.6,3.2,1.6,6.8,3.8,12c-0.2-1.4-0.3-2.8-0.4-4.1C148.4,118.2,149.1,121,149.9,122.3z"/>
					<path class="st0" d="M143.1,83.8c0.2-0.2,0.5-0.5,0.7-0.7c-1.3-1-2.5-3.3-5.3-7.7c-0.8,2.8-0.4,5,0.1,6.9
						c1.5,0.2,3,0.4,4.5,0.7L143.1,83.8z"/>
					<path class="st0" d="M147.9,83.3c0.2,3-0.1,5.1-0.1,7.3c0,2.2,0.4,4.5,1.5,7.8c1-0.2,1.1-1.5,1.1-3c0-1.5-0.1-3.3,0.4-4.5
						c-1.8,0.6-1.6-0.2-1.5-1.6c0.2-1.4,0.5-3.4-1.3-5.2c0.7-1,1.4-1.2,2.2-1.3c-0.9-0.8-1.8-1.8-2.8-3c0.1,0.1,0.1,0.3,0.2,0.4l0,0
						c0,0,0,0.1,0,0.1c0.3,0.8,0.5,1.2,0.2,0.8c0,0.1-0.1,0.1-0.1,0.1C147.8,81.8,147.9,82.5,147.9,83.3c-1.5-1.4-0.5-1.6-0.2-2.3
						c0-0.3,0-0.6-0.1-0.9c0,0,0-0.1,0-0.1c-1.4,1-2.6,2-3.8,3.1C145,84,145.9,83.8,147.9,83.3z"/>
					<path class="st0" d="M163.4,114.4c0.1-0.4,0.2-0.8,0.3-1.1C163.4,113.8,163.2,114.2,163.4,114.4z"/>
					<path class="st0" d="M163.4,111.1c0.3-0.6,1.1-2.5,1.5-1.7c0,1.6-0.7,2.3-1.2,3.8c0.4-0.6,0.9-1.3,1.4-2.2
						c0.5-0.9,0.8-2,0.6-3.4l-0.4,0.6c-0.3-1-0.4-3.3-0.5-5.4c-0.1-2.1-0.1-4,0.1-4.3C164.4,102.5,164.1,105.4,163.4,111.1z"/>
					<path class="st0" d="M158,98.9c-1,0.7-1.9,1.5-2.7,2.4c0.5,1.7,1,3.4,1.4,5.1l-0.1-3C158.1,104.7,157.8,101.1,158,98.9z"/>
					<path class="st0" d="M137,79.2l-1.6-6.6c0.2,3.1,0.5,6.2,1,9.4C136.6,81,136.8,80.1,137,79.2z"/>
					<path class="st0" d="M132.8,80.4l-2.1-5.8c0,1.2,0.1,2.4,0.2,3.6L132.8,80.4z"/>
					<path class="st0" d="M79.1,106.7l-0.7,0.7C78.7,107.2,78.9,107,79.1,106.7z"/>
					<path class="st0" d="M82.4,107l0.4-1.4C82.5,106.4,82.3,106.9,82.4,107z"/>
					<path class="st0" d="M174.9,98c6.5-1.5,16.4-3.7,8.4-2.9l-7.7,1C177.2,96.7,176.5,97.4,174.9,98z"/>
					<path class="st0" d="M112.1,80.4c0,0.5,0.1,1,0.1,1.5c0.1-0.9,0.2-1.8,0.3-2.6c0.1-1,0.2-2,0.3-2.9
						C112.6,77.7,112.3,79.3,112.1,80.4z"/>
					<path class="st0" d="M110.5,101.6c-0.3-1-0.7-2-0.9-3.1C109.6,99.7,110,100.7,110.5,101.6z"/>
					<path class="st0" d="M59.5,108.1c-0.5,0.6-1,1.1-1.5,1.6C58.8,109.9,58.9,108.9,59.5,108.1z"/>
					<path class="st0" d="M110.2,86.3l-0.1-0.3c0,0,0-0.1,0,0l0,0.1l0,0.1c0.1,0.1,0.1,0.3,0.2,0.4c0.1,0.3,0.2,0.6,0.4,0.8
						c0.2,0.5,0.4,1,0.6,1.5c0.3,0.8,0.6,1.5,0.9,2.1c-0.5-1.2-1-2.3-1.3-3.1C111.6,89.3,111.6,89.4,110.2,86.3z"/>
					<path class="st0" d="M101.9,51.9c-0.7,1.4-1.5,2.9-2.3,4.6C100.3,55.1,101,53.7,101.9,51.9z"/>
					<path class="st0" d="M175,141.4c-0.9-0.1-1.3,0-2.1-0.1c0.5,0.5,0.9,1,1.2,1.4l-60.9-49.3c-0.3-0.7-0.6-1.5-0.9-2.3
						c0.3,0.7,0.6,1.5,0.9,2.3l64.4,50.4C178.3,143.5,177.8,142.7,175,141.4z"/>
					<path class="st0" d="M54.5,81.4c-0.1-0.2-0.2-0.5-0.3-0.7C54.5,81.4,54.5,81.4,54.5,81.4z"/>
					<path class="st0" d="M21.9,55.7c-0.1-0.4,0-0.9,0.1-1.4C21.9,54.5,21.8,54.9,21.9,55.7z"/>
					<path class="st0" d="M116.7,80.3C117,79.8,116.3,79.6,116.7,80.3L116.7,80.3z"/>
					<path class="st0" d="M133.6,105c0.3,0.8,0.7,1.7,1.5,3.2C134.3,106.7,133.8,105.7,133.6,105z"/>
					<path class="st0" d="M126.7,122.6C126.7,122.6,126.7,122.6,126.7,122.6C125.1,122.3,125.4,122.4,126.7,122.6z"/>
					<path class="st0" d="M119.2,83.1c-0.7-0.7-1.3-1.3-1.8-1.8C117.8,81.8,118.4,82.4,119.2,83.1z"/>
					<path class="st0" d="M117.4,80.1c0.4,0.2,0.6,0.4,0.9,0.5C117.8,79.5,117.3,78.8,117.4,80.1z"/>
					<path class="st0" d="M116,80.9c0.3-0.2,0.8,0.1,1.4,0.5c-0.4-0.4-0.6-0.8-0.7-1C116.5,80.5,116.4,80.7,116,80.9z"/>
					<path class="st0" d="M55.7,79.6c0.1-0.1,0.1-0.2,0.3-0.4C54.5,80,54.8,80,55.7,79.6z"/>
					<path class="st0" d="M95,97c0.1,0,0.2,0,0.3,0c0.1,0,0.2-0.1,0.3-0.1L95,97z"/>
					<path class="st0" d="M89.9,97.4c8.6-1.8,7.6-1.2,5.6-0.5c6.9-1.6,13.7-3.3,20.5-5C107.3,93.6,98.6,95.5,89.9,97.4z"/>
					<path class="st0" d="M70.7,107.2l0.4,2.3c-2.6,3.5-3.2,1.9-3.2,5.2c1.4-3.7,2.6-3.8,3.7-3.8c1.2-0.1,2.3-0.1,3.6-4.3l0.2,1.8
						c-0.2-0.1-0.4,0.4-0.5,0.3c0.1,2.1,0.9,0.6,1.7-1.3c0.8-1.9,1.8-4.3,2.6-3.8c0.5,0.7,0.6,2-0.1,3.1c0.7-0.8,1.3-1.5,2-2.3
						c0.4,0.2-0.1,1.9-0.5,1.7c0.8-0.3,1.6-0.5,2.3-0.8l-0.1,0.3c0.6-1.6,1.8-4.1,2.4-5.2c0.2,1.4-0.5,1.1-0.6,2.4
						c0.6-0.9,1.1-1.7,1.7-2.6c0,2.7-1.5,5.4-2.3,5c-0.5,5.1-0.1,4.6,0.6,3.4c0.7-1.2,1.5-3,2.2,0.2l-1.4,1.3
						c-0.2,3.1,0,4.2,0.4,4.9c0.4,0.8,0.9,1.3,1.2,3.5c0-1.1-0.2-3.8-0.2-6.4c0-2.6,0.2-5.2,1.1-6.6c0.2,0.8,0.6,1.3,1.7-1
						c-0.7,4.1,0.2,3.1,1.1,2.9l-0.9,5.6c1.2-1.5,1.5-4.4,2.5-6.9c1,0.6,0.5,5.1,0.3,8.9c0.8,0.6,0.7-1.3,0.8-3.4
						c0-2.1,0.1-4.4,1.2-5c1.1,2.3,2.4,0,4.4-3.9c0.7,2.2-0.6,3.9-0.5,5.7l1.4-5.1c0.2,0.1,0,1.7-0.2,2.5c0.9-2,0.7-6.5,2-8.4
						c0.5-3.6,0.8-1.1,1.3,1.4c0.5,2.5,1.1,5,2.2,0.6c0.2,2-0.5,4.3-0.6,7c1.2-2.9,1.7-4,2.2-5.3c0.5-1.4,0.9-2.9,2-7.1l1,4.7
						c-0.3-2.7,0-5.7,0.5-8.8c0.5-3.1,1.4-6.3,2-9.2c0-0.3-0.1-0.6-0.1-1c0-0.4,0-0.7-0.1-1.1c0-0.7-0.1-1.4-0.1-2.1
						c-0.1-1.2-0.1-2.2-0.1-3c0.6-1.8,1.1-3.6,1.6-5.4c0.1,1.4-0.1,4.6-0.5,8.5c0.1-0.8,0.3-1.6,0.4-2.3c0.1,0.8,0.2,1.7,0.2,2.8
						c0,0.5,0,1.1,0,1.6c0,0.6,0,1-0.1,1.5c-0.1,2-0.4,4.2-0.7,6.3c-0.2-1.4-0.3-2.9-0.5-4.4c-0.6,4.7-1.4,9.8-1.5,14.2
						c0.2-0.9,0.5-1.7,0.8-2.2c-0.2,1.3-0.3,2.4-0.3,3.1c0,0.8,0.3-0.9,0.8-2.9l0.2,8.3l0.2-3.4c0.9,1.6,2,3.1,3.1,4.8
						c0.6-2.2,1.1-4.7,1.5-7.2c0.2-1.2,0.4-2.5,0.7-3.7l0.2-0.9l0-0.2c0-0.1,0-0.1,0-0.1l0.1-0.2c0.1-0.3,0.2-0.6,0.4-1
						c0.1-0.4,0.2-0.7,0.3-1.2c0-0.6-0.1-1.2-0.1-1.9c0-1.2,0.1-2.4,0.2-3.4c0.3-2.1,0.9-3.8,1.7-4.7c-0.6,1.8-1,3.5-1.3,5.1
						c-0.1,0.5-0.2,1-0.3,1.4c0,0,0,0,0,0c0,0,0-0.1,0-0.1c0,0.2-0.1,0.3-0.1,0.7c-0.1,0.3-0.1,0.6-0.1,1.2c0,0.2,0,0.5,0,0.8
						c0,0.3,0,0.7,0,1l0,0.5l0,0.1l0.7,11.5l0,0l0,0l0-0.1l-0.2-0.4c-0.3-0.6-0.5-1.4-0.8-2.3c1.2,4,1.2,7.5,1,7.8
						c0.2,0.2,0.3,0.5,0.5,0.7l-1.1-17.7c0-0.4,0-0.9,0-1.2c0-0.3,0-0.7,0.1-1c0-0.3,0-0.5,0.1-0.8c0,0,0.1-0.7,0.2-1.1
						c0,0.1,0,0,0-0.1c0-0.1,0.1-0.3,0.1-0.3c0,0,0-0.1,0.1-0.1c0,0,0,0,0,0.1l0,0l0,0l0,0l0,0l0,0c-0.1,0.2,0.2-0.2,0.1-0.2l0,0
						l0,0l0,0l0,0.1c0,0.1-0.1,0.1-0.1,0.1c0,0,0,0,0.1-0.1c0,0,0-0.1,0.1-0.1l0,0l0,0l0,0l-0.1,0.2l0,0l0,0l0,0l0,0l0,0
						c0,0,0,0,0,0l0,0c0,0,0,0,0,0c0,0,0,0,0,0l0,0l0,0l0,0c0.3-0.4,0.1-0.1,0.1-0.2l0,0l0,0l0,0l0,0l0,0l-0.1,0.1l-0.1,0.1
						c-0.2,0.2-0.4,0.5-1.1,1c0.4-0.3,0.4-0.4,0.6-0.5c-0.2,0.2-1,0.8-1.7,1.2c-0.4,0.3-0.8,0.5-1,0.6c-0.2,0.1-0.3,0.2-0.1,0.1
						l0.6-0.3c-0.9,0.5-2.2,1.3-4.5,2.3c-0.3,0.1-0.6,0.3-0.9,0.4l-1,0.4c-0.8,0.3-1.6,0.6-2.4,0.9c-1,0.3-2,0.7-2.9,1
						c-0.5,0.2-1.1,0.3-1.6,0.5l-0.5,0.2l0.1,0l0.1,0c1.6-0.5,5.6-0.4,12.4-2.1c-1.7,0.4-16,3.9-19.1,4.7c15.1-3.3,30.8-6,47-7.9
						c-6.1,1.1-16.2,3.5-25.8,5.6c-9.6,2.1-18.5,3.8-21.8,4.1c-1.8,0.7-3.9,1.3,0.3,1.1c1.8-0.5,17.7-4,18.8-3.9
						c-6.8,1.8-8.6,2.3-10.2,2.7c-1.6,0.4-2.9,0.9-8.9,2.3c1.4-0.4,6.9-1.3,12-2c5.1-0.7,9.9-1.2,9.6-0.9
						c-2.9,0.4-19.5,3.1-21.5,3.2c6.3-0.7,12.8-1.2,19.3-1.5c-3.5,0.1-16.6,2.2-22.2,3.1c3.9-0.6-0.7,0.9,1.2,1
						c1.6-0.3,3.2-0.6,4.8-0.9c-1.7,0.8,5.3,0.4,12.6,0.2c7.3-0.2,15-0.3,14.5,0.8c-4.3-0.1-26,1.1-28.8,1.8
						c5.2-0.1,17.9-0.4,30.4,0c12.5,0.3,24.9,1.3,29.2,2.6l-6.1,0.4c2.4,0.6,4.8,1.3,7.2,2c-8.2-0.9-21-2.2-33.1-3
						c-12.2-0.8-23.8-1.2-30.2-1.3c-5,0.6-7.2,0.3-6.9,0.8c-5.8,0.2-8.5-0.1-8.8-0.2c-1.5,0.3-3,0.6-4.5,0.8
						c12.6,0,12.2,0.9,22.8,1.3c-4.2-0.7-8.4-1.2-12.5-1.6c6.3-0.1,15.1,0.1,22.1,0.6c7,0.5,12.2,1.5,11,2.3
						c-2.6,0.1-8.2-0.3-13.8-0.6c-5.6-0.3-11-0.7-13.1-0.7c4.3,0.3,8.1,1.4,4.9,1.3c-2.2-0.3-4.5-0.6-6.7-0.8
						c-2.5,0.1,1.6,0.5,4.9,1c3.3,0.5,5.6,1-0.6,0.8c-0.4,0.1-4.6-0.2-7.8-0.4c-3.1-0.2-5.2-0.4-1.4,0.1c14.8,1.5,60.3,5.8,71.3,7.6
						c-0.5,0.1-4.1,0.5-8.4,0.7c-4.4,0.2-9.6,0.3-13.2,0c-5.8-0.5-12.6-1.8-19.3-3c-6.6-1.2-13-2.3-18-2.8c3.5,0.5,7.8,1.4,9.2,1.7
						c-3.1-0.2-10.9-1.8-9.4-0.9c13,2.2-1.3,1.1,11,2.1c3.6,1.4-2.8,0.3-2.4,1.1c4.2,0.7,11.3,2.3,17.7,4c6.4,1.7,12.2,3.7,13.9,4.6
						c-3.2-0.8-7.5-1.5-9.5-1.9c-0.8,0.9-2.7,1.2-4.5,1.4c-1.8,0.3-3.4,0.5-3.6,1.3c-0.7-0.2-1.5-0.3-2.3-0.5l14.1,13.2
						c1.3,2.4,3.2,5,4.3,9.2c-0.5-2.3-1.8-6.5-1.2-7.1c2.9,4.8,2.7,5.3,2.5,6.2c-0.2,0.9-0.4,2.1,2.8,8c-2.7-7-1.9-10.6-3.1-15.3
						c-2.6-5.1-3.3-5.3-3.3-3.7c0,1.6,0.7,5.2,1,7.6c-3-7.4-5.7-15.2-8-21.9c-2.3-6.7-4.4-12.3-5.4-15.7c-0.8-3.7,5.1,8.9,4.2,6.8
						c1.7,0.8-1-5.4-3.3-10.4c-2.3-5.1-4.3-9-0.4-4.6c2.8,4,5.3,8.1,7.4,12c2.2,3.9,4.1,7.5,5.9,10.4c0.7,3.8-4.8-4.4-5.3-3.8
						c1,1.2,2.1,2.4,3.2,3.6c1.3,3,1.7,5.6-0.1,3.3c2.5,3.7,3.8,3.4,5.2,2.9c1.4-0.5,3-1.1,5.8,1.6c-1.2-2.9-2.2-6-4.3-9.1l0,1.5
						c-2.2-3.1-3.2-5.5-3.9-7.4c-0.7-1.9-1.2-3.4-2.6-4.8c-1.7-5-4.2-12.4-0.4-9.4l5,8.9c-1.4-2.6-3.9-5-2.9-2.1
						c-0.7-2.1,1.5,0.7,3.2,2.6c1.7,1.8,2.8,2.7,0.3-3.3c-1.4-1.9-2.9-3.9-4.4-5.8c-0.2-1.2-0.6-2.8-1-4.3c-0.3-1.6-0.6-3.2-0.8-4.6
						c-0.1-0.7-0.1-1.3-0.1-1.9c0-0.6,0.1-1,0.3-1.4c0.3-0.7,0.9-0.9,1.8-0.3c-2.4-4.3-2.5-4-2.7-3.9c-0.2,0.1-0.5,0-3.8-4.9
						c7.2,12.6-5.9,0.5,2.9,13.7c-3.7-5.9-5.1-7-6.3-7.9c-1.2-0.9-2.4-1.6-6.2-6.6c1.7,3,3.8,5.6,1.4,4.4c0.4,0.9,0.9,2,1.2,2.7
						c-0.1-0.1-0.1-0.1-0.2-0.2c0.1,0.1,0.2,0.2,0.3,0.3c0.2,0.5,0.2,0.6,0.1,0.1c1.1,1.2,2.3,2.7,3.3,4.4c3.1,7.1,1.1,7.4,2.6,11.2
						c-1.5-1.2-1.7-3.6-4-6.7c0.7,1.9,1.5,3.8,2.3,5.7c-4-6.7-8.4-10.9-9.1-15.2l-0.8,0c-0.3,0-0.5,0-0.7-0.1
						c-1.5-1.9-2.8-3.2-3.4-3.7c-0.7-0.5-0.8-0.1-0.2,1.3c-0.7-0.8,0.2,1.2,0.8,2.7c0.7,1.5,1.2,2.4-0.2-0.4
						c0.4,1.4,0.8,2.9,1.3,4.4l-1-1.8c-0.3-0.2-0.2,0.2,0,0.9c0.2,0.7,0.6,1.7,0.9,2.5c0.3,0.8,0.5,1.3,0.3,1.1l-0.1-0.1l0,0
						c0,0,0,0,0,0l0.1,0.3c0.2,0.4,0.3,0.8,0.5,1.1c0.3,0.8,0.6,1.5,0.9,2.3l56,47.8c1,0,2.3,0,3.8,0.1c-1.6-1.7-3.8-3.4-0.8-4.5
						l7.3,1.5c-1-1,1.1-1.6,2.6-2.3c1.5-0.7,2.3-1.5-1.4-2.6c10.1,1.4,11.7-0.4,11.1-2.6c-0.6-2.2-3.3-4.8-1.4-6l-9.7-1.4
						c0.8-1.7-1.9-3.8-5.8-6.2l-8.6-0.7c-3.5-1.2-2-2,0.3-3.1c2.3-1,5.2-2.3,4.7-3.7c3.3,0.3,2.5,1,0.5,1.4c9.5-1.3,5.8-3.4,1.4-5.1
						c-4.3-1.8-9.2-3.1-2.7-4.8c-3.1-0.6-2.2-1.1-0.3-1.8c0,0.1,0.2,0.1,0.5,0.2c0.1-0.1,0.1-0.2,0-0.3c1.3-0.4,2.9-0.8,4.1-1.3
						c-1.9,0.4-3.5,0.8-4.2,1.1c-0.3-0.6-1.5-1.3-3.7-2l8.6-1c-0.1-0.1-0.1-0.1-0.3-0.2c3-1.1-4.3-0.3-10.7,0.7
						c-1.5-0.3-3.3-0.5-5.5-0.6c6.9-1,5.5-1.4,4.4-1.8c-1.2-0.4-2.3-0.9,4.9-2.2c-7.3,0.3-6.6-3.3-21.2-1.2c1.9-0.3,2.7-0.7,3-0.3
						c1.4-1,2.8-2.1-1.4-2.1l10.2-2.3c-4.8,0.3-9.6,0.6-14.3,1.1c5.9-2.2,9.2-3.6,17.4-4.2c-6.5,0-7.8-0.2-9.1-0.4
						c-1.3-0.2-2.5-0.4-8.6,0.1l6.4-1.5c-0.6-0.7-9.4,0.4-4.5-1.6c2.7-1.4,3.9-2.9,4-4.8c0.1-1.9-0.9-4.2-2.7-6.9
						c-0.4-0.7-1-1.4-1.5-2.2c-0.6-0.8-1.2-1.5-1.9-2.3c-1.3-1.6-3-3.3-4.7-4.9c-3.5-3.3-7.4-6.1-10.9-9.3c-0.3,4.3-0.9,5.8-1.4,6
						c-0.5,0.2-1.1-1-2-2.2c-0.8-1.3-1.7-2.6-2.7-2.8c-0.9-0.2-1.6,0.8-1.8,4c-0.2-1.9-0.8-3.4-1.1-4.9c-0.3-1.4-0.2-2.8,1-4.7
						c-0.5,0.3-0.9,0.5-1.4,0.7c-0.4,0.2-0.8,0.3-1.1,0.5c-0.4,0.1-0.7,0.2-1.1,0.2c-0.2,0-0.3,0-0.5,0.1c-0.2,0-0.4,0-0.3,0
						c-0.2-0.2-0.3-0.8-0.5-1.1c-0.3-0.6-0.4-0.4-0.6,5c-0.1-3.9,0.1-5.7,0-8c0,0.8-0.2,3.4-0.2,1.1c-0.1-2.3,0.1-3.3,0.1-5
						c-0.4,0.7-0.7,12.9-1.1,24.2c-0.5-5.2-0.6-4.4-1.5,3.3c0-3.7,0-7.5,0.7-9.1c-0.2-0.2-0.6-1.4-1-1.4c-0.4,0-1,1.3-1.5,6
						c0.2-2.3-0.4-0.5-0.7,0.6c-0.8-0.2-0.7-1.1-1.7,0.2l0,1.5c-1.2,5.9-1.5,6.6-1.6,6.1c-0.1-0.5-0.1-2.3-0.6-1.5l0.3-1.2
						c0-3.9-0.3-2.9-0.7-1.9c-0.4,0.9-0.8,1.8-0.3-2.9l-1.8,7.4c-2.1,8.1-2,5.9-1.5,2.4c0.4-3.4,1.4-8.2,0-4.9l-0.9,4.2
						c-1.1,2.9,0.1-2.5,1.9-8.9c1.7-6.4,4-13.9,4.2-14.9c0.4-1.4,0.9-2.4,1.3-3.5c1.3-4.8,0.5-2.3-0.9,1.8c-1.4,4.1-3.3,9.6-4.1,11
						c1.8-5.5,5-14,5.1-15c0.7-2.2-1,2.3-2.8,6.2c-1.7,3.9-3.5,7.1-1.5,1.8c-1.7,4.3-3.3,8.6-5,12c-0.6,0.9,0.7-3.1,1.5-5.6
						c0.8-2.5,1.1-3.5-2.4,3.6c0.5-1.2,1-2.4,1.5-3.5c-2.1,3.8-4.2,6.6-8.5,14.5c7-14.3,4.7-10.6,2-6.5c-2.7,4.1-5.8,8.6,1.9-5.1
						l-2.1,2l1.7-2.8c0.4-1.6-3.9,5.2-8.4,12.1c0.9-1.8,2.7-4.5,3.7-6c2.2-5.2,1.8-4.1-8.9,10.7l6.1-9.3c-1.9,2.8,0-0.7,1.5-3.5
						c0.8-1.4,1.4-2.6,1.3-2.8c0.2-0.5-0.3,0-2.2,2.4c0.5-0.7,1.3-1.7,2.9-4.1c-1.9,2.4-1.6,1.8-0.6,0.1c1-1.7,2.9-4.4,4.2-6.4
						c2.6-4,3.1-4.8-8.6,10.2c-1.9,2.2-3.8,4.3-5.7,6.3c-1,1.9-3.6,5.2-6.3,8.6c-2.8,3.4-5.8,6.9-7.8,9.9c-0.6,0.4,1.2-2.4,3.3-5.3
						c2.1-2.9,4.5-6,5.1-6.3l-1.2,1.6c6.1-7.6,7.2-9.5,7.9-10.7c0.6-1.2,0.8-1.9,4.9-6.9c-0.2-0.9,1.4-4.1,3.1-7
						c1.7-3,3.5-5.7,3.7-6.9l-9.4,9.3l0.5-1.4c2.2-2.3,7.3-7.1,7-6.3c2.7-2.7,1.5-1.8-0.5-0.1c-2,1.7-5,4.2-6,5.2
						c1.9-2.4,4.6-4.7,6.9-6.6c2.3-1.9,4.2-3.4,4.3-3.6l-0.7,0.3l-1.1,1.1c-3.9,3.2-7.9,6.7-7.5,5.6c1.9-2.1,5.8-5.2,6.2-5.7
						c0.7-0.6,1-0.9,0.3-0.4l0.7-1.5c-2.5,2.1-5,4.2-7.5,6.4c-3.7,2.5,0.3-1.4-8.1,5.9c6.5-5.7,7.6-7.5,7.5-8.5
						c-0.1-1-1.3-1.2,0.7-2.7c-2.9,1.4-4.4,1.9-5.1,1.9c-0.2,0-0.3,0-0.4-0.1c-0.1,0-0.2-0.2-0.1-0.1c-0.6-1.1-1.3-2.3-2.2-3.7
						c-0.2,1.2-2.3,3.4-4.5,4.7c-1.1,0.7-2.2,1.2-3.1,1.4c-0.9,0.2-1.5,0-1.9-0.8c3.9-3.4,6-5.7,6.6-7.9c0.7-2.1-0.1-3.9-1.4-5.6
						c-0.6-0.8-1.3-1.6-2.1-2.4c-0.7-0.8-1.5-1.6-2.1-2.5c-0.3-0.5-0.6-0.9-0.9-1.5c-0.3-0.5-0.5-1.1-0.7-1.7
						c-0.5-1.3-0.8-2.8-0.9-4.6c0.5,2.5-0.5,3.7-1.8,4.4c-0.7,0.3-1.4,0.6-2.2,0.7c-0.7,0.2-1.5,0.4-2.2,0.6c-0.7,0.2-1.4,0.5-1.9,1
						c-0.5,0.4-1,0.9-1.2,1.6c-0.6,1.4-0.6,3.4,0,6.7c-1-0.7-1.1-2.6-1-4.8c0-2.2,0.3-4.8-0.8-7c-0.8,1-1.5,1.8-2.1,2.3
						c-0.3,0.3-0.6,0.5-0.9,0.6c-0.3,0.2-0.5,0.3-0.8,0.3c-1,0.3-2.2-0.2-3.4-0.6c-1.2-0.4-2.5-1-3.8-1.1c-1.2,0-2.5,0.3-3.4,1.5
						c0.5,2.2,2,5.2,2,9c-1.6-3.3-3.3-6.4-5.1-9.4c-0.3,0.8,0.5,4,0.8,6.1c0.4,2.2,0.4,3.2-1.5,0.2c0.8,1.5,1.9,3.9,1.6,4.9
						c-1.3-0.7-2.5-0.7-3.5-0.5c-1,0.2-1.9,0.9-2.7,1.7c-1.6,1.6-2.7,3.9-3.8,6c-1.1,2.1-2.2,3.9-3.5,5.3c-0.7,0.7-1.4,1.3-2.2,1.8
						c-0.8,0.5-1.7,0.9-2.6,1.4c0.7,0,1.1,0.3,1.3,0.7c0.2,0.4,0.1,0.9,0.1,1.4c0.4-0.3,1.6,1.7,2.5,2.6c-1.2,0.2-2.2,0.6-2.9,1.2
						c1,1.3,0.9,2.3,0.9,3.2c-0.1,0.9,0,1.9,0.6,2.5L23,62.6c0.8,1.4,1.7,1.6,3,2.1c0.7,0.3,1.5,0.6,2.3,1.1c0.8,0.5,1.6,1,2.2,1.6
						c-0.3-0.6-0.1-0.8,0.5-0.7c0.6,0.1,1.5,0.5,2.4,0.9c0.9,0.4,1.9,0.9,2.5,1c0.6,0.1,0.8-0.2,0-1.7c1.2,0.9,0.9,1.5,2,2.5
						c-1.2-1.9-1-2.5,0.9-1.4l0.3,0.6c0.6-0.1,1.3,0,2,0.3c0.7,0.2,1.4,0.7,2.2,1.2c1.6,1.1,3.4,2.8,5.4,4.7l-2.4-4.3
						c0.9,0.7,1.7,2.1,2.5,3.4c-2.7-6.4-1.8-1-4.9-7.8c2.7,4.2,3.7,4.7,4.7,5.2c1,0.5,2,1.2,4.4,7.4c0.3,0.3-0.3-1.3-0.9-2.8
						c-0.6-1.6-1.2-3.1-0.8-2.9l1.3,3.5l-1.3-4.3c0.7,0.9,2.3,5.4,3.2,8.4c-0.2-0.4,0,0.6,0,0.7c0.9,2.3,1,2.3,1,2
						c0-0.4-0.1-1.3,0.2-0.5c-0.3-0.9-0.6-1.9-1-2.8c0.2-1,1,0,1.5,0.5c0.3,0.3,0.4,0.3,0.6-0.1c-0.1-1.5-0.2-3-0.3-4.5
						c-0.1-0.9-0.1-1.7-0.2-2.6c0-0.7-0.1-1.4-0.1-2.1c0-0.6,0-1.2-0.1-1.8c0-0.5,0-1.1,0-1.6c0-0.4,0-0.9,0-1.3c0-0.4,0-0.8,0-1.2
						c0-0.4,0-0.7,0-1.1l0,0.9c0-1.2,0.1-1.9,0.2-2.6c0-0.6,0.1-1.2,0.2-1.5c0-0.4,0.1-0.8,0.2-1c0-0.3,0.1-0.5,0.2-0.8
						c0.1-0.5,0.2-0.9,0.4-1.4c0.1-0.5,0.4-1,0.6-1.4l0,0.1c0.1-0.1,0.2-0.3,0.2-0.3c0-0.1-0.1,0.1-0.3,0.3c0.2-0.1,0,0-0.2,0.1
						c-0.2,0.2-0.5,0.4-0.1,0.1c-0.1,0.1-0.3,0.2-0.4,0.3c-0.1,0.1-0.2,0.1-0.2,0.1l-0.1,0.1c-7.3,4-14.5,8.1-21.7,12l0.5-0.2
						c0.3-0.1,0.7-0.2,1-0.4c0.3-0.1,0.6-0.2,1-0.3c0.3-0.1,0.7-0.3,0.6-0.2l0.1,0c0.1,0,0.2,0.1,0.2,0.1c0.1,0,0.2,0,0.2,0.1l0.1,0
						l0.1,0c0,0,0.2-0.1,0.2-0.1c1.3-0.6,2.3-1,3.1-1.3c0.2-0.1,0.4-0.2,0.6-0.3c0.1,0,0.2-0.1,0.3-0.1l0.1-0.1l0.1,0
						c0.2,0,0.3-0.1,0.5-0.2c0.7-0.3,1.5-0.6,2.8-1.2c1.2-0.5,2.8-1.1,5.2-2l-0.6,0.4l-0.4,0.3l-0.7,0.6c-0.4,0.4-0.8,0.7-1.2,1
						c0.4-0.2,0.7-0.4,1.1-0.5c0.2-0.1,0.4-0.2,0.6-0.2c0.4-0.2,0.7-0.3,1-0.4c0.7-0.3,1.2-0.5,1.7-0.7c0.5-0.2,0.9-0.2,1.2-0.2
						c0.2,0,0.3,0,0.5,0.1c0.1,0,0.1,0.1,0.2,0.1c0.1,0,0,0.2,0.4,0c-0.2,0.1-0.4,0.2-0.5,0.3c-0.1,0-0.2,0.1-0.3,0.1
						c-0.2,0.1-0.4,0.2-0.6,0.3c-0.4,0.2-0.8,0.5-1.2,0.7c-0.8,0.6-1.7,1.3-2.6,2l-0.3,0.3c-0.1,0.1-0.2,0.2-0.3,0.2
						c-0.1,0.1-0.3,0.2-0.4,0.3c-0.3,0.2-0.6,0.5-1.1,0.8c-0.5,0.3-1.1,0.7-2,1.2c-0.1,0.1-0.2,0.1-0.4,0.2
						c-0.1,0.1-0.1,0.1-0.2,0.1c-0.1,0-0.2,0.1-0.4,0.1c-0.2,0.1-0.5,0.2-0.7,0.2c-0.3,0.3-0.6,0.7-0.9,1l-0.1,0.1c0,0,0.1,0,0.1,0
						l0.2-0.1c0.2-0.1,0.3-0.1,0.5-0.2c0.2-0.1,0.4-0.1,0.6-0.2l0.3-0.1l0.1-0.1c0.1,0,0.1,0,0.1,0c-0.1,0.2-0.1,0.3-0.2,0.4
						c-0.2,0.5-0.1,0.9,0.1,1.1c0.5,0.4,1.6,0.3,2.5,0.2c1.8-0.1,2.9-0.2-2.2,4.6c9.5-5.7,4.5-6.5,6.7-7.2c1.5-1.4,3.3-2.4,4.6-2.9
						c1.3-0.5,2.2-0.4,1.8,0.4c0,0.5-2.9,3.2-5.5,5.9c-2.6,2.7-4.9,5.6-4.2,6.5c-0.1-0.2-0.7,0.3-0.8,0.1c-0.9,1.3,0.1,1,0.9,0.9
						c0.8-0.1,1.3,0,0,1.9c2.5-1.9,2.6-1.5,2.8-1.4c0.2,0.2,0.6,0.1,3.5-2.5l-2.1-0.6c1.1-0.2,3.4-1.6,5-2.4
						c1.7-0.8,2.6-0.9,1.2,1.5c-1.1,0.9-2.7,1.8-3.7,2.3c-1.5,2,1.4-0.1-0.1,2c-2.7,2.6-3.3,2.3-3.7,1.8c-0.5-0.5-0.8-1.3-3.4,0.2
						c-1.1,1.4,0.3,0.9,1.1,0.7c0.8-0.2,1,0-2.2,2.6c4.2-3.3,4.1-2.6,3.9-1.6c-0.2,1-0.5,2.2,2.5,0.1l-3.1,3
						c0.6-0.3,2.2-1.4,2.3-0.9l-4.3,3.4c2-1.2,1.5,0,0.9,1.3c-0.6,1.3-1.3,2.8-0.2,2.4c-0.6-0.8,0.2-1.8,1.3-3
						c1.2-1.2,2.6-2.5,3.5-4c2.4-0.8,0.6,1.5-1.2,4.1c-1.9,2.6-3.9,5.4-2.5,5.9c-0.6,0.1,0.8-2.9,2.2-3.7c-0.3,1.1-0.9,2.7-2,4.4
						c0.7,0.4,1.3-0.3,1.9-1.3c0.6-1,1.3-2.3,2.2-2.8c-2.6,3.8,1.5-0.6,2.5-0.8L55,96c-0.7,3.4,4.6-4.9,3.3-1.2l-3,2.8
						c0.3,0,0.7-0.1,1-0.1l-2.3,2.6c2-1.3,1.6-0.4,1.4,1.1c1.2-1.8,3.2-4,3.4-3.3c-0.9,1.8-1.6,1.8-1.2,2.5c-1,1.1-2.4,2.6-1,0.1
						c-0.6,0.7-1.1,1.2-1.7,1.9c-0.9,2,0.3,1.5,0.4,1.8c0-0.2,0-0.5,0.2-0.8c0.9-0.5,1.7-1,2.4-1.4c-0.5,1-0.9,1.3-1.4,1.8
						c0.2,0.1,0.9-0.6,1.1-0.4c-1.1,1.4-2.2,2.9-3,3.2c0.6-0.2,1.2-0.4,1.7-0.6c-0.4,0.7-1,2.2-1.4,2.6c-0.1,0.3,0.1,0.4,0.3,0.4
						c0.5-0.1,1.1-0.4,1.7-0.7c1.2-0.5,2.4-1.2,2.8-0.5c0.3-0.3,0.6-0.6,1-0.8c0.6,0.2,1,0.8,1.6,1.2c0.6,0.3,1.4,0.4,2.8-0.8
						l-0.5,3.5c0.9-0.3,1-1.4,1.2-2.6c0.3-1.2,0.7-2.3,2-3c2-1.2-0.6,3-0.4,4.1c0.8-0.9,1.8-2.3,2.7-3.1c0.9-0.8,1.7-1.1,1.9,0.6
						C71.4,107.6,71.3,107,70.7,107.2z M87.8,105.4c-0.5,0.8-1.6,3.3-1.4,1C87.6,102,87.5,104.1,87.8,105.4z M114.4,90.7
						c-0.3,1.9-0.7,1.1-1.2-0.9C113.6,89.2,113.9,89.3,114.4,90.7z M114.7,87.3c0.1,0.1,0.1,0.2,0.2,0.4
						C112.6,84.8,113.5,86,114.7,87.3z M118,90.3c-0.5-1.1-1.1-2.1-1.7-3.1c1,1.9,0.7,2.1,0.1,1.6C117.6,90.7,118.5,92,118,90.3z
						 M89.8,45l-1.6,1.5C86.3,47.7,88,46.4,89.8,45z"/>
					<path class="st0" d="M110.7,99.1c-0.1-0.9,0-2,0-3C110.5,97.1,110.4,98.2,110.7,99.1z"/>
					<path class="st0" d="M59.8,107.8C59.8,107.8,59.8,107.8,59.8,107.8c-0.1,0.1-0.2,0.2-0.3,0.3L59.8,107.8z"/>
					<path class="st0" d="M91.3,111.4c1.4,0.1,3.1,0.2,4.8,0.4C93.9,111.5,92,111.3,91.3,111.4z"/>
					<path class="st0" d="M122.3,75.7c-0.3,0.7-0.5,1.4-0.8,2.1c0.6-0.5,1.7,1,2.7,2C123.3,78.3,121.8,75.9,122.3,75.7z"/>
					<path class="st0" d="M151.7,116.5c-0.1-0.9,0.3-0.2,0.2-1l-0.8-3.2C150.5,112.6,150.8,115.3,151.7,116.5z"/>
					<path class="st0" d="M135.2,98.9c3,5.9,2.7,3.7,3.2,2.3c0,0-0.1,0.1-0.2,0c-1.7-4.2-2.5-5.5-2.9-5.4
						C134.9,95.9,135,97.4,135.2,98.9z"/>
					<path class="st0" d="M138.6,100.9c0.2-0.4,0.4-0.6,0.8-0.4C138.1,97.2,138.7,99.9,138.6,100.9z"/>
					<path class="st0" d="M117.7,85.7c1.3,1.5-4.3-7.8-2.6-5.4c-2-3.9-1.3-1.5-0.1,1.4c0.6,1.5,1.4,3,1.9,3.9
						C117.4,86.6,117.8,86.9,117.7,85.7z"/>
					<polygon class="st0" points="145.1,118.1 141.4,110.9 143.9,117 					"/>
					<path class="st0" d="M137.3,115.1l2.1,1.6c-0.7-1.2-1-2-1.1-2.7C137.6,114.1,136.1,112.9,137.3,115.1z"/>
					<path class="st0" d="M138.4,114c0.4,0,0.6-0.3,0.2-1.6C138.4,112.6,138.2,113,138.4,114z"/>
					<polygon class="st0" points="144.9,121 143.8,119.6 142.9,119.4 					"/>
					<path class="st0" d="M126.6,118.5c0.1,0.9,0.2,1.9,0.3,2.8c1.3,3,2.4,4.6,2.2,3.3C128.3,122.4,128.1,121.2,126.6,118.5z"/>
					<path class="st0" d="M141.7,139c-1.2-1.4-2.2-3.2-3.9-5.7l5.5,10L141.7,139z"/>
					<path class="st0" d="M139.4,143.6c0.7,1.5,1.2,3.8,1.7,5.6c0.5,1.8,1.1,3,1.8,2.1C141.7,148.4,141.8,145.2,139.4,143.6z"/>
					<polygon class="st0" points="124.2,114.7 124.3,115 143.8,117.4 					"/>
					<path class="st0" d="M80.9,103.8c-4.8,0.8,11.3-0.7,5.5,0.2c4.3-0.1,4.7-0.8,8.4-0.9C90.4,103,93.1,102.7,80.9,103.8z"/>
					<path class="st0" d="M94.8,103.2c0.8,0,1.7,0,2.7,0.1C96.4,103.1,95.6,103.1,94.8,103.2z"/>
					<path class="st0" d="M20.3,59.6c-0.1,0.4-0.2,0.8-0.2,1.2c0.2-0.2,0.3-0.3,0.6-0.4L20.3,59.6z"/>
					<path class="st0" d="M22.4,63.8c-0.4-0.2-0.7-0.4-1.1-0.5c0.4,0.6,0.8,1.1,1.1,1.6C22.3,64.6,22.1,63.9,22.4,63.8z"/>
					<path class="st0" d="M88.5,116.6l0.3-1.3c0.1-1.5-0.1-1.6-0.5-1.9L88.5,116.6z"/>
					<polygon class="st0" points="76.9,110.9 77.1,111 77.7,107.1 					"/>
					<path class="st0" d="M65.1,113.5c0.4,0.2,1.1-0.3,1.5-0.1C65.5,113.7,66.4,109.7,65.1,113.5z"/>
				</g>
			</g>
		</g>
	</g>
	<path class="st1" d="M115.3,176.9c-0.7-0.7-1.6-1.2-2.6-1.2h-27c-1,0-2,0.4-2.6,1.2l-14.4,16.4c-1.1,1.5-0.7,3.5,0.9,4.5
		c0.6,0.4,1.2,0.6,2,0.6H127c1.9,0,3.4-1.4,3.4-3.2c0-0.7-0.2-1.3-0.6-1.8L115.3,176.9z"/>
	<path class="st1" d="M184.2,44.7c-0.1-0.6-0.2-1.1-0.3-1.7c-0.3-1.2-0.7-2.3-1.3-3.3c0,0,0-0.1-0.1-0.1c-0.1-0.2-0.2-0.3-0.3-0.5
		c-0.6-1-1.4-2-2.2-2.8c-0.9-0.9-1.8-1.5-2.8-2.2c-0.2-0.1-0.3-0.3-0.5-0.3c0,0-0.1,0-0.1-0.1c-1-0.6-2.1-1-3.3-1.3
		c-0.6-0.2-1.1-0.3-1.7-0.3c-0.6-0.1-1.1-0.1-1.7-0.1h-141c-8,0.1-14.5,6.6-14.5,14.6v104.2c0,0.7,0.1,1.3,0.2,1.9
		c0.1,0.5,0.2,1,0.3,1.5c0.3,1.1,0.7,2.2,1.2,3.3c0,0.1,0.1,0.1,0.1,0.2c0.1,0.1,0.2,0.2,0.2,0.3c0.6,1.1,1.4,2.1,2.3,3
		c0.9,0.9,1.8,1.5,2.8,2.2c0.2,0.1,0.3,0.3,0.5,0.3c0,0,0.1,0,0.1,0.1c1,0.6,2.1,1,3.3,1.3c0.6,0.2,1.1,0.3,1.7,0.3
		c0.6,0.1,1.1,0.1,1.7,0.1h141.1c8,0,14.5-6.5,14.5-14.5V46.4C184.3,45.9,184.3,45.3,184.2,44.7z"/>
	<path class="st1" d="M163.8,75.7l-62.8-24.9c-1-0.4-2.2-0.4-3.3,0L34.7,75.7c-1.7,0.7-2.9,2.4-2.8,4.3c0,0.3,0.3,0.5,0.3,0.8
		c-0.2,0.4-0.3,0.9-0.3,1.4v32.9c0,3.7,3,6.8,6.8,6.8c3.8,0,6.8-3,6.8-6.8V87.9l52.4,18.5c0.5,0.2,0.9,0.3,1.5,0.3
		c0.5,0,1-0.1,1.5-0.3l62.9-22.2c2.3-0.9,3.6-3.3,2.7-5.7C165.9,77.2,165,76.2,163.8,75.7L163.8,75.7z"/>
	<path class="st1" d="M133.7,106l-34.5,12.2L64.7,106c-2.3-0.9-4.9,0.4-5.7,2.7c-0.2,0.5-0.3,1-0.3,1.5v22.5c0,1.9,1.2,3.6,3,4.2
		l26.9,9.5c6.8,2.4,14.1,2.4,20.9,0l26.9-9.5c1.8-0.6,3-2.3,3-4.2v-22.4c0-2.5-2-4.5-4.5-4.5C134.6,105.7,134.1,105.8,133.7,106
		L133.7,106z"/>
</g>
</svg>
