<?xml version="1.0" encoding="utf-8"?>
<!-- Generator: Adobe Illustrator 24.0.2, SVG Export Plug-In . SVG Version: 6.00 Build 0)  -->
<svg version="1.1" id="Layer_1" xmlns="http://www.w3.org/2000/svg" xmlns:xlink="http://www.w3.org/1999/xlink" x="0px" y="0px"
	 viewBox="0 0 198.4 198.4" style="enable-background:new 0 0 198.4 198.4;" xml:space="preserve">
<style type="text/css">
	.st0{fill:#AAA29A;}
	.st1{fill:#646565;}
</style>
<g>
	<g>
		<g>
			<g>
				<g>
					<path class="st0" d="M166.1,174.9c0,0.7,0.4,0.3,0.5,0.4C166.4,174.1,166,175,166.1,174.9z"/>
					<path class="st0" d="M160.9,172.8l0.6,0c-0.6,0-1.3,0-2,0C160,172.8,160.4,172.8,160.9,172.8z"/>
					<path class="st0" d="M158.9,171c-1.1,0.4-1.4,0.8-1.4,1.3c0,0.3,0.1,0.5,0.1,0.8c0,0.1,0.1,0.3,0.1,0.4l0.1,0.2l0,0.1l0,0.1
						c0,0,0.1,0,0.1,0c-0.8,0-0.2,0-0.4,0l0,0l0,0l0,0l0,0l0,0l0,0l0.1,0l0.1,0l0.2,0l0.1-0.1c0.1-0.1,0.2-0.1,0.2-0.2
						c0.1-0.1,0.2-0.2,0.1-0.3l-0.5-0.1c0.8-0.1,1.6-0.2,2.4-0.2c-0.2,0.1-0.5,0.2-0.8,0.3c-0.2,0.1-0.3,0.2-0.4,0.2l-0.2,0.1
						l-0.1,0c0,0,0,0,0,0l-0.1,0l-0.2,0l-0.1,0l0,0l0,0l0,0l0,0l0,0l0,0c0.2,0-0.5,0,0.5,0c0,0-0.1,0-0.1,0l0-0.1l0-0.1l0-0.2
						c0-0.1,0-0.3-0.1-0.4c0-0.3-0.1-0.5,0-0.8C158.5,171.9,158.6,171.4,158.9,171z"/>
					<path class="st0" d="M167.2,165.7c-1.5,0.5-0.9-0.9-0.8,1.2c0.2-0.1,0.3-0.2,0.4-0.2C166.9,166.4,167,166.1,167.2,165.7z"/>
					<path class="st0" d="M166.8,166.6C166.6,167.6,168.2,165.9,166.8,166.6L166.8,166.6z"/>
					<path class="st0" d="M167.2,162.2c0.4,0.4,0.7,0.7,1,1.1c0.9-0.4,1.5-1.6,2-1.2C169.9,160.9,168.9,161.3,167.2,162.2z"/>
					<path class="st0" d="M164.6,161.4l0.5,0.6C165.5,161.8,165.6,161.6,164.6,161.4z"/>
					<path class="st0" d="M166,163.2c-0.3-0.4-0.6-0.8-0.9-1.2c-0.7,0.3-1.9,0.5,0.3,0.6C164.3,162.6,165.3,162.7,166,163.2z"/>
					<path class="st0" d="M165.3,164.1c-1,0.8-1.6,1.7-2.7,0.7c0.1,1.1,0.7,1.6,1.3,1.4C164.5,166,165.2,165.2,165.3,164.1z"/>
					<path class="st0" d="M155.7,170.8l-0.9,0.9c0.3,0.2,0.7,0.4,1,0.7C155.2,172,156.7,170.7,155.7,170.8z"/>
					<path class="st0" d="M171,153.7c-1,0.1-2.6,0.9-3.8,1.3c0.3,0.2,0.7,0.5,1,0.8C168.8,155.1,169.5,154,171,153.7z"/>
					<path class="st0" d="M167.1,154.9c-0.5-0.4-1-0.7-1.5-1.1C165.3,155.2,166.1,155.2,167.1,154.9z"/>
					<path class="st0" d="M160.2,161.9c1,0.6,1.9,1.2,2.8,1.8c-0.8-0.8-1.8-1.5-2.8-2.2L160.2,161.9z"/>
					<path class="st0" d="M171.8,147.9l2.3,0.3c-1.1-0.2-2.3-0.5-3.5-0.7L171.8,147.9z"/>
					<path class="st0" d="M171.6,144.2c2,0.1,3.6-1.8,4.8-1.5c-0.3-1-2-1.4-3.7-1.7C173.6,141.6,173.3,142.6,171.6,144.2z"/>
					<path class="st0" d="M170.3,140.3c0.5,0.3,1.5,0.4,2.4,0.6C172.2,140.6,171.5,140.4,170.3,140.3z"/>
					<path class="st0" d="M166.2,151.3c0.6-0.2,2.2-0.8,3-1.8l-2.9,1.2C166.3,151,166.3,151.1,166.2,151.3z"/>
					<path class="st0" d="M166.2,150.8L166.2,150.8c0.2-0.7,0.2-1.1,0.3-1.3C166.5,149.7,166.4,150.1,166.2,150.8z"/>
					<path class="st0" d="M166.2,151.5c0-0.1,0-0.1,0-0.1C165.9,151.5,165.9,151.5,166.2,151.5z"/>
					<path class="st0" d="M162.6,158c-1.4-0.6-3-1.8-5.2,0.1C159.2,158.3,160.5,157.2,162.6,158z"/>
					<path class="st0" d="M162.7,152.9l-0.6,1.6c0.7-0.2,1.8-0.7,2.5-0.4C164,153.7,163.3,153.3,162.7,152.9z"/>
					<polygon class="st0" points="161.8,152.4 162.7,152.9 162.9,152.4 					"/>
					<path class="st0" d="M167.4,143.9c-1.4-0.3-1.5-1-1.8-1.7c-0.6,1.1-0.8,2-0.8,2.9C165.8,144.9,167.5,144.8,167.4,143.9z"/>
					<path class="st0" d="M166.6,147.3c-0.1,0-0.1-0.1-0.2-0.1C166.2,147.4,166.1,147.5,166.6,147.3z"/>
					<path class="st0" d="M162.1,129.7c-0.1,0.3-0.2,0.6-0.2,0.8c0.2-0.1,0.4-0.2,0.6-0.2C162.4,130.1,162.2,129.9,162.1,129.7z"/>
					<path class="st0" d="M164.2,145.3c-0.6,0.8,0.2,1,1.2,1.1c-0.3-0.4-0.5-0.9-0.6-1.4C164.4,145.1,164.1,145.2,164.2,145.3z"/>
					<path class="st0" d="M168.6,138.5c-0.7,0.6-1.2,1.1-1.7,1.7C167.9,139.5,169.5,138.3,168.6,138.5z"/>
					<path class="st0" d="M167.2,146.8c0,0,0.1,0,0.1,0.1C168,146.5,167.7,146.6,167.2,146.8z"/>
					<path class="st0" d="M167.2,146.8c-0.4-0.2-1.2-0.3-1.8-0.4c0.2,0.3,0.6,0.6,1,0.8C166.6,147.1,167,146.9,167.2,146.8z"/>
					<path class="st0" d="M143.4,143.4c0.1-0.4,0.2-0.8,0.3-1.3c0-0.1,0-0.2,0.1-0.3c0.1-0.4,0.3-0.8,0.4-1.1
						c0.3-0.6,0.9-1.1,1.4-1.1c0.5-0.1,1,0.2,1.1,0.6c0.1,0.4-0.1,1-0.7,1.7c1.4-0.1,4.5-1,7.8-2.8c3.3-1.8,6.9-4.5,8.1-8.5
						c-0.6,0.3-1.3,0.7-2.3,0.4c-0.5-0.1-1.2-0.4-2.1-0.8c-1-0.5-2.2-1.2-4.3-2.1c0.4,0.8,1.3,2.2,1.7,3.5c0.5,1.4,0.7,2.7,0.6,3.7
						c-0.1,1-0.5,1.8-1,2.3c-0.5,0.5-1.2,0.7-2.1,0.5c-1.6-1.2-2.1-2.1-2.3-3.3c-0.1-0.6-0.1-1.2-0.2-1.9c-0.1-0.7-0.4-1.5-1.3-2.4
						c0.5,1.4-0.3,2-1.2,2.6c-0.5,0.3-1.1,0.5-1.6,0.8c-0.2,0.1-0.2,0.2-0.3,0.3c-0.1,0.1-0.1,0.2-0.2,0.3c-0.1,0.2-0.3,0.4-0.4,0.6
						c-0.4,0.9-0.9,1.9-1.3,3c-0.2,0.6-0.4,1.2-0.6,1.9l0,0.1l-0.1,0.3c-0.1,0.4-0.2,0.7-0.3,1.1c-0.2,0.8-0.4,1.5-0.6,2.3
						c-0.4,1.5-0.7,3-1.1,4.8l2-5.3l0.9-2.2c0.2-0.5,0.3-0.9,0.4-1c0.1-0.1,0.2-0.2,0.3-0.3c-0.1,0.2-0.2,0.5-0.3,0.8
						c0,0.1,0,0.1-0.1,0.3c-0.1,0.2-0.1,0.4-0.2,0.6c-0.1,0.5-0.3,1.1-0.4,1.6c-0.3,1.2-0.6,2.6-0.7,3.1
						C142.6,146.6,142.7,146.3,143.4,143.4z"/>
					<path class="st0" d="M164.2,137.5l0.5,0.5c0.1-0.2,0.3-0.4,0.5-0.7c0.2-0.3,0.5-0.4,0.7-0.9c0.5-0.8,1.3-1.8,2-3.7
						c-1.2-1.1-2.4-2-3.3-2.3c-0.9-0.4-1.6-0.3-2.1-0.1c1,1.9,1.5,3.4,1.8,4.6c0.2,0.6,0.3,1.1,0.3,1.6c0,0.2,0.1,0.5,0.1,0.6l0,0.4
						L164.2,137.5z"/>
					<path class="st0" d="M165,140.7c-3.3,0.5-4.9-0.4-8.3,1.6c0.5,1.6,2.9,0.3,4.4,0.9c-1.1-2.5,1.9,0.3,3.5-2.3
						c0.6,0.4,0.8,0.9,1,1.3c0.4-0.6,0.8-1.3,1.4-2c-0.1,0.1-0.1,0.1-0.2,0.1l0,0c0,0,0,0-0.1,0c-0.4,0.3-0.6,0.4-0.4,0.2
						c0,0-0.1,0-0.1,0C165.8,140.6,165.4,140.6,165,140.7c0.6-1.1,0.8-0.4,1.3-0.3c0.2,0,0.3-0.1,0.5-0.1l0,0
						c-0.7-0.8-1.4-1.6-2.1-2.3C164.3,138.7,164.5,139.5,165,140.7z"/>
					<path class="st0" d="M151.5,157.8c0.2-0.1,0.4-0.2,0.6-0.2C151.8,157.5,151.6,157.5,151.5,157.8z"/>
					<path class="st0" d="M153,156.5c0.4,0.1,1.5,0,1.3,0.7c-0.7,0.7-1.3,0.2-2.2,0.5c0.8,0.2,2.1,0.9,3.3-0.5l-0.4-0.1
						c0.8-1.2,4.2-3.3,4.6-3.2C157.2,154.7,155.4,155.3,153,156.5z"/>
					<path class="st0" d="M157.9,149.2c-0.6-0.6-1.2-1.2-1.8-1.8l-2.5,1.8l1.6-0.5C154.8,150.1,156.7,149.4,157.9,149.2z"/>
					<path class="st0" d="M162.8,127.5c1.4-0.3,2.7-0.6,4.1-0.8c-2.8-1.2-6.2-2.5-10.2-3.2C159.2,124.8,161.2,126.3,162.8,127.5z"/>
					<path class="st0" d="M148.2,118.6l0.8-3.3l-0.7,2.1C148.3,117.8,148.2,118.2,148.2,118.6z"/>
					<path class="st0" d="M65.3,159.9l-0.4-0.7C65,159.5,65.1,159.7,65.3,159.9z"/>
					<path class="st0" d="M79.1,165.9l-0.3-0.6C78.9,165.8,78.9,166,79.1,165.9z"/>
					<path class="st0" d="M140.4,117.6c2.8-3.1,7.1-7.2,3.7-4.1l-3.3,3.1C141.4,116.3,141.1,116.8,140.4,117.6z"/>
					<path class="st0" d="M96.7,132.3c0.3,0.1,0.6,0.2,0.9,0.4c-0.7-0.8-1.3-1.6-1.9-2.2C96,130.9,96.4,131.6,96.7,132.3z"/>
					<path class="st0" d="M106.1,140.1c-0.8-0.2-1.5-0.4-2.3-0.5C104.5,139.9,105.2,140,106.1,140.1z"/>
					<path class="st0" d="M65,132l-1.7-1.3C63.3,131.9,64.2,131.7,65,132z"/>
					<path class="st0" d="M140.9,128.7c0.9-2.1,1.3-3,1.4-3.3C140.8,128.8,138.6,133.6,140.9,128.7z"/>
					<path class="st0" d="M79.5,158.8c-0.3-0.2-0.6-0.3-0.9-0.2C78.9,158.8,79.2,158.9,79.5,158.8z"/>
					<path class="st0" d="M141.9,125.7c-0.2,0.5-0.4,0.9-0.6,1.4c0.6-1.1,1.1-2,1-1.7C143.4,122.9,144.2,121.3,141.9,125.7z"/>
					<path class="st0" d="M37.4,129.2c0-0.2,0-0.4,0.1-0.6C37.4,129.2,37.4,129.3,37.4,129.2z"/>
					<path class="st0" d="M26.2,91.3c0.1-0.3,0.4-0.6,0.7-0.9C26.7,90.4,26.5,90.7,26.2,91.3z"/>
					<path class="st0" d="M145.5,122.2C145.7,121.9,145.7,121.8,145.5,122.2L145.5,122.2z"/>
					<path class="st0" d="M140.8,136.8c-0.2,0.5-0.4,1.1-0.7,2C140.4,137.8,140.6,137.2,140.8,136.8z"/>
					<path class="st0" d="M120.8,165.7C120.8,165.7,120.8,165.6,120.8,165.7C119.8,167.7,120,167.3,120.8,165.7z"/>
					<path class="st0" d="M145,123.9c0.1-0.5,0.2-0.8,0.3-1.1C145.2,123.1,145.1,123.5,145,123.9z"/>
					<path class="st0" d="M145.6,122.1c0,0.1,0,0.2-0.1,0.3C145.8,121.8,146,121.3,145.6,122.1z"/>
					<path class="st0" d="M145.3,122.5c0.1-0.1,0,0.1,0,0.3c0.1-0.3,0.2-0.5,0.2-0.6C145.5,122.3,145.4,122.4,145.3,122.5z"/>
					<path class="st0" d="M73.2,114.7c0-0.1-0.1-0.2-0.1-0.3C72.9,116.1,73,115.8,73.2,114.7z"/>
					<path class="st0" d="M99.9,129.9c0,0,0.1,0,0.2,0c0-0.1,0.1-0.1,0.1-0.2L99.9,129.9z"/>
					<path class="st0" d="M97.3,127.5c1.3-0.1,2.2-0.1,2.8-0.1l0.2,0l0.1,0c0,0-0.1,0.1-0.1,0.1l-0.3,0.2c0.1,0,0.2,0,0.3,0.1
						c0.2,0.1,0.3,0.1,0.4,0.2c0.4,0.4,0,1-0.4,1.7c3.7-2,7.4-3.9,11.1-5.8c-1.2,0.4-2.5,0.7-3.7,1.1l-1.8,0.5l-0.9,0.2
						c-0.1,0-0.4,0.1-0.4,0.1c0,0,0,0-0.1,0C102.1,126.4,99.7,127,97.3,127.5z"/>
					<path class="st0" d="M64.9,147.2c-0.4,0.5-0.9,1-1.3,1.5c-1.8-2.3-1-3.8-2.8-2.4c1,0.2,1.6,0.8,1.8,1.5
						c0.3,0.7,0.3,1.5,0.3,2.4c0,1.7,0.1,3.5,2.1,3.7c-0.3,0.4-0.6,0.8-0.9,1.2c0-0.3-0.2-0.4-0.2-0.7c-1,1.2-0.2,1.6,0.7,2.1
						c0.9,0.5,2,0.9,1.9,2.4c-0.2,1-0.7,1.9-1.3,1.2c0.4,0.7,0.9,1.4,1.4,2.1c0,0.7-0.7,0.7-0.7,0l0.2,0.8l2.8,10l7.8-5.9
						c0.7-0.5,1.4-1,2.1-1.6l0.1,0.1c0-0.8,0.2-2.2,0.3-2.9c1.1,0,0,0.6,0.5,0.9c0.3-0.6,0.5-1.3,0.7-1.9c1.4,0.4,1,2.2-0.2,2.8
						c2.1,1.2,2.3,0.7,2.5,0c0.1-0.4,0.2-0.8,0.6-1.2c0.4-0.4,1-0.7,2.3-0.8l-1,1.5c1.4,0.6,2.3,0.5,3.1,0.3
						c0.8-0.3,1.7-0.6,3.2-0.7c-0.5-0.2-2.3-0.3-3.6-0.6c-1.4-0.3-2.4-0.9-2.1-1.9c0.7-0.1,1.4-0.4,1.5-1.8c1.3,1.2,1.9,0.2,2.7-0.7
						l1.9,1.6c0.6-1.4-0.5-2.1-0.8-3.3c1.3-0.9,3.2,0.2,4.9,1c1.2-0.7,0.1-0.9-0.9-1.2c-1.1-0.3-2.1-0.8-1.3-1.9
						c2.3-0.7,2.5-2.3,2.6-4.9c1.9-0.3,1.4,1.2,2.5,1.4c-0.4-0.7-0.8-1.4-1.3-2.2c0.3-0.2,0.9,0.3,1.2,0.6c-0.1-1.2-2.7-1.8-2.4-3.4
						c-1.4-1.2,0.2-1,2-0.9c1.8,0.1,3.8,0.1,2.4-1.8c1.2,0.3,1.8,1.4,3.1,2.1c-0.4-1.6-0.5-2.3-0.8-3c-0.3-0.7-0.7-1.4-1.9-3.4
						c1.1,0.1,2.2,0.3,3.4,0.5c-3.4-1.1-5.3-4.2-7-7.4c-1.5-0.6-2.9-1.1-3.5-1.3c-0.2-1.1-0.4-2.3-0.5-3.4c0.7,0.2,1.8,1.4,3,2.9
						c-0.2-0.4-0.4-0.7-0.6-1c1.8,0.4,3.6,2.4,5.2,4.4c-0.9-0.4-1.8-0.8-2.7-1.1c1.8,2.1,3.8,4.2,5.9,5.6c-0.3-0.4-0.5-0.8-0.4-1.2
						c0.5,0.5,0.9,1,1.3,1.2c0.4,0.2-0.2-0.5-0.8-1.4l4.2,2.8l-1.5-1.3c1.5,0.1,3,0.4,4.4,0.7c-1.3-2.1-3.1-4.9-4.5-7.6
						c-0.7-1.4-1.3-2.7-1.6-4c-0.3-1.3-0.4-2.5-0.2-3.5c1,1.9,2.1,3.2,3.3,4.6c1.2,1.4,2.5,2.8,4.1,4.8c-2-1.9-2-1.2-1.8-0.1
						c0.2,1.1,0.8,2.5-0.1,2.5c1,0,2.4,1.8,2.9,2.4c-0.5-1.4-0.9-2.8-1.3-4.4c2.6,3.1,2.4,2.2,3.9,3.3c-5.4-6.2-2-4.9-2.7-7.4
						c0.8,1.2,1.5,2.4,1.9,3.3c0.4,0.9,0.5,1.4-0.1,1.3c1.1,1.2,1.4,1.3,1.2,0.8c-0.2-0.5-0.7-1.6-1.3-2.8c-0.5-1.2-1.1-2.4-1.2-3
						c-0.2-0.7,0.1-0.8,1,0.4c-0.2,0.1-0.5-0.2,0.1,1.1c-0.4-1.2,0-1.5,0.5-1.1c0.5,0.4,1.2,1.4,1.6,2.6l-0.1,0.1
						c0.3,0.1,0.5,0.2,0.7,0.2c0.2,0,0.4-0.1,0.6-0.2c0.3-0.3,0.5-1,0.7-2.5l-13.2-7.9c1.3,0.2,3.1,0.1,5.3-0.6
						c-1,0.4-8.9,2.9-10.4,3.3l3.2-0.7l1.6-0.3l1.7-0.2c1.1-0.1,2.2-0.3,3.3-0.5l1.6-0.3l0.8-0.1l0.1,0c0,0,0.1,0,0.2,0l0.4-0.1
						c1.1-0.2,2.2-0.5,3.4-0.7l3.3-0.8c2.1-0.5,4.2-1.2,6.3-1.8c-1.6,0.7-3.6,1.6-5.9,2.8c-2.4,1.2-5.1,2.6-7.6,3.9
						c-5.2,2.6-10.2,4.9-12.2,4c-0.4,0.7-0.9,1.5-0.9,2.2c0,0.4,0.1,0.7,0.3,1c0.2,0.4,0.5,0.7,1,1c0.5-0.6,3-2.4,5.4-3.8
						c2.4-1.4,4.7-2.6,5.1-2.4c-3.7,3-4.8,4.1-5.7,5.1c-0.9,1-1.7,1.9-5.2,5.8c0.8-1.1,4-2.9,7-4.4c3-1.5,5.8-2.7,5.7-2
						c-1.7,0.9-11.3,7.6-12.5,7.7c3.7-0.9,7.6-2.3,11.5-4c-1.1,0.4-3.5,2.1-6.1,4.1c-2.6,2.1-5.3,4.5-6.9,6.3
						c1.1-1.1,1.1-0.1,0.9,1.3c-0.2,1.3-0.5,3,0.1,3.2c0.9-1.4,1.8-2.8,2.7-4.2c-0.4,1.6,0.4,1.8,1.9,1.3c1.5-0.6,3.7-1.9,5.9-3.5
						c4.4-3,9.1-6.7,8.9-4.9c-1.3,1.1-5.2,4.8-8.9,8.5c-3.7,3.8-7.4,7.8-8.1,9.9c3.1-2.7,10.7-9.4,18.2-16.8
						c0.5-0.5,0.9-0.9,1.4-1.4c0.3-0.3,0.7-0.6,1-0.9c0.6-0.6,1.2-1.1,1.9-1.7c1.1-1.1,2.3-2.1,3.4-3.2c2.1-2,3.8-3.6,4.6-4.2
						l-2.4,3.3c1-0.7,1.9-1.5,2.8-2.4c-1.6,1.9-3.7,4.3-5.9,6.8c-1.1,1.2-2.3,2.5-3.5,3.7c-0.3,0.3-0.6,0.6-0.9,0.9l-0.5,0.5
						l-0.3,0.3l-0.3,0.4c-0.9,1-1.8,1.9-2.8,2.9c-3.7,3.8-7.3,7.2-10.4,9.9c-3.2,2.7-5.9,4.8-7.8,6.1c-2.9,5.2-4.3,5.3-4,8.1
						c-1.7,2.6-3,3.7-3.9,3.9c-0.9,0.3-1.3-0.2-1.4-0.7L89,184.8c3.8-4.9,5.6-5.7,7.3-6.5c1.7-0.8,3.3-1.6,6.4-6
						c-2.6,1.2-5.2,1.9-7.7,2.2c3.7-4.6,9-9.8,13.3-13.7c2.1-1.9,4-3.5,5.2-4.4c1.2-0.8,1.9-0.9,1.6,0.4c-1.5,2.5-4.9,7.1-8.2,11.4
						c-3.3,4.3-6.6,8.3-7.9,10c1.3-1.5,2.5-2.1,3.2-2c0.7,0.1,0.8,0.9-0.2,2.5c-1.4,1.4-2.7,2.7-4.1,3.9c-1.5,3.5,1,1,3-0.9
						c2-1.8,3.4-3-0.4,4.2c-0.3,0.9-2.8,5.6-4.7,9.4c-1.9,3.7-3.1,6.4-0.8,2.7c4.5-8.2,13.5-23.2,22.3-37.3
						c3.5-5.5,6.8-10.9,9.7-15.5c2.3-3.6,4.2-6.6,5.2-8.2c-0.4,0.9-6.6,13.3-8.3,16.5c-0.6,1.1-1.1,2.1-1.8,3.2
						c-1,1.7-1.8,3.2-2.9,5c-2,3.4-4,6.7-6,9.9c-4,6.5-7.9,12.5-10.9,18.2c2.1-3.6,4.7-7.3,5.5-8.4c-1.9,4.1-6.6,11.1-5.7,11.5
						c7.9-13.7-0.9,5.2,6.6-11c1.1-1.1,0.6,0,0,1.7c-0.7,1.7-1.6,3.9-1.5,4.6c2.6-5.1,6.9-12.7,10.8-19.6c0.9-1.6,1.9-3.3,2.8-5
						c0.2-0.4,0.4-0.8,0.7-1.2l0.4-0.8c0.3-0.4,0.5-0.8,0.8-1.3c1-1.6,1.7-2.8,2-3.2c-0.6,1.2-1.4,2.7-2.1,4.1c-0.7,1.4-1.5,3-2,4.1
						c-0.3,1-0.7,2.3-1.2,3.7c-0.1,0.4-0.3,0.7-0.4,1.1c0,0.2-0.1,0.3-0.1,0.5c-0.1,0.4-0.2,0.7-0.3,1.1c-0.4,1.5-0.8,3.1-0.1,2.7
						c-0.9,2.1-1.8,4.4-3,7.3c-1.2,2.8-2.6,6.3-4.5,10.2c1.6-3.2,4.6-9.7,5.2-10.3c-1.6,4.1-2.6,6.5-3.2,7.8
						c-0.6,1.4-0.9,1.8-1.3,2.3c-0.3,0.5-0.7,1.1-1.6,2.8c-0.8,1.7-2,4.5-4.1,9.6c2.4-5.5,4.3-9.2,6.1-12.5
						c1.8-3.4,3.4-6.3,5.2-10.2c3.7-9.3,3.7-9.8,2.4-7.2c-1.4,2.6-4.1,8.1-5.9,11.5c2.3-5.1,4.6-10.4,7.9-17.6
						c0.6-1.4,1.3-2.9,2-4.4c0.3-0.7,0.7-1.5,1-2.2c0.2-0.4,0.4-0.8,0.6-1.2c0.7-1.3,1.4-2.8,2.2-4.4c2.9-5.7,5.4-10.5,7-13.6
						c2-3.6-2.8,6.4-1.9,4.7c0.5-0.2,2.9-5.1,4.7-9c0.9-2,1.7-3.7,2.2-4.6c0.5-0.9,0.5-0.9,0.1,0.5c-1,2.7-2.2,5.5-3.3,8.2
						c-1.2,2.7-2.3,5.4-3.1,7.4c-0.9,1.7-0.9,1.3-0.7,0.4c0.2-0.8,0.6-2,0.2-1.5c-0.2,0.7-0.4,1.4-0.5,2c-1.2,2.4-2.6,4.9-2.1,3.5
						c-0.1,0.3-0.2,0.6-0.3,0.8c0,0.1-0.1,0.2-0.1,0.3l0,0.1c0,0.1,0,0-0.1,0.2c-0.3,1.1-0.5,1.7-0.5,2.2c-0.1,0.8,0.3,0.7,0.7,0.4
						c0.4-0.3,0.9-0.6,1,0.1c0.1,0.7-0.2,2.6-1.3,6.9c1.4-3.7,3.2-8.7,4.4-12.2c0.9-2.5,1.5-4.4,2-5.6c0.2-0.5,0.4-1,0.5-1.4
						l-0.8,1.4c0.5-1.8,1.3-3.5,2-4.9c0.6-1.4,1.1-2.4,1.2-3.1c0.8-1.7,1.6-3.5,2.4-5.4c0.7-1.5,1.1-2.2,1.1-1.6l-1.5,4.9
						c0.4-1.4,0.5-2.4-0.3-0.6c0.4-1,0.3-0.5,0.3,0.1c-0.1,0.6-0.2,1.4,0.1,1.1c0.3-0.5,0.7-1.5,1.4-3.7l0.1-1.1l0.2-0.8
						c0.1-0.3,0.2-0.6,0.4-0.9c0.5-1.3,1-2.7,1.5-4.1c0.3-0.7,0.5-1.5,0.8-2.2c0.2-0.4,0.3-0.9,0.5-1.3c0.6-1.6,1-2.5,1.1-2
						c0.6-2.5,0.5-2.3,0.5-2.3c0,0.1-0.1,0.1,0.7-2.9c-0.7,2.8-1,3.6-1.3,3.9l-0.1,0.1l0,0c0,0-0.1,0.2-0.1,0.3
						c-0.2,0.4-0.3,0.9-0.5,1.3c-0.4,1-0.7,1.9-0.9,2.4c-0.2,0.4-0.4,1.2-0.8,2.6c0,0.1-0.1,0.2-0.1,0.4c0-0.1,0.1-0.2,0.1-0.4
						c0.8-2.7,0.9-3.3,1-3.8c0.1-0.5,0.2-0.9,1.1-3.9c-0.6,1.8-1.1,3.3-1,2.6c-0.2,0.4-0.4,1.2-0.6,1.7c0-0.1,0-0.1,0-0.1
						c0,0.1,0,0.1-0.1,0.2c-0.1,0.3-0.1,0.3,0,0.1c-0.2,0.8-0.5,1.7-0.9,2.6c-1.6,4.3-2.3,4.9-3.4,7.6c0.1-0.6,1-2.4,1.7-4.3
						l-1.7,3.9c0.9-2.2,1.5-4,2.1-5.6c0.6-1.6,1.2-3.1,1.9-4.6l-0.2,0c0.9-2.5,1.3-3.6,0.3-1.4c0.2-0.5-0.5,0.9-1,2.1
						c-0.5,1.1-0.9,1.8,0.1-0.3l-2,3.8l0.6-1.4c-0.1-0.1-1.4,2.4-2.3,4c-0.9,1.5-1.3,2,1.2-3.5c-0.9,1.7-2.2,4-1.5,2.4l2.9-5.8
						c-0.3,0.6-0.2,0.4,0-0.1c0.3-0.6,0.5-1.2,0.8-1.7c0.5-1.1,0.8-1.7-0.8,1.2c3.9-7.7,4.4-8.6,4-8.1c-0.4,0.5-1.5,2.2-0.8,0.9
						l-3.7,6.3c0.2-0.8-0.8,0.7-2.3,2.3l-3.3,5.1c-1.3,1.7-0.8,0.3,0.1-1.5c0.9-1.8,2-3.9,1.8-4.2c1.3-1.6,0.9-1,0.2,0.3
						c1.8-2.9,2.4-3.8,2.3-4c-0.1-0.1-0.9,0.6-1.7,1.3c-1.7,1.5-3.6,2.8-0.9-0.8c-1.3,1-0.9,0.4,0-0.7c0,0,0.1,0,0.2-0.1
						c0-0.1,0-0.1,0-0.1c0.6-0.7,1.1-1.4,1.8-2.1c-0.8,0.9-1.5,1.7-1.8,2.1c-0.1-0.1-0.6,0-1.5,0.5l3.7-3.5c-0.1,0,0,0-0.1,0
						c1.3-1.4-1.8,1.3-4.5,4c-0.6,0.4-1.4,0.9-2.3,1.5c3-2.8,2.4-2.5,1.9-2.4c-0.5,0.1-1,0.2,2.2-2.5c-3.2,2.2-2.8,0.2-9.7,4.2
						c0.9-0.6,1.3-1,1.4-0.8c0.7-1,1.3-1.9-0.8-1.3c1.7-1,3.3-2,5-2.9c-2.3,0.9-4.7,1.7-7.1,2.4c2.9-2.2,4.7-3.1,8.8-4.5
						c-1.6,0.4-2.6,0.6-3.3,0.7c-0.3,0-0.6,0-0.8,0c-0.1,0-0.2,0-0.3,0c0,0,0,0-0.1,0l-0.3,0.1l-0.1,0c-0.3,0-0.6-0.1-1.2,0
						c-0.3,0-0.6,0.1-1.2,0.1c-0.6,0-1.3,0-2.2,0l3.5-1.1c-0.2-0.3-1.2-0.4-2.2-0.6l-12.3-7.3c-0.7,1.2-1.2,2.2-1.9,0.6
						c-1.9-3.1-5.5-2.2-9-0.5c-0.4,0.2-0.9,0.4-1.3,0.7c-0.4,0.2-0.8,0.5-1.3,0.7c-0.4,0.2-0.9,0.5-1.3,0.7
						c-0.4,0.2-0.8,0.5-1.3,0.7c-0.9,0.4-1.7,0.7-2.6,1c-0.9,0.3-1.9,0.4-2.8,0.4c3.4,3.3,2.2,2.9,0.8,2.5c-1.5-0.4-3.2-0.7-0.8,2
						c-1.7-1.4-3.1-1.6-3.7-3.8c-0.3,2.1-1.5,2.4-2.4,3c-0.8,0.6-1.2,1.5,0.3,4.2c-1.7-1.1-1.9-2.5-3-3.1c0.2,0.5,0.9,2-0.2,1.5
						c-1-0.5-1.1-1.5-1.5-2.5c-1.2,3.1,3.4,7.1,7.7,10.9c-2.8-0.6-2.8,0.4-0.4,3.3c-1.6-0.7-3.4-1.1-3.2-2.9c-0.3,0.3-1.5,1.2-2,2.3
						c-0.6,1.1-0.6,2.5,1,3.6c-1-0.3-0.7,0.9-0.4,1.4c-1,1.6-1.3,1.6-1.7,3.4l0.7-0.1c3.3,2.9,0.1,1.8,0,3.4l-0.3-0.3
						c-1.9,0.7-1.7,1.2-1.6,1.6c0.1,0.5,0.1,0.9-1.8,1.5l1.9,1.1c1.9,1.5,1,1.7-0.3,1.8c-1.3,0.2-2.8,0.3-2.6,1.6l1.2,0.1
						c0.4,0.9-1.2,0.6-2.8,0.1c-1.6-0.4-3.4-1-3.7-0.8c-0.4,0-0.3-0.6-0.4-1c-1.4,0.3-0.9,0.8-0.2,1.4c0.7,0.6,1.8,1.4,1.6,2.3
						c-1.1-0.5-2.3-2.4-2.9-1.6c-0.5-0.1-0.1,1.3,0,2.6c0,0.7,0,1.3-0.2,1.8c-0.2,0.4-0.6,0.7-1.2,0.6c0.8,0.4,1.6,0.8,1.5,1.9
						c-0.3,0.5-1,0.5-1.7,0.6c-0.7,0.1-1.4,0.1-1.7,0.6l9.7,3.7c-0.2-0.2-0.5-0.4-1.1-0.4c0.2-0.2,0.4-0.3,0.6-0.3
						c-0.5-0.3-0.8-0.9-1.3-1.5c-0.4-0.6-1-1.2-1.6-1.5c1.2-0.3,1.7-0.7,1.7-1.3c0.1-0.6-0.2-1.2-0.5-1.9c-0.6-1.4-1-2.8,1.3-2.4
						l0.2-1.4l0.3-1.4l0.5,0.2c0.9-1.7,0-2.6-0.9-3.6c0.5-0.3,0.9,0.1,1.1,0.2c2.1-2.4,2.3-2.6,0.5-5.9l2,0.3
						c-0.4-0.5,0.8-1.2,2.2-2.3c1.3-1.1,2.9-2.4,2.4-4.2c0.2,0.1,0.7,0.3,0.8,0.6c-0.4-2,2.4-3.5,4.5-5.1c1.1-0.8,1.9-1.7,1.9-2.5
						c-0.1-0.9-1-1.8-3.6-2.6c-0.6-1-1.2-2-1.9-3c-0.9,1.6-2.1,1.3-3.4,0.7c-1.3-0.6-2.7-1.3-3.7-0.8c-0.2-0.6,0.7-1.2,1.8-1.6
						c1.1-0.3,2.4-0.4,2.6,0.5l-0.6,0.2c3,0.6,3.8-0.3,4.4-1.5c0.6-1.1,0.8-2.5,3.1-2.4c0.3-2.1,0.6-4.1,0.9-6.2
						c0.1-1.1,0.3-2.2,0.4-3.4l0.1-1.7c0-0.6,0-1.4-0.1-2.3c-0.3-1.8-0.9-4.4-3.2-7.5c-1.1-1.5-2.8-3.2-4.6-4.4
						c-1.8-1.2-3.7-2-5.3-2.6c-3.3-1-5.6-1.2-7.1-1.3l-1.7-0.2c-0.5,0-1-0.1-1.4-0.1c0.6,2.1,1.1,4.2,1.6,6.3
						c-0.8-0.1-1.6-0.2-2.4-0.2c-0.9-1.4-1.7-4.9,0.2-4.8c-0.7-1.8-1.4-0.9-1.8,0.5c-0.4,1.5-0.5,3.5-0.4,4.2c-1.9-1-2-2.9-1.7-4.6
						c0.3-1.7,1.1-3.1,0.5-3.1l-1.4,0.7l0.5,0.7c-0.7,2.8-0.1,5.6-2.2,5.7c-1.6-1-1.7-3.8-2.3-3.9c-0.1-0.4-0.4-0.6-0.9,0.1
						c-1.1,0.1-2.2,0.3-3.3,0.5c1,1.5,1.9,3,2.9,4.5c-0.5,2.9-2.7,0.7,0.5,5.8c-2.9-3.8-4.1-4.2-5.3-3.7c-1.1,0.5-2.1,1.9-2.5,0.6
						c-0.3,4.4-1.2,4.9-2.2,5.1c0.2,1,0.6,7.4-0.5,7.4c0.2-6.9-0.2-8.1-0.6-8.8c-0.4-0.7-0.9-0.8-0.7-5.8c-0.1,3.3-0.5,4.1-1,5.3
						c-0.5,1.2-1.1,2.8-1.3,7.6c-0.1-0.1-0.1-0.2-0.1-0.5c0-0.4,0.1-0.8,0.1-1c0.1-1,0.2-1.6,0.3-2.3c0.2-1.7,0.5-3.7,0.7-5.7
						c-0.4,2.1-0.3,0.1-0.1-2c0.2-2.2,0.4-4.5,0.2-4.6c-0.3,1.4-0.7,4.1-1.1,5.8c0.4-2.9,0.9-5.6,1.3-8.2c-0.1,0.2-0.5,2.1-0.7,3.2
						c-0.3,1.2-0.4,1.5,0.1-1.1c-0.2,1.2-0.6,3-0.6,3.1c0.3-2.7,0.4-4.1,0.3-5.2c0-0.5-0.1-1-0.4-1.3c-0.1-0.2-0.4-0.3-0.6-0.4
						c-0.1,0-0.1,0-0.2-0.1l-0.1,0c0,0-0.1,0,0,0l0.3,0.1l0.1,0c0.1,0,0,0,0,0l-0.3-0.1c-0.4-0.1-0.8-0.2-1.2-0.3
						c-0.4-0.1-0.7-0.1-1.1-0.2c-0.8-0.1-1.4-0.1-2-0.1c-0.6,0-1.2,0.1-1.7,0.2c-1,0.2-2,0.5-2.7,0.8c-1.6,0.6-2.8,1.2-4,1.9
						l-1.6,0.9c-0.4,0.2-0.8,0.4-1.3,0.6c-0.9,0.4-1.8,0.7-2.7,1c1.2,0,0.8,0.8,0.3,1.4c0.5-0.2,0.6,1.2,1,1.7
						c-1.1,0.1-2.2,0.4-3.1,0.9c0.2,0.9-0.4,1.6-1,2.3c-0.6,0.7-1.1,1.4-1,1.9c0.2-0.3,0.4-0.6,0.6-0.9c-0.2,1.1,0.4,1.2,1.3,1.6
						c0.9,0.4,2.1,1,2.5,1.9c0.3-1,1.6-0.7,3.1-0.2c0.7,0.2,1.5,0.4,2.2,0.4c0.6-0.1,1.2-0.4,1.3-1.5c0.9,0.5,0,1,0.7,1.7
						c0-1.3,0.5-1.9,2.3-1.5l0,0.4c0.1,0,0.2-0.1,0.3-0.1l0.2,0c0.2,0,0.3,0,0.5,0c0.3,0,0.6,0.1,0.8,0.2c0.5,0.2,0.9,0.5,1,1
						c-0.1-0.3-0.1-0.9-0.2-1.2c-0.1-0.4-0.1-0.8-0.1-1.2c0-0.3,0-0.7,0-1c0-0.1,0-0.3,0.1-0.4c0-0.2,0.1-0.3,0.1-0.4
						c0-0.2,0.1-0.5,0.2-0.6l0-0.1l0,0l0,0l0,0l0,0l0,0c-6.8,13.2-2.2,4.4-3.8,7.7c-2.4,6.1-4.7,12.1-7.1,18.2l0.1,0
						c0.3,0.1,0.5,0.2,0.8,0.4c0.6,0.2,1,0.5,1.6,0.7c0.5,0.3,1,0.5,1.5,0.8c0.5-2.1,1-4.3,1.6-6.5c0.7,0.5,0.8,1.4,0.9,2.2
						c0,0.9,0,1.8,0,2.6c1-2.3,1.3-3.4,1.3-4.2c0-0.7-0.3-1-0.7-1.2c-0.4-0.3-0.9-0.5-1-1.4c-0.1-0.8,0.4-2.3,1.8-4.9
						c-0.7,3.4-0.3,5.2,0.1,6.4c0.4,1.1,0.9,1.6,1.2,2.1c0.3,0.5,0.3,1.1,0.2,2.4c-0.1,1.3-0.4,3.2-1.1,6.4c0.2,0.3,0.5-1.3,0.9-2.9
						c0.3-1.6,0.7-3.2,0.8-2.8l-0.7,3.5l1.1-4c0,1.2-0.7,5.3-1.3,8c0-0.4-0.4,0.5-0.5,0.7c-0.2,2.1,0.1,1.9,0.5,1.6
						c0.4-0.4,0.8-1,0.7-0.4l0-2.3c0.9-0.6,1.4,0.6,2,1.3c0.3,0.4,0.6,0.7,0.9,0.7c0.2,0,0.3,0,0.5-0.1c0.1-0.1,0.2-0.1,0.3-0.2
						c0,0,0.1-0.1,0.1-0.1l0.3-0.5l-0.1-1.4c1.4-2.1,1.8-2,2.4-1.6c0.5,0.3,1,0.9,2.7-0.5l-0.1,0.4c0.7-1.9,1.5-3.2,2.4-3.4
						c-0.4,1.2,0,2,0.4,2.8c0.4,0.9,0.8,1.8,0.2,3.1c1.8-2.3,2.2-3.2,2.4-4.3c0.2-1.2,0.3-2.7,1.1-6.4l0.9,2.8
						c0.5-3,0.3-4.5,1.9-5.9c-0.5,1.6,0,2.6,0.5,3.8c0.5,1.2,1,2.5,0.4,4.5c1.3,1.3,2.5,1.5,3.3,1.1c0.8-0.4,1.5-1.3,2-2.1
						c1.1-1.6,1.7-2.9,4.6,1.8c-1.1-9.2-5.5-3.7-5-5.9c-0.9-1.3-0.9-3-0.7-4.4c0.3-1.4,0.8-2.3,1.6-2.1c0.6-0.1,1.9,2.6,3.4,5.2
						c1.4,2.6,2.8,5.2,3.6,4.8c-0.2,0,0,0.7-0.2,0.7c0.6,1,0.7,0.2,0.9-0.5c0.2-0.7,0.4-1.2,1.2,0.5c-0.4-2.8-0.1-2.8,0.1-3
						c0.2-0.2,0.3-0.5-0.3-4c-0.5,0.7-1,1.4-1.4,2.1c0.3-1,0.2-3.6,0.5-5.6c0.3-1.9,1-3.1,2.2-1.3c0,1.4-0.3,3.3-0.4,4.5
						c0.8,1.9,0.8-1.6,1.6,0.4c0.3,3.5-0.1,4-0.7,4.3c-0.5,0.4-1.3,0.5-1.1,3.3c0.5,1.4,0.6,0,0.8-0.8c0.2-0.8,0.4-1,0.8,2.9
						c-0.5-4.9,0-4.7,0.5-4.3c0.3,0.2,0.6,0.5,0.8,0.2c0,0,0-0.1,0-0.1c0,0,0,0,0-0.1l0,0l0-0.3c-0.1-0.9-0.1-1.9-0.2-2.8
						c0-0.6-0.1-1.2-0.1-1.9c0-0.5-0.1-1-0.1-1.6c0-0.4,0-0.9,0-1.3c0-0.7,0-1.4,0-1.9l0,0.6c0-0.4,0-0.8,0-1.3c0-0.4,0-0.9,0.1-1.3
						c0.1-0.8,0.2-1.5,0.3-1.9c-0.1,0.5-0.3,1.3-0.3,2.4c0.1-1.3,0.2-2.1,0.4-2.6c0.1-0.5,0.3-0.7,0.3-0.8c0,0-0.2,0.3-0.7,0.6
						c-0.4,0.3-1.1,0.7-2.1,1.2c1-0.5,1.5-0.8,1.8-1.1c0.3-0.2,0.5-0.4,0.6-0.5c0.2-0.2,0.2-0.2,0.2-0.2c0,0,0,0-0.1,0.1
						c0,0,0.1-0.1,0.2-0.2c-0.1,0.2-0.5,0.6-1,0.9c-0.5,0.3-1.1,0.7-1.7,1c-1.3,0.6-2.5,1.1-4.4,1.7c-0.6,0.2-1.1,0.4-1.7,0.6
						c-0.8,0.2-1.6,0.5-2.5,0.8c-0.6,0.2-1.1,0.3-1.7,0.5c-0.9,0.3-1.8,0.5-2.8,0.8l-0.1,0l-0.1,0l-0.2,0.1
						c-0.2,0.1-0.5,0.2-0.8,0.3c-0.9,0.3-1.2,0.4-0.4,0.4c-0.4,0,0-0.1,0.7-0.3c0.7-0.2,1.8-0.5,2.7-0.6c-0.5,0.3-1.5,0.8-3.2,1.1
						c0.9,0.1,1.8,0.1,2.7-0.1c1-0.2,2.1-0.5,3.4-0.4c-2,0.4-1.4,0.4-0.2,0.5c1.2,0.1,3.2,0.2,4,0.6l-3.5,0.1
						c-0.3,0.4,0,0.6,0.6,0.8c0.6,0.2,1.5,0.3,2.3,0.4c1.7,0.2,3.3,0.4,2.3,1.3c-1.5-0.4-3.1-0.8-4.8-1.1c0.5,0.3,1,0.6,1.5,1
						l-3.7-0.5c1.6,0.6,2.2,1,2.4,1.4c0.1,0.4-0.1,0.7-0.4,1.2c2,0.1,5.3,1.1,5.5,2.3c-1.6,0.5-2.7-1-2.1,0.7
						c-1.7-0.8-4-1.6-1.6-1.8c-0.9-0.3-1.9-0.7-2.8-0.9c-1.7,0.4,0.2,1.9,0.3,2.6c0-0.2,0.1-0.5,0.5-0.5c1.4,1.1,2.7,2.2,3.8,3.4
						c-0.9,0.2-1.6-0.4-2.4-0.9c0.3,0.6,1.5,1.3,1.7,2.1c-1.9-0.8-3.8-1.3-5-2.6c0.9,1,1.7,2.1,2.5,3.2c-0.8-0.1-2,0.7-2.7,0.2
						c-0.4,0.6,0.6,1.8,1.3,3c0.8,1.2,1.4,2.5,0.8,3.4c0.3,0.2,0.6,0.5,0.7,1c-0.2,0.9-0.8,1.7-1.1,2.6c-0.3,0.9-0.3,2,0.5,3.5
						c-0.8,0.2-1.6,0.5-2.4,0.8c0.2,1.1,0.9,0.7,1.7,0.6c0.8-0.1,1.6,0,1.8,1.6c0.4,2.4-2,0.4-2.7,1.1c1,1.5,3,3.7,1.1,5.7
						C64.6,148.4,65,147.9,64.9,147.2z M85,160.8c-0.1,0.6-0.1,1.9-1.1,1.4C83,160.6,83.9,161,85,160.8z M103.8,134.2
						c0.7,0.9-0.1,0.8-1.4,0.3C102.4,134.1,102.8,134,103.8,134.2z M142.8,127.1c0,0.1-0.1,0.2-0.1,0.3
						C143.4,125.5,143.1,126.3,142.8,127.1z M142.4,128.9c0.3-0.7,0.6-1.4,0.9-2.1c-0.5,1.3-0.7,1.5-0.6,1.2
						C142.1,129.4,141.8,130.2,142.4,128.9z M60.7,87.8l0.8,1C60.7,90.3,60.7,89.1,60.7,87.8z"/>
					<path class="st0" d="M105,139.2c-0.5-0.3-1-0.6-1.5-1C103.8,138.7,104.3,139,105,139.2z"/>
					<path class="st0" d="M65.3,132.3C65.3,132.3,65.3,132.2,65.3,132.3c-0.1-0.1-0.2-0.2-0.3-0.2L65.3,132.3z"/>
					<path class="st0" d="M99.6,196.3c0.8-2.1,1.9-4.2,2.9-6.3C101.1,192.4,100,194.6,99.6,196.3z"/>
					<path class="st0" d="M147.3,118.6l-0.6,1.7l-0.3,0.7c0.1-0.2,0,0.1-0.1,0.5c0-0.1,0.1-0.1,0.1-0.2
						C146.7,120.4,146.9,119.8,147.3,118.6z"/>
					<path class="st0" d="M146.5,143.8c0.5,0,0.2,0.3,0.7,0.4l1.7-0.6C148.6,142.9,147,142.9,146.5,143.8z"/>
					<path class="st0" d="M144,130.1c-1.1,3.6-0.3,1.9,0.3,0.8c0,0-0.1,0.1-0.1,0.1C145.7,126,144.8,128,144,130.1z"/>
					<path class="st0" d="M144.4,130.8c0.2-0.3,0.4-0.5,0.5-0.4C145.4,128.4,144.8,130,144.4,130.8z"/>
					<path class="st0" d="M144,125.7c-0.3,0.9,2-5.1,1.4-3.5c1-2.5,0.3-1-0.5,0.9C144.1,125,143.2,127.2,144,125.7z"/>
					<path class="st0" d="M140.8,141.6l1.1-4.2l-1.4,4C140.7,141.4,140.7,141.5,140.8,141.6z"/>
					<path class="st0" d="M137.9,143.5c0.1,0.1,0.2,0.2,0.3,0.3c0.2-0.7,0.5-1.3,0.7-1.7C138.5,142.5,138.3,142.2,137.9,143.5z"/>
					<path class="st0" d="M138.9,142.1c0.2-0.2,0.5-0.6,0.8-1.4C139.6,140.8,139.3,141.3,138.9,142.1z"/>
					<polygon class="st0" points="137.5,150.1 138.7,145.5 138.8,145.4 138.7,144.5 137.8,148.4 					"/>
					<path class="st0" d="M130.3,152.5l-1.7,2.9c-1.1,2.4-1.5,3.4-0.8,2.1C128.8,155.6,129.4,154.4,130.3,152.5z"/>
					<path class="st0" d="M118.4,186.5c1.2-3.6,2.6-7.5,4.6-13.1l-8.1,21.4L118.4,186.5z"/>
					<path class="st0" d="M114.3,191.3c-1.1,2.7-3,6.5-4.3,9.4c-1.4,2.9-2.3,5-1.6,4.8c1.1-2.6,2.3-4.9,3.4-7.3
						C112.9,195.9,113.8,193.6,114.3,191.3z"/>
					<polygon class="st0" points="119.4,159.5 119.5,159.8 128.1,145.4 					"/>
					<path class="st0" d="M92.4,161.4c-2.7,6.5,6.7-5.5,3.4,1.1c2.6-1.8,2.7-5.4,4.9-6.6C98,156.4,99.6,153.7,92.4,161.4z"/>
					<path class="st0" d="M100.8,155.8c0.4-0.1,1-0.3,1.7-0.6C101.8,155.3,101.2,155.6,100.8,155.8z"/>
					<path class="st0" d="M22.9,94c-0.3,0.3-0.6,0.5-0.8,0.9c0.2-0.1,0.4-0.2,0.7-0.3L22.9,94z"/>
					<path class="st0" d="M22.1,97.1c-0.2-0.2-0.4-0.3-0.5-0.4c0,0.4-0.1,0.9-0.1,1.2C21.6,97.6,21.9,97.1,22.1,97.1z"/>
					<path class="st0" d="M91.6,161.6l-0.4-0.4c-0.7-0.3-1-0.1-1.6,0.2L91.6,161.6z"/>
					<path class="st0" d="M63.2,158.3l0,0.4c0.6-0.3,1.2-0.6,1.7-0.8L63.2,158.3z"/>
					<path class="st0" d="M61.4,141.7c-0.1,0.6,0.2,1.4,0.1,2.1C61.3,142.3,63.7,142.1,61.4,141.7z"/>
				</g>
			</g>
		</g>
	</g>
	<g>
		<path class="st1" d="M172.3,198.4H26.5c-8.9,0-16.2-7-16.2-15.6v-32.4c0-2.3,1.6-3.9,4.1-3.9c2,0,4.1,1.5,4.1,3.9v32.4
			c0,4.3,3.6,7.8,8.1,7.8h145.8c4.4,0,8.1-3.5,8.1-7.8V152c0-2.3,1.6-3.9,4.1-3.9s4.1,1.5,4.1,3.9v30.8
			C188.5,191.4,181.2,198.4,172.3,198.4z M184.1,123.1c-2.4,0-4.1-1.5-4.1-3.9V86.4c0-4.3-3.6-7.8-8.1-7.8H26.1
			c-4.4,0-8.1,3.5-8.1,7.8V118c0,2-2,3.9-4.1,3.9c-2.4,0-4.1-2-4.1-3.9V86.4c0-8.6,7.3-15.6,16.2-15.6h145.8c8.9,0,16.2,7,16.2,15.6
			v32.8C188.1,121.1,186.5,123.1,184.1,123.1z"/>
		<path class="st1" d="M184.1,155.8c-11.7,0-21.1-9-21.1-20.3s9.3-20.3,21.1-20.3v7.8c-7.3,0-13,5.5-13,12.5s5.7,12.5,13,12.5V155.8
			z M15.1,154.3l-1.6-7.8c6-1.2,13.3-6.7,13.3-12.1c0-5.9-4.4-10.9-10.5-12.1l1.6-7.8c9.7,2,17,10.2,17,19.9
			C34.6,144.6,24.8,152.3,15.1,154.3z"/>
		<path class="st1" d="M16.4,122.2c-0.8,0-1.6-0.4-2.4-0.4v-7.8c1.6,0,2.8,0,4.1,0.4C18,114.5,16.4,122.2,16.4,122.2z M137.1,96.1
			c0,2-1.6,3.9-4.1,3.9s-4.1-2-4.1-3.9V77.1c0-2.3,1.6-3.9,4.1-3.9s4.1,1.5,4.1,3.9V96.1z M137.1,129.7c0,2.3-1.6,3.9-4.1,3.9
			s-4.1-1.5-4.1-3.9v-19.2c0-2,1.6-3.9,4.1-3.9s4.1,2,4.1,3.9V129.7z M137.1,164c0,2-1.6,3.9-4.1,3.9s-4.1-1.5-4.1-3.9v-19.1
			c0-2.3,1.6-3.9,4.1-3.9s4.1,1.5,4.1,3.9V164z M137.5,194.1c0,2.3-1.6,3.9-4.1,3.9c-2,0-4.1-1.5-4.1-3.9v-14.9c0-2,1.6-3.9,4.1-3.9
			c2,0,4.1,2,4.1,3.9V194.1z M106.7,104.3H48.8c-2,0-4.1,1.5-4.1,3.9s2,3.9,4.1,3.9h57.5c2.4,0,4.1-1.5,4.1-3.9
			S108.7,104.3,106.7,104.3L106.7,104.3z M105.9,132.4H48.3c-2,0-4.1,1.5-4.1,3.9c0,2,2,3.9,4.1,3.9h57.5c2,0,4.1-2,4.1-3.9
			C109.9,133.9,108.3,132.4,105.9,132.4z M107.5,158.6H50c-2.4,0-4.1,2-4.1,3.9c0,2.3,1.6,3.9,4.1,3.9h57.5c2.4,0,4.1-1.5,4.1-3.9
			C111.5,160.5,109.9,158.6,107.5,158.6z"/>
	</g>
</g>
</svg>
