<?xml version="1.0" encoding="utf-8"?>
<!-- Generator: Adobe Illustrator 24.0.2, SVG Export Plug-In . SVG Version: 6.00 Build 0)  -->
<svg version="1.1" id="Layer_1" xmlns="http://www.w3.org/2000/svg" xmlns:xlink="http://www.w3.org/1999/xlink" x="0px" y="0px"
	 viewBox="0 0 198.4 198.4" style="enable-background:new 0 0 198.4 198.4;" xml:space="preserve">
<style type="text/css">
	.st0{fill:#85D5ED;}
	.st1{fill:#A7E9DC;}
	.st2{fill:none;stroke:#646565;stroke-width:8;stroke-miterlimit:10;}
</style>
<g>
	<g>
		<g>
			<g>
				<g>
					<path class="st0" d="M53.5,170.2c-0.4,0,0.1,0.2,0.1,0.3C54.2,170.5,53.3,170.2,53.5,170.2z"/>
					<path class="st0" d="M56.6,168.2l0.4,0.3c-0.1-0.3-0.3-0.6-0.5-0.9C56.5,167.8,56.6,168,56.6,168.2z"/>
					<path class="st0" d="M60.1,166.3c-1.5-0.6-1.7-0.4-1.7,0c0,0.4,0.1,0.9-0.6,0.8l-0.6-0.2l1.5,1.1c0.3-0.3,0.4-0.7,0.5-1.1
						C59.3,166.6,59.5,166.3,60.1,166.3z"/>
					<path class="st0" d="M68.9,168.6c-1.4-0.6-0.5-0.7-1,0c0.2,0,0.3,0.1,0.4,0.1C68.3,168.7,68.5,168.6,68.9,168.6z"/>
					<path class="st0" d="M68.3,168.7C67.8,169,69.6,169.1,68.3,168.7L68.3,168.7z"/>
					<path class="st0" d="M69.9,167.4c0.2,0.3,0.4,0.6,0.5,0.9c0.9,0.3,1.8,0.1,2.1,0.5C72.7,168.1,71.6,167.8,69.9,167.4z"/>
					<path class="st0" d="M67.9,165.8l0.2,0.4C68.5,166.4,68.7,166.4,67.9,165.8z"/>
					<path class="st0" d="M68.5,167.2c-0.1-0.3-0.3-0.6-0.4-0.9c-0.7-0.2-1.8-0.8,0.1,0.4C67.2,166.1,68.1,166.7,68.5,167.2z"/>
					<path class="st0" d="M67.6,167.1c-1.1-0.2-1.9-0.2-2.5-1.1C64.5,166.8,66.8,167.9,67.6,167.1z"/>
					<path class="st0" d="M57.4,164.7l-1-0.2l0.7,0.7C56.7,164.9,58.3,165.1,57.4,164.7z"/>
					<path class="st0" d="M76.1,165.9c-0.9-0.4-2.6-0.8-3.8-1.2l0.6,0.7C73.7,165.5,74.7,165.4,76.1,165.9z"/>
					<path class="st0" d="M72.3,164.7c-0.3-0.4-0.6-0.7-0.9-1.1C70.6,163.9,71.3,164.3,72.3,164.7z"/>
					<path class="st0" d="M63.9,163.9c0.7,0.6,1.3,1.3,1.9,1.9c-0.5-0.7-1.1-1.4-1.8-2.1L63.9,163.9z"/>
					<path class="st0" d="M79,163.8l1.9,1.1c-0.9-0.6-1.8-1.2-2.8-1.8L79,163.8z"/>
					<path class="st0" d="M80.3,162c1.7,0.9,3.9,0.6,4.9,1.3c0.2-0.6-1.2-1.6-2.5-2.4C83.2,161.6,82.6,162,80.3,162z"/>
					<path class="st0" d="M80.8,159.6c0.4,0.4,1.1,0.8,1.9,1.3C82.4,160.5,81.8,160.1,80.8,159.6z"/>
					<path class="st0" d="M72.8,162.8c0.6,0.2,2.3,0.6,3.3,0.6l-3-0.8C73,162.7,72.9,162.8,72.8,162.8z"/>
					<path class="st0" d="M73,162.6L73,162.6c0.4-0.2,0.6-0.3,0.7-0.4C73.6,162.3,73.4,162.4,73,162.6z"/>
					<path class="st0" d="M72.7,162.9C72.8,162.9,72.8,162.9,72.7,162.9C72.5,162.8,72.4,162.8,72.7,162.9z"/>
					<path class="st0" d="M67.3,163.7c-1-0.8-2-2-4.6-2.3C64.2,162.3,65.7,162.5,67.3,163.7z"/>
					<path class="st0" d="M69.1,161.9l-1.1,0.3c0.7,0.3,1.8,0.6,2.4,1C69.9,162.8,69.5,162.3,69.1,161.9z"/>
					<polygon class="st0" points="68.5,161.3 69.1,161.9 69.5,161.8 					"/>
					<path class="st0" d="M76.8,160.1c-1.1-0.7-1-1-0.9-1.5c-0.9,0.3-1.5,0.6-1.8,1C74.9,159.9,76.5,160.6,76.8,160.1z"/>
					<path class="st0" d="M74.7,161.4c0,0-0.1-0.1-0.1-0.1C74.3,161.2,74.2,161.2,74.7,161.4z"/>
					<path class="st0" d="M78.4,154.2c-0.2,0-0.5,0-0.7,0C77.9,154.2,78.1,154.3,78.4,154.2L78.4,154.2z"/>
					<path class="st0" d="M73.4,159.5c-0.8,0.1-0.2,0.5,0.6,0.9c-0.1-0.3-0.1-0.6,0-0.8C73.6,159.5,73.3,159.4,73.4,159.5z"/>
					<path class="st0" d="M80.1,158c-0.8,0-1.6,0.1-2.2,0.2C79,158.2,80.9,158.2,80.1,158z"/>
					<path class="st0" d="M75.5,161.4C75.5,161.4,75.5,161.5,75.5,161.4C76.3,161.6,75.9,161.5,75.5,161.4z"/>
					<path class="st0" d="M75.5,161.4c-0.3-0.3-0.9-0.6-1.5-0.9c0.1,0.2,0.3,0.5,0.6,0.8C74.8,161.3,75.1,161.3,75.5,161.4z"/>
					<path class="st0" d="M55.5,150.5c1.7,0.2,3.3,0.5,4,0.8c0.7,0.3,0.5,0.6-1.3,0.6c2.4,0.8,13,2.3,19.4,2.3
						c-1.4-0.2-2.7-0.4-4.4-1.5c-1,0.1-2.2,0.4-3.5,0.5c-1.3,0.1-2.7,0.1-4.1-0.4c-1.4-1.1,1.4-0.5,3.3-0.8c-2.2,0-3.6-0.5-5.3-0.9
						c-1.7-0.4-3.8-0.8-7-0.9c0.7,0.2,1.5,0.5,2.2,0.7C57.9,150.8,56.4,150.5,55.5,150.5z"/>
					<path class="st0" d="M76.6,155.8l0.2,0.4c0.8-0.3,2.2-0.4,5-0.6c-1.2-0.9-2.4-1.2-3.5-1.4c-0.4,0.6-0.9,1.2-1.3,1.7L76.6,155.8
						z"/>
					<path class="st0" d="M75.9,157.7c-3.1-1-4.2-2-8.1-2.3c-0.1,0.8,2.5,1.2,3.6,2c0-0.8,0.4-0.6,1.1-0.2c0.7,0.3,1.7,0.8,3,0.5
						c0.4,0.4,0.4,0.7,0.3,1c0.6-0.2,1.2-0.3,2-0.4c-0.1,0-0.1,0-0.2,0l0,0c0,0,0,0-0.1,0c-0.5,0-0.7-0.1-0.4-0.1c0,0,0,0,0,0
						C76.7,157.9,76.3,157.8,75.9,157.7c1-0.3,0.9,0.1,1.2,0.4c0.2,0,0.3,0.1,0.5,0.1c0,0,0,0,0,0c-0.3-0.7-0.5-1.3-0.9-1.9
						C76.1,156.5,76,156.9,75.9,157.7z"/>
					<path class="st0" d="M57.6,158.7c0.2,0.1,0.4,0.1,0.6,0.2C57.9,158.7,57.7,158.6,57.6,158.7z"/>
					<path class="st0" d="M59.4,159c0.3,0.2,1.3,0.7,0.9,0.8c-0.9-0.1-1.2-0.5-2.1-0.8c0.6,0.4,1.5,1.2,3.1,1.3l-0.3-0.2
						c1.1,0,4.9,0.7,5.2,0.9C63.6,160.2,61.8,159.6,59.4,159z"/>
					<path class="st0" d="M66.2,158.5c-0.3-0.5-0.6-0.9-0.9-1.4l-2.9-0.3l1.6,0.4C63.1,157.6,65.1,158.1,66.2,158.5z"/>
					<path class="st0" d="M80.3,154.2l3.7,0.7c-1.6-0.6-3.3-1.1-5-1.6L80.3,154.2z"/>
					<path class="st0" d="M80.6,152.1l3.4,0.3c-0.6-0.3-1.2-0.5-1.9-0.8L80.6,152.1z"/>
					<path class="st0" d="M46.4,97.2l-0.1-0.3C46.3,97,46.3,97.1,46.4,97.2z"/>
					<path class="st0" d="M45.2,98.2l0.5,0.4C45.5,98.3,45.3,98.2,45.2,98.2z"/>
					<path class="st0" d="M64.2,112.4c0.3-0.3,0.7-0.6,1.1-1l0.3-0.2c0,0,0,0,0,0l0,0c-0.1,0-0.1,0.1-0.1,0.1
						c-0.1,0.1-0.1,0-0.1,0.1l0,0l0,0l-0.8,0.7C65.2,111.5,64.9,111.8,64.2,112.4z"/>
					<path class="st0" d="M41.5,112.9c-0.3-0.1-0.6-0.3-0.8-0.4c0.8,0.6,1.6,1.2,2.3,1.7C42.5,113.8,42,113.3,41.5,112.9z"/>
					<path class="st0" d="M31.5,105.9c0.8,0.1,1.5,0.3,2.3,0.5C33.1,106.1,32.3,105.9,31.5,105.9z"/>
					<path class="st0" d="M47.4,93.1c-0.5,0-1,0-1.5,0C45.9,93.1,46.6,93.1,47.4,93.1z"/>
					<path class="st0" d="M76.8,126.5c1.2-1.6,1.5-2.5,1.4-3.1C76.5,125.7,73.6,128.4,76.8,126.5z"/>
					<path class="st0" d="M57.7,105.8c-0.1-0.3-0.3-0.5-0.6-0.7C57.3,105.4,57.4,105.6,57.7,105.8z"/>
					<path class="st0" d="M77.2,121.8c-0.3,0.4-0.4,0.6-0.7,1c0.9-0.1,1.6,0,1.7,0.7C79.5,121.7,80.1,120.4,77.2,121.8z"/>
					<path class="st0" d="M44.7,85.6c0-0.1,0-0.2,0-0.3C44.7,85.7,44.7,85.7,44.7,85.6z"/>
					<path class="st0" d="M35.7,67.9c0.1-0.2,0.2-0.4,0.4-0.6C35.9,67.3,35.8,67.5,35.7,67.9z"/>
					<path class="st0" d="M84.1,141.8C84.4,142.3,84.6,141.8,84.1,141.8L84.1,141.8z"/>
					<path class="st0" d="M68,146.3c-0.5,0-1,0-2,0.1C67,146.3,67.6,146.3,68,146.3z"/>
					<path class="st0" d="M53.2,137.6C53.2,137.6,53.2,137.6,53.2,137.6C52.5,138.3,52.7,138.2,53.2,137.6z"/>
					<path class="st0" d="M82.2,143c0.5-0.3,0.9-0.6,1.2-0.9C83.1,142.2,82.7,142.5,82.2,143z"/>
					<path class="st0" d="M84.2,142.6c-0.2,0.2-0.3,0.4-0.4,0.6C84.4,143.1,84.8,143,84.2,142.6z"/>
					<path class="st0" d="M83.9,141c0.1,0.3-0.1,0.7-0.4,1c0.3-0.2,0.5-0.3,0.6-0.2C84,141.6,84,141.4,83.9,141z"/>
					<path class="st0" d="M55.7,83.3c0.1-0.1,0.1-0.1,0.2-0.2C55.1,83.7,55.2,83.6,55.7,83.3z"/>
					<path class="st0" d="M25.6,133.4c0,0,0.1,0,0.2,0c0,0,0.1-0.1,0.1-0.1L25.6,133.4z"/>
					<path class="st0" d="M22.4,133.1c4.7-1.4,4.3-0.9,3.5,0.1c3.4-2,6.8-3.9,10.2-5.8C31.5,129.5,27,131.4,22.4,133.1z"/>
					<path class="st0" d="M47.6,94.8c-0.4-0.1-0.8-0.2-1.2-0.3c-1.7-1-1.1-0.6-2.6-1.3c1.9,0.8,1.9,0.9,2,1.1c0,0.1,0.1,0.1,0.3,0.4
						c0.2,0.3,0.5,0.7,1.4,1.3l-0.9-0.2c0.1-0.1-0.1-0.2,0-0.3c-2-0.5,2.2,2,1.2,2.3c-0.4,0.1-1.1-0.1-1.4-0.6l0.4,1
						c-0.2,0.1-0.8-0.4-0.6-0.4c-0.1,0.3-0.3,0.6-0.5,0.9l-0.1-0.1c0.4,0.5,1,1.3,1.3,1.7c-0.7-0.2-0.3-0.4-0.8-0.7l0.4,1
						c-1.1-0.6-1.6-1.5-1.2-1.7c-2-1.2-1.9-1-1.6-0.6c0.2,0.4,0.7,1-0.9,0.4l0-0.6c-2.4-1.5-2-0.8-4-1.9c0.4,0.3,1.6,1,2.7,1.6
						c1.1,0.7,2,1.3,2.2,1.8c-0.4-0.2-0.8-0.2-0.3,0.6c-1.4-1.1-1.3-0.8-1.7-0.6L40,98.1c0.1,0.5,1.1,1.4,1.7,2.2
						c-0.7,0-2.3-1.5-3.7-2.7c-0.6-0.2,0.2,0.4,1,1.1c0.8,0.7,1.7,1.4,1.4,1.6c-1.4-0.7-1.1,0-0.8,1.6c-1.3-0.7-1.2-1.4-2.1-2
						l1.2,1.9c-0.2,0-0.7-0.6-0.9-0.9c0.3,0.8,2.2,2.3,2.2,3.2c1.2,1.4,0,0.5-1.4-0.3c-1.4-0.8-3-1.5-1.8,0.3
						c-1-0.6-1.6-1.6-2.7-2.6c0.4,1.4,0.5,1.9,0.8,2.5c0.3,0.6,0.7,1.3,1.9,3.1c-1-0.4-2-0.7-3.1-1c1.7,0.6,2.9,1.7,4.2,2.9
						c1.2,1.2,2.4,2.5,3.6,3.6c1.5,0.7,2.6,1.4,3.2,1.7c0.5,0.7,1.1,1.3,1.8,1.8c-0.6-0.3-2-1.1-3.5-2.2c0.3,0.2,0.6,0.5,0.9,0.7
						c-1.5-0.6-3.8-1.9-5.8-3.5c0.9,0.3,1.7,0.7,2.6,1.1c-2.1-1.6-4.3-3.5-6.4-4.9c0.3,0.4,0.5,0.7,0.6,1c-0.5-0.5-1-0.9-1.4-1.1
						c-0.4-0.2,0.2,0.4,1,1.2c-1.5-0.8-3-1.5-4.6-2.3l1.6,1.1c-1.5,0.1-3.1,0.3-4.7,0.8c1.7,2,4.5,4,7,5.5c2.6,1.6,5,2.7,6.2,3.5
						c-2.1-0.4-3.8-0.6-5.6-0.8c-1.8-0.2-3.8-0.2-6.3-0.5c2.8-0.2,2.3-0.7,1.5-1.5c-0.8-0.8-2-2-1.1-2.6c-0.9,0.6-3-0.1-3.7-0.5
						c1,1.5,2.1,2.8,3.4,4c-4-0.6-3.2,0.2-5.2,1c4.2,0,5.3,0.7,5.9,1.4c0.6,0.7,0.4,1.6,1.7,2c-1.4,0.1-2.9,0.2-3.8,0
						c-1-0.2-1.5-0.6-1-1.4c-1.6,0.4-1.9,0.8-1.4,1.1c0.5,0.3,1.8,0.5,3.1,0.6c2.6,0.3,5.3,0.3,2.6,1.3c-0.1-0.3,0.4-0.5-1.1-0.4
						c1.3,0.2,1.4,0.7,1,1.3c-0.5,0.5-1.6,1.1-2.8,1.2l-0.1-0.3c-0.2,0.6-0.3,1.3-0.1,2c0.2,0.7,0.6,1.4,1.2,1.8
						c1.3,0.9,3.6,0.9,7.2-0.6c-0.9,0.4-8.7,3.6-10.2,4.1c8.4-2.3,16.6-5.6,24.7-9.7c-3,1.6-8.1,4.5-12.8,7.2
						c-4.7,2.7-9.2,5.1-11.2,5.3c-0.7,0.9-1.5,2.1,1,1.7c0.7-0.8,8.3-5.7,9-5.7c-3.1,2.3-3.9,3.1-4.6,3.7c-0.7,0.7-1.2,1.2-3.7,3.7
						c0.5-0.6,3.2-2.3,5.6-3.8c2.5-1.5,4.8-2.8,4.8-2.5c-1.4,0.9-9,6.3-10,6.7c3.2-1.5,6.5-3.2,9.6-5c-1.8,0.9-7.5,5.4-9.8,7.7
						c1.6-1.5,0.6,1.4,1.7,1.1c0.5-0.8,1.1-1.5,1.6-2.2c-0.2,1.3,3.1-0.8,6.4-3.2c3.3-2.4,6.7-5,6.8-4.4
						c-1.8,1.6-10.9,9.5-11.4,11.2c2.2-1.9,7.6-6.4,12.8-11.1c5.2-4.6,10.2-9.3,12.1-10.8l-2.2,2.6l3.2-2.5
						c-3.3,3.2-8.4,8.1-13.4,12.7c-5,4.6-10,8.7-12.9,10.9c-1.6,2.3-2.7,2.9-2,3.4c-2,2.5-3.7,3-4,2.9c-0.1,1.1-0.1,2.2-0.2,3.2
						c2.4-2.6,3.8-3.5,5.1-4.4c1.3-0.9,2.5-1.7,4.5-3.9c-2,1.4-4.1,2.6-6.2,3.7c2.4-2.5,6-5.9,9-8.4c3-2.5,5.3-4.3,5.3-3.5
						c-1.7,2.3-8.7,9.1-10.3,10.8c1.8-1.6,3.8-2.6,2.7-1.3l-2.9,2.5c-1.5,2.4,7-6.2,2.8-0.7c-0.1,0.5-5.9,7.3-3,4.2
						c5.4-6.2,22.6-24.9,27-29.3c-0.3,0.5-4.4,6.6-7,9.8c-2.1,2.5-4.9,5.1-7.5,7.8c-2.7,2.6-5.2,5.2-7.1,7.3
						c1.4-1.4,3.2-3.1,3.8-3.6c-1,1.4-4.3,4.4-3.4,4c5.2-5.2,0.1,1,4.5-4.3c1.7-1.2-0.7,1.4-0.2,1.4c1.6-1.7,4.6-4.5,7.4-6.9
						c2.8-2.4,5.5-4.5,6.4-5c-1.4,1.2-3.1,3-3.9,3.8c0.2,1.2-2,3.7-1.6,4.3c-1.3,1.1-2.9,2.6-5.4,4.3c1.1-0.7,3.1-2.1,3.4-2
						c-4.9,3.7-1,0.3-7,4.7c3.4-2.4,5-3.1,7.3-4.2c2.7-1.7,2.8-2,2-1.7c-0.8,0.3-2.6,1.2-3.7,1.9c3.6-2.6,7.4-5.1,10.9-7
						c3.5-1.9,6.6-3.1,8.7-3.3c2.5,0.3-4.7,3.3-3.5,2.9c-0.2,1.4,3.3,0.2,6.4-0.5c3.1-0.7,5.6-1,3,1.4c-2.4,1.4-4.9,2.2-7.3,2.9
						c-2.4,0.7-4.6,1.3-6.4,2c-1.1,0-0.4-0.6,0.6-1.2c0.9-0.7,2-1.4,1.8-1.7c-0.7,0.6-1.4,1.1-2.1,1.7c-1.7,0.4-3.2,0.6-1.9-0.3
						c-2.1,1.3-2.1,1.9-2,2.6c0.1,0.7,0.1,1.5-1.8,2.4c1.8-0.2,3.6-0.1,5.6-0.7l-0.8-0.3c2-0.6,3.5-0.7,4.6-0.7c1.2,0,2.1,0.1,3-0.5
						c1.5,0.1,3.3,0.3,4.5,0.7c1.2,0.4,1.7,1,0.5,1.7c-1.9,0.2-3.8,0.4-5.7,0.6c1.7-0.1,3.4-1,1.7-1.1c1.3,0.1-0.7,0.8-2,1.2
						c-1.3,0.5-2,0.8,1.6,1c1.3-0.3,2.6-0.6,4-0.9c1.4,0.4,3.4,0.8,4.9,1.4c1.5,0.6,2.3,1.3,1.3,1.9c2.7-0.2,2.6-0.3,2.6-0.4
						c0-0.1,0.1-0.2,3.4-0.7c-4,0.4-3.7-0.5-3.5-1.3c0.2-0.8,0.3-1.6-4-0.7c3.8-0.6,4.7-1.1,5.4-1.7c0.7-0.6,1.3-1.2,4.6-2.4
						c-1.9,0.3-3.6,1-2.6-0.5c-0.5,0-1.2,0-1.7-0.1c0.1,0,0.1-0.1,0.1-0.1c-0.1,0-0.1,0.1-0.2,0.1c-0.3,0-0.3,0-0.1,0
						c-0.8,0.4-1.9,0.8-2.9,1c-2.2,0-3.2-0.4-4-0.9c-0.8-0.4-1.4-0.9-2.6-0.9c0.9-0.8,2.2-0.2,4.2-1c-1.2-0.1-2.3-0.1-3.5-0.1
						c2.1-0.6,3.8-1.5,5.3-2.2c1.5-0.7,2.8-1.1,4.2-0.5c0-0.6,0-1.2,0-1.8c2.2-1.7,2.9-3.7,0.9-4c0.7-1.3-5.2-0.1-1.7-0.8
						c-1.1-0.5-2.3-1-3.4-1.4l1-0.6c-0.1-0.7-0.7-1.1-1.5-1.4c-0.7-0.3-1.6-0.5-2.3-0.8c-0.7-0.3-1.1-0.7-1.1-1.4
						c0-0.4,0.2-0.9,0.5-1.5c0.3-0.6,0.8-1.3,1.5-2.3c-0.7,0-1.4,0.1-1.9,0c-0.5-0.1-0.8-0.5-0.6-1.4l3-2.9c-0.8,0.1-0.4-1.1-0.3-2
						c0.1-0.9,0-1.6-1.7-0.2c1.9-2.1,2.8-3.4,3.1-4.3c0.1-0.4,0.1-0.8,0-1c-0.1-0.2-0.3-0.3-0.6-0.4c-1.1-0.3-2.9,0.3-2.7-0.8
						l-3.8,3.9c-0.2-0.4-0.6-0.3-1.3-0.1c-0.7,0.2-1.6,0.7-2.6,1.3l-3.2,3.5c-1.6,1.3-1.3,0.4-0.8-0.8c0.3-0.6,0.6-1.2,0.8-1.8
						c0.2-0.5,0.3-0.9,0-0.9c1.3-1.3,1.1-0.9,0.5,0c1.6-2.1,2-2.8,1.7-2.8c-0.3,0-1.2,0.7-2.1,1.4c-1,0.7-2,1.5-2.5,1.8
						c-0.5,0.3-0.5-0.1,0.8-1.4c-1.3,1.2-0.9,0.8-0.1,0c0,0,0.1-0.1,0.2-0.2c0,0,0,0,0,0c0.5-0.5,1.1-1.1,1.7-1.6
						c-0.8,0.7-1.4,1.3-1.7,1.6c-0.1,0.1-0.6,0.5-1.6,1.2l3.6-3.2c0,0-0.1,0.1-0.1,0.1c1.3-1.1-1.8,1.5-4.5,3.9
						c-0.8,0.6-1.6,1.2-2.4,1.8c2.9-2.5,2.4-2.1,1.8-1.7c-0.5,0.4-1,0.6,2.2-1.8c-3.2,2.4-2.8,1.9-9.7,6.4c0.9-0.6,1.3-0.9,1.4-0.9
						c0.7-0.6,1.3-1.2-0.7,0l4.9-3.1c-2.3,1.3-4.6,2.6-7,3.8c2.9-1.9,4.7-2.7,8.7-4.9c-3.1,1.7-3.7,1.9-4.3,2.2
						c-0.6,0.2-1.2,0.6-4.3,1.8l3.3-1.4c-0.1,0-1.3,0.5-2.1,0.8c-0.8,0.3-1.3,0.4,0.1-0.1c0.6-0.2,1.1-0.4,1.8-0.7
						c0.2-0.1,0.4-0.2,0.6-0.2c0.1,0,0.1,0,0.2-0.1l0,0l0,0l-0.1,0c-0.2,0.1-0.5,0.2-0.8,0.2c-0.3,0.1-0.5,0.1-0.9,0.2
						c-0.7,0.1-1.1,0.2-1.6,0.2c-0.3,0.1-0.8,0-0.9,0c0.1,0,0,0-0.1,0c-0.1,0-0.1,0-0.2,0c0,0,0,0,0,0c0,0-0.1,0,0,0
						c0,0-0.1,0-0.1,0c-0.1,0,0,0,0,0c0,0,0.1,0,0.1,0c0.1,0-0.2-0.1-0.1,0c0.1,0,0.2,0.1,0.3,0.1c0.1,0-0.1,0-0.2-0.1
						c0.3,0.1,0.7,0.3,0.8,0.4c0.1,0,0.1,0.1,0.2,0.1c0,0,0.1,0,0,0c-0.6-0.3-1.2-0.7-1.9-1c2.2,1.2,1.6,1-1.3-1.2
						c1.5,0.9,2.8,1.9,3.5,2.4c0.1,0,0.4,0.2,0.3,0c-0.1-0.2-0.5-0.8-1.9-2.1c0.7,0.6,0.2-0.1-0.1-0.5c0.3-0.4,0.5-0.2,0.5-1.1
						l-0.5-0.2c-1.5-1.6-1.5-1.9-1.3-1.9c0.2,0,0.8,0.3,0.8-0.1l0.3,0.3c1.3,0.5,1.1,0,1-0.3c-0.1-0.3-0.2-0.6,1.2-0.2l-1.6-1.5
						c-1.7-1.8-1-1.5,0-1.1c1,0.4,2.2,0.9,1.8-0.1l-1-0.5c-0.4-0.7,0.8,0.1,2.2,0.9c1.4,0.8,2.9,1.7,3.1,1.6
						c0.3,0.1,0.4,0.5,0.5,0.9c2.2,0.2-1.8-1.8-1.8-3.1c1,0.6,2.4,2.3,2.8,1.8c0.4,0.1-0.2-1-0.6-2c-0.5-1-0.7-1.9,0.4-1.7
						c-0.8-0.3-1.5-0.7-1.9-1.5c0.1-0.7,3.3,0.3,1.5-1.7c0.2,0.1,0.4,0.1,0.6,0.3c-0.3-0.8-0.2-1.9-1.1-2.9c1.1,0.6,1.6,0.6,1.8,0.4
						c0.2-0.2,0.1-0.6,0.1-1.2c0.2-0.9-0.1-1.8,2.3-0.8l0.3-0.4c0.1-0.1,0.3-0.3,0.4-0.4l0.8-0.8l0.5,0.2c0.2-0.1,0.4-0.2,0.5-0.3
						c0.2-0.1,0.2-0.2,0.4-0.3c0.3-0.2,0.4-0.4,0.4-0.6c0-0.4-0.6-0.7-1.2-1.1c0.9-0.1,1.4,0.2,1.7,0.3c0.6-0.1,1-0.2,1.5-0.4
						c0.5-0.2,0.9-0.3,1.3-0.4c0.8-0.3,1.2-0.5,1.5-0.8c0.2-0.3,0.2-0.5-0.1-0.8c-0.5-0.3-1.4-0.8-2.6-1.2l4-0.1
						c-0.9-0.3,1.1-0.9,3.3-2.1c1.1-0.6,2.2-1.3,2.8-1.9c0.4-0.6,0.2-1.2-0.9-1.6c0.5-0.1,1.3-0.2,1.9-0.1c-0.5-0.2-0.7-0.5-0.7-0.9
						c0.1-0.3,0.5-0.8,1.1-1.2c0.5-0.4,1.2-0.9,2-1.5c0.4-0.3,0.7-0.5,1.1-0.8l0.3-0.2l0.2-0.2l0.3-0.3c0.4-0.4,0.8-0.9,0.9-1.2
						c0.1-0.2,0.1-0.3,0-0.4c0-0.1-0.1-0.2-0.2-0.3c-0.6-0.3-2.5,0-6.6,1.2c-0.3,0-0.6,0-0.9,0l-1,0.1c-0.7,0-1.3,0.1-2,0.2
						c-0.7,1-2.5,1.6-4.5,2.2c-2,0.6-4,1.2-5.5,1.9c-0.4,0,1-0.8,2.5-1.6c1.5-0.8,3.2-1.5,3.5-1.4l-0.8,0.4c4.2-1.6,5.1-2.3,5.6-3.1
						c0.6-0.7,0.6-1.3,3.4-2.6c-0.2-0.7,0.1-1.7,0.5-2.7c0.3-1,0.6-2,1-3.1c0.3-1.1,0.8-2.3,0.9-3.4c0.1-1.1,0.1-2.1-0.2-2.9
						c-1.7,1.5-3.4,3-5.1,4.5l-0.1-1.2c1.1-1.3,3.9-3.7,4-2.8c1.4-1.4,0.6-1.2-0.7-0.6c-1.3,0.7-3,1.9-3.5,2.3
						c0.7-1.6,2.1-2.7,3.5-3.5c1.4-0.8,2.7-1.3,2.6-1.5l-0.8-0.3L76.7,64c-2.4,1.3-4.5,3.2-4.8,2.2c0.6-1.4,2.7-3.1,2.7-3.5
						c0.3-0.3,0.4-0.6-0.1-0.5c-0.2-0.6-0.5-1.1-0.7-1.6c-1,1.4-2.1,2.9-3.1,4.3c-2.2,1.4-0.7-1.2-4.3,3.6c0.3-0.5,0.6-0.9,0.9-1.3
						c0.2-0.4,0.4-0.7,0.6-1.1c0.3-0.7,0.5-1.2,0.5-1.7c0-0.5,0-0.9-0.2-1.2c-0.2-0.3-0.4-0.5-0.7-0.7c-0.5-0.4-1.2-0.6-1.6-0.9
						c-0.5-0.2-0.8-0.5-0.5-1.1c-0.7,0.7-1.3,1.2-1.8,1.5c-0.5,0.3-0.9,0.6-1.2,0.7c-0.7,0.2-1-0.1-1.4-0.4c-0.3,1-3,6.1-3.4,5.3
						c3-5.2,3.2-6.5,3.1-7.4c-0.1-1-0.7-1.3,0.7-5.5c-0.4,1.4-0.8,2.1-1.3,2.5c-0.4,0.4-0.8,0.5-1.3,0.8c-0.9,0.5-1.9,1.4-2.8,5.2
						c-0.4-0.9,1.6-4.1,2-6.8c-1,1.1-1.5,1.2-2.1,1.2c-0.6,0-1-0.4-1.5-0.9c-0.5-0.5-0.9-1.2-1.5-1.6c-0.6-0.3-1.3-0.4-2.1,0.2
						c-0.3,1.4-0.3,3.5-1.2,5.8c0-2.2-0.1-4.4-0.3-6.4c-0.4,0.5-0.7,2.5-1.1,3.9c-0.3,1.4-0.6,2-0.8,0c0,1,0,2.6-0.3,3.2
						c-0.5-0.6-1.1-0.7-1.6-0.6c-0.6,0-1.2,0.4-1.7,0.9c-0.6,0.6-1.1,0.6-1.7,0.9L41.7,63l-0.1,0l0,0l0,0.1l-0.1,0.4
						c0,0.2-0.1,0.2-0.1,0.2l-0.1,0.1c-0.2,0.2-0.4,0.4-0.6,0.6c-0.8,0.7-1.5,1.4-2.3,1.6c-0.4,0.1-0.8,0.2-1.2,0.1
						c-0.4,0-0.8-0.1-1.2-0.2c0.5,0.5,0.3,1,0,1.4c0.2,0,0.2,1.3,0.3,2c-0.5-0.3-1-0.5-1.4-0.5c0,0.9-0.3,1.3-0.6,1.7
						c-0.3,0.4-0.5,0.8-0.5,1.3c0.1-0.2,0.2-0.4,0.3-0.6c-0.1,0.9,0.1,1.3,0.5,2c0.4,0.7,0.8,1.8,0.9,2.8c0.2-0.7,0.7,0,1.3,1
						c0.3,0.5,0.6,1,0.8,1.3c0.3,0.2,0.5,0.1,0.6-0.8c0.3,0.8,0,1,0.2,1.8c0.1-1.2,0.3-1.5,1-0.4l0,0.4c0.8,0.3,1.4,0.9,2,1.9
						c0.3,0.5,0.6,1,1,1.6c0.2,0.3,0.4,0.7,0.5,0.9c0.1,0.1,0.1,0.1,0.2,0.3c0.1,0.1,0.1,0.2,0.2,0.3l-0.2-2.5
						c0.2,0.3,0.3,1.1,0.4,1.7c0.1-3.9-0.6-0.2-0.6-4.4c0.3,2.6,0.7,2.6,1,2.6c0.3,0.1,0.7,0.3,0.5,3.2c0.2,0,0.2-3,0.4-2.9
						l-0.1,1.6l0.3-2.1c0.2,0.3,0,2.3-0.2,3.7c0-0.2-0.1,0.4-0.2,0.5c0,0.9,0.1,0.8,0.2,0.5c0.2-0.3,0.3-0.8,0.3-0.5
						c0-0.3,0-0.7,0-1c0.5-0.8,0.8-0.6,1.2-0.7c0.4-0.1,0.8-0.4,1.9-2l0.4-1.2c0.8-1.1,0.8-0.8,0.8-0.3c-0.1,0.5-0.2,1.1,0.4,0.7
						l-0.2,0.3c0.7-1.2,1.3-1.8,1.4-1.6c-0.9,1.4-1.2,2.8-2.3,4.3c1-1.1,1.3-1.6,1.8-2.3c0.5-0.7,1.1-1.7,2.8-3.8l-1.1,2
						c1.3-1.7,2-2.6,2.8-2.9c-0.8,0.7-1.2,1.5-1.7,2.3c-0.5,0.8-1.1,1.7-2,2.7c-1.2,2.2-0.2,1.3,0.6,0.6c0.8-0.7,1.4-1-0.9,1.9
						c4.6-4.7,1.8-3.2,2.9-4.1c0.6-0.9,1.4-1.8,2.1-2.4c0.7-0.6,1.2-0.8,1.1-0.4c0.1,0.2-1.2,1.9-2.5,3.5c-1.3,1.6-2.6,3.2-2.4,3.4
						c0-0.1-0.4,0.3-0.4,0.2c-0.5,0.7-0.1,0.3,0.3,0.1c0.3-0.2,0.6-0.3-0.3,0.7c2.9-2.4-0.1,0.4,3.6-2.7c-0.3,0-0.7,0.1-1,0.2
						c0.5-0.3,1.9-1.3,2.9-1.9c1-0.6,1.6-0.7,0.6,0.5c-0.8,0.5-1.8,1.1-2.3,1.5c-1.1,1.1,0.8-0.2-0.3,0.8c-1.9,1.4-2.1,1.4-2.2,1.3
						c-0.1-0.1-0.2-0.4-1.6,0.8c-1.5,1.4,2.8-1.8-1.2,1.5c2.6-2,2.4-1.8,2.1-1.4c-0.3,0.4-0.8,0.9,1.2-0.4l-2.2,1.6
						c0.4-0.2,1.4-0.9,1.3-0.7c-1,0.6-1.9,1.3-2.9,1.9c1.2-0.8,0.7-0.3,0,0.3c-0.7,0.6-1.5,1.2-0.9,0.8c0-0.1,0.7-0.6,1.5-1.2
						c0.9-0.6,2-1.3,2.8-1.9c1.4-0.6,0,0.5-1.7,1.6c-1.7,1.1-3.6,2.3-3.1,2.2c-0.3,0.1,1.4-1,2.4-1.5c-0.5,0.4-1.4,1-2.5,1.6
						c0.2,0,0.7-0.3,1.4-0.6c0.7-0.4,1.5-0.9,2.1-1.1c-2.7,1.5,1-0.3,1.7-0.5l-2.1,1c-1.5,1.1,4.4-1.9,2.5-0.5
						c-0.9,0.3-1.9,0.6-2.8,1c0.2,0,0.4-0.1,0.7-0.1l-2.4,0.9c1.7-0.5,1.2-0.2,0.4,0.2c1.4-0.5,3.6-1.2,3.6-0.9
						c-1.3,0.6-1.8,0.5-1.7,0.8c-1.2,0.3-2.7,0.7-0.8,0c-0.6,0.2-1.3,0.4-1.9,0.5c-1.4,0.5-0.4,0.4-0.5,0.5c0.1,0,0.2-0.1,0.5-0.2
						c0.8-0.1,1.7-0.2,2.4-0.2c-0.7,0.2-1.3,0.3-1.8,0.4c0.2,0,1-0.1,1.1,0c-1.5,0.3-3,0.5-3.7,0.6c0.5-0.1,1-0.1,1.5-0.1
						c-0.7,0.1-1.8,0.4-2.3,0.4c-0.4,0.1,0.2,0.1,0.8,0.1c0.6,0,1.1,0.1,0.6,0.2c0.3,0,0.5,0,0.7,0.1c-0.2,0.1-0.7,0.2-1,0.2
						c-0.3,0.1-0.2,0.1,0.5,0.4c-0.8-0.1-1.5-0.2-2.2-0.3c0.2,0.1,0.9,0.3,1.6,0.4c0.7,0.1,1.5,0.3,1.8,0.6c0.5,0.5-1.8-0.4-2.5-0.5
						c0.5,0.2,1.2,0.6,1.6,0.8c0.4,0.3,0.4,0.5-0.5,0.2C47.4,94.8,47.7,94.9,47.6,94.8z M43.8,99.8c-0.1-0.3-0.7-1.1,0.1-0.5
						C45.3,100.5,44.5,100.1,43.8,99.8z M34.7,111.1c-0.9-0.7-0.2-0.7,1.2-0.4C36,111,35.7,111.2,34.7,111.1z M79.8,136.3
						c-0.1,0-0.1,0-0.2,0C81.2,134.8,80.5,135.4,79.8,136.3z M78.2,138.8c0.7,0,1.3-0.2,1.9-0.5c-1.2,0.2-1.3-0.2-1.1-0.7
						C77.8,138.1,77,138.6,78.2,138.8z M73.4,63.7l-0.7,1C71.5,65.1,72.4,64.4,73.4,63.7z"/>
					<path class="st0" d="M32.6,106.7c0.5,0.2,1.1,0.6,1.6,0.9C33.8,107.2,33.3,106.9,32.6,106.7z"/>
					<path class="st0" d="M47.7,93.1L47.7,93.1c-0.1,0-0.2,0-0.3,0L47.7,93.1z"/>
					<path class="st0" d="M36.9,150.3c0.4-0.6,1.1-1.4,1.7-2.1C37.7,149.1,37,149.9,36.9,150.3z"/>
					<path class="st0" d="M85.5,147.7c-0.3-0.4-0.6-0.8-0.9-1.2c0.1,0.6-0.9,0.8-1.7,1.1C83.9,147.6,85.5,147.3,85.5,147.7z"/>
					<path class="st0" d="M58.1,152.7c0.5,0.2,0,0.2,0.5,0.3l1.8,0.3C60.3,153,58.9,152.5,58.1,152.7z"/>
					<path class="st0" d="M70.8,148.9c-3.7,0.1-2.5,0.5-1.9,1.1c0,0,0-0.1,0-0.1C73.9,150.2,72.4,149.5,70.8,148.9z"/>
					<path class="st0" d="M69,150.1c0.1,0.2,0.2,0.3,0,0.5C70.9,150.8,69.4,150.4,69,150.1z"/>
					<path class="st0" d="M80.9,140.5c-1,0.6,4.9-0.8,3.4-0.2c2.4-0.3,0.9-0.7-0.8-0.8C81.6,139.4,79.6,139.7,80.9,140.5z"/>
					<path class="st0" d="M58.8,149.3l4.5-0.1c-1.2-0.1-2.4-0.2-3.6-0.2L58.8,149.3z"/>
					<path class="st0" d="M62,146.1c-0.4,0.3-0.8,0.6-1.2,0.8c0.8-0.1,1.2-0.1,1.6,0C62.5,146.5,63.4,145.8,62,146.1z"/>
					<path class="st0" d="M62.4,146.9c-0.1,0.2,0,0.4,0.8,0.5C63.1,147.2,63,147,62.4,146.9z"/>
					<path class="st0" d="M57.4,148.6l0.9-0.2l0.3-0.4C58.2,148.2,57.8,148.4,57.4,148.6z"/>
					<path class="st0" d="M60.8,138.7c-0.5,0-1.1,0.1-1.6,0.1c-1.6,0.9-2.4,1.6-1.7,1.4C58.7,139.8,59.4,139.7,60.8,138.7z"/>
					<path class="st0" d="M49.1,146.4c0.9-0.5,1.9-0.9,3.4-1.7l-5.7,2.6C47.5,147,48.3,146.7,49.1,146.4z"/>
					<path class="st0" d="M47.3,146.5c-1.6,0.8-4.6,2.5-4.1,2.3C44.7,148,46.1,147.4,47.3,146.5z"/>
					<polygon class="st0" points="49,136.5 49.1,136.5 56.6,128.5 					"/>
					<path class="st0" d="M24.8,146.8c-1.1,2.9,4.9-3.9,3.3-0.9c2-1.4,1.3-2.5,3.1-3.6C28.8,143.3,29.7,142,24.8,146.8z"/>
					<path class="st0" d="M31.2,142.3c0.4-0.2,0.8-0.4,1.4-0.7C31.9,141.8,31.5,142,31.2,142.3z"/>
					<path class="st0" d="M34.1,69c-0.1,0.1-0.3,0.3-0.4,0.4c0.1,0,0.2,0,0.3,0L34.1,69z"/>
					<path class="st0" d="M33.6,71.4l-0.2-0.6c0,0.4-0.1,0.8-0.1,1.1C33.3,71.7,33.5,71.3,33.6,71.4z"/>
					<path class="st0" d="M39,97l0.4,0.4c0.6,0.4,0.7,0.4,1,0.5L39,97z"/>
					<polygon class="st0" points="45.1,95.8 45,95.8 46.6,96.7 					"/>
					<path class="st0" d="M44.1,93.2c-0.1,0,0.3,0.1,0.2,0.1C44.1,93.2,46.3,93.8,44.1,93.2z"/>
				</g>
			</g>
		</g>
	</g>
	<g>
		<g>
			<g>
				<g>
					<path class="st1" d="M114.5,175.2c-0.7,0.1-0.2,0.4-0.2,0.5C115.4,175.4,114.4,175.1,114.5,175.2z"/>
					<path class="st1" d="M116,166.8l0.4-0.1c-0.4-0.2-0.9-0.3-1.4-0.4C115.4,166.5,115.7,166.6,116,166.8z"/>
					<path class="st1" d="M113.1,161.4c-0.8,1.4-0.6,1.6-0.1,1.7c0.4,0.1,1.1,0.1,1.1,1l-0.3,0.6c0.5-0.4,1.1-0.7,1.6-1
						c-0.4-0.4-0.6-0.6-0.9-0.8c-0.3-0.2-0.5-0.3-0.8-0.4C113.3,162.2,113,162,113.1,161.4z"/>
					<path class="st1" d="M111.8,161.8c0.1-0.1-0.1,0.1-0.1,0.1C111.7,161.9,111.7,161.9,111.8,161.8c0.1-0.1,0.2-0.2,0.4-0.3
						c0.2-0.2,0.4-0.4,0.6-0.6c-0.1,0.1-0.1,0.1-0.2,0.2C112.4,161.2,112.1,161.6,111.8,161.8z"/>
					<path class="st1" d="M112.6,161.1C113.5,160.1,112,161.7,112.6,161.1L112.6,161.1z"/>
					<path class="st1" d="M110.4,162.7c0,0,0.1,0,0.2-0.1C110.6,162.7,110.5,162.7,110.4,162.7C110.4,162.7,110.4,162.7,110.4,162.7
						C110.4,162.7,110.4,162.7,110.4,162.7L110.4,162.7L110.4,162.7L110.4,162.7L110.4,162.7L110.4,162.7L110.4,162.7l0.6-0.2l0,0
						l0,0l0,0c0,0-0.1,0-0.1,0c0,0,0,0,0.1,0l0,0l0,0l0,0L110.4,162.7L110.4,162.7L110.4,162.7L110.4,162.7L110.4,162.7L110.4,162.7
						L110.4,162.7L110.4,162.7z"/>
					<path class="st1" d="M110.7,162.7c0.1,0,0.2,0,0.3-0.1C110.9,162.6,110.9,162.6,110.7,162.7z"/>
					<path class="st1" d="M110.5,162.7L110.5,162.7l-0.1,0l0,0l0,0h0h0l0.6-0.2l0,0l0,0l0,0l0,0l0,0l0,0l0,0l0,0l0,0l0,0l0,0
						l-0.6,0.2l0,0l0,0l0,0l0,0C110.4,162.7,110.4,162.7,110.5,162.7L110.5,162.7C110.4,162.7,110.5,162.7,110.5,162.7z"/>
					<path class="st1" d="M110.7,162.6c0.1,0,0.1-0.1,0.2-0.1c0.1-0.1,0.2-0.1,0.2-0.1c0.1-0.1,0,0-0.3,0.2c0.6-0.4,1.1-0.8,1-0.8
						c0,0-0.2,0.2-0.4,0.4C111.3,162.2,110.9,162.5,110.7,162.6z"/>
					<path class="st1" d="M111.2,163.9c-0.1,0.3-0.2,0.7-0.3,1l0.8-0.6C111.3,164.6,111.7,163.1,111.2,163.9z"/>
					<path class="st1" d="M111.7,163.5c0,0-0.2-0.2-0.3-0.2c-0.2-0.1-0.4-0.2-0.6-0.3C111.1,163.1,111.6,163.5,111.7,163.5z"/>
					<path class="st1" d="M111.4,163.3c0.2,0.2,0.7,0.4,1,0.7C111.7,163.5,111.6,163.5,111.4,163.3z"/>
					<path class="st1" d="M110.6,162.7c0.1,0,0.2,0,0.3-0.1l0.1,0l0.1,0l0,0l0,0l-0.6,0.2h0l0,0l0,0l0,0l0,0l0,0L110.6,162.7
						l-0.2,0.1l0,0l0,0l0,0l0,0l0,0l0,0l0.6-0.2l0,0l0,0l0,0l0,0c-0.2,0.1-0.4,0.1-0.6,0.1C110.4,162.7,110.5,162.7,110.6,162.7z"/>
					<path class="st1" d="M117.2,169.4l-0.6-0.8l-0.2-0.2l-0.1-0.1l-0.2-0.3c0.1,0.2,0.2,0.3,0.4,0.5l0.6,0.7
						c0.4,0.5,0.7,0.9,1.1,1.4C117.8,170.2,117.5,169.8,117.2,169.4z"/>
					<path class="st1" d="M123,177.9c0.3,0.5,0.5,0.9,0.8,1.2c0.2,0.4,0.5,0.8,0.8,1.2c0.2,0.4,0.5,0.8,0.7,1c0,0.1,0.1,0.1,0.1,0.2
						l-0.1-0.1c-0.1-0.2-0.3-0.4-0.5-0.7c0.3,0.5,0.6,0.9,0.9,1.4l-0.1-0.2c-0.1-0.1-0.2-0.3-0.4-0.6c-0.3-0.6-0.6-1.3-0.9-1.9
						c0.1,0.3,0.1,0.4-0.1,0.2C124,179.4,123.6,178.8,123,177.9z"/>
					<path class="st1" d="M123.5,177.4c0.1,0.4,0.4,1.2,0.8,2C124.2,179,124,178.4,123.5,177.4z"/>
					<path class="st1" d="M114.6,166.2c0.1,0.1,0.4,0.4,1.3,1.5c-0.2-0.3-0.4-0.5-0.6-0.8C115.1,166.7,114.8,166.5,114.6,166.2z"/>
					<path class="st1" d="M115.2,166.9L115.2,166.9c0.4,0.4,0.7,0.8,0.9,1.1c0.1,0.1,0.2,0.3,0.3,0.4c0.1,0.1,0.2,0.2,0.3,0.3
						c-0.1-0.1-0.1-0.2-0.2-0.3c-0.1-0.1-0.2-0.2-0.3-0.4C115.9,167.8,115.7,167.4,115.2,166.9z"/>
					<path class="st1" d="M114.4,166.1c0,0,0.1,0.1,0.2,0.2C114.5,166.2,114.4,166.1,114.4,166.1z"/>
					<path class="st1" d="M110.3,162.8c0.2,0,0.4,0.1,0.5,0.2c0.1,0,0.2,0.1,0.1,0.1c0,0-0.1,0-0.1-0.1c-0.1,0-0.1-0.1-0.2-0.1
						C110.4,162.8,110.8,162.9,110.3,162.8z"/>
					<path class="st1" d="M113.8,165.4c-0.2-0.2-0.5-0.5-0.7-0.7c-0.1-0.1-0.2-0.2-0.3-0.3l-0.3-0.3c0,0,0.2,0.2-0.1-0.1
						c0.2,0.2,0.4,0.3,0.6,0.6C113.3,164.8,113.5,165.1,113.8,165.4z"/>
					<path class="st1" d="M114.4,166.1c-0.2-0.3-0.4-0.5-0.7-0.7c0.2,0.2,0.3,0.4,0.5,0.6L114.4,166.1z"/>
					<path class="st1" d="M121.1,174.5c-0.5-1.2-0.4-1.2-0.1-1.4c-0.4-0.3-0.6-0.5-0.8-0.7c-0.2-0.2-0.4-0.2-0.5-0.3
						C120.1,173,120.9,174.4,121.1,174.5z"/>
					<path class="st1" d="M119.9,173.2c0,0-0.1-0.1-0.1-0.1C119.7,172.9,119.6,172.8,119.9,173.2z"/>
					<path class="st1" d="M125.7,172.2c-0.2-0.2-0.3-0.3-0.5-0.5c0.1,0.2,0.2,0.4,0.3,0.5L125.7,172.2z"/>
					<path class="st1" d="M119.2,171.6c-0.5-0.6-0.2,0.1,0.2,0.8c-0.1-0.2,0-0.3,0.1-0.3C119.4,171.7,119.2,171.5,119.2,171.6z"/>
					<path class="st1" d="M123.8,176.1c-0.5-0.6-1-1.1-1.5-1.6C123,175.4,124.2,176.9,123.8,176.1z"/>
					<path class="st1" d="M120.4,173.9L120.4,173.9C120.8,174.5,120.7,174.3,120.4,173.9z"/>
					<path class="st1" d="M120.4,173.9c-0.3-0.5-0.6-1-0.9-1.4c0.1,0.1,0.2,0.4,0.4,0.7C120,173.3,120.2,173.6,120.4,173.9z"/>
					<path class="st1" d="M113.8,152.3c1,1.4,1.9,2.8,2,3.6c0.2,0.8-0.3,0.9-1.4-0.4c0.4,1.2,2,4.1,4,7.3c1,1.6,2.1,3.3,3.3,4.8
						c1.2,1.6,2.4,3,3.5,4.1c-0.8-1.2-1.4-2.4-1.3-4.6c-0.8-0.6-2-1.2-3.1-2c-1.1-0.8-2-1.9-2.4-3.3c0.2-2.1,1.6,0.5,3.3,1.6
						c-1.5-1.6-2-3-2.8-4.7c-0.8-1.7-1.9-3.5-4-5.8c0.3,0.7,0.6,1.5,0.8,2.2C115.2,154.3,114.5,152.9,113.8,152.3z"/>
					<path class="st1" d="M122.9,172.1l-0.2,0.4c0.3,0.2,0.7,0.6,1.3,1.2c0.6,0.6,1.3,1.3,2.3,2.3c0-0.4-0.1-0.7-0.1-1.1
						c0-0.4-0.1-0.7-0.1-1c-0.1-0.6-0.4-1.2-0.7-1.6l-0.8,0.2l-0.6,0c-0.4,0-0.8,0.1-1.1,0L122.9,172.1z"/>
					<path class="st1" d="M121.3,172.7c-1.4-3-1.5-4.4-3.7-7.5c-0.7,0.4,0.9,2.6,1.1,3.9c0.8-0.8,0.6,1.6,2.4,3.3
						c0.1,0.5-0.1,0.6-0.2,0.8c0.4,0.4,0.9,0.8,1.4,1.4c0-0.1-0.1-0.1-0.1-0.2l0,0c0,0,0,0,0,0c-0.3-0.4-0.4-0.6-0.2-0.4
						c0,0,0,0,0-0.1C121.7,173.4,121.5,173.1,121.3,172.7c0.8,0.6,0.5,0.8,0.6,1.1c0.1,0.1,0.2,0.3,0.2,0.4l0,0
						c0.2-0.6,0.3-1.1,0.6-1.8c-0.3-0.2-0.6-0.2-0.8-0.2C121.8,172.4,121.6,172.5,121.3,172.7z"/>
					<path class="st1" d="M108.2,161.2c0.2,0.1,0.4,0.2,0.6,0.3C108.5,161.3,108.3,161.2,108.2,161.2z"/>
					<path class="st1" d="M109.8,162c0.3,0.3,1.1,1,0.8,0.8c-0.7-0.4-1.1-0.7-1.9-1.2c0.3,0.3,0.6,0.6,1.1,0.9
						c0.2,0.1,0.5,0.3,0.8,0.4c0.1,0.1,0.2,0.1,0.4,0.2c0.1,0.1,0.3,0.2,0.4,0.2c0,0,0,0-0.1-0.1l-0.2-0.1c0.2,0.1,0.6,0.4,1,0.7
						l0.2,0.2l0.2,0.1c0.1,0.1,0.2,0.2,0.3,0.3c0.5,0.4,0.8,0.7,0.7,0.6c-0.4-0.4-0.7-0.7-1.1-1C111.6,163.4,110.8,162.7,109.8,162z
						"/>
					<path class="st1" d="M115,165.8c-0.1-0.4-0.1-0.9-0.1-1.5c-0.6-0.8-1.2-1.5-1.9-2.2l0.9,1.4C113.1,163.2,114.3,164.8,115,165.8
						z"/>
					<path class="st1" d="M127,173.6c0.6,1.1,1.2,2.2,1.7,3.4c-0.4-1.7-0.9-3.5-1.5-5.2C127.1,172.4,127,173,127,173.6z"/>
					<path class="st1" d="M129.9,171.7l2,2.7c-0.1-0.7-0.3-1.4-0.5-2.1C130.9,172.1,130.4,171.9,129.9,171.7z"/>
					<path class="st1" d="M110.3,111.9c-0.2-0.1-0.3-0.1-0.5-0.2C110,111.9,110.1,111.9,110.3,111.9z"/>
					<path class="st1" d="M111.6,113.6l0.7-0.2C111.9,113.5,111.6,113.5,111.6,113.6z"/>
					<path class="st1" d="M152.9,147.8c1.4,1.2,3.1,2.8,4.2,3.6c1,0.8,1.4,0.9-0.1-0.8l-3-3.1C154.2,148.4,153.7,148.3,152.9,147.8z
						"/>
					<path class="st1" d="M137.1,111.3c-0.2,0.1-0.4,0.3-0.6,0.5c0.5-0.2,0.9-0.4,1.4-0.7c0.6-0.3,1.1-0.6,1.6-0.8
						C138.7,110.6,137.8,111.1,137.1,111.3z"/>
					<path class="st1" d="M126.7,117l0.5-0.6c0.2-0.2,0.4-0.4,0.5-0.5C127.4,116.1,127,116.5,126.7,117z"/>
					<path class="st1" d="M107.5,99.5l-1.5-0.2C105.8,99.9,106.7,99.5,107.5,99.5z"/>
					<path class="st1" d="M145.5,154.7c1.6,0.7,2.3,1,2.5,1C145.7,154.5,142.2,152.8,145.5,154.7z"/>
					<path class="st1" d="M146.5,100.9c-1.1,0.3-2.2,0.6-3.5,1C144,101.6,145.1,101.3,146.5,100.9z"/>
					<path class="st1" d="M148.2,155.4c-0.3-0.2-0.6-0.3-0.9-0.5c0.6,0.5,1.1,0.9,0.8,0.8C149.7,156.6,150.8,157.1,148.2,155.4z"/>
					<path class="st1" d="M128.2,88.7c0-0.1-0.1-0.2-0.1-0.4C128,88.7,128.1,88.7,128.2,88.7z"/>
					<path class="st1" d="M112.6,68.1c0.1-0.2,0.3-0.4,0.5-0.6C113,67.6,112.9,67.7,112.6,68.1z"/>
					<path class="st1" d="M141.3,164.9C141.1,165.5,141.6,165.2,141.3,164.9L141.3,164.9z"/>
					<path class="st1" d="M126.4,157.3c-0.3-0.3-0.7-0.7-1.5-1.3C125.7,156.6,126.2,157,126.4,157.3z"/>
					<path class="st1" d="M125.8,138.1C125.8,138.1,125.8,138.1,125.8,138.1C125,137.6,125.2,137.7,125.8,138.1z"/>
					<path class="st1" d="M139.1,164.5c0.6,0.1,1.1,0.2,1.6,0.1C140.3,164.5,139.8,164.5,139.1,164.5z"/>
					<path class="st1" d="M140.8,165.5c-0.3,0-0.5,0.1-0.7,0.1C140.6,166.1,141,166.3,140.8,165.5z"/>
					<path class="st1" d="M141.7,164.2c-0.2,0.3-0.5,0.4-1,0.4c0.3,0.1,0.5,0.2,0.6,0.3C141.4,164.7,141.5,164.5,141.7,164.2z"/>
					<path class="st1" d="M123.2,80.3c0.1,0,0.2,0,0.3,0C122.4,79.6,122.5,79.8,123.2,80.3z"/>
					<path class="st1" d="M129.4,114.5L129.4,114.5C129.4,114.5,129.4,114.5,129.4,114.5L129.4,114.5z"/>
					<path class="st1" d="M130.4,115.1c-0.4-0.2-0.7-0.4-1-0.6l2.2,1.4c1.7,1,3.3,2,5,3c-2.1-1.4-4.2-2.7-6.3-3.9l-0.2-0.1l0,0l0,0
						l0,0l0.1,0C130.4,115.1,130.4,115.1,130.4,115.1z"/>
					<path class="st1" d="M107.9,106.4c-0.4,0.4-0.7,0.7-1,1.1c-0.5-0.1-0.9-0.3-1.2-0.5c-0.2-0.2-0.4-0.3-0.5-0.4
						c-0.3-0.2-0.5-0.1-1.3,0.5c2-0.4,2.2,0.4,2.6,1.2c0.1,0.2,0.2,0.4,0.2,0.6c0.1,0.2,0.3,0.3,0.5,0.4c0.4,0.2,1,0.3,2,0.1
						l-0.6,0.7c0-0.2-0.3-0.1-0.3-0.3c-1.5,1.5,3.1,0,3.3,1.2c-0.1,0.5-0.5,0.9-1.1,0.8c0.5,0.2,1.1,0.3,1.6,0.4
						c0.1,0.2-0.7,0.4-0.8,0.2c0.4,0.3,0.9,0.6,1.3,0.9l-0.1,0c0.8-0.1,2.2-0.2,2.9-0.3c-0.4,0.4-0.6,0.1-1.1,0.3c0.6,0,1.1,0,1.7,0
						c-1,0.6-2.6,0.7-2.8,0.4c-4,2.1,1.6,0,0,1.7c-0.4,0-0.8,0-1.1-0.1c-2.4,1.3-1,1.2-2.3,2.3c0.4-0.2,1.3-0.9,2.2-1.4
						c1-0.6,2-1.1,2.9-1.2c-0.2,0.2-0.2,0.4,1.2,0.1c-1.7,0.7-1.2,0.8-0.7,0.8l-2.6,1.1c1.1-0.1,2.4-0.7,3.8-1.2
						c0.2,0.2-1.8,1.1-3.5,1.9c0.1,0.2,0.8-0.2,1.7-0.7c0.9-0.5,1.8-0.9,2.5-1c-0.8,0.7,0.8,0.2,3.4-0.6c-0.6,0.5-2,0.9-2.7,1.3
						l2.9-1.1c0,0-0.8,0.4-1.2,0.6c1.3-0.4,3.2-1.5,4.6-1.9c0.9-0.4,1.1-0.5,1-0.3c-0.1,0.1-0.7,0.5-1.1,0.8
						c-0.9,0.6-1.7,1.3,0.9,0.3c-0.8,0.5-2.2,1-3.5,1.7c0.5-0.2,0.9-0.3,1.3-0.4c0.3-0.1,0.6-0.2,0.8-0.2c0.5-0.1,0.8-0.2,1.3-0.4
						c0.5-0.2,0.9-0.3,1.6-0.6c0.7-0.2,1.5-0.6,2.7-1c-0.6,0.5-1,1-1.4,1.5c0.9-0.8,2.5-1.6,4.2-2.4c0.9-0.4,1.7-0.8,2.6-1.1
						c0.8-0.3,1.7-0.7,2.6-1c0.1-0.1,0.3-0.2,0.4-0.3c0.2-0.1,0.3-0.2,0.5-0.4c0.4-0.2,0.7-0.5,1-0.7c0.6-0.4,1.1-0.7,1.4-1l3.6-1.3
						c-0.7,0.5-2.4,1.4-4.6,2.6c0.5-0.2,1-0.4,1.3-0.6c-0.3,0.3-0.8,0.6-1.3,0.9c-0.3,0.2-0.5,0.3-0.8,0.5c-0.2,0.1-0.5,0.3-0.7,0.4
						c-1,0.5-2,1.1-3.2,1.6c0.5-0.4,1.1-0.9,1.7-1.4c-2.5,1.2-5.1,2.5-7.2,3.7c0.5-0.2,0.9-0.3,1.3-0.4c-0.7,0.3-1.3,0.6-1.6,0.8
						c-0.3,0.2,0.7-0.2,1.8-0.7l-3.5,2.4l1.6-0.9c-0.3,0.8-0.6,1.6-0.9,2.5c0.6-0.2,1.3-0.5,2-0.7l1-0.4c0.4-0.2,0.8-0.3,1.2-0.5
						c0.7-0.3,1.5-0.6,2.3-1c0.7-0.3,1.3-0.5,2-0.8c1.3-0.5,2.4-0.9,3.4-1.2c0.5-0.1,1-0.3,1.4-0.3l0.3,0l0.2,0c0.1,0,0.3,0,0.4,0.1
						c-1.6,1-2.5,1.6-3.7,2.6c-1.2,1-2.7,2.3-4.4,3.6c0.7-0.6,1.2-1.1,1.7-1.5c0.2-0.2,0.4-0.4,0.6-0.6l0.1-0.1l0.1-0.1c0,0,0,0,0,0
						c0,0,0,0,0-0.1c-0.2-0.1-0.6-0.1-1.1,0c-1.1,0.2-2.6,0.6-2.8,0.1c0.2,0.5-1.3,1.5-2,1.8c1.7-0.3,3.3-0.6,4.8-1
						c-0.6,0.4-0.9,0.7-1.2,1c-0.5,0.5-0.9,0.8-1.5,1.3c-0.5,0.5-1.1,1-1.8,1.7c-0.4,0.3-0.7,0.7-1.1,1c-0.2,0.2-0.4,0.4-0.6,0.6
						l-0.2,0.2c3-2.3,5.9-4.6,9-6.9l0,0c-0.1,0.1,0-0.1,0.3-0.2c0.1-0.1,0.1-0.1,0.2-0.1c0,0,0,0,0.1,0c0,0,0,0,0,0
						c0,0-0.1,0-0.2,0.1c0.1,0,0.1,0,0.1-0.1c0,0,0,0,0.1,0c0,0-0.1,0-0.1,0l0,0l0,0l0,0l0,0l0,0c0,0,0.2,0,0.1,0l0,0l0,0l0,0l0,0
						c-0.1,0-0.1,0-0.2,0c0.1,0,0.1,0,0.1,0l0,0l0,0l0,0l0,0l0,0l0,0l-0.1,0h0l0,0l0,0l0,0l0,0l0,0c0,0,0.2,0,0.1,0l0,0l0,0l0,0l0,0
						l0,0l-0.1,0c0,0-0.1,0-0.2,0c-0.1,0-0.3,0-0.4,0c-0.3,0-0.6,0-0.4,0l0.2,0c-0.3,0-0.9,0-1.5-0.2c-0.7-0.1-1.5-0.3-2.3-0.6
						c-0.4-0.1-0.8-0.3-1.1-0.4c-0.2-0.1-0.4-0.1-0.5-0.2l-0.4-0.2l0.1,0l0.2,0.1c0.1,0.1,0.2,0.1,0.4,0.2c1,0.5,2.3,1.2,4.1,2.1
						c-0.4-0.2-2.5-1.3-4.7-2.4c-0.4-0.2-0.8-0.4-1.2-0.6l0,0c0,0,0,0,0,0l-0.1-0.1l0,0l0.6,0.3l1.4,0.8c1.9,1.1,3.8,2.2,5.6,3.4
						c3.7,2.4,7.2,5.2,10.6,8.3c-2.7-2.1-7.6-5.2-12.1-8.3c-2.2-1.6-4.3-3-6.1-4.3c-0.4-0.3-0.8-0.6-1.3-0.9l-0.3-0.2
						c-0.1,0,0,0,0,0l0,0l0.1,0.1c0.1,0.1,0.2,0.1,0.3,0.2c-0.1,0-0.1-0.1-0.2-0.2c-0.1-0.1-0.3-0.2-0.4-0.3
						c-0.3-0.2-0.7-0.5-1.1-0.8c0,0,0.1,0.1,0.1,0.1c0.2,0.1,0.4,0.3,0.6,0.4c0.8,0.6,1.8,1.4,2.8,2.1c2,1.5,3.9,2.9,4.1,3.1
						c-3.2-2.2-4-2.9-4.8-3.4c-0.7-0.6-1.4-1-4-3.2c0.6,0.5,2.9,2.6,5.1,4.5c2.1,1.9,4,3.8,3.7,3.8c-1.3-1.2-7.3-6.8-8.8-8.3
						c2.5,2.5,5,5.1,7.3,7.9c-1.2-1.5-6.5-6.6-8.8-8.9c0.8,0.8,0.6,0.8,0.4,0.7c-0.1-0.1-0.3-0.1-0.4-0.1c-0.1,0-0.1,0.1,0,0.3
						l2,1.8c-0.9-0.5,1.5,2.6,3.9,5.9c2.4,3.3,4.8,6.8,4.1,7c-1.3-2-8.8-11.5-10.2-12.4c1.7,2.4,5.8,8,9.7,13.8
						c1.9,2.9,3.9,5.8,5.4,8.2c0.8,1.2,1.5,2.3,2,3.3c0.3,0.5,0.5,0.9,0.7,1.3c0.2,0.4,0.4,0.7,0.5,0.9l-2.2-2.6
						c0.6,1.2,1.3,2.3,2,3.4c-2.8-3.6-6.8-9.2-10.5-15c-3.7-5.7-7.1-11.2-9-14.2c-2.1-1.9-2.5-3.1-3-2.5c-2.2-2.4-2.6-4-2.5-4.2
						c-0.4-0.2-1-0.3-1.4-0.5l-0.7-0.2l-0.1,0l0,0c0,0,0,0,0,0c0,0-0.1-0.1-0.1-0.1l-0.1-0.1c0,0,0,0,0,0l0,0l-0.1,0l-0.1,0l-0.5,0
						c4.5,5.5,2.5,6.9,6.5,11.3c-0.4-1.2-0.8-2.5-1.1-3.7l-0.5-1.9l-0.1-0.5l0-0.1c0,0,0-0.1,0.1,0c0.1,0.1,0,0,0,0c0,0,0,0,0-0.1
						l0-0.1l-0.3-0.8c1.1,1.4,2.3,3.1,3.5,4.8c0.3,0.4,0.6,0.9,0.9,1.3l0.2,0.3c0.1,0.1,0,0.1,0.1,0.2c0.1,0.2,0.3,0.5,0.4,0.7
						c0.6,0.9,1.1,1.8,1.6,2.7c2,3.5,3.3,6.2,2.3,6.2c-1.1-1-3.1-3.4-5-5.8c-1.9-2.4-3.7-4.9-4.5-5.8c1.4,2,1.6,4.6,0.3,3.4
						c-0.6-1.1-1.3-2.2-1.9-3.3c-1.4-0.7-0.2,1.4,0.8,3c0.9,1.6,1.5,2.9-1.4,0.9c-0.3,0-2.2-1.4-3.7-2.4c-1.5-1-2.5-1.6-1-0.1
						c3.3,2.6,9.4,8.3,15.3,14c3,2.9,5.7,5.6,8,7.9c2.3,2.3,4.2,4.2,5.2,5.3c-0.2-0.2-1.8-1.3-3.7-2.7c-1.9-1.4-4.3-2.9-5.9-4.1
						c-0.6-0.5-1.3-1-1.9-1.6c-0.7-0.6-1.3-1.2-2-1.8c-1.3-1.2-2.7-2.6-4-3.9c-2.6-2.7-5.1-5.3-7.4-7c1.4,1.3,3,3.2,3.5,3.9
						c-1.6-0.8-4.5-4.2-4.5-2.9c0.5,0.4,0.9,0.8,1.2,1.1c0.1,0.2,0.3,0.3,0.4,0.4c0.1,0.1,0.2,0.2,0.3,0.3c1.5,1.9-2.5-0.2,2.6,2.5
						c1.1,2-1.7-0.2-2.1,0.8c2,1.3,5,4,7.7,6.5c2.8,2.5,5.1,4.8,5.8,5.6c-1.4-1.1-3.4-2.4-4.3-2.9c-1.3,0.8-4.4-0.3-5.2,0.9
						c-1.6-0.8-3.7-1.2-6.2-3c1,0.9,3,2.3,3,2.8c-5.8-2.2-0.4-1.5-7.2-4.5c3.6,2.2,4.4,4.1,6.4,5.9c5.8,2.8,1.7-0.7-0.2-2.7
						c3.9,2.2,7.7,4.8,10.9,7c3.2,2.2,6,4.2,7.5,5.5c1.3,1.9-5.3-2.2-4.3-1.4c-1.2,0.5,1.9,2.7,4.4,4.5c2.6,1.8,4.5,3.4,1.2,2.8
						c-5.2-1.9-9.3-5.1-12.8-6.8c-1.4-1.7,3.7,0.4,3.9-0.2l-2.7-0.5c-1.4-1.1-2.4-2.2-0.8-1.8c-2.3-0.9-2.9-0.2-3.5,0.5
						c-0.6,0.7-1.3,1.6-3.4,1c1.3,1.1,2.6,2.5,4.4,3.5l-0.3-0.8c1.9,0.9,3,1.9,3.8,2.8c0.8,0.8,1.4,1.5,2.4,1.7
						c1.9,2.3,4.7,5.8,1.7,5.5c-1.5-1.1-3.1-2.3-4.6-3.4c1.3,1.1,3.3,1.5,2.2,0.1c0.8,1-1.1,0.2-2.4-0.3c-1.4-0.5-2.1-0.6,0.3,2
						c1.2,0.7,2.4,1.3,3.7,1.9c1.4,2.5,4.1,7.8,1.3,7.5c2.1,1.8,2.2,1.6,2.3,1.4c0.1-0.1,0.4-0.2,3.1,1.7c-3.2-2.5-2.2-3.1-1.3-3.8
						c1-0.7,1.6-1.2-2.2-3.5c3.3,2.1,4.3,2.2,5.3,2.3c0.5,0,1,0,1.7,0.1c0.8,0.1,1.8,0.5,3.4,1.2c-1.6-1.1-3.3-1.8-1.5-2.2
						c-0.4-0.4-0.9-0.9-1.2-1.2c0.1,0,0.1,0,0.2,0c-0.1,0-0.2,0-0.2-0.1c-0.2-0.2-0.2-0.2-0.1,0c-0.9-0.2-1.9-0.7-2.9-1.2
						c-1.5-1.5-2-2.6-2.2-3.5c-0.3-0.9-0.4-1.6-1.2-2.4c1.2,0,1.7,1.4,3.7,2.2c-0.8-0.8-1.6-1.7-2.4-2.5c1.9,1.1,3.7,1.7,5.2,2.4
						c1.5,0.6,2.7,1.3,3.3,2.5l1.1-1c2.7,0.5,4.3,0.3,3-1.1c1.3,0-3.6-3.3-0.7-1.4c-0.5-0.9-1-1.8-1.5-2.6l1,0.5
						c0.4-0.2,0.2-0.7-0.1-1.2c0-0.1-0.2-0.3-0.3-0.4l-0.3-0.3c-0.2-0.2-0.5-0.4-0.6-0.6c-0.7-0.7-0.5-1.1,3.2,0.9
						c-0.9-0.7-2-1.7-0.8-1.2l3.4,2.2c-0.5-0.5,0.4,0,0.9,0.3c0.6,0.3,0.9,0.4-0.8-0.9c6,4.3,4.8,3.4,4,2.5
						c-0.4-0.4-0.6-0.8-0.2-0.4l-3.9-3.6c0.4,0.1-0.6-1.1-1.8-2.8l-3.3-3.3c-1.2-1.5-0.4-1.1,0.6-0.3c1.1,0.7,2.4,1.8,2.4,1.5
						c1.1,1.4,0.7,1.1,0,0.3c3.7,3.8,2.5,2.3,1.4,0.3c-0.9-2.3-2-4.9,0.9-2.5c-0.8-1.6-0.2-1.3,0.7-0.7c0,0,0,0.1,0.1,0.3
						c0.1,0,0.1,0,0.2-0.1c0.6,0.5,1.3,1,1.9,1.4c-0.8-0.7-1.5-1.3-1.9-1.5c0.2-0.3,0.2-1.2-0.2-2.4l3.3,3.5c0-0.1,0-0.1,0-0.2
						c1.5,0.9-1.2-2.1-3.7-4.6c-0.3-0.8-0.8-1.7-1.4-2.7c5.4,5.5-0.8-2.9,5.2,2.5c-2.5-3.1,0-4.8-5.9-10.5c0.8,0.7,1.3,0.9,1.1,1.2
						c1.1,0.1,2.2,0.1,0.8-1.8c1.6,1.1,3.1,2.3,4.7,3.4c-1.7-2.1-3.5-4.1-5.4-6c3.3,1.3,5.3,1.8,8.4,5.3c-2.1-3.2-2.5-3.9-2.8-4.7
						c-0.3-0.7-0.7-1.5-3.3-3.8l3.2,1.7c0.1-0.4-0.9-1.4-1.5-2.1c-0.6-0.8-0.9-1.3,0.5-1c1.7,0.2,2.8-0.4,3.5-1.6c0.7-1.2,1-2.9,1-5
						c0-2.1-0.5-4.6-1.1-7c-0.3-1.2-0.6-2.4-0.9-3.5c-0.2-0.6-0.3-1.1-0.4-1.7c-0.1-0.6-0.3-1.3-0.1-1.5c-3.6,3.1-2.9,2.2-2.2,1.1
						c0.3-0.6,0.9-1,0.9-1.2c0-0.1-0.4,0.2-1.9,1.3c1.7-1.4,2.7-2.2,4.3-3.3c-1.1,0.5-0.5-0.1-0.3-0.4c0.2-0.3,0-0.3-2.8,1.4
						c1.9-1.3,2.9-1.8,4.1-2.6c-0.4,0.3-1.8,1-0.7,0.3c1.1-0.8,1.7-1,2.6-1.6c-0.6,0.1-6.9,3.9-12.9,7.4c2.4-1.8,1.9-1.6-2.4,0.7
						c1.9-1.2,3.8-2.4,5-2.7c0-0.1,0.4-0.6,0.2-0.6c-0.2-0.1-1.1,0.3-3.8,1.6c1.3-0.7,0-0.2-0.7,0.1c-0.3-0.1,0.2-0.4-1,0l-0.8,0.4
						c-7.2,3.4-2.1,0.8-3.5,1.3l0.8-0.4c2-1.1,1.3-0.8,0.6-0.6c-0.7,0.3-1.3,0.5,1.3-0.8l-4.7,2.2c-5.2,2.3-4,1.7-2,0.7
						c2-1,4.9-2.4,2.5-1.4l-2.6,1.2c-2.1,0.8,1.3-0.7,5.5-2.6c3.9-1.7,7.9-3.5,9.8-4.4c0.9-0.4,1.6-0.7,2.4-1
						c6.3-2.8-6.9,2.9-9.1,3.6c3.7-1.6,9.7-4,10.2-4.3c1.5-0.6-1.7,0.6-4.6,1.6c-2.9,1-5.4,1.7-1.6,0.2c-3.1,1.2-6.1,2.4-8.7,3.2
						c-0.8,0.1,2-1.1,3.7-1.9c1.7-0.8,2.4-1.1-3,0.5c0.9-0.3,1.7-0.6,2.5-0.9c-2.9,0.7-5.2,0.8-11.3,2.3c10.8-3.3,7.9-2.8,4.9-2.6
						c-3,0.3-6.2,0.4,4.1-1.8c-0.4-0.2-0.7-0.4-1-0.7l2.1-0.4c1.5-0.7-3.3-0.1-8.1,0.4c1.4-0.4,3.3-0.5,4.3-0.7
						c4.5-1.4,3.5-1.1-5.8-0.9l6.4-0.7c-1.8,0.1,0.9-0.5,3.1-0.9c2.2-0.5,3.9-0.8,0.6-1c0.7,0,1.8,0,2.7,0c-3.3-0.2,1.2-0.8,3.7-1
						c2.5-0.3,3-0.4-7.2-1c-1.5-0.3-3.1-0.5-4.5-0.8c-1.1,0.3-3.3,0.2-5.7,0c-2.4-0.2-4.8-0.6-6.7-0.5c-0.4-0.3,1.4-0.4,3.3-0.5
						c1.9,0,4,0.1,4.3,0.4l-1.1,0c5.2,0.5,6.3,0.3,7.1,0.1c0.7-0.2,1.1-0.5,4.5-0.1c0.3-0.7,2.2-1.1,4-1.4c1.8-0.3,3.7-0.4,4.3-0.7
						l-6.9-1.9l0.8-0.3c1.7,0.4,5.3,1.5,4.8,1.7c2,0.5,1.3,0.2-0.1-0.3c-1.3-0.5-3.3-1.3-4-1.6c1.6,0.2,3.4,0.9,4.9,1.5
						c1.5,0.6,2.7,1.1,2.8,1.1l-0.3-0.3l-0.8-0.2c-2.5-1-5.2-2.1-4.6-2.3c1.5,0.3,4,1.4,4.3,1.4c0.4,0.2,0.7,0.2,0.3,0l0.9-0.2
						c-1.6-0.7-3.3-1.3-5-1.9c-2.2-1.3,0.7-0.4-4.9-2.5c2.2,0.8,3.6,1.2,4.4,1.3c0.4,0,0.7,0,1,0c0.1,0,0.2-0.1,0.3-0.1
						c0,0,0.1-0.1,0.1-0.1c0,0,0,0,0.1-0.2c0.1-0.2,0.2-0.4,0.3-0.7l0.1-0.3c0.1-0.2,0.1-0.3,0.2-0.5c0.1-0.4,0.2-0.7,0.3-1
						c0.1-0.2,0.1-0.3,0.2-0.5c0.1-0.2,0.1-0.4,0.2-0.5c0.2-0.7,0.4-1.2,0.6-1.8c0.2-0.6,0.5-1,0.9-1.2c-0.4-0.5-0.8-0.9-1.1-1.3
						c-0.3-0.5-0.6-0.9-0.9-1.3c-0.2-0.4-0.5-0.8-0.6-1.2c-0.2-0.4-0.4-0.9-0.6-1.3c-0.2-0.4-0.3-0.8-0.4-1.3
						c-0.2-0.4-0.3-0.9-0.5-1.4c-0.3-0.9-0.7-1.9-1.2-2.8c-0.1,0.7-1.4,1.8-2.8,2.4c-1.4,0.6-2.6,0.7-2.9-0.2
						c2.4-1.6,3.7-2.8,4.2-3.9c0.5-1.1,0.2-2.2-0.4-3.2c-0.6-1.1-1.6-2-2.4-3.2c-0.8-1.2-1.4-2.5-1.5-4.7c0.3,1.5-0.4,2.1-1.2,2.3
						c-0.4,0.1-0.9,0.2-1.4,0.3c-0.5,0.1-1,0.1-1.5,0.2c-0.4,0.1-0.9,0.2-1.3,0.5c-0.3,0.2-0.6,0.5-0.8,0.9
						c-0.4,0.8-0.4,1.9-0.1,3.7c-0.7-0.4-0.7-1.4-0.6-2.7c0.1-1.2,0.2-2.7-0.4-3.9c-1.1,1.1-1.8,1.6-2.6,1.8
						c-0.7,0.1-1.4-0.1-1.9-0.4c-1-0.6-2.1-1.3-2.9-0.2c0.1,1.3,0.7,3,0.5,5.1l-1.7-5.6c-0.3,0.8,0.4,7.1-0.7,3.3
						c0.2,0.9,0.5,2.4,0.3,2.8c-1.1-1-2.1-0.9-3-0.3c-0.9,0.5-1.8,1.5-2.7,2.3c-0.9,0.8-1.8,1.4-2.8,1.7c-0.5,0.1-1,0.2-1.5,0.2
						c-0.5,0-1-0.1-1.5-0.2c0.6,0.5,0.3,1-0.1,1.4c0.3,0,0.1,1.3,0.3,2c-0.6-0.3-1.2-0.5-1.7-0.5c0,0.9-0.5,1.3-0.8,1.7
						c-0.4,0.4-0.8,0.8-0.8,1.3c0.2-0.2,0.3-0.4,0.5-0.6c-0.3,0.9,0,1.3,0.4,2c0.4,0.7,0.9,1.8,1,2.8c0.3-0.7,0.9,0,1.6,1.1
						c0.3,0.5,0.7,1,1.1,1.2c0.3,0.2,0.6,0.1,0.9-0.8c0.4,0.8-0.1,1,0.1,1.8c0.2-1.2,0.6-1.5,1.4-0.4l0,0.4c2.1,0.4,3.2,2.6,5.8,5.2
						l-0.5-2.7c0.6,0.5,0.8,1.4,1.1,2.2c0.1-3.9-1.5-0.8-1.4-5c0.6,2.7,1.6,3.1,2.4,3.5c0.9,0.4,1.8,0.8,2.4,4.5
						c0.8,0.3-0.6-3.6,0.2-3.4l0.4,2l-0.1-2.5c0.6,0.5,1.1,3.2,1.3,4.9c-0.1-0.2-0.3,0.3-0.4,0.4c1,2.7,1.8-0.1,2.1,0.7l-0.9-1.6
						c1-0.6,2.2-0.1,3.3,0c0.3,0,0.6,0.1,0.7,0.1c0.1,0,0.1,0,0.1-0.1c0,0,0,0,0-0.1l0,0l0,0l0-0.2c0-0.6-0.1-1.2-0.1-1.7
						c0-0.5,0-1-0.1-1.5l0-1.3l0-1.1c0-0.6,0-1.3,0-1.8c0-0.5,0.1-1,0.1-1.4l0,0.5c0.1-1.3,0.2-2,0.3-2.4c0.1-0.5,0.2-0.7,0.2-1
						c0-0.1,0.1-0.2,0.1-0.3c0-0.1,0.1-0.2,0.1-0.3c0.1-0.2,0.2-0.4,0.3-0.5l0,0l0,0l0,0l0,0l0,0l0,0l-0.4,0.4l0,0l0,0l0,0l0,0
						l0-0.1l0.1-0.1c0.1-0.1,0.4-0.3,0.4-0.3c-0.1,0,0,0,0.1,0c0.1,0,0.2-0.1,0,0l0.1,0c0,0,0,0,0,0l0,0c0,0,0,0-0.1,0
						c-0.1,0-0.2,0-0.2,0c0,0-0.1,0-0.1,0c-0.1,0-0.3,0-0.6,0c-0.1,0-0.2,0-0.4,0c-0.3,0-0.5-0.1-0.7-0.2c-0.1,0-0.3-0.1-0.6-0.2
						c-0.1,0-0.3-0.1-0.4-0.1c-0.1,0-0.4-0.2-0.2-0.1c-0.1,0-0.2-0.1-0.2-0.1c0,0,0.1,0,0.1,0c0,0,0.1,0,0.1,0.1c0,0,0.1,0,0.1,0
						c-0.1,0-0.2-0.1-0.2-0.1c-0.1,0-0.2-0.1-0.3-0.1c0,0,0.2,0.1,0.5,0.2c-0.1,0-0.2-0.1-0.3-0.1c-0.1,0-0.2-0.1-0.4-0.1
						c-0.2-0.1-0.5-0.2-0.7-0.3c-3-1.5-5.9-2.9-8.6-4.2c0,0,0,0,0,0c0.1,0,0.1,0.1,0.2,0.1l0.2,0.1c0.1,0,0.1,0.1,0.2,0.2
						c0.2,0.4,0.5,0.8,0.8,1.1c0.5,0.7,1,1.3,0.8,1.5c-0.1,0.1-0.4,0.1-1,0c-0.6-0.1-1.6-0.5-2.9-0.9c1.7,1.1,2.9,1.7,3.9,2
						c0.5,0.1,0.9,0.2,1.2,0.2c0.3,0,0.6,0,0.7-0.1c0.4-0.4,0.1-1.3,0.9-0.5c1.4,0.4,2.8,1.4,3.7,2.3c0.5,0.4,0.8,0.8,1,1.1
						c0.1,0.3,0,0.4-0.3,0.4c-0.2,0.1-1-0.1-2-0.4c-1-0.3-2.3-0.7-3.6-1c-1.3-0.3-2.5-0.6-3.4-0.6c-0.4,0-0.8,0-1,0.2
						c-0.4,0-0.8,0.1-1.1,0.2c0.3-0.1-0.3-0.3,0-0.4c-0.7-0.1-1,0-1.1,0.1c0,0.1-0.1,0.2,0,0.3c0.2,0.2,0.3,0.3,0.5,0.5
						c0.3,0.3,0.6,0.6,0.7,0.8c0,0.1-0.1,0.2-0.3,0.2c-0.2,0-0.5,0-0.9,0c2.1,1,2,1.2,2,1.4c0,0.2,0.2,0.5,2.9,1.4l-0.7-1.7
						c0.6,0.7,2.4,1.7,3.5,2.5c1.2,0.8,1.6,1.4-0.2,1.5c-1-0.4-2.2-1.1-2.9-1.6c-0.9-0.1-0.7,0.2-0.5,0.4c0.2,0.2,0.4,0.5-0.7,0.4
						c-0.6-0.2-1.1-0.4-1.4-0.5c-0.2-0.1-0.3-0.1-0.4-0.2c-0.1-0.1-0.2-0.2-0.3-0.2c-0.4-0.3-0.4-0.6-0.4-0.9c0-0.6,0.2-1.2-1.7-2.4
						c-1.2-0.2-0.3,0.6,0.1,1.1c0.5,0.5,0.5,0.7-2.3-0.4c3.6,1.5,3.2,1.8,2.7,2.1c-0.8,0.2-2.4,0.4-0.1,1.5l-3.2-0.9
						c0.1,0.1,0.2,0.2,0.3,0.3c0.1,0.1,0.1,0.1,0.2,0.2c0.1,0.1,0.2,0.1,0.3,0.2c0.4,0.3,0.8,0.5,0.7,0.7l-4.2-1.7
						c1.8,0.9,1,1.2,0,1.4c-1,0.2-2,0.5-1.1,1.1c-0.1-1,0.8-0.9,2-0.6c1.2,0.3,2.7,0.8,3.9,0.7c1.9,1.5-0.2,1.3-2.4,1.2
						c-2.3-0.1-4.6-0.1-3.8,1.3c-0.2-0.2,0.1-0.5,0.7-0.6c0.6-0.1,1.4-0.1,2.1,0.3c-0.6,0.4-1.6,0.8-2.9,0.9c0.4,0.9,1,0.9,1.8,0.8
						c0.8-0.1,1.7-0.2,2.5,0.2c-3.1,0.1,1.2,0.9,2,1.6l-2.4-0.3c-0.1,0.1-0.2,0.2-0.2,0.3c-0.1,0.1-0.2,0.1-0.3,0.2
						c-0.1,0.1-0.1,0.2,0,0.3c0.2,0.2,0.8,0.3,1.3,0.4c0.6,0.1,1.1,0.2,1.3,0.3c0.1,0.1,0.1,0.1,0,0.2c-0.1,0-0.1,0.1-0.3,0.2
						c-0.1,0.1-0.2,0.1-0.3,0.2c-1.2-0.3-2.1-0.6-3-0.8l0,0.4c0.1,0.1,0.3,0.3,0.4,0.4l-2.8-0.4c1.2,0.5,1.6,0.8,1.6,1.1
						c0.1,0.3-0.3,0.5-0.7,0.9c1.6-0.1,4,0.3,3.8,0.9c-1.5,0.4-1.9-0.3-2.1,0.6c-1.2-0.2-2.7-0.5-0.6-0.9c-0.7-0.1-1.3-0.3-2-0.3
						c-0.4,0.1-0.6,0.3-0.7,0.4c-0.2,0.1-0.3,0.3-0.3,0.5c-0.1,0.3,0.1,0.6,0,0.8c0.2-0.1,0.4-0.3,0.7-0.4c0.7,0.5,1.5,1,2.2,1.4
						c-0.9,0.2-1.4,0.1-2-0.1c0.1,0.3,0.9,0.5,1,0.9c-0.8,0-1.7,0-2.4-0.1c-0.7-0.1-1.4-0.2-1.6-0.5c0.1,0.1,0.2,0.2,0.3,0.3
						l0.5,0.3l0.9,0.6c-0.4,0.1-0.8,0.2-1.3,0.4c-0.5,0.2-1,0.3-1.2,0.2c-0.6,0.4,0,0.9,0.6,1.3c0.3,0.2,0.5,0.4,0.6,0.7
						c0.1,0.2,0,0.5-0.4,0.8c0.1,0,0.2,0,0.3,0.1c0,0,0.1,0.1,0.1,0.1c0.1,0,0.1,0.1,0.2,0.1c-0.1,0.2-0.2,0.5-0.5,0.7
						c-0.1,0.1-0.3,0.3-0.4,0.4c-0.1,0.1-0.1,0.2-0.2,0.4c-0.2,0.5-0.5,1,0.4,1.5l-2.3,1c0.4,0.9,3-1.4,3.7,0c0.6,1-1.9,0.7-2.6,1.2
						c0.5,0.2,1.3,0.4,1.9,0.8c0.3,0.2,0.4,0.4,0.4,0.7c0,0.3-0.1,0.6-0.5,0.9C107.8,107.1,108,106.7,107.9,106.4z M114.7,115
						c-0.5,0.1-1.9,0.3-1-0.1C115.8,114.2,115,114.6,114.7,115z M133.7,114.9c-1,0.5-0.8,0.1-0.1-0.7
						C134,114.2,134.1,114.4,133.7,114.9z M141.7,158.8c-0.1-0.1-0.1-0.1-0.2-0.1C143.6,159.1,142.8,158.9,141.7,158.8z M138.9,159
						c0.5,0.4,1,0.8,1.7,1.1c-1-0.7-0.8-1-0.3-1.1C139.2,158.4,138.3,158.1,138.9,159z M150.7,87.5l-1.2-0.4
						C148.6,86.5,149.6,87,150.7,87.5z"/>
					<path class="st1" d="M127.9,116.3c0.4-0.3,0.9-0.6,1.4-0.9C128.8,115.7,128.3,116,127.9,116.3z"/>
					<path class="st1" d="M107.8,99.5C107.8,99.5,107.8,99.5,107.8,99.5c-0.1,0-0.2,0-0.3,0L107.8,99.5z"/>
					<path class="st1" d="M112.9,121.3c0.8,0.3,1.6,0.8,2.4,1.4C114.4,121.8,113.5,121.2,112.9,121.3z"/>
					<path class="st1" d="M137.8,170.7c0.1-0.6,0.2-1.1,0.3-1.7c-0.4,0.6-1.3,0.1-2.1-0.1C136.8,169.5,138.1,170.3,137.8,170.7z"/>
					<path class="st1" d="M113.4,155.9c0.2,0.5-0.1,0.1,0,0.6l0.9,1.6C114.6,157.8,114.1,156.4,113.4,155.9z"/>
					<path class="st1" d="M126.2,161.6c-2.7-2.5-2.3-1.2-2.4-0.3c0,0,0-0.1,0.1-0.1C127.1,165,126.7,163.3,126.2,161.6z"/>
					<path class="st1" d="M123.7,161.5c-0.1,0.3-0.2,0.5-0.5,0.5C124.4,163.5,123.7,162.1,123.7,161.5z"/>
					<path class="st1" d="M139.8,161.9c-1.1-0.3,4.1,2.9,2.6,2.2c1.9,1.5,1.2,0.2-0.1-1.1C141.1,161.7,139.4,160.4,139.8,161.9z"/>
					<path class="st1" d="M117.2,153.5l3.3,3c-0.8-0.9-1.6-1.8-2.4-2.7L117.2,153.5z"/>
					<path class="st1" d="M122.3,152.8c-0.5,0-1-0.1-1.5-0.1c0.6,0.5,0.9,0.8,1.1,1.1C122.4,153.5,123.5,153.6,122.3,152.8z"/>
					<path class="st1" d="M121.9,153.8c-0.2,0.2-0.3,0.4,0.2,1C122.2,154.6,122.3,154.3,121.9,153.8z"/>
					<path class="st1" d="M116.9,151.9l0.8,0.5l0.6-0.2C117.8,152.1,117.4,152,116.9,151.9z"/>
					<path class="st1" d="M127.5,146.3c-0.3-0.5-0.7-0.9-1-1.3c-1.5-0.9-2.6-1.2-2.1-0.6C125.5,145.1,126,145.6,127.5,146.3z"/>
					<path class="st1" d="M114.1,142c1,0.3,2,0.8,3.6,1.5l-5.6-2.9L114.1,142z"/>
					<path class="st1" d="M113.5,139.3c-0.8-0.4-1.8-1.2-2.7-2c-0.5-0.4-0.9-0.6-1.1-0.7c-0.1,0-0.2,0-0.2,0.1
						c-0.1,0.1-0.1,0.2-0.1,0.3C110.9,137.9,112,139.3,113.5,139.3z"/>
					<polygon class="st1" points="127.5,132.5 127.4,132.7 135.3,140 					"/>
					<path class="st1" d="M120.1,107.1c-2.1-1.8,3.9,4.9,1.4,2.7c1.4,2,2,1.8,3.2,3.5c-0.6-1.1-0.7-1.3-1.1-2
						C123.2,110.6,122.3,109.6,120.1,107.1z"/>
					<path class="st1" d="M124.8,113.2c0.2,0.3,0.5,0.7,0.8,1.3C125.3,114,125,113.6,124.8,113.2z"/>
					<path class="st1" d="M110.6,69.2c-0.2,0.1-0.4,0.3-0.5,0.4c0.1,0,0.3,0,0.4,0.1L110.6,69.2z"/>
					<path class="st1" d="M109.7,71.7l-0.2-0.6c-0.1,0.4-0.2,0.8-0.2,1.1C109.4,72,109.6,71.6,109.7,71.7z"/>
					<path class="st1" d="M110.7,117.6l0.6-0.2c0.6-0.3,0.6-0.4,0.7-0.6L110.7,117.6z"/>
					<polygon class="st1" points="108,111.8 108,112 109.6,111.2 					"/>
					<path class="st1" d="M103.9,104.9c-0.1,0.3,0.3,0.6,0.2,0.9C103.8,105.2,106.3,104.4,103.9,104.9z"/>
				</g>
			</g>
		</g>
	</g>
	<g>
		<path class="st2" d="M28.3,56.7v124c0,9.8,8.6,17.7,19.4,17.7S67,190.5,67,180.7v-29.5h12.9v-47.3C79.8,77.8,56.8,56.7,28.3,56.7z
			"/>
		<path class="st2" d="M41.2,139.3V70.5c15,4.9,25.8,17.9,25.8,33.4v35.4H41.2L41.2,139.3z"/>
		<path class="st2" d="M159.8,56.7h-67v124c0,9.8,8.6,17.7,19.4,17.7c10.6,0,19.4-7.9,19.4-17.7v-29.5h28.4
			C173,122,174,88.2,159.8,56.7L159.8,56.7z"/>
		<path class="st2" d="M150.7,139.3h-45.1V68.5h45.1C159.2,91.6,159.2,116.2,150.7,139.3z"/>
		<path class="st2" d="M112.1,83.2c0,4.9,4.4,8.9,9.6,8.9c5.4,0,9.6-4,9.6-8.9c0-4.9-4.4-8.9-9.6-8.9
			C116.4,74.4,112.1,78.3,112.1,83.2L112.1,83.2z"/>
	</g>
</g>
</svg>
