<?xml version="1.0" encoding="utf-8"?>
<!-- Generator: Adobe Illustrator 24.0.2, SVG Export Plug-In . SVG Version: 6.00 Build 0)  -->
<svg version="1.1" id="Layer_1" xmlns="http://www.w3.org/2000/svg" xmlns:xlink="http://www.w3.org/1999/xlink" x="0px" y="0px"
	 viewBox="0 0 198.4 198.4" style="enable-background:new 0 0 198.4 198.4;" xml:space="preserve">
<style type="text/css">
	.st0{fill:#F8E3B0;}
	.st1{fill:#646565;stroke:#646565;stroke-width:4;stroke-miterlimit:10;}
</style>
<g>
	<g>
		<g>
			<g>
				<path class="st0" d="M17.3,180.8c-0.2,0.6,0.3,0.2,0.3,0.3C17.8,180.2,17.1,180.9,17.3,180.8z"/>
				<path class="st0" d="M16.8,173.1l0.5,0c-0.3-0.3-0.7-0.6-1.1-0.8C16.4,172.6,16.6,172.8,16.8,173.1z"/>
				<path class="st0" d="M18.4,167.1c-1.6,0.1-1.7,0.7-1.5,1.2c0.1,0.3,0.2,0.6,0.3,0.9c0,0.3,0,0.6-0.3,0.9l-0.6,0.3l1.9,0.3
					c0-0.6-0.1-1.3-0.3-2C17.8,168,17.8,167.4,18.4,167.1z"/>
				<path class="st0" d="M27.2,167.4c-1.5-0.4-0.7-0.3-0.9-0.2c0.2,0,0.3,0.1,0.4,0.1C26.8,167.3,26.9,167.3,27.2,167.4z"/>
				<path class="st0" d="M26.7,167.3C26.4,167.2,28.1,167.6,26.7,167.3L26.7,167.3z"/>
				<path class="st0" d="M23,165.7c-0.3-0.2-0.5-0.3-0.7-0.4c0.2,0.1,0.8,0.4,0.6,0.3C23.7,166.1,23.5,166,23,165.7z"/>
				<path class="st0" d="M23.8,166.2c-0.1-0.1-0.3-0.2-0.4-0.3C23.4,166,23.6,166,23.8,166.2z"/>
				<path class="st0" d="M22.5,165.4c0.1,0.1,0.3,0.1,0.4,0.2c0.2,0.1,0.3,0.2,0.5,0.3c-0.1-0.1-0.1-0.1-0.4-0.2c0,0,0,0-0.1,0
					C22.8,165.6,22.7,165.5,22.5,165.4z"/>
				<path class="st0" d="M22,165.2L22,165.2l-0.1,0l0,0l0,0l0,0l0,0l0,0c-0.7-0.3,6.5,2.7,3.4,1.4l0,0l-0.1,0
					c-0.1,0-0.2-0.1-0.3-0.1c-0.3-0.1-0.5-0.1-0.7-0.2c-0.4-0.1-0.8-0.3-1.2-0.6c-0.2,0.3,0.3,0.6,1,0.7c0.3,0.1,0.7,0.2,1,0.2
					c0.1,0,0.3,0,0.4,0.1c0.1,0,0.1,0,0.1,0l0,0l0,0l0,0l0,0l0,0c-1.6-0.7,3.6,1.5-3.6-1.5l0,0L22,165.2L22,165.2z"/>
				<path class="st0" d="M15.3,166.6c-0.4,0.2-0.7,0.4-1,0.6l0.9,0.6C14.7,167.4,16.2,166.6,15.3,166.6z"/>
				<path class="st0" d="M26.2,168.6C26.1,168.6,26.1,168.6,26.2,168.6c-0.1-0.1-0.1-0.1-0.2-0.3C26.1,168.5,26.1,168.6,26.2,168.6z
					"/>
				<path class="st0" d="M26.1,168.6c0,0,0.1,0.2,0.1,0.1C26.2,168.7,26.2,168.7,26.1,168.6C26.2,168.6,26.1,168.6,26.1,168.6
					C26.1,168.6,26.1,168.6,26.1,168.6z"/>
				<path class="st0" d="M21.4,164.5c0.3,0.3,0.7,0.6,1,0.9l0.2,0.2l0.1,0.1c0,0,0,0,0.1,0l0,0c-0.1-0.1-0.2-0.1-0.3-0.2
					c0.1,0.1,0.3,0.1,0.4,0.2c0,0,0,0,0,0l-0.1,0l-0.1-0.1l-0.2-0.2c-0.3-0.2-0.7-0.6-0.9-0.9C21.5,164.4,21.5,164.4,21.4,164.5z"/>
				<path class="st0" d="M25.7,167.3c0,0.2,0.1,0.3,0.1,0.4C25.8,167.6,25.7,167.5,25.7,167.3l0-0.2l0-0.1l0,0l0,0l0,0l2,8.6l0,0
					l0,0l0,0l0,0l0,0.2l0,0.9l0-0.9l0-0.2l0-0.1l0-0.1l0,0l0,0l-2-8.5l0,0l0,0l0,0l0,0L25.7,167.3z"/>
				<path class="st0" d="M31.8,190c-0.3,1.6,0.4,3,1,4.3c0.6,1.3,1.3,2.5,0.8,3.4c1-0.1,1.8-0.8,2.4-1.7c0.2-0.2,0.3-0.5,0.4-0.8
					c0.1-0.3,0.2-0.6,0.3-1c0.2-0.7,0.4-1.3,0.5-2c-0.3,0.4-0.6,0.6-0.9,0.8c-0.2,0.1-0.3,0.1-0.6,0.1c-0.2,0-0.4-0.1-0.7-0.2
					C34.2,192.5,33.1,191.5,31.8,190z"/>
				<path class="st0" d="M38.4,188.5c-0.4,0.7-0.7,2.2-1.1,3.7C37.9,191.5,38.3,190.3,38.4,188.5z"/>
				<path class="st0" d="M26,168.3c0-0.1-0.1-0.2-0.2-0.4c0,0.1,0.1,0.2,0.1,0.2C25.9,168.1,26,168.2,26,168.3z"/>
				<path class="st0" d="M25.9,168.1L25.9,168.1c-0.1-0.2-0.2-0.5-0.2-0.6C25.7,167.5,25.8,167.8,25.9,168.1z"/>
				<path class="st0" d="M26,168.3L26,168.3C26,168.3,26,168.3,26,168.3z"/>
				<path class="st0" d="M24.1,166.1c-0.4-0.5-0.6-1.1-1.1-1.8c-0.4-0.7-0.9-1.6-2-2.3c0.4,0.8,1,1.4,1.5,2
					C23.1,164.6,23.6,165.3,24.1,166.1z"/>
				<path class="st0" d="M25.2,166.5c-0.2-0.3-0.4-0.5-0.6-0.8c0.4,0.6,0.9,1.7,1.2,2.3C25.6,167.6,25.4,167.1,25.2,166.5z"/>
				<path class="st0" d="M25,165.8c0.1,0.3,0.1,0.5,0.2,0.7l0.2,0.3L25,165.8z"/>
				<path class="st0" d="M33,183.7c0.2-0.5,0.4-0.8,0.5-1.1c0.2-0.3,0.4-0.6,0.6-0.7c0.4-0.3,1-0.5,1.5-0.6c-1.5-1-2.9-1.4-4.3-1.8
					C31.5,181,31.5,183.6,33,183.7z"/>
				<path class="st0" d="M27.6,179.8c0,0.2,0,0.4,0.1,0.6C27.6,179.5,27.5,179,27.6,179.8z"/>
				<path class="st0" d="M42.9,182.2c-0.1-0.3-0.3-0.5-0.4-0.8C42.6,181.6,42.7,181.9,42.9,182.2L42.9,182.2z"/>
				<path class="st0" d="M31,178.5c-1.2-1.1-1.5,0-1.9,1.5c0.3-0.2,0.7-0.4,1.1-0.5c0.4-0.1,0.8-0.1,1.2,0
					C31.3,178.8,31.3,178.3,31,178.5z"/>
				<path class="st0" d="M40.7,186.3c-0.7-1-1.5-1.8-2.2-2.6C39.4,185.3,40.9,187.6,40.7,186.3z"/>
				<path class="st0" d="M28.1,182.8c0,0.1-0.1,0.2-0.1,0c0,0.1,0,0.3,0.1,0.4c0,0.1,0.1,0.1,0.1,0.1c0,0.1,0.1,0.1,0.1,0.2
					c0.1,0.1,0.1,0.1,0.1,0.1C28.3,183.5,28.2,183.2,28.1,182.8z"/>
				<path class="st0" d="M28.1,182.8c0.5-0.6,0.7-1.8,1-2.8c-0.3,0.2-0.6,0.4-0.8,0.6c-0.1,0.1-0.2,0.2-0.4,0.4l-0.1,0.1
					c0,0,0,0.1,0,0l0-0.1c0-0.2,0-0.3-0.1-0.5C27.8,181.2,27.9,182.5,28.1,182.8z"/>
				<path class="st0" d="M32.8,156.1c1.3,3.1,2.1,6-0.4,0.8c0,0.1,0,0.1,0,0.2c0,0.1,0.1,0.2,0.1,0.3c0.1,0.3,0.2,0.6,0.3,0.8
					c0.2,0.6,0.5,1.4,0.8,2.3c0.7,1.8,1.6,4.1,2.6,6.5c2,4.9,4.4,10.4,6.3,14.3c-0.7-1.8-1.4-3.5-1.7-5.4c-0.6-1.2-1.5-2.7-2.4-4.4
					c-0.9-1.7-1.8-3.6-2.2-5.2c0.1-1.2,1.4,2.2,2.7,4.7c-2.4-5.3-1.9-6-4.9-12.7l0.1,1.2C33.7,158.4,33.4,157.3,32.8,156.1z"/>
				<path class="st0" d="M40.7,180.5c-0.1,0.2-0.2,0.3-0.3,0.4c0.2,0.2,0.5,0.5,0.7,0.8c0.2,0.3,0.5,0.7,0.8,1.2
					c0.6,1,1.3,2.3,2.2,3.9c-0.3-2-0.8-3.5-1.3-4.8c-0.6-0.4-1.2-0.7-2-1C40.8,180.9,40.8,180.7,40.7,180.5z"/>
				<path class="st0" d="M37.6,180.7c-0.5-2.5-0.6-4.2-0.9-5.9c-0.3-1.7-0.8-3.5-2.1-6.2c-0.8,0-0.7,1-0.6,2.2
					c0.1,1.2,0.4,2.7,0.1,3.6c1.6-0.3,1.5,0.3,1.5,1.4c0,1.1-0.1,2.8,1.8,4.3c-0.5,0.7-1.1,0.9-1.7,1.1c0.9,0.7,1.8,1.5,2.8,2.5
					c-0.1-0.1-0.1-0.2-0.2-0.3l0,0c0,0,0,0,0-0.1c-0.4-0.6-0.5-1-0.2-0.6c0-0.1,0-0.1,0.1-0.1C37.9,181.9,37.8,181.3,37.6,180.7
					c1.2,1,0.6,1.3,0.4,1.9c0.1,0.2,0.1,0.5,0.2,0.7l0,0.1c0.5-0.4,0.8-0.9,1.2-1.3c0.2-0.2,0.4-0.4,0.5-0.6l0.4-0.5
					c-0.4-0.4-0.8-0.6-1.1-0.6C38.8,180.3,38.3,180.5,37.6,180.7z"/>
				<path class="st0" d="M18.6,156.7c0.2,0.2,0.3,0.3,0.4,0.5C18.9,156.8,18.8,156.6,18.6,156.7z"/>
				<path class="st0" d="M20.2,157.7c0.1,0.4,0.5,1.4,0,1.3c-0.8-0.5-0.7-1.1-1.2-1.9c0.1,0.4,0.1,0.9,0.4,1.4
					c0.2,0.5,0.7,1,1.3,1.4l-0.1-0.4c0.5,0.2,1.4,1.1,2.1,2c0.7,0.9,1.2,1.8,1.2,2C22.7,161.4,21.8,159.7,20.2,157.7z"/>
				<path class="st0" d="M26,167.8c0.9-0.7,1.7-1.5,2.5-2.2c-0.8-1.5-1.5-3-2.2-4.4l0.5,2.6C25.1,162.7,25.9,165.8,26,167.8z"/>
				<path class="st0" d="M43.9,184.4l1.8,4.7c-0.7-2.2-1.4-4.3-2.1-6.4C43.7,183.2,43.8,183.8,43.9,184.4z"/>
				<polygon class="st0" points="45.1,184.3 46.7,188.1 46.1,186 				"/>
				<path class="st0" d="M97.2,57.7c0.1-0.3,0.2-0.5,0.3-0.8C97.3,57.2,97.2,57.5,97.2,57.7z"/>
				<path class="st0" d="M93.8,62.1l0.5,0.4C94.1,62.1,93.9,61.9,93.8,62.1z"/>
				<path class="st0" d="M91.1,129c3.6,1.1,8.9,3.1,5,1l-3.9-1.9C92.6,129,92,129.1,91.1,129z"/>
				<path class="st0" d="M89.3,97.6c-0.3,0-0.6,0-0.9,0c1,0.4,1.9,0.8,2.7,1.2C90.5,98.4,89.9,98,89.3,97.6z"/>
				<path class="st0" d="M77.5,94.3l2.3-0.7C79.1,93.8,78.3,94,77.5,94.3z"/>
				<path class="st0" d="M128.4,48.3c0.6-0.4,1.3-0.9,2-1.3C128.5,46.6,129,47.6,128.4,48.3z"/>
				<path class="st0" d="M71.7,161.7c2.1,0,3.3-0.4,4-1C72.6,160.6,68.8,159.2,71.7,161.7z"/>
				<path class="st0" d="M107.6,67.4c-0.1-0.3-0.3-0.6-0.5-0.8C107.1,67,107.3,67.3,107.6,67.4z"/>
				<path class="st0" d="M77.3,158.3c-0.5-0.1-0.7-0.1-1.2-0.2c0.5,0.7,0.4,1.9-0.5,2.6c1.1,0.1,2.2,0,2.6-0.5
					c0.1-0.1,0.1-0.1,0.2-0.2c0-0.1,0-0.1,0-0.1c0-0.1,0-0.2-0.1-0.4C78.2,159.2,77.9,158.8,77.3,158.3z"/>
				<path class="st0" d="M163.3,30.4c0.1,0,0.2,0.1,0.4,0.1C163.4,30.3,163.3,30.4,163.3,30.4z"/>
				<path class="st0" d="M191.2,18.7c0.1,0.3,0.2,0.7,0.3,1.2C191.6,19.7,191.5,19.3,191.2,18.7z"/>
				<path class="st0" d="M57.3,182.5C56.8,183.3,57.4,183,57.3,182.5L57.3,182.5z"/>
				<path class="st0" d="M45.8,170.8c-0.1-0.5-0.3-1-0.8-1.8C45.4,169.8,45.7,170.4,45.8,170.8z"/>
				<path class="st0" d="M55.2,139.3C55.2,139.3,55.2,139.3,55.2,139.3C54.4,138.9,54.5,139,55.2,139.3z"/>
				<path class="st0" d="M55.3,181.7c0.5,0.2,1,0.4,1.5,0.4C56.5,181.9,56,181.8,55.3,181.7z"/>
				<path class="st0" d="M56.5,183.3c-0.3,0-0.6,0-0.9,0c0.1,0.3,0.3,0.5,0.4,0.6C56.2,183.9,56.4,183.8,56.5,183.3z"/>
				<path class="st0" d="M58.1,181.7c-0.4,0.2-0.8,0.4-1.3,0.4c0.3,0.1,0.5,0.3,0.5,0.4C57.5,182.3,57.6,181.9,58.1,181.7z"/>
				<path class="st0" d="M140.4,26.2c0.1,0.1,0.1,0.1,0.2,0.3C140.7,24.5,140.5,24.9,140.4,26.2z"/>
				<path class="st0" d="M87.2,97.6c0,0.1-0.1,0.1-0.1,0.2c0,0,0,0.1,0,0.1L87.2,97.6z"/>
				<path class="st0" d="M88.9,95.3c-1.1,2.2-1.6,3.1-1.9,3.3c-0.2,0.2-0.1-0.2,0.1-0.8c-1.8,3.5-3.4,7-5,10.6
					C84.5,104.2,86.8,99.8,88.9,95.3z"/>
				<path class="st0" d="M109.3,49.7c-0.4-0.1-0.7-0.2-1.1-0.3l-1.1-0.2c0.9-1.4,1.9-2,2.4-2.4c0.5-0.4,0.4-0.7-0.8-1.2
					c0.1,1.1-0.3,1.7-1,2.3c-0.7,0.6-1.6,1-2.6,1.4c-0.9,0.5-1.9,1-2.5,1.7c-0.6,0.7-0.8,1.4-0.3,2.3c-0.5,0-1.1,0-1.6,0.1
					c0.3-0.2,0.3-0.5,0.6-0.6c-1.7,0-1.7,1-1.6,2c0.1,1.1,0.4,2.2-0.8,3.1c-0.9,0.6-1.9,0.8-1.8-0.1c-0.3,0.8-0.5,1.6-0.6,2.4
					c-0.5,0.5-1,0-0.5-0.5c-0.6,1-1.2,2-1.6,3l-0.1-0.1c0.3,0.7,0.8,2.1,1,2.7c-0.9,0.4-0.2-0.5-0.8-0.6c0,0.6,0.1,1.3,0.2,1.9
					c-1.4,0.1-1.8-1.5-1-2.5c-2.4-0.2-2.4,0.2-2.2,0.9c0.2,0.7,0.5,1.7-1.6,2.5c0.1-0.5,0.2-1,0.2-1.5c-1.5-0.1-2.2,0.2-2.8,0.6
					c-0.6,0.4-1.2,0.9-2.6,1.3c0.6,0,2.1-0.3,3.5-0.4c1.4-0.1,2.5,0.1,2.7,1c-0.6,0.3-1.1,0.7-0.6,1.9c-1.7-0.6-1.7,0.3-2.2,1.3
					l-2.3-0.9c0,1.3,1.2,1.6,1.9,2.6c-0.9,1.1-3.1,0.6-4.9,0.3c-0.9,0.8,0.2,0.8,1.3,0.8c1.1,0,2.3,0.2,1.8,1.3
					c-2,1.2-1.7,2.6-1,5.1c-1.7,0.8-1.7-0.8-2.8-0.6c0.6,0.6,1.2,1.1,1.8,1.7c-0.2,0.2-0.9-0.1-1.3-0.2c0.5,1.1,3.1,1,3.3,2.6
					c1.7,0.7,0.1,1-1.6,1.5c-1.7,0.5-3.6,1.1-1.8,2.5c-1.2,0.1-2.1-0.8-3.6-1c0.8,1.5,1.2,2.2,1.6,2.8c0.5,0.6,1.1,1.2,2.9,2.7
					l-3.4,1c1.8-0.2,3.4,0.2,5,1c1.5,0.8,3,1.9,4.4,2.9c1.7-0.1,3.1-0.1,3.7-0.2c0.6,0.9,1.3,1.7,2,2.6c-0.7,0.1-2.2-0.4-4-1.2
					c0.3,0.2,0.7,0.4,1,0.6c-1.8,0.4-4.3-0.5-6.6-1.6c0.9-0.1,1.9-0.1,2.9-0.2c-2.5-1.1-5.2-2.2-7.7-2.7c0.4,0.2,0.7,0.6,0.9,1
					c-0.7-0.3-1.2-0.5-1.7-0.6c-0.5,0,0.4,0.4,1.3,1l-5.1-0.6l1.9,0.5l-4.4,2.2c2.1,1.5,5.1,3.1,7.7,4.7c2.6,1.6,5.1,3.3,6,5.1
					c-4.1-1.4-6.8-1.2-11.8-2c2.8,0,2.4-0.8,1.5-1.7c-0.8-0.9-2.1-2-1.2-2.8c-0.8,0.8-3,0.2-3.7-0.2c1.1,1.3,2.3,2.6,3.5,3.8
					c-4-0.7-3.3,0.2-5.2,0.7c8.3,0.6,4.7,3.1,7,4.7c-2.9-0.3-5.7-1-4.5-2.4c-3.4,0.4-1.1,1.3,1.4,2.2c2.4,0.9,5.1,1.7,2.2,2.2
					c0-0.4,0.5-0.5-0.9-0.9c2.4,1.2-0.1,3.1-2.5,2.3l0-0.4c-0.3,0.4-0.5,1-0.7,1.6l16.9-13c-0.5-0.3-1.2-0.2-2.1,0.7
					c-0.9,0.9-2.1,2.6-3.4,5.5c0.4-0.9,3.5-8.3,4.2-10.1c-3.5,7.8-8.3,15.4-14.4,22.3c1.9-2.9,4.5-8.1,7.2-12.8
					c2.7-4.7,5.4-9,6.5-10.5c0.2-0.5,0.4-1,0.3-1.2c0-0.2-0.2,0-1,0.9c-0.2,0.5-1.5,2.6-2.8,4.8c-1.2,2.1-2.5,4.2-2.8,4.3
					c1.7-3.5,2.2-4.5,2.6-5.3c0.4-0.8,0.7-1.6,2.6-4.4c-0.4,0.7-2.3,3.1-4.2,5.3c-1.9,2.2-3.8,4.1-3.9,3.7c1.1-1.2,7.1-8.3,7.9-9.1
					c-1.4,1.5-2.8,2.9-4.4,4.2l-19.8,2.9l3.6,3.2c-1.4-1.5-8-4.8-11-5.9c2,0.9-1.4,1.5-0.8,2.5l2.8,0.5c-3,1.2,12.2,10,10.4,11.9
					c-1.9-1.5-12.1-7.9-14.1-7.6c2.4,1.7,8.1,5.8,13.7,10c5.6,4.2,11,8.6,12.5,10.8l-3.2-1.3l2.6,3.5c-3.7-2.8-9.3-7.2-14.6-11.6
					c-5.3-4.4-10.3-8.6-13-11.1c-2.9-0.6-3.6-1.8-4.2-0.5c-3.1-1.2-3.7-3.1-3.6-3.5l-3.8,1.6c6.1,3.4,4.6,5.6,9.8,8.5l-4.2-6.6
					c3.1,1.7,7,4.6,10,7.3c2.9,2.7,4.9,5.1,3.7,5.8c-2.8-0.9-10.7-6.7-12.7-7.9c1.9,1.5,2.8,4.2,1.2,3.5l-2.7-2.8
					c-3.1-0.3,7,6.6,0.2,4.5c-0.7,0.2-8.9-3.3-5.3-1.1c7.6,3.4,29.6,16,34.7,19.6c-0.6-0.1-8.2-1.4-12.1-2.9
					c-6.1-2.5-12.6-8.9-17.8-11c1.7,1,3.5,2.7,4.1,3.2c-1.8-0.4-5.2-3.3-5-1.8c6.2,3.9-1.8,1.9,5.1,3.6c1.2,2.1-2,0.4-2.4,1.8
					c4.3,2,13.3,9.2,14.5,11.3c-1.6-1-3.8-2-4.8-2.4c-1.8,1.8-5.4,1.3-6.5,3.4c-1.6-0.7-3.8-1-6.3-2.9c1,0.9,2.9,2.4,2.8,3
					c-5.6-2.5-0.3-1.6-6.9-4.9c3.5,2.3,4.3,4.2,6,6.5c2.6,1.8,3.1,1.5,2.7,0.5c-0.4-1-1.7-2.6-2.6-3.6c3.8,2.3,7.5,5.1,10.3,7.9
					c2.9,2.9,4.9,5.9,5.6,8.6c0.3,3.6-5-2.7-4.3-1.5c-1.7,1.4,0.6,4.8,2.3,7.8c1.8,3,2.9,5.7-0.6,5c-2.4-1.5-4.1-3.5-5.7-5.6
					c-1.6-2-3-4-4.4-5.4c-0.2-1.5,0.6-1.4,1.7-1c1.1,0.3,2.3,0.8,2.6,0.2c-0.9-0.2-1.8-0.4-2.6-0.6c-1-1.8-1.5-3.7,0-3.1
					c-2.1-1.3-3-0.2-4,1.1c-1,1.3-1.9,3-4.1,2c0.4,1,0.8,2,1.2,3.1c0.2,0.5,0.5,1.1,0.7,1.5c0.2,0.4,0.5,0.8,0.9,1.2
					c0.1-0.4,0.1-0.9,0.2-1.3c1.4,1.4,2,2.9,2.3,4.1c0.4,1.3,0.5,2.3,1.5,2.6c0.3,1.7,0.7,3.8,0.5,5.3c-0.1,1.5-0.8,2.6-2.4,1.7
					c-1-1.7-2.1-3.3-3.1-5c0.4,0.8,1.1,1.4,1.7,1.7c0.3,0.1,0.6,0.2,0.7,0.1c0.2-0.1,0.2-0.4,0.1-0.8c0.3,1.3-1.5-0.2-2.8-1.2
					c-1.4-1-2.3-1.8-1,1.6c0.5,0.6,1,1.3,1.5,1.9l1.6,1.7c0,1.5,0.2,3.4,0.3,5c0.1,1.5,0,2.5-0.9,1.5c1.5,2.9,1.5,2.7,1.5,2.7
					c0.1,0,0.2,0.1,2.1,3.3c-2.2-4-1.5-3.8-0.5-3.9c0.2,0,0.5,0,0.7,0c0.2,0,0.3-0.3,0.4-0.5c0-0.6-0.5-1.5-1.9-3.4
					c1.2,1.7,2.1,2.7,2.7,3.2c0.7,0.6,1.2,0.8,1.7,0.9c0.5,0.1,1.1,0.5,1.8,0.7c0.7,0.3,1.6,0.9,3,2c-1-1.6-2.6-2.7-0.3-2.9
					c-0.2-0.5-0.4-1.2-0.5-1.6c0.1,0,0.1,0,0.2,0c-0.1,0-0.1-0.1-0.2-0.1c-0.1-0.3-0.1-0.3-0.1,0c-0.9-0.5-1.7-1.2-2.4-2
					c-0.4-1.1-0.5-1.9-0.5-2.6c0-0.8,0.1-1.5,0.2-2.1c0.1-0.7,0.3-1.1,0.4-1.7c0.1-0.6,0-1.2-0.2-1.8c1.2,0.1,1,2.1,2.6,3.4
					c-0.2-0.6-0.3-1.2-0.5-1.8l-0.6-1.9c0.7,0.8,1.4,1.5,2.1,2.1c0.8,0.7,1.7,1.4,2.4,2c0.7,0.7,1.3,1.1,1.7,1.8
					c0.2,0.3,0.3,0.6,0.3,0.8c0,0.1,0,0.3-0.1,0.4c-0.1,0.1-0.2,0.2-0.1,0.5c0.3-0.3,1.1,0.1,1.4-0.1l1-0.7c2.7,1,5,0.2,4.5-2.2
					c1.6-0.2-1.7-6.1,0.3-2.6c0.2-1.8,0.2-3.5,0.3-5.3l0.9,0.7c1.4-1.5,1-4.5,1.4-6.8c0.2-1.1,0.6-2.1,1.5-2.8
					c0.5-0.3,1.1-0.6,1.9-0.8c0.4-0.1,0.9-0.1,1.4-0.2c0.5,0.1,1,0.2,1.5,0.3c-0.6-1.3-1.4-2.7,0.6-3.2l3.7,1.9
					c-0.7-1.6,5.3-0.6,1.8-3.1c10.3,4.7,4.8-3.1,7.4-3.8l-4.7-2.8c0.9-1,0.1-2.8-1.1-5.3l-4.2-2.3c-2.7-3.2,4.5-1.4,5-3.6
					c1.5,1,0.8,1.3-0.3,1.1c5.2,1.5,4-0.7,2.6-3.1c-1.4-2.4-3.1-4.8,0.7-4c-1.2-1.4-0.5-1.5,0.6-1.3c0,0.1,0,0.1,0.1,0.3
					c0.1,0,0.1-0.1,0.1-0.2c0.8,0.2,1.7,0.4,2.4,0.5c-1-0.3-1.9-0.6-2.4-0.6c0.1-0.5-0.1-1.4-0.8-2.6l4.3,2.2c0-0.1,0-0.1-0.1-0.2
					c1.8,0.3-1.8-1.6-5-3.1c-0.5-0.7-1.2-1.5-2.1-2.3c6.9,3.4-1.5-2.9,5.9,0.5c-1.7-1.2-1.9-2.4-2.7-3.8l-27.2,4
					c2,0,4.2-0.7,6.9-3.7c-0.6,0.8-0.7,1.4-1.2,1.2c0.3,1.4,0.7,2.8,2.9,1.4c-1,1.7-1.9,3.4-2.8,5.1c2.2-1.7,4.3-3.5,6.3-5.4
					c-0.6,3.6-0.7,5.8-4.4,8.9c3.5-2.1,4.3-2.5,5.2-2.8c0.9-0.3,1.7-0.7,4.3-3.3l-1.4,3.3c0.5,0.1,1.6-0.9,2.5-1.5
					c0.9-0.6,1.5-0.9,1.4,0.5c0.1,2.7,1.9,3.8,4.2,4.3l13.9,3l2.9-15.8c0.4-2.3-0.3-5.6,3.1-7.5c-4.7-0.3-3.6-0.6-2.3-1
					c1.3-0.4,2.8-0.8-0.8-1.4c2.2,0.1,3.3-0.2,5.2,0.7c-1.2-1.2-0.4-1.7-0.1-2.3c0.3-0.6,0.1-1.2-2.7-2.4c2,0.2,3,1,4.1,1
					c-0.5-0.2-1.8-1-0.7-0.9c1.1,0,1.7,0.6,2.6,1.1c-0.8-2.1-6.6-3.5-12.2-4.8c2.7-0.5,2.2-1.1-1.2-2.6c1.8,0,3.5-0.2,4.1,1.2
					c0.1-0.3,0.7-1.3,0.8-2.3c0-1-0.4-2.1-2.3-2.6c1,0,0.3-0.9-0.1-1.3c0.3-1.6,0.7-1.6,0.5-3.3l-0.6,0.3c-4-1.8-0.7-1.6-1-3
					l0.4,0.2c1.6-1.1,1.3-1.5,1.1-1.9c-0.2-0.4-0.3-0.8,1.3-1.8l-2.2-0.5c-2.3-0.9-1.4-1.3-0.2-1.8c1.2-0.5,2.6-1.1,2-2.2l-1.2,0.2
					c-0.6-0.7,1-0.9,2.7-0.9c1.7-0.1,3.5-0.1,3.8-0.5c0.4-0.1,0.5,0.5,0.7,0.9c2.5-1.6-2.3-1.2-2.5-3.2c1.2,0.1,2.9,1.6,3.3,0.4
					c0.5-0.1-0.3-1.4-0.8-2.7c-0.6-1.3-0.8-2.6,0.4-2.8c-0.9,0-1.8-0.1-2.1-1.1c0.1-0.6,1.1-1,1.8-1.4c0.7-0.4,1.1-0.8,0.3-1.9
					c0.2,0,0.4,0.1,0.6,0.2c-0.2-1,0.5-2.5,0-3.8c1,0.8,1.5,1,1.8,0.8c0.2-0.1,0.3-0.2,0.5-0.4c0.1-0.1,0.1-0.2,0.2-0.4l0.2-0.4
					c0.2-0.2,0.3-0.5,0.5-0.7c0.2-0.2,0.4-0.3,0.6-0.4c0.4-0.1,0.7,0.2,1,1.4c0.3-0.1,0.7-0.2,1-0.3c0.3-0.1,0.7-0.1,1.1-0.1l0,0.5
					c1.3,0.4,1.8-0.6,2.4-1.7c0.3,0.4,0,0.9,0,1.1c0.5,0.4,0.8,0.7,1.1,0.9c0.3,0.2,0.5,0.3,0.8,0.3c0.3,0,0.5-0.1,0.9-0.4
					c0.4-0.2,0.8-0.6,1.5-1c-0.2,0.6-0.4,1.2-0.6,1.9c0.4-0.4,0.7,0.8,0.7,2c0,0.6-0.1,1.2,0,1.5c0,0.2,0,0.3,0.1,0.4
					c0.1,0.1,0.3,0,0.5,0c-0.2,0.2-0.6,0.4-0.8,0.6c0.3-0.1,0.3,0,0.2,0.2l-4,8.3l16.7-4.8c1.2-0.4,2.7-0.4,4.2-0.6
					c1.6-0.2,3.1-0.5,4.4-0.9c1.2-0.5,2.3-1.2,2.5-2.2c0.2-1-0.3-2.2-1.9-3.9c-0.1-1.2-0.1-2.6-0.8-3.4c-0.2,0.2-0.4,0.2-0.7,0.2
					c-0.3,0.1-0.6,0-0.9-0.1c-0.5-0.2-1-0.7-1.4-1.2c-0.5-0.5-0.9-1.1-1.4-1.5c-0.5-0.4-1-0.8-1.6-0.8c0-0.7,1.1-0.8,2-0.5
					c1,0.3,1.9,1,1.9,1.6l-0.5-0.2c2.3,1.9,3.1,1.7,3.6,1.3c0.5-0.4,0.8-0.9,2.3,0.6c0.5-1.6,1.6-2.5,2.6-2.9c1-0.5,2-0.5,2.8-1.2
					c-0.8-1.9-1.6-3.9-2.5-5.8c0.3-0.2,0.5-0.4,0.8-0.5c0.7,1.2,1.8,4.7,1.4,4.9c0.7,1.6,0.6,0.7,0.3-0.8c-0.3-1.5-0.8-3.7-1-4.4
					c0.9,0.8,1.3,2.8,1.6,4.6c0.3,1.7,0.5,3.2,0.6,3.2l0.1-0.8l-0.3-0.7c-0.5-2.9-1.2-5.9-0.4-6.1c0.7,1,1.1,4.1,1.3,4.2
					c0.1,0.5,0.2,0.7,0.3,0c0.3,0,0.6,0.1,1,0.1c-0.4-1.8-0.8-3.7-1.2-5.5c0.1-3,1.2-0.3-0.2-6.4c1.1,4.7,2.3,5.2,3.5,5.3
					c0.3,0,0.6,0,0.9,0c0.3,0,0.5,0,0.8,0.1c0.4,0.2,0.8,0.5,0.8,1.3c1.2-3.8,2-3,2.6-1.6c0.1-1.3,1.2-7.5,1.8-5.7
					c-1.1,4.1-1.4,6.2-1.5,7.5c-0.1,1.3,0.1,1.9,0.1,2.9c0,0.6-0.1,1.1-0.2,1.9c-0.1,0.8-0.4,1.7-0.7,2.9c0.7-2.8,1.1-2.7,1.6-2.8
					c0.5-0.1,1.2-0.5,2.2-4.3c0.1,0.8-0.3,1.7-0.8,2.8c-0.5,1.1-1,2.4-1.4,3.8c0.8-0.8,1.2-0.6,1.5-0.1c0.1,0.1,0.1,0.2,0.2,0.4
					c0.2,0.2,0.4,0.5,0.5,0.7l0.1,0.2l0.1,0.1l0,0l0.1,0.1l0.8,0.6c0.6,0.4,1.1,0.7,1.7,1.1l4.8,2.9l11.4-6.8c0.8-0.5,1.6-1,2.3-1.7
					c0.7-0.7,1.2-1.5,1.4-2.5c-1-0.8-2.9-1.4-3.9-3.3c2,0.6,4.1,1.1,6.1,1.5c-0.1-1.2-5.4-4.7-1.3-3.8c-0.9-0.3-2.3-0.9-2.4-1.6
					c0.5-0.3,1-0.6,1.4-1c0.4-0.4,0.7-0.8,1-1.2c0.6-0.9,1-1.9,1.3-2.9c0.6-2.1,0.7-4.4,0.9-6.5c0.1-1.1,0.1-2.2,0.3-3.2
					c0.1-1.1,0.3-2.1,0.5-3.1c0.2-1,0.5-2,0.8-3c0.3-1,0.7-1.9,1-2.9c-0.8,1-1.1,0.2-1.3-0.7c-0.1,0.5-1.3-0.2-2-0.3
					c0.6-1,0.9-2,1.1-3.1c-0.8-0.4-1.1-1.3-1.4-2.1c-0.2-0.8-0.6-1.6-1.1-1.8l0.5,1c-0.8-0.7-1.2-0.3-2.1,0.2c-0.8,0.5-2,1.1-3,0.9
					c0.6,0.7-0.3,1.6-1.5,2.3c-1.2,0.8-2.7,1.5-1.2,2.9c-0.9,0.3-0.8-0.6-1.7-0.5c1,0.7,1.1,1.5-0.3,2.3l-0.3-0.2
					c-1.6,2.9-4.1,3.6-8.1,5.4l2.6,0.9c-0.9,0.4-1.7,0.2-2.6,0.1c3.1,2.5,1.7-1.4,5.2,1c-2.8-0.7-3.7,0.3-4.7,1.1
					c-1,0.9-2.1,1.6-5.4-0.1c-0.9,0.6,3.3,1.7,2.4,2.4l-1.9-0.9l1.9,1.6c-0.9,0.3-3.3-1-4.7-1.9c0.3,0,0-0.5,0-0.7
					c-1.4-0.4-1.7,0-1.8,0.5c-0.1,0.5,0,1.1-0.5,1c0.6,0.1,1.3,0.2,1.9,0.3c-0.2,0.6-0.6,1.1-1,1.6c-0.5,0.4-1.1,0.8-1.6,1.2
					l15.4,2.9c0,0,0,0,0,0l0,0l0,0l0,0l0,0c1.7-3.1-3.8,7,3.8-7l0,0l0,0l0,0l0.1-0.3l0.3-1.3c0.9-2.2-0.4-2.3-1-2.9
					c-1.6-0.7-3.1-1.5-4.8-0.8l-0.5,2.3c-1.8,0.5-2.2-0.3-2.4-1.3c-0.1-0.5-0.2-1.2-0.4-1.8c-0.1-0.3-0.2-0.6-0.3-0.9
					c-0.1-0.3-0.3-0.5-0.5-0.7c-0.3-0.3-0.6-0.5-1-0.6l0.2-0.4c-1.1,1.6-2.1,2-2.8,1.2c0.6-0.9,0.6-2.3,0.5-3.7
					c-0.1-1.4-0.2-2.8,0.6-3.8c-2.1,1.1-2.6,1.4-3.1,2.6c-0.5,1.1-0.9,2.7-2.5,5.9c0-1.2-0.1-2.4-0.1-3.5c-0.6,1.3-0.9,2.4-1.3,3.2
					c-0.2,0.4-0.4,0.7-0.7,0.9c-0.1,0.1-0.3,0.2-0.5,0.3c-0.2,0.1-0.4,0.2-0.6,0.2c0.8-1.3,0.6-2.6,0.4-4c-0.2-1.4-0.4-2.9,0.7-4.7
					c-1-2-2-2.5-2.9-2.4c-0.4,0.1-0.9,0.2-1.3,0.5c-0.4,0.3-0.7,0.7-1.1,1.1c-0.7,0.7-1.2,1.4-1.8,1.3c-0.6-0.2-1.1-1.2-1.9-3.7
					c-0.6,4.8,0.5,5.9,1.5,6.1c1,0.2,2.1-0.5,1.6,0.6c0.5,1.5,0.1,3.2-0.4,4.5c-0.3,0.7-0.6,1.2-0.9,1.6c-0.3,0.4-0.6,0.5-0.9,0.4
					c-0.3,0-0.6-0.7-1-1.7c-0.4-1-0.9-2.4-1.4-3.7c-0.6-1.3-1.2-2.6-2-3.5c-0.7-0.9-1.6-1.4-2.4-0.9c0.3-0.1,0.2-0.8,0.5-0.9
					c-0.8-0.9-1.3,0.2-1.8,1.1c-0.5,0.9-1,1.7-2.2,0.1c0.4,3-0.1,3.3-0.4,3.6c-0.3,0.4-0.5,0.9,0.5,4.5c0.6-1.1,1.3-2.3,2-3.3
					c-0.5,1.3-0.5,4.4-0.6,6.8c-0.1,2.4-0.4,4.1-2,3c-0.4-1.6-0.6-4-0.5-5.4c-1.4-1.6-0.6,2.4-2,0.9c-1.3-3.6-0.7-4.7,0.1-5.6
					c0.4-0.4,1-0.9,1.3-1.6c0.4-0.7,0.7-1.7,0.8-3.3c-0.8-1.2-1.3,0.5-1.7,1.7c-0.3,1.1-0.7,1.5-1.6-2.7c0.5,2.7,0.6,4,0.4,4.8
					c-0.2,0.7-0.6,0.8-1.1,0.8c-0.5,0-1.1,0-1.4,0.6c-0.3,0.6-0.5,1.6,0,3.9l-1.8-4.3c0,1,0.4,3.5-0.1,3.9c-0.6-2.1-1.2-4.2-1.7-6.4
					c0.3,3.1-0.8,2.8-2.2,2.2c-0.7-0.3-1.4-0.5-1.9-0.5c-0.5,0.1-0.9,0.4-0.9,1.5c1.3-1.9,2.2-0.8,3,0.9c0.8,1.7,1.7,3.9,3,4.8
					c0,2.3-0.3,3-1,2.8c-0.7-0.2-1.8-1.3-2.9-2.4c-1.2-1.2-2.4-2.3-3.6-2.7c-0.6-0.2-1.1-0.2-1.6,0.1c-0.5,0.2-1,0.7-1.4,1.6
					c0.1-0.6,1.1-0.7,2-0.3c0.9,0.4,1.8,1.3,2.1,2.7c-0.6,0.1-1.4,0.1-2.4-0.1c-0.2,0-0.5-0.1-0.7-0.2c-0.2,0-0.4-0.1-0.7-0.1
					c-0.5-0.1-0.9-0.3-1.4-0.6c-0.4,1.3-0.4,2.1-0.1,2.7c0.3,0.6,0.8,0.9,1.3,1.2c1.1,0.6,2.5,1.1,3,3c-2.1-1.4-2-0.4-1.2,1.2
					c0.7,1.6,2.1,3.9,2.4,5.4l-3.2-3.1c-1,0.8-1,1.7-0.7,2.5c0.3,0.9,1.1,1.7,1.9,2.6c0.8,0.8,1.5,1.6,1.9,2.3
					c0.4,0.7,0.3,1.3-0.6,1.9c-1.4-1.7-2.7-3.6-4.1-5.6l0.7,3.5c-1.2-1.1-2.4-2.2-3.6-3.3c0.1,0.3,0.3,0.6,0.4,0.9
					c0.2,0.3,0.4,0.6,0.5,0.9c0.3,0.6,0.6,1.1,0.8,1.5c0.4,0.9,0.7,1.6,0.8,2.1c0.3,0.4,0.5,0.6,0.6,0.9c0.1,0.1,0.2,0.3,0.3,0.4
					c0,0.1,0.1,0.2,0.1,0.2c0,0-0.1,0-0.1,0c0.8,0.6,1.9,1.4,2.8,2.1c0.9,0.8,1.5,1.6,1.4,1.9c-1.3-0.7-2-2-1.7-0.9
					c-0.6-0.7-1.3-1.5-1.7-1.9c-0.4-0.4-0.4-0.4,0.6,0.3c-0.7-0.6-1.4-1.3-2.2-1.9c-0.3-0.2-0.5-0.3-0.5-0.3c0,0,0,0,0.1,0.1
					l0.3,0.3c0.1,0.1,0.2,0.3,0.3,0.3c0.1,0.1,0.1,0.1,0.2,0.2c0.1,0.1,0.2,0.2,0.3,0.3c-0.2-0.2-0.1-0.1,0.1,0.1
					c1.1,1.2,1.9,2.5,2.4,3.9c-0.6-0.6-0.9-1.4-1.3-2.2c0.2,0.4,0.8,1.5,0.8,2.1l13.3,3.7c0,0,0,0-0.1-0.1c0.2-0.1,0.3-0.1,0.5-0.2
					l-13.9-3.9c-0.4-0.8-0.8-1.7-1.2-2.4c-0.1-0.2-0.3-0.5-0.4-0.8c0,0,0,0.1,0.1,0.1l-0.1-0.1l0-0.1l0.2,0.3l18.3,5.1
					c-1-0.5-2-0.9-2.9-1.3c0.4-0.8-0.5-3.1,0.6-3.2c-0.4-0.6-1.2-1.1-2.2-1.3c-0.9-0.2-2-0.3-3-0.4c-1-0.1-2.1,0-2.9-0.2
					c-0.9-0.2-1.7-0.4-2.3-0.8c-0.3,0.2-0.7,0.4-1.4,0.4c-0.7-0.3-1.3-0.5-1.9-0.8c-0.6-0.3-1.2-0.6-1.9-0.8
					c-1.3-0.4-2.8-0.4-4.4,0.6c-0.5-0.8-1-1.5-1.6-2.3c-1.3,0.4-0.7,1-0.3,1.8c0.4,0.8,0.4,1.5-1.4,2.1c-2.6,1-1.1-1.8-2.1-2.3
					c-0.7,0.7-1.5,1.7-2.5,2.4c-1,0.8-2,1.1-3.5,0.8C107.9,49.9,108.6,50,109.3,49.7z M90.8,68.4c-0.1-0.5-0.7-1.6,0.4-1.5
					C92.7,68.1,91.7,68,90.8,68.4z M82,99.2c-1-0.5-0.3-0.9,1.1-1.1C83.3,98.5,83.1,98.9,82,99.2z M62,174.1c0-0.1-0.1-0.1-0.1-0.2
					C64.1,174.4,63.3,174.1,62,174.1z M58.7,174.4c0.2,0.7,0.7,1.2,1.2,1.7c-0.6-1.1-0.3-1.6,0.4-1.8
					C59.4,173.4,58.6,173,58.7,174.4z M152.3,52.5l-0.4-1.1C152,49.9,152.1,51.2,152.3,52.5z"/>
				<path class="st0" d="M78.9,94.7c0.6,0,1.2,0.1,1.8,0.2C80.2,94.7,79.6,94.5,78.9,94.7z"/>
				<path class="st0" d="M128.1,48.6C128.1,48.6,128.1,48.6,128.1,48.6c0.2,0,0.3-0.1,0.3-0.2L128.1,48.6z"/>
				<path class="st0" d="M41.1,122.8c0.8,0.1,1.8,0.4,2.7,0.7C42.7,122.9,41.7,122.5,41.1,122.8z"/>
				<path class="st0" d="M50.7,188.1c0.3-0.4,0.6-1,1-1.6c-0.7,0.5-1.3-0.3-2-0.9C50.1,186.6,51.1,188,50.7,188.1z"/>
				<path class="st0" d="M31,155.4c0,0.2,0,0.1-0.1,0.1c-0.1,0-0.1-0.1-0.1,0.2l0.9,2.5c0.3,0.1,0.3-0.2,0.2-0.8
					c-0.1-0.3-0.2-0.6-0.4-1c-0.1-0.2-0.2-0.4-0.3-0.6C31.2,155.7,31.1,155.5,31,155.4z"/>
				<path class="st0" d="M42.7,174.1c-1.8-3.6-1.9-2.6-2.1-2.2c0,0,0,0,0.1,0.1C42.9,177.1,42.7,175.6,42.7,174.1z"/>
				<path class="st0" d="M40.5,171.9c-0.1,0.1-0.2,0.1-0.5-0.2C41,173.8,40.4,172.3,40.5,171.9z"/>
				<path class="st0" d="M57.6,178.2c-1-0.4,2.6,4.3,1.5,3.3c0.6,1.1,0.9,1.2,0.9,0.8c0-0.2,0-0.6-0.1-1c-0.1-0.4-0.1-0.8-0.3-1.3
					c-0.2-0.9-0.7-1.9-1.1-2.3c-0.2-0.2-0.4-0.3-0.5-0.2C57.8,177.5,57.7,177.7,57.6,178.2z"/>
				<path class="st0" d="M36.6,162l2.3,4.6l-1.3-3.4C37.3,162.9,37,162.4,36.6,162z"/>
				<path class="st0" d="M44.4,164.6c-0.6-0.1-1.2-0.2-1.8-0.3c0.4,0.7,0.5,1.2,0.5,1.6C43.9,165.5,45.1,165.7,44.4,164.6z"/>
				<path class="st0" d="M43,165.8c-0.4,0.1-0.8,0.3-0.7,1C42.5,166.7,43,166.4,43,165.8z"/>
				<path class="st0" d="M37.5,161.3c0.3,0.4,0.6,0.7,0.9,1.1c0.4,0.2,0.7,0.3,1.1,0.4C38.8,162.4,38.1,161.9,37.5,161.3z"/>
				<path class="st0" d="M53.7,152.9c-0.1-0.8-0.2-1.5-0.4-2.3c-1.4-1.2-2.5-1.5-2.2-0.6C52,151.1,52.2,152,53.7,152.9z"/>
				<path class="st0" d="M40.9,146.8c0.9,0.5,1.8,1.3,3.1,2.4l-4.7-4.6C39.9,145.3,40.4,146.1,40.9,146.8z"/>
				<path class="st0" d="M41.3,143.1c-1.3-1.3-3.5-4.3-3.6-3.1C39,141.2,39.7,143,41.3,143.1z"/>
				<polygon class="st0" points="58.1,130.1 58,130.4 67.4,135.9 				"/>
				<path class="st0" d="M46.5,101.6c-3.2,0.1,5.2,3.5,1.6,3.2c1.9,1.5,2.9,0.3,4.5,1.6C51,104.3,52.6,104.6,46.5,101.6z"/>
				<path class="st0" d="M52.6,106.5c0.3,0.3,0.6,0.7,1.1,1.2C53.3,107.1,53,106.7,52.6,106.5z"/>
				<path class="st0" d="M190.9,14.3c-0.1-0.4-0.1-0.8-0.3-1.2c0,0.3,0,0.5-0.1,0.7L190.9,14.3z"/>
				<path class="st0" d="M188.7,12c0.2-0.1,0.5-0.2,0.7-0.2c-0.4-0.2-0.7-0.5-1-0.7C188.4,11.3,188.7,11.8,188.7,12z"/>
				<path class="st0" d="M84.6,69.4l0.5,0.3c0.7,0.1,0.9-0.1,1.3-0.6L84.6,69.4z"/>
				<path class="st0" d="M97.1,54.9l-0.3,0.3c0.6,0.2,1.2,0.5,1.8,0.7L97.1,54.9z"/>
				<path class="st0" d="M114.5,44.5c-0.8,0-1.7,0.6-2.6,0.7C113.7,44.5,114.8,46.9,114.5,44.5z"/>
			</g>
		</g>
	</g>
</g>
<path class="st1" d="M167.3,32.6c0.6-0.6,0.9-1.5,0.8-2.3c-0.1-0.9-0.7-1.5-1.5-2c-12.1-5.7-26.6-3.2-36.1,6.3
	c-9,9.1-12.1,23.3-8,35.2l-61.2,61.2c-3.3-1.2-6.9-1.8-10.6-1.8c-9.1,0-18,3.6-24.2,9.9c-9.5,9.5-12.1,23.6-6.8,35.8
	c0.3,0.8,1.1,1.4,2,1.5s1.8-0.1,2.4-0.8l18.6-18.6c1.2-1.2,3.2-1.4,4.2-0.3l8,8.4c1.2,1.2,1.1,3-0.1,4.2L36.2,188
	c-0.6,0.6-0.9,1.5-0.8,2.3c0.2,0.9,0.7,1.5,1.5,2c4.4,2.1,9.1,3.1,13.8,3.1c8.4,0,16.2-3.3,22.3-9.4c9-9.1,12.1-23.3,8-35.2
	l61.2-61.2c3.3,1.2,6.9,1.8,10.6,1.8c9.1,0,18-3.6,24.2-9.9c9.5-9.5,12.1-23.6,6.8-35.8c-0.3-0.8-1.1-1.4-2-1.5
	c-0.9-0.2-1.7,0.1-2.4,0.8l-18.6,18.6c-1.1,1.1-3.1,1.1-4.3-0.1l-8-8c-1.2-1.2-1.2-3,0-4.2L167.3,32.6L167.3,32.6z M144.9,59.2l8,8
	c3.2,3.2,8.6,3.2,11.8,0.1l15.6-15.7c2.5,9.2-0.1,19.2-7,26.2c-5.3,5.3-12.7,8.4-20.4,8.4c-3.6,0-7.1-0.7-10.2-2.1
	c-1-0.4-2.1-0.2-2.9,0.6L76,148.4c-0.8,0.8-1,1.9-0.6,2.9c4.3,10.2,1.6,23.3-6.2,31.1c-7,7-17.2,9.6-26.4,6.7l15.7-15.7
	c3.3-3.3,3.3-8.5,0.2-11.6l-8-8.4c-3.1-3.1-8.6-2.9-11.8,0.3l-15.7,15.6c-2.5-9.2,0.1-19.2,7-26.2c5.3-5.3,12.7-8.4,20.4-8.4
	c3.6,0,7.1,0.7,10.2,2.1c1,0.4,2.1,0.2,2.9-0.6l63.7-63.7c0.8-0.8,1-1.9,0.6-2.9c-4.3-10.2-1.6-23.3,6.2-31.1c7-7,17.2-9.6,26.4-6.7
	l-15.7,15.7C141.6,50.8,141.6,55.9,144.9,59.2L144.9,59.2z M171.8,188.2c-1.2,1.2-3.2,1.2-4.4,0l-53.3-53.1c-1-1-2.7-1-3.8,0
	c-1,1-1,2.7,0,3.8l53.3,53.1c1.6,1.6,3.7,2.5,6,2.5l0,0c2.2,0,4.4-0.9,6-2.5l7.6-8c3.2-3.2,3.2-8.5,0-11.7l-53.1-53.1
	c-1-1-2.7-1-3.8,0c-1,1-1,2.7,0,3.8l53.1,53.1c1.2,1.2,1.2,3,0,4.3L171.8,188.2L171.8,188.2z M47.8,42.2l-15.9-16c-1-1-2.7-1-3.8,0
	L17.5,36.9c-1,1-1,2.7,0,3.8l15.9,15.9c0.5,0.5,1.2,0.8,1.9,0.8c0.7,0,1.4-0.3,1.9-0.8l3.4-3.4l40.6,40.6c0.5,0.5,1.2,0.8,1.9,0.8
	c0.7,0,1.4-0.3,1.9-0.8c1-1,1-2.7,0-3.8L44.4,49.4l3.4-3.4C48.8,44.9,48.8,43.2,47.8,42.2z M35.3,50.9L23.1,38.8L30,32l12.1,12.1
	C42.1,44.1,35.3,50.9,35.3,50.9z"/>
</svg>
