<?xml version="1.0" encoding="utf-8"?>
<!-- Generator: Adobe Illustrator 24.0.2, SVG Export Plug-In . SVG Version: 6.00 Build 0)  -->
<svg version="1.1" id="Layer_1" xmlns="http://www.w3.org/2000/svg" xmlns:xlink="http://www.w3.org/1999/xlink" x="0px" y="0px"
	 viewBox="0 0 198.4 198.4" style="enable-background:new 0 0 198.4 198.4;" xml:space="preserve">
<style type="text/css">
	.st0{fill:#F3EFA1;}
	.st1{fill:#656565;}
</style>
<g>
	<g>
		<g>
			<g>
				<g>
					<path class="st0" d="M104.7,191.8c-0.3-0.3-0.1,0.2-0.2,0.3C105.1,192.4,104.7,191.6,104.7,191.8z"/>
					<path class="st0" d="M109.6,191.7l0.1,0.4c0.1-0.3,0.2-0.7,0.2-1.1C109.9,191.3,109.8,191.5,109.6,191.7z"/>
					<path class="st0" d="M114.8,191.1c-1.2-1.2-1.5-0.9-1.8-0.5s-0.6,1-1.3,0.6l-0.4-0.5c0.2,0.6,0.4,1.2,0.6,1.8
						c0.5-0.2,1-0.6,1.4-1C113.7,191.1,114.2,190.8,114.8,191.1z"/>
					<path class="st0" d="M123.1,195.5c-1.2-0.9,0.1-1.1-1.3,0c0.2,0.1,0.3,0.1,0.4,0.2C122.4,195.6,122.6,195.6,123.1,195.5z"/>
					<path class="st0" d="M122.2,195.7C121.4,196,123.5,196.4,122.2,195.7L122.2,195.7z"/>
					<path class="st0" d="M125.4,193.6c0,0.5,0,1-0.1,1.4c0.9,0.5,2.1,0.1,2.2,0.7C128.2,194.6,127.2,194.2,125.4,193.6z"/>
					<path class="st0" d="M124.1,191.2v0.7C124.5,192.1,124.7,192.1,124.1,191.2z"/>
					<path class="st0" d="M123.9,193.3c0.1-0.5,0.1-0.9,0.2-1.4c-0.6-0.3-1.6-1.1-0.1,0.6C123.1,191.6,123.8,192.5,123.9,193.3z"/>
					<path class="st0" d="M122.9,193.2c-1.2-0.3-2.2-0.4-2.2-1.7c-0.6,0.6-0.5,1.2,0,1.7C121.2,193.6,122.1,193.8,122.9,193.2z"/>
					<path class="st0" d="M113.1,188.4l-1-0.5c0.1,0.3,0.2,0.7,0.2,1C112.2,188.4,113.7,189.2,113.1,188.4z"/>
					<path class="st0" d="M134.1,189.2c-0.8-0.5-2.7-0.7-3.9-1.1c0.1,0.4,0.2,0.8,0.3,1.3C131.4,189.3,132.7,188.7,134.1,189.2z"/>
					<path class="st0" d="M130.2,188.1c-0.2-0.6-0.4-1.3-0.6-1.9C128.6,187.2,129.2,187.7,130.2,188.1z"/>
					<path class="st0" d="M120.7,188.4c0.4,1,0.7,1.9,0.9,2.9c-0.1-1-0.3-2-0.7-3.1L120.7,188.4z"/>
					<path class="st0" d="M138.1,182.7c0.7,0.5,1.3,1,1.9,1.6c-0.9-0.9-1.8-1.8-2.8-2.7C137.5,182,137.8,182.4,138.1,182.7z"/>
					<path class="st0" d="M139.3,177.6c1,0.4,1.9,0.2,2.8-0.1c0.9-0.3,1.7-0.7,2.2-0.1c0-1.7-1.7-3-3.3-3.9
						C141.9,174.5,141.4,176,139.3,177.6z"/>
					<path class="st0" d="M138.6,171.8c0.5,0.5,1.4,0.9,2.4,1.5C140.6,172.8,139.9,172.2,138.6,171.8z"/>
					<path class="st0" d="M131.5,184.1c0.7,0.1,2.4,0.3,3.5-0.5c-1.1,0-2.1,0-3.2-0.1C131.7,183.7,131.6,183.9,131.5,184.1z"/>
					<path class="st0" d="M131.7,183.5h0.1c0.4-0.6,0.7-1.1,0.8-1.3C132.5,182.4,132.3,182.8,131.7,183.5z"/>
					<path class="st0" d="M131.4,184.2c0-0.1,0.1-0.1,0.1-0.1C131.2,184,131.1,184,131.4,184.2z"/>
					<path class="st0" d="M124.8,187.7c-0.4-0.6-0.7-1.4-1.3-2c-0.6-0.6-1.5-1-2.9-1.1c0.7,0.6,1.4,0.9,2.1,1.3
						C123.4,186.4,124.2,186.8,124.8,187.7z"/>
					<path class="st0" d="M127.6,183.8c-0.5,0.4-0.9,0.7-1.4,1c0.7,0.3,1.9,0.4,2.4,1C128.3,185.1,128,184.5,127.6,183.8z"/>
					<path class="st0" d="M127,182.9c0.2,0.3,0.4,0.6,0.5,0.9l0.5-0.4L127,182.9z"/>
					<path class="st0" d="M135.3,175.7c-1.3-0.8-1.4-1.6-1.5-2.5c-0.7,1.2-1.1,2.2-1.2,3.2C133.5,176.5,135.3,176.9,135.3,175.7z"/>
					<path class="st0" d="M133.6,179.7c-0.1-0.1-0.1-0.1-0.1-0.2C133.2,179.6,133.1,179.7,133.6,179.7z"/>
					<path class="st0" d="M132.6,164c-0.2,0.1-0.4,0.3-0.5,0.4c0.2-0.1,0.4-0.2,0.6-0.2L132.6,164z"/>
					<path class="st0" d="M131.9,176.5c-0.7,0.7,0,1.1,0.8,1.6c-0.2-0.6-0.3-1.2-0.2-1.8C132.1,176.3,131.8,176.3,131.9,176.5z"/>
					<path class="st0" d="M137,169.1c-0.7,0.6-1.2,1.3-1.7,1.9C136.3,170.4,137.9,169.1,137,169.1z"/>
					<path class="st0" d="M134.4,179.3l0.1,0.1C135.2,179.2,134.9,179.2,134.4,179.3z"/>
					<path class="st0" d="M134.4,179.3c-0.3-0.4-1-0.8-1.6-1.1c0.1,0.5,0.4,0.9,0.7,1.3C133.7,179.4,134.1,179.4,134.4,179.3z"/>
					<path class="st0" d="M111.5,173.8c1.5-0.9,3-1.6,3.7-1.7c0.8-0.1,0.8,0.3-0.6,1.3c1.2-0.3,4.3-1.4,7.7-3.1
						c3.4-1.6,7.1-3.8,9.7-5.9c-1.3,0.6-2.5,1.1-4.7,0.8c-0.7,0.7-1.4,1.9-2.3,2.9s-2.1,1.8-3.6,2c-2-0.4,0.7-1.5,1.9-3.1
						c-1.7,1.3-3.2,1.7-4.9,2.3c-1.7,0.6-3.6,1.5-6.1,3.4c0.7-0.3,1.5-0.5,2.2-0.7C113.6,172.5,112.2,173.2,111.5,173.8z"/>
					<path class="st0" d="M132.5,167.6c0.2,0.2,0.3,0.4,0.5,0.6c0.4-1,1.5-2,3.6-4.2c-1.8-0.7-3-0.3-4,0.1c0.2,1.1,0.3,2.4,0.4,3.5
						L132.5,167.6z"/>
					<path class="st0" d="M133.3,171.4c-1.7,0.1-2.9-0.2-4.1-0.1c-1.3,0-2.5,0.3-4.3,1.1c0.4,1.4,2.9,0.4,4.3,1.2
						c-0.4-1.4,0-1.3,0.8-1.1c0.8,0.1,2,0.4,2.9-1c0.6,0.5,0.8,1.1,0.9,1.7c0.4-0.7,0.9-1.4,1.5-2.1c-0.1,0-0.1,0.1-0.2,0.1l0,0
						c0,0,0,0-0.1,0c-0.4,0.2-0.7,0.3-0.4,0.1c0,0-0.1,0-0.1-0.1C134.1,171.3,133.7,171.4,133.3,171.4c0.6-1.2,0.9-0.4,1.3-0.1
						c0.2,0,0.3,0,0.5-0.1l0,0c-0.6-1.1-1.4-2.1-2.1-3C132.6,169.1,132.8,169.8,133.3,171.4z"/>
					<path class="st0" d="M115.8,181.4c0.2,0.1,0.4,0.1,0.6,0.2C116.2,181.4,115.9,181.3,115.8,181.4z"/>
					<path class="st0" d="M117.6,181.5c0.3,0.2,1.3,0.8,0.8,1c-0.9-0.1-1.2-0.6-2-0.9c0.6,0.4,1.4,1.5,3,1.4l-0.3-0.3
						c0.6-0.1,1.8,0,3,0c1.2,0.1,2.3,0.1,2.4,0.3C122.2,182.5,120.5,182.2,117.6,181.5z"/>
					<path class="st0" d="M124.8,178.6c-0.4-0.7-0.8-1.3-1.2-1.9c-1,0.3-1.9,0.6-2.9,0.9h1.7C121.5,178.5,123.5,178.4,124.8,178.6z"
						/>
					<path class="st0" d="M134.1,162.9c1.2-0.5,2.4-0.9,3.5-1.3c-1.8,0.2-3.6,0.5-5.3,0.9C132.9,162.5,133.5,162.7,134.1,162.9z"/>
					<path class="st0" d="M132.4,159.6l2.9-1.8c-0.7,0-1.4,0.1-2.1,0.2L132.4,159.6z"/>
					<path class="st0" d="M83.3,124.9l-1.3-0.2C82.3,124.8,82.8,124.8,83.3,124.9z"/>
					<path class="st0" d="M83.3,125.6l2.3,0.2C84.3,125.6,83.4,125.5,83.3,125.6z"/>
					<path class="st0" d="M93.1,155.1c-0.1,0-0.2,0-0.3,0l0,0l0,0h0.1C93,155.1,93.1,155.1,93.1,155.1z"/>
					<path class="st0" d="M104.2,142.2c-0.5-0.2-0.9-0.4-1.4-0.6c0.7,0.4,1.4,0.8,2,1.1c0.2,0.1,0.2,0.1,0.3,0.2l0.2,0.2
						c0.2,0.1,0.3,0.2,0.5,0.3C105.4,143.1,105.3,142.9,104.2,142.2z"/>
					<path class="st0" d="M86.2,133.4c1,0.4,2,0.8,3.1,1.2C88.2,134.1,87.2,133.7,86.2,133.4z"/>
					<path class="st0" d="M75.7,122.7l-4.1,0.5C71.7,123.2,73.7,122.9,75.7,122.7z"/>
					<path class="st0" d="M111.4,141.3c0.1-1.9,0.1-2.8-0.1-3.1C110.9,140.9,110,144.8,111.4,141.3z"/>
					<path class="st0" d="M118.8,127.9c-0.4-0.2-0.7-0.3-1-0.3C118,127.7,118.4,127.9,118.8,127.9z"/>
					<path class="st0" d="M110.2,137.7c-0.1,0.5-0.1,0.7-0.2,1.1c0.5-0.6,0.9-1.1,1.2-0.6C111.5,136.2,111.5,134.8,110.2,137.7z"/>
					<path class="st0" d="M87.7,77.9c0.1,0,0.2,0,0.4,0.1C87.8,77.8,87.7,77.8,87.7,77.9z"/>
					<path class="st0" d="M112.9,77.3c0.1,0.2,0.2,0.4,0.2,0.7C113.2,77.9,113.1,77.7,112.9,77.3z"/>
					<path class="st0" d="M125.7,147.1C126.4,147.4,126.1,146.8,125.7,147.1L125.7,147.1z"/>
					<path class="st0" d="M117.7,161.8c-0.4,0.3-0.8,0.7-1.4,1.4C116.9,162.5,117.4,162.1,117.7,161.8z"/>
					<path class="st0" d="M98.9,164.1L98.9,164.1C98.7,165,98.7,164.8,98.9,164.1z"/>
					<path class="st0" d="M125.3,149.4c0.1-0.6,0.2-1.1,0.1-1.6C125.4,148.1,125.3,148.6,125.3,149.4z"/>
					<path class="st0" d="M126.4,147.7c0.1,0.3,0.1,0.5,0.2,0.8C127.1,148,127.3,147.6,126.4,147.7z"/>
					<path class="st0" d="M124.9,146.6c0.3,0.2,0.5,0.6,0.6,1.1c0.1-0.3,0.2-0.5,0.3-0.6C125.5,147,125.3,146.9,124.9,146.6z"/>
					<path class="st0" d="M82.3,100.5c0.1,0,0.2,0,0.4,0.1C81.3,99.5,81.5,99.8,82.3,100.5z"/>
					<path class="st0" d="M79.1,136.5c0,0.1,0.1,0.1,0.1,0.2l0.1,0.1L79.1,136.5z"/>
					<path class="st0" d="M77.2,134.1c3.7,3.7,3.1,3.4,2.2,2.6c2.9,2.8,5.9,5.6,8.9,8.4C84.7,141.4,81,137.7,77.2,134.1z"/>
					<path class="st0" d="M80.6,123.6c-1.3,0.1-2.6,0.1-4,0.2c-2.7,0-4.6,0-5.6,0c-1.5,0-1.4,0-4.8,0.1c7.1-0.2,7.6-0.1,8.1,0
						s0.9,0.2,8.4,0.4h-3.1c0.1,0-0.8-0.1-0.6-0.1c-3.5,0-0.8,0.1,2.7,0.3c3.4,0.2,7.6,0.4,6.6,0.6c-1.1,0.1-3.3,0-5.2-0.2
						c1.3,0.2,2.7,0.4,4.1,0.6c-0.2,0.1-3-0.2-2.7-0.2c0.5,0.2,1,0.4,1.5,0.6l-0.5-0.1c2.5,0.3,6.4,0.9,8.1,1.3
						c-2.2-0.1-1.7-0.3-3.7-0.5c1.3,0.3,2.7,0.6,4,0.9c-4.1-0.4-8.2-1.2-7.7-1.3c-7.9-0.8-6.9-0.7-5.1-0.4c1.9,0.3,4.6,0.9-0.1,0.4
						l-2.1-0.5c-3.2-0.4-4.9-0.6-7-0.9c-1-0.1-1.6-0.2-4.5-0.7c1.5,0.3,5.1,0.9,8.8,1.4c3.7,0.6,7.6,1.1,9.6,1.6
						c-1.2-0.1-1.8-0.1,1.4,0.7c-5.7-1-4.3-0.7-4-0.4l-7.5-1.6c2.2,0.6,6,1.4,9.3,2.3c-0.8,0.1-6.6-1.3-11.5-2.4
						c-0.6-0.1,1.7,0.5,4.4,1.1c2.6,0.6,5.6,1.3,6.3,1.7c-3-0.4,0,0.5,4.1,2.3c-2.6-0.6-4.4-1.4-6.5-2c1.9,0.7,3.8,1.3,5.6,2
						c-0.2,0-1.9-0.6-2.8-0.9c2.1,0.9,7.2,2.4,8.9,3.4c3.9,1.4,0.9,0.6-2-0.2s-5.5-1.6-1.4,0.3c-2-0.7-4.2-1.7-6.9-2.7
						c2.7,1.3,3.6,1.8,4.7,2.4c1.2,0.6,2.6,1.3,6,3.1c-1.6-0.5-3.2-1.1-4.7-1.6c2.6,1,5.3,2.3,7.8,3.6c2.6,1.3,4.9,2.8,7,4.1
						c0.3,0.1,0.6,0.2,0.9,0.4c0.2,0.1,0.2,0.1,0.3,0.1l0.2,0.1c0.3,0.1,0.6,0.2,0.9,0.3c0.5,0.2,0.9,0.3,1.2,0.4
						c0.3,0.5,0.7,1.1,1.1,1.7c-0.6-0.2-1.7-0.9-3-1.7c0.2,0.2,0.4,0.4,0.7,0.5c-0.4-0.1-0.8-0.2-1.2-0.4c-0.2-0.1-0.4-0.2-0.6-0.3
						c-0.4-0.2-0.7-0.4-1.1-0.6c-1.6-0.9-3.3-1.8-5-2.8c1.4,0.6,2.8,1.2,4.2,1.7c-3.7-2.1-7.9-4.3-11.8-6c0.7,0.4,1.3,0.7,1.6,1
						c-1-0.5-2-1-2.6-1.3c-0.7-0.3,0.7,0.4,2.2,1.3l-7.2-3.4l2.8,1.4c-1.7-0.6-3.3-1.2-4.9-1.9c6.6,4,15.9,10.1,17.2,12.6
						c-4.4-3.2-7.6-4.9-13.1-8.4c3,1.8,2.6,1.3,1.6,0.4c-1-0.9-2.7-2.1-1.9-1.9c-0.8-0.2-3.5-1.9-4.5-2.5c1.7,1.2,3.3,2.4,4.8,3.7
						c-4.6-2.9-3.6-2.1-5.6-3.2c9,5.6,5.4,4.2,7.6,6.2c-2.9-2-5.7-4.1-4.7-3.8c-3.4-2.1-1-0.3,1.5,1.6c2.5,1.9,5,4,2.1,2.2
						c0-0.1,0.5,0.2-0.9-0.9c2.2,2-0.3,0.9-2.5-1v-0.1c-0.8-0.2-1.2,0-0.7,1s1.9,2.8,4.9,5.7c-0.8-0.7-7.3-6.8-8.6-8
						c3.3,3.2,6.6,6.6,9.7,9.9l2.3,2.5l1.1,1.3l1,1.2l1.9,2.3l1.9,2.3c-1.1-1.2-2.5-2.6-4.2-4.3c-1.8-1.8-3.8-3.8-5.8-5.7
						c-4-4-7.6-7.7-8.8-9.3c-0.8-0.6-1.8-1.4-0.3,0.5c0.7,0.7,7.3,7.2,7.6,7.8c-2.7-2.5-3.5-3.2-4.4-4c-0.7-0.6-1.3-1.1-3.7-3.4
						c1.1,1,8.5,9.3,7.7,9.5c-1-1.3-7.4-8-7.9-9.1c0.3,0.3,0.4,0.8,0.6,1.2s0.4,0.9,0.6,1.3c0.4,0.8,0.8,1.7,1.3,2.5
						c0.9,1.7,1.9,3.3,3,4.8c-0.5-0.9-2.3-2.4-4.3-3.9c-2-1.4-4.4-2.7-6.1-3.1c0.5,0.2,0.6,0.5,0.4,1c-0.1,0.2-0.3,0.5-0.5,0.7
						c-0.2,0.3-0.5,0.6-0.7,0.9c-0.5,0.7-1.1,1.5-1.5,2.2c-0.4,0.8-0.7,1.6-0.6,2.1c1.2-0.7,2.4-1.2,3.5-1.6
						c-0.6,0.6-0.8,1.4-0.8,2.2s0.4,1.5,0.9,2.1c1.1,1.3,2.9,2.4,4.9,3.3c1.9,0.8,4,1.4,5.6,1.8c0.8,0.2,1.4,0.4,1.8,0.5
						c0.5,0.2,0.7,0.3,0.7,0.6c-1.2,0.2-4.8,0.6-8.2,1.2c-1.7,0.3-3.4,0.7-4.7,1.3c-1.3,0.6-2.2,1.4-2.4,2.3
						c3-0.1,10.2-0.9,16.6-3.5c1.6-0.6,3.2-1.3,4.7-2.1c0.7-0.4,1.4-0.8,2.1-1.2c0.3-0.2,0.5-0.3,0.8-0.5c0.2-0.1,0.4-0.3,0.6-0.4
						c0.2-0.1,0.4-0.3,0.7-0.5l0.3-0.3c0.4-0.4,0.9-0.7,1.2-1.1c-0.1,0.1-0.2,0.2-0.3,0.3c-0.2,0.2-0.4,0.4-0.6,0.6
						c-0.6,0.5-1.1,1-1.8,1.5c-2.4,2.1-5.2,4.1-8.2,5.8c-2.9,1.7-6.1,3-8.9,3.8c-2.9,0.8-5.6,0.9-7.6,0.8c-0.8,1.5-1.6,2.1-2.1,2.7
						c-0.2,0.3-0.3,0.6-0.3,1c0.1,0.4,0.3,1,0.7,1.6c-1.1,1.3-2.3,1.6-3.4,1.3s-2-1.3-2.4-1.8c0.2,0.8,0.4,1.6,0.6,2.5
						c0.2,0.7,0.4,1.4,0.6,2.2c0.5,1.5,0.9,2.7,1.4,4c1.3-1.2,2.5-1.7,3.6-2s2.1-0.5,3-0.6s1.9-0.2,2.7-0.7c0.9-0.4,1.8-1.1,2.8-2.2
						c-1.4,0.3-2.9,0.4-4.4,0.5c-0.8,0-1.6-0.1-2.4-0.2c-0.8-0.1-1.6-0.2-2.5-0.4c1.4-1.1,3.3-2,5.2-3c2-1,4-1.9,5.9-2.7
						c3.7-1.6,6.4-3.1,6.6-2c-0.8,1.2-2.9,3.6-5.1,5.7c-2.2,2.2-4.5,4.1-5.3,5c1-0.7,2.3-1,3.2-1.1c0.9,0,1.5,0.3,1,1
						c-1.1,0.8-2.2,1.5-3.3,2.1c-0.1,0.8,0.4,0.9,1.1,0.6c0.7-0.3,1.6-0.9,2.4-1.5c0.8-0.5,1.5-1,1.9-0.9s0.4,0.7-0.1,2.4
						c0.1,0.4-0.7,2.6-1.1,4.3c-0.5,1.7-0.7,2.9,0.4,1.1c2.9-7.9,16.1-29.5,19.1-34.9c-0.1,0.2-1.1,2-2,4.2
						c-0.5,1.1-0.9,2.3-1.4,3.5c-0.5,1.4-0.9,2.5-1.2,3.3c-1.1,3-2.8,6.5-4.5,9.8s-3.6,6.4-4.4,9.1c0.9-1.8,2.2-3.8,2.6-4.5
						c-0.3,1.7-2.6,5.5-1.3,5.1c3-6.7,1.5,1.3,2.8-5.6c1.5-1.6,0.3,1.7,1.3,1.8c0.7-2.3,2.3-6,3.8-9.4s3-6.4,3.6-7.3
						c-0.6,1.7-1.3,4.1-1.6,5.2c1,1,0.6,4.4,1.7,4.7c-0.4,1.7-0.6,3.8-1.7,6.7c0.5-1.2,1.4-3.5,1.8-3.5c-1.3,6-1,0.7-2.9,7.9
						c1.3-3.9,2.6-5.3,3.9-7.6c2-6-0.7-1.5-1.9,0.9c2.8-8.5,6.4-17.1,9.2-20.2c1.9-1.5-1.5,5.5-0.8,4.4c0.7,1.1,2.5-2.1,4.2-4.8
						c0.8-1.3,1.6-2.5,2.2-2.9s1,0,0.8,1.7c-0.7,2.7-2,5-3.1,7.2c-1.2,2.2-2.3,4.1-3.1,5.9c-0.8,0.7-0.7-0.2-0.6-1.3
						c0.2-1.1,0.4-2.5,0.1-2.5c-0.1,0.9-0.2,1.8-0.3,2.7c-1,1.5-2,2.6-1.7,1c-0.7,2.4-0.1,2.9,0.6,3.4s1.4,1.1,0.7,3.2
						c1.1-1.4,2.5-2.5,3.6-4.3c-0.3,0.1-0.5,0.2-0.8,0.3c1-1.9,2-2.9,2.8-3.7c0.9-0.8,1.6-1.3,1.8-2.4c1.2-0.9,2.7-2,3.9-2.5
						c1.2-0.5,2.1-0.3,1.8,1.2c-1.2,1.5-2.5,2.9-3.7,4.3c1.1-1.2,1.7-3.2,0.3-2.1c1-0.7,0.1,1.1-0.4,2.4c-0.6,1.3-0.8,2.1,2.1-0.1
						c0.7-1.1,1.5-2.3,2.1-3.5c1.3-0.5,3.3-1.5,5-1.8c1.6-0.3,2.9-0.1,2.7,1.3c1.9-2,1.8-2,1.6-2.1c-0.1-0.2-0.2-0.4,1.9-3
						c-2.7,3-3.3,1.9-3.9,0.9c-0.6-1-1.2-1.8-3.7,1.9c2.3-3.1,2.5-4.3,2.5-5.2c0-1-0.1-1.9,1.4-5.2c-1.2,1.5-1.8,3.3-2.4,1.4
						c-0.4,0.4-0.9,0.8-1.3,1.1c0-0.1,0-0.1,0-0.2c0,0.1,0,0.2-0.1,0.2c-0.2,0.2-0.3,0.2,0,0.1c-0.2,0.9-0.7,1.9-1.3,2.9
						c-3.2,2.9-4.6,1.4-6.4,3c-0.1-1.2,1.4-1.7,2.3-3.7c-0.9,0.7-1.8,1.5-2.6,2.3c1.1-1.9,1.6-3.8,2.2-5.4c0.6-1.6,1.2-2.8,2.7-3.3
						l-1.4-1.3c0.2-1.4,0-2.6-0.3-3.2c-0.3-0.6-0.9-0.8-1.7-0.1c-0.3-1.3-3.5,3.6-1.6,0.7c-1.1,0.4-2,1-2.9,1.5l0.4-1.1
						c-0.4-0.4-1-0.2-1.6,0.1s-1.2,0.8-1.8,1c-1.1,0.5-1.8,0.2-1.1-4.2c-0.8,0.9-1.6,2.2-1.7,0.6l1.2-4c-0.9,1.2,0.4-4.4-1.1-0.4
						c0.9-2.7,1.3-4.2,1.5-5s0.2-0.8,0.1-0.6v0.1v0.1l-0.1,0.2c-0.2,0.6-0.5,1.2-0.7,1.9c-0.5,1.1-0.9,2.3-1.4,3.4
						c-0.3,0.9-0.7,1.7-1,2.4c-1.6,3.6-3.1,6.8-4.5,9.8l0,0c0,0,0,0.1-0.5,0.8l0,0c-0.1,0.2-0.2,0.3-0.3,0.5
						c-0.2,0.2-0.3,0.5-0.6,0.8c-0.5,0.6-1.1,1.3-1.8,2.1c0.1-0.1,0.5-0.5,0.7-0.7c-0.4,0.5-0.8,0.9-1.3,1.4
						c-0.2,0.2-0.5,0.4-0.7,0.6c-0.2,0.2-0.5,0.4-0.7,0.6c-0.3,0.2-0.5,0.4-0.7,0.5c-0.2,0.2-0.5,0.3-0.7,0.4
						c-0.4,0.3-0.9,0.5-1.2,0.6c-0.2,0.1-0.3,0.1-0.5,0.1c-0.1,0-0.2,0.1-0.3,0.1h0.1h-0.1c-0.1,0-0.3,0-0.3,0s0.2,0,0.3,0
						c-0.3,0-0.4,0.1-0.5,0l0,0l0,0l0,0c0,0-0.1,0,0,0s0.1,0,0.2,0.1c0.2,0.1,0.4,0.2,0.5,0.3c0.2,0.1,0.6,0.4,1.4,1.1
						c0.2,0.2,0.4,0.4,0.6,0.6c0.2,0.2,0.4,0.4,0.6,0.6l0.1,0.1c1.5,1.6,3,3.3,4.4,4.9l-0.1-0.1l-0.4-0.5c-0.3-0.4-0.6-0.7-0.8-1
						c-0.6-0.7-1.2-1.4-1.8-2.2c0.7,0.7,0.8,0.8,1.1,1.3v-0.1c0,0,0-0.1,0.1,0l0.4,0.1c0.2,0.1,0.5,0.1,0.5,0c0.1-0.1,0-0.3,0-0.5
						s-0.1-0.5-0.4-0.9l3.8,3.8l-2.2-3.1l-1-1.4l-1.2-1.5c0.3,0.2,0.6,0.4,0.9,0.6c0.3,0.2,0.6,0.5,0.9,0.7c0.6,0.4,1.1,0.9,1.7,1.4
						c1,0.9,2,2,3,3.5c-0.6-1.2-1-2-1.2-2.5c-0.4-0.7-0.7-1.1-0.8-1.5c-0.1-0.2-0.1-0.5-0.4-1s-0.8-1.3-1.7-2.5l2.4,2.3
						c0.2-0.4-2.6-3.8-0.3-2.2c2.7,1.7,3.7,0.8,4.6-0.2c0.4-0.5,0.9-1.1,1.5-1.5c0.3-0.2,0.7-0.4,1.1-0.5c0.5-0.1,0.9-0.2,1.8,0
						c-3.6-2-2.5-1.7-1.2-1.2c0.7,0.2,1.4,0.5,1.7,0.4c0.1-0.1-0.2-0.4-1.5-1.3c1.7,0.9,2.6,1,3.9,2.3c-0.6-1.1,0.1-1.2,0.5-1.5
						c0.1-0.1,0.1-0.2,0.2-0.3c0-0.1,0-0.1,0-0.2c0-0.1-0.1-0.1,0-0.2c0-0.2-0.3-0.7-1.2-1.3c1.7,0.7,1.9,1.4,3,1.8
						c-0.2-0.2-0.9-0.9,0.2-0.5s1.1,0.8,1.5,1.3c0.2-0.1,0.2-0.2,0.2-0.4v-0.1c0,0-0.1-0.1-0.1-0.2c-0.1-0.1-0.2-0.3-0.4-0.4
						c-0.5-0.5-1.3-1.1-2.1-1.6c-1.7-1.1-3.9-2.3-6-3.4c2.3,0.5,1.9,0-0.5-1.6c0.7,0.2,1.5,0.5,2.1,0.7c0.3,0.1,0.5,0.3,0.7,0.4
						c0.2,0.2,0.2,0.3,0.3,0.5c0-0.2,1.4-0.2,1.8-0.7c0.1-0.3,0-0.6-0.2-0.9c-0.1-0.1-0.1-0.2-0.2-0.2c-0.1-0.1-0.1-0.1-0.2-0.2
						c-0.2-0.2-0.5-0.3-0.9-0.5c0.9,0.2,0.7-0.3,0.4-0.5c0.1,0,0.1-0.1,0.2-0.1c0,0,0-0.1,0.1-0.1c0-0.1,0.1-0.1,0.1-0.2
						c0.1-0.1,0.2-0.2,0.2-0.3c0.1-0.2,0.2-0.5,0.1-0.9l-0.5,0.1c-1.7-0.8-1.8-1-1.5-1.2c0.3-0.1,1.1-0.1,1.1-0.5l0.3,0.1
						c0.1,0,0.2,0,0.3,0c0.1,0,0.1,0,0.2-0.1c0.1,0,0.2-0.1,0.3-0.1c0.2-0.1,0.3-0.2,0.3-0.2c0.1-0.2-0.1-0.3-0.1-0.4
						c-0.1-0.1-0.1-0.2,0.1-0.3c0.1-0.1,0.3-0.1,0.5-0.2c0.2-0.1,0.6-0.1,1-0.2l-2.1-0.5c-2.2-0.7-1.4-0.8-0.4-1
						c0.5-0.1,1.1-0.2,1.4-0.4s0.6-0.4,0.3-0.7l-1.2,0.1c-0.3-0.2-0.1-0.3,0.5-0.3c0.3,0,0.6,0,1,0c0.3,0,0.7,0,1.1,0
						c0.8,0,1.6,0,2.2-0.1s1.3-0.1,1.4-0.2c0.4,0,0.5,0.3,0.6,0.5c1.4-0.5,0.9-0.7-0.1-0.8c-0.5-0.1-1-0.2-1.5-0.3
						c-0.2-0.1-0.4-0.2-0.6-0.3s-0.4-0.2-0.5-0.4c1.2,0,3.3,0.9,3.2,0.1c0.2-0.2-0.2-0.8-1.3-1.6c-0.3-0.2-0.6-0.4-0.8-0.6
						c-0.2-0.2-0.4-0.4-0.5-0.5c-0.1-0.3,0.1-0.6,0.6-0.7c-0.4,0.1-0.9,0.1-1.4,0.1c-0.2,0-0.4-0.1-0.6-0.1
						c-0.2-0.1-0.4-0.2-0.6-0.3c-0.3-0.4,0.2-0.8,0.8-1.2c0.1-0.1,0.2-0.2,0.3-0.3c0-0.1,0-0.2-0.1-0.3c-0.2-0.2-0.7-0.4-1.5-0.6
						c0.2-0.1,0.5-0.1,0.7-0.1c-0.4-0.3-0.9-0.7-1.5-1c-0.5-0.4-1.5-0.7-2.4-0.9c2.7-0.1,2-0.8,0.4-1.4c-0.4-0.1-0.7-0.3-0.9-0.4
						c-0.2-0.1-0.4-0.2-0.5-0.3c-0.1-0.2,0.3-0.3,1.8-0.3c-0.2-0.2-0.3-0.4-0.8-0.6c-0.2-0.2-0.4-0.3-0.6-0.5h0.7
						c-0.3-0.7-2.1-0.9-3.8-1c0.3-0.2,1-0.1,1.3-0.1c0-1.1-0.1-1.2-4.4-1.7l2-0.3c-0.7,0-0.4-0.5-0.2-1c0.2-0.6-0.2-1.2-2-1.5
						c0.2,0,0.7-0.1,1.1-0.1c-1.9-0.4-1.3-1.4-1.1-2.3c0.2-0.9-0.1-1.7-4.1-0.9c-0.9-0.1-1.7-0.3-2.6-0.4c0.1,0.7-0.7,0.9-1.7,1.1
						s-2.2,0.3-2.7,0.7c-0.9-0.2,1.4-1.9,2.3-1.5l-0.3,0.2c4.2-1.1,0.5-2.1,3.4-3.2c-0.2-0.4-0.3-0.8-0.4-1.2v-0.1l0.3-0.2l0.6-0.4
						l1.3-0.9l1.3-0.9l0.2-0.1l-4.7,2.1l0,0h-0.1c-0.1,0.1-0.3,0.1-0.4,0.1s-0.1,0-0.2,0.1h-0.1l0,0l0,0h-0.4c0.3,0,1.1,0,2.5,0.2
						c1.4,0.3,3.2,0.8,6.4,2l-0.7-0.3l-2.1-0.8c0.2,0,0.4,0,0.5,0c0.7,0.3,1.9,0.7,2.9,1.2c0.3,0.2,0.7,0.3,1.2,0.5
						c0.1,0,0.2,0.1,0.3,0.1c0,0,0,0,0.1,0c-0.2-0.1-0.3-0.1-0.5-0.2c0.3,0.1,0.6,0.2,0.8,0.3c0.2,0.1,0.4,0.2,0.6,0.2l0.2,0.1l0,0
						l0,0c-0.4-0.2-0.8-0.4-1.2-0.6c-1.6-0.8-3.2-1.6-3.7-1.8c1.4,0.3,3.1,1.2,4.5,1.9c1.4,0.8,2.5,1.3,2.6,1.3
						c-0.1-0.1-0.2-0.2-0.3-0.3l-0.7-0.3c-2.3-1.3-4.8-2.5-4.2-2.9c1.4,0.2,3.7,1.6,4.1,1.6c0.4,0.2,0.6,0.3,0.3-0.2
						c0.3-0.2,0.7-0.5,1-0.7l-4.8-1.9c-2.1-1.6,0.7-0.8-4.8-3c8.5,3.4,4.6-2.4,7.2-1.6c-3.1-2.3-2.7-2.9-2.1-3.5c-1-0.3-6-2.7-5.1-3
						c10.1,5.4,4.9,1,12.2,4c-4.9-1.9-0.7-2.7-7.5-5.2c1-0.2,3.7,1.8,6,2.5c-1.7-1.7-0.9-2.2,0.1-2.6s2.2-0.8,1.7-2.1
						c-1.1-0.6-2.9-1.1-4.5-2.4l5.6,1.8c-0.6-0.7-6.2-3.5-2.4-2.3c-0.9-0.3-2.3-0.9-2.6-1.3c1.4-0.3,1.8-1.1,1.8-2.1
						s-0.3-2.2-0.5-3.3c-0.2-1.1-0.3-2.2,0-3c0.1-0.4,0.3-0.8,0.6-1.2c0.3-0.4,0.6-0.7,1-1c-0.8,0.2-1-0.3-1.1-0.8
						c-0.2,0.2-1.2-0.6-1.8-0.9c0.6-0.3,1-0.6,1.3-1c-0.7-0.5-0.8-1-1-1.5c-0.1-0.5-0.3-1-0.7-1.3c0.1,0.2,0.2,0.4,0.2,0.7
						c-0.6-0.7-1.1-0.7-1.9-0.7c-0.8-0.1-2-0.3-2.8-0.8c0.5,0.6-0.5,0.7-1.7,0.6c-0.6,0-1.2,0-1.6,0.1c-0.3,0.1-0.4,0.4,0.3,1.1
						c-0.9-0.1-0.7-0.6-1.6-0.9c0.9,0.8,1,1.2-0.3,1.3l-0.3-0.2c-1.4,1.3-3.8,1-7.4,1.6l2.5,1.1c-0.7,0.1-1.6-0.2-2.4-0.4
						c3.2,2.2,1.4-0.7,4.9,1.6c-2.6-1-3.4-0.5-4.2,0c-0.8,0.5-1.6,0.9-5-0.6c-0.7,0.4,3.4,1.5,2.8,1.9l-1.9-0.8l2.1,1.3
						c-0.7,0.1-3.2-0.9-4.8-1.6c0.3,0-0.1-0.4-0.2-0.6c-2.7-0.7-0.8,1.4-1.7,1.2l1.8,0.2c0,1.1-1,1.7-1.7,2.5s-1.2,1.7,0.4,3.5
						l1.7,0.7c1.1,1.3,0.4,1.3-0.4,1.2c-0.8-0.1-1.9-0.3-1.7,0.7l-0.4-0.2c1.5,1.1,2.1,1.9,1.7,2.1c-1.8-1.3-4.3-1.4-6.3-2.9
						c1.2,1.5,1.8,2,2.8,2.6s2.4,1.4,5.4,3.4l-3-1.3c2.4,1.6,3.8,2.3,4.2,3.4c-2.2-1.8-4.7-1.8-7.7-4.1c-7.3-1.9,5.3,5.3-4.6,1.2
						c7.9,4.8,5.3,1.1,6.8,2.4c2.8,1,5.8,3.6,4.8,3.6c-0.4,0.4-11-4.6-11.4-3.3c0.1-0.1-0.5-0.4-0.4-0.5c-2.3-0.6,2.5,2.3-1.3,1.4
						c4.8,2.8-0.7,1,5.7,4c-0.3-0.8-0.6-1.5-0.9-2.2c0.7,0.8,2.8,2.3,4.2,3.5c1.5,1.2,2.2,2.1,0.2,2.1c-1.3-0.6-2.9-1.8-3.7-2.5
						c-2.1-0.3,1,1.5-1.2,1.3c-3.2-1.2-3.4-2.1-3.3-3s0.4-1.6-1.9-3.3c-2.9-0.8,3.9,4.3-2.9,0.7c4.3,2.4,3.8,2.8,3.1,3.4
						c-0.7,0.5-1.8,1.5,1.5,3.5l-3.9-1.2c0.3,0.3,0.8,0.7,1.4,1.2c0.5,0.5,0.9,0.9,0.8,1.3c-1.7-0.8-3.4-1.6-5-2.5
						c2.1,1.6,1,2.5-0.2,3.7c-0.6,0.6-1.2,1.3-1.5,2s-0.3,1.5,0.4,2.2c-0.3-1.6,0-2.5,0.4-2.8c0.5-0.4,1.1-0.4,1.9-0.3
						c1.6,0.2,3.5,0.7,4.9-0.1c1.4,1.5,1.5,2.3,0.9,3s-1.8,1.3-3.2,1.9c-1.3,0.7-2.7,1.5-3.4,2.6c-0.4,0.6-0.5,1.2-0.5,2
						c0.1,0.7,0.4,1.6,1.2,2.4c-0.5-0.4-0.5-1.5,0-2.4s1.5-1.4,2.7-0.9c-0.2,1.5-0.6,3.5-1.8,5.1c1.4,0.7,3.3-1.6,5.6-2.1
						c-3.8,2.1,1.8-0.4,3.3-0.6L79,120c-1.8,1.4,7.3-2.6,5.1-1c-1.7,0.5-3.4,1-5.1,1.5l1.5-0.2l-4.1,1.3c3.2-0.8,2.5-0.4,1.5,0.1
						c2.5-0.8,6.7-1.9,7.1-1.7c-2,0.8-3.7,0.9-2.8,1c-2.5,0.5-5.5,1.3-2.2,0.2c-1.1,0.3-2.5,0.6-3.6,0.9c-2.4,0.8-0.3,0.4-0.2,0.4
						c0.1-0.1,0.3-0.1,0.8-0.3c1.9-0.4,3.8-0.7,5.8-0.9c-1.4,0.4-2.7,0.6-3.9,0.8c0.5,0,2.4-0.4,2.9-0.3c-3.3,0.6-6.7,1.3-8.3,1.6
						c1.3-0.2,2.6-0.4,3.9-0.5c-1.4,0.3-3.9,0.8-5.1,1c-0.9,0.2,0.7,0,2.4-0.2c1.7-0.2,3.4-0.3,2.1,0c0.7-0.1,1.4-0.1,2-0.2
						c-0.3,0.1-1.5,0.3-2,0.5c-0.5,0.1-0.3,0.2,2.5,0.1c-2.3,0.2-4.5,0.4-6.8,0.5c0.8,0,3.1-0.1,5.4-0.3c2.3-0.2,4.7-0.3,6.3-0.2
						c2.6,0.1-6,0.4-7.9,0.5c1.8,0,4.7-0.1,6.5,0c0.4,0,0.6,0,0.9,0.1c0.3,0,0.4,0,0.4,0.1s-0.6,0.1-2.1,0.2
						C80.2,123.7,81.3,123.6,80.6,123.6z M86.1,127.1c-1.2-0.3-4.9-1-1.5-0.5C91.1,127.6,88,127.3,86.1,127.1z M94,138.4
						c-1.5-0.9-0.6-0.6,1.4,0.2C95.6,138.9,95.3,138.9,94,138.4z M118.3,145.9c0,0.1-0.1,0.1-0.1,0.2
						C118.2,143.9,118.2,144.7,118.3,145.9z M118.9,148.8c0.5-0.5,0.8-1,1-1.7c-0.7,0.9-1.1,0.8-1.3,0.2
						C118.1,148.6,117.9,149.4,118.9,148.8z M109.8,110.2l-1.1-0.4C107.8,109,108.7,109.6,109.8,110.2z"/>
					<path class="st0" d="M88.3,134.4c1,0.4,1.8,0.8,2.7,1.2C90.2,135.2,89.3,134.8,88.3,134.4z"/>
					<path class="st0" d="M76.5,122.6L76.5,122.6c-0.2,0-0.5,0.1-0.8,0.1L76.5,122.6z"/>
					<path class="st0" d="M87.2,181.6c0-0.8,0.2-1.8,0.5-2.7C87.2,180,86.9,181,87.2,181.6z"/>
					<path class="st0" d="M132,151.5c-0.6-0.2-1.2-0.4-1.8-0.6c0.6,0.5,0.1,1.4-0.2,2.2C130.7,152.5,131.6,151.1,132,151.5z"/>
					<path class="st0" d="M114.9,174.3c0.5-0.1,0.1,0.1,0.6,0.1l1.7-0.6C117,173.4,115.5,173.7,114.9,174.3z"/>
					<path class="st0" d="M122,162.4c-2.7,2.5-1.4,2.1-0.5,2.4c0,0-0.1,0-0.1-0.1C125.5,161.8,123.7,162,122,162.4z"/>
					<path class="st0" d="M121.7,164.9c0.2,0.1,0.4,0.2,0.4,0.5C123.7,164.3,122.3,164.9,121.7,164.9z"/>
					<path class="st0" d="M122.3,148.2c-0.2,1.2,3-4,2.3-2.5c1.6-1.9,0.1-1.2-1.3-0.1C121.9,146.9,120.6,148.5,122.3,148.2z"/>
					<path class="st0" d="M113.2,170.6c1.1-1,2.2-2,3.3-3c-1,0.7-1.9,1.4-2.9,2.2C113.5,170,113.3,170.3,113.2,170.6z"/>
					<path class="st0" d="M113,165.6c-0.1,0.5-0.1,1-0.2,1.5c0.5-0.6,0.9-0.9,1.2-1.1C113.7,165.6,113.8,164.5,113,165.6z"/>
					<path class="st0" d="M113.9,166.1c0.1,0.3,0.4,0.3,1-0.1C114.8,165.9,114.5,165.8,113.9,166.1z"/>
					<path class="st0" d="M111.6,170.9l0.6-0.8l-0.1-0.6C111.9,170,111.8,170.5,111.6,170.9z"/>
					<path class="st0" d="M106.3,160.8l-1.2,1.1c-0.7,1.7-0.8,2.8-0.3,2.2C105.4,163,105.8,162.4,106.3,160.8z"/>
					<path class="st0" d="M103.1,174.5c0.3-1,0.7-2.1,1.3-3.6l-2.4,5.8L103.1,174.5z"/>
					<path class="st0" d="M101.1,175.5c-0.7,1.6-2.5,4.7-1.7,4.4C100.1,178.3,101.1,177,101.1,175.5z"/>
					<path class="st0" d="M93.5,164.3h0.2l4.9-9.8C96.9,157.8,95.2,161,93.5,164.3z"/>
					<path class="st0" d="M62.2,152.6c-0.8,1.7-0.7,2.7-0.3,3.2c0.4,0.6,1.2,0.7,2,0.8c0.8,0.1,1.5,0.2,1.9,0.6
						c0.2,0.2,0.3,0.5,0.2,0.9c0,0.4-0.2,0.9-0.5,1.6c1.3,0.4,1.8-0.7,2.3-1.7c0.5-1.1,1.1-2.1,2.1-1.5c-1.3-1.5-1.5-2.8-2.2-3.5
						C66.9,152.3,65.6,152,62.2,152.6z"/>
					<path class="st0" d="M69.8,156.6c0.4,0.5,0.9,1,1.6,1.3C70.8,157.2,70.3,156.8,69.8,156.6z"/>
					<path class="st0" d="M113,75.1c0-0.2,0-0.4-0.1-0.6c-0.1,0.1-0.1,0.2-0.2,0.3L113,75.1z"/>
					<path class="st0" d="M111.4,73.2l0.6,0.2c-0.3-0.3-0.6-0.5-0.8-0.8C111.3,72.8,111.5,73.1,111.4,73.2z"/>
					<path class="st0" d="M70.6,124.7l1.8,0.4c2,0.4,2.2,0.4,2.5,0.4L70.6,124.7z"/>
					<polygon class="st0" points="75.9,124.3 75.8,124.3 82.4,124.6 					"/>
					<path class="st0" d="M67.3,123.8c-0.2,0,1.1,0,0.9,0C67.1,123.8,74.8,123.4,67.3,123.8z"/>
				</g>
			</g>
		</g>
	</g>
	<path class="st1" d="M153.1,139L153.1,139c-6.1-8.5-19.8-30.5-27.1-42.3l-0.8-1.2l9.5-21.3l0.3-0.4l0.2-0.9c1.1-4.4-0.2-9-3.4-11.7
		c-2.8-2.2-6.1-2.7-9.3-1.4c-0.3,0-0.7-0.1-1.1-0.3v-7.3c0-4.2-3-7.2-7.2-7.2s-7.2,3-7.2,7.2v5.4c-2.9,0.4-5.7,1.5-8.4,3.4
		c-2.2-1.5-4.5-2.5-6.7-3v-6.1c0-4.2-3-7.2-7.2-7.2s-7.2,3-7.2,7.2v6.6c-0.6,0.3-1.3,0.6-1.9,1c-0.7,0.4-1.2,0.5-1.6,0.7
		c-4.4-1.7-10.4-0.4-14.1,6.6l-0.2,0.5c-0.4,1.3-1.2,3.6,0.2,6l10,23.4c0,0.1-0.1,0.1-0.1,0.2l0,0.4c-0.1,0.4-0.3,0.8-0.4,1.3
		C68,103,66,109,59.7,117.2c-3.1,3.6-29.6,35.9-25.7,71c0.1,2.4,1.6,3.9,2.5,4.8l0.3,0.3c2.9,2.3,8.1,4.8,13.9,4.8
		c3.1,0,6.2-0.7,9.3-2.1c3.1,1.5,7.4,2.1,9.8,2.1c3.6,0,6.6-0.8,9.3-2.5c2.2,1,6.6,2.8,12,2.8c3,0,5.9-0.6,8.7-1.9
		c3.2,0.9,7.9,1.2,9.3,1.2c3.9,0,7.2-0.7,9.8-2.2c0.2,0.1,0.4,0.1,0.7,0.2c2.3,0.7,6.5,2,10.8,2c3.4,0,6.2-0.7,8.7-2.1
		c1.7,0.4,5.3,1,9.3,1c5.3,0,9.5-1,12.9-3.1l0.1-0.1c2.2-1.5,3.4-3.7,3.4-6.2C164.7,184,164.4,154.9,153.1,139z M66.3,70
		c0-0.1,0.1-0.2,0.1-0.3c1.9-3.3,4.1-3.7,5.5-3c1.7,0.9,3.9,0.5,7.2-1.1c1.8-0.9,4.1-1.2,6-1.3v0.2h3.5c2.2,0,5.2,1.4,8.1,3.6L99,70
		l2.2-2c2.9-2.6,5.9-3.8,9-3.5l3.8,0.4l0,0c0.1,0,0.2,0,0.3,0.1v0.7c0,0,9.9,1.1,10.6,0.7c0.6-0.3,1.4-0.5,2.4,0.3
		c0.9,0.8,1.4,2.4,1.2,4c-0.2,0.4-0.4,0.8-0.4,1.1l-9.3,20.8c-1.4-0.1-2.4,0.4-3.1,0.9c-1.6,1-3.9,1.5-6.7,1.5
		c-3.4,0-6.4-0.6-7.6-0.9l-0.5-0.5h-1.4c-0.5,0-1.6,0.1-2.6,0.9c-1.8,0.9-3.8,1.3-5.8,1.3c-4.4,0-8-1.7-9.5-2.4
		c-1.5-1-3.8-1-5.3,0.1L66.3,70z M157.5,187.6c-2.2,1.4-5.2,2-9.1,2c-4.6,0-8.7-1-8.7-1l-0.4-0.1h-0.4c-0.5,0-1.9,0-3.1,1
		c-1.1,0.6-2.6,1.2-5.3,1.2c-3.3,0-6.9-1.1-8.8-1.7c-0.4-0.1-0.8-0.2-1-0.3c-2.3-1-3.9-0.2-4.8,0.5c-1.6,1-3.9,1.5-6.7,1.5
		c-3.4,0-6.4-0.6-7.6-0.9l-0.5-0.5h-1.4c-0.5,0-1.6,0.1-2.6,0.9c-1.8,0.9-3.8,1.3-5.8,1.3c-4.4,0-8-1.7-9.5-2.4
		c-1.6-1.1-4-1-5.5,0.2c-1.9,1.3-3.7,1.8-6.3,1.8c-2.2,0-5.6-0.6-7.1-1.5c-1.5-1.2-3.6-1.2-5.1-0.2c-2.3,1.1-4.7,1.7-6.9,1.7
		c-4.9,0-8.6-2.5-9.4-3.2c-0.1-0.1-0.2-0.2-0.3-0.3l0,0c-3.8-33.3,23-64.6,24-65.9l0.2-0.3c6.7-8.8,9.1-15.5,10.6-20.1
		c1.1-0.4,2.2-0.9,3.3-1.5c2.2,1,6.6,2.8,12,2.8c3,0,5.9-0.6,8.7-1.9c3.2,0.9,7.9,1.2,9.3,1.2c3.9,0,7.2-0.7,9.8-2.2
		c0.2,0.1,0.4,0.1,0.7,0.2c0.1,0,0.2,0.1,0.3,0.1l0.2,0.3c7.4,11.9,21.1,34,27.3,42.7c8.2,11.5,10.4,33.2,10.4,44.2
		C157.7,187.4,157.7,187.5,157.5,187.6z"/>
</g>
</svg>
