<?xml version="1.0" encoding="utf-8"?>
<!-- Generator: Adobe Illustrator 24.0.2, SVG Export Plug-In . SVG Version: 6.00 Build 0)  -->
<svg version="1.1" id="Layer_1" xmlns="http://www.w3.org/2000/svg" xmlns:xlink="http://www.w3.org/1999/xlink" x="0px" y="0px"
	 viewBox="0 0 48 50.6" style="enable-background:new 0 0 48 50.6;" xml:space="preserve">
<style type="text/css">
	.st0{fill:#F0483E;}
	.st1{fill:#FFFFFF;}
</style>
<path class="st0" d="M24,0c13.3,0,24,10.7,24,24c0,5.3-1.7,10.2-4.6,14.1L48,50.6l-14-4.8c-3,1.4-6.4,2.2-10,2.2
	C10.7,48,0,37.3,0,24S10.7,0,24,0z"/>
<g>
	<path class="st1" d="M39.5,23.1c0,2.7-0.6,5.3-1.9,7.6l1.4,1v6.9l-5-3.7c-2.8,2.3-6.1,3.4-10,3.4c-4.5,0-8.2-1.5-11.1-4.4
		c-2.9-3-4.3-6.6-4.3-10.8c0-4.3,1.4-7.9,4.3-10.8c2.9-3,6.6-4.4,11.1-4.4s8.2,1.5,11.1,4.4C38,15.2,39.5,18.8,39.5,23.1z
		 M17.4,16.2c-1.7,1.8-2.6,4.1-2.6,6.9s0.9,5.1,2.6,6.9s3.9,2.7,6.6,2.7c1.9,0,3.6-0.5,5.1-1.5l-1.8-1.3V23l5.1,3.8
		c0.4-1.2,0.7-2.5,0.7-3.8c0-2.8-0.9-5.1-2.6-6.9c-1.7-1.8-3.9-2.7-6.6-2.7C21.3,13.5,19.1,14.4,17.4,16.2z"/>
</g>
</svg>
