<?xml version="1.0" standalone="no"?><!DOCTYPE svg PUBLIC "-//W3C//DTD SVG 1.1//EN" "http://www.w3.org/Graphics/SVG/1.1/DTD/svg11.dtd"><svg t="1592540514464" class="icon" viewBox="0 0 1024 1024" version="1.1" xmlns="http://www.w3.org/2000/svg" p-id="2923" xmlns:xlink="http://www.w3.org/1999/xlink" width="200" height="200"><defs><style type="text/css"></style></defs><path d="M512 65.035c-213.941 0-387.378 173.437-387.378 387.378S444.433 958.965 512 958.965s387.378-292.61 387.378-506.551S725.941 65.035 512 65.035z m0 832.83c-68.577-28.99-327.791-272.197-327.791-445.451 0-180.73 147.062-327.791 327.791-327.791 180.732 0 327.791 147.062 327.791 327.791 0 173.254-259.214 416.46-327.791 445.451z" p-id="2924"></path><path d="M512 312.998c-82.302 0-148.979 66.723-148.979 148.98 0 82.302 66.676 149.024 148.979 149.024s148.979-66.722 148.979-149.024c0-82.257-66.677-148.98-148.979-148.98z m0 238.385c-49.307 0-89.406-40.097-89.406-89.405 0-49.264 40.099-89.359 89.406-89.359s89.406 40.095 89.406 89.359c0 49.307-40.099 89.405-89.406 89.405z" p-id="2925"></path></svg>