<?xml version="1.0" standalone="no"?><!DOCTYPE svg PUBLIC "-//W3C//DTD SVG 1.1//EN" "http://www.w3.org/Graphics/SVG/1.1/DTD/svg11.dtd"><svg t="1590850384204" class="icon" viewBox="0 0 1024 1024" version="1.1" xmlns="http://www.w3.org/2000/svg" p-id="12686" xmlns:xlink="http://www.w3.org/1999/xlink" width="200" height="200"><defs><style type="text/css"></style></defs><path d="M897.934816 451.04472c0-213.617216-173.168991-386.78723-386.786207-386.787231-213.615169 0-386.786207 173.168991-386.786207 386.787231 0 118.851898 53.651944 225.130434 138.008191 296.082392-0.457418 0.063445-1.107217 0.267083-1.409093 0.222057 61.10059 55.834656 276.676413 193.105043 429.43147 213.120912-9.420557-35.085076-22.264073-90.460268-33.488719-151.080927 0.923022-0.375553 1.859347-0.722454 2.777253-1.106194C799.580764 750.049674 897.934816 612.032274 897.934816 451.04472z m-284.510845 47.701418H408.873248l-49.353035 126.652562h-39.838333l170.06121-424.558486h42.813085L702.616362 625.3987h-39.838334l-49.354057-126.652562z" fill="#FF2044" p-id="12687"></path><path d="M509.959527 240.084007l-89.195461 227.740888h180.764993l-89.786932-227.740888z" fill="#FF2044" p-id="12688"></path></svg>