<?xml version="1.0" standalone="no"?><!DOCTYPE svg PUBLIC "-//W3C//DTD SVG 1.1//EN" "http://www.w3.org/Graphics/SVG/1.1/DTD/svg11.dtd"><svg t="1590850360508" class="icon" viewBox="0 0 1024 1024" version="1.1" xmlns="http://www.w3.org/2000/svg" p-id="11950" xmlns:xlink="http://www.w3.org/1999/xlink" width="200" height="200"><defs><style type="text/css"></style></defs><path d="M513.07 309.78a113.215 113.215 0 0 0-88.09 37.23 161.731 161.731 0 0 0-33.79 111.92 165.73 165.73 0 0 0 33.79 113.55 109.878 109.878 0 0 0 85.44 37.68c12.38 0.07 24.67-2.02 36.33-6.2a256.868 256.868 0 0 0-54.92-27.15l24.9-49.9a304.024 304.024 0 0 1 83.75 44.27 130.319 130.319 0 0 0 25.68-47.82c6.01-20.94 8.9-42.65 8.56-64.43 3.08-40.27-8.97-80.23-33.79-112.08a113.145 113.145 0 0 0-87.86-37.07z m393.2 145.88c-0.64-217.74-177.68-393.75-395.42-393.11-217.75 0.64-393.75 177.67-393.11 395.42 0.35 119.79 55.14 232.93 148.92 307.47 152.07 141.99 435.33 196.01 435.33 196.01l-35.82-141.49c145.79-62.34 240.29-205.72 240.1-364.3zM710.2 718.86a202.19 202.19 0 0 1-39.43-16.28c-2.82-1.35-22.51-14.14-59.08-38.36a240.167 240.167 0 0 1-95.75 18.64 211.882 211.882 0 0 1-158.89-58.8c-76.75-96.63-76.75-233.42 0-330.06a208.858 208.858 0 0 1 156.41-58.91 206.475 206.475 0 0 1 155.57 58.92 226.724 226.724 0 0 1 57.34 164.92c0.63 33.58-4.77 67-15.94 98.68a205.556 205.556 0 0 1-38.41 62.91 291.928 291.928 0 0 0 71.14 36.61l-32.96 61.73z" fill="#16B968" p-id="11951"></path></svg>