<?xml version="1.0" standalone="no"?><!DOCTYPE svg PUBLIC "-//W3C//DTD SVG 1.1//EN" "http://www.w3.org/Graphics/SVG/1.1/DTD/svg11.dtd"><svg t="1591770365626" class="icon" viewBox="0 0 1024 1024" version="1.1" xmlns="http://www.w3.org/2000/svg" p-id="5547" xmlns:xlink="http://www.w3.org/1999/xlink" width="200" height="200"><defs><style type="text/css"></style></defs><path d="M832.017067 552.96c-12.424533 0-22.596267-10.376533-22.596267-23.04 0-12.6976 10.171733-23.074133 22.596267-23.074133 20.855467 0 37.6832-17.152 37.6832-38.417067V238.011733c0-21.265067-16.827733-38.434133-37.6832-38.434133H429.329067c-20.8384 0-37.666133 17.169067-37.666134 38.434133v48.657067c0 12.680533-10.171733 23.057067-22.613333 23.057067-12.424533 0-22.596267-10.376533-22.596267-23.04v-48.554667C346.453333 191.505067 383.624533 153.6 429.329067 153.6h402.568533c45.704533 0 82.875733 37.905067 82.875733 84.5312v230.2976c0.119467 46.626133-37.034667 84.5312-82.756266 84.5312z" fill="#333333" p-id="5548"></path><path d="M693.213867 341.333333H168.516267C122.641067 341.333333 85.333333 378.538667 85.333333 424.311467V730.112c0 45.755733 37.307733 82.978133 83.182934 82.978133h82.312533l0.119467 42.496c0.119467 34.577067 16.896 46.8992 26.7264 51.0464 3.771733 1.6384 8.823467 3.0208 15.240533 3.0208 10.717867 0 24.576-4.266667 40.3456-19.234133l81.408-77.448533h278.6816c45.8752 0 83.182933-37.2224 83.182933-82.9952v-305.664A83.3536 83.3536 0 0 0 693.213867 341.333333z m37.819733 388.778667a37.717333 37.717333 0 0 1-37.819733 37.717333H396.526933l-94.532266 90.026667c-1.877333 1.877333-3.7888 3.259733-5.1712 4.266667a72.977067 72.977067 0 0 1-0.512-6.656l-0.238934-87.637334H168.516267a37.717333 37.717333 0 0 1-37.802667-37.717333V424.311467c0-20.872533 16.896-37.717333 37.802667-37.717334h524.6976a37.717333 37.717333 0 0 1 37.819733 37.717334V730.112z" fill="#333333" p-id="5549"></path><path d="M409.6 699.733333a17.066667 17.066667 0 1 0 34.133333 0 17.066667 17.066667 0 0 0-34.133333 0z m-51.2-182.766933a14.336 14.336 0 0 0 7.424 13.1072c4.8128 2.730667 10.820267 2.730667 15.616 0a14.336 14.336 0 0 0 7.424-13.1072c0-24.3712 20.7872-44.202667 46.353067-44.202667 25.5488 0 46.336 19.831467 46.336 44.202667v0.341333c-0.6144 16.5888-11.264 27.204267-28.5184 43.093334-17.834667 16.418133-40.0384 36.864-44.066134 71.4752a14.1824 14.1824 0 0 0 5.870934 13.7216 15.872 15.872 0 0 0 15.479466 1.6384 14.5408 14.5408 0 0 0 8.9088-12.1344c2.798933-24.234667 18.432-38.638933 34.952534-53.828267 17.169067-15.837867 36.693333-33.792 37.819733-62.8736V516.949333c-0.017067-40.379733-34.3552-73.130667-76.782933-73.216-42.427733 0.085333-76.8 32.853333-76.8 73.233067z" fill="#E73817" p-id="5550"></path></svg>