<?xml version="1.0" standalone="no"?><!DOCTYPE svg PUBLIC "-//W3C//DTD SVG 1.1//EN" "http://www.w3.org/Graphics/SVG/1.1/DTD/svg11.dtd"><svg t="1591771383125" class="icon" viewBox="0 0 1024 1024" version="1.1" xmlns="http://www.w3.org/2000/svg" p-id="14474" xmlns:xlink="http://www.w3.org/1999/xlink" width="200" height="200"><defs><style type="text/css"></style></defs><path d="M328.704 412.16c-27.136 0-49.664 22.016-49.664 49.664 0 27.136 22.016 49.664 49.664 49.664s49.664-22.016 49.664-49.664c-0.512-27.648-22.528-49.664-49.664-49.664zM504.32 412.16c-27.136 0-49.664 22.016-49.664 49.664 0 27.136 22.016 49.664 49.664 49.664s49.664-22.016 49.664-49.664-22.016-49.664-49.664-49.664zM683.52 412.16c-27.136 0-49.664 22.016-49.664 49.664 0 27.136 22.016 49.664 49.664 49.664s49.664-22.016 49.664-49.664c-0.512-27.648-22.528-49.664-49.664-49.664z" p-id="14475"></path><path d="M866.816 137.216H156.16c-50.176 0-91.136 40.96-91.136 91.136v475.136c0 50.176 40.96 91.136 91.136 91.136h259.584l88.576 91.648 95.232-91.648h267.776c50.176 0 91.136-40.96 91.136-91.136V228.352c-0.512-50.688-41.472-91.136-91.648-91.136z m-362.496 696.32l-71.168-74.24H142.336c-23.552 0-42.496-19.456-42.496-43.008v-496.64c0-23.552 18.944-43.008 42.496-43.008h736.768c23.552 0 42.496 19.456 42.496 43.008v496.64c0 23.552-18.944 43.008-42.496 43.008h-298.496l-76.288 74.24z" p-id="14476"></path></svg>