<?xml version="1.0" encoding="utf-8"?>
<!-- Generator: Adobe Illustrator 24.0.2, SVG Export Plug-In . SVG Version: 6.00 Build 0)  -->
<svg version="1.1" id="Layer_1" xmlns="http://www.w3.org/2000/svg" xmlns:xlink="http://www.w3.org/1999/xlink" x="0px" y="0px"
	 width="280px" height="84px" viewBox="0 0 280 84" style="enable-background:new 0 0 280 84;" xml:space="preserve">
<style type="text/css">
	.st0{fill:#FFFFFF;}
</style>
<g>
	<g>
		<g>
			<path class="st0" d="M70.8,10.2c0,1.6-1.1,2.8-2.8,2.8c-1.5,0-2.8-1.1-2.8-2.8c0-1.6,1.1-2.8,2.8-2.8S70.8,8.5,70.8,10.2z
				 M65.5,10.2c0,1.3,1,2.3,2.3,2.3s2.3-1,2.3-2.3s-1-2.3-2.3-2.3C66.7,7.7,65.5,8.7,65.5,10.2z M67.5,11.6h-0.3V8.3h1.1
				c0.7,0,1,0.3,1,0.8S69,9.9,68.5,9.9l1,1.5H69l-0.8-1.5h-0.7V11.6L67.5,11.6z M68,10c0.5,0,1,0,1-0.5S68.7,9,68.2,9h-0.7v1.1
				L68,10L68,10z"/>
		</g>
		<g>
			<path class="st0" d="M33.1,63.2c0.5,0,1,0.2,1.5,0.2c1.1-1.5,3.4-5.4,4.3-13.8l-2.5-0.2c-1,9.8-4.1,12.9-4.1,12.9L33.1,63.2
				L33.1,63.2z"/>
			<path class="st0" d="M39.3,57c0,2,0,4.3-0.2,6.5c0.8,0,1.8,0,2.6-0.2c0-1.1,0.3-7-0.2-14.1L39,49.5C39.3,52.6,39.3,55,39.3,57z"
				/>
			<g>
				<path class="st0" d="M37.1,65.2c-17.9,0-32.6-14.6-32.6-32.6S19,0,37.1,0s32.5,14.6,32.5,32.6S55.1,65.2,37.1,65.2z M37.1,2.5
					C20.5,2.5,6.9,16.1,6.9,32.6S20.3,62.7,37,62.7s30.2-13.6,30.2-30.1S53.8,2.5,37.1,2.5z"/>
			</g>
			<path class="st0" d="M37.1,32.6"/>
			<path class="st0" d="M24.6,10.2"/>
			<path class="st0" d="M14.5,45c0-0.8,0.3-1.6,1-2.3c0,0-0.2,0-0.2-0.2l0,0c-2.8-1.8-3.1-3.4-2.8-6.1c0.2-1.1-0.2-2.5-0.3-3.8
				c-0.7-3.1-0.8-5.2,1.3-6.4c0.3-0.2,0.7-0.3,1.1-0.5c-0.5-0.8-0.8-1.6-1-2.3c-0.5,0.2-0.8,0.3-1.3,0.5c-4.1,2-3.3,6.1-2.8,9.2l0,0
				c0.2,1.1,0.5,2.1,0.3,2.9c-0.5,3.4,0,5.9,3.8,8.5C13.8,44.7,14.3,44.9,14.5,45L14.5,45z"/>
			<path class="st0" d="M25.9,10.2c0.3,0,0.7,0.3,1.3,0.8c0.5-1,1.3-1.8,2.3-2.5c0.3-0.2,2.1-0.8,3.8-0.5c2,0.5,3.3,0,4.4-0.3l0,0
				c0.5-0.2,1-0.3,1.6-0.3c0.5,0,1.6,0,2.8,1.1c0.5,0.5,1,1,1.3,1.8c0.8-0.5,1.6-0.8,2.3-1c-0.5-1.1-1.1-2-1.8-2.6l0,0l0,0
				c-1.6-1.6-3.6-2-4.9-1.8c-0.8,0.2-1.5,0.3-2,0.5c-1.1,0.3-1.8,0.5-3.1,0.3C31,5,28.3,6.4,28.2,6.4c0,0,0,0-0.2,0
				c-1.8,1-2.9,2.5-3.8,4.4C25.1,10.3,25.6,10.2,25.9,10.2z"/>
			<path class="st0" d="M64.2,32.6c-2.1-4.7,0.5-5.1-0.8-8.7c-0.3-0.7-0.8-1.3-1.5-2l0,0c-0.7-0.7-1.5-1.1-2.6-1.6
				c-0.3,0.7-0.7,1.5-1.1,2.3c0.8,0.2,1.5,0.7,2,1.1c1.6,1.5,1.6,3.6,1.3,4.7c-0.5,1.8,0,3.1,0.5,4.4c0.7,1.6,1.1,2.9-1,5.2
				c-0.3,0.3-0.8,0.8-1.6,1.3c0.7,1.3,1.1,2.3,1.1,2.3c1-0.5,1.6-1.1,2.5-2c0.7-0.8,1.5-1.8,1.8-3.1C65.1,35.5,65.1,34.1,64.2,32.6z
				"/>
			<g>
				<path class="st0" d="M42.1,23.4c-2.3-0.5-5.6,0.2-7,2c-0.2,0.3-0.5,0.7-0.7,1c-0.6-0.8-1.4-1.7-2.4-2.2s-2-0.5-2.8-0.2
					c-1,0.3-1.8,1.1-2.1,2.1c-0.8,2.1,0.3,4.9,1.5,6.9c0.8,1.5,1.8,2.3,2.9,2.8c-1.1,0.7-1.8,1.3-2.1,2.1c-0.4,0.9-0.4,1.7,0.1,2.6
					s1.5,1.3,2.8,1.5c2.3,0.3,5.6-0.3,7.5-2.1c0.3-0.3,0.7-0.7,0.8-1c0.8,1.1,2.1,2,3.4,1.5c1.5-0.5,2.3-2.3,2.3-4.6
					c0-0.2,0-0.3,0-0.5c-0.2-2.3-1.3-5.1-3.9-6.2c1.8-1.1,2.3-2.3,2.3-3.3c0-0.3,0-0.5-0.2-0.7C44.3,24.4,43.6,23.8,42.1,23.4z
					 M38.2,38.5c-1.3,1.3-3.9,1.8-5.6,1.6c-0.8-0.2-1.1-0.3-1.1-0.5c-0.2-0.2-0.2-0.5,0-0.7c0.3-0.7,1.5-1.5,3.9-2.3h0.2
					c0.5,0.2,1,0.3,1.5,0.3c0.7,0,1.5-0.2,2-0.5C39,37,39,37.8,38.2,38.5z M44.3,35.5c0.2,1.6-0.5,2.8-0.8,2.8
					c-0.7,0.2-2-1.6-2.6-3.6c0.3-0.7,0.5-1.3,0.5-2.1c0-0.7-0.2-1.3-0.3-1.8C42.3,31.3,43.9,32.4,44.3,35.5z M39,32.6
					c0,1.1-1,2.1-2.1,2.1s-2.1-1-2.1-2.1c0-1.1,1-2.1,2.1-2.1C38.2,30.5,39,31.5,39,32.6z M33.8,29.7c-0.7,0.8-1.3,1.8-1.3,2.9
					c0,0.7,0.2,1.1,0.3,1.6c-0.8-0.3-1.8-0.8-2.5-2.1C29.2,30,28.5,28,29,27c0.2-0.3,0.3-0.7,0.8-0.8c0.2-0.2,0.5-0.2,1.1,0.2
					C32.1,26.9,33.3,28.5,33.8,29.7z M42.6,25.9c0.2,0.8-2,2.1-3.6,2.8c0,0-0.2,0-0.2,0.2c-0.7-0.3-1.3-0.5-2-0.5
					c-0.2,0-0.5,0-0.7,0c-0.2-1,0.2-1.8,1.3-2.3C39.7,24.9,42.3,25.4,42.6,25.9z"/>
				<path class="st0" d="M41.8,9.5c-2.3,1.8-3.8,4.3-4.6,5.6c-0.7-0.3-1.5-0.5-2.3-0.5c-0.7,0-1.3,0.2-1.8,0.5
					c-1.1-1.8-3.8-4.7-7.4-6.1c-4.3-1.5-6.5,2-8.4,4.6l0,0c-0.7,1-1.3,1.8-1.8,2.3c-2.8,2.1-4.3,4.3-3.3,8.7
					c0.3,1.5,1.6,4.4,7.4,7.5c-0.3,0.7-0.3,1.3-0.3,2v0.2c0,0.7,0.2,1.3,0.5,2.1c-3.1,1.8-6.5,4.9-6.2,9c0.2,3.3,2.8,5.7,4.1,6.4
					c1.1,0.5,2,1.5,2.1,1.8c1,1.6,2.5,2.9,4.3,3.6c2,0.8,4.3,0.8,6.4-0.2c3.3-1.5,5.6-5.4,6.5-7.2c0.3,0.2,0.8,0.3,1.1,0.3
					c0.8,0.2,1.5,0.2,2.3,0c0.5,0.7,1.1,1.6,2,2.6c2.3,2.3,5.1,3.4,8,3.3c1.1,0,2.3-0.3,3.4-0.8c1-0.7,2-1.8,2.6-3.3
					c1.8-4.9,3.9-3.1,5.6-6.7c0.2-0.7,0.3-1.5,0.3-2.5l0,0c-0.2-2.6-1.6-6.2-8.4-9.7c0.5-0.7,0.7-1.5,0.7-2.5c0-0.2,0-0.5,0-0.7
					s0-0.5-0.2-0.7c4.9-4.1,6.1-7.7,6.1-10c0,0,0,0,0-0.2c0,0,0,0,0-0.2c0-2.5-1.3-4.1-2.3-4.7c-0.7-0.5-1.3-0.8-1.8-1
					c-1-0.5-1.8-1-2.5-2c-1.5-2.5-4.3-3.4-4.3-3.4h-0.2C46.9,7.2,44.3,7.7,41.8,9.5z M17.4,27.9c-1.6-1.3-2.6-2.5-2.8-3.6l0,0
					c-0.7-3.3,0.2-4.6,2.5-6.2c0.8-0.7,1.6-1.8,2.5-2.9c1.8-2.6,3.1-4.3,5.4-3.6c3.1,1.1,5.2,3.9,6.2,5.1c-1.1,1.1-2,2.5-2.6,3.6
					c-0.2-0.2-0.5-0.3-0.7-0.3c-1-0.5-2.3-0.3-3.6,0.3c0,0-0.2,0-0.2,0.2c-1.6,1.3-2.6,3.3-2.6,5.7c0,1.5,0.3,2.9,0.7,4.1
					c-0.2,0-0.5,0.2-0.7,0.2C20.7,30,19,29,17.4,27.9z M29,54.7L29,54.7c-3.1,1.3-5.9-0.3-7.4-2.6c0,0,0,0,0-0.2
					c0,0-1.3-1.8-3.3-2.6c-0.5-0.2-2.5-1.8-2.6-4.3c-0.2-2.3,1.6-4.6,5.1-6.7c0.5,0.7,1.1,1.1,2,1.8c0.5,0.5,1.1,0.8,1.8,1.3
					c-0.3,0.7-0.5,1.3-0.5,2c0,2,1.5,3.6,3.8,4.3c2.3,0.5,4.9,0,6.7-0.7c0,0.3,0.2,0.5,0.2,0.8c0,0,0,0,0,0.2
					C34.8,48,32.5,53.2,29,54.7z M59.6,42.9c0,2.1-1.3,3.8-2.5,4.3c-1.6,0.8-2.3,2.1-2.8,3.4c-0.7,1.6-1.3,2.8-4.4,2.9
					c-1.3,0.2-4.7-0.2-7.7-4.4c1.5-1.1,2.5-2.9,3.3-4.1c0.8,0.5,1.8,0.7,2.9,0.5c0.2,0,0.2,0,0.2,0c1.5-0.7,3.3-2.1,3.3-5.9l0,0
					c0-1.6-0.3-3.4-0.7-4.6l0,0C56.7,37.2,59.6,40,59.6,42.9z M52,30.3c0,0.2,0,0.3,0,0.3c0,0.7-0.3,1.1-1,1.5c-0.2,0-0.2,0-0.3,0.2
					c-0.3,0.3-1,0.3-1,0.3c-0.5,0-0.8,0.2-1,0.5c-0.2,0.3-0.3,0.8-0.2,1.1c0,0.2,1,2.6,1,5.1c0,1.8-0.5,2.9-1.6,3.4
					c-1,0.2-1.3-0.3-1.3-0.7c-0.2-0.5-0.7-1-1.1-1c-0.5,0-1.1,0.3-1.3,0.8c0,0-1.6,4.3-3.9,5.6c-0.7,0.3-1.1,0.3-1.8,0.3v0.2v-0.2
					l0,0c-0.7-0.2-1.3-0.3-1.3-1.6c0-0.3,0-0.7,0-0.7c0.2-0.5,0-1-0.5-1.3c-0.3-0.3-0.8-0.3-1.3-0.2c-0.5,0.2-4.3,1.8-6.9,1.1
					c-1.1-0.3-1.6-0.8-1.6-1.6c0-0.5,0.3-1,0.7-1.3c0.3-0.3,0.7-0.7,0.7-1.1c0-0.5-0.3-0.8-0.8-1.1c-0.8-0.3-2.3-1.1-3.4-2.1
					c-1-0.8-2.1-2.1-2.1-3.4v-0.2c0-0.8,0.2-1.3,0.5-1.6c0.3-0.2,1-0.2,1.3,0c0.5,0.2,1,0,1.5-0.3c0.3-0.3,0.5-1,0.2-1.5
					c-0.2-0.3-1.1-2.6-1.1-4.9c0-1.6,0.5-2.9,1.5-3.8c0.5-0.3,1-0.3,1.3-0.2c0.5,0.2,0.7,0.8,0.7,0.8c0.2,0.5,0.7,0.8,1.1,0.8
					c0.5,0,1-0.3,1.3-0.8c0.3-0.7,1-2.1,2-3.4c0.8-1,2-2.3,3.3-2.5c0.7,0,1.1,0,1.3,0.3c0.5,0.3,0.5,1.1,0.5,1.6c0,0.3,0,0.5,0,0.5
					c0,0.5,0.2,1,0.5,1.1c0.3,0.3,0.8,0.3,1.3,0.2c1.3-0.7,5.2-2,7.2-0.7c0.7,0.5,0.8,0.8,0.8,1.1c0,0.8-0.7,1.6-0.8,2l0,0
					c-0.3,0.2-0.5,0.7-0.5,1c0,0.5,0.2,0.8,0.7,1.1c0.2,0,0.2,0.2,0.3,0.2C47.2,26.1,51.8,28,52,30.3z M48.8,10.3
					c0.3,0.2,2.1,0.8,2.9,2.5c1,1.6,2.3,2.3,3.4,2.9l0,0c0.5,0.3,1,0.5,1.3,0.8s1.1,1.3,1.1,2.8c0,1.6-0.8,4.4-4.7,7.7
					c-0.7-0.8-1.5-1.5-2.6-2.1c-0.7-0.3-1.3-0.7-2-1c0.5-0.8,0.7-1.8,0.7-2.5c0-1-0.3-2.3-2-3.3c-2.5-1.5-5.9-0.8-8-0.2
					c0-0.3-0.2-0.7-0.2-0.8c0.3-0.8,1.5-2.9,3.1-4.6C44.3,10.5,46.4,9.7,48.8,10.3z"/>
			</g>
		</g>
	</g>
	<g>
		<g>
			<path class="st0" d="M77.6,21v-7.2H102L87.3,44.2h14.2v7.2h-26l14.7-30.5C90,21,77.6,21,77.6,21z"/>
			<path class="st0" d="M120.5,43.5l5.8,2.9c0,0.2-0.2,0.4-0.4,0.6c-0.2,0.2-0.6,0.8-1.2,1.4c-0.6,0.6-1.4,1.2-1.9,1.7
				c-0.8,0.6-1.7,1-2.9,1.4c-1.2,0.4-2.5,0.6-3.9,0.6c-3.5,0-6.4-1.2-8.7-3.3c-2.3-2.1-3.5-5-3.5-8.5s1.2-6.4,3.5-8.5
				s5.2-3.3,8.5-3.3c3.5,0,6.2,1.2,8.3,3.3c2.1,2.1,3.3,5,3.3,8.5l-15.9,3.1c1,1.7,2.5,2.5,4.5,2.5c1,0,1.7-0.2,2.5-0.6
				c0.8-0.4,1.2-0.8,1.4-1.2L120.5,43.5z M116.2,34.3c-1.2,0-2.1,0.4-3.1,1c-0.8,0.8-1.4,1.7-1.7,2.9l8.7-1.7
				C119.3,35.1,117.8,34.3,116.2,34.3z"/>
			<path class="st0" d="M131.4,21v-7.2h24.5l-14.7,30.5h14.2v7.2h-25.8L144.3,21C144,21,131.4,21,131.4,21z"/>
			<path class="st0" d="M183.4,28.7v22.5h-6.6v-1.6c-0.2,0.2-0.4,0.4-0.8,0.6c-0.4,0.2-1,0.6-2.1,1s-2.3,0.6-3.7,0.6
				c-3.3,0-5.8-1.2-8-3.3c-1.9-2.1-2.9-4.9-2.9-8.5c0-3.5,1-6.4,3.1-8.5s4.7-3.3,8-3.3c1.4,0,2.5,0.2,3.5,0.6c1.2,0.4,1.9,0.8,2.3,1
				l0.8,0.4v-1.6L183.4,28.7L183.4,28.7z M167.6,36.3c-1,1-1.4,2.1-1.4,3.7s0.4,2.9,1.4,3.7s2.1,1.4,3.5,1.4s2.7-0.4,3.5-1.4
				s1.4-2.1,1.4-3.7s-0.4-2.9-1.4-3.7c-1-1-2.1-1.4-3.5-1.4C170,34.9,168.6,35.3,167.6,36.3z"/>
			<path class="st0" d="M234.4,13.8L218.5,53l-8.2-20.8L202.1,53l-15.9-39.2h8.5l7.4,19.2l8.2-20.8l8.2,21l7.4-19.2L234.4,13.8
				L234.4,13.8z"/>
			<path class="st0" d="M255.2,28.7v22.5h-6.6v-1.6c-0.2,0.2-0.4,0.4-0.8,0.6c-0.4,0.2-1,0.6-2.1,1s-2.3,0.6-3.7,0.6
				c-3.3,0-5.8-1.2-8-3.3c-2.1-2.1-3.1-5-3.1-8.5s1-6.4,3.1-8.5s4.7-3.3,8-3.3c1.4,0,2.5,0.2,3.5,0.6c1.2,0.4,1.9,0.8,2.3,1l0.8,0.4
				v-1.6L255.2,28.7L255.2,28.7z M239.6,36.3c-1,1-1.4,2.1-1.4,3.7s0.4,2.9,1.4,3.7s2.1,1.4,3.5,1.4s2.7-0.4,3.5-1.4
				s1.4-2.1,1.4-3.7s-0.4-2.9-1.4-3.7c-1-1-2.1-1.4-3.5-1.4C242,34.9,240.6,35.3,239.6,36.3z"/>
			<path class="st0" d="M274.2,28.3v7.2h-0.6c-1.6,0-2.7,0.4-3.7,1.4s-1.4,2.3-1.4,4.1v10.5h-7V28.7h6.6v1.7
				C269.7,28.9,271.8,28.3,274.2,28.3z"/>
		</g>
		<g>
			<path class="st0" d="M237.5,22.3c-0.4-0.4-0.6-0.8-0.6-1.2s0.2-1,0.6-1.2c0.4-0.4,0.8-0.6,1.2-0.6s1,0.2,1.2,0.6
				c0.4,0.4,0.6,0.8,0.6,1.2c0,0.4-0.2,1-0.6,1.2c-0.4,0.4-0.8,0.6-1.2,0.6S237.7,22.7,237.5,22.3z"/>
			<path class="st0" d="M242.9,21.5c-1-0.8-1.4-1.9-1.4-3.3c0-1.4,0.4-2.5,1.4-3.3s1.9-1.4,3.3-1.4c0.6,0,1.2,0.2,1.7,0.4
				c0.6,0.2,1,0.4,1.2,0.6l0.4,0.4l-1.6,2.1l-0.2-0.2c0,0-0.2-0.2-0.6-0.4c-0.4-0.2-0.6-0.2-1-0.2c-0.6,0-1,0.2-1.4,0.6
				c-0.4,0.4-0.6,0.8-0.6,1.6c0,0.8,0.2,1.2,0.6,1.6c0.4,0.4,0.8,0.6,1.4,0.6c0.4,0,0.6,0,1-0.2s0.4-0.2,0.6-0.4l0.2-0.2l1.6,2.1
				c0,0,0,0-0.2,0.2c0,0-0.2,0.2-0.4,0.4s-0.4,0.2-0.6,0.4c-0.2,0.2-0.6,0.2-1,0.4c-0.4,0-0.8,0.2-1.2,0.2
				C244.9,22.9,243.9,22.5,242.9,21.5z"/>
			<path class="st0" d="M258.3,21.5c-1,0.8-1.9,1.4-3.3,1.4c-1.4,0-2.5-0.4-3.3-1.4c-1-0.8-1.4-1.9-1.4-3.3c0-1.4,0.4-2.5,1.4-3.3
				s1.9-1.4,3.3-1.4s2.5,0.4,3.3,1.4s1.4,1.9,1.4,3.3C259.7,19.6,259,20.8,258.3,21.5z M253.6,19.8c0.4,0.4,0.8,0.6,1.4,0.6
				c0.6,0,1-0.2,1.4-0.6c0.4-0.4,0.6-0.8,0.6-1.4c0-0.6-0.2-1-0.6-1.4c-0.4-0.4-0.8-0.6-1.4-0.6c-0.6,0-1,0.2-1.4,0.6
				c-0.4,0.4-0.6,0.8-0.6,1.4C253,19,253,19.4,253.6,19.8z"/>
			<path class="st0" d="M269.3,17.9v4.9h-2.7v-5c0-1-0.4-1.4-1-1.4c-0.4,0-0.8,0.2-1,0.4c-0.2,0.4-0.4,0.8-0.4,1.2v4.9h-2.5v-8.7
				h2.5v0.4c0.6-0.6,1.4-0.8,2.1-0.8c1.2,0,1.9,0.4,2.5,1.2c0.6-0.8,1.6-1.2,2.5-1.2c1,0,1.7,0.4,2.3,1s0.8,1.6,0.8,2.7v5.4h-2.7v-5
				c0-1-0.4-1.4-1-1.4c-0.4,0-0.8,0.2-1,0.4C269.5,17.1,269.3,17.5,269.3,17.9z"/>
		</g>
	</g>
</g>
</svg>
