<?xml version="1.0" encoding="utf-8"?>
<!-- Generator: Adobe Illustrator 24.0.2, SVG Export Plug-In . SVG Version: 6.00 Build 0)  -->
<svg version="1.1" id="Layer_1" xmlns="http://www.w3.org/2000/svg" xmlns:xlink="http://www.w3.org/1999/xlink" x="0px" y="0px"
	 width="220px" viewBox="0 0 540.4 127.3" style="enable-background:new 0 0 540.4 127.3;" xml:space="preserve">
<style type="text/css">
	.st0{fill:#FFF200;}
	.st1{fill:#FFFFFF;}
</style>
<g>
	<g>
		<path class="st0" d="M62.7,124.9c-8.4,0.1-16.3-1.4-23.7-4.6c-7.4-3.2-13.9-7.6-19.5-13.1c-5.6-5.6-10-12.1-13.2-19.5
			c-3.2-7.4-4.7-15.3-4.7-23.8c0-8.5,1.6-16.5,4.7-23.8c3.2-7.4,7.6-13.9,13.2-19.5c5.6-5.4,12.1-9.8,19.5-13
			c7.4-3.3,15.2-4.9,23.7-4.9c5.6,0,11.1,0.8,16.4,2.3c5.3,1.6,10.3,3.7,14.9,6.5c2,1.3,3.3,3.1,3.9,5.2c0.6,2.2,0.3,4.2-0.9,6.2
			c-1.2,2.1-2.9,3.4-5.1,4c-2.2,0.6-4.3,0.2-6.3-1c-3.4-2-7.1-3.5-10.9-4.6c-3.8-1.1-7.8-1.7-12-1.7c-6.2,0-12,1.2-17.3,3.5
			c-5.3,2.3-10,5.5-14.1,9.5c-3.9,4-7,8.7-9.3,14c-2.3,5.4-3.5,11.2-3.5,17.3c0,6.3,1.2,12.1,3.5,17.3c2.3,5.3,5.4,9.9,9.3,14
			c4.1,4,8.8,7.1,14.1,9.4c5.3,2.3,11.1,3.4,17.3,3.4c5.1,0,9.9-0.7,14.4-2.2s8.6-3.7,12.4-6.6c7.6-5.8,12.9-13.3,15.8-22.6
			c0.8-2.9-0.4-4.3-3.5-4.3H72.5c-2.4,0-4.5-0.8-6.1-2.4c-1.6-1.6-2.4-3.6-2.4-6.1c0-2.4,0.8-4.5,2.4-6.1c1.6-1.6,3.6-2.4,6.1-2.4
			h31.2c4.4,0,8,0.8,10.8,2.5c2.8,1.7,4.8,3.8,6.1,6.3c1.3,2.5,2,5.3,2,8.4c0,3-0.4,6-1.3,8.9c-2,6.3-4.8,12.1-8.4,17.4
			c-3.6,5.3-8.1,9.9-13.4,13.8c-5.1,3.9-10.7,6.9-16.9,9.1c-6.2,2.2-12.8,3.3-19.8,3.2H62.7z"/>
		<path class="st1" d="M176.9,50.2c5.2,0,10,1,14.5,2.9c4.5,1.9,8.4,4.6,11.9,8.1c3.5,3.5,6.3,7.6,8.2,12c1.9,4.5,2.9,9.3,2.9,14.5
			v29.2c0,2.3-0.8,4.3-2.4,5.8c-1.6,1.6-3.5,2.3-5.7,2.3c-2.3,0-4.3-0.8-5.8-2.3c-1.6-1.5-2.3-3.5-2.3-5.8V87.7
			c0-2.9-0.6-5.6-1.7-8.2c-1.2-2.6-2.7-4.9-4.6-6.9c-2-1.9-4.3-3.4-6.8-4.5c-2.5-1.1-5.3-1.7-8.1-1.7c-2.9,0-5.6,0.6-8.3,1.7
			c-2.7,1.1-4.9,2.6-6.8,4.5c-1.9,2-3.4,4.3-4.5,6.8c-1.1,2.5-1.7,5.3-1.7,8.3c0,2.9,0.6,5.6,1.7,8.2c1.2,2.6,2.7,4.9,4.6,6.9
			c4.2,4,9.2,6,14.9,6h3.7c5.2-0.2,8.1,2,8.8,6.8c0.2,2.2-0.3,4.2-1.6,5.9c-1.3,1.7-3,2.8-5.2,3.2c-0.9,0.2-1.9,0.3-3,0.3
			c-1.1,0-2,0-2.7,0c-5.2,0-10-1-14.5-2.9c-4.5-1.9-8.5-4.6-12-8.1c-3.5-3.3-6.3-7.2-8.2-11.8c-1.9-4.5-2.9-9.4-2.9-14.6
			c0-5.2,1-10,2.9-14.5c1.9-4.5,4.7-8.5,8.2-12c3.5-3.4,7.6-6.1,12-8.1C166.9,51.1,171.7,50.2,176.9,50.2z"/>
		<path class="st1" d="M283,54.5c1.9,1.2,3.1,2.9,3.7,5.1c0.6,2.2,0.3,4.2-0.8,6c-1.2,2-2.9,3.3-5.1,3.9c-2.2,0.6-4.3,0.3-6.1-0.9
			c-2.5-1.4-5.2-2.2-8-2.2c-2.2,0-4.3,0.4-6.2,1.2c-1.9,0.8-3.6,2-5.1,3.4c-1.3,1.3-2.4,3-3.2,4.9c-0.8,1.9-1.2,4-1.2,6.2v34.7
			c0,2.3-0.8,4.3-2.4,5.8c-1.6,1.6-3.5,2.3-5.7,2.3c-2.2,0-4.2-0.8-5.8-2.3c-1.7-1.5-2.5-3.5-2.5-5.8V82.2c0-4.4,0.8-8.6,2.5-12.5
			c1.7-3.9,4-7.3,7-10.3c3-2.9,6.4-5.1,10.2-6.8s8-2.5,12.5-2.5C272.6,50.2,278.1,51.6,283,54.5z"/>
		<path class="st1" d="M334,125.1c-5.2,0-10-1-14.5-2.9c-4.5-1.9-8.5-4.6-12-8.1c-3.5-3.5-6.3-7.6-8.2-12c-1.9-4.5-2.9-9.3-2.9-14.5
			c0-5.2,1-10.1,2.9-14.6c1.9-4.5,4.7-8.5,8.2-11.8c3.5-3.4,7.6-6.1,12-8.1c4.5-1.9,9.3-2.9,14.5-2.9c0.7,0,1.5,0,2.7,0
			c1.1,0,2.1,0.1,3,0.3c2.2,0.4,4,1.5,5.2,3.2c1.3,1.7,1.8,3.7,1.6,5.9c-0.3,2.3-1.4,4.1-3.2,5.2c-1.8,1.2-3.8,1.7-6,1.7
			c-0.4,0-1,0-1.7-0.1c-0.7-0.1-1.2-0.1-1.7-0.1c-5.8,0-10.7,2-14.9,6c-1.9,2-3.4,4.3-4.6,6.9c-1.2,2.6-1.7,5.3-1.7,8.2
			c0,3,0.6,5.8,1.7,8.3c1.1,2.5,2.6,4.8,4.5,6.8c1.9,1.9,4.2,3.4,6.8,4.5c2.7,1.1,5.4,1.7,8.3,1.7c2.9,0,5.6-0.6,8.1-1.7
			c2.5-1.1,4.8-2.6,6.8-4.5c1.9-2,3.4-4.3,4.6-6.9c1.2-2.6,1.7-5.3,1.7-8.2V10.7c0-2.3,0.8-4.3,2.3-5.8c1.5-1.5,3.5-2.3,5.8-2.3
			c2.2,0,4.1,0.8,5.7,2.3c1.6,1.6,2.4,3.5,2.4,5.8v76.9c0,5.2-1,10-2.9,14.5c-1.9,4.5-4.7,8.5-8.2,12c-3.4,3.4-7.4,6.1-11.9,8.1
			C344,124.1,339.2,125.1,334,125.1z"/>
		<path class="st1" d="M401.2,26.8c-3.1,0-5.7-1.1-7.9-3.2c-2.2-2.2-3.2-4.7-3.2-7.7c0-3.1,1.1-5.7,3.2-7.9c2.2-2.2,4.8-3.2,7.9-3.2
			c3,0,5.6,1.1,7.7,3.2c2.2,2.2,3.2,4.8,3.2,7.9c0,3-1.1,5.6-3.2,7.7C406.8,25.7,404.2,26.8,401.2,26.8z M393.1,58.3
			c0-2.3,0.8-4.3,2.4-5.8c1.6-1.5,3.5-2.3,5.7-2.3c2.2,0,4.1,0.8,5.7,2.3c1.6,1.6,2.4,3.5,2.4,5.8v58.6c0,2.3-0.8,4.3-2.4,5.8
			c-1.6,1.6-3.5,2.3-5.7,2.3c-2.2,0-4.1-0.8-5.7-2.3c-1.6-1.5-2.4-3.5-2.4-5.8V58.3z"/>
		<path class="st1" d="M448.7,108.5c2.4,0.6,4.2,1.7,5.3,3.6c1.1,1.8,1.5,3.8,1.2,5.9c-0.3,1.9-1.3,3.5-2.8,4.8
			c-1.6,1.3-3.3,2-5.3,2c-5.3,0-9.6-1.8-12.9-5.4c-3.3-3.6-5-8.4-5-14.4V10.7c0-2.3,0.8-4.3,2.3-5.8c1.5-1.5,3.5-2.3,5.8-2.3
			c2.2,0,4.1,0.8,5.7,2.3c1.6,1.6,2.4,3.5,2.4,5.8V105c0,1.1,0.3,1.9,0.8,2.4C446.7,107.9,447.6,108.2,448.7,108.5z"/>
		<path class="st1" d="M501.1,50.2c5.3,0,10.2,1,14.7,2.9c4.5,1.9,8.4,4.6,11.9,8.1c3.5,3.5,6.3,7.5,8.2,12
			c1.9,4.4,2.9,9.3,2.9,14.6c0,5.2-1,10.1-2.9,14.6c-1.9,4.5-4.7,8.5-8.2,11.8c-3.4,3.4-7.4,6.1-11.9,8.1c-4.5,1.9-9.4,2.9-14.7,2.9
			c-5.1,0-9.9-1-14.4-2.9c-4.5-1.9-8.5-4.6-12-8.1c-3.5-3.3-6.3-7.2-8.2-11.8c-1.9-4.5-2.9-9.4-2.9-14.6c0-5.3,1-10.2,2.9-14.6
			c1.9-4.4,4.7-8.4,8.2-12c3.5-3.4,7.6-6.1,12-8.1C491.3,51.1,496,50.2,501.1,50.2z M516.2,102.6c4.2-4,6.3-9,6.3-14.9
			c0-2.9-0.6-5.6-1.7-8.2c-1.2-2.6-2.7-4.9-4.6-6.9c-2-1.9-4.3-3.4-6.9-4.5c-2.6-1.1-5.3-1.7-8.2-1.7c-2.9,0-5.6,0.6-8.2,1.7
			c-2.6,1.1-4.8,2.6-6.7,4.5c-1.9,2-3.4,4.3-4.5,6.8c-1.1,2.5-1.7,5.3-1.7,8.3c0,2.9,0.6,5.6,1.7,8.2c1.1,2.6,2.6,4.8,4.5,6.7
			c1.9,1.9,4.1,3.4,6.7,4.5c2.6,1.1,5.3,1.7,8.2,1.7c2.9,0,5.6-0.6,8.2-1.7C512,106,514.3,104.5,516.2,102.6z"/>
	</g>
	<g>
		<path class="st1" d="M62.8,124.4c-8.4,0.1-16.3-1.4-23.6-4.6c-7.3-3.2-13.8-7.6-19.5-13.1C14,101,9.6,94.5,6.5,87.2
			c-3.1-7.3-4.7-15.3-4.7-23.8c0-8.5,1.6-16.4,4.7-23.8c3.1-7.3,7.5-13.8,13.2-19.5c5.6-5.4,12.1-9.7,19.5-13
			c7.3-3.3,15.2-4.9,23.6-4.9c5.6,0,11.1,0.8,16.4,2.3c5.3,1.5,10.3,3.7,14.9,6.5c2,1.3,3.3,3.1,3.9,5.2c0.6,2.2,0.3,4.2-0.9,6.2
			c-1.2,2.1-2.9,3.4-5.1,4c-2.2,0.6-4.3,0.2-6.3-1c-3.4-2-7-3.5-10.9-4.6c-3.8-1.1-7.8-1.7-12-1.7c-6.2,0-11.9,1.2-17.2,3.5
			c-5.3,2.3-10,5.5-14.1,9.4c-3.9,4-7,8.6-9.3,14c-2.3,5.4-3.5,11.1-3.5,17.3c0,6.3,1.2,12.1,3.5,17.3c2.3,5.2,5.4,9.9,9.3,14
			c4.1,4,8.8,7.1,14.1,9.4c5.3,2.3,11,3.4,17.2,3.4c5.1,0,9.9-0.7,14.3-2.2c4.5-1.5,8.6-3.7,12.3-6.5c7.6-5.7,12.9-13.3,15.7-22.5
			c0.8-2.9-0.4-4.3-3.5-4.3H72.5c-2.4,0-4.4-0.8-6-2.4c-1.6-1.6-2.4-3.6-2.4-6c0-2.4,0.8-4.4,2.4-6c1.6-1.6,3.6-2.4,6-2.4h31.2
			c4.4,0,8,0.8,10.8,2.5c2.8,1.7,4.8,3.8,6.1,6.3c1.3,2.5,2,5.3,2,8.4c0,3-0.4,6-1.3,8.9c-2,6.3-4.8,12.1-8.4,17.4
			c-3.6,5.3-8,9.9-13.3,13.8c-5.1,3.9-10.7,6.9-16.9,9.1c-6.2,2.2-12.8,3.3-19.7,3.1H62.8z"/>
		<path class="st0" d="M106.6,94.9c0.9-6.5,0.4-12.8-1.4-18.9c0,0.1,0,0.1,0,0.2c-2.9,9.3-8.1,16.8-15.7,22.5
			c-3.8,2.9-7.9,5.1-12.3,6.5c-4.5,1.5-9.3,2.2-14.3,2.2c-6.2,0-11.9-1.1-17.2-3.4c-5.3-2.3-10-5.4-14.1-9.4c-3.9-4.1-7-8.8-9.3-14
			c-0.7-1.5-1.2-3-1.7-4.6c-1.2,4.1-1.9,8.4-1.9,12.7c0.1,5.5,1.2,11,3.3,16.5c0.8,2,1.8,4,2.9,5.8c4.4,3.5,9.2,6.3,14.4,8.6
			c7.3,3.2,15.2,4.7,23.6,4.6h0.2c7,0.1,13.5-0.9,19.7-3.1c6.2-2.2,11.8-5.2,16.9-9.1c0.5-0.4,1-0.8,1.5-1.1c0.5-0.9,1-1.8,1.5-2.7
			C104.6,104,106,99.6,106.6,94.9z"/>
		<path class="st0" d="M6.3,65.7c2.9-7.5,7.3-14.2,13.2-20.2c1.6-1.6,3.4-3.2,5.1-4.6c1.9-3.3,4.1-6.3,6.7-8.9
			c4.1-4,8.8-7.1,14.1-9.4c5.3-2.3,11-3.5,17.2-3.5c4.2,0,8.2,0.6,12,1.7c3.8,1.1,7.4,2.7,10.9,4.6c2,1.2,4.1,1.5,6.3,1
			c2.2-0.6,3.9-1.9,5.1-4c1.2-2,1.5-4.1,0.9-6.2c-0.6-2.2-1.9-3.9-3.9-5.2c-4.6-2.8-9.6-4.9-14.9-6.5C73.9,3,68.4,2.3,62.8,2.3
			c-8.4,0-16.3,1.6-23.6,4.9c-7.3,3.3-13.8,7.6-19.5,13C14,25.8,9.6,32.3,6.5,39.6C3.4,47,1.8,54.9,1.8,63.4c0,4.6,0.5,9,1.4,13.2
			C3.9,72.9,5,69.3,6.3,65.7z"/>
	</g>
</g>
</svg>
