<?xml version="1.0" encoding="utf-8"?>
<!-- Generator: Adobe Illustrator 24.0.2, SVG Export Plug-In . SVG Version: 6.00 Build 0)  -->
<svg version="1.1" id="Layer_1" xmlns="http://www.w3.org/2000/svg" xmlns:xlink="http://www.w3.org/1999/xlink" x="0px" y="0px"
	 width="220px" viewBox="0 0 595.3 208.2" style="enable-background:new 0 0 595.3 208.2;" xml:space="preserve">
<style type="text/css">
	.st0{opacity:0.25;}
	.st1{fill:#ED1C24;}
	.st2{fill:#FFFFFF;}
</style>
<g class="st0">
	<path class="st1" d="M596.4,39.9C596.4,39.9,596.4,39.9,596.4,39.9c0-0.3,0-0.5-0.1-0.8c0.1-0.4,0.1-0.8,0-1.3l-0.2-1.1
		c-0.1-0.6-0.3-1.2-0.7-1.8l-0.4-0.6c-0.2-0.4-0.5-0.7-0.9-1l-1.5-1.2l-0.2-0.1c0,0-0.5-0.4-1.2-0.9l-0.6-0.9V30l-0.7-0.9l-0.2-0.3
		c-0.8-1-1.9-1.6-3.2-2.1c-0.3-0.1-0.6-0.2-0.9-0.2c-0.5-0.6-1.1-1.1-1.9-1.4c-0.4-0.5-0.8-0.9-1.3-1.2l-0.3-0.2
		c-0.8-0.5-1.7-0.7-2.6-0.7c-0.9,0-1.6,0.2-1.8,0.3l-0.4,0.1l-1.1,0.6l-0.7-0.1l-1.3,0c-0.6,0-1.2,0.1-1.7,0.3l-0.5,0.2l-1.7-0.3
		H570c-0.9,0-1.7,0.2-2.4,0.7l-2.1,1.4c-0.4,0.2-0.7,0.5-1,0.9l-0.1,0.2l-0.1,0c-0.8,0.2-1.5,0.6-2.1,1.2l-0.1,0.1
		c-0.4,0.1-0.7,0.3-1.1,0.5l-0.9,0.6c-0.5,0.3-0.9,0.7-1.3,1.2l-0.6,0.9c-0.3,0.4-0.4,0.8-0.6,1.2l-0.3,0.9l-0.3,0.7
		c-0.5,1.1-0.6,2.3-0.2,3.4c0,0,0.2,0.5,0.4,1.1c-0.6,0.2-1.2,0.5-1.6,0.9c-1.3,1.1-1.8,2.8-1.5,4.4l0.2,0.9
		c0.1,0.3,0.2,0.5,0.3,0.8l-0.3,1.2l-0.2,1.3l-1,3c-0.1,0.2-0.1,0.4-0.1,0.6c0,0.1-0.1,0.2-0.3,0.4c-0.1,0-0.2,0.1-0.5,0.2
		c-6-0.2-13.5-2.8-21.4-5.6c0.3-0.1,0.5-0.3,0.7-0.5c0.1,0,0.2,0,0.4,0l0.5,0l0.7-0.1l0.8,0l2-0.3l1.3,0c0.3,0,0.7,0,0.9-0.1
		c0.3-0.1,0.6-0.2,1-0.3l0.3,0c0.6,0,1.3-0.1,1.8-0.4l2.1-0.9c0.4-0.2,0.8-0.4,1.1-0.7l0.6-0.5l0.7-0.3L546,43
		c1.3-0.9,2.2-1.7,2.8-2.4l0.4-0.6c0.4-0.2,0.7-0.5,1.1-0.9l0.9-1c0.3-0.3,0.5-0.7,0.7-1.1l0.3-0.6l0,0c0.1-0.1,0.3-0.5,0.8-1.6
		l0.7-1.3c0.2-0.4,0.4-0.8,0.5-1.2l0-0.1c0.2-0.3,0.4-0.7,0.4-1l0.2-0.5c0.6-0.9,0.9-1.9,1-3c0-0.5,0-0.9-0.1-1.4
		c0-0.3-0.1-1-0.6-2.1l0,0l0-0.1c0-0.5,0-1.1-0.2-1.6l-0.2-0.8l-0.3-0.8c-0.2-0.4-0.4-0.7-0.5-1l-0.1-1c0-1-0.4-2-0.9-2.9l-0.5-1.1
		c-0.4-1-1.2-1.7-2-2.2c-0.2-0.7-0.5-1.4-1-2.3l-0.2-0.5c-0.4-0.8-1-1.5-1.7-2l-1.4-0.9c-0.6-0.4-1.2-0.6-1.9-0.7l-1-0.1l-0.6,0
		c-0.6,0-1.3,0.1-1.8,0.4l-2.3,1c-0.3,0.1-0.5,0.3-0.8,0.4c-0.4,0.2-0.7,0.4-1,0.7l-0.6,0.6l-0.3,0.3l-0.1,0.1
		c-0.6,0.3-1,0.6-1.5,1.1l-0.9,1l-1.1,1.4c-0.2,0.3-0.4,0.6-0.5,0.9c-0.1,0.1-0.2,0.2-0.3,0.2c-0.1,0.1-0.2,0.2-0.3,0.3l-0.4,0.2
		c-0.4,0.2-0.7,0.4-1.1,0.7l-1.5,1.3l-1.1,0.8l-0.4,0.2c-0.6,0.3-1.1,0.7-1.6,1.2l-0.7,0.8l-0.7,0.3c-0.4,0.2-0.7,0.4-1,0.6
		l-0.6,0.5l-5,2.3c-1,0.4-1.8,1.2-2.2,2.2l-0.7,1.4c-0.1,0.2-0.2,0.4-0.2,0.6c-7.2,3-8.7,5-10.3,8.5c-0.1,0.3-0.3,0.7-0.5,1
		c-0.3,0.6-0.6,1-0.7,1.2c-0.1,0.1-0.3,0.1-0.4,0.2l-4.2,2.3c-0.1,0-0.1,0-0.2,0c-0.9,0-3.1,0-4.2,0.2l-0.1,0
		c-2.7,0.6-5.3,1.2-7.6,1.9c0-0.1,0.1-0.1,0.1-0.2l1.4-2.1c0.6-0.9,0.9-2,0.7-3.1l-0.2-1.4l0.2-0.5c0.2-0.6,0.4-1.1,0.4-1.8l0-1
		l-0.1-0.9l0.7-1.2l0.1-0.4c0.2-0.7,0.7-2.6-0.3-4.5l-0.2-0.3c-0.3-0.5-0.7-1-1.1-1.3c-0.3-0.7-0.7-1.4-1.3-1.9
		c0-0.3-0.1-0.6-0.2-0.8c-0.5-1.4-1-2.5-2-3.3l-0.3-0.3l-0.3-0.2l-1.7-1.1c-0.5-0.7-0.8-1.2-0.8-1.2l-1.4-1.7
		c-0.3-0.3-0.6-0.6-1-0.9l-0.6-0.4c-0.5-0.4-1.1-0.6-1.8-0.7l-1.6-0.3h-0.3c-0.2,0-0.3,0-0.5,0c-0.3-0.1-0.5-0.1-0.7-0.1
		c0,0-0.1,0-0.1,0l-0.2,0c-1.3-0.3-2.7,0-3.7,0.8l-0.8,0.6c-0.6,0.4-1,1-1.3,1.6c-0.2,0.4-0.6,1.4-0.7,2.7c-0.3,0.7-0.4,1.5-0.3,2.3
		c-0.1,0.6-0.1,1.2-0.1,1.8c0,0.2,0,0.4-0.1,0.5c0,0.3-0.1,0.5-0.1,0.9c0,0.2-0.1,0.6-0.1,0.7l-0.3,1.2c-0.2,0.7-0.4,1.4-0.6,1.8
		c-0.1,0.4-0.2,0.9-0.3,1.6c-0.5,0.8-0.6,1.6-0.6,2.2l-0.2,0.4l-0.8,1.8l-0.2,0.2c-0.2,0.2-0.3,0.4-0.4,0.6l-0.5,0.6
		c-3.4,0.7-8.8,3.1-11.1,8.5c-1.8,4.4-2.3,8.5-2.4,10.3c-0.9,1.5-5,4.4-9.8,6.9c0.8-1.8,1.4-2.9,1.6-3.3c1.8-2.1,6.3-8.3,4.9-13.9
		c-1-3.9-2.5-6.3-4.6-7.2c-0.4-0.4-1-0.6-1.5-0.8c-1.6-0.5-3.4,0-4.6,1.2l-3.6,3.7c-3.8,4-2.8,9.2-2.2,12.7c0.2,1.2,0.5,2.6,0.4,3.4
		c-2,6-6.7,12-7.9,13.5c-2.2,1.6-3.7,3-3.7,3c-0.4,0.3-0.7,0.7-0.9,1.1c-2.3,4-0.6,6.7,0.4,7.8c0.5,0.6,1.1,1,1.8,1.3
		c0.7,0.3,1.4,0.4,2.1,0.4c2.8,0,4.9-1.8,7.3-3.8l0.7-0.6c2.4-2,9.5-6.2,12.3-7c4.8-1.4,9.5-2.9,14.1-4.5l2.4,0.3
		c0.2,0.1,0.4,0.2,0.6,0.4c0.3,0.2,0.6,0.4,0.8,0.6c0.1,0.1,0.3,0.3,0.6,0.5c1.1,1,3,2.6,5.3,4.1c4,2.6,7.7,3.4,10.9,2.5
		c1.5-0.3,4.3-1,5.5-3.1c1.2-1,1.9-2.3,2.1-3.7c0.2-1.1,0.1-3.2-1.9-5.2c-0.3-0.6-0.7-1.2-1.3-1.7c-0.5-0.5-1.5-1.3-2.8-2.1
		c-0.2-0.1-0.4-0.2-0.6-0.4c0.3,0,0.6,0,0.9,0c2.7,0,4.7,0.5,5.5,0.8c0,0,0.1,0,0.1,0c0.3,0.2,0.7,0.4,1.1,0.6
		c0.3,0.1,0.5,0.2,0.8,0.2c0.1,0.1,0.2,0.2,0.3,0.3c1.3,1.6,2,2.5,2,2.5c0,0,0,0,0,0l1.4,2l1.3,1.6l0.5,0.6c0.1,0.4,0.3,0.7,0.6,1
		c0.3,0.5,0.6,1,1.2,1.5l0.2,0.2c0,0.1,0.1,0.2,0.1,0.3c0,0.1,0,0.1,0.1,0.2l0.1,0.5c0.4,1.6,1.6,2.9,3.2,3.3
		c0.6,0.2,1.2,0.2,1.8,0.1l0.1,0.1c0,0.1,0.1,0.1,0.1,0.2c0.2,0.7,0.6,1.8,1.5,2.6l1.9,1.7c0.3,0.3,0.7,0.6,1,0.8
		c0.3,0.2,0.6,0.4,1,0.6c0.5,0.2,0.9,0.3,1.2,0.4c0.2,0.1,0.5,0.2,0.7,0.3c0.6,0.2,1.3,0.2,1.6,0.3l0.9,0.1l0.5,0.1c0,0,0,0,0.1,0
		c0,0,0,0,0,0c0.1,0,0.2,0.1,0.3,0.1l0.5,0.2c0,0,0.1,0.1,0.1,0.1l0.9,0.6c0.4,0.3,0.7,0.4,1.2,0.6l0.7,0.2c0.5,0.2,0.9,0.2,1.4,0.2
		l0.3,0c0.7,0.2,1.4,0.2,2.1,0l0.5,0c0.5,0.4,1.3,1,2.5,1.2c0.2,0.1,0.3,0.1,0.5,0.2c0.4,0.1,0.9,0.2,1.4,0.2c0.6,0,1.2-0.1,1.8-0.4
		c0.8-0.3,1.3-0.7,1.6-0.9c0.3-0.2,0.5-0.5,0.7-0.7c1-0.8,1.6-1.7,1.8-2.9c0.2-0.6,0.3-1.1,0.3-1.4c0-0.5,0-1,0-1.6
		c0-0.2,0-0.3-0.1-0.5c0.1-0.2,0.2-0.4,0.3-0.6l0.2-0.5c0.4-0.2,0.8-0.4,1.1-0.6l0.2-0.1c0.2-0.1,0.9-0.5,1.3-0.7
		c0.7-0.3,1.5-0.7,2.2-1.4l0.4-0.5c0.8-0.9,1.2-2.1,1.2-3.2l0-1.1l-0.1-0.7c0-0.2-0.1-0.5-0.2-0.7c0.4-0.7,0.7-1.5,0.8-2.3
		c0-0.2,0-0.5,0-0.7c0-0.4,0.1-0.8,0.1-1.4c0-0.7-0.1-1.3-0.3-1.9l1.9,0.6l1.8,0.7c1.2,1.4,2.4,2.7,3.2,3.5c1,1.5,2.6,3.9,4,6.1
		l0.3,0.4c2.5,3.1,6.4,4.5,9.2,5.1c1.4,0.3,2.7,0.5,3.5,0.5c0.8,0,1.5-0.1,2.2-0.3c2.8,0,4.4-1.4,5.1-2.3c0.9-1.1,1.3-2.5,1.2-4.1
		c0.7-2.4-0.8-4.9-1.7-6.2c-0.5-0.9-1.2-1.8-2-2.5c0.9-0.3,1.9-0.6,2.8-0.9c6.2-2.4,8.2-8.6,8.8-10.9l0.6-0.5
		c0.2-0.1,0.4-0.2,0.6-0.4l1.8-0.8l0.7-0.4c0.6,0,1.4-0.1,2.2-0.6c0.6,0,1.1-0.1,1.6-0.3c0.7-0.1,1.4-0.4,1.8-0.5l1.2-0.2
		c0,0,0.4-0.1,0.7-0.1c0.4,0,0.6,0,0.9-0.1c0.1,0,0.3,0,0.5,0c0.5,0,1,0.1,1.8-0.1l0.4,0.1h0.3c0.5,0,1.1-0.1,1.6-0.3
		c1.3,0,2.3-0.4,2.6-0.6c0.6-0.3,1.2-0.7,1.6-1.3l0.6-0.8C596.4,42.7,596.7,41.3,596.4,39.9z M546.2,22.9l0.5,1l0.2,0.3l0.1,0.1
		l0,1.1l0.5,1.5l-0.5,1.6c-0.2,0.4-0.5,0.9-0.6,1.5l-0.5,1l-0.2,0.3c0,0.1-0.3,0.6-0.4,0.8l-0.6,1.1l-0.9,0.4l-0.8,1.1L546.2,22.9z
		 M435.8,48.3c-0.1-0.6-0.1-1.2-0.1-1.7l1.2-1.1C436.7,46.3,436.3,47.3,435.8,48.3z M461.2,46l-0.5,0.1l-3.2,1c-0.1,0-0.2,0-0.3,0.1
		c0.2-0.5,0.4-1,0.6-1.5c1.2-2.8,4.8-3.6,5.5-3.8l0.2,0l-2.6,3.9L461.2,46z M473.1,67.5c-0.6,0-1.9-0.2-4-1.6
		c-0.6-0.4-1.3-0.8-1.8-1.3c0.3-0.1,0.7-0.1,1-0.2c1.2-0.1,2.9,0.6,4.8,1.7c0.1,0.1,0.3,0.2,0.4,0.2l-0.2,0.6l0.4,0.3L473.1,67.5z
		 M480.1,29.8l-0.3,1.9l0.1,1.7l-0.8,1.9l0.3,2.2l-0.4,0.5l-0.9,0.7l-1.2,1.8l-0.2,0.6l-1,0.9l-0.4,1.3l-0.5,0.2
		c-0.2-0.1-0.5-0.2-0.7-0.3l-0.9-0.3l-0.9-0.6l-0.8-0.1l-0.5-0.3l-1.4-0.3l-1.4-1l-2,0l0.6-0.6l0.9-1.1l0.1-0.1
		c0.6-0.6,0.9-1.2,1-1.6l0.6-0.8l0.8-1.9l1-1.9l0-0.8l0.5-0.5l0.1-2.1c0-0.1,0-0.2,0-0.3l0-0.1c0.1-0.5,0.3-1.1,0.4-1.4l0.1-0.3
		l0.4-1.9l0,0c0.1-0.4,0.2-1.2,0.2-1.8c0-0.1,0-0.2,0-0.3c0-0.2,0.1-0.5,0.1-1l0-0.3l0-0.3c0,0,0,0,0,0l0.1-0.5c0-0.2,0-0.4,0.1-0.7
		l0.4,0.5c0.1,0.2,0.5,0.8,1,1.5l0.4,0.7l2.4,1.6l0.1,1.2l1,2.1l-0.2,0.9l1.5,1L480.1,29.8z M539.3,38.1
		C539.3,38.1,539.3,38.1,539.3,38.1C539.3,38.1,539.3,38.1,539.3,38.1L539.3,38.1z M514.2,54.7l2.4,0.7c-0.1,0.1-0.2,0.3-0.3,0.4
		c-0.1,0.1-0.2,0.2-0.3,0.3c-0.2,0.1-0.4,0.3-0.7,0.6l-0.1,0l-0.1,0l-1.9-0.4l-0.5-0.1c-0.4-0.1-0.8-0.2-1.2-0.2l-1.3,0.1l-0.7,0
		c-0.8-0.4-1.7-0.5-2.7-0.3l-1.1-0.9l-0.3-0.2c-0.6-0.5-1.3-1-1.7-1.4C509.5,53.7,513.6,54.6,514.2,54.7z M525.9,63.3l-0.5,0.5
		l-0.3,0.8c-0.1,0.2-0.2,0.6-0.3,1l-0.3,1.1l0.4,1.5c-0.1,0.1-0.2,0.1-0.3,0.1c-0.1,0.1-0.2,0.1-0.3,0.2c-0.1,0.1-0.3,0.2-0.3,0.2
		l-0.4,0.1c-0.4,0.1-0.8,0.3-1.1,0.5l-2,1l-0.8,2.7l0,0.4l-1.2,1.7l0.1,0.7c0,0-0.1,0-0.1,0l-0.6-0.1l-1.8,0.1l-2-0.6l-0.3,0.3
		c-0.5-0.3-0.8-0.5-1.1-0.6l-1.7-0.7c-0.4-0.1-0.9-0.2-1.2-0.3l-0.7-0.1l-1.5-0.1c-0.2-0.1-0.4-0.2-0.7-0.3l-1.1-1
		c-0.2-0.5-0.4-0.9-0.6-1.3l0.2-0.6l-0.7-1.4c-0.1-0.2-0.3-0.5-0.4-0.8l0-0.5l-0.1-0.2l1.3-2.5l-3.9-1.7l-5.8-2.2l-1.8-2.4
		c-0.1-0.2-0.6-0.8-1.4-1.8c0.1,0,0.3-0.1,0.4-0.1c0.2-0.1,0.5-0.1,0.7-0.1c2.2,0,4.1,1.9,4.2,2c1,1,2.2,1.9,2.8,2.4l1.2,1l1.5,1.2
		l2.6,0.7l1.2-0.1l0.8,0.4l1.1-0.1l1.5-0.1l0.7-0.1l1.6,0.3l1.4,0.2l1.2,0.1l1.1-0.1l1.2,0l1.8-0.9l1-1.1l0,0
		c0.2-0.1,0.4-0.3,0.6-0.5c0.4-0.3,0.7-0.6,0.9-0.9l0.5,0.2l0.8,0l1-0.1l0.6,0.9l0.7,0.7l0.1,0.1L525.9,63.3z M527.9,36.8l-1.8,4.1
		l-0.1,0l-0.4-0.9l-0.3-0.5l-0.8-4.5l-5.6,2l-0.6,0.6c-1.1,1-1.3,1.9-1.4,2.1l-0.2,0.5l-1.2-0.2l-1.5-0.4l-1.7-0.1l-0.9,0.1
		c-0.2,0-0.3-0.1-0.5-0.1c0.7-1.5,1.3-2.3,7.3-4.7l1.9-1.1l2.1-3.3l-0.1-0.2l3.9-1.7l1.1-0.9l1.9-0.9l1.4-1.6l0.5-0.2l1.9-1.4
		l1.5-1.3l1-0.5l0.4-0.4c0.1-0.1,0.3-0.3,0.5-0.4l1.3-0.4l0.7-1.4c0.3-0.5,0.5-1,0.6-1.3l0.6-0.7l0.1,0l2.4,19.2
		c-0.1,0.1-0.1,0.1-0.2,0.2l-1.1,0.5l-1.1,1l-0.9,0.4c-0.6,0-1.1,0.1-1.6,0.2l-0.9,0.2l-0.1,0.1l-0.6,0l-2.3,0.3l-1,0l-0.1,0
		L527.9,36.8z M555.9,69.4c-1.6-0.4-3-0.9-3.9-1.6l4.1,1.6C556,69.4,555.9,69.4,555.9,69.4z M556.6,69l-0.3,0.5c0,0-0.1,0-0.1,0
		l-2.3-2.6c1.6,0.5,2.5,1,3,1.5l0.2,0.7L556.6,69z M566.1,48.5c-0.2,0.8-1.1,4.3-3.9,5.4c-0.5,0.2-1,0.4-1.5,0.5
		c0-0.1,0.1-0.2,0.1-0.3l0.6-1.9l0.5-1.2l0.1-0.6l0.3,0.4l3.9-2.5L566.1,48.5z M587.5,38.7l-0.6,0.1c0,0,0,0,0,0l-0.3,0l-0.3,0
		c-0.5,0-0.8,0.1-1.1,0.1c-0.1,0-0.2,0-0.3,0c-0.6,0-1.4,0.1-1.8,0.2l-1.9,0.3l-0.3,0.1c-0.2,0.1-0.6,0.2-1,0.3h-0.2l-0.4,0.1
		c-0.1,0-0.1,0-0.2,0l-2.1,0l-0.6,0.5l-0.8,0l-2,1l-1.9,0.7l-0.8,0.5c-0.3,0.1-1,0.4-1.6,1l-0.9,0.7l-1,0.8l0.1-2l-0.9-1.4l-0.2-1.4
		l-0.3-0.5l-0.1-0.8l-0.6-0.9l-0.2-0.5l-0.2-0.5c-0.1-0.2-0.2-0.4-0.3-0.7l0.2-0.5l1.3-0.4l0.9-1l0.6-0.1l1.8-1.2l0.7-0.8l0.5-0.3
		l2.2,0.4l1.9-0.8l1.7,0.1l1.9-0.2l0.2-0.1l1,1.5l0.9-0.2l2.1,1.1l1.2,0.1l1.6,2.4l0.7,0.5c0.7,0.5,1.3,0.9,1.5,1l0.5,0.4
		C587.8,38.7,587.6,38.7,587.5,38.7z"/>
	<path class="st1" d="M61.4,97.2L61.4,97.2c-3.3-3.3-7.2-6-11.6-7.9c-4.4-1.9-9.2-2.9-14.2-2.9c-5.1,0-9.8,1-14.2,2.9
		c-4.3,1.9-8.3,4.5-11.7,7.9c-3.4,3.4-6.1,7.4-8,11.7c-1.9,4.4-2.9,9.2-2.9,14.2c0,5.1,1,9.9,2.8,14.3c1.9,4.4,4.6,8.4,8,11.6
		c3.4,3.3,7.3,5.9,11.7,7.8c4.4,1.9,9.2,2.9,14.2,2.9h2.3c1.2,0,2.4-0.1,3.5-0.4c2.8-0.6,5.2-2.1,6.9-4.3c0.9-1.1,1.5-2.4,1.8-3.8
		V165c0,2-0.4,3.8-1.1,5.6c-0.8,1.8-1.8,3.4-3.1,4.8c-1.3,1.2-2.7,2.2-4.5,2.9c-1.8,0.7-3.7,1.1-5.8,1.1c-1.3,0-2.6-0.2-3.8-0.5
		c-1.3-0.4-2.5-0.9-3.7-1.5c-2.6-1.6-5.5-2-8.5-1.1c-2.8,0.9-5,2.5-6.6,5c-1.5,2.4-2,5.3-1.3,8.2c0.7,2.9,2.3,5.3,4.8,7
		c2.5,1.7,5.6,3,8.9,3.9c3.3,0.9,6.7,1.4,10.2,1.4c5.1,0,9.9-1,14.3-2.9c4.3-1.9,8.2-4.6,11.7-7.9c3.3-3.3,6-7.2,7.9-11.6
		c1.9-4.4,2.9-9.2,2.9-14.2v-41.9c0-5.1-1-9.8-2.9-14.2C67.5,104.5,64.8,100.6,61.4,97.2z M45.9,139.5c-2.2-1.4-4.7-2.2-7.4-2.2
		c-0.5,0-1.1,0-1.8,0.1c-0.4,0-0.8,0.1-1.1,0.1c-3.9,0-7.3-1.3-10.2-4c-1.3-1.4-2.3-3-3.2-4.8c-0.8-1.8-1.2-3.6-1.2-5.5
		c0-2.1,0.4-3.9,1.1-5.6c0.8-1.8,1.8-3.4,3.1-4.7c1.2-1.2,2.8-2.2,4.6-3c1.8-0.8,3.7-1.1,5.7-1.1c2,0,3.8,0.4,5.5,1.1
		c1.7,0.8,3.3,1.8,4.7,3.1c1.3,1.4,2.3,3,3.2,4.8c0.8,1.8,1.2,3.6,1.2,5.5v22.3C49.4,142.9,48,140.9,45.9,139.5z M64.2,165
		c0,4-0.7,7.7-2.2,11.1c-1.5,3.4-3.6,6.5-6.1,9c-2.7,2.6-5.9,4.8-9.3,6.3c-3.4,1.5-7.1,2.3-11,2.3c-2.7,0-5.4-0.4-8-1.1
		c-2.6-0.7-4.8-1.7-6.7-2.9c-0.8-0.5-1.2-1.1-1.4-2c-0.3-1.1,0-1.8,0.3-2.2c0.5-0.9,1.2-1.4,2.2-1.7c0.3-0.1,0.5-0.1,0.8-0.1
		c0.4,0,0.8,0.1,1.2,0.4l0.3,0.2c1.7,0.9,3.4,1.6,5.3,2.2c2,0.6,4,0.9,6.1,0.9c3.1,0,6.1-0.6,8.8-1.7c2.8-1.1,5.2-2.7,7.2-4.7
		l0.1-0.1c2-2.1,3.5-4.5,4.7-7.2c1.2-2.8,1.8-5.7,1.8-8.7v-41.9c0-3.1-0.6-6-1.9-8.8c-1.2-2.7-2.8-5.1-4.7-7.1l-0.2-0.2
		c-2.1-1.9-4.4-3.5-7.1-4.7c-5.4-2.3-11.8-2.4-17.4,0c-2.8,1.2-5.2,2.8-7.2,4.8l-0.1,0.1c-2,2.1-3.5,4.4-4.7,7.1
		c-1.2,2.7-1.8,5.7-1.8,8.8c0,3.1,0.6,6,1.9,8.8c1.2,2.7,2.8,5.1,4.7,7.1l0.2,0.2c4.4,4.2,9.7,6.3,15.8,6.3c0.5,0,1.1,0,1.8-0.1
		c0.4,0,0.8-0.1,1.1-0.1c1.1,0,2.1,0.3,3,0.9c0.4,0.3,0.8,0.7,1,1.7c0.1,0.9-0.1,1.6-0.6,2.3c-0.5,0.7-1.2,1.1-2.1,1.3l-0.2,0
		c-0.5,0.1-1,0.2-1.6,0.2h-2.3c-4,0-7.7-0.7-11.1-2.2c-3.4-1.5-6.6-3.6-9.3-6.3c-2.7-2.5-4.8-5.5-6.2-8.9c-1.5-3.4-2.2-7.2-2.2-11.1
		c0-4,0.7-7.7,2.2-11.1c1.5-3.4,3.6-6.5,6.3-9.2c2.7-2.6,5.8-4.7,9.3-6.2c3.4-1.5,7.1-2.2,11.1-2.2s7.7,0.7,11.1,2.2
		c3.4,1.5,6.5,3.6,9.1,6.2c2.7,2.7,4.8,5.8,6.3,9.2c1.5,3.4,2.2,7.1,2.2,11.1V165z"/>
	<path class="st1" d="M142.4,86.4c-3.1,0-5.8,1.1-7.9,3.2c-2.1,2.1-3.2,4.8-3.2,7.9v25.6c0,2-0.4,3.8-1.1,5.6
		c-0.8,1.8-1.8,3.2-3.1,4.5c-1.4,1.3-3,2.4-4.8,3.1c-1.7,0.7-3.5,1.1-5.5,1.1c-2,0-3.8-0.4-5.6-1.1c-1.8-0.8-3.3-1.8-4.6-3.1
		c-1.3-1.3-2.3-2.8-3-4.6c-0.8-1.8-1.1-3.6-1.1-5.6V97.5c0-3.1-1.1-5.8-3.3-7.9c-2.1-2.1-4.8-3.1-7.8-3.1c-3,0-5.8,1.1-7.9,3.1
		c-2.2,2.1-3.3,4.8-3.3,7.9v25.6c0,5.1,1,9.9,3,14.2c1.9,4.3,4.6,8.1,7.9,11.6c3.3,3.3,7.2,6,11.6,7.9c4.4,1.9,9.2,2.9,14.2,2.9
		c5,0,9.8-0.9,14.2-2.7c4.4-1.8,8.3-4.3,11.7-7.5c3.4-3.2,6-7.1,7.9-11.6c1.9-4.5,2.8-9.4,2.8-14.8V97.5c0-3.1-1.1-5.8-3.2-7.9
		C148.2,87.5,145.4,86.4,142.4,86.4z M145.5,123.1c0,4.3-0.7,8.2-2.2,11.7c-1.5,3.5-3.5,6.5-6.1,8.9c-2.6,2.5-5.7,4.4-9.1,5.8
		c-3.5,1.4-7.2,2.1-11.2,2.1c-4,0-7.7-0.7-11.1-2.2c-3.4-1.5-6.5-3.5-9-6.1c-2.6-2.7-4.8-5.8-6.3-9.3c-1.5-3.3-2.2-7-2.2-10.9V97.5
		c0-0.9,0.3-1.6,0.9-2.2c0.6-0.6,1.4-0.9,2.4-0.9c0.9,0,1.6,0.3,2.2,0.9c0.6,0.6,0.9,1.2,0.9,2.2v25.6c0,3,0.6,6,1.8,8.7
		c1.2,2.7,2.8,5.1,4.8,7.1c2,2,4.4,3.6,7.1,4.8c2.7,1.2,5.7,1.8,8.7,1.8c3,0,6-0.6,8.7-1.8c2.6-1.1,5-2.7,7.1-4.7
		c2.1-2,3.8-4.4,5-7.2c1.2-2.8,1.8-5.7,1.8-8.7V97.5c0-1,0.3-1.6,0.9-2.2c0.6-0.6,1.3-0.9,2.2-0.9c1,0,1.6,0.3,2.2,0.8
		c0.6,0.6,0.9,1.3,0.9,2.2V123.1z"/>
	<path class="st1" d="M256.5,95.4L256.5,95.4c-2.9-2.9-6.3-5.1-10.2-6.7c-3.8-1.5-8-2.3-12.3-2.3c-4.3,0-8.5,0.8-12.4,2.3
		c-2.8,1.1-5.5,2.7-7.9,4.8c-2.4-2-5-3.6-7.8-4.7c-4-1.6-8.2-2.4-12.7-2.4c-4.3,0-8.5,0.8-12.3,2.3c-3.9,1.5-7.3,3.8-10.2,6.7
		c-2.8,2.8-5.1,6.1-6.7,9.8c-1.7,3.7-2.5,7.8-2.5,12v31.4c0,3.2,1.2,5.9,3.6,8c2.2,2,4.9,3.1,7.8,3.1c3,0,5.8-1.1,7.9-3.1
		c2.2-2.1,3.4-4.9,3.4-8v-31.4c0-1.2,0.2-2.3,0.7-3.4c0.5-1.1,1.2-2,2-2.7c0.8-0.8,1.8-1.4,3-1.8c2.3-0.9,4.7-0.9,6.8,0
		c1.1,0.5,2.1,1.1,3,1.9c0.9,0.8,1.5,1.8,2.1,2.8c0.5,1,0.7,2,0.7,3.1v31.4c0,3.4,1.3,6.3,3.7,8.3c2.2,1.9,4.8,2.8,7.7,2.8
		c3.2,0,6-1.1,8.1-3.3c2.1-2.1,3.3-4.8,3.3-7.8v-31.4c0-1.2,0.2-2.3,0.7-3.4c0.5-1.1,1.2-2,2-2.7c0.9-0.8,1.8-1.4,2.9-1.8
		c1.1-0.4,2.2-0.6,3.4-0.6c1.2,0,2.3,0.2,3.4,0.7c1.1,0.5,2.1,1.1,3,1.9c0.8,0.8,1.5,1.7,1.9,2.7c0.4,1,0.7,2,0.7,3.2v31.4
		c0,3.1,1.2,5.9,3.4,8c2.2,2,4.9,3.1,7.9,3.1c3.1,0,5.9-1.1,8.1-3.1c2.2-2.1,3.3-4.8,3.3-7.9v-31.4c0-4.2-0.8-8.2-2.5-12
		C261.6,101.6,259.3,98.3,256.5,95.4z M257.8,148.5c0,0.9-0.3,1.6-0.9,2.2c-0.4,0.4-1.1,0.9-2.5,0.9c-1,0-1.8-0.3-2.5-0.9
		c-0.6-0.6-0.9-1.2-0.9-2.1v-31.4c0-2.3-0.5-4.5-1.4-6.5c-0.9-2-2.1-3.7-3.7-5.2c-1.6-1.5-3.4-2.7-5.4-3.5c-2.1-0.9-4.3-1.3-6.5-1.3
		c-2.2,0-4.4,0.4-6.4,1.2c-2,0.8-3.8,1.9-5.3,3.4c-1.6,1.5-2.9,3.2-3.8,5.2c-1,2.1-1.5,4.3-1.5,6.8v31.4c0,0.9-0.3,1.5-0.9,2.2
		c-0.4,0.4-1.1,0.9-2.4,0.9c-1,0-1.8-0.3-2.6-0.9c-0.4-0.3-0.8-0.8-0.8-2.1v-31.4c0-2.3-0.5-4.5-1.5-6.6c-0.9-1.9-2.2-3.6-3.7-5.1
		c-1.6-1.5-3.4-2.7-5.4-3.5c-4-1.7-8.6-1.8-12.9-0.1c-2,0.8-3.9,1.9-5.4,3.4c-1.6,1.5-2.9,3.2-3.8,5.2c-1,2.1-1.5,4.3-1.5,6.8v31.4
		c0,0.9-0.3,1.5-0.9,2.1c-0.7,0.7-1.5,0.9-2.5,0.9c-0.9,0-1.7-0.3-2.5-1c-0.7-0.6-0.9-1.2-0.9-2.1v-31.4c0-3.1,0.6-6,1.8-8.7
		c1.2-2.8,3-5.3,5.1-7.4c2.1-2.1,4.6-3.8,7.5-4.9c2.9-1.2,6-1.7,9.4-1.7c3.4,0,6.7,0.6,9.7,1.8c2.9,1.2,5.6,3,7.8,5.5l3,3.3l3-3.3
		c2.4-2.6,5-4.5,7.9-5.6c3-1.2,6.2-1.8,9.5-1.8c3.3,0,6.5,0.6,9.4,1.7c2.9,1.1,5.4,2.8,7.5,4.9c2.2,2.2,3.9,4.6,5.1,7.4
		c1.2,2.7,1.8,5.6,1.8,8.7V148.5z"/>
	<path class="st1" d="M331,123.4l15.1-18.7l0.1-0.1c1.9-2.4,2.7-5.1,2.5-7.9c-0.2-2.8-1.6-5.4-4.1-7.4c-2.4-2-5.2-3-8.1-2.7
		c-2.9,0.3-5.5,1.8-7.4,4.2l-31.7,39V56c0-3.1-1.1-5.8-3.3-7.9c-2.1-2.1-4.8-3.1-7.8-3.1c-2.9,0-5.6,1.1-7.8,3.1
		c-2.2,2.1-3.3,4.8-3.3,7.9v84.3c0,3.8,0.8,7.2,2.5,10.2c1.7,3.2,4.3,5.6,7.6,7.3l0.3,0.1c2.3,1,4.6,1.5,6.9,1.5
		c3.4,0,6.4-0.7,9-2.2c2.5-1.3,4.8-3.3,6.8-5.8c2-2.4,3.9-4.8,5.8-7.2c1-1.2,1.9-2.4,2.9-3.6c0.7,0.7,1.4,1.4,2,2
		c1.6,1.6,3.2,3.1,4.7,4.5c1.5,1.4,3,2.9,4.5,4.4c1.6,1.6,3.3,3.3,5.2,5.1c2,2,4.7,3.1,7.6,3.1c0.1,0,0.2,0,0.3,0
		c3-0.1,5.6-1.2,7.7-3.3l0.1-0.1c2.1-2.2,3.1-5,3-8c-0.1-3-1.2-5.6-3.3-7.7L331,123.4z M343.3,151c-0.6,0.6-1.3,0.9-2.2,0.9
		c-0.9,0-1.5-0.2-2.1-0.8l-0.1-0.1c-1.9-1.8-3.6-3.5-5.1-5c-1.6-1.6-3.2-3.1-4.7-4.6c-1.5-1.4-3.1-2.9-4.6-4.4
		c-1.6-1.5-3.3-3.2-5.1-5l-3.1-3.1l-2.8,3.4c-1.9,2.3-3.8,4.7-5.8,7.2c-1.8,2.3-3.7,4.7-5.7,7c-1.4,1.7-2.9,3-4.5,3.9
		c-1.4,0.8-3.1,1.2-5.2,1.2c-1.1,0-2.4-0.3-3.6-0.8c-1.8-1-3.2-2.3-4.1-4c-1-1.9-1.5-4-1.5-6.4V56c0-0.9,0.3-1.6,0.9-2.2
		c0.7-0.6,1.3-0.9,2.2-0.9c0.9,0,1.6,0.3,2.2,0.9c0.6,0.6,0.9,1.2,0.9,2.2v81.7c0,1.9,1,3.6,2.7,4.6c1.8,1.1,4.6,1.1,6.6-1.3
		l36.7-45.1l0.1-0.1c0.7-1,1.4-1.1,1.9-1.2c0.5-0.1,1.2,0,2.1,0.8l0.1,0.1c1.2,1,1.2,1.7,1.2,1.9c0,0.5,0,1.3-0.8,2.3L320.2,124
		l22.9,22.5c0.6,0.6,0.9,1.3,0.9,2.3C344.1,149.6,343.9,150.3,343.3,151z"/>
	<path class="st1" d="M369,86.4c-2.9,0-5.6,1.1-7.8,3.1c-2.2,2.1-3.3,4.8-3.3,7.9v51c0,3.1,1.1,5.8,3.3,7.9c2.1,2.1,4.8,3.1,7.8,3.1
		c2.9,0,5.6-1.1,7.8-3.1c2.2-2.1,3.3-4.8,3.3-7.9v-51c0-3.1-1.1-5.8-3.3-7.9C374.6,87.5,371.9,86.4,369,86.4z M372.1,148.5
		c0,0.9-0.3,1.6-0.9,2.2c-0.7,0.6-1.3,0.9-2.2,0.9c-0.9,0-1.6-0.3-2.2-0.9c-0.6-0.6-0.9-1.2-0.9-2.2v-51c0-0.9,0.3-1.6,0.9-2.2
		c0.7-0.6,1.3-0.9,2.2-0.9c0.9,0,1.6,0.3,2.2,0.9c0.6,0.6,0.9,1.2,0.9,2.2V148.5z"/>
	<path class="st1" d="M369,46.8c-3.8,0-7,1.3-9.7,4c-2.6,2.6-4,6-4,9.7c0,3.6,1.4,6.9,4,9.5c2.6,2.6,5.9,4,9.7,4
		c3.6,0,6.9-1.4,9.5-4c2.6-2.6,4-5.9,4-9.5c0-3.7-1.4-7.1-4-9.7C375.9,48.2,372.6,46.8,369,46.8z M372.9,64.4
		c-1.1,1.1-2.4,1.6-3.9,1.6c-1.6,0-2.9-0.5-4-1.6c-1.1-1.1-1.6-2.4-1.6-3.9c0-1.6,0.5-2.9,1.6-4c1.1-1.1,2.4-1.6,4-1.6
		c1.5,0,2.8,0.5,3.9,1.6c1.1,1.1,1.6,2.4,1.6,4C374.5,62.1,374,63.3,372.9,64.4z"/>
	<path class="st1" d="M452,97.2l-0.2-0.2c-3.4-3.2-7.3-5.8-11.7-7.7c-4.4-2-9.2-2.9-14.2-2.9c-5.1,0-10,1-14.4,2.9
		c-4.3,1.9-8.2,4.5-11.6,7.9l-0.1,0.1c-3.2,3.4-5.8,7.3-7.7,11.6c-2,4.4-2.9,9.2-2.9,14.3v25.4c0,3.1,1.1,5.8,3.2,7.9
		c2.1,2.1,4.8,3.2,7.9,3.2c3.1,0,5.8-1.1,7.9-3.2c2.1-2.1,3.2-4.8,3.2-7.9v-25.4c0-2.1,0.4-4,1.1-5.7c0.8-1.8,1.8-3.3,3-4.6
		c1.3-1.3,2.8-2.3,4.6-3c1.8-0.7,3.7-1.1,5.7-1.1c4,0,7.3,1.4,10,4.2l0.1,0.1c1.4,1.4,2.5,3,3.3,4.8c0.8,1.7,1.2,3.5,1.2,5.4v25.4
		c0,3.1,1.1,5.8,3.2,7.9c2.1,2.1,4.8,3.2,7.9,3.2c3,0,5.6-1.1,7.8-3.1c2.2-2.1,3.3-4.8,3.3-7.9v-25.4c0-5.1-1-9.9-2.9-14.3
		C457.8,104.5,455.2,100.6,452,97.2z M454.6,148.5c0,0.9-0.3,1.6-0.9,2.2c-0.7,0.6-1.3,0.9-2.2,0.9c-1,0-1.6-0.3-2.2-0.9
		c-0.6-0.6-0.8-1.3-0.8-2.2v-25.4c0-3.1-0.6-6-1.9-8.7c-1.2-2.6-2.8-5-4.9-7.1c-4.2-4.4-9.5-6.7-15.7-6.7c-3.1,0-6.1,0.6-8.9,1.8
		c-2.7,1.2-5.1,2.8-7.1,4.8c-2,2-3.6,4.4-4.8,7.1c-1.2,2.8-1.8,5.7-1.8,8.9v25.4c0,1-0.3,1.6-0.9,2.2c-0.6,0.6-1.3,0.9-2.2,0.9
		c-1,0-1.6-0.3-2.2-0.9c-0.6-0.6-0.8-1.3-0.8-2.2v-25.4c0-3.9,0.8-7.7,2.3-11c1.5-3.5,3.6-6.6,6.2-9.3c2.6-2.6,5.6-4.7,9-6.1
		c3.4-1.5,7.2-2.2,11.2-2.2c3.9,0,7.5,0.8,11,2.3c3.5,1.5,6.6,3.6,9.3,6.1c2.5,2.7,4.6,5.8,6.1,9.3c1.5,3.4,2.3,7.1,2.3,11V148.5z"
		/>
	<path class="st1" d="M533.1,97.2L533.1,97.2c-3.3-3.3-7.2-6-11.6-7.9c-4.4-1.9-9.2-2.9-14.4-2.9c-5,0-9.7,1-14.1,2.9
		c-4.3,1.9-8.3,4.5-11.7,7.9c-3.4,3.4-6.1,7.3-8,11.6c-1.9,4.3-2.9,9.2-2.9,14.3c0,5.1,1,9.9,2.8,14.3c1.9,4.4,4.6,8.4,8,11.6
		c3.4,3.3,7.3,5.9,11.7,7.8c4.4,1.9,9.1,2.9,14.1,2.9c5.2,0,10-1,14.4-2.9c4.3-1.9,8.2-4.5,11.5-7.8c3.5-3.2,6.2-7.1,8.1-11.6
		c1.9-4.4,2.8-9.2,2.8-14.3c0-5.2-1-10-2.9-14.3C539.2,104.5,536.5,100.6,533.1,97.2z M533.8,134.3c-1.5,3.4-3.5,6.4-6.2,8.9
		l-0.1,0.1c-2.6,2.6-5.7,4.7-9.1,6.2c-3.4,1.5-7.1,2.2-11.2,2.2c-3.9,0-7.5-0.7-10.9-2.2c-3.4-1.5-6.6-3.6-9.3-6.3
		c-2.7-2.5-4.8-5.5-6.2-8.9c-1.5-3.4-2.2-7.2-2.2-11.1c0-4,0.7-7.8,2.2-11.1c1.5-3.4,3.6-6.5,6.3-9.1c2.7-2.6,5.8-4.7,9.3-6.2
		c3.4-1.5,7.1-2.2,10.9-2.2c4.1,0,7.8,0.7,11.2,2.2c3.4,1.5,6.5,3.6,9.1,6.2c2.7,2.7,4.8,5.8,6.3,9.2c1.5,3.3,2.2,7.1,2.2,11.1
		C536,127.1,535.2,130.8,533.8,134.3z"/>
	<path class="st1" d="M523.2,107.2l-0.2-0.2c-2.1-2-4.5-3.5-7.2-4.7c-2.8-1.2-5.7-1.8-8.7-1.8c-3,0-6,0.6-8.7,1.8
		c-2.7,1.2-5.1,2.8-7.1,4.8l-0.1,0.1c-2,2.1-3.5,4.4-4.7,7.1c-1.2,2.7-1.8,5.7-1.8,8.8c0,3,0.6,6,1.8,8.7c1.2,2.7,2.8,5.1,4.8,7.1
		c2,2,4.4,3.6,7.1,4.8c2.7,1.2,5.7,1.8,8.7,1.8c3,0,6-0.6,8.7-1.8c2.7-1.1,5.1-2.7,7.2-4.7l0,0c4.5-4.2,6.7-9.6,6.7-15.9
		c0-3.1-0.6-6-1.9-8.8C526.8,111.7,525.2,109.3,523.2,107.2z M517.6,133.2c-1.4,1.3-3,2.4-4.8,3.1c-1.8,0.8-3.6,1.1-5.6,1.1
		c-2,0-3.8-0.4-5.6-1.1c-1.8-0.8-3.3-1.8-4.6-3.1c-1.3-1.3-2.3-2.8-3-4.6c-0.8-1.8-1.1-3.6-1.1-5.6c0-2.1,0.4-3.9,1.1-5.6
		c0.8-1.8,1.8-3.4,3.1-4.7c1.3-1.2,2.8-2.3,4.5-3c1.8-0.8,3.6-1.1,5.6-1.1c2,0,3.8,0.4,5.6,1.1c1.8,0.8,3.4,1.8,4.7,3.1
		c1.3,1.4,2.3,3,3.2,4.8c0.8,1.8,1.2,3.6,1.2,5.5C521.8,127.2,520.4,130.5,517.6,133.2z"/>
</g>
<g>
	<path class="st2" d="M592.5,40.9c0,0-0.1-0.5-0.1-0.9c0-0.1,0-0.3-0.1-0.5c0,0,0,0,0-0.1c0-0.2,0-0.7,0.1-0.9c0-0.1,0-0.1,0-0.2
		l-0.2-1.1c0-0.1,0-0.1-0.1-0.2l-0.4-0.6c0,0-0.1-0.1-0.1-0.1l-1.5-1.2c-0.1,0-0.8-0.6-1.7-1.2l-0.4-0.6l-0.4-0.7l-0.7-1.2l-0.1-0.2
		c0,0,0,0,0,0c0,0,0,0,0,0h0c0,0,0,0,0,0l0,0c-0.1-0.1-0.2-0.4-1.5-0.8c0,0-0.1,0-0.1,0l-1.2-0.1l-0.5-0.3l-0.7-1
		c-0.1-0.1-0.2-0.2-0.4-0.2c0,0-0.1,0-0.1,0l-0.5,0.1l-0.5-0.8l-0.4-0.5c0-0.1-0.1-0.1-0.2-0.2l-0.3-0.2c-0.2-0.1-0.4-0.2-0.6-0.2
		c-0.3,0-0.6,0.1-0.6,0.1c0,0-0.1,0-0.1,0l-0.8,0.4l-0.8,0.4l-0.8,0.1l-1.4-0.1l-0.9,0c0,0,0,0,0,0c-0.1,0-0.1,0-0.2,0l-1.5,0.6
		l-1.4-0.2l-1.1-0.2c0,0-0.1,0-0.1,0c-0.1,0-0.2,0-0.3,0.1l-0.6,0.4l-1.5,1c0,0-0.1,0.1-0.1,0.1l-0.7,0.8l-0.8,0.5l-0.9,0.2
		c-0.1,0-0.2,0.1-0.2,0.1l-0.9,0.9l-0.9,0.3c0,0-0.1,0-0.1,0.1l-0.9,0.6c-0.1,0-0.1,0.1-0.1,0.1l-0.6,0.9c0,0,0,0.1-0.1,0.1
		l-0.4,1.2l-0.4,0.9c-0.1,0.1-0.1,0.3,0,0.4c0,0.1,0.5,1.3,0.8,2.2l0.2,1c0,0.1,0,0.1,0.1,0.1l0.4,0.6l0,0.7c0,0.1,0,0.2,0.1,0.2
		l0.3,0.5l0.2,1.3c0,0.1,0,0.1,0.1,0.2l0.6,1l0,0.7l-0.1,0l-0.3-0.4c0,0-0.1-0.1-0.1-0.1L562,44c0,0-0.1,0-0.1-0.1l-0.7-0.4
		l-0.5-0.8c-0.1-0.1-0.2-0.2-0.4-0.2c0,0,0,0,0,0c-0.1,0-0.3,0.1-0.4,0.2l-0.7,0.8l-0.6-0.2c-0.1,0-0.1,0-0.2,0
		c-0.1,0-0.2,0-0.3,0.1c-0.1,0.1-0.2,0.3-0.2,0.5l0.2,0.9c0,0.1,0,0.1,0.1,0.2l0.3,0.5l0,1.5l-0.4,1.7l-0.2,1.4l-0.4,1l-0.4,1.2
		l-0.3,1c0,0,0,0.1,0,0.1c0,0-0.1,1.2-1.4,2.5c-0.8,0.8-2,1.2-2.9,1.4c-6.8,0-14.9-2.9-23.4-5.9c-1.8-0.6-3.6-1.3-5.5-1.9
		c-8.2-2.5-15.2-3.5-20.1-4l1.6-0.8l1-0.4c0,0,0.1,0,0.1,0l1.9-1.1c0.1,0,0.4,0,0.7,0c0.3,0,0.5,0,0.7,0.1c0.7,0.2,1.2,0.3,1.2,0.3
		c0,0,0.1,0,0.1,0c0,0,0,0,0,0l1.2-0.1l1,0.1l1.3,0.4l1.9,0.4c0,0,0,0,0.1,0l1.2,0l2.2,0.3c0,0,0,0,0.1,0c0,0,0,0,0.1,0l0.9-0.1
		c0.2,0,0.4-0.2,0.4-0.4l0.1-0.6c0-0.1,0-0.2,0-0.3l-0.1-0.2c-0.1-0.2-0.3-0.6-0.4-0.7l-0.3-0.8l-0.1-0.4c0-0.1,0-0.1,0-0.2
		c0-0.1,0.2-0.3,0.3-0.4l0.4-0.1l0.1,0.5c0,0.1,0,0.1,0.1,0.2l0.4,0.7l0.6,1.3c0,0,0,0.1,0.1,0.1l1,1.2c0,0.1,0.1,0.1,0.2,0.1l1,0.5
		c0.1,0,0.1,0.1,0.2,0.1l1.3,0c0,0,0,0,0,0c0.1,0,0.1,0,0.2,0l1.4-0.5l0.8-0.4c0.1,0,0.2-0.1,0.2-0.2l0.6-1c0,0,0,0,0-0.1l0.3-0.6
		l0.6,0.3l1.2,0.5c0.1,0,0.1,0,0.2,0c0,0,0.1,0,0.1,0l0.7-0.1l0.8,0c0,0,0,0,0.1,0l1-0.2l1-0.2l1.5,0c0,0,0.1,0,0.1,0
		c0.1,0,0.5-0.1,0.8-0.4c0.1,0,0.3-0.1,0.9-0.1c0.2,0,0.4,0,0.4,0c0,0,0,0,0,0c0.1,0,0.1,0,0.2,0l0.7-0.3l1.3-0.6c0,0,0.1,0,0.1-0.1
		l1.1-1l0.8-0.4c0,0,0.1,0,0.1,0c0.2-0.1,1.6-1.1,2-1.6l0,0l0,0l0.1-0.1c0,0,0,0,0,0l0.1-0.1c0,0,0,0,0-0.1l0.6-0.9l0.6-0.3
		c0.1,0,0.1-0.1,0.2-0.1l0.8-1c0,0,0.1-0.1,0.1-0.1l0.4-0.8l0.2-0.2c0.2-0.3,0.6-1.2,0.6-1.3l0.8-1.4c0,0,0-0.1,0.1-0.1l0.1-0.4
		c0.1-0.3,0.3-0.7,0.4-0.8c0,0,0-0.1,0.1-0.1l0.4-1.4c0.3-0.2,0.5-0.5,0.5-1.1c0-0.5,0-0.5,0-0.7c0,0,0-0.1,0-0.1
		c0-0.3-0.3-0.9-0.4-1.1l-0.3-0.9l0-0.9c0-0.1,0-0.1,0-0.2l-0.3-0.8c0,0,0,0,0-0.1l-0.1-0.3c-0.1-0.3-0.3-0.6-0.4-0.7l-0.4-0.8
		l-0.1-0.8l-0.1-0.6l0-0.5c0-0.5-0.3-0.8-0.4-1l-0.3-0.7l-0.3-0.7c-0.1-0.2-0.2-0.3-0.4-0.3l-1-0.1c-0.2,0-0.3,0-0.4,0
		c-0.6,0-0.9,0.1-1.5,0.2c-0.2,0-0.4,0.1-0.6,0.1c-0.5,0.1-0.9,0.3-1.1,0.7c0,0.1-0.1,0.1-0.1,0.2l0-0.3l0.5-0.5l0.9-0.5l0.9-0.5
		c0.1-0.1,0.2-0.2,0.2-0.3l0.4-1.2c0,0,0-0.1,0-0.1c0-0.1,0-0.8-0.7-1.6l-0.4-0.9c0-0.1-0.1-0.2-0.2-0.2l-1.4-0.9
		c-0.1,0-0.1-0.1-0.2-0.1l-1-0.1c0,0,0,0-0.1,0c-0.1,0-0.1,0-0.2,0l-1.5,0.7l-0.8,0.4c0,0-0.1,0.1-0.1,0.1l-0.2,0.2
		c-0.1,0-0.1,0.1-0.1,0.1c0,0,0,0,0,0c-0.1,0-0.2,0-0.3,0.1l-0.6,0.6l-0.6,0.6l-0.9,0.4c-0.1,0-0.1,0.1-0.2,0.1l-0.9,1l-0.8,1.1
		c0,0.1-0.1,0.1-0.1,0.2l-0.1,0.3c0,0.1-0.2,0.4-0.3,0.7c-0.2,0.1-0.6,0.2-0.8,0.4c-0.2,0.2-0.7,0.6-0.9,0.8l-0.9,0.4
		c0,0-0.1,0-0.1,0.1l-1.6,1.4l-1.5,1.2l-0.8,0.3c-0.1,0-0.1,0.1-0.2,0.1l-1.3,1.5L525,24c0,0-0.1,0-0.1,0.1l-1,0.8l-2.6,1.2
		l-2.1,0.9l-0.9,0.4c-0.1,0-0.2,0.1-0.2,0.2l-0.7,1.4c-0.1,0.1-0.1,0.3,0,0.4l0.2,0.5l-0.4,0.7l-0.6,0.3c-7.9,3.1-8.5,4.5-9.6,7
		c-0.2,0.4-0.4,0.8-0.6,1.2c-1.5,2.9-2.6,3.1-2.6,3.1c-0.1,0-0.1,0-0.2,0.1l-5.2,2.8c-0.4,0-0.8,0-1.2,0c-1.8,0-3,0.1-3.5,0.2
		c-12.3,2.7-20.1,6-27.1,9.2c-4.2,1.9-9.9,4.1-16.9,6.4c2.3-1.7,3.5-3.3,4.1-4.4c0.1-0.1,0.4-0.6,0.5-1.2c0.1-0.2,0.1-0.3,0.1-0.4
		c0.2-0.7,0.6-1.8,1.3-2.4c1.4-1.2,2.6-1.3,2.6-1.3c0,0,0.1,0,0.1,0l1-0.3l1.2-0.3l1-0.4l1.4-0.2l1.7-0.4l1.5,0l0.5,0.3
		c0,0,0.1,0.1,0.2,0.1l0.9,0.2c0,0,0.1,0,0.1,0c0.1,0,0.3-0.1,0.4-0.2c0.1-0.1,0.2-0.3,0.1-0.5l-0.2-0.6l0.8-0.7
		c0.1-0.1,0.2-0.2,0.2-0.4c0-0.1-0.1-0.3-0.2-0.4l-0.8-0.5l-0.4-0.7c0,0,0-0.1-0.1-0.1l-0.8-0.9c0,0-0.1-0.1-0.1-0.1l-0.4-0.3l0-0.1
		l0.7,0l0.9,0.6c0.1,0,0.1,0.1,0.2,0.1l1.3,0.2l0.5,0.4c0.1,0,0.1,0.1,0.2,0.1l0.7,0.1l0.6,0.4c0,0,0.1,0.1,0.1,0.1l0.9,0.3
		c0.8,0.4,2.1,0.9,2.1,0.9c0.1,0,0.1,0,0.2,0c0.1,0,0.1,0,0.2,0l0.9-0.4l1.2-0.3c0,0,0.1,0,0.1-0.1l0.9-0.6c0.1,0,0.1-0.1,0.1-0.1
		l0.6-0.9c0,0,0-0.1,0.1-0.1l0.3-0.9l0.9-0.9c0.1-0.1,0.1-0.1,0.1-0.2l0.3-0.9l0.5-0.7l0.8-0.6c0,0,0.1-0.1,0.1-0.1l1-1.5l0.4-0.6
		c0.1-0.1,0.1-0.2,0.1-0.3l-0.1-1.1l-0.2-1.4l0.7-1.5c0-0.1,0-0.1,0-0.2l0-0.9l-0.1-1.4l0.1-0.8l0.4-0.8l0.4-0.8c0,0,0-0.1,0-0.1
		c0-0.1,0.2-0.8,0-1.3l-0.2-0.3c0-0.1-0.1-0.1-0.2-0.2l-0.5-0.4l-0.8-0.5l0.1-0.5c0-0.2,0-0.4-0.2-0.5l-1-0.7l-0.3-0.5l-0.1-1.2
		c0,0,0-0.1,0-0.1c-0.4-1.3-0.7-1.5-0.8-1.5l0,0c0,0,0,0,0,0l-0.1,0l-0.1-0.1l-1.1-0.8l-0.7-0.5l-0.6-0.4c-0.6-1-1.2-1.7-1.2-1.7
		l-1.2-1.5c0,0-0.1-0.1-0.1-0.1l-0.6-0.4c-0.1,0-0.1-0.1-0.2-0.1l-1.1-0.2c0,0-0.1,0-0.1,0c0,0-0.1,0-0.1,0c0,0-0.3,0.1-0.6,0.1
		c-0.1,0-0.2,0-0.3,0c0,0,0,0,0,0c-0.1-0.1-0.3-0.1-0.5-0.1c-0.4,0-0.9-0.1-0.9-0.1c0,0-0.1,0-0.1,0c-0.1,0-0.2,0-0.3,0.1l-0.8,0.6
		c-0.1,0-0.1,0.1-0.1,0.2c0,0.1-0.3,0.7-0.3,1.3c0,0.3-0.2,0.8-0.3,1.1c0,0.1,0,0.2,0,0.3c0.1,0.4,0.1,0.8,0.1,1
		c-0.1,0.1-0.2,0.5-0.1,1.4c0,0.5-0.1,0.7-0.1,0.9c0,0.2,0,0.4-0.1,0.6c0,0.4-0.2,1.2-0.2,1.2l-0.3,1.6c-0.3,0.7-0.6,1.8-0.6,1.9
		c0,0-0.1,0.4-0.2,1.2l0,0.6c-0.3,0.3-0.6,0.6-0.6,1l0,0.3l0,0.6l-0.7,1.3l-0.4,0.9l-0.4,1l-0.3,0.4l-0.1,0.2
		c-0.1,0.2-0.2,0.3-0.2,0.5c-0.1,0.1-0.1,0.2-0.2,0.3l-0.3,0.3c0,0,0,0,0,0l-0.8,1l-0.6,0.6l-0.6,0c-0.3,0-6.6,1-8.8,6.2
		c-2,4.8-2.2,9.1-2.2,9.7c-1.5,5-15.9,11.5-16,11.6c-1.6,0.6-3.2,1.3-5.3,2.4c-0.2,0.1-0.3,0.2-0.5,0.2c1.2-2.5,2.8-5.9,3.8-8.2
		c1.5-3.7,2.5-5.4,2.7-5.6c0.4-0.5,5.3-6.4,4.3-10.6c-1.1-4.2-2.3-4.5-2.6-4.5c-0.1,0-0.2,0-0.3,0.1l-0.1-0.3c0-0.2-0.2-0.3-0.3-0.4
		c0,0-0.1,0-0.1,0c-0.1,0-0.3,0.1-0.4,0.2l-3.6,3.7c-2.4,2.5-1.7,6.1-1.1,9.2c0.3,1.9,0.7,3.6,0.4,5c-2.4,7.6-8.5,14.9-9,15.5
		c-2.2,1.6-3.8,3-3.8,3.1c0,0-0.1,0.1-0.1,0.1c-1,1.7-0.6,2.5,0,3.1c0,0,0,0,0.1,0.1c0.1,0.1,0.1,0.1,0.2,0.2
		c0.2,0.1,0.5,0.1,0.7,0.1c1.3,0,2.8-1.2,4.7-2.9l0.8-0.6c2.6-2.1,10.1-6.7,13.7-7.8c5.1-1.5,10.1-3.1,14.8-4.7
		c1,0.1,2.7,0.3,3.9,0.5c0.2,0.1,0.8,0.4,1.6,0.9c0.4,0.3,0.9,0.6,1.2,0.9c0.2,0.1,0.4,0.3,0.7,0.6c1,0.9,2.8,2.4,4.8,3.7
		c3.1,2,5.7,2.6,7.8,2c0.9-0.2,2.9-0.7,3.1-1.4c0-0.1,0-0.2-0.1-0.3c0.7-0.3,1.5-0.9,1.6-1.8c0.1-0.8-0.4-1.6-1.5-2.4
		c0,0,0-0.1,0-0.1c0-0.3-0.1-0.5-0.4-0.8c-0.3-0.3-1.2-1-2.3-1.7c-1.9-1.2-4.7-2.6-7.5-2.3c0,0,0,0,0,0c-2.8,0.6-5.9,1.2-7.5,1.5
		c-0.8,0-2,0-3.3,0.1c6.3-2.2,12.2-4.5,17.1-6.8c1.2-0.2,2.4-0.3,3.7-0.3c3.3,0,5.7,0.6,6.8,1c0.3,0.1,0.5,0.2,0.8,0.3
		c0.2,0.2,0.4,0.3,0.7,0.4c0.1,0,0.1,0,0.2,0c0,0,1.1,0.1,2.5,1.7c1.5,1.8,2.2,2.8,2.2,2.8L492,63l1.2,1.5c0,0,0,0,0,0l0.8,0.8
		l0.3,0.8c0,0.1,0.1,0.1,0.1,0.2l0.2,0.2c0,0.2,0.2,0.5,0.4,0.7l0.5,0.4l0.4,0.4c0.1,0.2,0.3,0.5,0.3,0.6l0,0.1
		c0,0.1,0.1,0.3,0.1,0.5c0.1,0.2,0.2,0.6,0.2,0.6l0.1,0.6c0,0.2,0.2,0.3,0.4,0.4c0,0,0.1,0,0.1,0c0.1,0,0.3-0.1,0.4-0.2l0.6-0.6
		l0.5-0.6l0.3-0.3c0.1-0.1,0.1-0.2,0.1-0.3l0-0.5c0-0.1,0-0.2-0.1-0.3c0-0.1-0.2-0.4-0.3-0.5l-0.1-0.1l0.1-0.4l0-0.2l0,0l0.9,0.3
		l0,0c-0.1,0.1-0.1,0.2,0,0.4l0.3,0.8c-0.1,0.8,0.1,1,0.1,1.1c0,0.1,0.2,0.4,0.3,0.7c0,0,0,0.1,0.1,0.1c0.2,0.3,0.4,0.6,0.5,0.8
		c-0.1,0.3-0.1,0.7,0.2,1.3l0.4,0.9c0,0.1,0.1,0.1,0.1,0.1c0,0,0.1,0.1,0.1,0.2c0.1,0.6,0.3,1,0.5,1.2l0.2,0.2l0.2,0.2l0.1,0.1
		l0.5,0.4l0.6,0.5l0.3,0.3c0.1,0.1,0.5,0.4,0.6,0.5c0,0,0.1,0,0.1,0.1c0.1,0,0.6,0.2,0.8,0.3c0.1,0,0.2,0.1,0.3,0.1
		c0.1,0.1,0.3,0.1,0.4,0.2c0.3,0.1,0.7,0.1,0.8,0.1l1.1,0.1l0.7,0.1c0.2,0,0.5,0.1,0.6,0.1c0.1,0,0.1,0.1,0.2,0.1
		c0.1,0.1,0.2,0.1,0.3,0.1c0,0,0.1,0,0.2,0.1l0.5,0.2c0,0,0,0,0.1,0c0,0,0.2,0.1,0.6,0.3l0.6,0.4l0.3,0.2c0,0,0.1,0,0.1,0.1l0.7,0.2
		c0,0,0.1,0,0.2,0c0,0,0.1,0,0.1,0l0.5-0.1l0.7,0.2c0,0,0.1,0,0.1,0c0.1,0,0.3-0.1,0.4-0.2l0.1,0c0,0,0.1,0,0.1,0c0,0,0,0,0,0l0.9,0
		l1-0.1c0.3,0.1,0.6,0.2,0.8,0.3c0.1,0,0.1,0.1,0.2,0.1l0.1,0.1c0.1,0.1,0.2,0.1,0.3,0.2l0.1,0.2c0,0,0.1,0.1,0.1,0.1
		c0,0,0.4,0.4,0.8,0.4l0.1,0c0.1,0.1,0.2,0.1,0.3,0.1c0,0,0,0,0,0l0.1,0c0,0,0,0,0,0c0,0,0,0,0,0c0.1,0.1,0.1,0.1,0.2,0.2
		c0,0,0.1,0,0.1,0c0.1,0,0.2,0,0.3-0.1c0,0,0.1,0,0.1-0.1c0.2,0,0.3-0.1,0.5-0.2c0.3-0.2,0.4-0.4,0.5-0.5c0,0,0,0,0,0
		c0.2-0.2,0.6-0.4,0.6-0.8c0-0.2,0.1-0.3,0.1-0.4c0.1-0.2,0.1-0.3,0.1-0.5l0-0.1c0-0.3,0-0.7,0-0.7c0-0.1-0.1-0.2-0.2-0.3
		c0,0,0,0,0-0.1c-0.1-0.2-0.1-0.4-0.2-0.6c0-0.1,0-0.1-0.1-0.1c0-0.1,0-0.3,0-0.7l0.7-1c0,0,0-0.1,0.1-0.1l0.3-0.8c0,0,0-0.1,0-0.1
		l0-0.5l0.2-0.7c0.1,0,0.2-0.1,0.3-0.2l0.4-0.2c0,0,0,0,0,0c0,0,0.1-0.1,0.2-0.1l0.1,0l0.1,0c0.5-0.1,1-0.4,1.3-0.6
		c0.1-0.1,0.2-0.1,0.2-0.1c0.3-0.2,1.3-0.7,1.6-0.8c0.2,0,0.5-0.2,0.8-0.5l0.4-0.5c0.1-0.1,0.1-0.2,0.1-0.4l0-0.7c0,0,0,0,0-0.1
		l-0.1-0.5c0,0,0-0.1,0-0.1l-0.2-0.4l-0.3-0.6l-0.2-0.7c0.1-0.3,0.2-0.5,0.2-0.6c0.2-0.2,0.4-0.5,0.5-0.6c0,0,0-0.1,0.1-0.1
		c0.4-0.2,0.5-0.6,0.5-0.9c0-0.2,0-0.3,0-0.5c0-0.1,0-0.1,0-0.2c0-0.1,0.1-0.4,0.1-1.3c0-0.1,0-0.2,0-0.2l-0.6-1.2c0,0,0,0,0-0.1
		l-0.5-0.7c0,0,0-0.1-0.1-0.1l-0.6-0.6l-0.6-0.9c0,0-0.1-0.1-0.1-0.1l-0.4-0.4l-0.5-0.5l-0.3-0.3c-0.1-0.1-0.1-0.1-0.2-0.1l-0.8-0.2
		c0,0-0.1,0-0.1,0c0,0,0,0-0.1,0l-0.6,0.1l-0.7,0.1l-0.4,0l-0.5-0.2c0,0-0.1,0-0.1,0l-0.7-0.1c0,0-0.1,0-0.1,0c0,0,0,0-0.1,0
		l-0.7,0.1c0,0-0.1,0-0.1,0c-0.1,0-0.6,0.2-1,0.5c-0.1,0.1-0.1,0.1-0.2,0.1c-0.2,0.1-0.3,0.2-0.5,0.5l0,0.1
		c-0.3,0.3-0.5,0.6-0.8,0.9c-0.1,0.1-0.2,0.2-0.3,0.3c-0.2,0.1-0.3,0.2-0.5,0.5l-0.6,0.6l-0.3,0.2l-0.4,0c0,0,0,0,0,0c0,0,0,0-0.1,0
		l-1.1,0.1l-0.5,0l-0.5-0.1l-0.6-0.1l-1.5-0.3l-0.6-0.2c0,0-0.1,0-0.1,0c0,0,0,0-0.1,0l-0.9,0.1l-1.2,0l-0.6,0.1l-0.8-0.4
		c-0.1,0-0.1-0.1-0.2-0.1c0,0-0.1,0-0.1,0l-0.4,0.1l-0.9,0.1l-0.4-0.1l-0.7-0.2l-0.6-0.5l-0.5-0.4l-1-0.8c-0.1,0-1.4-1-2.4-2
		c-0.5-0.5-3.3-3.3-7.1-3.3c-0.5,0-1.1,0.1-1.6,0.2c-2.2,0.5-3.9,0.9-4.9,1.1c-1.5-0.5-4.7-0.9-7.8-1.1c6.7-2.4,13.9-3.6,21.5-3.6
		c8.4,0,14.3,1.5,14.3,1.5l21.7,6.7l2.9,1.1c1.4,1.8,3,3.4,3.9,4.3c0.9,1.4,2.7,4.1,4.3,6.5c0,0,0,0,0,0c1.7,2.2,4.8,3.2,7,3.8
		c1.3,0.3,2.4,0.4,2.8,0.5c0.4,0,0.7-0.1,0.9-0.3c0,0,0.1-0.1,0.1-0.1c1.4,0.2,2.3,0,2.8-0.7c0.5-0.7,0.4-1.7,0.2-2.4
		c0.1,0,0.2-0.1,0.3-0.2c0.4-0.6-0.7-2.4-1.2-3.2c-1-1.9-3.4-3.4-7-4.2c-2.4-0.5-4.7-0.7-6.1-0.8c-0.4,0-0.7-0.1-0.9-0.1
		c-0.5-0.1-1-0.1-1.5-0.3c-1-0.2-1.6-0.5-1.8-0.6c-0.5-0.4-0.9-0.8-1.3-1.3l0.2,0.1c-0.2-0.3-0.4-0.5-0.6-0.7c3.1,0.6,5.9,1,8.6,1
		c1.8,0,3.5-0.1,5-0.4c2-0.2,5-0.6,8.2-1.9c5.3-2,6.4-8.3,6.4-8.6l0-0.7l0.6-0.6l1-0.7c0,0,0,0,0,0l0.3-0.3c0.1-0.1,0.2-0.1,0.3-0.2
		c0.1,0,0.3-0.1,0.5-0.2l0.2-0.1l0.4-0.3l1-0.4l0.9-0.4l1.3-0.7l0.6,0l0.3,0c0.4,0,0.8-0.3,1-0.5l0.6,0c0.8,0,1.2-0.1,1.2-0.1h0
		c0,0,1.1-0.3,1.8-0.5l1.6-0.3c0,0,0,0,0,0c0,0,0.8-0.1,1.2-0.1c0.3,0,0.4,0,0.6,0c0.2,0,0.4-0.1,0.9-0.1c0.1,0,0.4,0,0.7,0
		c0.3,0,0.6,0,0.7-0.1c0,0,0.1,0,0.1,0c0.3,0,0.9,0.1,0.9,0.1c0,0,0.1,0,0.1,0c0.1,0,0.1,0,0.2,0c0.2-0.1,0.7-0.3,1.1-0.3
		c0,0,0,0,0.1,0c0.1,0,0.1,0,0.2,0c0.6,0,1-0.2,1.1-0.2c0.1,0,0.1-0.1,0.2-0.1l0.6-0.8C592.5,41.2,592.5,41.1,592.5,40.9z"/>
</g>
<g>
	<path class="st2" d="M48.7,178.2c1.6-1.7,2.9-3.7,3.9-6c1-2.3,1.4-4.6,1.4-7.2v-41.9c0-2.5-0.5-4.9-1.5-7.2c-1-2.3-2.3-4.3-4-6
		c-1.7-1.6-3.7-2.9-5.9-3.9c-2.2-1-4.6-1.4-7.1-1.4c-2.5,0-4.9,0.5-7.2,1.4c-2.3,1-4.3,2.3-5.9,3.9c-1.6,1.7-2.9,3.7-3.9,5.9
		c-1,2.2-1.4,4.6-1.4,7.2c0,2.5,0.5,4.9,1.5,7.2c1,2.3,2.3,4.3,4,6c3.7,3.5,8,5.2,13,5.2c0.4,0,0.9,0,1.4-0.1c0.6,0,1.1-0.1,1.4-0.1
		c1.9,0,3.7,0.5,5.2,1.5c1.5,1,2.5,2.5,2.7,4.6c0.2,1.9-0.3,3.6-1.4,5.1c-1.1,1.5-2.6,2.4-4.6,2.8c-0.8,0.2-1.6,0.3-2.6,0.3
		c-1,0-1.7,0-2.3,0c-4.5,0-8.7-0.8-12.6-2.5c-3.9-1.7-7.4-4-10.5-7c-3.1-2.9-5.5-6.3-7.2-10.3c-1.7-3.9-2.5-8.2-2.5-12.7
		c0-4.5,0.8-8.7,2.5-12.6c1.7-3.9,4.1-7.4,7.2-10.5c3.1-3,6.6-5.3,10.5-7c3.9-1.7,8.1-2.5,12.6-2.5c4.5,0,8.7,0.8,12.6,2.5
		c3.9,1.7,7.3,4,10.3,7c3.1,3.1,5.5,6.6,7.2,10.5c1.7,3.9,2.5,8.1,2.5,12.6V165c0,4.5-0.8,8.7-2.5,12.6c-1.7,3.9-4,7.3-7,10.3
		c-3.1,3-6.6,5.3-10.5,7.1s-8.1,2.6-12.6,2.6c-3.1,0-6.1-0.4-9.1-1.2c-3-0.8-5.6-2-7.8-3.4c-1.6-1.1-2.7-2.6-3.1-4.5
		c-0.4-1.9-0.2-3.7,0.8-5.2c1.1-1.6,2.5-2.7,4.4-3.3s3.6-0.3,5.3,0.7c1.4,0.8,3,1.4,4.6,1.9c1.6,0.5,3.3,0.7,5,0.7
		c2.6,0,5-0.5,7.3-1.4C45.1,181.1,47.1,179.8,48.7,178.2z"/>
	<path class="st2" d="M142.4,90.4c2,0,3.7,0.7,5.1,2c1.3,1.4,2,3,2,5.1v25.6c0,4.8-0.8,9.2-2.5,13.2c-1.7,4-4,7.4-7,10.3
		c-3,2.8-6.5,5.1-10.4,6.6c-4,1.6-8.2,2.4-12.7,2.4c-4.5,0-8.7-0.8-12.6-2.5c-3.9-1.7-7.3-4-10.3-7c-3-3.1-5.3-6.6-7.1-10.4
		c-1.7-3.9-2.6-8-2.6-12.6V97.5c0-2,0.7-3.7,2.1-5.1c1.4-1.3,3.1-2,5.1-2c1.9,0,3.6,0.7,5,2c1.4,1.4,2.1,3,2.1,5.1v25.6
		c0,2.5,0.5,4.9,1.4,7.2c1,2.3,2.3,4.2,3.9,5.9c1.6,1.6,3.6,2.9,5.9,3.9c2.3,1,4.6,1.4,7.2,1.4c2.5,0,4.9-0.5,7.1-1.4
		c2.2-1,4.2-2.3,5.9-3.9c1.7-1.6,3.1-3.6,4-5.9c1-2.3,1.4-4.6,1.4-7.2V97.5c0-2,0.7-3.7,2-5.1C138.7,91.1,140.4,90.4,142.4,90.4z"/>
	<path class="st2" d="M253.7,98.2c2.5,2.5,4.5,5.4,5.9,8.6c1.4,3.2,2.2,6.7,2.2,10.3v31.4c0,2-0.7,3.7-2.1,5.1c-1.4,1.4-3.2,2-5.3,2
		c-2,0-3.8-0.7-5.2-2c-1.4-1.3-2.2-3-2.2-5.1v-31.4c0-1.7-0.3-3.3-1-4.8c-0.7-1.5-1.6-2.8-2.8-4c-1.2-1.2-2.6-2.1-4.2-2.7
		c-1.6-0.7-3.3-1-5-1s-3.4,0.3-4.9,0.9c-1.5,0.6-2.9,1.5-4.1,2.6c-1.2,1.1-2.2,2.4-2.9,4c-0.7,1.5-1.1,3.2-1.1,5.1v31.4
		c0,1.9-0.7,3.6-2.1,5c-1.4,1.4-3.2,2.1-5.3,2.1c-1.9,0-3.6-0.6-5.1-1.9c-1.5-1.3-2.2-3-2.2-5.2v-31.4c0-1.7-0.4-3.3-1.1-4.8
		c-0.7-1.5-1.7-2.8-2.9-4c-1.2-1.2-2.6-2.1-4.2-2.7c-1.6-0.7-3.3-1-5-1c-1.6,0-3.3,0.3-4.8,0.9c-1.6,0.6-3,1.5-4.2,2.6
		c-1.2,1.1-2.2,2.4-2.9,4c-0.7,1.5-1.1,3.2-1.1,5.1v31.4c0,2-0.7,3.7-2.2,5.1c-1.4,1.4-3.2,2-5.2,2c-1.9,0-3.6-0.7-5.1-2
		c-1.5-1.3-2.2-3-2.2-5.1v-31.4c0-3.7,0.7-7.1,2.2-10.3c1.4-3.2,3.4-6.1,5.9-8.6c2.5-2.5,5.4-4.4,8.8-5.8c3.4-1.3,7-2,10.8-2
		c4,0,7.7,0.7,11.2,2.1c3.5,1.4,6.6,3.6,9.3,6.6c2.8-3.1,5.9-5.3,9.4-6.6c3.5-1.3,7.1-2,11-2c3.9,0,7.5,0.7,10.8,2
		C248.2,93.8,251.2,95.7,253.7,98.2z"/>
	<path class="st2" d="M346,143.6c1.3,1.4,2,3,2.1,5c0,2-0.6,3.7-2,5.1c-1.4,1.3-3,2-5,2.1c-2,0-3.6-0.6-5-2
		c-1.9-1.8-3.7-3.5-5.2-5.1c-1.5-1.5-3.1-3-4.6-4.5c-1.5-1.4-3.1-2.9-4.7-4.5c-1.6-1.5-3.3-3.2-5.1-5.1c-1.9,2.3-3.8,4.7-5.7,7.1
		c-1.9,2.4-3.8,4.8-5.7,7.1c-1.7,2.1-3.6,3.7-5.6,4.8c-2,1.1-4.4,1.7-7.1,1.7c-1.7,0-3.5-0.4-5.3-1.2c-2.6-1.3-4.6-3.3-5.9-5.7
		c-1.4-2.5-2-5.2-2-8.3V56c0-2,0.7-3.7,2.1-5.1c1.4-1.3,3.1-2,5-2c1.9,0,3.6,0.7,5,2c1.4,1.4,2.1,3,2.1,5.1v81.7
		c0,0.5,0.2,0.9,0.7,1.2c0.5,0.3,1,0.1,1.4-0.4l36.7-45.1c1.3-1.6,2.8-2.6,4.7-2.7c1.9-0.2,3.6,0.4,5.1,1.7c1.6,1.4,2.5,2.9,2.7,4.7
		c0.1,1.8-0.4,3.5-1.7,5.1l-17.3,21.5L346,143.6z"/>
	<path class="st2" d="M369,70.1c-2.7,0-5-0.9-6.9-2.8s-2.8-4.1-2.8-6.7c0-2.7,0.9-5,2.8-6.9s4.2-2.8,6.9-2.8c2.6,0,4.8,0.9,6.7,2.8
		c1.9,1.9,2.8,4.2,2.8,6.9c0,2.6-0.9,4.8-2.8,6.7C373.8,69.1,371.6,70.1,369,70.1z M361.9,97.5c0-2,0.7-3.7,2.1-5.1
		c1.4-1.3,3.1-2,5-2c1.9,0,3.6,0.7,5,2c1.4,1.4,2.1,3,2.1,5.1v51c0,2-0.7,3.7-2.1,5.1c-1.4,1.4-3.1,2-5,2c-1.9,0-3.6-0.7-5-2
		c-1.4-1.3-2.1-3-2.1-5.1V97.5z"/>
	<path class="st2" d="M449.1,100c2.9,3.1,5.2,6.6,6.9,10.5s2.6,8.1,2.6,12.6v25.4c0,2-0.7,3.7-2.1,5.1c-1.4,1.4-3.1,2-5,2
		c-2,0-3.7-0.7-5.1-2c-1.4-1.3-2-3-2-5.1v-25.4c0-2.5-0.5-4.9-1.5-7.1c-1-2.2-2.4-4.2-4.1-5.9c-3.5-3.7-7.8-5.5-12.9-5.5
		c-2.6,0-5,0.5-7.3,1.4c-2.3,1-4.2,2.3-5.9,3.9c-1.6,1.6-2.9,3.6-3.9,5.9c-1,2.3-1.4,4.7-1.4,7.3v25.4c0,2-0.7,3.7-2,5.1
		c-1.3,1.4-3,2-5.1,2s-3.7-0.7-5.1-2c-1.4-1.3-2-3-2-5.1v-25.4c0-4.5,0.9-8.7,2.6-12.6s4-7.4,6.9-10.5c3-3,6.4-5.3,10.3-7
		c3.9-1.7,8.2-2.5,12.8-2.5c4.4,0,8.6,0.9,12.6,2.6C442.5,94.8,446,97.1,449.1,100z"/>
	<path class="st2" d="M507.2,90.4c4.6,0,8.9,0.8,12.8,2.5c3.9,1.7,7.3,4,10.3,7c3.1,3.1,5.5,6.6,7.2,10.4c1.7,3.9,2.5,8.1,2.5,12.7
		c0,4.5-0.8,8.8-2.5,12.7c-1.7,4-4.1,7.4-7.2,10.3c-3,3-6.4,5.3-10.3,7c-3.9,1.7-8.2,2.5-12.8,2.5c-4.4,0-8.6-0.8-12.5-2.5
		c-3.9-1.7-7.4-4-10.5-7c-3.1-2.9-5.5-6.3-7.2-10.3c-1.7-3.9-2.5-8.2-2.5-12.7c0-4.6,0.8-8.9,2.5-12.7c1.7-3.9,4.1-7.3,7.2-10.4
		c3.1-3,6.6-5.3,10.5-7C498.6,91.3,502.7,90.4,507.2,90.4z M520.3,136.1c3.7-3.5,5.5-7.8,5.5-13c0-2.5-0.5-4.9-1.5-7.2
		c-1-2.3-2.3-4.3-4-6c-1.7-1.6-3.7-2.9-6-3.9c-2.3-1-4.6-1.4-7.2-1.4c-2.5,0-4.9,0.5-7.2,1.4c-2.3,1-4.2,2.3-5.9,3.9
		c-1.6,1.7-2.9,3.7-3.9,5.9c-1,2.2-1.4,4.6-1.4,7.2c0,2.5,0.5,4.9,1.4,7.2c1,2.3,2.3,4.2,3.9,5.9c1.6,1.6,3.6,2.9,5.9,3.9
		c2.3,1,4.6,1.4,7.2,1.4c2.5,0,4.9-0.5,7.2-1.4C516.6,139.1,518.6,137.8,520.3,136.1z"/>
</g>
</svg>
