<?xml version="1.0" encoding="utf-8"?>
<!-- Generator: Adobe Illustrator 16.0.0, SVG Export Plug-In . SVG Version: 6.00 Build 0)  -->
<!DOCTYPE svg PUBLIC "-//W3C//DTD SVG 1.1//EN" "http://www.w3.org/Graphics/SVG/1.1/DTD/svg11.dtd">
<svg version="1.1" id="Layer_1" xmlns="http://www.w3.org/2000/svg" xmlns:xlink="http://www.w3.org/1999/xlink" x="0px" y="0px"
	 width="280.31px" height="83.333px" viewBox="0 0 280.31 83.333" enable-background="new 0 0 280.31 83.333" xml:space="preserve">
<g>
	<path opacity="0.6" fill="#FFFFFF" d="M74.728,33.957c0,0-0.882-1.011-1.387-1.515c-0.291-0.291-0.589-0.573-0.894-0.85
		c-0.132-0.12-0.268-0.232-0.401-0.348c-0.171-0.147-0.338-0.297-0.512-0.439c-0.181-0.149-0.366-0.29-0.549-0.432
		c-0.132-0.103-0.262-0.207-0.395-0.306c-0.206-0.153-0.417-0.3-0.626-0.445c-0.118-0.082-0.233-0.166-0.353-0.247
		c-0.218-0.146-0.44-0.284-0.662-0.424c-0.118-0.073-0.235-0.149-0.355-0.221c-0.219-0.133-0.44-0.258-0.663-0.383
		c-0.13-0.072-0.26-0.146-0.392-0.218c-0.21-0.112-0.423-0.22-0.637-0.326c-0.151-0.076-0.301-0.151-0.454-0.224
		c-0.195-0.093-0.392-0.18-0.588-0.267c-0.177-0.078-0.354-0.158-0.534-0.232c-0.175-0.072-0.352-0.14-0.528-0.208
		c-0.204-0.079-0.409-0.158-0.616-0.233c-0.156-0.054-0.311-0.105-0.467-0.157c-0.23-0.076-0.461-0.153-0.694-0.224
		c-0.139-0.042-0.278-0.079-0.417-0.118c-0.25-0.07-0.5-0.14-0.753-0.203c-0.13-0.033-0.261-0.061-0.392-0.091
		c-0.26-0.06-0.521-0.12-0.784-0.172c-0.134-0.026-0.268-0.047-0.401-0.07c-0.259-0.047-0.519-0.094-0.781-0.133
		c-0.154-0.022-0.308-0.038-0.463-0.059c-0.242-0.03-0.482-0.063-0.726-0.087c-0.207-0.02-0.414-0.032-0.62-0.048
		c-0.194-0.013-0.387-0.031-0.582-0.041c-0.399-0.021-0.799-0.029-1.199-0.031c-0.007,0-0.014,0-0.021,0c-0.007,0-0.015,0-0.022,0
		c-0.399,0.002-0.799,0.011-1.198,0.031c-0.197,0.01-0.391,0.028-0.586,0.042c-0.206,0.015-0.411,0.027-0.616,0.047
		c-0.244,0.024-0.486,0.057-0.729,0.087c-0.153,0.021-0.307,0.036-0.459,0.059c-0.262,0.039-0.522,0.086-0.782,0.133
		c-0.134,0.023-0.267,0.045-0.401,0.07c-0.262,0.052-0.522,0.112-0.782,0.172c-0.131,0.03-0.263,0.058-0.394,0.091
		c-0.251,0.063-0.5,0.132-0.749,0.203c-0.141,0.039-0.282,0.076-0.422,0.118c-0.231,0.07-0.459,0.146-0.688,0.223
		c-0.158,0.053-0.316,0.104-0.474,0.16c-0.204,0.073-0.407,0.151-0.608,0.229c-0.179,0.069-0.359,0.138-0.537,0.211
		c-0.176,0.073-0.349,0.151-0.523,0.229c-0.2,0.088-0.4,0.177-0.598,0.271c-0.149,0.071-0.295,0.146-0.442,0.219
		c-0.217,0.108-0.435,0.218-0.649,0.332c-0.127,0.068-0.252,0.141-0.378,0.211c-0.227,0.126-0.454,0.255-0.677,0.39
		c-0.114,0.068-0.225,0.141-0.338,0.21c-0.228,0.144-0.455,0.285-0.679,0.437c-0.112,0.074-0.221,0.154-0.331,0.23
		c-0.217,0.151-0.435,0.302-0.647,0.461c-0.125,0.092-0.245,0.189-0.366,0.283c-0.194,0.15-0.388,0.298-0.578,0.454
		c-0.159,0.13-0.312,0.267-0.467,0.401c-0.148,0.129-0.299,0.253-0.445,0.385c-0.295,0.268-0.584,0.543-0.867,0.824
		c-0.005,0.006-0.012,0.011-0.018,0.018c-0.008,0.008-0.016,0.017-0.024,0.024c-0.279,0.28-0.551,0.566-0.816,0.858
		c-0.134,0.149-0.26,0.301-0.391,0.45c-0.132,0.154-0.268,0.306-0.396,0.462c-0.158,0.192-0.307,0.387-0.457,0.582
		c-0.094,0.121-0.19,0.24-0.281,0.362c-0.16,0.214-0.312,0.433-0.463,0.65c-0.076,0.11-0.154,0.218-0.229,0.328
		c-0.151,0.226-0.295,0.454-0.438,0.683c-0.069,0.111-0.141,0.223-0.208,0.334c-0.135,0.225-0.264,0.453-0.391,0.681
		c-0.07,0.125-0.141,0.25-0.209,0.376c-0.115,0.215-0.225,0.432-0.333,0.65c-0.073,0.146-0.147,0.292-0.218,0.44
		c-0.094,0.198-0.183,0.4-0.271,0.602c-0.076,0.173-0.154,0.345-0.226,0.52c-0.074,0.18-0.143,0.359-0.212,0.539
		c-0.078,0.201-0.156,0.403-0.229,0.606c-0.056,0.159-0.107,0.317-0.161,0.476c-0.076,0.228-0.152,0.456-0.222,0.687
		c-0.042,0.141-0.081,0.281-0.12,0.423c-0.07,0.248-0.139,0.497-0.202,0.748c-0.033,0.131-0.061,0.263-0.091,0.396
		c-0.06,0.259-0.12,0.519-0.171,0.781c-0.026,0.134-0.048,0.269-0.072,0.403c-0.046,0.259-0.093,0.517-0.131,0.777
		c-0.023,0.155-0.039,0.311-0.06,0.467c-0.031,0.24-0.063,0.48-0.086,0.724c-0.021,0.207-0.032,0.414-0.047,0.622
		c-0.014,0.192-0.032,0.385-0.042,0.578c-0.021,0.406-0.031,0.812-0.031,1.219c0,0.001,0,0.001,0,0.002l0,0
		c0,0.399,0.01,0.798,0.029,1.197c0.014,0.287,0.038,0.573,0.062,0.858c0.008,0.106,0.013,0.214,0.023,0.32
		c0.036,0.379,0.082,0.754,0.135,1.126c0.002,0.015,0.002,0.029,0.005,0.044c0.287,1.994,0.812,3.914,1.546,5.725
		c0.127,0.313,0.264,0.625,0.404,0.934c0.02,0.042,0.036,0.086,0.056,0.128c0.141,0.305,0.292,0.608,0.446,0.908
		c0.022,0.043,0.042,0.088,0.065,0.131c0.148,0.287,0.307,0.57,0.467,0.852c0.032,0.055,0.062,0.112,0.094,0.168
		c0.153,0.265,0.315,0.523,0.479,0.783c0.045,0.071,0.088,0.144,0.135,0.215c0.155,0.241,0.318,0.478,0.483,0.713
		c0.061,0.088,0.122,0.177,0.184,0.264c0.157,0.219,0.319,0.433,0.483,0.646c0.079,0.104,0.158,0.206,0.239,0.309
		c0.156,0.197,0.317,0.391,0.48,0.584c0.097,0.114,0.194,0.229,0.294,0.342c0.157,0.18,0.317,0.357,0.48,0.534
		c0.111,0.119,0.224,0.237,0.338,0.354c0.101,0.105,0.197,0.214,0.301,0.317c0.083,0.084,0.169,0.162,0.253,0.245
		c0.035,0.032,0.07,0.066,0.104,0.1c0.251,0.242,0.506,0.478,0.765,0.706c0.008,0.007,0.017,0.016,0.025,0.022
		c2.05,1.808,4.328,3.216,6.734,4.227c0.013,0.005,0.026,0.011,0.04,0.017c0.688,0.287,1.386,0.542,2.091,0.765
		c0.073,0.022,0.147,0.044,0.22,0.066c0.267,0.081,0.535,0.158,0.804,0.23c0.098,0.026,0.195,0.053,0.293,0.078
		c0.326,0.083,0.654,0.161,0.982,0.23c0.058,0.012,0.116,0.022,0.175,0.035c0.294,0.06,0.589,0.114,0.885,0.163
		c0.123,0.021,0.247,0.04,0.371,0.058c0.245,0.037,0.49,0.07,0.736,0.1c0.111,0.014,0.222,0.028,0.334,0.04
		c0.34,0.036,0.681,0.066,1.022,0.088c0.027,0.002,0.053,0.006,0.08,0.007v0.004h0.044c0.495,0.03,0.991,0.049,1.493,0.049
		c0.501,0,0.999-0.019,1.493-0.049l0.049-0.009c1.872-0.117,3.731-0.448,5.542-0.989l0.087-0.016c0.003,0,0.005-0.001,0.007-0.002
		v-0.011c0.453-0.137,0.903-0.285,1.349-0.448V59.172c-0.481,0.443-0.995,0.828-1.524,1.183c-0.614,0.411-1.266,0.77-1.949,1.071
		c-0.155,0.066-0.31,0.137-0.468,0.198c-0.157,0.062-0.316,0.117-0.476,0.173c-0.203,0.069-0.408,0.136-0.613,0.194
		c-0.131,0.039-0.262,0.077-0.395,0.11c-0.273,0.069-0.548,0.128-0.824,0.179c-0.076,0.014-0.15,0.032-0.226,0.045
		c-0.371,0.061-0.744,0.107-1.118,0.135c-0.023,0.001-0.045,0-0.068,0.003c-0.356,0.023-0.713,0.033-1.07,0.028
		c-0.037-0.001-0.073-0.002-0.109-0.002c-0.367-0.01-0.733-0.033-1.1-0.073c-0.014-0.002-0.029-0.004-0.044-0.007
		c-1.154-0.132-2.293-0.425-3.382-0.876c-0.012-0.005-0.024-0.01-0.035-0.014c-0.343-0.144-0.68-0.306-1.011-0.481
		c-0.031-0.016-0.062-0.029-0.093-0.047c-0.321-0.173-0.635-0.362-0.943-0.564c-0.034-0.022-0.069-0.045-0.103-0.067
		c-0.312-0.209-0.617-0.435-0.912-0.676c-0.023-0.018-0.046-0.034-0.068-0.053c-0.312-0.257-0.616-0.531-0.908-0.821
		c-0.038-0.039-0.074-0.078-0.112-0.118c-0.108-0.11-0.217-0.223-0.321-0.337c-0.079-0.087-0.154-0.178-0.23-0.267
		c-0.058-0.067-0.117-0.132-0.172-0.199c-0.086-0.104-0.169-0.213-0.251-0.319c-0.042-0.055-0.084-0.108-0.125-0.163
		c-0.086-0.115-0.168-0.234-0.25-0.352c-0.034-0.05-0.07-0.099-0.103-0.148c-0.08-0.12-0.158-0.241-0.234-0.363
		c-0.032-0.054-0.065-0.104-0.097-0.155c-0.072-0.12-0.141-0.242-0.208-0.363c-0.033-0.059-0.067-0.117-0.098-0.177
		c-0.061-0.114-0.12-0.229-0.177-0.346c-0.036-0.071-0.071-0.141-0.105-0.213c-0.05-0.104-0.097-0.21-0.144-0.317
		c-0.038-0.085-0.076-0.169-0.111-0.256c-0.039-0.094-0.076-0.189-0.113-0.285c-0.039-0.1-0.077-0.199-0.113-0.3
		c-0.03-0.083-0.057-0.167-0.085-0.251c-0.038-0.114-0.076-0.229-0.111-0.343c-0.022-0.074-0.042-0.149-0.063-0.224
		c-0.036-0.125-0.07-0.25-0.102-0.376c-0.017-0.068-0.031-0.139-0.047-0.207c-0.03-0.131-0.06-0.262-0.086-0.395
		c-0.015-0.069-0.025-0.141-0.038-0.211c-0.023-0.131-0.047-0.262-0.066-0.394c-0.012-0.079-0.02-0.158-0.03-0.237
		c-0.016-0.124-0.032-0.246-0.044-0.37c-0.01-0.104-0.016-0.209-0.024-0.313c-0.007-0.101-0.016-0.201-0.022-0.301
		c-0.009-0.194-0.014-0.39-0.014-0.585c0-0.028,0-0.057,0-0.085c0-0.191,0.005-0.384,0.014-0.575
		c0.006-0.105,0.015-0.21,0.023-0.316c0.007-0.099,0.013-0.198,0.022-0.298c0.013-0.129,0.03-0.256,0.047-0.385
		c0.009-0.074,0.017-0.148,0.028-0.222c0.02-0.138,0.043-0.274,0.069-0.411c0.011-0.063,0.021-0.129,0.034-0.192
		c0.027-0.137,0.059-0.275,0.09-0.412c0.014-0.062,0.028-0.126,0.044-0.188c0.033-0.133,0.069-0.264,0.107-0.396
		c0.019-0.067,0.037-0.135,0.057-0.202c0.037-0.123,0.077-0.244,0.118-0.365c0.025-0.076,0.05-0.152,0.076-0.228
		c0.039-0.109,0.082-0.217,0.123-0.325c0.034-0.087,0.067-0.175,0.103-0.26c0.039-0.095,0.081-0.188,0.123-0.282
		c0.043-0.098,0.086-0.195,0.131-0.291c0.038-0.08,0.079-0.161,0.119-0.24c0.053-0.107,0.106-0.213,0.163-0.318
		c0.038-0.068,0.077-0.138,0.116-0.207c0.062-0.11,0.125-0.223,0.191-0.332c0.037-0.063,0.078-0.125,0.117-0.188
		c0.07-0.111,0.14-0.223,0.213-0.332c0.042-0.062,0.085-0.123,0.128-0.185c0.074-0.105,0.147-0.213,0.225-0.317
		c0.052-0.068,0.106-0.136,0.159-0.204c0.072-0.093,0.144-0.187,0.219-0.277c0.073-0.089,0.15-0.177,0.227-0.265
		c0.058-0.067,0.115-0.136,0.175-0.202c0.14-0.153,0.283-0.305,0.431-0.454c0.208-0.208,0.425-0.404,0.644-0.596
		c0.048-0.041,0.096-0.084,0.145-0.125c0.211-0.178,0.427-0.35,0.646-0.512c0.053-0.039,0.106-0.075,0.16-0.113
		c0.191-0.137,0.384-0.267,0.58-0.392c0.052-0.032,0.103-0.066,0.153-0.098c0.232-0.143,0.468-0.275,0.706-0.401
		c0.057-0.03,0.115-0.059,0.171-0.088c0.241-0.122,0.483-0.239,0.729-0.345c0.009-0.004,0.018-0.008,0.027-0.012
		c0.273-0.117,0.549-0.222,0.827-0.317c0.029-0.01,0.058-0.02,0.087-0.029c0.571-0.192,1.154-0.345,1.744-0.453
		c0.002,0,0.005-0.001,0.008-0.001c0.866-0.158,1.746-0.222,2.624-0.198c0.088,0.003,0.177,0.006,0.264,0.01
		c0.236,0.012,0.471,0.027,0.706,0.052c0.061,0.007,0.121,0.015,0.181,0.021c0.258,0.03,0.515,0.067,0.771,0.113
		c0.034,0.007,0.068,0.015,0.103,0.021c0.274,0.053,0.548,0.111,0.818,0.183c0.021,0.005,0.041,0.012,0.062,0.017
		c0.279,0.074,0.556,0.157,0.831,0.25c0.02,0.007,0.04,0.016,0.061,0.021c0.269,0.094,0.536,0.196,0.8,0.309
		c3.076,1.311,5.526,3.803,6.772,6.913H50.285v10.287h18.191h12.087v-3.491c0,0,0-1.398,0-2.109
		C80.563,43.814,78.366,38.257,74.728,33.957z"/>
	<path opacity="0.6" fill="#FFFFFF" d="M153.265,49.886c0-13.63-11.049-24.68-24.68-24.68c-13.63,0-24.68,11.05-24.68,24.68
		c0,13.114,10.229,23.834,23.142,24.628v0.004h0.044c0.494,0.03,0.992,0.049,1.493,0.049s0.999-0.019,1.494-0.049h5.679v-1.014
		c0.002,0,0.005-0.001,0.007-0.002V60.242c-2.039,1.417-4.509,2.255-7.18,2.255c-6.964,0-12.61-5.646-12.61-12.61
		c0-6.964,5.646-12.608,12.61-12.608c6.628,0,12.059,5.115,12.566,11.613h0.025v0.339c0.012,0.218,0.018,0.437,0.018,0.656
		c0,0.216-0.006,0.43-0.018,0.641v24.04h12.088V51.996C153.265,51.996,153.265,50.597,153.265,49.886z"/>
	<path opacity="0.6" fill="#FFFFFF" d="M252.014,49.79c0-13.63-11.05-24.68-24.681-24.68c-13.629,0-24.68,11.05-24.68,24.68
		c0,13.113,10.229,23.834,23.143,24.629v0.002h0.045c0.494,0.03,0.991,0.05,1.492,0.05c0.502,0,1-0.02,1.494-0.05h5.679v-1.013
		c0.003,0,0.005-0.001,0.007-0.003V60.146c-2.039,1.416-4.509,2.253-7.18,2.253c-6.963,0-12.609-5.646-12.609-12.608
		c0-6.965,5.646-12.61,12.609-12.61c6.63,0,12.059,5.116,12.567,11.614h0.025v0.339c0.012,0.217,0.018,0.436,0.018,0.657
		c0,0.215-0.006,0.428-0.018,0.639V74.47h12.088V51.898C252.014,51.898,252.014,50.5,252.014,49.79z"/>
	<path opacity="0.6" fill="#FFFFFF" d="M253.936,74.664V45.772c0,0-0.723-18.77,17.281-19.639c0,8.479,0,8.479,0,8.479
		s-9.002,0.952-9.002,9.516c0,8.562,0,18.338,0,18.338v3.114C262.215,65.581,262.458,73.712,253.936,74.664z"/>
	<path opacity="0.6" fill="none" stroke="#FFFFFF" stroke-width="1.5" stroke-miterlimit="10" d="M74.728,33.957
		c0,0-0.882-1.011-1.387-1.515c-0.291-0.291-0.589-0.573-0.894-0.85c-0.132-0.12-0.268-0.232-0.401-0.348
		c-0.171-0.147-0.338-0.297-0.512-0.439c-0.181-0.149-0.366-0.29-0.549-0.432c-0.132-0.103-0.262-0.207-0.395-0.306
		c-0.206-0.153-0.417-0.3-0.626-0.445c-0.118-0.082-0.233-0.166-0.353-0.247c-0.218-0.146-0.44-0.284-0.662-0.424
		c-0.118-0.073-0.235-0.149-0.355-0.221c-0.219-0.133-0.44-0.258-0.663-0.383c-0.13-0.072-0.26-0.146-0.392-0.218
		c-0.21-0.112-0.423-0.22-0.637-0.326c-0.151-0.076-0.301-0.151-0.454-0.224c-0.195-0.093-0.392-0.18-0.588-0.267
		c-0.177-0.078-0.354-0.158-0.534-0.232c-0.175-0.072-0.352-0.14-0.528-0.208c-0.204-0.079-0.409-0.158-0.616-0.233
		c-0.156-0.054-0.311-0.105-0.467-0.157c-0.23-0.076-0.461-0.153-0.694-0.224c-0.139-0.042-0.278-0.079-0.417-0.118
		c-0.25-0.07-0.5-0.14-0.753-0.203c-0.13-0.033-0.261-0.061-0.392-0.091c-0.26-0.06-0.521-0.12-0.784-0.172
		c-0.134-0.026-0.268-0.047-0.401-0.07c-0.259-0.047-0.519-0.094-0.781-0.133c-0.154-0.022-0.308-0.038-0.463-0.059
		c-0.242-0.03-0.482-0.063-0.726-0.087c-0.207-0.02-0.414-0.032-0.62-0.048c-0.194-0.013-0.387-0.031-0.582-0.041
		c-0.399-0.021-0.799-0.029-1.199-0.031c-0.007,0-0.014,0-0.021,0c-0.007,0-0.015,0-0.022,0c-0.399,0.002-0.799,0.011-1.198,0.031
		c-0.197,0.01-0.391,0.028-0.586,0.042c-0.206,0.015-0.411,0.027-0.616,0.047c-0.244,0.024-0.486,0.057-0.729,0.087
		c-0.153,0.021-0.307,0.036-0.459,0.059c-0.262,0.039-0.522,0.086-0.782,0.133c-0.134,0.023-0.267,0.045-0.401,0.07
		c-0.262,0.052-0.522,0.112-0.782,0.172c-0.131,0.03-0.263,0.058-0.394,0.091c-0.251,0.063-0.5,0.132-0.749,0.203
		c-0.141,0.039-0.282,0.076-0.422,0.118c-0.231,0.07-0.459,0.146-0.688,0.223c-0.158,0.053-0.316,0.104-0.474,0.16
		c-0.204,0.073-0.407,0.151-0.608,0.229c-0.179,0.069-0.359,0.138-0.537,0.211c-0.176,0.073-0.349,0.151-0.523,0.229
		c-0.2,0.088-0.4,0.177-0.598,0.271c-0.149,0.071-0.295,0.146-0.442,0.219c-0.217,0.108-0.435,0.218-0.649,0.332
		c-0.127,0.068-0.252,0.141-0.378,0.211c-0.227,0.126-0.454,0.255-0.677,0.39c-0.114,0.068-0.225,0.141-0.338,0.21
		c-0.228,0.144-0.455,0.285-0.679,0.437c-0.112,0.074-0.221,0.154-0.331,0.23c-0.217,0.151-0.435,0.302-0.647,0.461
		c-0.125,0.092-0.245,0.189-0.366,0.283c-0.194,0.15-0.388,0.298-0.578,0.454c-0.159,0.13-0.312,0.267-0.467,0.401
		c-0.148,0.129-0.299,0.253-0.445,0.385c-0.295,0.268-0.584,0.543-0.867,0.824c-0.005,0.006-0.012,0.011-0.018,0.018
		c-0.008,0.008-0.016,0.017-0.024,0.024c-0.279,0.28-0.551,0.566-0.816,0.858c-0.134,0.149-0.26,0.301-0.391,0.45
		c-0.132,0.154-0.268,0.306-0.396,0.462c-0.158,0.192-0.307,0.387-0.457,0.582c-0.094,0.121-0.19,0.24-0.281,0.362
		c-0.16,0.214-0.312,0.433-0.463,0.65c-0.076,0.11-0.154,0.218-0.229,0.328c-0.151,0.226-0.295,0.454-0.438,0.683
		c-0.069,0.111-0.141,0.223-0.208,0.334c-0.135,0.225-0.264,0.453-0.391,0.681c-0.07,0.125-0.141,0.25-0.209,0.376
		c-0.115,0.215-0.225,0.432-0.333,0.65c-0.073,0.146-0.147,0.292-0.218,0.44c-0.094,0.198-0.183,0.4-0.271,0.602
		c-0.076,0.173-0.154,0.345-0.226,0.52c-0.074,0.18-0.143,0.359-0.212,0.539c-0.078,0.201-0.156,0.403-0.229,0.606
		c-0.056,0.159-0.107,0.317-0.161,0.476c-0.076,0.228-0.152,0.456-0.222,0.687c-0.042,0.141-0.081,0.281-0.12,0.423
		c-0.07,0.248-0.139,0.497-0.202,0.748c-0.033,0.131-0.061,0.263-0.091,0.396c-0.06,0.259-0.12,0.519-0.171,0.781
		c-0.026,0.134-0.048,0.269-0.072,0.403c-0.046,0.259-0.093,0.517-0.131,0.777c-0.023,0.155-0.039,0.311-0.06,0.467
		c-0.031,0.24-0.063,0.48-0.086,0.724c-0.021,0.207-0.032,0.414-0.047,0.622c-0.014,0.192-0.032,0.385-0.042,0.578
		c-0.021,0.406-0.031,0.812-0.031,1.219c0,0.001,0,0.001,0,0.002l0,0c0,0.399,0.01,0.798,0.029,1.197
		c0.014,0.287,0.038,0.573,0.062,0.858c0.008,0.106,0.013,0.214,0.023,0.32c0.036,0.379,0.082,0.754,0.135,1.126
		c0.002,0.015,0.002,0.029,0.005,0.044c0.287,1.994,0.812,3.914,1.546,5.725c0.127,0.313,0.264,0.625,0.404,0.934
		c0.02,0.042,0.036,0.086,0.056,0.128c0.141,0.305,0.292,0.608,0.446,0.908c0.022,0.043,0.042,0.088,0.065,0.131
		c0.148,0.287,0.307,0.57,0.467,0.852c0.032,0.055,0.062,0.112,0.094,0.168c0.153,0.265,0.315,0.523,0.479,0.783
		c0.045,0.071,0.088,0.144,0.135,0.215c0.155,0.241,0.318,0.478,0.483,0.713c0.061,0.088,0.122,0.177,0.184,0.264
		c0.157,0.219,0.319,0.433,0.483,0.646c0.079,0.104,0.158,0.206,0.239,0.309c0.156,0.197,0.317,0.391,0.48,0.584
		c0.097,0.114,0.194,0.229,0.294,0.342c0.157,0.18,0.317,0.357,0.48,0.534c0.111,0.119,0.224,0.237,0.338,0.354
		c0.101,0.105,0.197,0.214,0.301,0.317c0.083,0.084,0.169,0.162,0.253,0.245c0.035,0.032,0.07,0.066,0.104,0.1
		c0.251,0.242,0.506,0.478,0.765,0.706c0.008,0.007,0.017,0.016,0.025,0.022c2.05,1.808,4.328,3.216,6.734,4.227
		c0.013,0.005,0.026,0.011,0.04,0.017c0.688,0.287,1.386,0.542,2.091,0.765c0.073,0.022,0.147,0.044,0.22,0.066
		c0.267,0.081,0.535,0.158,0.804,0.23c0.098,0.026,0.195,0.053,0.293,0.078c0.326,0.083,0.654,0.161,0.982,0.23
		c0.058,0.012,0.116,0.022,0.175,0.035c0.294,0.06,0.589,0.114,0.885,0.163c0.123,0.021,0.247,0.04,0.371,0.058
		c0.245,0.037,0.49,0.07,0.736,0.1c0.111,0.014,0.222,0.028,0.334,0.04c0.34,0.036,0.681,0.066,1.022,0.088
		c0.027,0.002,0.053,0.006,0.08,0.007v0.004h0.044c0.495,0.03,0.991,0.049,1.493,0.049c0.501,0,0.999-0.019,1.493-0.049l0.049-0.009
		c1.872-0.117,3.731-0.448,5.542-0.989l0.087-0.016c0.003,0,0.005-0.001,0.007-0.002v-0.011c0.453-0.137,0.903-0.285,1.349-0.448
		V59.172c-0.481,0.443-0.995,0.828-1.524,1.183c-0.614,0.411-1.266,0.77-1.949,1.071c-0.155,0.066-0.31,0.137-0.468,0.198
		c-0.157,0.062-0.316,0.117-0.476,0.173c-0.203,0.069-0.408,0.136-0.613,0.194c-0.131,0.039-0.262,0.077-0.395,0.11
		c-0.273,0.069-0.548,0.128-0.824,0.179c-0.076,0.014-0.15,0.032-0.226,0.045c-0.371,0.061-0.744,0.107-1.118,0.135
		c-0.023,0.001-0.045,0-0.068,0.003c-0.356,0.023-0.713,0.033-1.07,0.028c-0.037-0.001-0.073-0.002-0.109-0.002
		c-0.367-0.01-0.733-0.033-1.1-0.073c-0.014-0.002-0.029-0.004-0.044-0.007c-1.154-0.132-2.293-0.425-3.382-0.876
		c-0.012-0.005-0.024-0.01-0.035-0.014c-0.343-0.144-0.68-0.306-1.011-0.481c-0.031-0.016-0.062-0.029-0.093-0.047
		c-0.321-0.173-0.635-0.362-0.943-0.564c-0.034-0.022-0.069-0.045-0.103-0.067c-0.312-0.209-0.617-0.435-0.912-0.676
		c-0.023-0.018-0.046-0.034-0.068-0.053c-0.312-0.257-0.616-0.531-0.908-0.821c-0.038-0.039-0.074-0.078-0.112-0.118
		c-0.108-0.11-0.217-0.223-0.321-0.337c-0.079-0.087-0.154-0.178-0.23-0.267c-0.058-0.067-0.117-0.132-0.172-0.199
		c-0.086-0.104-0.169-0.213-0.251-0.319c-0.042-0.055-0.084-0.108-0.125-0.163c-0.086-0.115-0.168-0.234-0.25-0.352
		c-0.034-0.05-0.07-0.099-0.103-0.148c-0.08-0.12-0.158-0.241-0.234-0.363c-0.032-0.054-0.065-0.104-0.097-0.155
		c-0.072-0.12-0.141-0.242-0.208-0.363c-0.033-0.059-0.067-0.117-0.098-0.177c-0.061-0.114-0.12-0.229-0.177-0.346
		c-0.036-0.071-0.071-0.141-0.105-0.213c-0.05-0.104-0.097-0.21-0.144-0.317c-0.038-0.085-0.076-0.169-0.111-0.256
		c-0.039-0.094-0.076-0.189-0.113-0.285c-0.039-0.1-0.077-0.199-0.113-0.3c-0.03-0.083-0.057-0.167-0.085-0.251
		c-0.038-0.114-0.076-0.229-0.111-0.343c-0.022-0.074-0.042-0.149-0.063-0.224c-0.036-0.125-0.07-0.25-0.102-0.376
		c-0.017-0.068-0.031-0.139-0.047-0.207c-0.03-0.131-0.06-0.262-0.086-0.395c-0.015-0.069-0.025-0.141-0.038-0.211
		c-0.023-0.131-0.047-0.262-0.066-0.394c-0.012-0.079-0.02-0.158-0.03-0.237c-0.016-0.124-0.032-0.246-0.044-0.37
		c-0.01-0.104-0.016-0.209-0.024-0.313c-0.007-0.101-0.016-0.201-0.022-0.301c-0.009-0.194-0.014-0.39-0.014-0.585
		c0-0.028,0-0.057,0-0.085c0-0.191,0.005-0.384,0.014-0.575c0.006-0.105,0.015-0.21,0.023-0.316
		c0.007-0.099,0.013-0.198,0.022-0.298c0.013-0.129,0.03-0.256,0.047-0.385c0.009-0.074,0.017-0.148,0.028-0.222
		c0.02-0.138,0.043-0.274,0.069-0.411c0.011-0.063,0.021-0.129,0.034-0.192c0.027-0.137,0.059-0.275,0.09-0.412
		c0.014-0.062,0.028-0.126,0.044-0.188c0.033-0.133,0.069-0.264,0.107-0.396c0.019-0.067,0.037-0.135,0.057-0.202
		c0.037-0.123,0.077-0.244,0.118-0.365c0.025-0.076,0.05-0.152,0.076-0.228c0.039-0.109,0.082-0.217,0.123-0.325
		c0.034-0.087,0.067-0.175,0.103-0.26c0.039-0.095,0.081-0.188,0.123-0.282c0.043-0.098,0.086-0.195,0.131-0.291
		c0.038-0.08,0.079-0.161,0.119-0.24c0.053-0.107,0.106-0.213,0.163-0.318c0.038-0.068,0.077-0.138,0.116-0.207
		c0.062-0.11,0.125-0.223,0.191-0.332c0.037-0.063,0.078-0.125,0.117-0.188c0.07-0.111,0.14-0.223,0.213-0.332
		c0.042-0.062,0.085-0.123,0.128-0.185c0.074-0.105,0.147-0.213,0.225-0.317c0.052-0.068,0.106-0.136,0.159-0.204
		c0.072-0.093,0.144-0.187,0.219-0.277c0.073-0.089,0.15-0.177,0.227-0.265c0.058-0.067,0.115-0.136,0.175-0.202
		c0.14-0.153,0.283-0.305,0.431-0.454c0.208-0.208,0.425-0.404,0.644-0.596c0.048-0.041,0.096-0.084,0.145-0.125
		c0.211-0.178,0.427-0.35,0.646-0.512c0.053-0.039,0.106-0.075,0.16-0.113c0.191-0.137,0.384-0.267,0.58-0.392
		c0.052-0.032,0.103-0.066,0.153-0.098c0.232-0.143,0.468-0.275,0.706-0.401c0.057-0.03,0.115-0.059,0.171-0.088
		c0.241-0.122,0.483-0.239,0.729-0.345c0.009-0.004,0.018-0.008,0.027-0.012c0.273-0.117,0.549-0.222,0.827-0.317
		c0.029-0.01,0.058-0.02,0.087-0.029c0.571-0.192,1.154-0.345,1.744-0.453c0.002,0,0.005-0.001,0.008-0.001
		c0.866-0.158,1.746-0.222,2.624-0.198c0.088,0.003,0.177,0.006,0.264,0.01c0.236,0.012,0.471,0.027,0.706,0.052
		c0.061,0.007,0.121,0.015,0.181,0.021c0.258,0.03,0.515,0.067,0.771,0.113c0.034,0.007,0.068,0.015,0.103,0.021
		c0.274,0.053,0.548,0.111,0.818,0.183c0.021,0.005,0.041,0.012,0.062,0.017c0.279,0.074,0.556,0.157,0.831,0.25
		c0.02,0.007,0.04,0.016,0.061,0.021c0.269,0.094,0.536,0.196,0.8,0.309c3.076,1.311,5.526,3.803,6.772,6.913H50.285v10.287h18.191
		h12.087v-3.491c0,0,0-1.398,0-2.109C80.563,43.814,78.366,38.257,74.728,33.957z"/>
	<path opacity="0.6" fill="none" stroke="#FFFFFF" stroke-width="1.5" stroke-miterlimit="10" d="M153.265,49.886
		c0-13.63-11.049-24.68-24.68-24.68c-13.63,0-24.68,11.05-24.68,24.68c0,13.114,10.229,23.834,23.142,24.628v0.004h0.044
		c0.494,0.03,0.992,0.049,1.493,0.049s0.999-0.019,1.494-0.049h5.679v-1.014c0.002,0,0.005-0.001,0.007-0.002V60.242
		c-2.039,1.417-4.509,2.255-7.18,2.255c-6.964,0-12.61-5.646-12.61-12.61c0-6.964,5.646-12.608,12.61-12.608
		c6.628,0,12.059,5.115,12.566,11.613h0.025v0.339c0.012,0.218,0.018,0.437,0.018,0.656c0,0.216-0.006,0.43-0.018,0.641v24.04
		h12.088V51.996C153.265,51.996,153.265,50.597,153.265,49.886z"/>
	<path opacity="0.6" fill="none" stroke="#FFFFFF" stroke-width="1.5" stroke-miterlimit="10" d="M252.014,49.79
		c0-13.63-11.05-24.68-24.681-24.68c-13.629,0-24.68,11.05-24.68,24.68c0,13.113,10.229,23.834,23.143,24.629v0.002h0.045
		c0.494,0.03,0.991,0.05,1.492,0.05c0.502,0,1-0.02,1.494-0.05h5.679v-1.013c0.003,0,0.005-0.001,0.007-0.003V60.146
		c-2.039,1.416-4.509,2.253-7.18,2.253c-6.963,0-12.609-5.646-12.609-12.608c0-6.965,5.646-12.61,12.609-12.61
		c6.63,0,12.059,5.116,12.567,11.614h0.025v0.339c0.012,0.217,0.018,0.436,0.018,0.657c0,0.215-0.006,0.428-0.018,0.639V74.47
		h12.088V51.898C252.014,51.898,252.014,50.5,252.014,49.79z"/>
	<path opacity="0.6" fill="none" stroke="#FFFFFF" stroke-width="1.5" stroke-miterlimit="10" d="M253.936,74.664V45.772
		c0,0-0.723-18.77,17.281-19.639c0,8.479,0,8.479,0,8.479s-9.002,0.952-9.002,9.516c0,8.562,0,18.338,0,18.338v3.114
		C262.215,65.581,262.458,73.712,253.936,74.664z"/>
	<g>
		<g>
			<polygon fill="#FFFFFF" points="36.706,25.453 9.093,25.453 22.021,12.524 49.634,12.524 			"/>
			<g>
				<polygon fill="#FFFFFF" points="30.058,74.774 50.403,54.43 31.352,54.43 11.008,74.774 				"/>
				<g>
					<polygon fill="#FFFFFF" points="51.151,13.003 9.571,54.583 9.571,74.294 9.731,74.294 51.151,32.875 					"/>
				</g>
			</g>
		</g>
	</g>
	<polygon fill="#FFFFFF" points="109.408,25.453 81.795,25.453 94.723,12.524 122.336,12.524 	"/>
	<g>
		<polygon fill="#FFFFFF" points="102.76,74.774 123.105,54.43 104.054,54.43 83.71,74.774 		"/>
		<polygon fill="#FFFFFF" points="123.853,13.003 82.273,54.583 82.273,74.294 82.433,74.294 123.853,32.875 		"/>
	</g>
	<polyline fill="#FFFFFF" points="155.138,61.516 169.189,75.567 169.19,24.401 155.138,10.349 	"/>
	<polygon fill="#FFFFFF" points="170.638,54.596 170.639,75.567 184.69,61.516 184.69,40.545 	"/>
	<g>
		<polyline fill="#FFFFFF" points="215.183,61.516 201.132,75.567 201.131,24.401 215.183,10.349 		"/>
		<polygon fill="#FFFFFF" points="199.683,54.596 199.682,75.567 185.631,61.516 185.631,40.545 		"/>
	</g>
	<path fill="#F7D93E" d="M251.039,13.481c-0.002-0.038-0.004-0.075-0.006-0.112c0-0.001,0-0.002,0-0.004v-0.001
		c-0.028-0.474-0.112-0.932-0.244-1.37l0,0c0-0.001-0.001-0.001-0.001-0.002l0,0c-0.695-2.289-2.731-3.994-5.194-4.201l0.002-0.023
		c0,0-0.334,0-0.506,0c0,0-0.002,0-0.003,0c-0.021,0-0.041,0.002-0.062,0.002c-0.08,0.001-0.159,0.002-0.238,0.006
		c-0.041,0.002-0.081,0.006-0.122,0.009c-0.058,0.005-0.116,0.008-0.175,0.014c-0.045,0.004-0.088,0.011-0.133,0.017
		c-0.053,0.006-0.107,0.012-0.16,0.021c-0.045,0.006-0.09,0.015-0.136,0.023c-0.051,0.008-0.102,0.016-0.151,0.026
		c-0.047,0.01-0.092,0.021-0.139,0.03c-0.048,0.012-0.097,0.021-0.145,0.034c-0.047,0.012-0.092,0.025-0.139,0.038
		c-0.047,0.012-0.093,0.025-0.139,0.039c-0.047,0.014-0.092,0.029-0.139,0.045c-0.045,0.016-0.089,0.029-0.133,0.044
		c-0.047,0.018-0.093,0.035-0.139,0.054c-0.043,0.016-0.084,0.032-0.127,0.049c-0.025,0.012-0.051,0.022-0.076,0.033
		c-0.021,0.009-0.041,0.019-0.062,0.027c-0.039,0.019-0.08,0.036-0.119,0.055c-0.047,0.021-0.094,0.044-0.139,0.068
		c-0.038,0.019-0.076,0.037-0.113,0.058c-0.047,0.024-0.092,0.05-0.139,0.076c-0.035,0.02-0.07,0.04-0.105,0.061
		c-0.047,0.027-0.093,0.056-0.139,0.085c-0.033,0.021-0.065,0.041-0.098,0.062c-0.047,0.03-0.093,0.062-0.139,0.094
		c-0.03,0.021-0.061,0.043-0.09,0.063c-0.047,0.034-0.092,0.068-0.138,0.104c-0.028,0.021-0.056,0.043-0.083,0.065
		c-0.046,0.036-0.092,0.073-0.137,0.112c-0.025,0.021-0.049,0.043-0.074,0.063c-0.046,0.041-0.092,0.082-0.137,0.124
		c-0.021,0.021-0.043,0.04-0.064,0.062c-0.047,0.045-0.092,0.09-0.137,0.135c-0.019,0.019-0.037,0.039-0.057,0.059
		c-0.045,0.048-0.09,0.097-0.135,0.147c-0.016,0.018-0.031,0.035-0.047,0.054c-0.047,0.054-0.092,0.106-0.136,0.161
		c-0.012,0.015-0.024,0.03-0.036,0.046c-0.046,0.059-0.092,0.117-0.135,0.177c-0.009,0.012-0.017,0.023-0.025,0.034
		c-0.047,0.065-0.093,0.131-0.137,0.197c-0.004,0.006-0.007,0.011-0.01,0.017c-0.368,0.56-0.645,1.184-0.808,1.852
		c-0.034,0.14-0.063,0.282-0.087,0.426c-0.011,0.066-0.021,0.134-0.029,0.201c-0.019,0.139-0.033,0.277-0.042,0.419l0,0v0.011
		c-0.003,0.041-0.005,0.08-0.006,0.121c-0.004,0.08-0.007,0.158-0.007,0.239l0,0c0,0,0,0,0,0.001l0,0l0,0l0,0
		c0,0.077,0.003,0.153,0.006,0.229c0.001,0.023,0.001,0.047,0.002,0.07c0.001,0.02,0.003,0.039,0.005,0.06l0,0l0,0
		c0,0.015,0.002,0.028,0.003,0.043c0.004,0.064,0.008,0.131,0.015,0.194c0.004,0.04,0.011,0.08,0.015,0.12
		c0.008,0.059,0.014,0.116,0.022,0.173c0.006,0.042,0.015,0.085,0.021,0.128c0.01,0.053,0.02,0.106,0.029,0.159
		c0.009,0.044,0.02,0.088,0.029,0.131c0.012,0.052,0.022,0.103,0.035,0.152c0.012,0.045,0.023,0.089,0.036,0.133
		c0.013,0.049,0.026,0.098,0.042,0.146c0.013,0.045,0.027,0.088,0.042,0.132c0.016,0.047,0.03,0.093,0.048,0.14
		c0.016,0.044,0.033,0.088,0.05,0.133c0.017,0.044,0.034,0.089,0.052,0.133c0.02,0.045,0.039,0.089,0.058,0.133
		c0.019,0.042,0.038,0.084,0.058,0.126c0.02,0.044,0.043,0.088,0.064,0.132c0.021,0.041,0.041,0.081,0.062,0.12
		c0.023,0.044,0.048,0.088,0.072,0.131c0.021,0.038,0.043,0.076,0.065,0.114c0.025,0.044,0.053,0.088,0.08,0.131
		c0.022,0.035,0.045,0.07,0.068,0.105c0.028,0.044,0.059,0.087,0.088,0.131c0.023,0.033,0.047,0.065,0.07,0.099
		c0.031,0.043,0.063,0.087,0.096,0.129c0.023,0.031,0.049,0.062,0.072,0.092c0.035,0.043,0.069,0.086,0.105,0.128
		c0.023,0.028,0.048,0.056,0.072,0.084c0.037,0.043,0.076,0.085,0.115,0.127c0.023,0.025,0.047,0.051,0.071,0.075
		c0.042,0.043,0.083,0.085,0.125,0.127c0.022,0.021,0.046,0.044,0.069,0.065c0.045,0.043,0.09,0.085,0.137,0.126
		c0.021,0.02,0.044,0.038,0.066,0.058c0.049,0.042,0.098,0.084,0.148,0.124c0.02,0.017,0.04,0.032,0.06,0.048
		c0.054,0.043,0.108,0.085,0.163,0.125c0.017,0.012,0.033,0.024,0.051,0.035c0.06,0.044,0.119,0.086,0.182,0.126
		c0.012,0.009,0.023,0.016,0.035,0.023c0.066,0.044,0.135,0.087,0.203,0.127c0.004,0.004,0.009,0.005,0.014,0.009
		c0.785,0.466,1.689,0.757,2.654,0.818c0.004,0,0.008,0.001,0.011,0.001v0.001h0.011c0.002,0,0.003,0,0.004,0
		c0.037,0.002,0.074,0.004,0.111,0.005c0.082,0.004,0.164,0.007,0.245,0.007c0.079,0,0.157-0.003,0.235-0.006
		c0.039-0.001,0.078-0.003,0.117-0.006c0.002,0,0.006,0,0.008,0h0.002c2.953-0.178,5.324-2.506,5.571-5.44l0.024,0.004
		c0,0,0-0.338,0-0.51C251.044,13.643,251.042,13.562,251.039,13.481z M248.117,14.027c-0.004,0.026-0.008,0.053-0.01,0.079
		c-0.004,0.023-0.006,0.046-0.01,0.07c-0.004,0.025-0.009,0.051-0.013,0.077c-0.005,0.022-0.009,0.046-0.013,0.068
		c-0.006,0.025-0.011,0.051-0.017,0.077c-0.005,0.021-0.01,0.044-0.017,0.067c-0.006,0.025-0.013,0.05-0.02,0.074
		c-0.006,0.022-0.012,0.045-0.019,0.067c-0.007,0.024-0.017,0.048-0.024,0.073c-0.006,0.021-0.014,0.043-0.021,0.064
		c-0.008,0.024-0.018,0.049-0.027,0.073c-0.008,0.021-0.016,0.041-0.023,0.062c-0.011,0.024-0.021,0.048-0.031,0.072
		c-0.01,0.02-0.018,0.039-0.027,0.06c-0.012,0.023-0.023,0.048-0.035,0.072c-0.008,0.018-0.018,0.037-0.027,0.055
		c-0.014,0.024-0.026,0.049-0.039,0.072c-0.01,0.018-0.021,0.035-0.031,0.052c-0.014,0.024-0.028,0.049-0.043,0.072
		c-0.01,0.016-0.021,0.032-0.03,0.048c-0.017,0.024-0.032,0.048-0.049,0.072c-0.01,0.015-0.021,0.029-0.03,0.044
		c-0.018,0.024-0.035,0.048-0.054,0.072c-0.01,0.013-0.021,0.024-0.029,0.038c-0.021,0.025-0.04,0.049-0.061,0.073
		c-0.009,0.011-0.019,0.021-0.026,0.031c-0.022,0.026-0.045,0.052-0.068,0.077c-0.008,0.008-0.015,0.014-0.021,0.022
		c-0.025,0.026-0.052,0.054-0.078,0.08c-0.004,0.003-0.008,0.007-0.011,0.01c-0.121,0.119-0.253,0.226-0.392,0.322l0,0
		c-0.184,0.126-0.383,0.235-0.593,0.319c-0.001,0.001-0.003,0.002-0.005,0.003c-0.067,0.027-0.137,0.053-0.207,0.075
		c-0.006,0.002-0.012,0.004-0.018,0.005c-0.059,0.02-0.119,0.035-0.178,0.05c-0.017,0.005-0.031,0.009-0.047,0.013
		c-0.06,0.014-0.12,0.024-0.181,0.034c-0.025,0.005-0.052,0.009-0.077,0.013c-0.044,0.007-0.088,0.012-0.133,0.017
		c-0.018,0.001-0.036,0.003-0.055,0.005c-0.01,0-0.018,0-0.026,0.002c-0.067,0.005-0.135,0.008-0.203,0.008
		c-0.024,0-0.047-0.001-0.066-0.001c0.018,0,0.036,0.001,0.055,0.001c-0.023,0-0.047-0.001-0.069-0.001c0.004,0,0.009,0,0.015,0
		c-0.033-0.001-0.067-0.001-0.101-0.003c0,0,0.01,0,0.023,0.001c-0.111-0.005-0.223-0.016-0.332-0.031
		c-0.843-0.13-1.572-0.605-2.037-1.276h0.002c-0.213-0.305-0.371-0.651-0.461-1.023c-0.002-0.007-0.002-0.013-0.004-0.019
		c-0.017-0.07-0.031-0.143-0.043-0.215c0-0.001,0-0.002,0-0.004c-0.011-0.068-0.02-0.138-0.024-0.209
		c-0.002-0.017-0.003-0.035-0.005-0.052c-0.004-0.066-0.008-0.134-0.008-0.203c0-0.003,0-0.006,0-0.009
		c0-0.032,0.002-0.062,0.002-0.094c0.001-0.019,0.001-0.038,0.002-0.057c0.002-0.027,0.004-0.054,0.006-0.081
		c0.002-0.023,0.003-0.047,0.006-0.07c0.002-0.026,0.006-0.051,0.01-0.077c0.002-0.024,0.004-0.048,0.008-0.071
		c0.004-0.025,0.009-0.051,0.014-0.076c0.004-0.023,0.008-0.047,0.012-0.07c0.005-0.025,0.012-0.05,0.017-0.075
		c0.005-0.022,0.011-0.046,0.017-0.068c0.006-0.025,0.013-0.049,0.02-0.074c0.006-0.022,0.013-0.045,0.02-0.067
		c0.007-0.024,0.016-0.049,0.023-0.072c0.007-0.023,0.014-0.045,0.021-0.066c0.009-0.024,0.019-0.048,0.027-0.072
		c0.008-0.021,0.016-0.041,0.025-0.062c0.009-0.024,0.02-0.048,0.029-0.071c0.01-0.021,0.018-0.04,0.027-0.061
		c0.012-0.023,0.023-0.048,0.035-0.071c0.01-0.019,0.02-0.037,0.029-0.056c0.012-0.024,0.025-0.049,0.039-0.072
		c0.01-0.018,0.02-0.034,0.029-0.052c0.014-0.024,0.028-0.049,0.043-0.072c0.011-0.016,0.021-0.031,0.031-0.047
		c0.016-0.025,0.031-0.049,0.049-0.073c0.01-0.014,0.02-0.027,0.029-0.042c0.018-0.024,0.036-0.05,0.055-0.074
		c0.01-0.013,0.02-0.024,0.029-0.036c0.02-0.025,0.039-0.051,0.061-0.076c0.008-0.01,0.017-0.02,0.025-0.028
		c0.023-0.027,0.045-0.053,0.069-0.079c0.007-0.007,0.013-0.013,0.02-0.021c0.026-0.027,0.053-0.055,0.08-0.082
		c0.003-0.003,0.005-0.006,0.009-0.008c0.494-0.483,1.154-0.8,1.886-0.856l0,0c0.027-0.003,0.055-0.005,0.082-0.006
		c0.023-0.002,0.048-0.002,0.071-0.003c0.029,0,0.058-0.002,0.087-0.002c0.023,0,0.046,0.002,0.069,0.002
		c0.028,0.001,0.057,0.001,0.085,0.003v-0.001c0.017,0.001,0.034,0.003,0.05,0.004c0.033,0.002,0.066,0.004,0.1,0.008
		c0.021,0.001,0.041,0.005,0.061,0.007c0.029,0.004,0.059,0.008,0.088,0.012c0.022,0.003,0.044,0.007,0.064,0.011
		c0.027,0.005,0.055,0.009,0.082,0.015c0.023,0.005,0.045,0.01,0.067,0.015c0.025,0.005,0.051,0.011,0.077,0.018
		c0.022,0.006,0.045,0.012,0.067,0.018c0.024,0.008,0.049,0.014,0.073,0.021c0.023,0.007,0.046,0.015,0.068,0.021
		c0.023,0.008,0.047,0.016,0.07,0.024c0.022,0.008,0.045,0.017,0.067,0.025c0.022,0.008,0.046,0.018,0.067,0.026
		c0.022,0.009,0.045,0.02,0.068,0.029c0.021,0.01,0.041,0.019,0.062,0.028c0.023,0.012,0.047,0.021,0.068,0.033
		c0.02,0.01,0.04,0.021,0.06,0.03c0.023,0.012,0.046,0.024,0.069,0.037c0.019,0.011,0.037,0.021,0.055,0.032
		c0.023,0.014,0.047,0.027,0.07,0.042c0.016,0.011,0.033,0.021,0.049,0.031c0.023,0.016,0.047,0.031,0.07,0.048
		c0.016,0.01,0.03,0.021,0.045,0.031c0.024,0.018,0.049,0.036,0.072,0.053c0.013,0.011,0.025,0.021,0.037,0.03
		c0.025,0.021,0.051,0.04,0.074,0.06c0.011,0.01,0.021,0.019,0.031,0.027c0.025,0.022,0.052,0.045,0.076,0.068
		c0.008,0.006,0.016,0.014,0.022,0.021c0.027,0.025,0.056,0.052,0.081,0.078c0.004,0.004,0.006,0.007,0.01,0.01
		c0.117,0.122,0.226,0.253,0.322,0.393h-0.001c0.127,0.184,0.234,0.381,0.319,0.59c0.002,0.003,0.004,0.007,0.005,0.011
		c0.026,0.066,0.052,0.134,0.073,0.202c0.004,0.009,0.006,0.017,0.008,0.025c0.018,0.056,0.033,0.111,0.047,0.169
		c0.006,0.018,0.01,0.035,0.014,0.054c0.014,0.058,0.024,0.116,0.035,0.175c0.004,0.027,0.008,0.055,0.012,0.082
		c0.006,0.041,0.01,0.082,0.015,0.122c0.003,0.021,0.005,0.042,0.007,0.063c0.001,0.009,0.001,0.019,0.002,0.028
		c0.004,0.067,0.008,0.135,0.008,0.203c0,0.002,0,0.003,0,0.005c0,0,0,0.003,0,0.005c0,0.051-0.002,0.102-0.004,0.154l0,0
		c-0.001,0.025-0.004,0.052-0.006,0.078C248.119,13.982,248.119,14.004,248.117,14.027z"/>
	<path fill="#F7D93E" d="M239.375,16.248c-0.484,0.327-1.068,0.521-1.697,0.521c-1.682,0-3.045-1.362-3.045-3.043
		c0-1.682,1.363-3.045,3.045-3.045c0.629,0,1.213,0.191,1.697,0.519V8.014c-0.538-0.16-1.107-0.247-1.697-0.247
		c-3.291,0-5.958,2.668-5.958,5.958c0,3.165,2.47,5.753,5.587,5.945v0.001h0.011c0.118,0.007,0.239,0.012,0.36,0.012
		s0.241-0.005,0.359-0.012h1.338V16.248z"/>
	<path fill="#F7D93E" d="M251.896,13.776c0,0.01,0.001,0.021,0.001,0.031c0,1.142,0,1.943,0,1.943v0.285v0.691
		c0,0-0.075,2.553,2.607,2.853v-2.11v-3.703c0,0,0.002-0.16-0.024-0.428c0.034-0.134,0.073-0.266,0.116-0.396
		c0.314-0.906,1.288-2.845,3.72-2.068c0.308,0.112,0.568,0.26,0.787,0.43v0.027c0.953,0.763,1.113,1.949,1.134,2.477
		c0,1.142,0,1.943,0,1.943v0.977c0,0-0.075,2.553,2.607,2.853v-2.11v-3.703c0,0,0.001-0.16-0.024-0.428
		c0.034-0.134,0.072-0.266,0.116-0.396c0.314-0.906,1.289-2.845,3.72-2.068c1.69,0.617,1.929,2.281,1.956,2.934
		c0,1.142,0,1.943,0,1.943v0.977c0,0-0.076,2.553,2.605,2.853v-2.11v-3.703c0,0,0.054-4.418-4.148-5.694
		c-2.189-0.665-4.277,0.411-5.504,1.947c-0.544-0.716-1.321-1.37-2.428-1.795c-0.128-0.058-0.264-0.109-0.407-0.152
		c-0.976-0.297-1.93-0.247-2.798,0.034c-1.188,0.479-2.026,1.124-2.62,1.808c-0.029,0.035-0.059,0.069-0.087,0.105
		c0-0.001,0-0.001-0.001-0.002C251.854,11.673,251.884,13.518,251.896,13.776z"/>
	<circle fill="#F7D93E" cx="230.141" cy="18.106" r="1.578"/>
</g>
</svg>
