<?xml version="1.0" encoding="utf-8"?>
<!-- Generator: Adobe Illustrator 24.0.2, SVG Export Plug-In . SVG Version: 6.00 Build 0)  -->
<svg version="1.1" id="Layer_1" xmlns="http://www.w3.org/2000/svg" xmlns:xlink="http://www.w3.org/1999/xlink" x="0px" y="0px"
	 width="207px" height="62px" viewBox="0 0 280 84" style="enable-background:new 0 0 280 84;" xml:space="preserve">
<style type="text/css">
	.st0{fill:#FFFFFF;}
</style>
<g>
	<g>
		<path class="st0" d="M70.8,19.6c0,1.6-1.1,2.8-2.8,2.8c-1.5,0-2.8-1.1-2.8-2.8c0-1.6,1.1-2.8,2.8-2.8S70.8,17.9,70.8,19.6z
			 M65.5,19.6c0,1.3,1,2.3,2.3,2.3c1.3,0,2.3-1,2.3-2.3s-1-2.3-2.3-2.3C66.7,17.1,65.5,18.1,65.5,19.6z M67.5,21h-0.3v-3.3h1.1
			c0.7,0,1,0.3,1,0.8s-0.3,0.8-0.8,0.8l1,1.5H69l-0.8-1.5h-0.7L67.5,21L67.5,21z M68,19.4c0.5,0,1,0,1-0.5s-0.3-0.5-0.8-0.5h-0.7
			v1.1L68,19.4L68,19.4z"/>
	</g>
	<g>
		<path class="st0" d="M33.1,72.6c0.5,0,1,0.2,1.5,0.2c1.1-1.5,3.4-5.4,4.3-13.8l-2.5-0.2c-1,9.8-4.1,12.9-4.1,12.9L33.1,72.6
			L33.1,72.6z"/>
		<path class="st0" d="M39.3,66.4c0,2,0,4.3-0.2,6.5c0.8,0,1.8,0,2.6-0.2c0-1.1,0.3-7-0.2-14.1L39,58.9C39.3,62,39.3,64.4,39.3,66.4
			z"/>
		<g>
			<path class="st0" d="M37.1,74.6C19.2,74.6,4.5,60,4.5,42S19,9.4,37.1,9.4S69.6,24,69.6,42S55.1,74.6,37.1,74.6z M37.1,11.9
				C20.5,11.9,6.9,25.5,6.9,42s13.4,30.1,30.1,30.1S67.2,58.5,67.2,42S53.8,11.9,37.1,11.9z"/>
		</g>
		<path class="st0" d="M37.1,42"/>
		<path class="st0" d="M24.6,19.6"/>
		<path class="st0" d="M14.5,54.4c0-0.8,0.3-1.6,1-2.3c0,0-0.2,0-0.2-0.2l0,0c-2.8-1.8-3.1-3.4-2.8-6.1c0.2-1.1-0.2-2.5-0.3-3.8
			c-0.7-3.1-0.8-5.2,1.3-6.4c0.3-0.2,0.7-0.3,1.1-0.5c-0.5-0.8-0.8-1.6-1-2.3c-0.5,0.2-0.8,0.3-1.3,0.5c-4.1,2-3.3,6.1-2.8,9.2l0,0
			c0.2,1.1,0.5,2.1,0.3,2.9c-0.5,3.4,0,5.9,3.8,8.5C13.8,54.1,14.3,54.3,14.5,54.4L14.5,54.4z"/>
		<path class="st0" d="M25.9,19.6c0.3,0,0.7,0.3,1.3,0.8c0.5-1,1.3-1.8,2.3-2.5c0.3-0.2,2.1-0.8,3.8-0.5c2,0.5,3.3,0,4.4-0.3l0,0
			c0.5-0.2,1-0.3,1.6-0.3c0.5,0,1.6,0,2.8,1.1c0.5,0.5,1,1,1.3,1.8c0.8-0.5,1.6-0.8,2.3-1c-0.5-1.1-1.1-2-1.8-2.6l0,0l0,0
			c-1.6-1.6-3.6-2-4.9-1.8c-0.8,0.2-1.5,0.3-2,0.5c-1.1,0.3-1.8,0.5-3.1,0.3c-2.9-0.7-5.6,0.7-5.7,0.7c0,0,0,0-0.2,0
			c-1.8,1-2.9,2.5-3.8,4.4C25.1,19.7,25.6,19.6,25.9,19.6z"/>
		<path class="st0" d="M64.2,42c-2.1-4.7,0.5-5.1-0.8-8.7c-0.3-0.7-0.8-1.3-1.5-2l0,0c-0.7-0.7-1.5-1.1-2.6-1.6
			c-0.3,0.7-0.7,1.5-1.1,2.3c0.8,0.2,1.5,0.7,2,1.1c1.6,1.5,1.6,3.6,1.3,4.7c-0.5,1.8,0,3.1,0.5,4.4c0.7,1.6,1.1,2.9-1,5.2
			c-0.3,0.3-0.8,0.8-1.6,1.3c0.7,1.3,1.1,2.3,1.1,2.3c1-0.5,1.6-1.1,2.5-2c0.7-0.8,1.5-1.8,1.8-3.1C65.1,44.9,65.1,43.5,64.2,42z"/>
		<g>
			<path class="st0" d="M42.1,32.8c-2.3-0.5-5.6,0.2-7,2c-0.2,0.3-0.5,0.7-0.7,1C33.8,35,33,34.1,32,33.6c-1-0.5-2-0.5-2.8-0.2
				c-1,0.3-1.8,1.1-2.1,2.1c-0.8,2.1,0.3,4.9,1.5,6.9c0.8,1.5,1.8,2.3,2.9,2.8c-1.1,0.7-1.8,1.3-2.1,2.1C29,48.2,29,49,29.5,49.9
				s1.5,1.3,2.8,1.5c2.3,0.3,5.6-0.3,7.5-2.1c0.3-0.3,0.7-0.7,0.8-1c0.8,1.1,2.1,2,3.4,1.5c1.5-0.5,2.3-2.3,2.3-4.6
				c0-0.2,0-0.3,0-0.5c-0.2-2.3-1.3-5.1-3.9-6.2c1.8-1.1,2.3-2.3,2.3-3.3c0-0.3,0-0.5-0.2-0.7C44.3,33.8,43.6,33.2,42.1,32.8z
				 M38.2,47.9c-1.3,1.3-3.9,1.8-5.6,1.6c-0.8-0.2-1.1-0.3-1.1-0.5c-0.2-0.2-0.2-0.5,0-0.7c0.3-0.7,1.5-1.5,3.9-2.3h0.2
				c0.5,0.2,1,0.3,1.5,0.3c0.7,0,1.5-0.2,2-0.5C39,46.4,39,47.2,38.2,47.9z M44.3,44.9c0.2,1.6-0.5,2.8-0.8,2.8
				c-0.7,0.2-2-1.6-2.6-3.6c0.3-0.7,0.5-1.3,0.5-2.1c0-0.7-0.2-1.3-0.3-1.8C42.3,40.7,43.9,41.8,44.3,44.9z M39,42
				c0,1.1-1,2.1-2.1,2.1s-2.1-1-2.1-2.1c0-1.1,1-2.1,2.1-2.1C38.2,39.9,39,40.9,39,42z M33.8,39.1c-0.7,0.8-1.3,1.8-1.3,2.9
				c0,0.7,0.2,1.1,0.3,1.6c-0.8-0.3-1.8-0.8-2.5-2.1c-1.1-2.1-1.8-4.1-1.3-5.1c0.2-0.3,0.3-0.7,0.8-0.8c0.2-0.2,0.5-0.2,1.1,0.2
				C32.1,36.3,33.3,37.9,33.8,39.1z M42.6,35.3c0.2,0.8-2,2.1-3.6,2.8c0,0-0.2,0-0.2,0.2c-0.7-0.3-1.3-0.5-2-0.5c-0.2,0-0.5,0-0.7,0
				c-0.2-1,0.2-1.8,1.3-2.3C39.7,34.3,42.3,34.8,42.6,35.3z"/>
			<path class="st0" d="M41.8,18.9c-2.3,1.8-3.8,4.3-4.6,5.6c-0.7-0.3-1.5-0.5-2.3-0.5c-0.7,0-1.3,0.2-1.8,0.5
				c-1.1-1.8-3.8-4.7-7.4-6.1c-4.3-1.5-6.5,2-8.4,4.6l0,0c-0.7,1-1.3,1.8-1.8,2.3c-2.8,2.1-4.3,4.3-3.3,8.7c0.3,1.5,1.6,4.4,7.4,7.5
				c-0.3,0.7-0.3,1.3-0.3,2v0.2c0,0.7,0.2,1.3,0.5,2.1c-3.1,1.8-6.5,4.9-6.2,9c0.2,3.3,2.8,5.7,4.1,6.4c1.1,0.5,2,1.5,2.1,1.8
				c1,1.6,2.5,2.9,4.3,3.6c2,0.8,4.3,0.8,6.4-0.2c3.3-1.5,5.6-5.4,6.5-7.2c0.3,0.2,0.8,0.3,1.1,0.3c0.8,0.2,1.5,0.2,2.3,0
				c0.5,0.7,1.1,1.6,2,2.6c2.3,2.3,5.1,3.4,8,3.3c1.1,0,2.3-0.3,3.4-0.8c1-0.7,2-1.8,2.6-3.3c1.8-4.9,3.9-3.1,5.6-6.7
				c0.2-0.7,0.3-1.5,0.3-2.5l0,0c-0.2-2.6-1.6-6.2-8.4-9.7c0.5-0.7,0.7-1.5,0.7-2.5c0-0.2,0-0.5,0-0.7c0-0.2,0-0.5-0.2-0.7
				c4.9-4.1,6.1-7.7,6.1-10c0,0,0,0,0-0.2c0,0,0,0,0-0.2c0-2.5-1.3-4.1-2.3-4.7c-0.7-0.5-1.3-0.8-1.8-1c-1-0.5-1.8-1-2.5-2
				c-1.5-2.5-4.3-3.4-4.3-3.4h-0.2C46.9,16.6,44.3,17.1,41.8,18.9z M17.4,37.3c-1.6-1.3-2.6-2.5-2.8-3.6l0,0
				c-0.7-3.3,0.2-4.6,2.5-6.2c0.8-0.7,1.6-1.8,2.5-2.9c1.8-2.6,3.1-4.3,5.4-3.6c3.1,1.1,5.2,3.9,6.2,5.1c-1.1,1.1-2,2.5-2.6,3.6
				c-0.2-0.2-0.5-0.3-0.7-0.3c-1-0.5-2.3-0.3-3.6,0.3c0,0-0.2,0-0.2,0.2c-1.6,1.3-2.6,3.3-2.6,5.7c0,1.5,0.3,2.9,0.7,4.1
				c-0.2,0-0.5,0.2-0.7,0.2C20.7,39.4,19,38.4,17.4,37.3z M29,64.1L29,64.1c-3.1,1.3-5.9-0.3-7.4-2.6c0,0,0,0,0-0.2
				c0,0-1.3-1.8-3.3-2.6c-0.5-0.2-2.5-1.8-2.6-4.3c-0.2-2.3,1.6-4.6,5.1-6.7c0.5,0.7,1.1,1.1,2,1.8c0.5,0.5,1.1,0.8,1.8,1.3
				c-0.3,0.7-0.5,1.3-0.5,2c0,2,1.5,3.6,3.8,4.3c2.3,0.5,4.9,0,6.7-0.7c0,0.3,0.2,0.5,0.2,0.8c0,0,0,0,0,0.2
				C34.8,57.4,32.5,62.6,29,64.1z M59.6,52.3c0,2.1-1.3,3.8-2.5,4.3c-1.6,0.8-2.3,2.1-2.8,3.4c-0.7,1.6-1.3,2.8-4.4,2.9
				c-1.3,0.2-4.7-0.2-7.7-4.4c1.5-1.1,2.5-2.9,3.3-4.1c0.8,0.5,1.8,0.7,2.9,0.5c0.2,0,0.2,0,0.2,0c1.5-0.7,3.3-2.1,3.3-5.9l0,0
				c0-1.6-0.3-3.4-0.7-4.6l0,0C56.7,46.6,59.6,49.4,59.6,52.3z M52,39.7c0,0.2,0,0.3,0,0.3c0,0.7-0.3,1.1-1,1.5
				c-0.2,0-0.2,0-0.3,0.2c-0.3,0.3-1,0.3-1,0.3c-0.5,0-0.8,0.2-1,0.5c-0.2,0.3-0.3,0.8-0.2,1.1c0,0.2,1,2.6,1,5.1
				c0,1.8-0.5,2.9-1.6,3.4c-1,0.2-1.3-0.3-1.3-0.7c-0.2-0.5-0.7-1-1.1-1c-0.5,0-1.1,0.3-1.3,0.8c0,0-1.6,4.3-3.9,5.6
				c-0.7,0.3-1.1,0.3-1.8,0.3v0.2v-0.2l0,0c-0.7-0.2-1.3-0.3-1.3-1.6c0-0.3,0-0.7,0-0.7c0.2-0.5,0-1-0.5-1.3
				c-0.3-0.3-0.8-0.3-1.3-0.2c-0.5,0.2-4.3,1.8-6.9,1.1c-1.1-0.3-1.6-0.8-1.6-1.6c0-0.5,0.3-1,0.7-1.3c0.3-0.3,0.7-0.7,0.7-1.1
				c0-0.5-0.3-0.8-0.8-1.1c-0.8-0.3-2.3-1.1-3.4-2.1c-1-0.8-2.1-2.1-2.1-3.4v-0.2c0-0.8,0.2-1.3,0.5-1.6c0.3-0.2,1-0.2,1.3,0
				c0.5,0.2,1,0,1.5-0.3c0.3-0.3,0.5-1,0.2-1.5c-0.2-0.3-1.1-2.6-1.1-4.9c0-1.6,0.5-2.9,1.5-3.8c0.5-0.3,1-0.3,1.3-0.2
				c0.5,0.2,0.7,0.8,0.7,0.8c0.2,0.5,0.7,0.8,1.1,0.8c0.5,0,1-0.3,1.3-0.8c0.3-0.7,1-2.1,2-3.4c0.8-1,2-2.3,3.3-2.5
				c0.7,0,1.1,0,1.3,0.3c0.5,0.3,0.5,1.1,0.5,1.6c0,0.3,0,0.5,0,0.5c0,0.5,0.2,1,0.5,1.1c0.3,0.3,0.8,0.3,1.3,0.2
				c1.3-0.7,5.2-2,7.2-0.7c0.7,0.5,0.8,0.8,0.8,1.1c0,0.8-0.7,1.6-0.8,2l0,0c-0.3,0.2-0.5,0.7-0.5,1c0,0.5,0.2,0.8,0.7,1.1
				c0.2,0,0.2,0.2,0.3,0.2C47.2,35.5,51.8,37.4,52,39.7z M48.8,19.7c0.3,0.2,2.1,0.8,2.9,2.5c1,1.6,2.3,2.3,3.4,2.9l0,0
				c0.5,0.3,1,0.5,1.3,0.8s1.1,1.3,1.1,2.8c0,1.6-0.8,4.4-4.7,7.7c-0.7-0.8-1.5-1.5-2.6-2.1c-0.7-0.3-1.3-0.7-2-1
				c0.5-0.8,0.7-1.8,0.7-2.5c0-1-0.3-2.3-2-3.3c-2.5-1.5-5.9-0.8-8-0.2c0-0.3-0.2-0.7-0.2-0.8c0.3-0.8,1.5-2.9,3.1-4.6
				C44.3,19.9,46.4,19.1,48.8,19.7z"/>
		</g>
	</g>
</g>
<g>
	<g>
		<path class="st0" d="M77.6,30.4v-7.2H102L87.3,53.6h14.2v7.2h-26l14.7-30.5C90,30.4,77.6,30.4,77.6,30.4z"/>
		<path class="st0" d="M120.5,52.9l5.8,2.9c0,0.2-0.2,0.4-0.4,0.6c-0.2,0.2-0.6,0.8-1.2,1.4c-0.6,0.6-1.4,1.2-1.9,1.7
			c-0.8,0.6-1.7,1-2.9,1.4c-1.2,0.4-2.5,0.6-3.9,0.6c-3.5,0-6.4-1.2-8.7-3.3c-2.3-2.1-3.5-5-3.5-8.5s1.2-6.4,3.5-8.5
			c2.3-2.1,5.2-3.3,8.5-3.3c3.5,0,6.2,1.2,8.3,3.3c2.1,2.1,3.3,5,3.3,8.5l-15.9,3.1c1,1.7,2.5,2.5,4.5,2.5c1,0,1.7-0.2,2.5-0.6
			c0.8-0.4,1.2-0.8,1.4-1.2L120.5,52.9z M116.2,43.7c-1.2,0-2.1,0.4-3.1,1c-0.8,0.8-1.4,1.7-1.7,2.9l8.7-1.7
			C119.3,44.5,117.8,43.7,116.2,43.7z"/>
		<path class="st0" d="M131.4,30.4v-7.2h24.5l-14.7,30.5h14.2v7.2h-25.8l14.7-30.5C144,30.4,131.4,30.4,131.4,30.4z"/>
		<path class="st0" d="M183.4,38.1v22.5h-6.6v-1.6c-0.2,0.2-0.4,0.4-0.8,0.6c-0.4,0.2-1,0.6-2.1,1s-2.3,0.6-3.7,0.6
			c-3.3,0-5.8-1.2-8-3.3c-1.9-2.1-2.9-4.9-2.9-8.5c0-3.5,1-6.4,3.1-8.5c2.1-2.1,4.7-3.3,8-3.3c1.4,0,2.5,0.2,3.5,0.6
			c1.2,0.4,1.9,0.8,2.3,1l0.8,0.4v-1.6L183.4,38.1L183.4,38.1z M167.6,45.7c-1,1-1.4,2.1-1.4,3.7s0.4,2.9,1.4,3.7
			c1,0.8,2.1,1.4,3.5,1.4c1.4,0,2.7-0.4,3.5-1.4c0.8-1,1.4-2.1,1.4-3.7s-0.4-2.9-1.4-3.7c-1-1-2.1-1.4-3.5-1.4
			C170,44.3,168.6,44.7,167.6,45.7z"/>
		<path class="st0" d="M234.4,23.2l-15.9,39.2l-8.2-20.8l-8.2,20.8l-15.9-39.2h8.5l7.4,19.2l8.2-20.8l8.2,21l7.4-19.2L234.4,23.2
			L234.4,23.2z"/>
		<path class="st0" d="M255.2,38.1v22.5h-6.6v-1.6c-0.2,0.2-0.4,0.4-0.8,0.6c-0.4,0.2-1,0.6-2.1,1s-2.3,0.6-3.7,0.6
			c-3.3,0-5.8-1.2-8-3.3c-2.1-2.1-3.1-5-3.1-8.5c0-3.5,1-6.4,3.1-8.5c2.1-2.1,4.7-3.3,8-3.3c1.4,0,2.5,0.2,3.5,0.6
			c1.2,0.4,1.9,0.8,2.3,1l0.8,0.4v-1.6h6.6V38.1z M239.6,45.7c-1,1-1.4,2.1-1.4,3.7s0.4,2.9,1.4,3.7c1,0.8,2.1,1.4,3.5,1.4
			s2.7-0.4,3.5-1.4c0.8-1,1.4-2.1,1.4-3.7s-0.4-2.9-1.4-3.7c-1-1-2.1-1.4-3.5-1.4C242,44.3,240.6,44.7,239.6,45.7z"/>
		<path class="st0" d="M274.2,37.7v7.2h-0.6c-1.6,0-2.7,0.4-3.7,1.4c-1,1-1.4,2.3-1.4,4.1v10.5h-7V38.1h6.6v1.7
			C269.7,38.3,271.8,37.7,274.2,37.7z"/>
	</g>
	<g>
		<path class="st0" d="M237.5,31.7c-0.4-0.4-0.6-0.8-0.6-1.2c0-0.4,0.2-1,0.6-1.2c0.4-0.4,0.8-0.6,1.2-0.6s1,0.2,1.2,0.6
			c0.4,0.4,0.6,0.8,0.6,1.2c0,0.4-0.2,1-0.6,1.2c-0.4,0.4-0.8,0.6-1.2,0.6S237.7,32.1,237.5,31.7z"/>
		<path class="st0" d="M242.9,30.9c-1-0.8-1.4-1.9-1.4-3.3s0.4-2.5,1.4-3.3c1-0.8,1.9-1.4,3.3-1.4c0.6,0,1.2,0.2,1.7,0.4
			c0.6,0.2,1,0.4,1.2,0.6l0.4,0.4l-1.6,2.1l-0.2-0.2c0,0-0.2-0.2-0.6-0.4s-0.6-0.2-1-0.2c-0.6,0-1,0.2-1.4,0.6
			c-0.4,0.4-0.6,0.8-0.6,1.6s0.2,1.2,0.6,1.6c0.4,0.4,0.8,0.6,1.4,0.6c0.4,0,0.6,0,1-0.2c0.4-0.2,0.4-0.2,0.6-0.4l0.2-0.2l1.6,2.1
			c0,0,0,0-0.2,0.2c0,0-0.2,0.2-0.4,0.4c-0.2,0.2-0.4,0.2-0.6,0.4c-0.2,0.2-0.6,0.2-1,0.4c-0.4,0-0.8,0.2-1.2,0.2
			C244.9,32.3,243.9,31.9,242.9,30.9z"/>
		<path class="st0" d="M258.3,30.9c-1,0.8-1.9,1.4-3.3,1.4c-1.4,0-2.5-0.4-3.3-1.4c-1-0.8-1.4-1.9-1.4-3.3s0.4-2.5,1.4-3.3
			c1-0.8,1.9-1.4,3.3-1.4c1.4,0,2.5,0.4,3.3,1.4c0.8,1,1.4,1.9,1.4,3.3S259,30.2,258.3,30.9z M253.6,29.2c0.4,0.4,0.8,0.6,1.4,0.6
			c0.6,0,1-0.2,1.4-0.6c0.4-0.4,0.6-0.8,0.6-1.4s-0.2-1-0.6-1.4c-0.4-0.4-0.8-0.6-1.4-0.6c-0.6,0-1,0.2-1.4,0.6
			c-0.4,0.4-0.6,0.8-0.6,1.4S253,28.8,253.6,29.2z"/>
		<path class="st0" d="M269.3,27.3v4.9h-2.7v-5c0-1-0.4-1.4-1-1.4c-0.4,0-0.8,0.2-1,0.4c-0.2,0.4-0.4,0.8-0.4,1.2v4.9h-2.5v-8.7h2.5
			V24c0.6-0.6,1.4-0.8,2.1-0.8c1.2,0,1.9,0.4,2.5,1.2c0.6-0.8,1.6-1.2,2.5-1.2c1,0,1.7,0.4,2.3,1s0.8,1.6,0.8,2.7v5.4h-2.7v-5
			c0-1-0.4-1.4-1-1.4c-0.4,0-0.8,0.2-1,0.4C269.5,26.5,269.3,26.9,269.3,27.3z"/>
	</g>
</g>
</svg>
