<?xml version="1.0" encoding="utf-8"?>
<!-- Generator: Adobe Illustrator 24.0.2, SVG Export Plug-In . SVG Version: 6.00 Build 0)  -->
<svg version="1.1" id="Layer_1" xmlns="http://www.w3.org/2000/svg" xmlns:xlink="http://www.w3.org/1999/xlink" x="0px" y="0px"
	 viewBox="0 0 1024 150" style="enable-background:new 0 0 1024 150;" xml:space="preserve">
<style type="text/css">
	.st0{fill:#FFFFFF;}
	.st1{opacity:0.5;fill:#FF4438;enable-background:new    ;}
	.st2{opacity:0.36;fill:#B5B5B5;enable-background:new    ;}
	.st3{fill:#F0CF69;}
	.st4{opacity:0.54;}
	.st5{opacity:0.51;fill:#F0CF69;enable-background:new    ;}
	.st6{fill:#F08699;}
	.st7{fill:#94D1F0;}
	.st8{fill:#D9AA8B;}
	.st9{fill:#E0B79B;}
	.st10{opacity:0.24;fill:#D3B59D;enable-background:new    ;}
	.st11{opacity:0.43;fill:#D3B59D;enable-background:new    ;}
	.st12{fill:#FFA7B7;}
	.st13{fill:#424242;}
	.st14{opacity:0.5;fill:#424242;enable-background:new    ;}
	.st15{fill:#A6A6A6;}
	.st16{opacity:0.57;fill:#A6A6A6;enable-background:new    ;}
	.st17{opacity:0.41;fill:#424242;enable-background:new    ;}
	.st18{fill:#FF4438;}
	.st19{fill:none;}
	.st20{font-family:'Montserrat-Bold';}
	.st21{font-size:1.5296px;}
	.st22{font-family:'Montserrat-Regular';}
	.st23{opacity:0.39;fill:#E6E6E6;enable-background:new    ;}
	.st24{fill:#164185;}
	.st25{font-family:'ArialMT';}
	.st26{font-size:3.475px;}
	.st27{opacity:0.17;fill:#E6E6E6;enable-background:new    ;}
	.st28{opacity:0.56;fill:#E6E6E6;enable-background:new    ;}
	.st29{opacity:0.29;}
	.st30{opacity:0.26;}
	.st31{fill:#5B9ABA;}
	.st32{opacity:0.25;}
	.st33{fill:#72C0E8;}
	.st34{fill:#69B1D6;}
	.st35{opacity:0.31;fill:#5B9ABA;enable-background:new    ;}
	.st36{font-size:2.053px;}
	.st37{fill:#FD9CA7;}
	.st38{fill:#381706;}
	.st39{fill:#FFC09F;}
	.st40{opacity:0.49;fill:#FFC09F;enable-background:new    ;}
	.st41{opacity:0.38;fill:#A6A6A6;enable-background:new    ;}
	.st42{opacity:0.71;fill:#A6A6A6;enable-background:new    ;}
	.st43{opacity:0.58;fill:#FFC09F;enable-background:new    ;}
	.st44{opacity:0.46;fill:#164185;enable-background:new    ;}
	.st45{opacity:0.19;fill:#164185;enable-background:new    ;}
	.st46{opacity:0.58;}
	.st47{fill:#E36A7B;}
	.st48{opacity:0.17;fill:#FE8898;enable-background:new    ;}
	.st49{opacity:0.5;}
	.st50{fill:#FE8898;}
	.st51{opacity:0.42;fill:#FE7A8B;enable-background:new    ;}
	.st52{opacity:0.19;}
	.st53{fill:#FE7A8B;}
	.st54{opacity:0.28;}
	.st55{fill:#67B8E0;}
	.st56{fill:#7FCAF0;}
	.st57{opacity:0.19;fill:#94D1F0;enable-background:new    ;}
	.st58{fill:#5C2B13;}
	.st59{fill:#B29A4F;}
	.st60{fill:#D5B85D;}
	.st61{opacity:0.1;fill:#F0CF69;enable-background:new    ;}
	.st62{font-family:'RelishPro-Regular6';}
	.st63{font-size:5.404px;}
	.st64{font-size:5.3834px;}
	.st65{font-size:2.0968px;}
</style>
<g id="BACKGROUND">
	<rect y="25" class="st0" width="1024" height="100"/>
</g>
<g id="OBJECTS">
	<rect y="49.8" class="st1" width="1057.3" height="50"/>
	<g>
		<ellipse class="st2" cx="803" cy="142.4" rx="63.4" ry="7.7"/>
		<g>
			<g>
				<g>
					<path class="st3" d="M739.3,125.8c-0.5-0.8-1.1-1.6-2-2s-2.1-0.1-2.4,0.9c-0.2,0.7,0.2,1.4,0.4,2c0.2,0.7,0.2,1.6-0.5,1.8
						c-0.8,0.2-1.4-0.7-1.6-1.5c-0.7-2-1.8-3.8-3.1-5.5c-0.6-0.7-1.3-1.4-2.2-1.6s-2,0.5-1.9,1.4c0.1,0.8,0.9,1.5,0.6,2.3
						c-0.2,0.5-0.9,0.6-1.3,0.4s-0.8-0.6-1.2-1c-1.3-1.5-2.7-3-4.6-3.6c-1.9-0.5-4.4,0.5-4.6,2.4c-0.2,1.4,1,2.9,2.4,3
						c-1.2,0.2-1.8,1.6-1.4,2.7c0.4,1.1,1.5,1.9,2.6,2.1c1.1,0.3,2.3,0.2,3.5,0.1c0.7,0,1.4-0.1,1.9,0.3c0.6,0.3,0.9,1.1,0.5,1.7
						c-0.2,0.3-0.6,0.4-0.9,0.7c-0.8,0.6-0.9,1.9-0.4,2.8c0.5,0.9,1.4,1.5,2.3,1.9c2.1,0.9,4.6,1.2,6.9,0.6c0.5-0.1,0.9-0.2,1.4-0.2
						c0.5,0.1,0.9,0.5,0.9,0.9c0,0.3-0.2,0.6-0.3,0.9c-0.1,0.8,1.1,1.1,2,1l0,0c2.5-0.2,4.9-0.4,7.4-0.6c1.8-0.1,4.9,0.2,3.5-2.3
						C744.9,133.6,742,129.8,739.3,125.8z"/>
				</g>
				<g class="st4">
					<g>
						<path class="st3" d="M736.1,128.1c0.7-0.2,0.7-1.1,0.5-1.8c-0.2-0.7-0.6-1.3-0.4-2c0.1-0.2,0.2-0.4,0.3-0.5
							c-0.7,0-1.3,0.4-1.5,1c-0.2,0.7,0.2,1.4,0.4,2c0.1,0.4,0.2,0.9,0,1.3C735.6,128.1,735.8,128.2,736.1,128.1z"/>
					</g>
					<g>
						<path class="st3" d="M745.1,139.5c-2.5,0.2-4.9,0.4-7.4,0.6c-0.8,0.1-2-0.2-2-1c0-0.3,0.3-0.6,0.3-0.9c0-0.5-0.4-0.9-0.9-0.9
							c-0.5-0.1-0.9,0.1-1.4,0.2c-2.3,0.5-4.7,0.3-6.9-0.6c-0.9-0.4-1.8-1-2.3-1.9s-0.4-2.1,0.4-2.8c0.3-0.2,0.6-0.4,0.9-0.7
							c0.4-0.5,0-1.4-0.5-1.7c-0.6-0.3-1.3-0.3-1.9-0.3c-1.2,0.1-2.4,0.2-3.5-0.1s-2.3-1-2.6-2.1c-0.4-1.1,0.3-2.6,1.4-2.7
							c-1.4-0.1-2.7-1.6-2.4-3c0.1-0.8,0.7-1.5,1.4-2c-1.3,0.3-2.4,1.2-2.5,2.4c-0.2,1.4,1,2.9,2.4,3c-1.2,0.2-1.8,1.6-1.4,2.7
							c0.4,1.1,1.5,1.9,2.6,2.1c1.1,0.3,2.3,0.2,3.5,0.1c0.7,0,1.4-0.1,1.9,0.3c0.6,0.3,0.9,1.1,0.5,1.7c-0.2,0.3-0.6,0.4-0.9,0.7
							c-0.8,0.6-0.9,1.9-0.4,2.8c0.5,0.9,1.4,1.5,2.3,1.9c2.1,0.9,4.6,1.2,6.9,0.6c0.5-0.1,0.9-0.2,1.4-0.2c0.5,0.1,0.9,0.5,0.9,0.9
							c0,0.3-0.2,0.6-0.3,0.9c-0.1,0.8,1.1,1.1,2,1c2.5-0.2,4.9-0.4,7.4-0.6c1.2-0.1,3,0,3.6-0.6
							C746.8,139.5,745.8,139.4,745.1,139.5z"/>
					</g>
					<g>
						<path class="st3" d="M726.6,123.6c0.4,0.1,1-0.1,1.2-0.5c0.3-0.7-0.5-1.5-0.6-2.3c0-0.4,0.1-0.7,0.4-1c-0.8,0-1.7,0.6-1.6,1.5
							C726.1,122.2,726.9,122.9,726.6,123.6z"/>
					</g>
				</g>
				<path class="st5" d="M729.5,134c4.1,0.4,8.2,1.1,12.2,2.3c-5.5-2.8-10.9-5.9-16.2-9.3c-0.4-0.3-0.9-0.6-1.3-0.8
					c-1.7-0.2-3.4-0.2-5,0.1c-0.2,0-0.2-0.2,0-0.2c1.5-0.2,3.1-0.3,4.6-0.1c-1.9-1.3-3.8-2.5-5.7-3.8c-0.1-0.1,0-0.3,0.2-0.2
					c4.2,2.9,8.5,5.7,12.8,8.3c-0.7-1.9-1.4-3.8-2.1-5.7c-0.1-0.1,0.2-0.2,0.2-0.1c0.7,2,1.5,4,2.2,6l0,0c4.2,2.5,8.6,4.9,13,7
					c-2.5-3.2-4.7-6.5-6.8-10c-0.1-0.1,0.1-0.3,0.2-0.1c2.2,3.6,4.6,7,7.1,10.4c0.3,0.2,0.6,0.3,1,0.5c1.2,0.6,2.4,1.1,3.6,1.7
					l-0.1,0.2c-2.2-1-4.3-2-6.5-3.1c0,0,0,0-0.1,0c-4.3-1.4-8.8-2.2-13.4-2.6C729.3,134.2,729.3,134,729.5,134z"/>
			</g>
			<g>
				<path class="st6" d="M748,112.3c-2.7,3.8-4.3,8.5-4.5,13.2c-0.9-2.9-2-5.7-3.1-8.5c0.8-1.7,3.5-8.4,2-12.9
					c-2.2,3.3-3.1,6.2-2.4,12c-1.4-3.2-2.9-6.4-4.5-9.5c1.8-2.8,1.9-8.4,1-12c-2.7,3.9-1.7,9.5-1.3,11.5c-1.7-3.1-3.4-6.1-5.4-9.1
					c1.9-3,2.3-7,0.9-10.3c-2.4,2.8-1.6,7.9-1.2,9.8c-1-1.5-2.1-3.1-3.1-4.6c-0.3-1.5-1.8-7-7.2-7.8c1.2,1.5,1.8,3.4,2.8,5
					s2.5,3.1,4.4,3.2c1.2,1.7,2.4,3.5,3.5,5.2c-2.7-2.1-5.8-3.9-9.4-3.4c3.2,3.9,8.5,3.9,9.7,3.9c1.6,2.6,3.1,5.3,4.6,8
					c-3-2.8-7.2-4.6-11.3-4.5c2.8,5.1,10.2,5,11.5,5c1.5,3,3,6,4.2,9.1c-3.2-3-7.4-5.1-11.8-5.9c4,6.5,10.4,6.6,12,6.5
					c1.6,3.8,2.9,7.7,4.1,11.6c-3.7-4.8-8.5-8.6-14.3-10.5c2.6,6.8,12.7,10.3,14.4,10.9c0.9,3.1,1.7,6.2,2.3,9.3l0.8-0.2
					c-0.8-3.6-1.7-7.1-2.8-10.5l0.3-0.4C746.8,122.3,748.1,117.3,748,112.3z"/>
			</g>
			<g>
				<g>
					<path class="st7" d="M757.5,139.2c-5.3,0.1-10.6,2.2-15.7,0.8c-4.3-1.2-7.6-4.7-10.5-8c1.9-0.2,3.9-0.4,5.8-0.6
						c-2.5,0-5-1.1-6.7-3c-1.7-1.8-2.6-4.4-2.5-6.9c1.7,0.1,3.4,0.2,5,0.3c-1.5-0.5-3.1-1.1-4-2.5c-1.3-2-0.3-4.7,0.7-6.9
						c1.1-2.2,2.3-4.6,1.4-6.9c2,0.7,4,1.5,5.6,2.9s2.6,3.7,1.9,5.7c1-1.2,2.5-1.8,4-1.8c1.6,2.6,3,9.4,2.5,12.2
						c0.2-1.6,2.3-7.8,2.3-7.8s6.3,5.1,6.8,5.8C759,128.9,757.5,139.2,757.5,139.2z"/>
				</g>
				<path class="st7" d="M754.7,138.2c-5.9-0.3-11.7-1.5-17.2-3.6c-0.2-0.1-0.1-0.3,0.1-0.3c5.2,1.9,10.6,3.1,16.1,3.5
					c-0.5-0.2-1-0.4-1.5-0.7c0,0-0.1,0-0.1-0.1c-3.5-1.6-6.6-3.9-9.3-6.6c0,0,0,0-0.1,0c-2.5-1.2-5-2.4-7.6-3.6
					c-0.2-0.1,0-0.4,0.1-0.3c2.3,1.1,4.6,2.2,7,3.3c-2.1-2.4-3.9-5.1-5.2-8.1c-0.2-0.4-0.3-0.8-0.5-1.2l0,0h-0.1c-1-0.6-2-1.2-3-1.9
					c-0.2-0.1,0-0.4,0.1-0.3c0.9,0.6,1.9,1.2,2.8,1.8c-0.8-2.1-1.3-4.4-1.6-6.6c0-0.2,0.3-0.2,0.3,0c0.3,2.2,0.8,4.4,1.6,6.4
					c0.5-1.1,0.9-2.2,1.4-3.4c0.1-0.2,0.3,0,0.3,0.1c-0.5,1.2-1,2.4-1.5,3.7c1.3,3.4,3.2,6.5,5.6,9.2c0-2.6,0-5.2,0.1-7.7
					c0-0.2,0.3-0.2,0.3,0c0,2.7,0,5.4-0.1,8.1c2.6,2.8,5.7,5.1,9.2,6.8c-0.9-3.8-2.3-7.5-4.3-10.9c-0.1-0.2,0.1-0.3,0.2-0.2
					c2,3.5,3.5,7.3,4.4,11.2c0.1,0.1,0.3,0.1,0.4,0.2c0.7,0.3,1.3,0.5,2,0.8c0.1,0,0.1,0,0.2,0c0.1,0,0.1,0,0.1,0.1
					c2.1,0.7,4.3,1.2,6.6,1.4c0.2,0,0.1,0.3-0.1,0.3C759.2,139.5,756.9,139,754.7,138.2z"/>
			</g>
		</g>
		<g>
			<g>
				<rect x="754.5" y="106.8" class="st8" width="18.1" height="8.3"/>
				<path class="st9" d="M746.6,103v38.8h30.2V103H746.6z M768.7,109.2h-6.6c-0.9,0-1.6-0.7-1.6-1.6s0.7-1.6,1.6-1.6h6.6
					c0.9,0,1.6,0.7,1.6,1.6C770.3,108.4,769.6,109.2,768.7,109.2z"/>
				<rect x="746.6" y="103" class="st8" width="6.9" height="38.8"/>
				<polygon class="st10" points="750.9,103.3 750.9,139.1 746.6,141.8 746.6,103 				"/>
				<polygon class="st11" points="750.9,139.1 753.5,141.8 746.6,141.8 				"/>
			</g>
			<g>
				<rect x="769.3" y="116.6" class="st8" width="13.1" height="6"/>
				<path class="st9" d="M763.6,113.8v28h21.8v-28H763.6z M779.5,118.3h-4.7c-0.6,0-1.2-0.5-1.2-1.2c0-0.6,0.5-1.2,1.2-1.2h4.7
					c0.6,0,1.2,0.5,1.2,1.2C780.6,117.8,780.1,118.3,779.5,118.3z"/>
				<rect x="763.6" y="113.8" class="st8" width="5" height="28"/>
				<polygon class="st10" points="766.6,114.1 766.6,139.8 763.6,141.8 763.6,113.8 				"/>
				<polygon class="st11" points="766.6,139.8 768.5,141.8 763.6,141.8 				"/>
			</g>
		</g>
		<g>
			<g>
				<path class="st3" d="M835.4,51.1c-0.4-0.4-0.8-0.9-1-1.4c-0.1-0.6,0.2-1.3,0.8-1.3c0.4,0,0.8,0.3,1.2,0.5s0.9,0.3,1.2-0.1
					c0.2-0.4-0.3-0.9-0.7-1.2c-1.1-0.7-2.1-1.5-2.9-2.5c-0.4-0.4-0.7-0.9-0.7-1.5s0.5-1.1,1.1-1c0.5,0.1,0.8,0.7,1.3,0.6
					c0.3-0.1,0.5-0.4,0.4-0.8s-0.2-0.6-0.4-0.8c-0.7-1-1.5-2-1.6-3.2s0.8-2.6,2-2.5c0.9,0,1.6,1,1.5,1.8c0.2-0.7,1.2-0.9,1.8-0.5
					s0.9,1.1,1,1.8c0,0.7-0.2,1.4-0.4,2.1c-0.1,0.4-0.2,0.8-0.1,1.2s0.6,0.7,0.9,0.5c0.2-0.1,0.3-0.3,0.5-0.4
					c0.5-0.4,1.2-0.3,1.7,0.1c0.5,0.4,0.7,1,0.8,1.6c0.3,1.4,0.2,2.9-0.4,4.2c-0.1,0.3-0.3,0.5-0.3,0.8s0.2,0.6,0.5,0.7
					c0.2,0,0.4-0.1,0.6-0.1c0.5,0.1,0.5,0.8,0.4,1.3l0,0c-0.4,1.5-0.8,2.9-1.2,4.4c-0.3,1.1-0.5,3-1.8,1.8
					C839.4,55.4,837.4,53.1,835.4,51.1z"/>
			</g>
			<g class="st4">
				<g>
					<path class="st3" d="M837.1,49.4c-0.2,0.4-0.8,0.3-1.2,0.1s-0.7-0.5-1.2-0.5c-0.1,0-0.3,0.1-0.4,0.1c0.1-0.4,0.4-0.7,0.8-0.8
						c0.4,0,0.8,0.3,1.2,0.5c0.2,0.1,0.5,0.2,0.8,0.2C837.2,49.1,837.2,49.2,837.1,49.4z"/>
				</g>
				<g>
					<path class="st3" d="M842.9,56.2c0.4-1.5,0.8-2.9,1.2-4.4c0.1-0.5,0.1-1.2-0.4-1.3c-0.2,0-0.4,0.1-0.6,0.1
						c-0.3,0-0.5-0.4-0.5-0.7s0.2-0.6,0.3-0.8c0.6-1.3,0.8-2.8,0.4-4.2c-0.1-0.6-0.4-1.2-0.8-1.6c-0.5-0.4-1.2-0.5-1.7-0.1
						c-0.2,0.1-0.3,0.3-0.5,0.4c-0.4,0.2-0.8-0.1-0.9-0.5s0-0.8,0.1-1.2c0.2-0.7,0.4-1.4,0.4-2.1s-0.3-1.5-1-1.8s-1.6-0.1-1.8,0.5
						c0.1-0.9-0.6-1.8-1.5-1.8c-0.5,0-1,0.2-1.3,0.6c0.3-0.7,1-1.3,1.8-1.2c0.9,0,1.6,1,1.5,1.8c0.2-0.7,1.2-0.9,1.8-0.5
						s0.9,1.1,1,1.8c0,0.7-0.2,1.4-0.4,2.1c-0.1,0.4-0.2,0.8-0.1,1.2c0.1,0.4,0.6,0.7,0.9,0.5c0.2-0.1,0.3-0.3,0.5-0.4
						c0.5-0.4,1.2-0.3,1.7,0.1c0.5,0.4,0.7,1,0.8,1.6c0.3,1.4,0.2,2.9-0.4,4.2c-0.1,0.3-0.3,0.5-0.3,0.8s0.2,0.6,0.5,0.7
						c0.2,0,0.4-0.1,0.6-0.1c0.5,0.1,0.5,0.8,0.4,1.3c-0.4,1.5-0.8,2.9-1.2,4.4c-0.2,0.7-0.3,1.8-0.8,2.1
						C842.7,57.2,842.8,56.6,842.9,56.2z"/>
				</g>
				<g>
					<path class="st3" d="M835.6,43.1c0,0.3-0.1,0.6-0.4,0.6c-0.5,0.1-0.8-0.5-1.3-0.6c-0.2-0.1-0.5,0-0.6,0.1
						c0.1-0.5,0.6-0.9,1.1-0.8C834.8,42.6,835.1,43.2,835.6,43.1z"/>
				</g>
			</g>
			<path class="st5" d="M841.4,46.1c-0.3,2.5-0.3,5.1-0.1,7.6c-1-3.7-2.2-7.3-3.6-10.9c-0.1-0.3-0.2-0.6-0.3-0.9c0.1-1,0.3-2,0.6-3
				c0-0.1-0.1-0.1-0.1,0c-0.3,0.9-0.5,1.8-0.6,2.7c-0.5-1.3-1.1-2.6-1.6-3.9c0-0.1-0.2,0-0.1,0.1c1.3,2.9,2.4,5.8,3.4,8.7
				c-1.1-0.7-2.1-1.3-3.2-2c-0.1,0-0.2,0.1-0.1,0.1c1.1,0.7,2.2,1.4,3.3,2.1l0,0c1,2.9,1.9,5.7,2.7,8.7c-1.6-1.9-3.4-3.6-5.2-5.3
				c-0.1-0.1-0.2,0-0.1,0.1c1.9,1.7,3.7,3.6,5.4,5.5c0.1,0.2,0.1,0.4,0.2,0.6c0.2,0.8,0.4,1.6,0.6,2.3h0.1c-0.3-1.4-0.7-2.8-1.1-4.3
				l0,0c-0.3-2.8-0.3-5.6,0-8.4C841.6,46,841.5,46,841.4,46.1z"/>
		</g>
		<g>
			<path class="st6" d="M833.2,59.8c2.9-0.2,5.8,0.4,8.4,1.8c-1.2-1.4-2.4-2.8-3.5-4.3c-1.1-0.1-5.5-0.8-7.4-3
				c2.4-0.1,4.3,0.3,7.1,2.5c-1.3-1.7-2.4-3.5-3.6-5.3c-2,0-5-1.7-6.6-3.3c2.9-0.2,5.6,2.1,6.4,3c-1.1-1.9-2.1-3.8-3.1-5.7
				c-2.2,0-4.4-1-5.7-2.8c2.2-0.4,4.7,1.6,5.5,2.5c-0.5-1-1-2.1-1.4-3.1c-0.7-0.6-3.1-3.2-1.8-6.2c0.4,1.1,1.2,2,1.8,3
				c0.5,1,0.8,2.3,0.3,3.3c0.5,1.2,1.1,2.3,1.7,3.5c-0.3-2.1-0.2-4.3,1.2-6.1c1,2.9-0.6,5.7-1,6.3c0.9,1.7,1.8,3.3,2.8,4.9
				c-0.5-2.5-0.1-5.2,1.2-7.4c1.8,3.1-0.6,6.9-1,7.6c1.1,1.8,2.2,3.5,3.5,5.1c-0.6-2.7-0.4-5.5,0.6-8c2.1,4.2,0.2,7.6-0.4,8.4
				c1.5,2,3.1,4,4.8,5.8c-1.4-3.5-1.8-7.2-1-10.8c2.8,3.5,1.4,10,1.1,11c1.3,1.4,2.7,2.8,4.2,4.2L847,67c-1.6-1.5-3.2-3.1-4.7-4.8
				H842C838.8,62.4,835.8,61.5,833.2,59.8z"/>
		</g>
		<g>
			<g>
				<path class="st7" d="M849,77.9c-3.2-0.3-6.6,0.6-9.6-0.6c-2.6-1-4.3-3.4-5.9-5.6c1.2,0,2.4,0,3.6,0c-1.5-0.2-3-1-3.9-2.3
					c-0.9-1.2-1.3-2.9-1-4.4c1,0.2,2,0.4,3.1,0.5c-0.9-0.4-1.8-0.9-2.3-1.8c-0.7-1.3,0.1-2.9,0.9-4.1c0.8-1.2,1.7-2.7,1.3-4.1
					c1.2,0.6,2.3,1.2,3.2,2.1c0.9,1,1.3,2.4,0.8,3.6c0.7-0.6,1.6-0.9,2.6-0.8c0.8,1.7,1.2,5.9,0.7,7.6c0.2-1,1.9-4.6,1.9-4.6
					s3.5,3.5,3.8,4C850.6,71.8,849,77.9,849,77.9z"/>
			</g>
			<path class="st7" d="M847.4,77.2c-3.6-0.6-7-1.7-10.3-3.3c-0.1-0.1,0-0.2,0.1-0.2c3,1.5,6.3,2.6,9.6,3.2
				c-0.3-0.2-0.6-0.3-0.9-0.5h-0.1c-2-1.2-3.8-2.8-5.2-4.7l0,0c-1.5-0.9-2.9-1.8-4.4-2.7c-0.1-0.1,0-0.2,0.1-0.2
				c1.3,0.8,2.7,1.7,4,2.5c-1.1-1.6-2-3.4-2.6-5.3c-0.1-0.2-0.1-0.5-0.2-0.7l0,0l0,0c-0.6-0.4-1.1-0.9-1.7-1.3
				c-0.1-0.1,0-0.2,0.1-0.2c0.5,0.4,1.1,0.8,1.6,1.3c-0.3-1.4-0.5-2.7-0.5-4.1c0-0.1,0.2-0.1,0.2,0c0,1.4,0.2,2.7,0.5,4
				c0.4-0.7,0.7-1.3,1.1-2c0.1-0.1,0.2,0,0.2,0.1c-0.4,0.7-0.8,1.4-1.2,2.1c0.6,2.2,1.5,4.2,2.8,6c0.2-1.6,0.4-3.1,0.6-4.7
				c0-0.1,0.2-0.1,0.2,0c-0.2,1.6-0.4,3.3-0.6,4.9c1.4,1.9,3.1,3.5,5.2,4.8c-0.3-2.4-0.9-4.7-1.9-6.9c0-0.1,0.1-0.2,0.2-0.1
				c1,2.3,1.6,4.7,1.9,7.1c0.1,0,0.2,0.1,0.3,0.1c0.4,0.2,0.8,0.4,1.2,0.6h0.1c0,0,0.1,0,0.1,0.1c1.3,0.6,2.6,1,3.9,1.3
				c0.1,0,0.1,0.2-0.1,0.2C850.1,78.3,848.7,77.8,847.4,77.2z"/>
		</g>
		<g>
			<path class="st6" d="M918.1,20.3c-0.3-0.6-0.8-0.9-1.5-1c-2.4-0.3-6.3,2.2-7.8,3.3c-2.1,1.4-4,3-5.3,4.5c0.3-0.5,0.7-1.1,1-1.6
				c0.2-0.4,0.5-0.7,0.7-1.1l0,0l0,0c0.6-0.8,1.2-1.6,1.9-2.4l0.1-0.1c0.8-0.7,1.5-1.3,3.1-2.2c1.1-0.6,2.6-1.1,4-1.6
				c1.9-0.6,3.5-1.1,3.7-1.8c0.1-0.1,0.1-0.3,0-0.4c-0.2-0.4-0.5-0.7-1-0.8c-2.3-0.4-7.8,3.7-10.2,6.6l0,0c-0.3,0.4-0.7,0.8-1,1.1
				c1.6-4.3,2.6-12.7,0.8-15.2c-0.4-0.5-0.9-0.8-1.4-0.7c-0.2,0-0.3,0.1-0.4,0.2c-0.6,0.8-0.1,3.3,0.4,6.3c0.3,1.8,0.7,3.7,0.7,5.1
				c0.1,1.5-0.3,2.9-0.6,4.3c-0.1,0.5-0.3,0.9-0.5,1.4c-0.3,0.4-0.5,0.7-0.7,1.1c-1.3,2.1-2.5,4.1-3.6,6.2
				c1.5-5.7,2.1-13.9,0.2-16.6c-0.5-0.6-1.1-0.9-1.8-0.9c-0.2,0-0.4,0.1-0.5,0.3c-0.7,0.9-0.1,4.3,0.6,7.8c0.4,2.3,0.9,4.7,0.9,6.4
				c0.1,1.8-0.3,3.6-0.7,5.4c-0.1,0.3-0.1,0.5-0.2,0.8c-0.1,0.3-0.3,0.6-0.4,0.9c0,0,0,0.1-0.1,0.1c0,0,0,0,0,0.1
				c-0.4,1-0.8,2.1-1.2,3.1c0.4-5.4-1-12.4-3.8-17.2c-0.7-1.1-1.4-1.7-2.2-1.5c-0.5,0.1-0.9,0.5-1,1.1c-0.1,0.5,0,1,0.2,1.5
				c0.6,2.1,1.7,4.2,2.8,6.1c1.3,2.3,2.6,4.7,3,7.2c0.3,1.8,0.2,3.7,0.1,5.5c0,0.2,0,0.4-0.1,0.6c-0.1,0.4-0.2,0.8-0.3,1.2l0,0l0,0
				c-0.2,0.7-0.3,1.4-0.5,2.2s-0.3,1.7-0.4,2.5c-0.2-2.4-0.6-5.4-1.3-8.2c-0.5-2.3-2-7.8-3.9-9c-0.5-0.3-0.9-0.3-1.3,0
				c-1,0.7,0.6,3.9,2.5,7.7c1,2,2,4.1,2.6,5.7c0.6,1.7,0.9,3.6,1.1,5.4c0.1,0.6,0.1,1.1,0.1,1.7l0,0c0,0.1,0,0.1,0,0.2l0,0
				c-0.3,5.7,0.6,11.3,2.6,16.4c0,0.1,0.1,0.1,0.2,0.1c0,0,0,0,0.1,0s0.1-0.1,0.1-0.2c-2-5.1-2.9-10.7-2.6-16.4l0,0
				c0-0.2,0-0.4,0-0.6c0-0.7,0.1-1.4,0.2-2.1c0.5-0.7,0.8-1.1,1.4-1.7c1.6-1.4,3.2-2.9,5.1-3.9c1.8-1,4.4-1.9,7-2.9
				c4.7-1.7,8.8-3.2,8.2-4.8c-0.3-0.7-0.8-1.1-1.7-1.2c-3-0.4-8.4,3.3-10.6,4.9c-4,2.9-7.5,6.4-9.2,8.9c0.1-0.8,0.2-1.6,0.4-2.4
				c0.1-0.3,0.1-0.6,0.2-1c0,0,0,0,0-0.1c0.2-0.7,0.3-1.2,0.6-1.8c0.8-1.6,1.6-3.2,2.8-4.5c1.6-1.8,3.8-3,6-4.2c1.8-1,3.8-2,5.3-3.4
				c0.3-0.3,0.7-0.7,0.9-1.1c0.2-0.5,0.1-1.1-0.2-1.5c-0.5-0.6-1.4-0.6-2.5,0c-4.7,2.4-9.4,7.5-11.7,12.4c0.5-1.5,1-3.1,1.7-4.6l0,0
				c0.3-0.6,0.6-1.3,0.9-2.1c0.7-1.4,1.4-2.9,2.2-4.3l0,0l0.1-0.1l0,0c0.3-0.4,0.6-0.7,0.9-1.1c1.1-1,2.3-2,3.7-2.7
				c1.3-0.6,3.2-1.2,5.1-1.8c3-0.9,5.6-1.8,6-2.7C918.2,20.7,918.2,20.5,918.1,20.3z"/>
			<path class="st12" d="M868.9,13.9c0.4,0.9,3,1.8,6,2.7c1.9,0.6,3.8,1.2,5.1,1.8c1.4,0.7,2.5,1.7,3.7,2.7c0.4,0.3,0.6,0.6,0.9,1.1
				l0,0l0.1,0.1l0,0c0.8,1.4,1.5,2.9,2.2,4.3c0.3,0.8,0.6,1.6,0.9,2.1l0,0c0.6,1.5,1.2,3.1,1.7,4.6c-2.3-4.9-7-10-11.7-12.4
				c-1.1-0.6-2-0.6-2.5,0c-0.3,0.4-0.4,1-0.2,1.5s0.5,0.8,0.9,1.1c1.5,1.4,3.5,2.5,5.3,3.4c2.2,1.2,4.4,2.4,6,4.2
				c1.2,1.3,2,3,2.8,4.5c0.3,0.6,0.4,1.1,0.6,1.8c0,0,0,0,0,0.1c0.1,0.3,0.1,0.6,0.2,1c0.1,0.8,0.3,1.6,0.4,2.4
				c-1.7-2.5-5.2-5.9-9.2-8.9c-2.2-1.6-7.6-5.3-10.6-4.9c-0.8,0.1-1.4,0.5-1.7,1.2c-0.6,1.5,3.5,3,8.2,4.8c2.5,0.9,5.2,1.9,7,2.9
				c1.9,1,3.5,2.5,5.1,3.9c0.6,0.5,0.9,1,1.4,1.7c0.1,0.7,0.1,1.4,0.2,2.1c0,0.2,0,0.4,0,0.6l0,0c0.3,5.7-0.6,11.3-2.6,16.4
				c0,0.1,0,0.2,0.1,0.2c0,0,0,0,0.1,0s0.1,0,0.2-0.1c2-5.1,2.9-10.7,2.6-16.4l0,0c0-0.1,0-0.1,0-0.2l0,0c0-0.6,0-1.1,0.1-1.7
				c0.2-1.8,0.5-3.7,1.1-5.4c0.6-1.6,1.6-3.7,2.6-5.7c1.9-3.7,3.5-7,2.5-7.7c-0.4-0.3-0.9-0.3-1.3,0c-1.9,1.1-3.3,6.6-3.9,9
				c-0.7,2.8-1.1,5.8-1.3,8.2c-0.1-0.8-0.2-1.7-0.4-2.5c-0.1-0.7-0.3-1.4-0.5-2.2l0,0l0,0c-0.1-0.4-0.2-0.8-0.3-1.2
				c0-0.2-0.1-0.4-0.1-0.6c-0.1-1.8-0.3-3.6,0.1-5.5c0.4-2.5,1.8-4.9,3-7.2c1.1-2,2.2-4,2.8-6.1c0.1-0.5,0.2-1,0.2-1.5
				c-0.1-0.6-0.5-1-1-1.1c-0.7-0.2-1.5,0.4-2.2,1.5c-2.8,4.8-4.2,11.8-3.7,17.2c-0.4-1-0.7-2.1-1.2-3.1c0,0,0,0,0-0.1
				c0,0,0-0.1-0.1-0.1c-0.1-0.3-0.3-0.6-0.4-0.9c-0.1-0.2-0.2-0.5-0.2-0.8c-0.4-1.7-0.8-3.5-0.7-5.4c0.1-1.7,0.5-4.1,0.9-6.4
				c0.7-3.5,1.3-6.9,0.6-7.8c-0.1-0.2-0.3-0.3-0.5-0.3c-0.7-0.1-1.3,0.2-1.8,0.9c-1.9,2.7-1.3,10.9,0.2,16.6c-1-2.1-2.2-4.1-3.6-6.2
				c-0.2-0.4-0.5-0.7-0.7-1.1c-0.2-0.5-0.4-0.9-0.5-1.4c-0.3-1.4-0.6-2.8-0.6-4.3c0.1-1.4,0.4-3.3,0.7-5.1c0.5-2.9,1-5.5,0.4-6.3
				C882.1,0.1,882,0,881.8,0c-0.6-0.1-1.1,0.2-1.4,0.7c-1.8,2.5-0.8,11,0.8,15.2c-0.3-0.4-0.6-0.8-1-1.1l0,0
				c-2.4-2.9-7.8-7-10.2-6.6c-0.5,0.1-0.8,0.3-1,0.8c-0.1,0.1-0.1,0.3,0,0.4c0.3,0.6,1.8,1.1,3.7,1.8c1.4,0.5,3,1,4.1,1.6
				c1.5,0.9,2.3,1.5,3.1,2.2l0.1,0.1c0.7,0.8,1.3,1.6,1.9,2.4l0,0l0,0c0.2,0.4,0.5,0.7,0.7,1.1c0.3,0.5,0.7,1.1,1,1.6
				c-1.3-1.4-3.2-3.1-5.3-4.5c-1.6-1.1-5.5-3.6-7.8-3.3c-0.7,0.1-1.2,0.4-1.5,1C868.9,13.6,868.9,13.7,868.9,13.9z"/>
		</g>
		<g>
			<path class="st13" d="M881.1,141.5h-22.6c-9.7,0-17.6-7.9-17.6-17.6V50.5c0-9.7,7.9-17.6,17.6-17.6h22.6
				c9.7,0,17.6,7.9,17.6,17.6v73.3C898.7,133.6,890.8,141.5,881.1,141.5z"/>
			<path class="st14" d="M898.5,39.6c0,0.2,0,0.5,0,0.7v91.3c0,4.8-3.9,8.7-8.7,8.7h-40.5c-4.1,0-7.5-2.9-8.4-6.7
				c0.4,4.4,4.1,7.9,8.6,7.9H890c4.8,0,8.7-3.9,8.7-8.7V41.6C898.7,40.9,898.6,40.2,898.5,39.6z"/>
			<path class="st14" d="M890,32.9h-16.1c13.7,0,24.8,11.1,24.8,24.8V41.6C898.7,36.8,894.8,32.9,890,32.9z"/>
			<g>
				<path class="st15" d="M864.9,135.9c0,0.9-0.8,1.7-1.7,1.7s-1.7-0.8-1.7-1.7s0.8-1.7,1.7-1.7S864.9,134.9,864.9,135.9z"/>
				<circle class="st15" cx="869.8" cy="135.9" r="1.7"/>
				<circle class="st15" cx="876.4" cy="135.9" r="1.7"/>
			</g>
			<g>
				<g>
					<path class="st15" d="M878.7,39h-17.4c-0.6,0-1.1-0.5-1.1-1.1l0,0c0-0.6,0.5-1.1,1.1-1.1h17.4c0.6,0,1.1,0.5,1.1,1.1l0,0
						C879.7,38.6,879.3,39,878.7,39z"/>
					<path class="st16" d="M861.2,37.5h17.4c0.5,0,0.9,0.3,1,0.8c0-0.1,0-0.2,0-0.3c0-0.6-0.5-1.1-1.1-1.1h-17.4
						c-0.6,0-1.1,0.5-1.1,1.1c0,0.1,0,0.2,0,0.3C860.3,37.8,860.7,37.5,861.2,37.5z"/>
				</g>
				<circle class="st17" cx="850.4" cy="38" r="1.3"/>
			</g>
		</g>
		<rect x="844.1" y="43.3" class="st0" width="51.4" height="85.4"/>
		<rect x="844.1" y="93.8" class="st18" width="51.4" height="34.8"/>
		<g>
			<rect x="851.2" y="108" class="st19" width="36.4" height="8.8"/>
			<text transform="matrix(1 0 0 1 851.1722 109.1253)" class="st0 st20 st21">Lorem ipsum</text>
			<text transform="matrix(1 0 0 1 861.2722 109.1253)" class="st0 st22 st21"> dolor sit amet, consectetur adipi</text>
			<text transform="matrix(1 0 0 1 851.1722 112.5253)" class="st0 st22 st21">rutrum metus at enim congue scelerisque sed </text>
			<text transform="matrix(1 0 0 1 851.1722 115.8253)" class="st0 st22 st21">non iaculis semper consectetur adipiscing elit.</text>
			<g>
				<g>
					<path class="st0" d="M878.8,103.5h-18.9c-1.2,0-2.2-1-2.2-2.2v-0.5c0-1.2,1-2.2,2.2-2.2h18.9c1.2,0,2.2,1,2.2,2.2v0.5
						C881.1,102.5,880.1,103.5,878.8,103.5z"/>
					<path class="st23" d="M879.7,98.5H859c-0.7,0-1.3,0.7-1.3,1.6v0.9c0-0.9,0.6-1.6,1.3-1.6h20.7c0.7,0,1.3,0.7,1.3,1.6v-0.9
						C881.1,99.2,880.5,98.5,879.7,98.5z"/>
				</g>
				<g>
					<text transform="matrix(1 0 0 1 859.9086 102.3645)" class="st24 st25 st26">BUY NOW</text>
				</g>
			</g>
			<g>
				<polygon class="st24" points="861.2,121 862.1,121.2 861.4,121.8 861.5,122.7 860.8,122.3 860,122.7 860.1,121.8 859.5,121.1 
					860.4,121 860.8,120.2 				"/>
				<polygon class="st24" points="865.5,121 866.4,121.2 865.7,121.8 865.8,122.7 865.1,122.3 864.3,122.7 864.4,121.8 863.8,121.1 
					864.7,121 865.1,120.2 				"/>
				<polygon class="st24" points="869.8,121 870.6,121.2 870,121.8 870.1,122.7 869.3,122.3 868.6,122.7 868.7,121.8 868.1,121.1 
					869,121 869.4,120.2 				"/>
				<polygon class="st24" points="874.1,121 874.9,121.2 874.3,121.8 874.4,122.7 873.6,122.3 872.8,122.7 873,121.8 872.4,121.1 
					873.3,121 873.7,120.2 				"/>
				<polygon class="st0" points="878.3,121 879.2,121.2 878.6,121.8 878.7,122.7 877.9,122.3 877.1,122.7 877.3,121.8 876.7,121.1 
					877.6,121 878,120.2 				"/>
			</g>
		</g>
		<path class="st27" d="M844.1,77.3v51.4h51.4C867.1,128.7,844.1,105.7,844.1,77.3z"/>
		<rect x="844.1" y="43.3" class="st18" width="51.4" height="5.7"/>
		<g>
			<g>
				<ellipse class="st28" cx="867.6" cy="86.8" rx="13.1" ry="2.6"/>
				<g>
					<g>
						<path class="st7" d="M871.6,55.8c0,0,1.6,1.6,5.4,2.1c0,0-1.3,3.9,0,6.6c1.3,2.7,1.9,8.2,0,10.7c0,0-1.6,5.5,1.6,11.3
							c0,0-9.8,4.2-21.5,0c0,0,2.5-4.2,1.6-11.5c0,0-3-2.8-0.5-10.9c0,0,0.9-3.6-0.4-5.9l5.6-2.4l4.5,7.4L871.6,55.8z"/>
						<g class="st29">
							<path class="st7" d="M876.9,75.2c0.5-0.7,0.8-1.6,1-2.6c-1.2,1.4-3.4,3.3-6.8,3.1c0.4,0,4.8,0.2,4.8,1.9
								c0,1.7-1.5,3.4-1.5,3.4s1,2,0,3.1c-1,1,2-0.1,1.5,1.5c-0.2,0.5,0,1.2,0.3,1.7c1.4-0.4,2.2-0.7,2.2-0.7
								C875.4,80.7,876.9,75.2,876.9,75.2z"/>
						</g>
						<g class="st30">
							<g>
								<path class="st7" d="M859.4,87.2c0.4-0.6,0.5-1.2,0.3-1.8c-0.5-1.6,2.6-0.5,1.5-1.5c-1-1,0-3.1,0-3.1s-1.5-1.7-1.5-3.4
									c0-1.6,4.3-1.8,4.8-1.9c-3.9,0.2-6.2-2.2-7.2-3.7c0.4,2.2,1.3,3.1,1.3,3.1c0.9,7.2-1.6,11.5-1.6,11.5
									C857.8,86.8,858.6,87,859.4,87.2z"/>
							</g>
						</g>
					</g>
					<g>
						<g>
							<path class="st31" d="M857.1,69.9c0,0-3.3-0.4-3.9-1.4c0,0,0.8-11,5.1-10.6C858.3,57.9,861.2,64.1,857.1,69.9z"/>
							<g class="st32">
								<path class="st31" d="M855.1,68.4c0.1,0.1,0.2,0.2,0.4,0.2C855.2,68.2,854.9,68.1,855.1,68.4z"/>
								<path class="st31" d="M857.9,68.7c-0.9,0.1-1.8,0-2.3-0.1c0.3,0.3,0.6,0.7,0.7,1.2c0.5,0.1,0.8,0.1,0.8,0.1
									C857.4,69.5,857.7,69.1,857.9,68.7z"/>
								<path class="st31" d="M859.1,65c-0.6,0.6-1.6,1.1-3.2,1.5c0,0,0.9,0.9,2.4,1.4C858.7,66.9,859,65.9,859.1,65z"/>
							</g>
						</g>
						<g>
							<path class="st31" d="M878.1,69.9c0,0,3.3-0.4,3.9-1.4c0,0-0.8-11-5.1-10.6C876.9,57.9,874.1,64.1,878.1,69.9z"/>
							<g class="st32">
								<path class="st31" d="M880.1,68.4c-0.1,0.1-0.2,0.2-0.4,0.2C880.1,68.2,880.4,68.1,880.1,68.4z"/>
								<path class="st31" d="M877.4,68.7c0.9,0.1,1.8,0,2.3-0.1c-0.3,0.3-0.6,0.7-0.7,1.2c-0.5,0.1-0.8,0.1-0.8,0.1
									C877.8,69.5,877.6,69.1,877.4,68.7z"/>
								<path class="st31" d="M876.1,65c0.6,0.6,1.6,1.1,3.2,1.5c0,0-0.9,0.9-2.4,1.4C876.5,66.9,876.3,65.9,876.1,65z"/>
							</g>
						</g>
					</g>
					<g>
						<g>
							<path class="st33" d="M868.3,66.8c0,0,1.5-7,2.8-8.3l-1.3-1.1c0,0-3.1,5.6-2.9,9.4H868.3z"/>
							<path class="st34" d="M866.9,66.8c0,0-1.5-7-2.8-8.3l1.3-1.1c0,0,3.1,5.6,2.9,9.4H866.9z"/>
						</g>
						<g>
							<path class="st31" d="M870.9,54.3c0,0-0.2,2.5-1.4,3.6c0,0,0.4,1.5,3.2,2.4c0,0-0.4-1.7,0-2.6S873.1,54.9,870.9,54.3z"/>
							<path class="st35" d="M872.6,57.6c0.2-0.5,0.3-1.3,0-2c-0.1,0.2-0.1,0.5-0.1,0.9c0,2-1.5,1.1-1.1,2.6c0,0.1,0.1,0.4,0.2,0.8
								c0.3,0.1,0.7,0.3,1,0.4C872.6,60.3,872.3,58.6,872.6,57.6z"/>
						</g>
						<g>
							<path class="st31" d="M864.4,54.2c0,0,0.2,2.5,1.4,3.6c0,0-0.4,1.5-3.2,2.4c0,0,0.4-1.7,0-2.6S862.2,54.8,864.4,54.2z"/>
							<path class="st35" d="M862.6,57.5c-0.2-0.5-0.3-1.3,0-2c0.1,0.2,0.1,0.5,0.1,0.9c0,2,1.5,1.1,1.1,2.6c0,0.1-0.1,0.4-0.2,0.8
								c-0.3,0.1-0.7,0.3-1,0.4C862.6,60.2,863,58.5,862.6,57.5z"/>
						</g>
					</g>
				</g>
			</g>
			<g>
				<g>
					<path class="st3" d="M892.6,72.5c0,1.4-1.2,2.6-2.6,2.6c-1.4,0-2.6-1.2-2.6-2.6s1.2-2.6,2.6-2.6
						C891.5,69.9,892.6,71.1,892.6,72.5z"/>
					<g>
						<path class="st0" d="M890,74.1l1.5-1c0.4-0.3,0.5-0.9,0.3-1.3c-0.3-0.4-0.9-0.5-1.3-0.3l-0.5,0.3l-0.5-0.3
							c-0.4-0.3-1-0.2-1.3,0.2c-0.3,0.4-0.2,1,0.2,1.3L890,74.1z"/>
					</g>
				</g>
				<g>
					<path class="st3" d="M892.6,65.5c0,1.4-1.2,2.6-2.6,2.6c-1.4,0-2.6-1.2-2.6-2.6s1.2-2.6,2.6-2.6
						C891.5,62.9,892.6,64,892.6,65.5z"/>
					<polygon class="st0" points="891.5,66.7 890,65.7 888.6,66.7 888.6,64.2 891.5,64.2 					"/>
				</g>
				<g>
					<path class="st3" d="M892.6,58.6c0,1.4-1.2,2.6-2.6,2.6c-1.4,0-2.6-1.2-2.6-2.6c0-1.4,1.2-2.6,2.6-2.6
						C891.5,56,892.6,57.2,892.6,58.6z"/>
					<text transform="matrix(1 0 0 1 888.1263 59.1741)" class="st0 st25 st36">25$</text>
				</g>
			</g>
			<g>
				<path class="st3" d="M849.7,76.6c0,0.6-0.5,1-1,1c-0.6,0-1-0.5-1-1c0-0.6,0.5-1,1-1C849.3,75.6,849.7,76,849.7,76.6z"/>
				<path class="st24" d="M849.7,80.1c0,0.6-0.5,1-1,1c-0.6,0-1-0.5-1-1c0-0.6,0.5-1,1-1C849.3,79.1,849.7,79.6,849.7,80.1z"/>
				<path class="st37" d="M849.7,83.7c0,0.6-0.5,1-1,1c-0.6,0-1-0.5-1-1c0-0.6,0.5-1,1-1C849.3,82.7,849.7,83.1,849.7,83.7z"/>
			</g>
		</g>
		<g>
			<g>
				<path class="st38" d="M826.1,93.1c0,0-7.1,4.4-8.2-0.8c-1.2-5.2,0.1-3.1-2-8.2s-0.7-4.6,0.2-13.4c0,0,1.4-7.2,6.5-6.4
					c5.2,0.7,10.1,0,10.1,10.1S834.7,90.2,826.1,93.1z"/>
			</g>
			<g>
				<path class="st39" d="M844,137l1,4.2h12c0,0-2-2.9-7.5-2.1l-0.4-1.7L844,137z"/>
				<path class="st40" d="M848.5,138.1l0.4,1.7c3.8-0.5,5.9,0.7,6.9,1.5h1.2c0,0-2-2.9-7.5-2.1l-0.4-1.7L844,137l0.2,0.7
					L848.5,138.1z"/>
			</g>
			<g>
				<polygon class="st15" points="794.1,73.8 800.8,71.1 803.8,86.7 796.8,86.7 				"/>
				<path class="st41" d="M800.8,71.1l-6.7,2.7l1.5,7C794.7,76.7,796.9,72.6,800.8,71.1z"/>
				<polygon class="st42" points="800.1,71.4 803.1,86.7 803.8,86.7 800.8,71.1 794.1,73.8 794.1,73.8 				"/>
			</g>
			<path class="st39" d="M791.7,86c0,0,0.5-5.8,2.5-7c1.9-1.1,6.3-3.3,6.5-2.2c0.2,1.1-3.1,2.3-3.1,2.3s3.6-1.3,3.9-0.5
				c0.4,0.7-4.2,2.6-4.2,2.6s3.7-1.6,4-0.7s-4.1,2.5-4.1,2.5s3.6-1.4,3.6-0.2c0.1,1.1-4.1,1.7-5.1,3.4C794.7,87.8,791.7,86,791.7,86
				z"/>
			<g>
				<path class="st39" d="M822.4,90.6l0.4-2.6v-2.3c0,0-3.7-0.5-4.2-6.7c-0.4-6.2,0.7-15.8,8.8-11.8c0,0,2.2,1,3,8.1
					c0,0,2.7-0.1,0,5.5l0.4,12.9c0,0-1.5,3.2-6,5.2C824.9,98.8,820.7,95.1,822.4,90.6z"/>
				<path class="st43" d="M822.8,85.6v1.6c1.2,0.1,3.7-1.5,5.4-3.7c0,0-2.5,1.9-5.6,2.1C822.7,85.6,822.8,85.6,822.8,85.6z"/>
			</g>
			<path class="st24" d="M849.9,138.2h-7.5l-7.2-29.3c0,0-5.7,5.5-3.5,22c0,0-12.7-11-22.1-7.3c0,0,0.7-2.5-2-3.5l3.2-2.5
				c1.2-1,1.9-2.4,1.9-4v-9.5c0,0-9,10.7-15.2,10.7s-6.2-8.8-6.2-8.8l-0.7-20c0-0.3,0.2-0.5,0.5-0.5h5.8c0.2,0,0.4,0.2,0.5,0.4
				l1.8,18.1L810,93.2c0,0,5.7-5.2,12.8-5.2c0,0-1.2,8.5,5.6,7.3l4-5.5c0,0,5.3,1,6.8,2.5C840.7,93.7,843.2,97,849.9,138.2z"/>
			<polygon class="st24" points="798.6,103.4 799,103 797.3,85.6 796.8,85.6 			"/>
			<path class="st44" d="M812.7,104.1l0.2-1.4c0,0-9.7,11.5-15.8,11.5c-1.7,0-3-0.7-3.9-1.7c0.9,1.3,2.3,2.3,4.3,2.3
				C802.9,114.7,810.8,106.2,812.7,104.1z"/>
			<path class="st24" d="M807.9,119.8l-0.3,0.2c0.5,0.2,0.9,0.4,1.2,0.7C808.6,120.4,808.3,120.1,807.9,119.8z"/>
			<path class="st45" d="M818.6,116.2c-3.4-1.1-5.1-4.4-5.9-6.4v3.8c0,1.6-0.7,3-1.9,4l-3.2,2.5c1.1,0.4,1.7,1.1,1.9,1.8
				C814.3,123.1,822.9,117.6,818.6,116.2z"/>
			<g class="st46">
				<path class="st24" d="M798.3,107.1c0.1-1.1,0.2-2.1,0.3-3.1l0.2-1.1l0.7,0.9c0.3,0.5,0.5,0.9,0.7,1.4c0.1,0.5,0.2,1,0.2,1.5
					s-0.1,1-0.2,1.4c-0.1,0.5-0.3,0.9-0.6,1.3V108c0-0.4,0-0.9-0.1-1.3s-0.1-0.8-0.3-1.2c-0.1-0.4-0.3-0.8-0.5-1.1l0.8-0.2
					C799.3,105.2,798.9,106.2,798.3,107.1z"/>
			</g>
			<g>
				<path class="st47" d="M798,138.8c0,0-14.7-4.4-20.9-12.3s-3-11,0.4-12.3s22,1.9,35.2,7.4L798,138.8z"/>
				<path class="st48" d="M777,115.9c1.9-0.7,8.2-0.1,15.8,1.5c7.8,1.7,11.8,9.9,9.1,16.8l10.9-12.7c-13.2-5.6-31.8-8.8-35.2-7.4
					c-1.9,0.7-3.7,2-3.9,4.3C774.3,117.2,775.6,116.4,777,115.9z"/>
				<g class="st49">
					<path class="st50" d="M783.7,117.2c-0.1,0,0-0.2,0.1-0.2s0.1-0.1,0.2-0.1c0.1,0,0.3,0,0.4-0.1c0.3,0,0.5,0,0.7,0
						c0.5,0.1,0.9,0.2,1.4,0.4l-0.6,0.6c0-0.1-0.1-0.3-0.2-0.4l-0.2-0.5c-0.1-0.3-0.3-0.7-0.4-1.1c0.4,0.1,0.7,0.4,1,0.7
						c0.1,0.1,0.3,0.3,0.4,0.5c0.1,0.2,0.2,0.3,0.3,0.6l0.3,0.9l-1-0.3c-0.4-0.1-0.8-0.3-1.2-0.5l-0.6-0.3c-0.1-0.1-0.2-0.1-0.3-0.2
						C783.8,117.2,783.7,117.1,783.7,117.2z"/>
				</g>
				<g class="st49">
					<path class="st50" d="M786.5,118.1c1.5,0.8,2.8,1.7,4.1,2.7s2.6,2,3.8,3s2.4,2.1,3.6,3.2c1.2,1.1,2.3,2.2,3.6,3.2
						c-1.7-0.3-3.2-1.1-4.6-2c-1.4-0.9-2.7-1.8-4-2.9c-1.2-1.1-2.4-2.2-3.5-3.4C788.5,120.8,787.4,119.5,786.5,118.1z"/>
				</g>
				<path class="st51" d="M795,133.1c-3.2-1.7-6.5-0.6-8.7,0.6c2.7,1.5,5.4,2.7,7.5,3.5C797.2,136.8,798.3,134.8,795,133.1z"/>
			</g>
			<path class="st24" d="M789.8,136c0,0-8.9,2.5-11,5.6c-1.9,2.9,2.3,4.9,7.2,2.5c1.5-0.7,3-1.4,4.6-2l1.1-0.4L789.8,136z"/>
			<g class="st52">
				<path class="st24" d="M835.2,108.9c0,0-0.1-1.1,0-2.7c-0.9,2.7-3.7,7.4-10.1,6.5c0,0,6.1,1.5,3.9,9.9c-1,4,0.6,5.8,2.5,6.6
					C830,114,835.2,108.9,835.2,108.9z"/>
			</g>
			<g>
				<path class="st38" d="M830,80.7c0,0,1.9,6.5-2,13.1c-2.6,4.3-3.7,14.1,1,15.3c4.3,1.1,8.8-0.1,11.2-2.8c0.9-1,1.6-4.4-0.6-7.6
					c-2.2-3.2,1.7-9.6-0.6-13.3c-2.3-3.7,1.4-8-3.2-15.1c-1.7-2.6-1.6-10.3-14-6.1c0,0-2.7,1.9-0.8,2.8s2.7,1.9,3.2,3.6
					s3.6,5.1,5.9,5.5C832.3,76.5,830,80.7,830,80.7z"/>
			</g>
			<path class="st39" d="M788.2,136.8c0,0-6,2-5.5,5.1c0.5,3,7.8-0.1,7.8-0.1L788.2,136.8z"/>
			<polygon class="st47" points="798.8,139.9 802.9,142.5 810,137.8 802.4,132.6 			"/>
			<path class="st53" d="M787.1,136.4l29.1-18.7c0,0,7.5-5.5,12.4,0.9c0,0,4.3,6,3.4,15.8c0,0-1.2,6.2-7.4,8.4
				c-0.9,0.3-1.9,0.5-2.9,0.4c-2.7-0.2-8.6-1.4-12.1-7.1l-19.3,6.7L787.1,136.4z"/>
			<g class="st49">
				<path class="st50" d="M789.4,134.9c3.2-2.5,6.6-4.8,10-7s6.9-4.3,10.5-6.2c-3.2,2.5-6.6,4.8-10,7
					C796.5,131,793.1,133.1,789.4,134.9z"/>
			</g>
			<g class="st54">
				<path class="st53" d="M828.6,118.6c-1-1.3-2.1-2.1-3.2-2.5c0.4,0.4,0.8,0.8,1.2,1.2c0,0,4.3,6,3.4,15.8c0,0-1.3,7.1-8.8,8.8
					c0,0-3.9,0.2-7.9-1.9c3,2.3,6.4,2.9,8.3,3.1c1.1,0.1,2.2,0,3.2-0.4c6.1-2.3,7.3-8.4,7.3-8.4
					C832.9,124.6,828.6,118.6,828.6,118.6z"/>
			</g>
			<g class="st49">
				<path class="st50" d="M822.7,131.2c-0.9,0.8-2,1.4-3,2c-1,0.5-2.1,1-3.2,1.4c-1.1,0.4-2.2,0.8-3.3,1c-1.1,0.3-2.3,0.5-3.5,0.5
					c0.9-0.8,2-1.4,3-2c1-0.5,2.1-1,3.2-1.4c1.1-0.4,2.2-0.8,3.3-1C820.3,131.4,821.4,131.2,822.7,131.2z"/>
			</g>
			<path class="st24" d="M809.5,138.1l-5.6,3.8c3,1.7,7.5,4,9.9,3.7C817.5,145.1,815.7,140,809.5,138.1z"/>
			<path class="st39" d="M808.8,138.6l-4.4,3c2.4,1.4,5.6,2.9,7,1.8C813.3,141.9,810.3,139.5,808.8,138.6z"/>
		</g>
		<g>
			<g>
				<g>
					<g>
						<path class="st38" d="M837.1,124.8L837.1,124.8c0.3,0,0.5-0.2,0.5-0.4c0-0.4,0-0.9,0.1-1.3c0.5-5.8,3.6-10.3,6.9-10.1
							c3.3,0.3,5.6,5.2,5.1,11c0,0.4-0.1,0.7-0.1,1.1c0,0.2,0.1,0.4,0.3,0.5c0.2,0,0.4-0.1,0.5-0.3c0.1-0.4,0.1-0.7,0.1-1.1
							c0.5-6.3-2.1-11.6-5.9-11.9c-3.7-0.3-7.2,4.5-7.7,10.8c0,0.5-0.1,0.9-0.1,1.4C836.8,124.6,836.9,124.8,837.1,124.8z"/>
					</g>
					<path class="st55" d="M834.1,123.7c0.2,0,2.4,0.2,2.5,0.2h0.1c0.3,0,11,0.7,12.7,0.8l0,0h0.4h0.1l0,0l0.9,0.1l0,0l0,0l0,0h0.1
						h0.4h0.4h0.2h0.2c1.3,0.1,2.6,0.1,3.8,0.1h0.3l0,0c0.1,0,0.1,0,0.1,0h0.2c0,0,0,0,0.1,0c0,0,0.1,0,0.1,0.1l0,0l0,0h-0.1h-0.1
						h-0.1c-0.4,0.1-0.9,0.2-1.4,0.3h-0.3h-0.2h-0.1h-0.2c-0.4,0.1-0.8,0.1-1.2,0.2h-0.3h-0.1h-0.1l0,0l0,0l0,0h-0.1l-1.3,0.7
						c-0.2,0-8.7-1-10.8-1.2c-1.1-0.1-3.8-0.3-3.8-0.3l-4.4-0.4L834.1,123.7z"/>
				</g>
				<path class="st56" d="M856.8,125.1c0,0.1,0.1,0.1,0,0.2l-0.1,0.3l-0.1,0.5c-0.4,2-0.5,4.1-0.5,5.6c0,2.1,0.1,4.1,0.3,6.1
					c0.1,0.8,0.2,1.6,0.3,2.4l0,0l0,0c0.1,0.2,0.1,0.5,0.1,0.7v0.1v0.3l0.1,0.6c0.1,0.5,0.2,1.2,0.3,1.7c0,0.1,0,0.1-0.1,0.2
					c0,0,0,0-0.1,0.1c-0.5,0.2-1.1,0.4-1.7,0.5c-0.4,0.1-0.7,0.1-1,0.2h-0.1h-0.1c-0.2,0-0.4,0-0.5,0h-0.1l0,0l0,0l0,0l0,0h-0.1
					h-0.1h-0.1h-0.1c-0.1,0-0.1,0-0.1,0l-0.1-0.1c-0.1-0.6-0.1-1.1-0.2-1.7l-0.1-0.6V142v-0.1v-0.2v-0.2c-0.1-1.1-0.3-2.2-0.4-3.2
					c-0.1-1-0.2-2-0.2-3.1v-0.4v-0.1c0-0.8-0.1-1.6-0.1-2.4c-0.1-2,0-4.3,0.5-6.5v-0.1l0.1-0.1l0,0l0,0h0.1h0.3
					c0.4-0.1,0.8-0.1,1.2-0.2h0.2h0.1h0.2h0.3c0.5-0.1,1-0.2,1.4-0.3h0.1h0.1h0.1l0,0l0,0C856.8,125.1,856.8,125.1,856.8,125.1"/>
				<g>
					<g>
						<path class="st7" d="M852.7,125.7L852.7,125.7L852.7,125.7L852.7,125.7c-0.6,2.3-0.7,4.6-0.6,6.6c0,0.8,0.1,1.6,0.1,2.4v0.1
							v0.4c0,1,0.1,2,0.2,3.1c0.1,1.1,0.2,2.1,0.4,3.2v0.2v0.2v0.1v0.2l0.1,0.6c0.1,0.6,0.1,1.1,0.2,1.7c0,0,0,0.1,0.1,0.1
							c0,0,0,0,0.1,0h0.1h0.1h0.1h0.1l0,0l0,0c-0.3,0-0.7,0-1.1,0c-0.3,0-0.6,0-0.8-0.1c-0.7-0.1-1.3-0.1-2-0.2
							c-0.8-0.1-1.6-0.1-2.4-0.2l-0.8-0.1l-0.8-0.1l-1.1-0.1l-0.9-0.1h-0.5h-0.5h-0.1h-0.1c-0.3,0-0.6-0.1-0.9-0.1l-1.9-0.2
							c-2.7-0.2-5.6-0.5-8.4-1.1c-0.1,0-0.1,0-0.1-0.1l0,0c0,0-0.1,0-0.1-0.1l-0.1-0.1c0.1-0.6,0.2-1,0.3-1.5s0.2-0.9,0.2-1.5
							c0.1-1,0.2-1.9,0.3-3c0.1-0.8,0.1-1.6,0.2-2.4v-0.7v-0.2v-0.2c0-0.4,0.1-0.7,0.1-1.1c0-0.5,0.1-1,0.1-1.5c0-1.4,0-2.7-0.1-3.9
							c0-0.4-0.1-0.9-0.1-1.3v-0.1c0-0.1,0.1-0.2,0.2-0.2h0.1C832.4,124.6,852.7,125.7,852.7,125.7"/>
						<polygon class="st0" points="844.7,131.6 841.5,127.8 840.4,132.7 835.8,134.6 840.1,137.1 840.5,142.1 844.2,138.7 
							849.1,139.9 847.1,135.3 849.7,131.1 						"/>
						<path class="st57" d="M835.7,140.6c1.7-4.6,8.1-2.2,8.2-9c0.1-3.8,4.6-4.7,8.5-4.8c-0.4,1.9-0.4,3.9-0.3,5.6
							c0,0.8,0.1,1.6,0.1,2.4v0.1v0.4c0,1,0.1,2,0.2,3.1c0.1,1.1,0.2,2.1,0.4,3.2v0.2v0.2v0.1v0.2l0.1,0.6c0.1,0.6,0.1,1.1,0.2,1.7
							c0,0,0,0.1,0.1,0.1c0,0,0,0,0.1,0h0.1h0.1h0.1h0.1l0,0l0,0c-0.3,0-0.7,0-1.1,0c-0.3,0-0.6,0-0.8-0.1c-0.7-0.1-1.3-0.1-2-0.2
							c-0.8-0.1-1.6-0.1-2.4-0.2l-0.8-0.1l-0.8-0.1l-1.1-0.1l-0.9-0.1h-0.5h-0.5h-0.1h-0.1c-0.3,0-0.6-0.1-0.9-0.1l-1.9-0.2
							c-1.6-0.1-3.3-0.3-5-0.5C835,142.4,835.3,141.6,835.7,140.6z"/>
					</g>
					<g>
						<path class="st58" d="M835.4,126.8c0.1,0,0.1,0,0.2,0c0.3,0,0.5-0.2,0.5-0.5c0-0.7,0-1.5,0.1-2.2c0.6-6.8,4.2-12.1,8-11.8
							c3.9,0.3,6.6,6.1,6,12.9c-0.1,0.8-0.2,1.6-0.3,2.3c0,0.3,0.1,0.5,0.4,0.6c0.3,0,0.5-0.1,0.6-0.4c0.2-0.8,0.3-1.6,0.3-2.4
							c0.6-7.3-2.5-13.6-6.9-14s-8.5,5.3-9.1,12.7c-0.1,0.8-0.1,1.6-0.1,2.3C835.1,126.6,835.2,126.7,835.4,126.8z"/>
					</g>
				</g>
			</g>
			<g>
				<g>
					<g>
						<path class="st38" d="M840.7,127c0.2,0,0.3-0.1,0.4-0.3c0-0.3,0.1-0.7,0.1-1c0.3-5.9-2.3-10.9-5.8-11.1s-6.7,4.5-7,10.4
							c0,0.4,0,0.9,0,1.3c0,0.2,0.2,0.4,0.4,0.4s0.4-0.2,0.4-0.4c0-0.4,0-0.8,0-1.3c0.3-5.5,3.1-9.9,6.2-9.7
							c3.1,0.2,5.4,4.8,5.1,10.3c0,0.3,0,0.7-0.1,1C840.3,126.7,840.4,126.9,840.7,127C840.6,127,840.7,127,840.7,127z"/>
					</g>
					<path class="st59" d="M825.7,125.5c0.1,0,2.3,0.1,2.4,0.1h0.1c0.3,0,10.4,0.4,12,0.5l0,0h0.3h0.1l0,0h0.9l0,0l0,0l0,0h0.1h0.4
						h0.4h0.2h0.2c1.2,0,2.5,0,3.6,0h0.3l0,0c0.1,0,0.1,0,0.1,0h0.2c0,0,0,0,0.1,0h0.1l0,0l0,0h-0.1H847h-0.1
						c-0.4,0.1-0.8,0.2-1.3,0.3l-0.2,0.1h-0.2h-0.1h-0.2c-0.4,0.1-0.7,0.1-1.1,0.2h-0.3h-0.1h-0.1l0,0l0,0l0,0h-0.1l-1.2,0.7
						c-0.2,0-8.3-0.8-10.2-0.9c-1.1-0.1-3.6-0.2-3.6-0.2l-4.2-0.2L825.7,125.5z"/>
				</g>
				<path class="st60" d="M847.2,126.3C847.2,126.4,847.3,126.4,847.2,126.3l-0.1,0.4l-0.1,0.5c-0.3,1.9-0.3,3.9-0.3,5.4
					c0.1,2,0.2,3.9,0.4,5.7c0.1,0.7,0.2,1.5,0.3,2.3l0,0l0,0c0.1,0.2,0.1,0.4,0.1,0.6v0.1l0.1,0.3l0.1,0.6c0.1,0.5,0.2,1.1,0.3,1.6
					c0,0.1,0,0.1-0.1,0.2c0,0,0,0-0.1,0.1c-0.5,0.2-1,0.4-1.6,0.6c-0.3,0.1-0.6,0.1-0.9,0.2h-0.1h-0.1c-0.2,0-0.3,0-0.5,0l0,0l0,0
					l0,0l0,0l0,0h-0.1h-0.1l0,0h-0.1h-0.1l-0.1-0.1c-0.1-0.5-0.2-1-0.2-1.6l-0.1-0.5v-0.2v-0.1v-0.2V142c-0.2-1-0.3-2-0.4-3
					c-0.1-1-0.2-1.9-0.3-2.9v-0.4v-0.1c-0.1-0.8-0.1-1.5-0.2-2.3c-0.1-1.8-0.1-4,0.3-6.2V127l0.1-0.1l0,0l0,0h0.1h0.3
					c0.4-0.1,0.7-0.1,1.1-0.2h0.2h0.1h0.2l0.2-0.1c0.5-0.1,0.9-0.2,1.3-0.3h0.1h0.1L847.2,126.3L847.2,126.3L847.2,126.3
					C847.1,126.2,847.1,126.3,847.2,126.3"/>
				<g>
					<g>
						<path class="st3" d="M843.3,127L843.3,127L843.3,127L843.3,127c-0.6,2.2-0.5,4.4-0.4,6.3c0,0.8,0.1,1.5,0.2,2.3v0.1v0.4
							c0.1,1,0.2,1.9,0.3,2.9s0.3,2,0.4,3v0.2v0.2v0.1v0.2l0.1,0.5c0.1,0.5,0.2,1,0.2,1.6c0,0,0,0.1,0.1,0.1c0,0,0,0,0.1,0h0.1h0.1
							h0.1h0.1l0,0l0,0c-0.3,0-0.6,0-1.1,0c-0.3,0-0.5,0-0.8,0c-0.6,0-1.3-0.1-1.9-0.1c-0.8,0-1.5-0.1-2.3-0.1h-0.8h-0.7l-1.1-0.1
							l-0.8-0.1h-0.5h-0.5h-0.1H834c-0.3,0-0.6,0-0.9-0.1l-1.8-0.1c-2.6-0.2-5.3-0.4-8-0.8c-0.1,0-0.1,0-0.1-0.1l0,0h-0.1l-0.1-0.1
							c0.1-0.5,0.2-1,0.3-1.4c0.1-0.5,0.1-0.9,0.2-1.4c0.1-0.9,0.2-1.8,0.2-2.9c0-0.7,0.1-1.5,0.1-2.2v-0.7v-0.2v-0.2
							c0-0.4,0-0.7,0-1c0-0.5,0-1,0-1.4c0-1.3-0.1-2.6-0.2-3.7c0-0.4-0.1-0.8-0.2-1.2v-0.1c0-0.1,0.1-0.1,0.2-0.2l0,0
							C824.1,126.4,843.3,127,843.3,127"/>
						<polygon class="st0" points="834.2,132.4 830.4,130.7 831.3,134.8 828.5,137.9 832.7,138.2 834.7,141.9 836.4,138 
							840.5,137.2 837.3,134.4 837.8,130.3 						"/>
						<path class="st61" d="M827.5,141.4c1.5-4.4,7.6-2.3,7.6-8.7c0-3.6,4.2-4.6,7.9-4.7c-0.3,1.9-0.2,3.7-0.2,5.3
							c0,0.8,0.1,1.5,0.2,2.3v0.1v0.4c0.1,1,0.2,1.9,0.3,2.9s0.3,2,0.4,3v0.2v0.2v0.1v0.2l0.1,0.5c0.1,0.5,0.2,1,0.2,1.6
							c0,0,0,0.1,0.1,0.1c0,0,0,0,0.1,0h0.1h0.1h0.1h0.1l0,0l0,0c-0.3,0-0.6,0-1.1,0c-0.3,0-0.5,0-0.8,0c-0.6,0-1.3-0.1-1.9-0.1
							c-0.8,0-1.5-0.1-2.3-0.1h-0.8H837l-1.1-0.1l-0.8-0.1h-0.5h-0.5H834h-0.1c-0.3,0-0.6,0-0.9-0.1l-1.8-0.1
							c-1.6-0.1-3.2-0.2-4.8-0.4C826.9,143.1,827.2,142.4,827.5,141.4z"/>
					</g>
					<g>
						<path class="st58" d="M841.1,129.3c0.2,0,0.4-0.2,0.4-0.4c0.1-0.8,0.2-1.5,0.3-2.3c0.2-3.3-0.4-6.5-1.6-8.9
							c-1.3-2.5-3.1-4-5.2-4.1c-4.2-0.2-7.9,5.2-8.3,12.2c0,0.7,0,1.5,0,2.2c0,0.2,0.2,0.4,0.5,0.4l0,0c0.2,0,0.4-0.2,0.4-0.5
							c0-0.7,0-1.4,0-2.1c0.4-6.5,3.7-11.6,7.3-11.3c1.7,0.1,3.3,1.4,4.5,3.6c1.2,2.3,1.7,5.3,1.5,8.5c0,0.7-0.1,1.5-0.2,2.2
							C840.6,129,840.7,129.3,841.1,129.3C841,129.3,841,129.3,841.1,129.3z"/>
					</g>
				</g>
			</g>
		</g>
		<path class="st0" d="M892.2,44.9c-0.3,0-0.6,0.3-0.6,0.6v0.1h-0.4c-0.1,0-0.1,0.1-0.1,0.1v1.5c0,0.1,0.1,0.1,0.1,0.1l0,0h2
			c0.1,0,0.1-0.1,0.1-0.1l0,0v-1.5c0-0.1-0.1-0.1-0.1-0.1l0,0h-0.4v-0.1C892.8,45.2,892.5,44.9,892.2,44.9L892.2,44.9z M891.8,45.5
			c0-0.2,0.2-0.4,0.4-0.4s0.4,0.2,0.4,0.4v0.1h-0.7v-0.1H891.8z M893,45.9v1.2h-1.7v-1.2h0.2v0.2h0.2v-0.2h0.7v0.2h0.2v-0.2H893z"/>
		<g>
			<path class="st0" d="M851.9,44.7c0,0.1-0.1,0.2-0.2,0.2c-0.1,0-0.2-0.1-0.2-0.2c0-0.1,0.1-0.2,0.2-0.2
				C851.9,44.5,851.9,44.6,851.9,44.7z M851.6,44.7C851.6,44.8,851.7,44.8,851.6,44.7h0.2C851.8,44.6,851.7,44.6,851.6,44.7
				C851.7,44.6,851.6,44.6,851.6,44.7z M851.7,44.8L851.7,44.8v-0.2h0.1c0,0,0.1,0,0.1,0.1C851.9,44.7,851.9,44.8,851.7,44.8
				l0.2,0.1L851.7,44.8L851.7,44.8L851.7,44.8L851.7,44.8L851.7,44.8z M851.8,44.7L851.8,44.7L851.8,44.7L851.8,44.7L851.8,44.7
				L851.8,44.7L851.8,44.7z"/>
		</g>
		<g>
			<path class="st0" d="M849.5,48.2C849.5,48.2,849.6,48.2,849.5,48.2c0.2-0.1,0.3-0.3,0.4-0.9h-0.2
				C849.6,47.9,849.4,48.1,849.5,48.2L849.5,48.2L849.5,48.2z"/>
			<path class="st0" d="M849.9,47.8c0,0.1,0,0.3,0,0.4c0.1,0,0.1,0,0.2,0c0-0.1,0-0.5,0-0.9h-0.2C849.9,47.5,849.9,47.6,849.9,47.8z
				"/>
			<g>
				<path class="st0" d="M849.8,48.3c-1.2,0-2.1-0.9-2.1-2.1c0-1.2,0.9-2.1,2.1-2.1s2.1,0.9,2.1,2.1
					C851.9,47.4,850.9,48.3,849.8,48.3z M849.8,44.2c-1.1,0-2,0.9-2,2s0.9,2,2,2s2-0.9,2-2S850.8,44.2,849.8,44.2z"/>
			</g>
			<path class="st0" d="M848.3,47C848.3,46.9,848.3,46.9,848.3,47L848.3,47L848.3,47c-0.1-0.2-0.1-0.3-0.1-0.5c0-0.1,0-0.2,0-0.2
				c0-0.2-0.1-0.3,0.1-0.4c0,0,0,0,0.1,0c0-0.1-0.1-0.1-0.1-0.1h-0.1c-0.3,0.1-0.2,0.4-0.2,0.6l0,0c0,0.1,0,0.1,0,0.2
				C848,46.6,848,46.8,848.3,47L848.3,47L848.3,47z"/>
			<path class="st0" d="M849,44.7C849.1,44.7,849.1,44.7,849,44.7c0.1,0,0.2-0.1,0.2-0.1s0.1-0.1,0.2,0c0.1,0,0.2,0,0.3,0l0,0h0.1
				c0,0,0.1,0,0.2,0.1l0.1,0.1c0.1,0,0.1-0.1,0.1-0.1c0-0.1-0.1-0.1-0.1-0.2l0,0l0,0c-0.1-0.1-0.2-0.1-0.3-0.1s-0.1,0-0.1,0
				c-0.1,0-0.1,0-0.2,0c-0.2,0-0.4,0-0.4,0l0,0c-0.1,0.1-0.2,0.2-0.2,0.3C849,44.7,849,44.7,849,44.7z"/>
			<path class="st0" d="M851.5,46.2c-0.1-0.3,0-0.3-0.1-0.6l-0.1-0.1l0,0c0,0-0.1-0.1-0.2-0.1c0,0,0,0.1-0.1,0.1
				c0.1,0,0.1,0,0.1,0.1c0.1,0.1,0.1,0.2,0.1,0.3s0,0.2,0,0.3s0.1,0.2-0.1,0.3l-0.1,0.1c0,0.1,0.1,0.1,0.1,0.1
				c0.1,0,0.1-0.1,0.2-0.1c0-0.1,0.1-0.1,0.1-0.2C851.6,46.4,851.6,46.3,851.5,46.2z"/>
			<g>
				<path class="st0" d="M850.1,45.6c-0.1,0-0.4,0-0.5,0.1c0,0,0,0,0,0.1c0-0.1-0.1-0.1-0.2-0.1c-0.1,0-0.1,0-0.2,0
					c-0.1,0-0.1,0.1-0.1,0.1c-0.1,0.1,0,0.3,0.1,0.4c0.1,0.1,0.1,0.1,0.2,0.2c-0.1,0-0.1,0.1-0.1,0.1c0,0.1,0,0.1,0,0.2
					s0.1,0.1,0.2,0.1c0.1,0,0.4,0,0.5-0.1c0,0,0,0,0.1-0.1c0.1,0.1,0.1,0.1,0.2,0.1c0.1,0,0.1-0.1,0.1-0.3l0,0
					c0-0.1-0.1-0.3-0.3-0.4c0.1-0.1,0.1-0.1,0.1-0.2l0,0C850.2,45.7,850.2,45.6,850.1,45.6z M849.8,46.6c-0.1,0.1-0.3,0.1-0.4,0.1
					c-0.1,0-0.1,0-0.1,0l0,0c0,0,0.1-0.1,0.3-0.1l0,0C849.7,46.5,849.7,46.5,849.8,46.6C849.8,46.5,849.8,46.5,849.8,46.6
					C849.9,46.5,849.9,46.5,849.8,46.6z M850.2,46.4c0,0.1,0,0.2-0.1,0.2c0,0-0.1-0.1-0.2-0.2v-0.1v-0.1
					C850.1,46.1,850.2,46.2,850.2,46.4z M849.9,46.2C849.9,46.3,849.8,46.3,849.9,46.2h-0.2H849.9C849.8,46.1,849.9,46.1,849.9,46.2
					z M849.5,46c0,0.1-0.1,0.1-0.1,0.2v0.1c-0.1,0-0.1-0.1-0.2-0.1c-0.1-0.1-0.1-0.3-0.1-0.3s0,0,0.1-0.1c0,0,0,0,0.1,0
					C849.4,45.8,849.5,45.9,849.5,46z M850.1,45.7c0,0.1-0.1,0.1-0.2,0.2l0,0h-0.1l0,0c0-0.1,0-0.1,0.1-0.1
					C849.9,45.7,850.1,45.7,850.1,45.7z"/>
				<path class="st0" d="M850.1,44.7c-0.1,0.1-0.2,0.3-0.3,0.4h-0.1h-0.1c-0.1-0.1-0.2-0.3-0.5-0.4c-0.3-0.1-0.4,0.1-0.5,0.3l0,0
					c0,0.1-0.1,0.1-0.1,0.1c-0.2,0.1-0.3,0.3-0.2,0.6c0,0.1,0.1,0.3,0.5,0.5v0.1l0,0v0.1c-0.2,0.1-0.4,0.3-0.4,0.6
					c0,0.2,0.2,0.4,0.3,0.4s0.1,0.1,0.1,0.1c0.1,0.1,0.2,0.2,0.3,0.2c0.1,0.1,0.3,0.1,0.4,0c0.2-0.1,0.4-0.4,0.4-0.5h0.1
					c0.1,0,0.1,0,0.1,0s0.1,0.1,0.1,0.2c0.1,0.1,0.3,0.2,0.5,0.2c0.1,0,0.1,0,0.2-0.1c0.1,0,0.1-0.1,0.2-0.2
					c0.1-0.3,0.3-0.2,0.4-0.4c0,0,0-0.1,0-0.2l0,0c0-0.2-0.1-0.4-0.5-0.6c0,0,0-0.1,0-0.2l0,0l0,0c0.3-0.3,0.4-0.5,0.4-0.6l0,0l0,0
					c0-0.2-0.1-0.3-0.1-0.3l-0.1-0.1c-0.1,0-0.1-0.1-0.2-0.1c-0.1-0.2-0.3-0.2-0.3-0.2l0,0C850.4,44.5,850.2,44.6,850.1,44.7z
					 M848.5,45.9c-0.1-0.1-0.2-0.2-0.2-0.2l0,0c0-0.2,0-0.3,0.2-0.4c0.1,0,0.1-0.1,0.2-0.2c0.1-0.2,0.2-0.3,0.4-0.2s0.3,0.3,0.4,0.3
					c-0.1,0.1-0.1,0.2-0.2,0.2l0,0c-0.1,0-0.1,0-0.2,0l0,0c-0.1,0.1-0.2,0.2-0.2,0.4c0,0.1,0,0.2,0,0.3l0,0
					C848.7,46,848.6,46,848.5,45.9z M849.2,47.6L849.2,47.6c-0.2,0.1-0.4,0-0.5-0.2l0,0c0,0-0.1-0.1-0.2-0.2c0,0-0.2-0.1-0.2-0.3
					c0-0.1,0.1-0.3,0.3-0.4l0.1,0.1l0.1,0.1v0.1c0,0.1,0.1,0.2,0.2,0.3c0.1,0,0.3,0,0.4,0c0,0,0,0,0,0.1l0,0
					C849.6,47.2,849.5,47.5,849.2,47.6z M851.2,46.9c0,0.1-0.1,0.2-0.2,0.3c-0.1,0.1-0.1,0.1-0.2,0.2c0,0.1-0.1,0.2-0.3,0.2
					c-0.1,0-0.3,0-0.5-0.3c0.1-0.1,0.2-0.2,0.2-0.3c0.1,0,0.1,0,0.2,0l0,0c0.1,0,0.2-0.1,0.2-0.4l0,0c0-0.1,0-0.2,0-0.3l0,0
					C851,46.5,851.2,46.7,851.2,46.9z M850.7,46C850.7,46,850.7,46.1,850.7,46C850.7,46.1,850.7,46.1,850.7,46L850.7,46l-0.2,0.1
					h-0.1v0.1c0,0,0.1,0.2,0.1,0.3s0,0.2-0.1,0.2s-0.1,0-0.1,0s0-0.1-0.1-0.1s-0.1,0-0.1,0.1c0,0-0.1,0.3-0.3,0.4h-0.1l0,0l0,0l0,0
					c0,0-0.1,0-0.1-0.1l0,0v-0.1h-0.1c0,0-0.3,0.1-0.4,0.1c-0.1,0-0.1-0.1-0.1-0.1v-0.1c0,0,0,0,0-0.1c0,0,0-0.1-0.1-0.1
					s-0.1-0.1-0.2-0.1c-0.1-0.1-0.1-0.1-0.1-0.2l0,0c0-0.1,0-0.1,0-0.1h0.1h0.1v-0.1c0,0-0.1-0.2-0.1-0.3s0-0.2,0.1-0.2h0.1v0.1
					c0,0,0,0.1,0.1,0.1c0,0,0.1,0,0.1-0.1c0,0,0.1-0.1,0.1-0.2c0.1-0.1,0.1-0.1,0.2-0.2h0.1v0.1l0,0v0.1h0.1c0.1,0,0.3-0.1,0.5,0
					l0.1,0.1c0,0.1,0,0.1-0.1,0.1l0,0c0,0,0,0,0,0.1v0.1l0,0C850.4,45.8,850.7,45.9,850.7,46z M850.5,44.7c0,0,0.1,0.1,0.2,0.2
					c0.1,0.1,0.1,0.1,0.2,0.2l0,0c0,0,0.1,0,0.1,0.1s0.1,0.1,0.1,0.2c0,0.1-0.1,0.3-0.3,0.5c0-0.1-0.1-0.1-0.2-0.1
					c0,0-0.1,0-0.1-0.1s0-0.1,0-0.2c0-0.1,0-0.1-0.1-0.2c-0.2-0.1-0.4-0.1-0.5,0c0,0,0,0,0-0.1s0.1-0.2,0.2-0.3
					C850.2,44.7,850.4,44.7,850.5,44.7z"/>
			</g>
		</g>
		<text transform="matrix(0.9962 0 0 1 853.4141 48.2061)" class="st0 st62 st63">ZeZ</text>
		<text transform="matrix(1 0 0 1 861.9629 48.2063)" class="st0 st62 st64">aWar</text>
		<text transform="matrix(1 0 0 1 869.9492 45.2551)" class="st0 st62 st65">.com</text>
	</g>
</g>
</svg>
