<?xml version="1.0" encoding="utf-8"?>
<!-- Generator: Adobe Illustrator 24.0.2, SVG Export Plug-In . SVG Version: 6.00 Build 0)  -->
<svg version="1.1" id="Layer_1" xmlns="http://www.w3.org/2000/svg" xmlns:xlink="http://www.w3.org/1999/xlink" x="0px" y="0px"
	 viewBox="0 0 204.5 150" style="enable-background:new 0 0 204.5 150;" xml:space="preserve">
<style type="text/css">
	.st0{opacity:0.36;fill:#B5B5B5;enable-background:new    ;}
	.st1{fill:#F0CF69;}
	.st2{opacity:0.54;}
	.st3{opacity:0.51;fill:#F0CF69;enable-background:new    ;}
	.st4{fill:#F08699;}
	.st5{fill:#94D1F0;}
	.st6{fill:#D9AA8B;}
	.st7{fill:#E0B79B;}
	.st8{opacity:0.24;fill:#D3B59D;enable-background:new    ;}
	.st9{opacity:0.43;fill:#D3B59D;enable-background:new    ;}
	.st10{fill:#FFA7B7;}
	.st11{fill:#424242;}
	.st12{opacity:0.5;fill:#424242;enable-background:new    ;}
	.st13{fill:#A6A6A6;}
	.st14{opacity:0.57;fill:#A6A6A6;enable-background:new    ;}
	.st15{opacity:0.41;fill:#424242;enable-background:new    ;}
	.st16{fill:#FFFFFF;}
	.st17{fill:#FF4438;}
	.st18{fill:none;}
	.st19{font-family:'Montserrat-Bold';}
	.st20{font-size:1.5296px;}
	.st21{font-family:'Montserrat-Regular';}
	.st22{opacity:0.39;fill:#E6E6E6;enable-background:new    ;}
	.st23{fill:#164185;}
	.st24{font-family:'ArialMT';}
	.st25{font-size:3.475px;}
	.st26{opacity:0.17;fill:#E6E6E6;enable-background:new    ;}
	.st27{opacity:0.56;fill:#E6E6E6;enable-background:new    ;}
	.st28{opacity:0.29;}
	.st29{opacity:0.26;}
	.st30{fill:#5B9ABA;}
	.st31{opacity:0.25;}
	.st32{fill:#72C0E8;}
	.st33{fill:#69B1D6;}
	.st34{opacity:0.31;fill:#5B9ABA;enable-background:new    ;}
	.st35{font-size:2.053px;}
	.st36{fill:#FD9CA7;}
	.st37{fill:#381706;}
	.st38{fill:#FFC09F;}
	.st39{opacity:0.49;fill:#FFC09F;enable-background:new    ;}
	.st40{opacity:0.38;fill:#A6A6A6;enable-background:new    ;}
	.st41{opacity:0.71;fill:#A6A6A6;enable-background:new    ;}
	.st42{opacity:0.58;fill:#FFC09F;enable-background:new    ;}
	.st43{opacity:0.46;fill:#164185;enable-background:new    ;}
	.st44{opacity:0.19;fill:#164185;enable-background:new    ;}
	.st45{opacity:0.58;}
	.st46{fill:#E36A7B;}
	.st47{opacity:0.17;fill:#FE8898;enable-background:new    ;}
	.st48{opacity:0.5;}
	.st49{fill:#FE8898;}
	.st50{opacity:0.42;fill:#FE7A8B;enable-background:new    ;}
	.st51{opacity:0.19;}
	.st52{fill:#FE7A8B;}
	.st53{opacity:0.28;}
	.st54{fill:#67B8E0;}
	.st55{fill:#7FCAF0;}
	.st56{opacity:0.19;fill:#94D1F0;enable-background:new    ;}
	.st57{fill:#5C2B13;}
	.st58{fill:#B29A4F;}
	.st59{fill:#D5B85D;}
	.st60{opacity:0.1;fill:#F0CF69;enable-background:new    ;}
	.st61{font-family:'RelishPro-Regular6';}
	.st62{font-size:5.404px;}
	.st63{font-size:5.3834px;}
	.st64{font-size:2.0968px;}
</style>
<g>
	<ellipse class="st0" cx="88.7" cy="142.4" rx="63.4" ry="7.7"/>
	<g>
		<g>
			<g>
				<path class="st1" d="M25,125.8c-0.5-0.8-1.1-1.6-2-2s-2.1-0.1-2.4,0.9c-0.2,0.7,0.2,1.4,0.4,2c0.2,0.7,0.2,1.6-0.5,1.8
					c-0.8,0.2-1.4-0.7-1.6-1.5c-0.7-2-1.8-3.8-3.1-5.5c-0.6-0.7-1.3-1.4-2.2-1.6s-2,0.5-1.9,1.4c0.1,0.8,0.9,1.5,0.6,2.3
					c-0.2,0.5-0.9,0.6-1.3,0.4s-0.8-0.6-1.2-1c-1.3-1.5-2.7-3-4.6-3.6c-1.9-0.5-4.4,0.5-4.6,2.4c-0.2,1.4,1,2.9,2.4,3
					c-1.2,0.2-1.8,1.6-1.4,2.7c0.4,1.1,1.5,1.9,2.6,2.1c1.1,0.3,2.3,0.2,3.5,0.1c0.7,0,1.4-0.1,1.9,0.3c0.6,0.3,0.9,1.1,0.5,1.7
					c-0.2,0.3-0.6,0.4-0.9,0.7c-0.8,0.6-0.9,1.9-0.4,2.8c0.5,0.9,1.4,1.5,2.3,1.9c2.1,0.9,4.6,1.2,6.9,0.6c0.5-0.1,0.9-0.2,1.4-0.2
					c0.5,0.1,0.9,0.5,0.9,0.9c0,0.3-0.2,0.6-0.3,0.9c-0.1,0.8,1.1,1.1,2,1l0,0c2.5-0.2,4.9-0.4,7.4-0.6c1.8-0.1,4.9,0.2,3.5-2.3
					C30.6,133.6,27.7,129.8,25,125.8z"/>
			</g>
			<g class="st2">
				<g>
					<path class="st1" d="M21.8,128.1c0.7-0.2,0.7-1.1,0.5-1.8c-0.2-0.7-0.6-1.3-0.4-2c0.1-0.2,0.2-0.4,0.3-0.5
						c-0.7,0-1.3,0.4-1.5,1c-0.2,0.7,0.2,1.4,0.4,2c0.1,0.4,0.2,0.9,0,1.3C21.3,128.1,21.5,128.2,21.8,128.1z"/>
				</g>
				<g>
					<path class="st1" d="M30.8,139.5c-2.5,0.2-4.9,0.4-7.4,0.6c-0.8,0.1-2-0.2-2-1c0-0.3,0.3-0.6,0.3-0.9c0-0.5-0.4-0.9-0.9-0.9
						c-0.5-0.1-0.9,0.1-1.4,0.2c-2.3,0.5-4.7,0.3-6.9-0.6c-0.9-0.4-1.8-1-2.3-1.9s-0.4-2.1,0.4-2.8c0.3-0.2,0.6-0.4,0.9-0.7
						c0.4-0.5,0-1.4-0.5-1.7c-0.6-0.3-1.3-0.3-1.9-0.3c-1.2,0.1-2.4,0.2-3.5-0.1s-2.3-1-2.6-2.1c-0.4-1.1,0.3-2.6,1.4-2.7
						c-1.4-0.1-2.7-1.6-2.4-3c0.1-0.8,0.7-1.5,1.4-2c-1.3,0.3-2.4,1.2-2.5,2.4c-0.2,1.4,1,2.9,2.4,3c-1.2,0.2-1.8,1.6-1.4,2.7
						c0.4,1.1,1.5,1.9,2.6,2.1c1.1,0.3,2.3,0.2,3.5,0.1c0.7,0,1.4-0.1,1.9,0.3c0.6,0.3,0.9,1.1,0.5,1.7c-0.2,0.3-0.6,0.4-0.9,0.7
						c-0.8,0.6-0.9,1.9-0.4,2.8c0.5,0.9,1.4,1.5,2.3,1.9c2.1,0.9,4.6,1.2,6.9,0.6c0.5-0.1,0.9-0.2,1.4-0.2c0.5,0.1,0.9,0.5,0.9,0.9
						c0,0.3-0.2,0.6-0.3,0.9c-0.1,0.8,1.1,1.1,2,1c2.5-0.2,4.9-0.4,7.4-0.6c1.2-0.1,3,0,3.6-0.6C32.5,139.5,31.5,139.4,30.8,139.5z"
						/>
				</g>
				<g>
					<path class="st1" d="M12.3,123.6c0.4,0.1,1-0.1,1.2-0.5c0.3-0.7-0.5-1.5-0.6-2.3c0-0.4,0.1-0.7,0.4-1c-0.8,0-1.7,0.6-1.6,1.5
						C11.8,122.2,12.6,122.9,12.3,123.6z"/>
				</g>
			</g>
			<path class="st3" d="M15.2,134c4.1,0.4,8.2,1.1,12.2,2.3c-5.5-2.8-10.9-5.9-16.2-9.3c-0.4-0.3-0.9-0.6-1.3-0.8
				c-1.7-0.2-3.4-0.2-5,0.1c-0.2,0-0.2-0.2,0-0.2c1.5-0.2,3.1-0.3,4.6-0.1c-1.9-1.3-3.8-2.5-5.7-3.8c-0.1-0.1,0-0.3,0.2-0.2
				c4.2,2.9,8.5,5.7,12.8,8.3c-0.7-1.9-1.4-3.8-2.1-5.7c-0.1-0.1,0.2-0.2,0.2-0.1c0.7,2,1.5,4,2.2,6l0,0c4.2,2.5,8.6,4.9,13,7
				c-2.5-3.2-4.7-6.5-6.8-10c-0.1-0.1,0.1-0.3,0.2-0.1c2.2,3.6,4.6,7,7.1,10.4c0.3,0.2,0.6,0.3,1,0.5c1.2,0.6,2.4,1.1,3.6,1.7
				l-0.1,0.2c-2.2-1-4.3-2-6.5-3.1c0,0,0,0-0.1,0c-4.3-1.4-8.8-2.2-13.4-2.6C15,134.2,15,134,15.2,134z"/>
		</g>
		<g>
			<path class="st4" d="M33.7,112.3c-2.7,3.8-4.3,8.5-4.5,13.2c-0.9-2.9-2-5.7-3.1-8.5c0.8-1.7,3.5-8.4,2-12.9
				c-2.2,3.3-3.1,6.2-2.4,12c-1.4-3.2-2.9-6.4-4.5-9.5c1.8-2.8,1.9-8.4,1-12c-2.7,3.9-1.7,9.5-1.3,11.5c-1.7-3.1-3.4-6.1-5.4-9.1
				c1.9-3,2.3-7,0.9-10.3c-2.4,2.8-1.6,7.9-1.2,9.8c-1-1.5-2.1-3.1-3.1-4.6c-0.3-1.5-1.8-7-7.2-7.8c1.2,1.5,1.8,3.4,2.8,5
				s2.5,3.1,4.4,3.2c1.2,1.7,2.4,3.5,3.5,5.2c-2.7-2.1-5.8-3.9-9.4-3.4C9.4,98,14.7,98,15.9,98c1.6,2.6,3.1,5.3,4.6,8
				c-3-2.8-7.2-4.6-11.3-4.5c2.8,5.1,10.2,5,11.5,5c1.5,3,3,6,4.2,9.1c-3.2-3-7.4-5.1-11.8-5.9c4,6.5,10.4,6.6,12,6.5
				c1.6,3.8,2.9,7.7,4.1,11.6c-3.7-4.8-8.5-8.6-14.3-10.5c2.6,6.8,12.7,10.3,14.4,10.9c0.9,3.1,1.7,6.2,2.3,9.3l0.8-0.2
				c-0.8-3.6-1.7-7.1-2.8-10.5l0.3-0.4C32.5,122.3,33.8,117.3,33.7,112.3z"/>
		</g>
		<g>
			<g>
				<path class="st5" d="M43.2,139.2c-5.3,0.1-10.6,2.2-15.7,0.8c-4.3-1.2-7.6-4.7-10.5-8c1.9-0.2,3.9-0.4,5.8-0.6
					c-2.5,0-5-1.1-6.7-3c-1.7-1.8-2.6-4.4-2.5-6.9c1.7,0.1,3.4,0.2,5,0.3c-1.5-0.5-3.1-1.1-4-2.5c-1.3-2-0.3-4.7,0.7-6.9
					c1.1-2.2,2.3-4.6,1.4-6.9c2,0.7,4,1.5,5.6,2.9s2.6,3.7,1.9,5.7c1-1.2,2.5-1.8,4-1.8c1.6,2.6,3,9.4,2.5,12.2
					c0.2-1.6,2.3-7.8,2.3-7.8s6.3,5.1,6.8,5.8C44.7,128.9,43.2,139.2,43.2,139.2z"/>
			</g>
			<path class="st5" d="M40.4,138.2c-5.9-0.3-11.7-1.5-17.2-3.6c-0.2-0.1-0.1-0.3,0.1-0.3c5.2,1.9,10.6,3.1,16.1,3.5
				c-0.5-0.2-1-0.4-1.5-0.7c0,0-0.1,0-0.1-0.1c-3.5-1.6-6.6-3.9-9.3-6.6c0,0,0,0-0.1,0c-2.5-1.2-5-2.4-7.6-3.6
				c-0.2-0.1,0-0.4,0.1-0.3c2.3,1.1,4.6,2.2,7,3.3c-2.1-2.4-3.9-5.1-5.2-8.1c-0.2-0.4-0.3-0.8-0.5-1.2l0,0h-0.1c-1-0.6-2-1.2-3-1.9
				c-0.2-0.1,0-0.4,0.1-0.3c0.9,0.6,1.9,1.2,2.8,1.8c-0.8-2.1-1.3-4.4-1.6-6.6c0-0.2,0.3-0.2,0.3,0c0.3,2.2,0.8,4.4,1.6,6.4
				c0.5-1.1,0.9-2.2,1.4-3.4c0.1-0.2,0.3,0,0.3,0.1c-0.5,1.2-1,2.4-1.5,3.7c1.3,3.4,3.2,6.5,5.6,9.2c0-2.6,0-5.2,0.1-7.7
				c0-0.2,0.3-0.2,0.3,0c0,2.7,0,5.4-0.1,8.1c2.6,2.8,5.7,5.1,9.2,6.8c-0.9-3.8-2.3-7.5-4.3-10.9c-0.1-0.2,0.1-0.3,0.2-0.2
				c2,3.5,3.5,7.3,4.4,11.2c0.1,0.1,0.3,0.1,0.4,0.2c0.7,0.3,1.3,0.5,2,0.8c0.1,0,0.1,0,0.2,0c0.1,0,0.1,0,0.1,0.1
				c2.1,0.7,4.3,1.2,6.6,1.4c0.2,0,0.1,0.3-0.1,0.3C44.9,139.5,42.6,139,40.4,138.2z"/>
		</g>
	</g>
	<g>
		<g>
			<rect x="40.2" y="106.8" class="st6" width="18.1" height="8.3"/>
			<path class="st7" d="M32.3,103v38.8h30.2V103H32.3z M54.4,109.2h-6.6c-0.9,0-1.6-0.7-1.6-1.6s0.7-1.6,1.6-1.6h6.6
				c0.9,0,1.6,0.7,1.6,1.6C56,108.4,55.3,109.2,54.4,109.2z"/>
			<rect x="32.3" y="103" class="st6" width="6.9" height="38.8"/>
			<polygon class="st8" points="36.6,103.3 36.6,139.1 32.3,141.8 32.3,103 			"/>
			<polygon class="st9" points="36.6,139.1 39.2,141.8 32.3,141.8 			"/>
		</g>
		<g>
			<rect x="55" y="116.6" class="st6" width="13.1" height="6"/>
			<path class="st7" d="M49.3,113.8v28h21.8v-28H49.3z M65.2,118.3h-4.7c-0.6,0-1.2-0.5-1.2-1.2c0-0.6,0.5-1.2,1.2-1.2h4.7
				c0.6,0,1.2,0.5,1.2,1.2C66.3,117.8,65.8,118.3,65.2,118.3z"/>
			<rect x="49.3" y="113.8" class="st6" width="5" height="28"/>
			<polygon class="st8" points="52.3,114.1 52.3,139.8 49.3,141.8 49.3,113.8 			"/>
			<polygon class="st9" points="52.3,139.8 54.2,141.8 49.3,141.8 			"/>
		</g>
	</g>
	<g>
		<g>
			<path class="st1" d="M121.1,51.1c-0.4-0.4-0.8-0.9-1-1.4c-0.1-0.6,0.2-1.3,0.8-1.3c0.4,0,0.8,0.3,1.2,0.5s0.9,0.3,1.2-0.1
				c0.2-0.4-0.3-0.9-0.7-1.2c-1.1-0.7-2.1-1.5-2.9-2.5c-0.4-0.4-0.7-0.9-0.7-1.5s0.5-1.1,1.1-1c0.5,0.1,0.8,0.7,1.3,0.6
				c0.3-0.1,0.5-0.4,0.4-0.8s-0.2-0.6-0.4-0.8c-0.7-1-1.5-2-1.6-3.2s0.8-2.6,2-2.5c0.9,0,1.6,1,1.5,1.8c0.2-0.7,1.2-0.9,1.8-0.5
				s0.9,1.1,1,1.8c0,0.7-0.2,1.4-0.4,2.1c-0.1,0.4-0.2,0.8-0.1,1.2s0.6,0.7,0.9,0.5c0.2-0.1,0.3-0.3,0.5-0.4
				c0.5-0.4,1.2-0.3,1.7,0.1c0.5,0.4,0.7,1,0.8,1.6c0.3,1.4,0.2,2.9-0.4,4.2c-0.1,0.3-0.3,0.5-0.3,0.8s0.2,0.6,0.5,0.7
				c0.2,0,0.4-0.1,0.6-0.1c0.5,0.1,0.5,0.8,0.4,1.3l0,0c-0.4,1.5-0.8,2.9-1.2,4.4c-0.3,1.1-0.5,3-1.8,1.8
				C125.1,55.4,123.1,53.1,121.1,51.1z"/>
		</g>
		<g class="st2">
			<g>
				<path class="st1" d="M122.8,49.4c-0.2,0.4-0.8,0.3-1.2,0.1s-0.7-0.5-1.2-0.5c-0.1,0-0.3,0.1-0.4,0.1c0.1-0.4,0.4-0.7,0.8-0.8
					c0.4,0,0.8,0.3,1.2,0.5c0.2,0.1,0.5,0.2,0.8,0.2C122.9,49.1,122.9,49.2,122.8,49.4z"/>
			</g>
			<g>
				<path class="st1" d="M128.6,56.2c0.4-1.5,0.8-2.9,1.2-4.4c0.1-0.5,0.1-1.2-0.4-1.3c-0.2,0-0.4,0.1-0.6,0.1
					c-0.3,0-0.5-0.4-0.5-0.7s0.2-0.6,0.3-0.8c0.6-1.3,0.8-2.8,0.4-4.2c-0.1-0.6-0.4-1.2-0.8-1.6c-0.5-0.4-1.2-0.5-1.7-0.1
					c-0.2,0.1-0.3,0.3-0.5,0.4c-0.4,0.2-0.8-0.1-0.9-0.5s0-0.8,0.1-1.2c0.2-0.7,0.4-1.4,0.4-2.1s-0.3-1.5-1-1.8s-1.6-0.1-1.8,0.5
					c0.1-0.9-0.6-1.8-1.5-1.8c-0.5,0-1,0.2-1.3,0.6c0.3-0.7,1-1.3,1.8-1.2c0.9,0,1.6,1,1.5,1.8c0.2-0.7,1.2-0.9,1.8-0.5
					s0.9,1.1,1,1.8c0,0.7-0.2,1.4-0.4,2.1c-0.1,0.4-0.2,0.8-0.1,1.2c0.1,0.4,0.6,0.7,0.9,0.5c0.2-0.1,0.3-0.3,0.5-0.4
					c0.5-0.4,1.2-0.3,1.7,0.1c0.5,0.4,0.7,1,0.8,1.6c0.3,1.4,0.2,2.9-0.4,4.2c-0.1,0.3-0.3,0.5-0.3,0.8s0.2,0.6,0.5,0.7
					c0.2,0,0.4-0.1,0.6-0.1c0.5,0.1,0.5,0.8,0.4,1.3c-0.4,1.5-0.8,2.9-1.2,4.4c-0.2,0.7-0.3,1.8-0.8,2.1
					C128.4,57.2,128.5,56.6,128.6,56.2z"/>
			</g>
			<g>
				<path class="st1" d="M121.3,43.1c0,0.3-0.1,0.6-0.4,0.6c-0.5,0.1-0.8-0.5-1.3-0.6c-0.2-0.1-0.5,0-0.6,0.1
					c0.1-0.5,0.6-0.9,1.1-0.8C120.5,42.6,120.8,43.2,121.3,43.1z"/>
			</g>
		</g>
		<path class="st3" d="M127.1,46.1c-0.3,2.5-0.3,5.1-0.1,7.6c-1-3.7-2.2-7.3-3.6-10.9c-0.1-0.3-0.2-0.6-0.3-0.9c0.1-1,0.3-2,0.6-3
			c0-0.1-0.1-0.1-0.1,0c-0.3,0.9-0.5,1.8-0.6,2.7c-0.5-1.3-1.1-2.6-1.6-3.9c0-0.1-0.2,0-0.1,0.1c1.3,2.9,2.4,5.8,3.4,8.7
			c-1.1-0.7-2.1-1.3-3.2-2c-0.1,0-0.2,0.1-0.1,0.1c1.1,0.7,2.2,1.4,3.3,2.1l0,0c1,2.9,1.9,5.7,2.7,8.7c-1.6-1.9-3.4-3.6-5.2-5.3
			c-0.1-0.1-0.2,0-0.1,0.1c1.9,1.7,3.7,3.6,5.4,5.5c0.1,0.2,0.1,0.4,0.2,0.6c0.2,0.8,0.4,1.6,0.6,2.3h0.1c-0.3-1.4-0.7-2.8-1.1-4.3
			l0,0c-0.3-2.8-0.3-5.6,0-8.4C127.3,46,127.2,46,127.1,46.1z"/>
	</g>
	<g>
		<path class="st4" d="M118.9,59.8c2.9-0.2,5.8,0.4,8.4,1.8c-1.2-1.4-2.4-2.8-3.5-4.3c-1.1-0.1-5.5-0.8-7.4-3
			c2.4-0.1,4.3,0.3,7.1,2.5c-1.3-1.7-2.4-3.5-3.6-5.3c-2,0-5-1.7-6.6-3.3c2.9-0.2,5.6,2.1,6.4,3c-1.1-1.9-2.1-3.8-3.1-5.7
			c-2.2,0-4.4-1-5.7-2.8c2.2-0.4,4.7,1.6,5.5,2.5c-0.5-1-1-2.1-1.4-3.1c-0.7-0.6-3.1-3.2-1.8-6.2c0.4,1.1,1.2,2,1.8,3
			c0.5,1,0.8,2.3,0.3,3.3c0.5,1.2,1.1,2.3,1.7,3.5c-0.3-2.1-0.2-4.3,1.2-6.1c1,2.9-0.6,5.7-1,6.3c0.9,1.7,1.8,3.3,2.8,4.9
			c-0.5-2.5-0.1-5.2,1.2-7.4c1.8,3.1-0.6,6.9-1,7.6c1.1,1.8,2.2,3.5,3.5,5.1c-0.6-2.7-0.4-5.5,0.6-8c2.1,4.2,0.2,7.6-0.4,8.4
			c1.5,2,3.1,4,4.8,5.8c-1.4-3.5-1.8-7.2-1-10.8c2.8,3.5,1.4,10,1.1,11c1.3,1.4,2.7,2.8,4.2,4.2l-0.3,0.3c-1.6-1.5-3.2-3.1-4.7-4.8
			h-0.3C124.5,62.4,121.5,61.5,118.9,59.8z"/>
	</g>
	<g>
		<g>
			<path class="st5" d="M134.7,77.9c-3.2-0.3-6.6,0.6-9.6-0.6c-2.6-1-4.3-3.4-5.9-5.6c1.2,0,2.4,0,3.6,0c-1.5-0.2-3-1-3.9-2.3
				c-0.9-1.2-1.3-2.9-1-4.4c1,0.2,2,0.4,3.1,0.5c-0.9-0.4-1.8-0.9-2.3-1.8c-0.7-1.3,0.1-2.9,0.9-4.1c0.8-1.2,1.7-2.7,1.3-4.1
				c1.2,0.6,2.3,1.2,3.2,2.1c0.9,1,1.3,2.4,0.8,3.6c0.7-0.6,1.6-0.9,2.6-0.8c0.8,1.7,1.2,5.9,0.7,7.6c0.2-1,1.9-4.6,1.9-4.6
				s3.5,3.5,3.8,4C136.3,71.8,134.7,77.9,134.7,77.9z"/>
		</g>
		<path class="st5" d="M133.1,77.2c-3.6-0.6-7-1.7-10.3-3.3c-0.1-0.1,0-0.2,0.1-0.2c3,1.5,6.3,2.6,9.6,3.2c-0.3-0.2-0.6-0.3-0.9-0.5
			h-0.1c-2-1.2-3.8-2.8-5.2-4.7l0,0c-1.5-0.9-2.9-1.8-4.4-2.7c-0.1-0.1,0-0.2,0.1-0.2c1.3,0.8,2.7,1.7,4,2.5c-1.1-1.6-2-3.4-2.6-5.3
			c-0.1-0.2-0.1-0.5-0.2-0.7l0,0l0,0c-0.6-0.4-1.1-0.9-1.7-1.3c-0.1-0.1,0-0.2,0.1-0.2c0.5,0.4,1.1,0.8,1.6,1.3
			c-0.3-1.4-0.5-2.7-0.5-4.1c0-0.1,0.2-0.1,0.2,0c0,1.4,0.2,2.7,0.5,4c0.4-0.7,0.7-1.3,1.1-2c0.1-0.1,0.2,0,0.2,0.1
			c-0.4,0.7-0.8,1.4-1.2,2.1c0.6,2.2,1.5,4.2,2.8,6c0.2-1.6,0.4-3.1,0.6-4.7c0-0.1,0.2-0.1,0.2,0c-0.2,1.6-0.4,3.3-0.6,4.9
			c1.4,1.9,3.1,3.5,5.2,4.8c-0.3-2.4-0.9-4.7-1.9-6.9c0-0.1,0.1-0.2,0.2-0.1c1,2.3,1.6,4.7,1.9,7.1c0.1,0,0.2,0.1,0.3,0.1
			c0.4,0.2,0.8,0.4,1.2,0.6h0.1c0,0,0.1,0,0.1,0.1c1.3,0.6,2.6,1,3.9,1.3c0.1,0,0.1,0.2-0.1,0.2C135.8,78.3,134.4,77.8,133.1,77.2z"
			/>
	</g>
	<g>
		<path class="st4" d="M203.8,20.3c-0.3-0.6-0.8-0.9-1.5-1c-2.4-0.3-6.3,2.2-7.8,3.3c-2.1,1.4-4,3-5.3,4.5c0.3-0.5,0.7-1.1,1-1.6
			c0.2-0.4,0.5-0.7,0.7-1.1l0,0l0,0c0.6-0.8,1.2-1.6,1.9-2.4l0.1-0.1c0.8-0.7,1.5-1.3,3.1-2.2c1.1-0.6,2.6-1.1,4-1.6
			c1.9-0.6,3.5-1.1,3.7-1.8c0.1-0.1,0.1-0.3,0-0.4c-0.2-0.4-0.5-0.7-1-0.8c-2.3-0.4-7.8,3.7-10.2,6.6l0,0c-0.3,0.4-0.7,0.8-1,1.1
			c1.6-4.3,2.6-12.7,0.8-15.2c-0.4-0.5-0.9-0.8-1.4-0.7c-0.2,0-0.3,0.1-0.4,0.2c-0.6,0.8-0.1,3.3,0.4,6.3c0.3,1.8,0.7,3.7,0.7,5.1
			c0.1,1.5-0.3,2.9-0.6,4.3c-0.1,0.5-0.3,0.9-0.5,1.4c-0.3,0.4-0.5,0.7-0.7,1.1c-1.3,2.1-2.5,4.1-3.6,6.2c1.5-5.7,2.1-13.9,0.2-16.6
			c-0.5-0.6-1.1-0.9-1.8-0.9c-0.2,0-0.4,0.1-0.5,0.3c-0.7,0.9-0.1,4.3,0.6,7.8c0.4,2.3,0.9,4.7,0.9,6.4c0.1,1.8-0.3,3.6-0.7,5.4
			c-0.1,0.3-0.1,0.5-0.2,0.8c-0.1,0.3-0.3,0.6-0.4,0.9c0,0,0,0.1-0.1,0.1c0,0,0,0,0,0.1c-0.4,1-0.8,2.1-1.2,3.1
			c0.4-5.4-1-12.4-3.8-17.2c-0.7-1.1-1.4-1.7-2.2-1.5c-0.5,0.1-0.9,0.5-1,1.1c-0.1,0.5,0,1,0.2,1.5c0.6,2.1,1.7,4.2,2.8,6.1
			c1.3,2.3,2.6,4.7,3,7.2c0.3,1.8,0.2,3.7,0.1,5.5c0,0.2,0,0.4-0.1,0.6c-0.1,0.4-0.2,0.8-0.3,1.2l0,0l0,0c-0.2,0.7-0.3,1.4-0.5,2.2
			s-0.3,1.7-0.4,2.5c-0.2-2.4-0.6-5.4-1.3-8.2c-0.5-2.3-2-7.8-3.9-9c-0.5-0.3-0.9-0.3-1.3,0c-1,0.7,0.6,3.9,2.5,7.7
			c1,2,2,4.1,2.6,5.7c0.6,1.7,0.9,3.6,1.1,5.4c0.1,0.6,0.1,1.1,0.1,1.7l0,0c0,0.1,0,0.1,0,0.2l0,0c-0.3,5.7,0.6,11.3,2.6,16.4
			c0,0.1,0.1,0.1,0.2,0.1c0,0,0,0,0.1,0s0.1-0.1,0.1-0.2c-2-5.1-2.9-10.7-2.6-16.4l0,0c0-0.2,0-0.4,0-0.6c0-0.7,0.1-1.4,0.2-2.1
			c0.5-0.7,0.8-1.1,1.4-1.7c1.6-1.4,3.2-2.9,5.1-3.9c1.8-1,4.4-1.9,7-2.9c4.7-1.7,8.8-3.2,8.2-4.8c-0.3-0.7-0.8-1.1-1.7-1.2
			c-3-0.4-8.4,3.3-10.6,4.9c-4,2.9-7.5,6.4-9.2,8.9c0.1-0.8,0.2-1.6,0.4-2.4c0.1-0.3,0.1-0.6,0.2-1c0,0,0,0,0-0.1
			c0.2-0.7,0.3-1.2,0.6-1.8c0.8-1.6,1.6-3.2,2.8-4.5c1.6-1.8,3.8-3,6-4.2c1.8-1,3.8-2,5.3-3.4c0.3-0.3,0.7-0.7,0.9-1.1
			c0.2-0.5,0.1-1.1-0.2-1.5c-0.5-0.6-1.4-0.6-2.5,0c-4.7,2.4-9.4,7.5-11.7,12.4c0.5-1.5,1-3.1,1.7-4.6l0,0c0.3-0.6,0.6-1.3,0.9-2.1
			c0.7-1.4,1.4-2.9,2.2-4.3l0,0l0.1-0.1l0,0c0.3-0.4,0.6-0.7,0.9-1.1c1.1-1,2.3-2,3.7-2.7c1.3-0.6,3.2-1.2,5.1-1.8
			c3-0.9,5.6-1.8,6-2.7C203.9,20.7,203.9,20.5,203.8,20.3z"/>
		<path class="st10" d="M154.6,13.9c0.4,0.9,3,1.8,6,2.7c1.9,0.6,3.8,1.2,5.1,1.8c1.4,0.7,2.5,1.7,3.7,2.7c0.4,0.3,0.6,0.6,0.9,1.1
			l0,0l0.1,0.1l0,0c0.8,1.4,1.5,2.9,2.2,4.3c0.3,0.8,0.6,1.6,0.9,2.1l0,0c0.6,1.5,1.2,3.1,1.7,4.6c-2.3-4.9-7-10-11.7-12.4
			c-1.1-0.6-2-0.6-2.5,0c-0.3,0.4-0.4,1-0.2,1.5s0.5,0.8,0.9,1.1c1.5,1.4,3.5,2.5,5.3,3.4c2.2,1.2,4.4,2.4,6,4.2
			c1.2,1.3,2,3,2.8,4.5c0.3,0.6,0.4,1.1,0.6,1.8c0,0,0,0,0,0.1c0.1,0.3,0.1,0.6,0.2,1c0.1,0.8,0.3,1.6,0.4,2.4
			c-1.7-2.5-5.2-5.9-9.2-8.9c-2.2-1.6-7.6-5.3-10.6-4.9c-0.8,0.1-1.4,0.5-1.7,1.2c-0.6,1.5,3.5,3,8.2,4.8c2.5,0.9,5.2,1.9,7,2.9
			c1.9,1,3.5,2.5,5.1,3.9c0.6,0.5,0.9,1,1.4,1.7c0.1,0.7,0.1,1.4,0.2,2.1c0,0.2,0,0.4,0,0.6l0,0c0.3,5.7-0.6,11.3-2.6,16.4
			c0,0.1,0,0.2,0.1,0.2c0,0,0,0,0.1,0s0.1,0,0.2-0.1c2-5.1,2.9-10.7,2.6-16.4l0,0c0-0.1,0-0.1,0-0.2l0,0c0-0.6,0-1.1,0.1-1.7
			c0.2-1.8,0.5-3.7,1.1-5.4c0.6-1.6,1.6-3.7,2.6-5.7c1.9-3.7,3.5-7,2.5-7.7c-0.4-0.3-0.9-0.3-1.3,0c-1.9,1.1-3.3,6.6-3.9,9
			c-0.7,2.8-1.1,5.8-1.3,8.2c-0.1-0.8-0.2-1.7-0.4-2.5c-0.1-0.7-0.3-1.4-0.5-2.2l0,0l0,0c-0.1-0.4-0.2-0.8-0.3-1.2
			c0-0.2-0.1-0.4-0.1-0.6c-0.1-1.8-0.3-3.6,0.1-5.5c0.4-2.5,1.8-4.9,3-7.2c1.1-2,2.2-4,2.8-6.1c0.1-0.5,0.2-1,0.2-1.5
			c-0.1-0.6-0.5-1-1-1.1c-0.7-0.2-1.5,0.4-2.2,1.5c-2.8,4.8-4.2,11.8-3.7,17.2c-0.4-1-0.7-2.1-1.2-3.1c0,0,0,0,0-0.1
			c0,0,0-0.1-0.1-0.1c-0.1-0.3-0.3-0.6-0.4-0.9c-0.1-0.2-0.2-0.5-0.2-0.8c-0.4-1.7-0.8-3.5-0.7-5.4c0.1-1.7,0.5-4.1,0.9-6.4
			c0.7-3.5,1.3-6.9,0.6-7.8c-0.1-0.2-0.3-0.3-0.5-0.3c-0.7-0.1-1.3,0.2-1.8,0.9c-1.9,2.7-1.3,10.9,0.2,16.6c-1-2.1-2.2-4.1-3.6-6.2
			c-0.2-0.4-0.5-0.7-0.7-1.1c-0.2-0.5-0.4-0.9-0.5-1.4c-0.3-1.4-0.6-2.8-0.6-4.3c0.1-1.4,0.4-3.3,0.7-5.1c0.5-2.9,1-5.5,0.4-6.3
			c-0.2,0.2-0.3,0.1-0.5,0.1c-0.6-0.1-1.1,0.2-1.4,0.7c-1.8,2.5-0.8,11,0.8,15.2c-0.3-0.4-0.6-0.8-1-1.1l0,0
			c-2.4-2.9-7.8-7-10.2-6.6c-0.5,0.1-0.8,0.3-1,0.8c-0.1,0.1-0.1,0.3,0,0.4c0.3,0.6,1.8,1.1,3.7,1.8c1.4,0.5,3,1,4.1,1.6
			c1.5,0.9,2.3,1.5,3.1,2.2l0.1,0.1c0.7,0.8,1.3,1.6,1.9,2.4l0,0l0,0c0.2,0.4,0.5,0.7,0.7,1.1c0.3,0.5,0.7,1.1,1,1.6
			c-1.3-1.4-3.2-3.1-5.3-4.5c-1.6-1.1-5.5-3.6-7.8-3.3c-0.7,0.1-1.2,0.4-1.5,1C154.6,13.6,154.6,13.7,154.6,13.9z"/>
	</g>
	<g>
		<path class="st11" d="M166.8,141.5h-22.6c-9.7,0-17.6-7.9-17.6-17.6V50.5c0-9.7,7.9-17.6,17.6-17.6h22.6c9.7,0,17.6,7.9,17.6,17.6
			v73.3C184.4,133.6,176.5,141.5,166.8,141.5z"/>
		<path class="st12" d="M184.2,39.6c0,0.2,0,0.5,0,0.7v91.3c0,4.8-3.9,8.7-8.7,8.7H135c-4.1,0-7.5-2.9-8.4-6.7
			c0.4,4.4,4.1,7.9,8.6,7.9h40.5c4.8,0,8.7-3.9,8.7-8.7V41.6C184.4,40.9,184.3,40.2,184.2,39.6z"/>
		<path class="st12" d="M175.7,32.9h-16.1c13.7,0,24.8,11.1,24.8,24.8V41.6C184.4,36.8,180.5,32.9,175.7,32.9z"/>
		<g>
			<path class="st13" d="M150.6,135.9c0,0.9-0.8,1.7-1.7,1.7s-1.7-0.8-1.7-1.7s0.8-1.7,1.7-1.7S150.6,134.9,150.6,135.9z"/>
			<circle class="st13" cx="155.5" cy="135.9" r="1.7"/>
			<circle class="st13" cx="162.1" cy="135.9" r="1.7"/>
		</g>
		<g>
			<g>
				<path class="st13" d="M164.4,39H147c-0.6,0-1.1-0.5-1.1-1.1l0,0c0-0.6,0.5-1.1,1.1-1.1h17.4c0.6,0,1.1,0.5,1.1,1.1l0,0
					C165.4,38.6,165,39,164.4,39z"/>
				<path class="st14" d="M146.9,37.5h17.4c0.5,0,0.9,0.3,1,0.8c0-0.1,0-0.2,0-0.3c0-0.6-0.5-1.1-1.1-1.1h-17.4
					c-0.6,0-1.1,0.5-1.1,1.1c0,0.1,0,0.2,0,0.3C146,37.8,146.4,37.5,146.9,37.5z"/>
			</g>
			<circle class="st15" cx="136.1" cy="38" r="1.3"/>
		</g>
	</g>
	<rect x="129.8" y="43.3" class="st16" width="51.4" height="85.4"/>
	<rect x="129.8" y="93.8" class="st17" width="51.4" height="34.8"/>
	<g>
		<rect x="136.9" y="108" class="st18" width="36.4" height="8.8"/>
		<text transform="matrix(1 0 0 1 136.8752 109.1253)" class="st16 st19 st20">Lorem ipsum</text>
		<text transform="matrix(1 0 0 1 146.9751 109.1253)" class="st16 st21 st20"> dolor sit amet, consectetur adipi</text>
		<text transform="matrix(1 0 0 1 136.8752 112.5253)" class="st16 st21 st20">rutrum metus at enim congue scelerisque sed </text>
		<text transform="matrix(1 0 0 1 136.8752 115.8253)" class="st16 st21 st20">non iaculis semper consectetur adipiscing elit.</text>
		<g>
			<g>
				<path class="st16" d="M164.5,103.5h-18.9c-1.2,0-2.2-1-2.2-2.2v-0.5c0-1.2,1-2.2,2.2-2.2h18.9c1.2,0,2.2,1,2.2,2.2v0.5
					C166.8,102.5,165.8,103.5,164.5,103.5z"/>
				<path class="st22" d="M165.4,98.5h-20.7c-0.7,0-1.3,0.7-1.3,1.6v0.9c0-0.9,0.6-1.6,1.3-1.6h20.7c0.7,0,1.3,0.7,1.3,1.6v-0.9
					C166.8,99.2,166.2,98.5,165.4,98.5z"/>
			</g>
			<g>
				<text transform="matrix(1 0 0 1 145.6116 102.3645)" class="st23 st24 st25">BUY NOW</text>
			</g>
		</g>
		<g>
			<polygon class="st23" points="146.9,121 147.8,121.2 147.1,121.8 147.2,122.7 146.5,122.3 145.7,122.7 145.8,121.8 145.2,121.1 
				146.1,121 146.5,120.2 			"/>
			<polygon class="st23" points="151.2,121 152.1,121.2 151.4,121.8 151.5,122.7 150.8,122.3 150,122.7 150.1,121.8 149.5,121.1 
				150.4,121 150.8,120.2 			"/>
			<polygon class="st23" points="155.5,121 156.3,121.2 155.7,121.8 155.8,122.7 155,122.3 154.3,122.7 154.4,121.8 153.8,121.1 
				154.7,121 155.1,120.2 			"/>
			<polygon class="st23" points="159.8,121 160.6,121.2 160,121.8 160.1,122.7 159.3,122.3 158.5,122.7 158.7,121.8 158.1,121.1 
				159,121 159.4,120.2 			"/>
			<polygon class="st16" points="164,121 164.9,121.2 164.3,121.8 164.4,122.7 163.6,122.3 162.8,122.7 163,121.8 162.4,121.1 
				163.3,121 163.7,120.2 			"/>
		</g>
	</g>
	<path class="st26" d="M129.8,77.3v51.4h51.4C152.8,128.7,129.8,105.7,129.8,77.3z"/>
	<rect x="129.8" y="43.3" class="st17" width="51.4" height="5.7"/>
	<g>
		<g>
			<ellipse class="st27" cx="153.3" cy="86.8" rx="13.1" ry="2.6"/>
			<g>
				<g>
					<path class="st5" d="M157.3,55.8c0,0,1.6,1.6,5.4,2.1c0,0-1.3,3.9,0,6.6c1.3,2.7,1.9,8.2,0,10.7c0,0-1.6,5.5,1.6,11.3
						c0,0-9.8,4.2-21.5,0c0,0,2.5-4.2,1.6-11.5c0,0-3-2.8-0.5-10.9c0,0,0.9-3.6-0.4-5.9l5.6-2.4l4.5,7.4L157.3,55.8z"/>
					<g class="st28">
						<path class="st5" d="M162.6,75.2c0.5-0.7,0.8-1.6,1-2.6c-1.2,1.4-3.4,3.3-6.8,3.1c0.4,0,4.8,0.2,4.8,1.9
							c0,1.7-1.5,3.4-1.5,3.4s1,2,0,3.1c-1,1,2-0.1,1.5,1.5c-0.2,0.5,0,1.2,0.3,1.7c1.4-0.4,2.2-0.7,2.2-0.7
							C161.1,80.7,162.6,75.2,162.6,75.2z"/>
					</g>
					<g class="st29">
						<g>
							<path class="st5" d="M145.1,87.2c0.4-0.6,0.5-1.2,0.3-1.8c-0.5-1.6,2.6-0.5,1.5-1.5c-1-1,0-3.1,0-3.1s-1.5-1.7-1.5-3.4
								c0-1.6,4.3-1.8,4.8-1.9c-3.9,0.2-6.2-2.2-7.2-3.7c0.4,2.2,1.3,3.1,1.3,3.1c0.9,7.2-1.6,11.5-1.6,11.5
								C143.5,86.8,144.3,87,145.1,87.2z"/>
						</g>
					</g>
				</g>
				<g>
					<g>
						<path class="st30" d="M142.8,69.9c0,0-3.3-0.4-3.9-1.4c0,0,0.8-11,5.1-10.6C144,57.9,146.9,64.1,142.8,69.9z"/>
						<g class="st31">
							<path class="st30" d="M140.8,68.4c0.1,0.1,0.2,0.2,0.4,0.2C140.9,68.2,140.6,68.1,140.8,68.4z"/>
							<path class="st30" d="M143.6,68.7c-0.9,0.1-1.8,0-2.3-0.1c0.3,0.3,0.6,0.7,0.7,1.2c0.5,0.1,0.8,0.1,0.8,0.1
								C143.1,69.5,143.4,69.1,143.6,68.7z"/>
							<path class="st30" d="M144.8,65c-0.6,0.6-1.6,1.1-3.2,1.5c0,0,0.9,0.9,2.4,1.4C144.4,66.9,144.7,65.9,144.8,65z"/>
						</g>
					</g>
					<g>
						<path class="st30" d="M163.8,69.9c0,0,3.3-0.4,3.9-1.4c0,0-0.8-11-5.1-10.6C162.6,57.9,159.8,64.1,163.8,69.9z"/>
						<g class="st31">
							<path class="st30" d="M165.8,68.4c-0.1,0.1-0.2,0.2-0.4,0.2C165.8,68.2,166.1,68.1,165.8,68.4z"/>
							<path class="st30" d="M163.1,68.7c0.9,0.1,1.8,0,2.3-0.1c-0.3,0.3-0.6,0.7-0.7,1.2c-0.5,0.1-0.8,0.1-0.8,0.1
								C163.5,69.5,163.3,69.1,163.1,68.7z"/>
							<path class="st30" d="M161.8,65c0.6,0.6,1.6,1.1,3.2,1.5c0,0-0.9,0.9-2.4,1.4C162.2,66.9,162,65.9,161.8,65z"/>
						</g>
					</g>
				</g>
				<g>
					<g>
						<path class="st32" d="M154,66.8c0,0,1.5-7,2.8-8.3l-1.3-1.1c0,0-3.1,5.6-2.9,9.4H154z"/>
						<path class="st33" d="M152.6,66.8c0,0-1.5-7-2.8-8.3l1.3-1.1c0,0,3.1,5.6,2.9,9.4H152.6z"/>
					</g>
					<g>
						<path class="st30" d="M156.6,54.3c0,0-0.2,2.5-1.4,3.6c0,0,0.4,1.5,3.2,2.4c0,0-0.4-1.7,0-2.6S158.8,54.9,156.6,54.3z"/>
						<path class="st34" d="M158.3,57.6c0.2-0.5,0.3-1.3,0-2c-0.1,0.2-0.1,0.5-0.1,0.9c0,2-1.5,1.1-1.1,2.6c0,0.1,0.1,0.4,0.2,0.8
							c0.3,0.1,0.7,0.3,1,0.4C158.3,60.3,158,58.6,158.3,57.6z"/>
					</g>
					<g>
						<path class="st30" d="M150.1,54.2c0,0,0.2,2.5,1.4,3.6c0,0-0.4,1.5-3.2,2.4c0,0,0.4-1.7,0-2.6S147.9,54.8,150.1,54.2z"/>
						<path class="st34" d="M148.3,57.5c-0.2-0.5-0.3-1.3,0-2c0.1,0.2,0.1,0.5,0.1,0.9c0,2,1.5,1.1,1.1,2.6c0,0.1-0.1,0.4-0.2,0.8
							c-0.3,0.1-0.7,0.3-1,0.4C148.3,60.2,148.7,58.5,148.3,57.5z"/>
					</g>
				</g>
			</g>
		</g>
		<g>
			<g>
				<path class="st1" d="M178.3,72.5c0,1.4-1.2,2.6-2.6,2.6c-1.4,0-2.6-1.2-2.6-2.6s1.2-2.6,2.6-2.6
					C177.2,69.9,178.3,71.1,178.3,72.5z"/>
				<g>
					<path class="st16" d="M175.7,74.1l1.5-1c0.4-0.3,0.5-0.9,0.3-1.3c-0.3-0.4-0.9-0.5-1.3-0.3l-0.5,0.3l-0.5-0.3
						c-0.4-0.3-1-0.2-1.3,0.2c-0.3,0.4-0.2,1,0.2,1.3L175.7,74.1z"/>
				</g>
			</g>
			<g>
				<path class="st1" d="M178.3,65.5c0,1.4-1.2,2.6-2.6,2.6c-1.4,0-2.6-1.2-2.6-2.6s1.2-2.6,2.6-2.6C177.2,62.9,178.3,64,178.3,65.5
					z"/>
				<polygon class="st16" points="177.2,66.7 175.7,65.7 174.3,66.7 174.3,64.2 177.2,64.2 				"/>
			</g>
			<g>
				<path class="st1" d="M178.3,58.6c0,1.4-1.2,2.6-2.6,2.6c-1.4,0-2.6-1.2-2.6-2.6c0-1.4,1.2-2.6,2.6-2.6
					C177.2,56,178.3,57.2,178.3,58.6z"/>
				<text transform="matrix(1 0 0 1 173.8293 59.1741)" class="st16 st24 st35">25$</text>
			</g>
		</g>
		<g>
			<path class="st1" d="M135.4,76.6c0,0.6-0.5,1-1,1c-0.6,0-1-0.5-1-1c0-0.6,0.5-1,1-1C135,75.6,135.4,76,135.4,76.6z"/>
			<path class="st23" d="M135.4,80.1c0,0.6-0.5,1-1,1c-0.6,0-1-0.5-1-1c0-0.6,0.5-1,1-1C135,79.1,135.4,79.6,135.4,80.1z"/>
			<path class="st36" d="M135.4,83.7c0,0.6-0.5,1-1,1c-0.6,0-1-0.5-1-1c0-0.6,0.5-1,1-1C135,82.7,135.4,83.1,135.4,83.7z"/>
		</g>
	</g>
	<g>
		<g>
			<path class="st37" d="M111.8,93.1c0,0-7.1,4.4-8.2-0.8c-1.2-5.2,0.1-3.1-2-8.2s-0.7-4.6,0.2-13.4c0,0,1.4-7.2,6.5-6.4
				c5.2,0.7,10.1,0,10.1,10.1S120.4,90.2,111.8,93.1z"/>
		</g>
		<g>
			<path class="st38" d="M129.7,137l1,4.2h12c0,0-2-2.9-7.5-2.1l-0.4-1.7L129.7,137z"/>
			<path class="st39" d="M134.2,138.1l0.4,1.7c3.8-0.5,5.9,0.7,6.9,1.5h1.2c0,0-2-2.9-7.5-2.1l-0.4-1.7l-5.1-0.5l0.2,0.7
				L134.2,138.1z"/>
		</g>
		<g>
			<polygon class="st13" points="79.8,73.8 86.5,71.1 89.5,86.7 82.5,86.7 			"/>
			<path class="st40" d="M86.5,71.1l-6.7,2.7l1.5,7C80.4,76.7,82.6,72.6,86.5,71.1z"/>
			<polygon class="st41" points="85.8,71.4 88.8,86.7 89.5,86.7 86.5,71.1 79.8,73.8 79.8,73.8 			"/>
		</g>
		<path class="st38" d="M77.4,86c0,0,0.5-5.8,2.5-7c1.9-1.1,6.3-3.3,6.5-2.2c0.2,1.1-3.1,2.3-3.1,2.3s3.6-1.3,3.9-0.5
			c0.4,0.7-4.2,2.6-4.2,2.6s3.7-1.6,4-0.7S82.9,83,82.9,83s3.6-1.4,3.6-0.2c0.1,1.1-4.1,1.7-5.1,3.4C80.4,87.8,77.4,86,77.4,86z"/>
		<g>
			<path class="st38" d="M108.1,90.6l0.4-2.6v-2.3c0,0-3.7-0.5-4.2-6.7c-0.4-6.2,0.7-15.8,8.8-11.8c0,0,2.2,1,3,8.1
				c0,0,2.7-0.1,0,5.5l0.4,12.9c0,0-1.5,3.2-6,5.2C110.6,98.8,106.4,95.1,108.1,90.6z"/>
			<path class="st42" d="M108.5,85.6v1.6c1.2,0.1,3.7-1.5,5.4-3.7c0,0-2.5,1.9-5.6,2.1C108.4,85.6,108.5,85.6,108.5,85.6z"/>
		</g>
		<path class="st23" d="M135.6,138.2h-7.5l-7.2-29.3c0,0-5.7,5.5-3.5,22c0,0-12.7-11-22.1-7.3c0,0,0.7-2.5-2-3.5l3.2-2.5
			c1.2-1,1.9-2.4,1.9-4v-9.5c0,0-9,10.7-15.2,10.7S77,106,77,106l-0.7-20c0-0.3,0.2-0.5,0.5-0.5h5.8c0.2,0,0.4,0.2,0.5,0.4l1.8,18.1
			l10.8-10.8c0,0,5.7-5.2,12.8-5.2c0,0-1.2,8.5,5.6,7.3l4-5.5c0,0,5.3,1,6.8,2.5C126.4,93.7,128.9,97,135.6,138.2z"/>
		<polygon class="st23" points="84.3,103.4 84.7,103 83,85.6 82.5,85.6 		"/>
		<path class="st43" d="M98.4,104.1l0.2-1.4c0,0-9.7,11.5-15.8,11.5c-1.7,0-3-0.7-3.9-1.7c0.9,1.3,2.3,2.3,4.3,2.3
			C88.6,114.7,96.5,106.2,98.4,104.1z"/>
		<path class="st23" d="M93.6,119.8l-0.3,0.2c0.5,0.2,0.9,0.4,1.2,0.7C94.3,120.4,94,120.1,93.6,119.8z"/>
		<path class="st44" d="M104.3,116.2c-3.4-1.1-5.1-4.4-5.9-6.4v3.8c0,1.6-0.7,3-1.9,4l-3.2,2.5c1.1,0.4,1.7,1.1,1.9,1.8
			C100,123.1,108.6,117.6,104.3,116.2z"/>
		<g class="st45">
			<path class="st23" d="M84,107.1c0.1-1.1,0.2-2.1,0.3-3.1l0.2-1.1l0.7,0.9c0.3,0.5,0.5,0.9,0.7,1.4c0.1,0.5,0.2,1,0.2,1.5
				s-0.1,1-0.2,1.4c-0.1,0.5-0.3,0.9-0.6,1.3V108c0-0.4,0-0.9-0.1-1.3s-0.1-0.8-0.3-1.2c-0.1-0.4-0.3-0.8-0.5-1.1l0.8-0.2
				C85,105.2,84.6,106.2,84,107.1z"/>
		</g>
		<g>
			<path class="st46" d="M83.7,138.8c0,0-14.7-4.4-20.9-12.3s-3-11,0.4-12.3c3.4-1.3,22,1.9,35.2,7.4L83.7,138.8z"/>
			<path class="st47" d="M62.7,115.9c1.9-0.7,8.2-0.1,15.8,1.5c7.8,1.7,11.8,9.9,9.1,16.8l10.9-12.7c-13.2-5.6-31.8-8.8-35.2-7.4
				c-1.9,0.7-3.7,2-3.9,4.3C60,117.2,61.3,116.4,62.7,115.9z"/>
			<g class="st48">
				<path class="st49" d="M69.4,117.2c-0.1,0,0-0.2,0.1-0.2s0.1-0.1,0.2-0.1c0.1,0,0.3,0,0.4-0.1c0.3,0,0.5,0,0.7,0
					c0.5,0.1,0.9,0.2,1.4,0.4l-0.6,0.6c0-0.1-0.1-0.3-0.2-0.4l-0.2-0.5c-0.1-0.3-0.3-0.7-0.4-1.1c0.4,0.1,0.7,0.4,1,0.7
					c0.1,0.1,0.3,0.3,0.4,0.5c0.1,0.2,0.2,0.3,0.3,0.6l0.3,0.9l-1-0.3c-0.4-0.1-0.8-0.3-1.2-0.5l-0.6-0.3c-0.1-0.1-0.2-0.1-0.3-0.2
					C69.5,117.2,69.4,117.1,69.4,117.2z"/>
			</g>
			<g class="st48">
				<path class="st49" d="M72.2,118.1c1.5,0.8,2.8,1.7,4.1,2.7s2.6,2,3.8,3s2.4,2.1,3.6,3.2c1.2,1.1,2.3,2.2,3.6,3.2
					c-1.7-0.3-3.2-1.1-4.6-2c-1.4-0.9-2.7-1.8-4-2.9c-1.2-1.1-2.4-2.2-3.5-3.4C74.2,120.8,73.1,119.5,72.2,118.1z"/>
			</g>
			<path class="st50" d="M80.7,133.1c-3.2-1.7-6.5-0.6-8.7,0.6c2.7,1.5,5.4,2.7,7.5,3.5C82.9,136.8,84,134.8,80.7,133.1z"/>
		</g>
		<path class="st23" d="M75.5,136c0,0-8.9,2.5-11,5.6c-1.9,2.9,2.3,4.9,7.2,2.5c1.5-0.7,3-1.4,4.6-2l1.1-0.4L75.5,136z"/>
		<g class="st51">
			<path class="st23" d="M120.9,108.9c0,0-0.1-1.1,0-2.7c-0.9,2.7-3.7,7.4-10.1,6.5c0,0,6.1,1.5,3.9,9.9c-1,4,0.6,5.8,2.5,6.6
				C115.7,114,120.9,108.9,120.9,108.9z"/>
		</g>
		<g>
			<path class="st37" d="M115.7,80.7c0,0,1.9,6.5-2,13.1c-2.6,4.3-3.7,14.1,1,15.3c4.3,1.1,8.8-0.1,11.2-2.8c0.9-1,1.6-4.4-0.6-7.6
				c-2.2-3.2,1.7-9.6-0.6-13.3c-2.3-3.7,1.4-8-3.2-15.1c-1.7-2.6-1.6-10.3-14-6.1c0,0-2.7,1.9-0.8,2.8s2.7,1.9,3.2,3.6
				s3.6,5.1,5.9,5.5C118,76.5,115.7,80.7,115.7,80.7z"/>
		</g>
		<path class="st38" d="M73.9,136.8c0,0-6,2-5.5,5.1c0.5,3,7.8-0.1,7.8-0.1L73.9,136.8z"/>
		<polygon class="st46" points="84.5,139.9 88.6,142.5 95.7,137.8 88.1,132.6 		"/>
		<path class="st52" d="M72.8,136.4l29.1-18.7c0,0,7.5-5.5,12.4,0.9c0,0,4.3,6,3.4,15.8c0,0-1.2,6.2-7.4,8.4
			c-0.9,0.3-1.9,0.5-2.9,0.4c-2.7-0.2-8.6-1.4-12.1-7.1L76,142.8L72.8,136.4z"/>
		<g class="st48">
			<path class="st49" d="M75.1,134.9c3.2-2.5,6.6-4.8,10-7s6.9-4.3,10.5-6.2c-3.2,2.5-6.6,4.8-10,7C82.2,131,78.8,133.1,75.1,134.9z
				"/>
		</g>
		<g class="st53">
			<path class="st52" d="M114.3,118.6c-1-1.3-2.1-2.1-3.2-2.5c0.4,0.4,0.8,0.8,1.2,1.2c0,0,4.3,6,3.4,15.8c0,0-1.3,7.1-8.8,8.8
				c0,0-3.9,0.2-7.9-1.9c3,2.3,6.4,2.9,8.3,3.1c1.1,0.1,2.2,0,3.2-0.4c6.1-2.3,7.3-8.4,7.3-8.4C118.6,124.6,114.3,118.6,114.3,118.6
				z"/>
		</g>
		<g class="st48">
			<path class="st49" d="M108.4,131.2c-0.9,0.8-2,1.4-3,2c-1,0.5-2.1,1-3.2,1.4c-1.1,0.4-2.2,0.8-3.3,1c-1.1,0.3-2.3,0.5-3.5,0.5
				c0.9-0.8,2-1.4,3-2c1-0.5,2.1-1,3.2-1.4c1.1-0.4,2.2-0.8,3.3-1C106,131.4,107.1,131.2,108.4,131.2z"/>
		</g>
		<path class="st23" d="M95.2,138.1l-5.6,3.8c3,1.7,7.5,4,9.9,3.7C103.2,145.1,101.4,140,95.2,138.1z"/>
		<path class="st38" d="M94.5,138.6l-4.4,3c2.4,1.4,5.6,2.9,7,1.8C99,141.9,96,139.5,94.5,138.6z"/>
	</g>
	<g>
		<g>
			<g>
				<g>
					<path class="st37" d="M122.8,124.8L122.8,124.8c0.3,0,0.5-0.2,0.5-0.4c0-0.4,0-0.9,0.1-1.3c0.5-5.8,3.6-10.3,6.9-10.1
						c3.3,0.3,5.6,5.2,5.1,11c0,0.4-0.1,0.7-0.1,1.1c0,0.2,0.1,0.4,0.3,0.5c0.2,0,0.4-0.1,0.5-0.3c0.1-0.4,0.1-0.7,0.1-1.1
						c0.5-6.3-2.1-11.6-5.9-11.9c-3.7-0.3-7.2,4.5-7.7,10.8c0,0.5-0.1,0.9-0.1,1.4C122.5,124.6,122.6,124.8,122.8,124.8z"/>
				</g>
				<path class="st54" d="M119.8,123.7c0.2,0,2.4,0.2,2.5,0.2h0.1c0.3,0,11,0.7,12.7,0.8l0,0h0.4h0.1l0,0l0.9,0.1l0,0l0,0l0,0h0.1
					h0.4h0.4h0.2h0.2c1.3,0.1,2.6,0.1,3.8,0.1h0.3l0,0c0.1,0,0.1,0,0.1,0h0.2c0,0,0,0,0.1,0c0,0,0.1,0,0.1,0.1l0,0l0,0h-0.1h-0.1
					h-0.1c-0.4,0.1-0.9,0.2-1.4,0.3h-0.3h-0.2h-0.1h-0.2c-0.4,0.1-0.8,0.1-1.2,0.2h-0.3h-0.1h-0.1l0,0l0,0l0,0h-0.1l-1.3,0.7
					c-0.2,0-8.7-1-10.8-1.2c-1.1-0.1-3.8-0.3-3.8-0.3l-4.4-0.4L119.8,123.7z"/>
			</g>
			<path class="st55" d="M142.5,125.1c0,0.1,0.1,0.1,0,0.2l-0.1,0.3l-0.1,0.5c-0.4,2-0.5,4.1-0.5,5.6c0,2.1,0.1,4.1,0.3,6.1
				c0.1,0.8,0.2,1.6,0.3,2.4l0,0l0,0c0.1,0.2,0.1,0.5,0.1,0.7v0.1v0.3l0.1,0.6c0.1,0.5,0.2,1.2,0.3,1.7c0,0.1,0,0.1-0.1,0.2
				c0,0,0,0-0.1,0.1c-0.5,0.2-1.1,0.4-1.7,0.5c-0.4,0.1-0.7,0.1-1,0.2h-0.1h-0.1c-0.2,0-0.4,0-0.5,0h-0.1l0,0l0,0l0,0l0,0h-0.1H139
				h-0.1h-0.1c-0.1,0-0.1,0-0.1,0l-0.1-0.1c-0.1-0.6-0.1-1.1-0.2-1.7l-0.1-0.6V142v-0.1v-0.2v-0.2c-0.1-1.1-0.3-2.2-0.4-3.2
				c-0.1-1-0.2-2-0.2-3.1v-0.4v-0.1c0-0.8-0.1-1.6-0.1-2.4c-0.1-2,0-4.3,0.5-6.5v-0.1l0.1-0.1l0,0l0,0h0.1h0.3
				c0.4-0.1,0.8-0.1,1.2-0.2h0.2h0.1h0.2h0.3c0.5-0.1,1-0.2,1.4-0.3h0.1h0.1h0.1l0,0l0,0C142.5,125.1,142.5,125.1,142.5,125.1"/>
			<g>
				<g>
					<path class="st5" d="M138.4,125.7L138.4,125.7L138.4,125.7L138.4,125.7c-0.6,2.3-0.7,4.6-0.6,6.6c0,0.8,0.1,1.6,0.1,2.4v0.1
						v0.4c0,1,0.1,2,0.2,3.1c0.1,1.1,0.2,2.1,0.4,3.2v0.2v0.2v0.1v0.2l0.1,0.6c0.1,0.6,0.1,1.1,0.2,1.7c0,0,0,0.1,0.1,0.1
						c0,0,0,0,0.1,0h0.1h0.1h0.1h0.1l0,0l0,0c-0.3,0-0.7,0-1.1,0c-0.3,0-0.6,0-0.8-0.1c-0.7-0.1-1.3-0.1-2-0.2
						c-0.8-0.1-1.6-0.1-2.4-0.2l-0.8-0.1l-0.8-0.1l-1.1-0.1l-0.9-0.1H129h-0.5h-0.1h-0.1c-0.3,0-0.6-0.1-0.9-0.1l-1.9-0.2
						c-2.7-0.2-5.6-0.5-8.4-1.1c-0.1,0-0.1,0-0.1-0.1l0,0c0,0-0.1,0-0.1-0.1l-0.1-0.1c0.1-0.6,0.2-1,0.3-1.5s0.2-0.9,0.2-1.5
						c0.1-1,0.2-1.9,0.3-3c0.1-0.8,0.1-1.6,0.2-2.4v-0.7v-0.2v-0.2c0-0.4,0.1-0.7,0.1-1.1c0-0.5,0.1-1,0.1-1.5c0-1.4,0-2.7-0.1-3.9
						c0-0.4-0.1-0.9-0.1-1.3v-0.1c0-0.1,0.1-0.2,0.2-0.2h0.1C118.1,124.6,138.4,125.7,138.4,125.7"/>
					<polygon class="st16" points="130.4,131.6 127.2,127.8 126.1,132.7 121.5,134.6 125.8,137.1 126.2,142.1 129.9,138.7 
						134.8,139.9 132.8,135.3 135.4,131.1 					"/>
					<path class="st56" d="M121.4,140.6c1.7-4.6,8.1-2.2,8.2-9c0.1-3.8,4.6-4.7,8.5-4.8c-0.4,1.9-0.4,3.9-0.3,5.6
						c0,0.8,0.1,1.6,0.1,2.4v0.1v0.4c0,1,0.1,2,0.2,3.1c0.1,1.1,0.2,2.1,0.4,3.2v0.2v0.2v0.1v0.2l0.1,0.6c0.1,0.6,0.1,1.1,0.2,1.7
						c0,0,0,0.1,0.1,0.1c0,0,0,0,0.1,0h0.1h0.1h0.1h0.1l0,0l0,0c-0.3,0-0.7,0-1.1,0c-0.3,0-0.6,0-0.8-0.1c-0.7-0.1-1.3-0.1-2-0.2
						c-0.8-0.1-1.6-0.1-2.4-0.2l-0.8-0.1l-0.8-0.1l-1.1-0.1l-0.9-0.1H129h-0.5h-0.1h-0.1c-0.3,0-0.6-0.1-0.9-0.1l-1.9-0.2
						c-1.6-0.1-3.3-0.3-5-0.5C120.7,142.4,121,141.6,121.4,140.6z"/>
				</g>
				<g>
					<path class="st57" d="M121.1,126.8c0.1,0,0.1,0,0.2,0c0.3,0,0.5-0.2,0.5-0.5c0-0.7,0-1.5,0.1-2.2c0.6-6.8,4.2-12.1,8-11.8
						c3.9,0.3,6.6,6.1,6,12.9c-0.1,0.8-0.2,1.6-0.3,2.3c0,0.3,0.1,0.5,0.4,0.6c0.3,0,0.5-0.1,0.6-0.4c0.2-0.8,0.3-1.6,0.3-2.4
						c0.6-7.3-2.5-13.6-6.9-14c-4.4-0.4-8.5,5.3-9.1,12.7c-0.1,0.8-0.1,1.6-0.1,2.3C120.8,126.6,120.9,126.7,121.1,126.8z"/>
				</g>
			</g>
		</g>
		<g>
			<g>
				<g>
					<path class="st37" d="M126.4,127c0.2,0,0.3-0.1,0.4-0.3c0-0.3,0.1-0.7,0.1-1c0.3-5.9-2.3-10.9-5.8-11.1s-6.7,4.5-7,10.4
						c0,0.4,0,0.9,0,1.3c0,0.2,0.2,0.4,0.4,0.4s0.4-0.2,0.4-0.4c0-0.4,0-0.8,0-1.3c0.3-5.5,3.1-9.9,6.2-9.7
						c3.1,0.2,5.4,4.8,5.1,10.3c0,0.3,0,0.7-0.1,1C126,126.7,126.1,126.9,126.4,127C126.3,127,126.4,127,126.4,127z"/>
				</g>
				<path class="st58" d="M111.4,125.5c0.1,0,2.3,0.1,2.4,0.1h0.1c0.3,0,10.4,0.4,12,0.5l0,0h0.3h0.1l0,0h0.9l0,0l0,0l0,0h0.1h0.4
					h0.4h0.2h0.2c1.2,0,2.5,0,3.6,0h0.3l0,0c0.1,0,0.1,0,0.1,0h0.2c0,0,0,0,0.1,0h0.1l0,0l0,0h-0.1h-0.1h-0.1
					c-0.4,0.1-0.8,0.2-1.3,0.3l-0.2,0.1h-0.2h-0.1h-0.2c-0.4,0.1-0.7,0.1-1.1,0.2h-0.3h-0.1H129l0,0l0,0l0,0h-0.1l-1.2,0.7
					c-0.2,0-8.3-0.8-10.2-0.9c-1.1-0.1-3.6-0.2-3.6-0.2l-4.2-0.2L111.4,125.5z"/>
			</g>
			<path class="st59" d="M132.9,126.3C132.9,126.4,133,126.4,132.9,126.3l-0.1,0.4l-0.1,0.5c-0.3,1.9-0.3,3.9-0.3,5.4
				c0.1,2,0.2,3.9,0.4,5.7c0.1,0.7,0.2,1.5,0.3,2.3l0,0l0,0c0.1,0.2,0.1,0.4,0.1,0.6v0.1l0.1,0.3l0.1,0.6c0.1,0.5,0.2,1.1,0.3,1.6
				c0,0.1,0,0.1-0.1,0.2c0,0,0,0-0.1,0.1c-0.5,0.2-1,0.4-1.6,0.6c-0.3,0.1-0.6,0.1-0.9,0.2h-0.1h-0.1c-0.2,0-0.3,0-0.5,0l0,0l0,0
				l0,0l0,0l0,0h-0.1h-0.1l0,0H130h-0.1l-0.1-0.1c-0.1-0.5-0.2-1-0.2-1.6l-0.1-0.5v-0.2v-0.1v-0.2V142c-0.2-1-0.3-2-0.4-3
				c-0.1-1-0.2-1.9-0.3-2.9v-0.4v-0.1c-0.1-0.8-0.1-1.5-0.2-2.3c-0.1-1.8-0.1-4,0.3-6.2V127l0.1-0.1l0,0l0,0h0.1h0.3
				c0.4-0.1,0.7-0.1,1.1-0.2h0.2h0.1h0.2l0.2-0.1c0.5-0.1,0.9-0.2,1.3-0.3h0.1h0.1L132.9,126.3L132.9,126.3L132.9,126.3
				C132.8,126.2,132.8,126.3,132.9,126.3"/>
			<g>
				<g>
					<path class="st1" d="M129,127L129,127L129,127L129,127c-0.6,2.2-0.5,4.4-0.4,6.3c0,0.8,0.1,1.5,0.2,2.3v0.1v0.4
						c0.1,1,0.2,1.9,0.3,2.9s0.3,2,0.4,3v0.2v0.2v0.1v0.2l0.1,0.5c0.1,0.5,0.2,1,0.2,1.6c0,0,0,0.1,0.1,0.1c0,0,0,0,0.1,0h0.1h0.1
						h0.1h0.1l0,0l0,0c-0.3,0-0.6,0-1.1,0c-0.3,0-0.5,0-0.8,0c-0.6,0-1.3-0.1-1.9-0.1c-0.8,0-1.5-0.1-2.3-0.1h-0.8h-0.7l-1.1-0.1
						l-0.8-0.1h-0.5h-0.5h-0.1h-0.1c-0.3,0-0.6,0-0.9-0.1l-1.8-0.1c-2.6-0.2-5.3-0.4-8-0.8c-0.1,0-0.1,0-0.1-0.1l0,0h-0.1l-0.1-0.1
						c0.1-0.5,0.2-1,0.3-1.4c0.1-0.5,0.1-0.9,0.2-1.4c0.1-0.9,0.2-1.8,0.2-2.9c0-0.7,0.1-1.5,0.1-2.2v-0.7v-0.2v-0.2
						c0-0.4,0-0.7,0-1c0-0.5,0-1,0-1.4c0-1.3-0.1-2.6-0.2-3.7c0-0.4-0.1-0.8-0.2-1.2v-0.1c0-0.1,0.1-0.1,0.2-0.2l0,0
						C109.8,126.4,129,127,129,127"/>
					<polygon class="st16" points="119.9,132.4 116.1,130.7 117,134.8 114.2,137.9 118.4,138.2 120.4,141.9 122.1,138 126.2,137.2 
						123,134.4 123.5,130.3 					"/>
					<path class="st60" d="M113.2,141.4c1.5-4.4,7.6-2.3,7.6-8.7c0-3.6,4.2-4.6,7.9-4.7c-0.3,1.9-0.2,3.7-0.2,5.3
						c0,0.8,0.1,1.5,0.2,2.3v0.1v0.4c0.1,1,0.2,1.9,0.3,2.9s0.3,2,0.4,3v0.2v0.2v0.1v0.2l0.1,0.5c0.1,0.5,0.2,1,0.2,1.6
						c0,0,0,0.1,0.1,0.1c0,0,0,0,0.1,0h0.1h0.1h0.1h0.1l0,0l0,0c-0.3,0-0.6,0-1.1,0c-0.3,0-0.5,0-0.8,0c-0.6,0-1.3-0.1-1.9-0.1
						c-0.8,0-1.5-0.1-2.3-0.1h-0.8h-0.7l-1.1-0.1l-0.8-0.1h-0.5h-0.5h-0.1h-0.1c-0.3,0-0.6,0-0.9-0.1l-1.8-0.1
						c-1.6-0.1-3.2-0.2-4.8-0.4C112.6,143.1,112.9,142.4,113.2,141.4z"/>
				</g>
				<g>
					<path class="st57" d="M126.8,129.3c0.2,0,0.4-0.2,0.4-0.4c0.1-0.8,0.2-1.5,0.3-2.3c0.2-3.3-0.4-6.5-1.6-8.9
						c-1.3-2.5-3.1-4-5.2-4.1c-4.2-0.2-7.9,5.2-8.3,12.2c0,0.7,0,1.5,0,2.2c0,0.2,0.2,0.4,0.5,0.4l0,0c0.2,0,0.4-0.2,0.4-0.5
						c0-0.7,0-1.4,0-2.1c0.4-6.5,3.7-11.6,7.3-11.3c1.7,0.1,3.3,1.4,4.5,3.6c1.2,2.3,1.7,5.3,1.5,8.5c0,0.7-0.1,1.5-0.2,2.2
						C126.3,129,126.4,129.3,126.8,129.3C126.7,129.3,126.7,129.3,126.8,129.3z"/>
				</g>
			</g>
		</g>
	</g>
	<path class="st16" d="M177.9,44.9c-0.3,0-0.6,0.3-0.6,0.6v0.1h-0.4c-0.1,0-0.1,0.1-0.1,0.1v1.5c0,0.1,0.1,0.1,0.1,0.1l0,0h2
		c0.1,0,0.1-0.1,0.1-0.1l0,0v-1.5c0-0.1-0.1-0.1-0.1-0.1l0,0h-0.4v-0.1C178.5,45.2,178.2,44.9,177.9,44.9L177.9,44.9z M177.5,45.5
		c0-0.2,0.2-0.4,0.4-0.4s0.4,0.2,0.4,0.4v0.1h-0.7v-0.1H177.5z M178.7,45.9v1.2H177v-1.2h0.2v0.2h0.2v-0.2h0.7v0.2h0.2v-0.2H178.7z"
		/>
	<g>
		<path class="st16" d="M137.6,44.7c0,0.1-0.1,0.2-0.2,0.2c-0.1,0-0.2-0.1-0.2-0.2c0-0.1,0.1-0.2,0.2-0.2
			C137.6,44.5,137.6,44.6,137.6,44.7z M137.3,44.7C137.3,44.8,137.4,44.8,137.3,44.7h0.2C137.5,44.6,137.4,44.6,137.3,44.7
			C137.4,44.6,137.3,44.6,137.3,44.7z M137.4,44.8L137.4,44.8v-0.2h0.1c0,0,0.1,0,0.1,0.1C137.6,44.7,137.6,44.8,137.4,44.8l0.2,0.1
			L137.4,44.8L137.4,44.8L137.4,44.8L137.4,44.8L137.4,44.8z M137.5,44.7L137.5,44.7L137.5,44.7L137.5,44.7L137.5,44.7L137.5,44.7
			L137.5,44.7z"/>
	</g>
	<g>
		<path class="st16" d="M135.2,48.2C135.2,48.2,135.3,48.2,135.2,48.2c0.2-0.1,0.3-0.3,0.4-0.9h-0.2
			C135.3,47.9,135.1,48.1,135.2,48.2L135.2,48.2L135.2,48.2z"/>
		<path class="st16" d="M135.6,47.8c0,0.1,0,0.3,0,0.4c0.1,0,0.1,0,0.2,0c0-0.1,0-0.5,0-0.9h-0.2C135.6,47.5,135.6,47.6,135.6,47.8z
			"/>
		<g>
			<path class="st16" d="M135.5,48.3c-1.2,0-2.1-0.9-2.1-2.1c0-1.2,0.9-2.1,2.1-2.1s2.1,0.9,2.1,2.1
				C137.6,47.4,136.6,48.3,135.5,48.3z M135.5,44.2c-1.1,0-2,0.9-2,2s0.9,2,2,2s2-0.9,2-2S136.5,44.2,135.5,44.2z"/>
		</g>
		<path class="st16" d="M134,47C134,46.9,134,46.9,134,47L134,47L134,47c-0.1-0.2-0.1-0.3-0.1-0.5c0-0.1,0-0.2,0-0.2
			c0-0.2-0.1-0.3,0.1-0.4c0,0,0,0,0.1,0c0-0.1-0.1-0.1-0.1-0.1h-0.1c-0.3,0.1-0.2,0.4-0.2,0.6l0,0c0,0.1,0,0.1,0,0.2
			C133.7,46.6,133.7,46.8,134,47L134,47L134,47z"/>
		<path class="st16" d="M134.7,44.7C134.8,44.7,134.8,44.7,134.7,44.7c0.1,0,0.2-0.1,0.2-0.1s0.1-0.1,0.2,0c0.1,0,0.2,0,0.3,0l0,0
			h0.1c0,0,0.1,0,0.2,0.1l0.1,0.1c0.1,0,0.1-0.1,0.1-0.1c0-0.1-0.1-0.1-0.1-0.2l0,0l0,0c-0.1-0.1-0.2-0.1-0.3-0.1s-0.1,0-0.1,0
			c-0.1,0-0.1,0-0.2,0c-0.2,0-0.4,0-0.4,0l0,0c-0.1,0.1-0.2,0.2-0.2,0.3C134.7,44.7,134.7,44.7,134.7,44.7z"/>
		<path class="st16" d="M137.2,46.2c-0.1-0.3,0-0.3-0.1-0.6l-0.1-0.1l0,0c0,0-0.1-0.1-0.2-0.1c0,0,0,0.1-0.1,0.1
			c0.1,0,0.1,0,0.1,0.1c0.1,0.1,0.1,0.2,0.1,0.3s0,0.2,0,0.3s0.1,0.2-0.1,0.3l-0.1,0.1c0,0.1,0.1,0.1,0.1,0.1c0.1,0,0.1-0.1,0.2-0.1
			c0-0.1,0.1-0.1,0.1-0.2C137.3,46.4,137.3,46.3,137.2,46.2z"/>
		<g>
			<path class="st16" d="M135.8,45.6c-0.1,0-0.4,0-0.5,0.1c0,0,0,0,0,0.1c0-0.1-0.1-0.1-0.2-0.1c-0.1,0-0.1,0-0.2,0
				c-0.1,0-0.1,0.1-0.1,0.1c-0.1,0.1,0,0.3,0.1,0.4c0.1,0.1,0.1,0.1,0.2,0.2c-0.1,0-0.1,0.1-0.1,0.1c0,0.1,0,0.1,0,0.2
				s0.1,0.1,0.2,0.1c0.1,0,0.4,0,0.5-0.1c0,0,0,0,0.1-0.1c0.1,0.1,0.1,0.1,0.2,0.1c0.1,0,0.1-0.1,0.1-0.3l0,0c0-0.1-0.1-0.3-0.3-0.4
				c0.1-0.1,0.1-0.1,0.1-0.2l0,0C135.9,45.7,135.9,45.6,135.8,45.6z M135.5,46.6c-0.1,0.1-0.3,0.1-0.4,0.1c-0.1,0-0.1,0-0.1,0l0,0
				c0,0,0.1-0.1,0.3-0.1l0,0C135.4,46.5,135.4,46.5,135.5,46.6C135.5,46.5,135.5,46.5,135.5,46.6C135.6,46.5,135.6,46.5,135.5,46.6z
				 M135.9,46.4c0,0.1,0,0.2-0.1,0.2c0,0-0.1-0.1-0.2-0.2v-0.1v-0.1C135.8,46.1,135.9,46.2,135.9,46.4z M135.6,46.2
				C135.6,46.3,135.5,46.3,135.6,46.2h-0.2H135.6C135.5,46.1,135.6,46.1,135.6,46.2z M135.2,46c0,0.1-0.1,0.1-0.1,0.2v0.1
				c-0.1,0-0.1-0.1-0.2-0.1c-0.1-0.1-0.1-0.3-0.1-0.3s0,0,0.1-0.1c0,0,0,0,0.1,0C135.1,45.8,135.2,45.9,135.2,46z M135.8,45.7
				c0,0.1-0.1,0.1-0.2,0.2l0,0h-0.1l0,0c0-0.1,0-0.1,0.1-0.1C135.6,45.7,135.8,45.7,135.8,45.7z"/>
			<path class="st16" d="M135.8,44.7c-0.1,0.1-0.2,0.3-0.3,0.4h-0.1h-0.1c-0.1-0.1-0.2-0.3-0.5-0.4c-0.3-0.1-0.4,0.1-0.5,0.3l0,0
				c0,0.1-0.1,0.1-0.1,0.1c-0.2,0.1-0.3,0.3-0.2,0.6c0,0.1,0.1,0.3,0.5,0.5v0.1l0,0v0.1c-0.2,0.1-0.4,0.3-0.4,0.6
				c0,0.2,0.2,0.4,0.3,0.4s0.1,0.1,0.1,0.1c0.1,0.1,0.2,0.2,0.3,0.2c0.1,0.1,0.3,0.1,0.4,0c0.2-0.1,0.4-0.4,0.4-0.5h0.1
				c0.1,0,0.1,0,0.1,0s0.1,0.1,0.1,0.2c0.1,0.1,0.3,0.2,0.5,0.2c0.1,0,0.1,0,0.2-0.1c0.1,0,0.1-0.1,0.2-0.2c0.1-0.3,0.3-0.2,0.4-0.4
				c0,0,0-0.1,0-0.2l0,0c0-0.2-0.1-0.4-0.5-0.6c0,0,0-0.1,0-0.2l0,0l0,0c0.3-0.3,0.4-0.5,0.4-0.6l0,0l0,0c0-0.2-0.1-0.3-0.1-0.3
				l-0.1-0.1c-0.1,0-0.1-0.1-0.2-0.1c-0.1-0.2-0.3-0.2-0.3-0.2l0,0C136.1,44.5,135.9,44.6,135.8,44.7z M134.2,45.9
				c-0.1-0.1-0.2-0.2-0.2-0.2l0,0c0-0.2,0-0.3,0.2-0.4c0.1,0,0.1-0.1,0.2-0.2c0.1-0.2,0.2-0.3,0.4-0.2s0.3,0.3,0.4,0.3
				c-0.1,0.1-0.1,0.2-0.2,0.2l0,0c-0.1,0-0.1,0-0.2,0l0,0c-0.1,0.1-0.2,0.2-0.2,0.4c0,0.1,0,0.2,0,0.3l0,0
				C134.4,46,134.3,46,134.2,45.9z M134.9,47.6L134.9,47.6c-0.2,0.1-0.4,0-0.5-0.2l0,0c0,0-0.1-0.1-0.2-0.2c0,0-0.2-0.1-0.2-0.3
				c0-0.1,0.1-0.3,0.3-0.4l0.1,0.1l0.1,0.1v0.1c0,0.1,0.1,0.2,0.2,0.3c0.1,0,0.3,0,0.4,0c0,0,0,0,0,0.1l0,0
				C135.3,47.2,135.2,47.5,134.9,47.6z M136.9,46.9c0,0.1-0.1,0.2-0.2,0.3c-0.1,0.1-0.1,0.1-0.2,0.2c0,0.1-0.1,0.2-0.3,0.2
				c-0.1,0-0.3,0-0.5-0.3c0.1-0.1,0.2-0.2,0.2-0.3c0.1,0,0.1,0,0.2,0l0,0c0.1,0,0.2-0.1,0.2-0.4l0,0c0-0.1,0-0.2,0-0.3l0,0
				C136.7,46.5,136.9,46.7,136.9,46.9z M136.4,46C136.4,46,136.4,46.1,136.4,46C136.4,46.1,136.4,46.1,136.4,46L136.4,46l-0.2,0.1
				h-0.1v0.1c0,0,0.1,0.2,0.1,0.3s0,0.2-0.1,0.2s-0.1,0-0.1,0s0-0.1-0.1-0.1s-0.1,0-0.1,0.1c0,0-0.1,0.3-0.3,0.4h-0.1l0,0l0,0l0,0
				c0,0-0.1,0-0.1-0.1l0,0v-0.1h-0.1c0,0-0.3,0.1-0.4,0.1c-0.1,0-0.1-0.1-0.1-0.1v-0.1c0,0,0,0,0-0.1c0,0,0-0.1-0.1-0.1
				s-0.1-0.1-0.2-0.1c-0.1-0.1-0.1-0.1-0.1-0.2l0,0c0-0.1,0-0.1,0-0.1h0.1h0.1v-0.1c0,0-0.1-0.2-0.1-0.3s0-0.2,0.1-0.2h0.1v0.1
				c0,0,0,0.1,0.1,0.1c0,0,0.1,0,0.1-0.1c0,0,0.1-0.1,0.1-0.2c0.1-0.1,0.1-0.1,0.2-0.2h0.1v0.1l0,0v0.1h0.1c0.1,0,0.3-0.1,0.5,0
				l0.1,0.1c0,0.1,0,0.1-0.1,0.1l0,0c0,0,0,0,0,0.1v0.1l0,0C136.1,45.8,136.4,45.9,136.4,46z M136.2,44.7c0,0,0.1,0.1,0.2,0.2
				c0.1,0.1,0.1,0.1,0.2,0.2l0,0c0,0,0.1,0,0.1,0.1s0.1,0.1,0.1,0.2c0,0.1-0.1,0.3-0.3,0.5c0-0.1-0.1-0.1-0.2-0.1c0,0-0.1,0-0.1-0.1
				s0-0.1,0-0.2c0-0.1,0-0.1-0.1-0.2c-0.2-0.1-0.4-0.1-0.5,0c0,0,0,0,0-0.1s0.1-0.2,0.2-0.3C135.9,44.7,136.1,44.7,136.2,44.7z"/>
		</g>
	</g>
	<text transform="matrix(0.9962 0 0 1 139.1171 48.2061)" class="st16 st61 st62">ZeZ</text>
	<text transform="matrix(1 0 0 1 147.6659 48.2063)" class="st16 st61 st63">aWar</text>
	<text transform="matrix(1 0 0 1 155.6522 45.2551)" class="st16 st61 st64">.com</text>
</g>
</svg>
