<?xml version="1.0" encoding="utf-8"?>
<!-- Generator: Adobe Illustrator 24.0.2, SVG Export Plug-In . SVG Version: 6.00 Build 0)  -->
<svg version="1.1" id="Layer_1" xmlns="http://www.w3.org/2000/svg" xmlns:xlink="http://www.w3.org/1999/xlink" x="0px" y="0px"
	 viewBox="0 0 192 192" style="enable-background:new 0 0 192 192;" xml:space="preserve">
<style type="text/css">
	.st0{fill:#FFAB4D;stroke:#FFAB4D;stroke-width:5;stroke-miterlimit:10;}
	.st1{fill:#FF5900;}
	.st2{opacity:0.15;fill:none;stroke:#808080;stroke-miterlimit:10;enable-background:new    ;}
</style>
<g>
	<g>
		<path class="st0" d="M78.8,83.8l-28,62.9l20-7.7l7.7,20l28-62.9L78.8,83.8z"/>
		<path class="st0" d="M85.6,96.1l28,62.9l7.7-20l20,7.7l-28-62.9L85.6,96.1z"/>
	</g>
	<path class="st1" d="M52.6,74.7c0.9,2,0.9,4.3,0,6.4c-0.3,0.7-0.6,1.5-0.9,2.3c-0.2,0.4-0.3,0.9-0.5,1.3c-1.1,3.2-0.3,6.7,2.2,8.9
		c0.7,0.6,1.4,1.2,2.1,1.7c2,1.5,3,3.9,3,6.4c0,0.3,0,0.7,0,1c0.1,3.9,3,7.3,6.9,7.9c0.1,0,0.3,0,0.4,0.1c2.6,0.4,4.9,2.1,6.1,4.5
		v0.1c1.8,3.5,5.8,5.2,9.5,4.2c0.2,0,0.3-0.1,0.5-0.1c2.6-0.7,5.3-0.2,7.4,1.5c0.1,0.1,0.2,0.2,0.3,0.3c3,2.4,7.2,2.4,10.3,0.1
		c0.1-0.1,0.2-0.2,0.3-0.3c2.1-1.7,4.9-2.2,7.4-1.4c0.2,0,0.3,0.1,0.5,0.1c3.8,1.1,7.8-0.6,9.6-4.1c0,0,0-0.1,0.1-0.1
		c1.2-2.4,3.5-4,6.2-4.4c0.1,0,0.3,0,0.4-0.1c3.9-0.6,6.8-3.9,7-7.8c0-0.3,0-0.6,0-0.9c0.1-2.5,1.2-4.9,3.2-6.4c0.7-0.5,1.3-1,2-1.6
		c2.5-2.2,3.4-5.7,2.3-8.9c-0.5-1.4-1-2.7-1.5-4.1c-0.9-2.1-0.9-4.4,0-6.5c0.6-1.3,1.1-2.7,1.5-4.1c1.1-3.2,0.2-6.7-2.3-8.9
		c-0.7-0.6-1.3-1.1-2-1.6c-2-1.5-3.1-3.9-3.2-6.4c0-0.3,0-0.6,0-0.9c-0.2-3.9-3.1-7.2-7-7.8c-0.1,0-0.3,0-0.4-0.1
		c-2.7-0.4-5-2-6.2-4.4c0,0,0-0.1-0.1-0.1c-1.8-3.5-5.8-5.2-9.6-4.1c-0.2,0-0.3,0.1-0.5,0.1c-2.6,0.8-5.3,0.2-7.4-1.4
		c-0.1-0.1-0.2-0.2-0.3-0.3c-3-2.4-7.3-2.3-10.3,0.1c-0.1,0.1-0.2,0.2-0.3,0.3c-2.1,1.7-4.8,2.3-7.4,1.5c-0.2,0-0.3-0.1-0.5-0.1
		c-3.8-1-7.8,0.7-9.5,4.2v0.1c-1.2,2.4-3.5,4.1-6.1,4.5c-0.1,0-0.3,0-0.4,0.1c-3.9,0.6-6.8,3.9-6.9,7.9c0,0.3,0,0.7,0,1
		c0,2.5-1.1,4.8-3,6.4c-0.7,0.5-1.4,1.1-2.1,1.7c-2.5,2.2-3.3,5.8-2.2,8.9c0.2,0.4,0.3,0.9,0.5,1.3C52,73.2,52.3,74,52.6,74.7z"/>
	<circle class="st0" cx="95.1" cy="77.9" r="31.9"/>
	<path class="st1" d="M89.1,91.2c-0.9,0-1.8-0.3-2.5-1l-7.7-7.7c-1.4-1.4-1.4-3.6,0-4.9c1.4-1.4,3.6-1.4,4.9,0l5.3,5.3l17.2-17.2
		c1.4-1.4,3.6-1.4,4.9,0c1.4,1.4,1.4,3.6,0,4.9L91.6,90.2C90.9,90.9,90,91.2,89.1,91.2z"/>
</g>
<path class="st2" d="M162,192H30c-16.6,0-30-13.4-30-30V30C0,13.4,13.4,0,30,0h132c16.6,0,30,13.4,30,30v132
	C192,178.6,178.6,192,162,192z"/>
</svg>
