<?xml version="1.0" encoding="utf-8"?>
<!-- Generator: Adobe Illustrator 24.0.2, SVG Export Plug-In . SVG Version: 6.00 Build 0)  -->
<svg version="1.1" id="Layer_1" xmlns="http://www.w3.org/2000/svg" xmlns:xlink="http://www.w3.org/1999/xlink" x="0px" y="0px"
	 viewBox="0 0 192 192" style="enable-background:new 0 0 192 192;" xml:space="preserve">
<style type="text/css">
	.st0{fill:none;stroke:#DFBBB0;stroke-width:10;stroke-miterlimit:10;}
	.st1{fill:#FF5900;}
	.st2{fill:#FFAB4D;}
	.st3{fill:#FFFFFF;}
	.st4{opacity:0.15;fill:none;stroke:#808080;stroke-miterlimit:10;enable-background:new    ;}
</style>
<g>
	<path class="st0" d="M30.3,63.2L23.2,128l113.9,15.9V63.2H30.3z M120.8,107.3L97,123.9H63.3l-23.8-16.6V83.8l23.8-16.6H97
		l23.8,16.6V107.3z"/>
	<path class="st1" d="M30.3,63.2L23.2,128l113.9,15.9V63.2H30.3z M120.8,107.3L97,123.9H63.3l-23.8-16.6V83.8l23.8-16.6H97
		l23.8,16.6V107.3z"/>
	<path class="st0" d="M43.8,55.7L39,120.5l113.9,7.9V55.7H43.8z M136.6,99.8l-23.8,16.6H79.2L55.4,99.8V76.3l23.8-16.6h33.7
		l23.8,16.6L136.6,99.8L136.6,99.8z"/>
	<path class="st2" d="M43.8,55.7L39,120.5l113.9,7.9V55.7H43.8z M136.6,99.8l-23.8,16.6H79.2L55.4,99.8V76.3l23.8-16.6h33.7
		l23.8,16.6L136.6,99.8L136.6,99.8z"/>
	<g>
		<rect x="54.9" y="48.1" class="st0" width="113.9" height="64.8"/>
		<g>
			<rect x="55.4" y="50.4" class="st3" width="109.1" height="61.1"/>
			<g>
				<path class="st1" d="M54.9,48.1v64.8h113.9V48.1H54.9z M152.5,92.3l-23.8,16.6H95L71.2,92.3V68.8L95,52.2h33.7l23.8,16.6V92.3z"
					/>
				<g>
					<rect x="69.5" y="72.8" class="st1" width="84.8" height="5.9"/>
					<path class="st1" d="M86.2,72.8c0.7,1.9,1,3.9,0.7,5.9h47.6c0.5-1.9,1.5-4,2.7-5.9H86.2z"/>
				</g>
				<g>
					<g>
						<g>
							<path class="st1" d="M102.5,77.6c-1.1,1.6-3.9,8.1-7,15.5c3.1-0.5,5.9,0.5,6.5,3.1c0.7-1.8,1.4-3.6,2.2-5.4
								c3.6-8.6,6-12.4,6-12.4C111.8,76.5,105.5,73.3,102.5,77.6z"/>
							<path class="st1" d="M102.5,77.6c-0.7,1-1.9,3.6-3.4,7.1c2.6-1.3,6.7-0.5,7.6,0.4c2.2-4.7,3.5-6.8,3.5-6.8
								C111.8,76.5,105.5,73.3,102.5,77.6z"/>
						</g>
					</g>
					<g>
						<path class="st1" d="M108.7,74.5c0,0-8.3-10.1-11.4-9.6s-7.5,9.9-7.6,10.6c-0.1,0.8,3.8,3.4,8.7,4.2c4.9,0.8,9.7-0.2,9.7-0.2
							S109.3,76.2,108.7,74.5z"/>
						<path class="st1" d="M108.7,74.5c0,0-1.3-1.6-3.1-3.5c1.2,2.9,1.1,5.9,0.8,8.7c1-0.1,1.6-0.3,1.6-0.3S109.3,76.2,108.7,74.5z"
							/>
						<path class="st1" d="M93.3,74.9c-0.9-0.6-2.9-1-3.6,0.6c-0.5,2,3.8,3.4,8.7,4.2c1,0.2,2.1,0.3,3.1,0.3
							C98.3,79.7,95.7,76.4,93.3,74.9z"/>
					</g>
				</g>
				<g>
					<g>
						<g>
							<path class="st1" d="M121.2,77.6c1.1,1.6,3.9,8.1,7,15.5c-3.1-0.5-5.9,0.5-6.5,3.1c-0.7-1.8-1.4-3.6-2.2-5.4
								c-3.6-8.6-6-12.4-6-12.4C111.9,76.5,118.3,73.3,121.2,77.6z"/>
							<path class="st1" d="M121.2,77.6c0.7,1,1.9,3.6,3.4,7.1c-2.6-1.3-6.7-0.5-7.6,0.4c-2.2-4.7-3.5-6.8-3.5-6.8
								C111.9,76.5,118.3,73.3,121.2,77.6z"/>
						</g>
					</g>
					<g>
						<path class="st1" d="M115,74.5c0,0,8.3-10.1,11.4-9.6s7.5,9.9,7.6,10.6c0.1,0.8-3.8,3.4-8.7,4.2c-4.9,0.8-9.7-0.2-9.7-0.2
							S114.4,76.2,115,74.5z"/>
						<path class="st1" d="M115,74.5c0,0,1.3-1.6,3.1-3.5c-1.2,2.9-1.1,5.9-0.8,8.7c-1-0.1-1.6-0.3-1.6-0.3S114.4,76.2,115,74.5z"/>
						<path class="st1" d="M130.5,74.9c0.9-0.6,2.9-1,3.6,0.6c0.5,2-3.8,3.4-8.7,4.2c-1,0.2-2.1,0.3-3.1,0.3
							C125.4,79.7,128,76.4,130.5,74.9z"/>
					</g>
					<path class="st1" d="M116.1,73.3c0,0-0.3-0.5-1.7-0.9c-1.6-0.5-3.4-0.5-5.1,0c-1.4,0.4-1.7,0.9-1.7,0.9
						c1.2,1.8,0.4,6.1,0.4,6.1s1,0.4,2.7,0.5c0.4,0,1.8,0,2.2,0c1.7-0.1,2.7-0.5,2.7-0.5S114.9,75.1,116.1,73.3z"/>
				</g>
			</g>
		</g>
	</g>
</g>
<path class="st4" d="M162,192H30c-16.6,0-30-13.4-30-30V30C0,13.4,13.4,0,30,0h132c16.6,0,30,13.4,30,30v132
	C192,178.6,178.6,192,162,192z"/>
</svg>
