<?xml version="1.0" encoding="utf-8"?>
<!-- Generator: Adobe Illustrator 24.0.2, SVG Export Plug-In . SVG Version: 6.00 Build 0)  -->
<svg version="1.1" id="Layer_1" xmlns="http://www.w3.org/2000/svg" xmlns:xlink="http://www.w3.org/1999/xlink" x="0px" y="0px"
	 viewBox="0 0 192 192" style="enable-background:new 0 0 192 192;" xml:space="preserve">
<style type="text/css">
	.st0{fill:#00BDFF;}
	.st1{fill:#FF40AE;}
	.st2{fill:#8CCBC0;}
	.st3{fill:#E0B1FF;}
	.st4{fill:#FFE000;}
	.st5{fill:#6DBA00;}
	.st6{opacity:0.15;fill:#DFBBB0;stroke:#FFF1F0;stroke-miterlimit:10;enable-background:new    ;}
	.st7{fill:#DFBBB0;}
	.st8{fill:#FF5100;}
	.st9{fill:#FF5900;}
	.st10{opacity:0.15;fill:none;stroke:#808080;stroke-miterlimit:10;enable-background:new    ;}
</style>
<polyline class="st0" points="90.6,25.6 29.3,126.4 47.6,156.5 106.3,41.3 "/>
<path class="st1" d="M55.3,48.5c-9.5,0-17.2,7.7-17.2,17.2c0,1.8,0.3,3.6,0.8,5.3h23.3l8.1-13.8C67.3,52,61.7,48.5,55.3,48.5z"/>
<path class="st1" d="M130.2,44.2c1.3-1.6,2.2-3.7,2.2-6c0-5.2-4.2-9.5-9.5-9.5s-9.5,4.2-9.5,9.5c0,2.3,0.8,4.4,2.2,6H130.2z"/>
<polygon class="st0" points="89.2,70.9 109.6,35.5 91,24.8 64.4,70.9 "/>
<g>
	<rect x="129.7" y="51.6" class="st2" width="33.9" height="19.5"/>
	<rect x="139.6" y="42.6" class="st2" width="14.2" height="5.9"/>
	<rect x="140.8" y="47.5" class="st2" width="11.7" height="8.3"/>
</g>
<polygon class="st3" points="106.1,45.5 132.4,45.5 132.4,49.4 127.1,49.4 127.1,70.9 91.4,70.9 "/>
<path class="st4" d="M73.1,25.6c-6.8,0-12.3,5.5-12.3,12.3s5.5,12.3,12.3,12.3c0.4,0,0.9,0,1.3-0.1l10-17.2
	C82.4,28.6,78.1,25.6,73.1,25.6z"/>
<g>
	<path class="st5" d="M43.8,44.3c-0.1,0-0.1,0-0.2,0c-0.4,0-0.7-0.3-0.8-0.7c-0.1-0.5,0.2-0.9,0.6-1l11-2.5l-7.8-7.9l-8.4,1.2h-0.1
		c-0.4,0-0.8-0.3-0.8-0.7c-0.1-0.5,0.3-0.9,0.7-1l7.2-1L38,23.4c-0.3-0.3-0.3-0.9,0-1.2c0.3-0.3,0.9-0.3,1.2,0l7.2,7.3l0.8-6.8
		c0.1-0.5,0.5-0.8,0.9-0.7c0.5,0.1,0.8,0.5,0.7,0.9l-1,8.1l7.5,7.6L56,26.5c0-0.5,0.4-0.8,0.9-0.8s0.8,0.4,0.8,0.9L57,40.2l3,3
		c-0.7-1.7-1.2-3.7-1.2-5.7c0-3.8,1.5-7.3,3.9-9.9c-6.7-4.4-16.5-8.9-28.9-9.2c0,0-0.8,16.4,9.9,32.4c3.3-2.6,7.6-4.2,12.2-4.2
		c2.1,0,4.1,0.4,6,1l-6-6.1L43.8,44.3z"/>
</g>
<rect x="93" y="70.6" class="st3" width="36.7" height="93"/>
<circle class="st4" cx="76.5" cy="119.7" r="15.7"/>
<circle class="st6" cx="54.2" cy="152.9" r="15.7"/>
<circle class="st4" cx="47" cy="98" r="15.7"/>
<circle class="st1" cx="47" cy="126.4" r="15.7"/>
<circle class="st6" cx="76.5" cy="145.9" r="15.7"/>
<circle class="st7" cx="96" cy="145.9" r="15.7"/>
<rect x="131.3" y="60.3" class="st2" width="32.4" height="103.2"/>
<circle class="st7" cx="121" cy="147.1" r="15.7"/>
<circle class="st7" cx="54.2" cy="151.2" r="15.7"/>
<circle class="st7" cx="73.4" cy="151.2" r="15.7"/>
<circle class="st7" cx="137.7" cy="151.2" r="15.7"/>
<path class="st8" d="M21.8,81.2l12.6,76.2c0,7.8,6.3,14.1,14.1,14.1h99.6c7.8,0,14.1-6.3,14.1-14.1l12.6-76.2H21.8z M54,161
	c-3,0.5-5.8-1.5-6.4-4.5l-8.9-50.8c-0.5-3,1.5-5.8,4.5-6.4c3-0.5,5.8,1.5,6.4,4.5l8.9,50.8C59,157.6,57,160.5,54,161z M76.1,161.3
	c-3,0.3-5.7-1.9-6.1-4.9l-5.5-51.3c-0.3-3,1.9-5.7,4.9-6.1c3-0.3,5.7,1.9,6.1,4.9l5.5,51.3C81.3,158.3,79.2,161,76.1,161.3z
	 M104.4,155c0,3.4-2.7,6.1-6.1,6.1s-6.1-2.7-6.1-6.1v-50.9c0-3.4,2.7-6.1,6.1-6.1s6.1,2.7,6.1,6.1V155z M131.2,105.1l-5.5,51.3
	c-0.3,3-3,5.2-6.1,4.9c-3-0.3-5.2-3-4.9-6.1l5.5-51.3c0.3-3,3-5.2,6.1-4.9C129.4,99.4,131.6,102.1,131.2,105.1z M157.9,105.7
	l-8.9,50.8c-0.5,3-3.4,5-6.4,4.5s-5-3.4-4.5-6.4l8.9-50.8c0.5-3,3.4-5,6.4-4.5C156.4,99.9,158.4,102.7,157.9,105.7z"/>
<path class="st9" d="M179.6,86.7c0,2.2-1.8,4-4,4H21c-2.2,0-4-1.8-4-4V75.8c0-2.2,1.8-4,4-4h154.6c2.2,0,4,1.8,4,4V86.7z"/>
<path class="st10" d="M162,192H30c-16.6,0-30-13.4-30-30V30C0,13.4,13.4,0,30,0h132c16.6,0,30,13.4,30,30v132
	C192,178.6,178.6,192,162,192z"/>
</svg>
