<?xml version="1.0" encoding="utf-8"?>
<!-- Generator: Adobe Illustrator 24.0.2, SVG Export Plug-In . SVG Version: 6.00 Build 0)  -->
<svg version="1.1" id="Layer_1" xmlns="http://www.w3.org/2000/svg" xmlns:xlink="http://www.w3.org/1999/xlink" x="0px" y="0px"
	 viewBox="0 0 192 192" style="enable-background:new 0 0 192 192;" xml:space="preserve">
<style type="text/css">
	.st0{fill:#FF5900;}
	.st1{fill:#FFE69E;stroke:#DFBBB0;stroke-miterlimit:10;}
	.st2{fill:#FFCC00;}
	.st3{fill:#00B300;}
	.st4{fill:none;stroke:#FFFFFF;stroke-miterlimit:10;}
	.st5{fill:#FFFFFF;}
	.st6{fill:#FF1F35;}
	.st7{opacity:0.15;fill:none;stroke:#808080;stroke-miterlimit:10;enable-background:new    ;}
</style>
<g>
	<path class="st0" d="M125.8,149.3H71.6v-22.6h54.2V149.3z M74.6,146.4h48.3v-16.8H74.6V146.4z"/>
</g>
<g>
	<path class="st1" d="M64.2,75.6c0,0-5.9,5.4-3.7,14.1c0,0,4.7,14.6,16.7,25.9v12.5h43.6v-11.7l5.9-5.1c0,0,4.3-3.3,4.2-9V69.9
		h-23.1"/>
	<path class="st0" d="M122.3,129.6H75.7v-13.3c-11.8-11.4-16.4-25.5-16.6-26.1v-0.1c-2.3-9.5,3.9-15.3,4.2-15.6l2,2.2
		c-0.2,0.2-5.2,4.9-3.3,12.6c0.3,0.9,5.1,14.6,16.3,25.3l0.5,0.4v11.7h40.7v-10.9l6.5-5.6c0.1-0.1,3.7-3,3.7-7.8v-31h-21.6v-2.9
		h24.5v33.8c0,6.1-4.3,9.7-4.8,10.1l-5.4,4.7L122.3,129.6L122.3,129.6z"/>
</g>
<path class="st2" d="M134.1,65.1c-0.1,0-0.2,0-0.3,0H58.3c-0.5,0-0.9,0-1.3,0.1c-3.2-8.1-11.2-13.8-20.4-13.8
	c-9,0-16.8,5.4-20.2,13.2h20.2v17.5H16.4c3.4,7.8,11.1,13.2,20.2,13.2c9.3,0,17.2-5.7,20.4-13.8c0.4,0.1,0.8,0.1,1.3,0.1h75.5
	c0.1,0,0.1,0,0.2,0c3.2,8.1,11.2,13.9,20.4,13.9c9,0,16.8-5.4,20.2-13.2h-20.2V64.8h20.2c-3.4-7.8-11.1-13.2-20.2-13.2
	C145.3,51.5,137.4,57.1,134.1,65.1z"/>
<path class="st3" d="M154.4,64.8h20.2c-3.4-7.8-11.1-13.2-20.2-13.2c-9.1,0-17,5.6-20.3,13.5c-0.1,0-0.2,0-0.3,0H58.3
	c-0.5,0-0.9,0-1.3,0.1c-0.1-0.3-0.3-0.6-0.4-0.8v18c0.1-0.3,0.3-0.6,0.4-0.8c0.4,0.1,0.8,0.1,1.3,0.1h75.5c0.1,0,0.1,0,0.2,0
	c3.2,8.1,11.2,13.9,20.4,13.9c9,0,16.8-5.4,20.2-13.2h-20.2V64.8z"/>
<g>
	<path class="st4" d="M154.4,97c-9.3,0-17.6-5.4-21.4-13.9H58.3c-0.1,0-0.3,0-0.4,0c-3.8,8.4-12.1,13.7-21.3,13.7
		c-9.3,0-17.8-5.5-21.5-14.1l-0.9-2h20.9V66h-21l0.9-2c3.7-8.6,12.2-14.1,21.5-14.1S54,55.2,57.8,63.6c0.1,0,0.3,0,0.4,0h74.9
		c3.9-8.2,12.1-13.5,21.3-13.5c9.3,0,17.8,5.5,21.5,14.1l0.9,2h-20.9v14.6h20.9l-0.9,2C172.2,91.4,163.8,97,154.4,97z M134,80.1h1
		l0.4,0.9c3.1,7.9,10.6,13,19.1,13c7.4,0,14.2-4,17.8-10.3H153V63.3h19.3C168.6,57,161.8,53,154.4,53c-8.3,0-15.8,5-19,12.6l-0.4,1
		l-1.1-0.1c-0.1,0-0.1,0-0.2,0H58.3c-0.4,0-0.7,0-1,0.1l-1.2,0.2l-0.5-1.1C52.5,57.9,45,52.8,36.5,52.8c-7.4,0-14.2,4-17.8,10.3H38
		v20.4H18.7c3.6,6.3,10.4,10.3,17.8,10.3c8.4,0,15.9-5.1,19.1-12.9l0.4-1.1l1.2,0.2c0.4,0.1,0.7,0.1,1.1,0.1h75.5
		C133.8,80.2,133.9,80.1,134,80.1z"/>
</g>
<g>
	<path class="st5" d="M128.5,71.3c1.2,0,2.2,1,2.2,2.2l0,0c0,1.2-1,2.2-2.2,2.2H62.4c-1.2,0-2.2-1-2.2-2.2l0,0c0-1.2,1-2.2,2.2-2.2
		H128.5z"/>
	<g>
		<path class="st0" d="M128.5,77.1H62.4c-2,0-3.6-1.6-3.6-3.6s1.6-3.6,3.6-3.6h66.1c2,0,3.6,1.6,3.6,3.6
			C132.2,75.4,130.5,77.1,128.5,77.1z M62.4,72.7c-0.4,0-0.7,0.3-0.7,0.7c0,0.4,0.3,0.7,0.7,0.7h66.1c0.4,0,0.7-0.3,0.7-0.7
			c0-0.4-0.3-0.7-0.7-0.7H62.4z"/>
	</g>
</g>
<g>
	<path class="st5" d="M54.8,73.6l-2.9-0.1c0.1-3.9-1.3-7.6-4-10.4c-2.7-2.8-6.3-4.4-10.2-4.5l0.1-2.9c4.7,0.1,9.1,2,12.3,5.4
		C53.2,64.5,54.9,69,54.8,73.6z"/>
</g>
<g>
	<path class="st1" d="M90.4,73.2c0,3.7-3,6.6-6.6,6.6l0,0c-3.6,0-6.6-3-6.6-6.6V60.8c0-3.7,3-6.6,6.6-6.6l0,0c3.7,0,6.6,3,6.6,6.6
		V73.2z"/>
	<g>
		<path class="st0" d="M83.8,81.3c-4.5,0-8.1-3.6-8.1-8.1V60.8c0-4.5,3.6-8.1,8.1-8.1s8.1,3.6,8.1,8.1v12.4
			C91.9,77.7,88.2,81.3,83.8,81.3z M83.8,55.7c-2.8,0-5.1,2.3-5.1,5.2v12.4c0,2.8,2.3,5.1,5.1,5.1c2.8,0,5.2-2.3,5.2-5.1V60.8
			C88.9,58,86.6,55.7,83.8,55.7z"/>
	</g>
</g>
<g>
	<path class="st1" d="M104.5,72.3c0,3.7-3,6.6-6.6,6.6l0,0c-3.7,0-6.6-3-6.6-6.6V58c0-3.7,3-6.6,6.6-6.6l0,0c3.7,0,6.6,3,6.6,6.6
		V72.3z"/>
	<g>
		<path class="st0" d="M97.9,80.4c-4.5,0-8.1-3.6-8.1-8.1V58c0-4.5,3.6-8.1,8.1-8.1s8.1,3.6,8.1,8.1v14.3
			C106,76.7,102.4,80.4,97.9,80.4z M97.9,52.8c-2.8,0-5.2,2.3-5.2,5.2v14.3c0,2.8,2.3,5.1,5.2,5.1c2.8,0,5.1-2.3,5.1-5.1V58
			C103.1,55.1,100.7,52.8,97.9,52.8z"/>
	</g>
</g>
<g>
	<path class="st1" d="M117.7,69.9c0,3.7-3,6.6-6.6,6.6l0,0c-3.7,0-6.6-3-6.6-6.6v-9.1c0-3.7,3-6.6,6.6-6.6l0,0c3.7,0,6.6,3,6.6,6.6
		V69.9z"/>
	<g>
		<path class="st0" d="M111.1,78c-4.5,0-8.1-3.6-8.1-8.1v-9.1c0-4.5,3.6-8.1,8.1-8.1s8.1,3.6,8.1,8.1v9.1
			C119.2,74.4,115.6,78,111.1,78z M111.1,55.7c-2.8,0-5.1,2.3-5.1,5.2V70c0,2.8,2.3,5.1,5.1,5.1c2.8,0,5.1-2.3,5.1-5.1v-9.1
			C116.3,58,114,55.7,111.1,55.7z"/>
	</g>
</g>
<g>
	<path class="st1" d="M131,69.9c0,3.7-3,6.6-6.6,6.6l0,0c-3.7,0-6.6-3-6.6-6.6v-6.2c0-3.7,3-6.6,6.6-6.6l0,0c3.7,0,6.6,3,6.6,6.6
		V69.9z"/>
	<g>
		<path class="st0" d="M124.4,78c-4.5,0-8.1-3.6-8.1-8.1v-6.2c0-4.5,3.6-8.1,8.1-8.1c4.5,0,8.1,3.6,8.1,8.1v6.2
			C132.4,74.4,128.8,78,124.4,78z M124.4,58.6c-2.8,0-5.1,2.3-5.1,5.1v6.2c0,2.8,2.3,5.1,5.1,5.1c2.8,0,5.1-2.3,5.1-5.1v-6.2
			C129.5,60.9,127.2,58.6,124.4,58.6z"/>
	</g>
</g>
<g>
	<path class="st1" d="M90.7,104.3c2.5-19.9-14.1-24.5-14.1-24.5h19.2c8.7-1.9,8.7-12.8,8.7-12.8H74.3l-10.2,8.6c0,0-5.5,6-3.7,14.1
		c0,0,4.1,13.4,16.7,25.9"/>
	<path class="st0" d="M76.1,116.7c-12.7-12.6-16.9-26-17.1-26.5v-0.1c-1.9-8.8,3.8-15.2,4.1-15.4l0.1-0.1L73.4,66
		c0.3-0.2,0.6-0.3,0.9-0.3h30.2c0.8,0,1.5,0.7,1.5,1.5c0,4.2-2.1,12.6-9.9,14.2c-0.1,0-0.2,0-0.3,0H82.7c4.9,3.4,11,10.3,9.4,23.2
		l-2.9-0.4c1-7.8-0.9-14-5.7-18.5c-3.5-3.3-7.3-4.4-7.4-4.4c-0.7-0.2-1.2-0.9-1.1-1.6s0.7-1.3,1.5-1.3h19c3-0.7,5.1-2.7,6.4-6.1
		c0.5-1.4,0.8-2.8,0.9-3.8H74.9l-9.7,8.1c-0.5,0.6-4.8,5.9-3.3,12.7c0.3,0.9,4.6,13.6,16.3,25.3L76.1,116.7z"/>
</g>
<path class="st6" d="M154.4,64.8h20.2c-3.4-7.8-11.1-13.2-20.2-13.2c-8.5,0-15.9,4.9-19.5,12v20c3.6,7.1,11,12,19.5,12
	c9,0,16.8-5.4,20.2-13.2h-20.2V64.8z"/>
<g>
	<path class="st5" d="M157.5,91.2c-9.7-0.2-17.4-8.3-17.2-18l2.9,0.1c-0.2,8.1,6.2,14.8,14.3,15V91.2z"/>
</g>
<rect x="71.6" y="126.7" class="st0" width="54.2" height="22.6"/>
<path class="st0" d="M119.9,138c0,1.9-1.6,3.5-3.5,3.5s-3.5-1.6-3.5-3.5s1.6-3.5,3.5-3.5C118.4,134.5,119.9,136,119.9,138z"/>
<g>
	<path class="st5" d="M116.4,143c-2.7,0-5-2.2-5-5c0-2.7,2.2-5,5-5c2.7,0,5,2.2,5,5C121.4,140.7,119.2,143,116.4,143z M116.4,135.9
		c-1.1,0-2.1,0.9-2.1,2.1c0,1.1,0.9,2,2.1,2c1.1,0,2-0.9,2-2C118.5,136.8,117.6,135.9,116.4,135.9z"/>
</g>
<path class="st7" d="M162,192H30c-16.6,0-30-13.4-30-30V30C0,13.4,13.4,0,30,0h132c16.6,0,30,13.4,30,30v132
	C192,178.6,178.6,192,162,192z"/>
</svg>
