<?xml version="1.0" encoding="utf-8"?>
<!-- Generator: Adobe Illustrator 24.0.2, SVG Export Plug-In . SVG Version: 6.00 Build 0)  -->
<svg version="1.1" id="Layer_1" xmlns="http://www.w3.org/2000/svg" xmlns:xlink="http://www.w3.org/1999/xlink" x="0px" y="0px"
	 viewBox="0 0 192 192" style="enable-background:new 0 0 192 192;" xml:space="preserve">
<style type="text/css">
	.st0{opacity:0.15;fill:none;stroke:#808080;stroke-miterlimit:10;enable-background:new    ;}
	.st1{fill:#FF5900;}
	.st2{fill:none;stroke:#FF5900;stroke-width:5;stroke-miterlimit:10;}
	.st3{opacity:0.64;fill:#FFE69E;stroke:#DFBBB0;stroke-miterlimit:10;enable-background:new    ;}
	.st4{fill:none;stroke:#FFAB4D;stroke-width:5;stroke-miterlimit:10;}
	.st5{fill:none;stroke:#FFAB4D;stroke-width:5;stroke-linecap:round;stroke-linejoin:round;stroke-miterlimit:10;}
	.st6{fill:#FE9249;}
	.st7{fill:#F7682F;}
	.st8{fill:#F4EFE9;}
	.st9{clip-path:url(#SVGID_2_);}
	.st10{fill:#FFFFFF;}
	.st11{clip-path:url(#SVGID_4_);}
	.st12{clip-path:url(#SVGID_6_);}
	.st13{clip-path:url(#SVGID_8_);}
	.st14{clip-path:url(#SVGID_10_);}
	.st15{clip-path:url(#SVGID_12_);}
	.st16{clip-path:url(#SVGID_14_);}
</style>
<path class="st0" d="M162,192H30c-16.6,0-30-13.4-30-30V30C0,13.4,13.4,0,30,0h132c16.6,0,30,13.4,30,30v132
	C192,178.6,178.6,192,162,192z"/>
<g>
	<path class="st1" d="M164.5,53h-137c-2.3,0-4.1-1.8-4.1-4.1l0,0c0-2.3,1.8-4.1,4.1-4.1h136.9c2.3,0,4.1,1.8,4.1,4.1l0,0
		C168.6,51.1,166.7,53,164.5,53z"/>
	<rect x="27.8" y="65.6" class="st2" width="136.4" height="76.7"/>
	<rect x="27.8" y="72.3" class="st3" width="136.4" height="70"/>
	<rect x="43.3" y="93.9" class="st4" width="78.9" height="36.2"/>
	<rect x="43.3" y="93.9" class="st1" width="78.9" height="36.2"/>
	<rect x="122.3" y="93.8" class="st4" width="26.4" height="43.8"/>
	<rect x="122.3" y="93.8" class="st1" width="26.4" height="43.8"/>
	<line class="st5" x1="61.3" y1="93.9" x2="61.3" y2="130.1"/>
	<line class="st5" x1="79.8" y1="93.9" x2="79.8" y2="130.1"/>
	<line class="st5" x1="100.8" y1="93.9" x2="100.8" y2="130.1"/>
	<circle class="st5" cx="124.4" cy="115.2" r="2.1"/>
	<g>
		<g>
			<g>
				<g>
					<path class="st6" d="M163.7,51.1c-0.6-1.4-1.9-2.2-3.3-2.2h-41.5H73.1H32c-1.7,0-3.3,1.1-4,2.7l-9.4,22.9h49.3h55.8H173
						L163.7,51.1z"/>
				</g>
			</g>
		</g>
		<g>
			<g>
				<g>
					<path class="st7" d="M23.7,82.7L23.7,82.7c-2.8,0-5-2.2-5-4.9v-3.4h9.8v3.4C28.5,80.5,26.4,82.7,23.7,82.7z"/>
				</g>
			</g>
		</g>
		<g>
			<g>
				<g>
					<path class="st7" d="M44.1,82.7L44.1,82.7c-3,0-5.4-2.2-5.4-4.9v-3.4h10.7v3.4C49.4,80.5,47,82.7,44.1,82.7z"/>
				</g>
			</g>
		</g>
		<g>
			<g>
				<g>
					<path class="st7" d="M64.6,82.7L64.6,82.7c-3.2,0-5.6-2.2-5.6-4.9v-3.4h11.2v3.4C70.2,80.5,67.7,82.7,64.6,82.7z"/>
				</g>
			</g>
		</g>
		<g>
			<g>
				<g>
					<path class="st7" d="M85.5,82.7L85.5,82.7c-3.2,0-5.7-2.2-5.7-4.9v-3.4h11.3v3.4C91.1,80.5,88.6,82.7,85.5,82.7z"/>
				</g>
			</g>
		</g>
		<g>
			<g>
				<g>
					<path class="st7" d="M106.4,82.7L106.4,82.7c-3.1,0-5.6-2.2-5.6-4.9v-3.4h11.1v3.4C111.9,80.5,109.4,82.7,106.4,82.7z"/>
				</g>
			</g>
		</g>
		<g>
			<g>
				<g>
					<path class="st7" d="M127,82.7L127,82.7c-3.1,0-5.6-2.2-5.6-4.9v-3.4h11.1v3.4C132.5,80.5,130,82.7,127,82.7z"/>
				</g>
			</g>
		</g>
		<g>
			<g>
				<g>
					<path class="st7" d="M147.8,82.7h-0.1c-3,0-5.4-2.2-5.4-4.9v-3.4h10.9v3.4C153.2,80.5,150.8,82.7,147.8,82.7z"/>
				</g>
			</g>
		</g>
		<g>
			<g>
				<g>
					<path class="st7" d="M168.3,82.7h-0.1c-2.8,0-5-2.2-5-4.9v-3.4h10.1v3.4C173.3,80.5,171,82.7,168.3,82.7z"/>
				</g>
			</g>
		</g>
		<g>
			<g>
				<g>
					<path class="st8" d="M33.7,82.7L33.7,82.7c-2.9,0-5.1-2.2-5.1-4.9v-3.4h10.2v3.4C38.7,80.5,36.4,82.7,33.7,82.7z"/>
				</g>
			</g>
		</g>
		<g>
			<g>
				<g>
					<path class="st8" d="M54.3,82.7L54.3,82.7c-2.7,0-4.8-2.2-4.8-4.9v-3.4H59v3.4C59,80.5,56.9,82.7,54.3,82.7z"/>
				</g>
			</g>
		</g>
		<g>
			<g>
				<g>
					<path class="st8" d="M75,82.7L75,82.7c-2.7,0-4.9-2.2-4.9-4.9v-3.4h9.7v3.4C79.8,80.5,77.7,82.7,75,82.7z"/>
				</g>
			</g>
		</g>
		<g>
			<g>
				<g>
					<path class="st8" d="M96,82.7L96,82.7c-2.7,0-4.9-2.2-4.9-4.9v-3.4h9.7v3.4C100.8,80.5,98.7,82.7,96,82.7z"/>
				</g>
			</g>
		</g>
		<g>
			<g>
				<g>
					<path class="st8" d="M116.7,82.7L116.7,82.7c-2.7,0-4.8-2.2-4.8-4.9v-3.4h9.5v3.4C121.3,80.5,119.2,82.7,116.7,82.7z"/>
				</g>
			</g>
		</g>
		<g>
			<g>
				<g>
					<path class="st8" d="M137.5,82.7L137.5,82.7c-2.8,0-5-2.2-5-4.9v-3.4h9.9v3.4C142.4,80.5,140.2,82.7,137.5,82.7z"/>
				</g>
			</g>
		</g>
		<g>
			<g>
				<g>
					<path class="st8" d="M158.3,82.7h-0.1c-2.8,0-5-2.2-5-4.9v-3.4h10.1v3.4C163.3,80.5,161,82.7,158.3,82.7z"/>
				</g>
			</g>
		</g>
		<g>
			<g>
				<defs>
					<path id="SVGID_1_" d="M164.1,52c-0.8-1.9-2.7-3.2-4.7-3.2h-40.5H73.1H29.2L18.7,74.4H68h55.8h49.3L164.1,52z"/>
				</defs>
				<clipPath id="SVGID_2_">
					<use xlink:href="#SVGID_1_"  style="overflow:visible;"/>
				</clipPath>
				<g class="st9">
					<g>
						<g>
							<rect x="91.1" y="45.6" class="st10" width="9.7" height="41.4"/>
						</g>
					</g>
				</g>
			</g>
			<g>
				<defs>
					<path id="SVGID_3_" d="M164.1,52c-0.8-1.9-2.7-3.2-4.7-3.2h-40.5H73.1H29.2L18.7,74.4H68h55.8h49.3L164.1,52z"/>
				</defs>
				<clipPath id="SVGID_4_">
					<use xlink:href="#SVGID_3_"  style="overflow:visible;"/>
				</clipPath>
				<g class="st11">
					<g>
						<g>
							<polygon class="st10" points="78.5,85.7 68.8,84.3 74.5,43.4 83.5,44.4 							"/>
						</g>
					</g>
				</g>
			</g>
			<g>
				<defs>
					<path id="SVGID_5_" d="M164.1,52c-0.8-1.9-2.7-3.2-4.7-3.2h-40.5H73.1H29.2L18.7,74.4H68h55.8h49.3L164.1,52z"/>
				</defs>
				<clipPath id="SVGID_6_">
					<use xlink:href="#SVGID_5_"  style="overflow:visible;"/>
				</clipPath>
				<g class="st12">
					<g>
						<g>
							<polygon class="st10" points="56.9,84 47.4,81.6 58.5,41.5 66.2,43.9 							"/>
						</g>
					</g>
				</g>
			</g>
			<g>
				<defs>
					<path id="SVGID_7_" d="M164.1,52c-0.8-1.9-2.7-3.2-4.7-3.2h-40.5H73.1H29.2L18.7,74.4H68h55.8h49.3L164.1,52z"/>
				</defs>
				<clipPath id="SVGID_8_">
					<use xlink:href="#SVGID_7_"  style="overflow:visible;"/>
				</clipPath>
				<g class="st13">
					<g>
						<g>
							<polygon class="st10" points="113.3,85.7 123,84.3 116.2,43.3 108,44.6 							"/>
						</g>
					</g>
				</g>
			</g>
			<g>
				<defs>
					<path id="SVGID_9_" d="M164.1,52c-0.8-1.9-2.7-3.2-4.7-3.2h-40.5H73.1H29.2L18.7,74.4H68h55.8h49.3L164.1,52z"/>
				</defs>
				<clipPath id="SVGID_10_">
					<use xlink:href="#SVGID_9_"  style="overflow:visible;"/>
				</clipPath>
				<g class="st14">
					<g>
						<g>
							<polygon class="st10" points="156.4,83.8 165.5,80.5 151.2,41.6 143,44.7 							"/>
						</g>
					</g>
				</g>
			</g>
			<g>
				<defs>
					<path id="SVGID_11_" d="M164.1,52c-0.8-1.9-2.7-3.2-4.7-3.2h-40.5H73.1H29.2L18.7,74.4H68h55.8h49.3L164.1,52z"/>
				</defs>
				<clipPath id="SVGID_12_">
					<use xlink:href="#SVGID_11_"  style="overflow:visible;"/>
				</clipPath>
				<g class="st15">
					<g>
						<g>
							<polygon class="st10" points="35.5,83.8 26.3,80.5 40.6,41.6 48.9,44.7 							"/>
						</g>
					</g>
				</g>
			</g>
			<g>
				<defs>
					<path id="SVGID_13_" d="M164.1,52c-0.8-1.9-2.7-3.2-4.7-3.2h-40.5H73.1H29.2L18.7,74.4H68h55.8h49.3L164.1,52z"/>
				</defs>
				<clipPath id="SVGID_14_">
					<use xlink:href="#SVGID_13_"  style="overflow:visible;"/>
				</clipPath>
				<g class="st16">
					<g>
						<g>
							<polygon class="st10" points="134.9,84 144.3,81.6 133.3,41.6 124.6,43.9 							"/>
						</g>
					</g>
				</g>
			</g>
		</g>
	</g>
	<path class="st1" d="M170.1,147.3H21.9c-1.9,0-3.4-1.5-3.4-3.4l0,0c0-1.9,1.5-3.4,3.4-3.4h148.2c1.9,0,3.4,1.5,3.4,3.4l0,0
		C173.5,145.7,172,147.3,170.1,147.3z"/>
</g>
</svg>
